<svg xmlns="http://www.w3.org/2000/svg" width="920" height="520" viewBox="0 0 920 520">
<rect width="100%" height="100%" fill="white"/>
<text x="460" y="28" text-anchor="middle" font-family="Arial" font-size="20">Teaching Aero Table Coefficients</text>
<rect x="78" y="54" width="720" height="380" fill="#fafafa" stroke="#222"/>
<line x1="78" y1="434" x2="798" y2="434" stroke="#222"/>
<line x1="78" y1="54" x2="78" y2="434" stroke="#222"/>
<text x="438" y="492" text-anchor="middle" font-family="Arial" font-size="14">time (s)</text>
<text transform="translate(22,244) rotate(-90)" text-anchor="middle" font-family="Arial" font-size="14">coefficient</text>
<text x="78" y="456" text-anchor="middle" font-family="Arial" font-size="11">-1.44</text>
<text x="798" y="456" text-anchor="middle" font-family="Arial" font-size="11">25.44</text>
<text x="68" y="434" text-anchor="end" font-family="Arial" font-size="11">-0.10</text>
<text x="68" y="59" text-anchor="end" font-family="Arial" font-size="11">0.41</text>
<polyline fill="none" stroke="#2f6fbb" stroke-width="2.2" points="116.57,196.27 117.91,194.75 119.25,193.24 120.59,191.73 121.93,190.22 123.27,188.71 124.61,187.20 125.95,185.69 127.29,184.18 128.62,182.68 129.96,181.18 131.30,179.68 132.64,178.18 133.98,176.68 135.32,175.19 136.66,173.70 138.00,172.22 139.34,170.74 140.68,169.26 142.02,167.79 143.36,166.32 144.70,164.85 146.04,163.39 147.38,161.94 148.71,160.49 150.05,159.04 151.39,157.60 152.73,156.17 154.07,154.75 155.41,153.33 156.75,151.91 158.09,150.50 159.43,149.10 160.77,147.71 162.11,146.33 163.45,144.95 164.79,143.58 166.12,142.22 167.46,140.87 168.80,139.52 170.14,138.18 171.48,136.86 172.82,135.54 174.16,134.23 175.50,132.93 176.84,131.64 178.18,130.36 179.52,129.09 180.86,127.83 182.20,126.58 183.54,125.35 184.88,124.12 186.21,122.90 187.55,121.70 188.89,120.51 190.23,119.32 191.57,118.15 192.91,117.00 194.25,115.85 195.59,114.72 196.93,113.60 198.27,112.49 199.61,111.39 200.95,110.31 202.29,109.24 203.62,108.19 204.96,107.15 206.30,106.12 207.64,105.10 208.98,104.10 210.32,103.12 211.66,102.15 213.00,101.19 214.34,100.25 215.68,99.32 217.02,98.41 218.36,97.51 219.70,96.63 221.04,95.76 222.38,94.91 223.71,94.07 225.05,93.25 226.39,92.45 227.73,91.66 229.07,90.89 230.41,90.14 231.75,89.40 233.09,88.67 234.43,87.97 235.77,87.28 237.11,86.61 238.45,85.95 239.79,85.31 241.12,84.69 242.46,84.09 243.80,83.50 245.14,82.93 246.48,82.38 247.82,81.85 249.16,81.33 250.50,80.83 251.84,80.35 253.18,79.89 254.52,79.45 255.86,79.02 257.20,78.61 258.54,78.23 259.88,77.85 261.21,77.50 262.55,77.17 263.89,76.85 265.23,76.55 266.57,76.28 267.91,76.02 269.25,75.78 270.59,75.55 271.93,75.35 273.27,75.17 274.61,75.00 275.95,74.85 277.29,74.72 278.62,74.62 279.96,74.53 281.30,74.46 282.64,74.40 283.98,74.37 285.32,74.36 286.66,74.36 288.00,74.39 289.34,74.43 290.68,74.49 292.02,74.58 293.36,74.68 294.70,74.80 296.04,74.94 297.38,75.09 298.71,75.27 300.05,75.47 301.39,75.68 302.73,75.92 304.07,76.17 305.41,76.44 306.75,76.73 308.09,77.04 309.43,77.37 310.77,77.72 312.11,78.08 313.45,78.47 314.79,78.87 316.12,79.29 317.46,79.73 318.80,80.19 320.14,80.67 321.48,81.17 322.82,81.68 324.16,82.21 325.50,82.76 326.84,83.33 328.18,83.92 329.52,84.52 330.86,85.14 332.20,85.78 333.54,86.44 334.88,87.11 336.21,87.81 337.55,88.52 338.89,89.24 340.23,89.99 341.57,90.75 342.91,91.53 344.25,92.32 345.59,93.13 346.93,93.96 348.27,94.81 349.61,95.67 350.95,96.54 352.29,97.44 353.62,98.35 354.96,99.27 356.30,100.21 357.64,101.17 358.98,102.14 360.32,103.13 361.66,104.13 363.00,105.15 364.34,106.18 365.68,107.23 367.02,108.29 368.36,109.37 369.70,110.46 371.04,111.57 372.38,112.69 373.71,113.82 375.05,114.97 376.39,116.13 377.73,117.30 379.07,118.49 380.41,119.69 381.75,120.90 383.09,122.12 384.43,123.36 385.77,124.61 387.11,125.87 388.45,127.15 389.79,128.43 391.12,129.73 392.46,131.04 393.80,132.36 395.14,133.69 396.48,135.03 397.82,136.38 399.16,137.75 400.50,139.12 401.84,140.50 403.18,141.89 404.52,143.30 405.86,144.71 407.20,146.13 408.54,147.56 409.88,149.00 411.21,150.44 412.55,151.90 413.89,153.36 415.23,154.84 416.57,156.32 417.91,157.80 419.25,159.30 420.59,160.80 421.93,162.31 423.27,163.82 424.61,165.34 425.95,166.87 427.29,168.40 428.62,169.94 429.96,171.49 431.30,173.04 432.64,174.59 433.98,176.15 435.32,177.71 436.66,179.28 438.00,180.86 439.34,182.43 440.68,184.01 442.02,185.60 443.36,187.18 444.70,188.77 446.04,190.37 447.38,191.96 448.71,193.56 450.05,195.16 451.39,196.76 452.73,198.36 454.07,199.97 455.41,201.57 456.75,203.18 458.09,204.78 459.43,206.39 460.77,208.00 462.11,209.60 463.45,211.21 464.79,212.82 466.12,214.42 467.46,216.03 468.80,217.63 470.14,219.23 471.48,220.83 472.82,222.43 474.16,224.02 475.50,225.62 476.84,227.21 478.18,228.79 479.52,230.38 480.86,231.96 482.20,233.53 483.54,235.11 484.88,236.67 486.21,238.24 487.55,239.80 488.89,241.35 490.23,242.90 491.57,244.45 492.91,245.99 494.25,247.52 495.59,249.05 496.93,250.57 498.27,252.08 499.61,253.59 500.95,255.09 502.29,256.58 503.62,258.07 504.96,259.55 506.30,261.02 507.64,262.48 508.98,263.93 510.32,265.38 511.66,266.82 513.00,268.24 514.34,269.66 515.68,271.07 517.02,272.47 518.36,273.86 519.70,275.24 521.04,276.61 522.38,277.97 523.71,279.32 525.05,280.66 526.39,281.99 527.73,283.30 529.07,284.61 530.41,285.90 531.75,287.18 533.09,288.45 534.43,289.71 535.77,290.95 537.11,292.18 538.45,293.40 539.79,294.61 541.12,295.80 542.46,296.98 543.80,298.15 545.14,299.30 546.48,300.44 547.82,301.56 549.16,302.67 550.50,303.77 551.84,304.85 553.18,305.91 554.52,306.96 555.86,308.00 557.20,309.02 558.54,310.03 559.88,311.02 561.21,311.99 562.55,312.95 563.89,313.89 565.23,314.82 566.57,315.73 567.91,316.62 569.25,317.49 570.59,318.35 571.93,319.20 573.27,320.02 574.61,320.83 575.95,321.62 577.29,322.40 578.62,323.15 579.96,323.89 581.30,324.61 582.64,325.31 583.98,326.00 585.32,326.67 586.66,327.31 588.00,327.94 589.34,328.56 590.68,329.15 592.02,329.72 593.36,330.28 594.70,330.81 596.04,331.33 597.38,331.83 598.71,332.31 600.05,332.77 601.39,333.21 602.73,333.63 604.07,334.04 605.41,334.42 606.75,334.78 608.09,335.12 609.43,335.45 610.77,335.75 612.11,336.04 613.45,336.30 614.79,336.54 616.12,336.77 617.46,336.97 618.80,337.15 620.14,337.32 621.48,337.46 622.82,337.59 624.16,337.69 625.50,337.77 626.84,337.83 628.18,337.88 629.52,337.90 630.86,337.90 632.20,337.88 633.54,337.84 634.88,337.78 636.21,337.70 637.55,337.60 638.89,337.48 640.23,337.34 641.57,337.17 642.91,336.99 644.25,336.79 645.59,336.57 646.93,336.32 648.27,336.06 649.61,335.77 650.95,335.47 652.29,335.14 653.62,334.80 654.96,334.43 656.30,334.05 657.64,333.64 658.98,333.22 660.32,332.77 661.66,332.30 663.00,331.82 664.34,331.31 665.68,330.79 667.02,330.24 668.36,329.68 669.70,329.09 671.04,328.49 672.38,327.86 673.71,327.22 675.05,326.56 676.39,325.88 677.73,325.18 679.07,324.45 680.41,323.72 681.75,322.96 683.09,322.18 684.43,321.39 685.77,320.57 687.11,319.74 688.45,318.89 689.79,318.02 691.13,317.13 692.46,316.22 693.80,315.30 695.14,314.36 696.48,313.40 697.82,312.42 699.16,311.43 700.50,310.41 701.84,309.38 703.18,308.34 704.52,307.28 705.86,306.20 707.20,305.10 708.54,303.98 709.88,302.86 711.21,301.71 712.55,300.55 713.89,299.37 715.23,298.17 716.57,296.97 717.91,295.74 719.25,294.50 720.59,293.24 721.93,291.97 723.27,290.69 724.61,289.39 725.95,288.07 727.29,286.75 728.62,285.40 729.96,284.05 731.30,282.68 732.64,281.29 733.98,279.89 735.32,278.48 736.66,277.06 738.00,275.62 739.34,274.18 740.68,272.71 742.02,271.24 743.36,269.75 744.70,268.26 746.04,266.75 747.38,265.23 748.71,263.70 750.05,262.15 751.39,260.60 752.73,259.03 754.07,257.46 755.41,255.88 756.75,254.28 758.09,252.68 759.43,251.06"/>
<line x1="828" y1="78" x2="856" y2="78" stroke="#2f6fbb" stroke-width="3"/>
<text x="864" y="82" font-family="Arial" font-size="13">CL</text>
<polyline fill="none" stroke="#c23b3b" stroke-width="2.2" points="116.57,308.87 117.91,308.72 119.25,308.56 120.59,308.41 121.93,308.26 123.27,308.10 124.61,307.95 125.95,307.80 127.29,307.65 128.62,307.50 129.96,307.34 131.30,307.19 132.64,307.04 133.98,306.89 135.32,306.74 136.66,306.59 138.00,306.45 139.34,306.30 140.68,306.15 142.02,306.00 143.36,305.86 144.70,305.71 146.04,305.56 147.38,305.42 148.71,305.28 150.05,305.13 151.39,304.99 152.73,304.85 154.07,304.70 155.41,304.56 156.75,304.42 158.09,304.28 159.43,304.14 160.77,304.01 162.11,303.87 163.45,303.73 164.79,303.59 166.12,303.46 167.46,303.32 168.80,303.19 170.14,303.06 171.48,302.93 172.82,302.80 174.16,302.67 175.50,302.54 176.84,302.41 178.18,302.28 179.52,302.15 180.86,302.03 182.20,301.90 183.54,301.78 184.88,301.66 186.21,301.54 187.55,301.41 188.89,301.30 190.23,301.18 191.57,301.06 192.91,300.94 194.25,300.83 195.59,300.71 196.93,300.60 198.27,300.48 199.61,300.33 200.95,300.19 202.29,300.04 203.62,299.90 204.96,299.76 206.30,299.62 207.64,299.48 208.98,299.34 210.32,299.21 211.66,299.08 213.00,298.95 214.34,298.82 215.68,298.69 217.02,298.56 218.36,298.44 219.70,298.31 221.04,298.19 222.38,298.07 223.71,297.96 225.05,297.84 226.39,297.73 227.73,297.62 229.07,297.51 230.41,297.40 231.75,297.29 233.09,297.19 234.43,297.08 235.77,296.98 237.11,296.89 238.45,296.79 239.79,296.69 241.12,296.60 242.46,296.51 243.80,296.42 245.14,296.33 246.48,296.25 247.82,296.17 249.16,296.09 250.50,296.01 251.84,295.93 253.18,295.86 254.52,295.78 255.86,295.71 257.20,295.64 258.54,295.58 259.88,295.51 261.21,295.45 262.55,295.39 263.89,295.33 265.23,295.28 266.57,295.22 267.91,295.17 269.25,295.12 270.59,295.07 271.93,295.03 273.27,294.98 274.61,294.94 275.95,294.90 277.29,294.87 278.62,294.83 279.96,294.80 281.30,294.77 282.64,294.68 283.98,294.58 285.32,294.48 286.66,294.39 288.00,294.30 289.34,294.21 290.68,294.13 292.02,294.05 293.36,293.97 294.70,293.90 296.04,293.83 297.38,293.76 298.71,293.69 300.05,293.63 301.39,293.57 302.73,293.52 304.07,293.47 305.41,293.42 306.75,293.37 308.09,293.33 309.43,293.29 310.77,293.25 312.11,293.22 313.45,293.19 314.79,293.16 316.12,293.13 317.46,293.11 318.80,293.10 320.14,293.08 321.48,293.07 322.82,293.06 324.16,293.05 325.50,293.05 326.84,293.05 328.18,293.05 329.52,293.06 330.86,293.07 332.20,293.08 333.54,293.10 334.88,293.12 336.21,293.14 337.55,293.17 338.89,293.19 340.23,293.22 341.57,293.26 342.91,293.30 344.25,293.34 345.59,293.38 346.93,293.43 348.27,293.48 349.61,293.53 350.95,293.58 352.29,293.64 353.62,293.70 354.96,293.77 356.30,293.83 357.64,293.90 358.98,293.98 360.32,294.05 361.66,294.13 363.00,294.21 364.34,294.30 365.68,294.38 367.02,294.47 368.36,294.57 369.70,294.66 371.04,294.76 372.38,294.86 373.71,294.96 375.05,295.07 376.39,295.18 377.73,295.29 379.07,295.41 380.41,295.53 381.75,295.65 383.09,295.77 384.43,295.89 385.77,296.02 387.11,296.12 388.45,296.21 389.79,296.31 391.12,296.41 392.46,296.51 393.80,296.62 395.14,296.73 396.48,296.83 397.82,296.95 399.16,297.06 400.50,297.17 401.84,297.29 403.18,297.41 404.52,297.53 405.86,297.66 407.20,297.78 408.54,297.91 409.88,298.04 411.21,298.17 412.55,298.30 413.89,298.44 415.23,298.58 416.57,298.72 417.91,298.86 419.25,299.00 420.59,299.15 421.93,299.29 423.27,299.44 424.61,299.59 425.95,299.75 427.29,299.90 428.62,300.03 429.96,300.13 431.30,300.24 432.64,300.35 433.98,300.45 435.32,300.56 436.66,300.68 438.00,300.79 439.34,300.91 440.68,301.02 442.02,301.14 443.36,301.26 444.70,301.38 446.04,301.51 447.38,301.63 448.71,301.76 450.05,301.89 451.39,302.02 452.73,302.15 454.07,302.28 455.41,302.42 456.75,302.55 458.09,302.69 459.43,302.83 460.77,302.97 462.11,303.11 463.45,303.25 464.79,303.40 466.12,303.55 467.46,303.68 468.80,303.78 470.14,303.88 471.48,303.99 472.82,304.09 474.16,304.20 475.50,304.30 476.84,304.41 478.18,304.49 479.52,304.52 480.86,304.56 482.20,304.60 483.54,304.63 484.88,304.67 486.21,304.71 487.55,304.75 488.89,304.79 490.23,304.81 491.57,304.84 492.91,304.87 494.25,304.89 495.59,304.92 496.93,304.95 498.27,304.98 499.61,305.01 500.95,305.04 502.29,305.07 503.62,305.10 504.96,305.13 506.30,305.16 507.64,305.19 508.98,305.22 510.32,305.25 511.66,305.29 513.00,305.32 514.34,305.35 515.68,305.38 517.02,305.42 518.36,305.45 519.70,305.49 521.04,305.52 522.38,305.56 523.71,305.59 525.05,305.63 526.39,305.66 527.73,305.70 529.07,305.74 530.41,305.78 531.75,305.81 533.09,305.85 534.43,305.89 535.77,305.93 537.11,305.97 538.45,306.01 539.79,306.05 541.12,306.09 542.46,306.13 543.80,306.17 545.14,306.21 546.48,306.25 547.82,306.29 549.16,306.31 550.50,306.31 551.84,306.31 553.18,306.30 554.52,306.30 555.86,306.30 557.20,306.30 558.54,306.30 559.88,306.31 561.21,306.31 562.55,306.31 563.89,306.32 565.23,306.32 566.57,306.33 567.91,306.33 569.25,306.34 570.59,306.35 571.93,306.36 573.27,306.37 574.61,306.38 575.95,306.39 577.29,306.40 578.62,306.42 579.96,306.43 581.30,306.45 582.64,306.46 583.98,306.48 585.32,306.50 586.66,306.52 588.00,306.53 589.34,306.55 590.68,306.58 592.02,306.60 593.36,306.62 594.70,306.64 596.04,306.67 597.38,306.69 598.71,306.72 600.05,306.75 601.39,306.77 602.73,306.80 604.07,306.83 605.41,306.86 606.75,306.89 608.09,306.92 609.43,306.96 610.77,306.99 612.11,307.02 613.45,307.06 614.79,307.10 616.12,307.13 617.46,307.17 618.80,307.21 620.14,307.25 621.48,307.29 622.82,307.33 624.16,307.37 625.50,307.41 626.84,307.46 628.18,307.50 629.52,307.55 630.86,307.59 632.20,307.64 633.54,307.69 634.88,307.73 636.21,307.78 637.55,307.83 638.89,307.88 640.23,307.94 641.57,307.99 642.91,308.04 644.25,308.10 645.59,308.15 646.93,308.21 648.27,308.26 649.61,308.32 650.95,308.38 652.29,308.44 653.62,308.49 654.96,308.55 656.30,308.62 657.64,308.68 658.98,308.74 660.32,308.80 661.66,308.87 663.00,308.93 664.34,309.00 665.68,309.06 667.02,309.13 668.36,309.19 669.70,309.26 671.04,309.33 672.38,309.40 673.71,309.47 675.05,309.54 676.39,309.61 677.73,309.68 679.07,309.76 680.41,309.83 681.75,309.90 683.09,309.98 684.43,310.05 685.77,310.13 687.11,310.21 688.45,310.28 689.79,310.35 691.13,310.33 692.46,310.30 693.80,310.28 695.14,310.26 696.48,310.24 697.82,310.22 699.16,310.20 700.50,310.18 701.84,310.16 703.18,310.15 704.52,310.13 705.86,310.12 707.20,310.10 708.54,310.09 709.88,310.08 711.21,310.07 712.55,310.06 713.89,310.05 715.23,310.04 716.57,310.03 717.91,310.02 719.25,310.02 720.59,310.01 721.93,310.00 723.27,310.00 724.61,310.00 725.95,309.99 727.29,309.99 728.62,309.99 729.96,309.99 731.30,309.99 732.64,309.99 733.98,310.00 735.32,310.00 736.66,309.99 738.00,309.95 739.34,309.91 740.68,309.87 742.02,309.83 743.36,309.79 744.70,309.75 746.04,309.71 747.38,309.67 748.71,309.63 750.05,309.59 751.39,309.55 752.73,309.51 754.07,309.47 755.41,309.43 756.75,309.40 758.09,309.36 759.43,309.32"/>
<line x1="828" y1="102" x2="856" y2="102" stroke="#c23b3b" stroke-width="3"/>
<text x="864" y="106" font-family="Arial" font-size="13">CD</text>
<polyline fill="none" stroke="#258a45" stroke-width="2.2" points="116.57,362.78 117.91,362.81 119.25,362.84 120.59,362.87 121.93,362.90 123.27,362.92 124.61,362.95 125.95,362.98 127.29,363.00 128.62,363.03 129.96,363.05 131.30,363.08 132.64,363.10 133.98,363.12 135.32,363.15 136.66,363.17 138.00,363.19 139.34,363.21 140.68,363.23 142.02,363.26 143.36,363.28 144.70,363.30 146.04,363.31 147.38,363.33 148.71,363.35 150.05,363.37 151.39,363.39 152.73,363.40 154.07,363.42 155.41,363.44 156.75,363.45 158.09,363.47 159.43,363.48 160.77,363.50 162.11,363.51 163.45,363.52 164.79,363.54 166.12,363.55 167.46,363.56 168.80,363.57 170.14,363.59 171.48,363.60 172.82,363.61 174.16,363.62 175.50,363.63 176.84,363.64 178.18,363.64 179.52,363.65 180.86,363.66 182.20,363.67 183.54,363.68 184.88,363.68 186.21,363.69 187.55,363.70 188.89,363.70 190.23,363.71 191.57,363.71 192.91,363.72 194.25,363.72 195.59,363.72 196.93,363.73 198.27,363.73 199.61,363.73 200.95,363.73 202.29,363.74 203.62,363.74 204.96,363.74 206.30,363.74 207.64,363.74 208.98,363.74 210.32,363.74 211.66,363.74 213.00,363.74 214.34,363.73 215.68,363.73 217.02,363.73 218.36,363.73 219.70,363.72 221.04,363.72 222.38,363.72 223.71,363.71 225.05,363.71 226.39,363.70 227.73,363.70 229.07,363.69 230.41,363.69 231.75,363.68 233.09,363.68 234.43,363.67 235.77,363.66 237.11,363.66 238.45,363.65 239.79,363.64 241.12,363.63 242.46,363.62 243.80,363.62 245.14,363.61 246.48,363.60 247.82,363.59 249.16,363.58 250.50,363.57 251.84,363.56 253.18,363.55 254.52,363.54 255.86,363.52 257.20,363.51 258.54,363.50 259.88,363.49 261.21,363.48 262.55,363.46 263.89,363.45 265.23,363.44 266.57,363.42 267.91,363.41 269.25,363.40 270.59,363.38 271.93,363.37 273.27,363.35 274.61,363.34 275.95,363.32 277.29,363.31 278.62,363.29 279.96,363.28 281.30,363.26 282.64,363.25 283.98,363.23 285.32,363.21 286.66,363.20 288.00,363.18 289.34,363.16 290.68,363.14 292.02,363.13 293.36,363.11 294.70,363.09 296.04,363.07 297.38,363.05 298.71,363.03 300.05,363.02 301.39,363.00 302.73,362.98 304.07,362.96 305.41,362.94 306.75,362.92 308.09,362.90 309.43,362.88 310.77,362.86 312.11,362.84 313.45,362.82 314.79,362.80 316.12,362.78 317.46,362.75 318.80,362.73 320.14,362.71 321.48,362.69 322.82,362.67 324.16,362.65 325.50,362.62 326.84,362.60 328.18,362.58 329.52,362.56 330.86,362.53 332.20,362.51 333.54,362.49 334.88,362.46 336.21,362.44 337.55,362.42 338.89,362.39 340.23,362.37 341.57,362.35 342.91,362.32 344.25,362.30 345.59,362.27 346.93,362.25 348.27,362.22 349.61,362.20 350.95,362.17 352.29,362.15 353.62,362.12 354.96,362.10 356.30,362.07 357.64,362.05 358.98,362.02 360.32,362.00 361.66,361.97 363.00,361.94 364.34,361.92 365.68,361.89 367.02,361.86 368.36,361.84 369.70,361.81 371.04,361.78 372.38,361.76 373.71,361.73 375.05,361.70 376.39,361.68 377.73,361.65 379.07,361.62 380.41,361.59 381.75,361.57 383.09,361.54 384.43,361.51 385.77,361.48 387.11,361.45 388.45,361.43 389.79,361.40 391.12,361.37 392.46,361.34 393.80,361.31 395.14,361.28 396.48,361.25 397.82,361.23 399.16,361.20 400.50,361.17 401.84,361.14 403.18,361.11 404.52,361.08 405.86,361.05 407.20,361.02 408.54,360.99 409.88,360.96 411.21,360.93 412.55,360.90 413.89,360.87 415.23,360.84 416.57,360.81 417.91,360.78 419.25,360.75 420.59,360.72 421.93,360.69 423.27,360.66 424.61,360.62 425.95,360.59 427.29,360.56 428.62,360.53 429.96,360.50 431.30,360.47 432.64,360.44 433.98,360.40 435.32,360.37 436.66,360.34 438.00,360.31 439.34,360.28 440.68,360.24 442.02,360.21 443.36,360.18 444.70,360.15 446.04,360.11 447.38,360.08 448.71,360.05 450.05,360.02 451.39,359.98 452.73,359.95 454.07,359.92 455.41,359.88 456.75,359.85 458.09,359.82 459.43,359.78 460.77,359.75 462.11,359.72 463.45,359.68 464.79,359.65 466.12,359.61 467.46,359.58 468.80,359.55 470.14,359.51 471.48,359.48 472.82,359.44 474.16,359.41 475.50,359.37 476.84,359.34 478.18,359.30 479.52,359.27 480.86,359.23 482.20,359.20 483.54,359.16 484.88,359.13 486.21,359.09 487.55,359.06 488.89,359.02 490.23,358.99 491.57,358.95 492.91,358.92 494.25,358.88 495.59,358.84 496.93,358.81 498.27,358.77 499.61,358.74 500.95,358.70 502.29,358.66 503.62,358.63 504.96,358.59 506.30,358.55 507.64,358.52 508.98,358.48 510.32,358.44 511.66,358.41 513.00,358.37 514.34,358.33 515.68,358.29 517.02,358.26 518.36,358.22 519.70,358.18 521.04,358.14 522.38,358.11 523.71,358.07 525.05,358.03 526.39,357.99 527.73,357.96 529.07,357.92 530.41,357.88 531.75,357.84 533.09,357.80 534.43,357.76 535.77,357.73 537.11,357.69 538.45,357.65 539.79,357.61 541.12,357.57 542.46,357.53 543.80,357.50 545.14,357.46 546.48,357.42 547.82,357.38 549.16,357.34 550.50,357.30 551.84,357.26 553.18,357.22 554.52,357.18 555.86,357.14 557.20,357.11 558.54,357.07 559.88,357.03 561.21,356.99 562.55,356.95 563.89,356.91 565.23,356.87 566.57,356.83 567.91,356.79 569.25,356.75 570.59,356.71 571.93,356.67 573.27,356.63 574.61,356.59 575.95,356.55 577.29,356.51 578.62,356.48 579.96,356.44 581.30,356.40 582.64,356.36 583.98,356.32 585.32,356.28 586.66,356.24 588.00,356.20 589.34,356.16 590.68,356.12 592.02,356.08 593.36,356.04 594.70,356.00 596.04,355.96 597.38,355.92 598.71,355.88 600.05,355.84 601.39,355.80 602.73,355.76 604.07,355.73 605.41,355.69 606.75,355.65 608.09,355.61 609.43,355.57 610.77,355.53 612.11,355.49 613.45,355.45 614.79,355.41 616.12,355.37 617.46,355.34 618.80,355.30 620.14,355.26 621.48,355.22 622.82,355.18 624.16,355.14 625.50,355.11 626.84,355.07 628.18,355.03 629.52,354.99 630.86,354.95 632.20,354.92 633.54,354.88 634.88,354.84 636.21,354.80 637.55,354.77 638.89,354.73 640.23,354.69 641.57,354.66 642.91,354.62 644.25,354.58 645.59,354.55 646.93,354.51 648.27,354.47 649.61,354.44 650.95,354.40 652.29,354.37 653.62,354.33 654.96,354.30 656.30,354.26 657.64,354.23 658.98,354.19 660.32,354.16 661.66,354.12 663.00,354.09 664.34,354.05 665.68,354.02 667.02,353.99 668.36,353.95 669.70,353.92 671.04,353.89 672.38,353.86 673.71,353.82 675.05,353.79 676.39,353.76 677.73,353.73 679.07,353.70 680.41,353.67 681.75,353.63 683.09,353.60 684.43,353.57 685.77,353.54 687.11,353.51 688.45,353.48 689.79,353.46 691.13,353.43 692.46,353.40 693.80,353.37 695.14,353.34 696.48,353.31 697.82,353.29 699.16,353.26 700.50,353.23 701.84,353.21 703.18,353.18 704.52,353.15 705.86,353.13 707.20,353.10 708.54,353.08 709.88,353.05 711.21,353.03 712.55,353.01 713.89,352.98 715.23,352.96 716.57,352.94 717.91,352.92 719.25,352.89 720.59,352.87 721.93,352.85 723.27,352.83 724.61,352.81 725.95,352.79 727.29,352.77 728.62,352.75 729.96,352.73 731.30,352.72 732.64,352.70 733.98,352.68 735.32,352.66 736.66,352.65 738.00,352.63 739.34,352.61 740.68,352.60 742.02,352.59 743.36,352.57 744.70,352.56 746.04,352.54 747.38,352.53 748.71,352.52 750.05,352.51 751.39,352.50 752.73,352.48 754.07,352.47 755.41,352.46 756.75,352.45 758.09,352.45 759.43,352.44"/>
<line x1="828" y1="126" x2="856" y2="126" stroke="#258a45" stroke-width="3"/>
<text x="864" y="130" font-family="Arial" font-size="13">CY</text>
<polyline fill="none" stroke="#8a4fbf" stroke-width="2.2" points="116.57,364.55 117.91,365.18 119.25,365.82 120.59,366.45 121.93,367.08 123.27,367.71 124.61,368.34 125.95,368.97 127.29,369.59 128.62,370.22 129.96,370.84 131.30,371.47 132.64,372.09 133.98,372.71 135.32,373.33 136.66,373.94 138.00,374.56 139.34,375.17 140.68,375.78 142.02,376.39 143.36,376.99 144.70,377.60 146.04,378.20 147.38,378.80 148.71,379.39 150.05,379.98 151.39,380.57 152.73,381.16 154.07,381.75 155.41,382.33 156.75,382.91 158.09,383.48 159.43,384.05 160.77,384.62 162.11,385.19 163.45,385.75 164.79,386.31 166.12,386.86 167.46,387.41 168.80,387.96 170.14,388.50 171.48,389.04 172.82,389.57 174.16,390.11 175.50,390.63 176.84,391.15 178.18,391.67 179.52,392.18 180.86,392.69 182.20,393.20 183.54,393.70 184.88,394.19 186.21,394.68 187.55,395.17 188.89,395.65 190.23,396.12 191.57,396.59 192.91,397.06 194.25,397.52 195.59,397.97 196.93,398.42 198.27,398.86 199.61,399.30 200.95,399.73 202.29,400.16 203.62,400.58 204.96,401.00 206.30,401.41 207.64,401.81 208.98,402.21 210.32,402.60 211.66,402.99 213.00,403.37 214.34,403.74 215.68,404.11 217.02,404.47 218.36,404.82 219.70,405.17 221.04,405.51 222.38,405.85 223.71,406.18 225.05,406.50 226.39,406.82 227.73,407.13 229.07,407.43 230.41,407.73 231.75,408.02 233.09,408.30 234.43,408.57 235.77,408.84 237.11,409.10 238.45,409.36 239.79,409.61 241.12,409.85 242.46,410.08 243.80,410.31 245.14,410.52 246.48,410.74 247.82,410.94 249.16,411.14 250.50,411.33 251.84,411.51 253.18,411.69 254.52,411.86 255.86,412.02 257.20,412.17 258.54,412.31 259.88,412.45 261.21,412.58 262.55,412.71 263.89,412.82 265.23,412.93 266.57,413.03 267.91,413.12 269.25,413.21 270.59,413.29 271.93,413.36 273.27,413.42 274.61,413.47 275.95,413.52 277.29,413.56 278.62,413.59 279.96,413.62 281.30,413.63 282.64,413.64 283.98,413.64 285.32,413.64 286.66,413.62 288.00,413.60 289.34,413.57 290.68,413.53 292.02,413.49 293.36,413.43 294.70,413.37 296.04,413.30 297.38,413.23 298.71,413.15 300.05,413.05 301.39,412.95 302.73,412.85 304.07,412.73 305.41,412.61 306.75,412.48 308.09,412.35 309.43,412.20 310.77,412.05 312.11,411.89 313.45,411.72 314.79,411.55 316.12,411.37 317.46,411.18 318.80,410.98 320.14,410.77 321.48,410.56 322.82,410.34 324.16,410.12 325.50,409.88 326.84,409.64 328.18,409.40 329.52,409.14 330.86,408.88 332.20,408.61 333.54,408.33 334.88,408.05 336.21,407.76 337.55,407.46 338.89,407.16 340.23,406.84 341.57,406.53 342.91,406.20 344.25,405.87 345.59,405.53 346.93,405.19 348.27,404.84 349.61,404.48 350.95,404.11 352.29,403.74 353.62,403.37 354.96,402.98 356.30,402.59 357.64,402.20 358.98,401.79 360.32,401.38 361.66,400.97 363.00,400.55 364.34,400.12 365.68,399.69 367.02,399.25 368.36,398.81 369.70,398.36 371.04,397.90 372.38,397.44 373.71,396.97 375.05,396.50 376.39,396.02 377.73,395.54 379.07,395.05 380.41,394.56 381.75,394.06 383.09,393.56 384.43,393.05 385.77,392.54 387.11,392.02 388.45,391.50 389.79,390.97 391.12,390.44 392.46,389.90 393.80,389.36 395.14,388.81 396.48,388.26 397.82,387.71 399.16,387.15 400.50,386.59 401.84,386.02 403.18,385.45 404.52,384.87 405.86,384.30 407.20,383.71 408.54,383.13 409.88,382.54 411.21,381.95 412.55,381.35 413.89,380.75 415.23,380.15 416.57,379.54 417.91,378.94 419.25,378.32 420.59,377.71 421.93,377.09 423.27,376.47 424.61,375.85 425.95,375.23 427.29,374.60 428.62,373.97 429.96,373.34 431.30,372.70 432.64,372.07 433.98,371.43 435.32,370.79 436.66,370.15 438.00,369.50 439.34,368.86 440.68,368.21 442.02,367.56 443.36,366.91 444.70,366.26 446.04,365.61 447.38,364.96 448.71,364.30 450.05,363.65 451.39,362.99 452.73,362.34 454.07,361.68 455.41,361.02 456.75,360.37 458.09,359.71 459.43,359.05 460.77,358.39 462.11,357.73 463.45,357.07 464.79,356.41 466.12,355.76 467.46,355.10 468.80,354.44 470.14,353.78 471.48,353.13 472.82,352.47 474.16,351.82 475.50,351.16 476.84,350.51 478.18,349.86 479.52,349.20 480.86,348.56 482.20,347.91 483.54,347.26 484.88,346.61 486.21,345.97 487.55,345.33 488.89,344.69 490.23,344.05 491.57,343.41 492.91,342.78 494.25,342.15 495.59,341.51 496.93,340.89 498.27,340.26 499.61,339.64 500.95,339.02 502.29,338.40 503.62,337.79 504.96,337.17 506.30,336.56 507.64,335.96 508.98,335.35 510.32,334.76 511.66,334.16 513.00,333.57 514.34,332.98 515.68,332.39 517.02,331.81 518.36,331.23 519.70,330.65 521.04,330.08 522.38,329.51 523.71,328.95 525.05,328.39 526.39,327.84 527.73,327.28 529.07,326.74 530.41,326.20 531.75,325.66 533.09,325.12 534.43,324.60 535.77,324.07 537.11,323.55 538.45,323.04 539.79,322.53 541.12,322.03 542.46,321.53 543.80,321.03 545.14,320.54 546.48,320.06 547.82,319.58 549.16,319.11 550.50,318.64 551.84,318.18 553.18,317.72 554.52,317.27 555.86,316.83 557.20,316.39 558.54,315.95 559.88,315.53 561.21,315.11 562.55,314.69 563.89,314.28 565.23,313.88 566.57,313.48 567.91,313.09 569.25,312.71 570.59,312.33 571.93,311.96 573.27,311.59 574.61,311.24 575.95,310.88 577.29,310.54 578.62,310.20 579.96,309.87 581.30,309.54 582.64,309.22 583.98,308.91 585.32,308.61 586.66,308.31 588.00,308.02 589.34,307.74 590.68,307.46 592.02,307.19 593.36,306.93 594.70,306.68 596.04,306.43 597.38,306.19 598.71,305.95 600.05,305.73 601.39,305.51 602.73,305.30 604.07,305.10 605.41,304.90 606.75,304.71 608.09,304.53 609.43,304.36 610.77,304.19 612.11,304.03 613.45,303.88 614.79,303.74 616.12,303.60 617.46,303.47 618.80,303.35 620.14,303.24 621.48,303.13 622.82,303.04 624.16,302.95 625.50,302.87 626.84,302.79 628.18,302.72 629.52,302.67 630.86,302.62 632.20,302.57 633.54,302.54 634.88,302.51 636.21,302.49 637.55,302.48 638.89,302.47 640.23,302.48 641.57,302.49 642.91,302.51 644.25,302.54 645.59,302.57 646.93,302.61 648.27,302.66 649.61,302.72 650.95,302.79 652.29,302.86 653.62,302.94 654.96,303.03 656.30,303.13 657.64,303.23 658.98,303.35 660.32,303.47 661.66,303.59 663.00,303.73 664.34,303.87 665.68,304.02 667.02,304.18 668.36,304.35 669.70,304.52 671.04,304.70 672.38,304.89 673.71,305.08 675.05,305.29 676.39,305.50 677.73,305.72 679.07,305.94 680.41,306.17 681.75,306.41 683.09,306.66 684.43,306.91 685.77,307.17 687.11,307.44 688.45,307.72 689.79,308.00 691.13,308.29 692.46,308.59 693.80,308.89 695.14,309.20 696.48,309.52 697.82,309.84 699.16,310.17 700.50,310.51 701.84,310.85 703.18,311.20 704.52,311.56 705.86,311.92 707.20,312.29 708.54,312.67 709.88,313.05 711.21,313.44 712.55,313.84 713.89,314.24 715.23,314.65 716.57,315.06 717.91,315.48 719.25,315.90 720.59,316.34 721.93,316.77 723.27,317.22 724.61,317.66 725.95,318.12 727.29,318.58 728.62,319.04 729.96,319.51 731.30,319.99 732.64,320.47 733.98,320.96 735.32,321.45 736.66,321.95 738.00,322.45 739.34,322.96 740.68,323.47 742.02,323.98 743.36,324.51 744.70,325.03 746.04,325.56 747.38,326.10 748.71,326.64 750.05,327.18 751.39,327.73 752.73,328.28 754.07,328.84 755.41,329.40 756.75,329.96 758.09,330.53 759.43,331.10"/>
<line x1="828" y1="150" x2="856" y2="150" stroke="#8a4fbf" stroke-width="3"/>
<text x="864" y="154" font-family="Arial" font-size="13">Cm</text>
</svg>