<svg xmlns="http://www.w3.org/2000/svg" width="920" height="520" viewBox="0 0 920 520">
<rect width="100%" height="100%" fill="white"/>
<text x="460" y="28" text-anchor="middle" font-family="Arial" font-size="20">Teaching Aero Table Moments</text>
<rect x="78" y="54" width="720" height="380" fill="#fafafa" stroke="#222"/>
<line x1="78" y1="434" x2="798" y2="434" stroke="#222"/>
<line x1="78" y1="54" x2="78" y2="434" stroke="#222"/>
<text x="438" y="492" text-anchor="middle" font-family="Arial" font-size="14">time (s)</text>
<text transform="translate(22,244) rotate(-90)" text-anchor="middle" font-family="Arial" font-size="14">moment (N m)</text>
<text x="78" y="456" text-anchor="middle" font-family="Arial" font-size="11">-1.44</text>
<text x="798" y="456" text-anchor="middle" font-family="Arial" font-size="11">25.44</text>
<text x="68" y="434" text-anchor="end" font-family="Arial" font-size="11">-29902.17</text>
<text x="68" y="59" text-anchor="end" font-family="Arial" font-size="11">23378.43</text>
<polyline fill="none" stroke="#2f6fbb" stroke-width="2.2" points="116.57,218.87 117.91,217.94 119.25,217.00 120.59,216.06 121.93,215.12 123.27,214.17 124.61,213.22 125.95,212.27 127.29,211.31 128.62,210.35 129.96,209.39 131.30,208.43 132.64,207.47 133.98,206.50 135.32,205.54 136.66,204.57 138.00,203.61 139.34,202.64 140.68,201.68 142.02,200.71 143.36,199.75 144.70,198.78 146.04,197.82 147.38,196.86 148.71,195.90 150.05,194.95 151.39,193.99 152.73,193.04 154.07,192.09 155.41,191.15 156.75,190.21 158.09,189.27 159.43,188.34 160.77,187.41 162.11,186.49 163.45,185.57 164.79,184.66 166.12,183.75 167.46,182.85 168.80,181.96 170.14,181.07 171.48,180.19 172.82,179.32 174.16,178.45 175.50,177.59 176.84,176.75 178.18,175.90 179.52,175.07 180.86,174.25 182.20,173.43 183.54,172.63 184.88,171.83 186.21,171.05 187.55,170.28 188.89,169.51 190.23,168.76 191.57,168.02 192.91,167.29 194.25,166.57 195.59,165.87 196.93,165.17 198.27,164.49 199.61,163.83 200.95,163.17 202.29,162.53 203.62,161.90 204.96,161.29 206.30,160.69 207.64,160.11 208.98,159.54 210.32,158.98 211.66,158.44 213.00,157.92 214.34,157.41 215.68,156.91 217.02,156.44 218.36,155.97 219.70,155.53 221.04,155.10 222.38,154.69 223.71,154.30 225.05,153.92 226.39,153.56 227.73,153.22 229.07,152.89 230.41,152.59 231.75,152.30 233.09,152.03 234.43,151.78 235.77,151.55 237.11,151.33 238.45,151.14 239.79,150.96 241.12,150.80 242.46,150.66 243.80,150.54 245.14,150.44 246.48,150.36 247.82,150.30 249.16,150.26 250.50,150.24 251.84,150.24 253.18,150.26 254.52,150.30 255.86,150.36 257.20,150.44 258.54,150.53 259.88,150.65 261.21,150.79 262.55,150.95 263.89,151.13 265.23,151.33 266.57,151.55 267.91,151.79 269.25,152.05 270.59,152.33 271.93,152.63 273.27,152.95 274.61,153.29 275.95,153.65 277.29,154.03 278.62,154.43 279.96,154.85 281.30,155.29 282.64,155.75 283.98,156.23 285.32,156.73 286.66,157.25 288.00,157.79 289.34,158.34 290.68,158.92 292.02,159.51 293.36,160.13 294.70,160.76 296.04,161.41 297.38,162.08 298.71,162.76 300.05,163.47 301.39,164.19 302.73,164.93 304.07,165.69 305.41,166.46 306.75,167.25 308.09,168.06 309.43,168.89 310.77,169.73 312.11,170.59 313.45,171.46 314.79,172.35 316.12,173.25 317.46,174.17 318.80,175.11 320.14,176.06 321.48,177.02 322.82,178.00 324.16,178.99 325.50,179.99 326.84,181.01 328.18,182.04 329.52,183.08 330.86,184.14 332.20,185.21 333.54,186.29 334.88,187.38 336.21,188.48 337.55,189.59 338.89,190.72 340.23,191.85 341.57,192.99 342.91,194.15 344.25,195.31 345.59,196.48 346.93,197.66 348.27,198.84 349.61,200.04 350.95,201.24 352.29,202.45 353.62,203.66 354.96,204.88 356.30,206.11 357.64,207.34 358.98,208.58 360.32,209.82 361.66,211.07 363.00,212.32 364.34,213.58 365.68,214.83 367.02,216.09 368.36,217.36 369.70,218.62 371.04,219.89 372.38,221.16 373.71,222.42 375.05,223.69 376.39,224.96 377.73,226.23 379.07,227.50 380.41,228.77 381.75,230.03 383.09,231.30 384.43,232.56 385.77,233.82 387.11,235.07 388.45,236.33 389.79,237.57 391.12,238.82 392.46,240.06 393.80,241.29 395.14,242.52 396.48,243.75 397.82,244.97 399.16,246.18 400.50,247.38 401.84,248.58 403.18,249.77 404.52,250.95 405.86,252.13 407.20,253.29 408.54,254.45 409.88,255.60 411.21,256.74 412.55,257.87 413.89,258.98 415.23,260.09 416.57,261.19 417.91,262.27 419.25,263.35 420.59,264.41 421.93,265.46 423.27,266.49 424.61,267.52 425.95,268.53 427.29,269.53 428.62,270.51 429.96,271.48 431.30,272.43 432.64,273.38 433.98,274.30 435.32,275.21 436.66,276.11 438.00,276.99 439.34,277.85 440.68,278.70 442.02,279.54 443.36,280.35 444.70,281.15 446.04,281.93 447.38,282.70 448.71,283.44 450.05,284.17 451.39,284.89 452.73,285.58 454.07,286.26 455.41,286.92 456.75,287.56 458.09,288.18 459.43,288.78 460.77,289.36 462.11,289.93 463.45,290.47 464.79,291.00 466.12,291.50 467.46,291.99 468.80,292.46 470.14,292.91 471.48,293.33 472.82,293.74 474.16,294.13 475.50,294.50 476.84,294.85 478.18,295.17 479.52,295.48 480.86,295.77 482.20,296.04 483.54,296.28 484.88,296.51 486.21,296.72 487.55,296.90 488.89,297.07 490.23,297.21 491.57,297.34 492.91,297.44 494.25,297.53 495.59,297.59 496.93,297.63 498.27,297.66 499.61,297.66 500.95,297.64 502.29,297.61 503.62,297.55 504.96,297.47 506.30,297.38 507.64,297.26 508.98,297.12 510.32,296.97 511.66,296.79 513.00,296.60 514.34,296.39 515.68,296.15 517.02,295.90 518.36,295.63 519.70,295.35 521.04,295.04 522.38,294.71 523.71,294.37 525.05,294.01 526.39,293.63 527.73,293.23 529.07,292.82 530.41,292.39 531.75,291.94 533.09,291.47 534.43,290.99 535.77,290.49 537.11,289.98 538.45,289.44 539.79,288.90 541.12,288.33 542.46,287.76 543.80,287.16 545.14,286.55 546.48,285.93 547.82,285.29 549.16,284.64 550.50,283.97 551.84,283.29 553.18,282.60 554.52,281.89 555.86,281.17 557.20,280.44 558.54,279.70 559.88,278.94 561.21,278.17 562.55,277.39 563.89,276.60 565.23,275.79 566.57,274.98 567.91,274.15 569.25,273.32 570.59,272.47 571.93,271.62 573.27,270.75 574.61,269.88 575.95,269.00 577.29,268.11 578.62,267.21 579.96,266.30 581.30,265.38 582.64,264.46 583.98,263.53 585.32,262.60 586.66,261.65 588.00,260.70 589.34,259.75 590.68,258.79 592.02,257.82 593.36,256.85 594.70,255.87 596.04,254.89 597.38,253.91 598.71,252.92 600.05,251.92 601.39,250.93 602.73,249.93 604.07,248.93 605.41,247.92 606.75,246.92 608.09,245.91 609.43,244.90 610.77,243.89 612.11,242.87 613.45,241.86 614.79,240.85 616.12,239.83 617.46,238.82 618.80,237.80 620.14,236.79 621.48,235.78 622.82,234.77 624.16,233.76 625.50,232.75 626.84,231.74 628.18,230.74 629.52,229.74 630.86,228.74 632.20,227.74 633.54,226.75 634.88,225.76 636.21,224.77 637.55,223.79 638.89,222.81 640.23,221.84 641.57,220.87 642.91,219.90 644.25,218.94 645.59,217.99 646.93,217.04 648.27,216.09 649.61,215.16 650.95,214.22 652.29,213.30 653.62,212.38 654.96,211.47 656.30,210.56 657.64,209.66 658.98,208.77 660.32,207.89 661.66,207.01 663.00,206.14 664.34,205.28 665.68,204.43 667.02,203.58 668.36,202.74 669.70,201.92 671.04,201.10 672.38,200.29 673.71,199.48 675.05,198.69 676.39,197.91 677.73,197.13 679.07,196.37 680.41,195.61 681.75,194.87 683.09,194.13 684.43,193.41 685.77,192.69 687.11,191.99 688.45,191.29 689.79,190.61 691.13,189.93 692.46,189.27 693.80,188.61 695.14,187.97 696.48,187.34 697.82,186.72 699.16,186.11 700.50,185.51 701.84,184.92 703.18,184.34 704.52,183.78 705.86,183.22 707.20,182.68 708.54,182.15 709.88,181.63 711.21,181.12 712.55,180.62 713.89,180.13 715.23,179.66 716.57,179.20 717.91,178.75 719.25,178.31 720.59,177.88 721.93,177.46 723.27,177.06 724.61,176.66 725.95,176.28 727.29,175.91 728.62,175.55 729.96,175.21 731.30,174.87 732.64,174.55 733.98,174.23 735.32,173.93 736.66,173.65 738.00,173.37 739.34,173.10 740.68,172.85 742.02,172.61 743.36,172.38 744.70,172.16 746.04,171.95 747.38,171.75 748.71,171.57 750.05,171.40 751.39,171.23 752.73,171.08 754.07,170.94 755.41,170.82 756.75,170.70 758.09,170.59 759.43,170.50"/>
<line x1="828" y1="78" x2="856" y2="78" stroke="#2f6fbb" stroke-width="3"/>
<text x="864" y="82" font-family="Arial" font-size="13">Mx</text>
<polyline fill="none" stroke="#8a4fbf" stroke-width="2.2" points="116.57,236.87 117.91,238.62 119.25,240.38 120.59,242.14 121.93,243.91 123.27,245.69 124.61,247.48 125.95,249.27 127.29,251.07 128.62,252.87 129.96,254.68 131.30,256.49 132.64,258.31 133.98,260.14 135.32,261.97 136.66,263.80 138.00,265.64 139.34,267.48 140.68,269.33 142.02,271.17 143.36,273.02 144.70,274.88 146.04,276.73 147.38,278.59 148.71,280.45 150.05,282.31 151.39,284.17 152.73,286.03 154.07,287.89 155.41,289.75 156.75,291.61 158.09,293.47 159.43,295.32 160.77,297.18 162.11,299.03 163.45,300.89 164.79,302.73 166.12,304.58 167.46,306.42 168.80,308.26 170.14,310.10 171.48,311.93 172.82,313.75 174.16,315.57 175.50,317.39 176.84,319.20 178.18,321.00 179.52,322.79 180.86,324.58 182.20,326.36 183.54,328.14 184.88,329.90 186.21,331.66 187.55,333.41 188.89,335.14 190.23,336.87 191.57,338.59 192.91,340.30 194.25,342.00 195.59,343.68 196.93,345.36 198.27,347.02 199.61,348.67 200.95,350.31 202.29,351.93 203.62,353.54 204.96,355.14 206.30,356.72 207.64,358.29 208.98,359.85 210.32,361.39 211.66,362.91 213.00,364.41 214.34,365.91 215.68,367.38 217.02,368.84 218.36,370.27 219.70,371.70 221.04,373.10 222.38,374.48 223.71,375.85 225.05,377.20 226.39,378.52 227.73,379.83 229.07,381.12 230.41,382.38 231.75,383.63 233.09,384.85 234.43,386.06 235.77,387.24 237.11,388.40 238.45,389.54 239.79,390.65 241.12,391.74 242.46,392.81 243.80,393.85 245.14,394.87 246.48,395.87 247.82,396.84 249.16,397.79 250.50,398.71 251.84,399.60 253.18,400.47 254.52,401.32 255.86,402.14 257.20,402.93 258.54,403.70 259.88,404.44 261.21,405.15 262.55,405.83 263.89,406.49 265.23,407.12 266.57,407.72 267.91,408.30 269.25,408.84 270.59,409.36 271.93,409.85 273.27,410.31 274.61,410.74 275.95,411.14 277.29,411.51 278.62,411.85 279.96,412.17 281.30,412.45 282.64,412.70 283.98,412.93 285.32,413.12 286.66,413.28 288.00,413.42 289.34,413.52 290.68,413.59 292.02,413.63 293.36,413.64 294.70,413.62 296.04,413.57 297.38,413.49 298.71,413.38 300.05,413.23 301.39,413.06 302.73,412.85 304.07,412.62 305.41,412.35 306.75,412.05 308.09,411.72 309.43,411.36 310.77,410.96 312.11,410.54 313.45,410.09 314.79,409.60 316.12,409.09 317.46,408.54 318.80,407.96 320.14,407.35 321.48,406.71 322.82,406.04 324.16,405.34 325.50,404.61 326.84,403.85 328.18,403.06 329.52,402.24 330.86,401.39 332.20,400.51 333.54,399.60 334.88,398.66 336.21,397.69 337.55,396.69 338.89,395.66 340.23,394.61 341.57,393.52 342.91,392.41 344.25,391.27 345.59,390.10 346.93,388.90 348.27,387.68 349.61,386.42 350.95,385.15 352.29,383.84 353.62,382.51 354.96,381.15 356.30,379.76 357.64,378.35 358.98,376.91 360.32,375.45 361.66,373.96 363.00,372.45 364.34,370.91 365.68,369.35 367.02,367.77 368.36,366.16 369.70,364.52 371.04,362.87 372.38,361.19 373.71,359.49 375.05,357.77 376.39,356.03 377.73,354.26 379.07,352.48 380.41,350.67 381.75,348.85 383.09,347.00 384.43,345.13 385.77,343.25 387.11,341.35 388.45,339.42 389.79,337.48 391.12,335.53 392.46,333.55 393.80,331.56 395.14,329.55 396.48,327.53 397.82,325.49 399.16,323.44 400.50,321.37 401.84,319.29 403.18,317.19 404.52,315.08 405.86,312.96 407.20,310.82 408.54,308.68 409.88,306.52 411.21,304.35 412.55,302.16 413.89,299.97 415.23,297.77 416.57,295.56 417.91,293.34 419.25,291.11 420.59,288.88 421.93,286.63 423.27,284.38 424.61,282.12 425.95,279.86 427.29,277.59 428.62,275.31 429.96,273.03 431.30,270.74 432.64,268.45 433.98,266.16 435.32,263.87 436.66,261.57 438.00,259.27 439.34,256.96 440.68,254.66 442.02,252.35 443.36,250.05 444.70,247.74 446.04,245.44 447.38,243.14 448.71,240.83 450.05,238.53 451.39,236.24 452.73,233.94 454.07,231.65 455.41,229.36 456.75,227.08 458.09,224.80 459.43,222.52 460.77,220.25 462.11,217.99 463.45,215.73 464.79,213.48 466.12,211.24 467.46,209.00 468.80,206.77 470.14,204.55 471.48,202.34 472.82,200.14 474.16,197.95 475.50,195.76 476.84,193.59 478.18,191.43 479.52,189.28 480.86,187.14 482.20,185.01 483.54,182.90 484.88,180.80 486.21,178.71 487.55,176.63 488.89,174.57 490.23,172.52 491.57,170.49 492.91,168.47 494.25,166.47 495.59,164.48 496.93,162.51 498.27,160.55 499.61,158.61 500.95,156.69 502.29,154.78 503.62,152.89 504.96,151.02 506.30,149.17 507.64,147.34 508.98,145.52 510.32,143.72 511.66,141.94 513.00,140.19 514.34,138.45 515.68,136.73 517.02,135.03 518.36,133.35 519.70,131.69 521.04,130.05 522.38,128.43 523.71,126.84 525.05,125.26 526.39,123.71 527.73,122.18 529.07,120.67 530.41,119.19 531.75,117.72 533.09,116.28 534.43,114.86 535.77,113.47 537.11,112.10 538.45,110.75 539.79,109.42 541.12,108.12 542.46,106.84 543.80,105.59 545.14,104.36 546.48,103.15 547.82,101.97 549.16,100.81 550.50,99.68 551.84,98.57 553.18,97.49 554.52,96.43 555.86,95.39 557.20,94.38 558.54,93.40 559.88,92.44 561.21,91.50 562.55,90.59 563.89,89.70 565.23,88.84 566.57,88.01 567.91,87.20 569.25,86.41 570.59,85.65 571.93,84.92 573.27,84.21 574.61,83.52 575.95,82.86 577.29,82.23 578.62,81.62 579.96,81.04 581.30,80.48 582.64,79.94 583.98,79.43 585.32,78.95 586.66,78.49 588.00,78.05 589.34,77.64 590.68,77.26 592.02,76.90 593.36,76.56 594.70,76.25 596.04,75.96 597.38,75.70 598.71,75.46 600.05,75.24 601.39,75.05 602.73,74.88 604.07,74.74 605.41,74.61 606.75,74.52 608.09,74.44 609.43,74.39 610.77,74.36 612.11,74.36 613.45,74.37 614.79,74.41 616.12,74.48 617.46,74.56 618.80,74.67 620.14,74.79 621.48,74.94 622.82,75.12 624.16,75.31 625.50,75.52 626.84,75.76 628.18,76.01 629.52,76.29 630.86,76.59 632.20,76.90 633.54,77.24 634.88,77.60 636.21,77.98 637.55,78.37 638.89,78.79 640.23,79.22 641.57,79.68 642.91,80.15 644.25,80.64 645.59,81.15 646.93,81.68 648.27,82.22 649.61,82.78 650.95,83.36 652.29,83.96 653.62,84.57 654.96,85.20 656.30,85.85 657.64,86.51 658.98,87.19 660.32,87.89 661.66,88.60 663.00,89.32 664.34,90.07 665.68,90.82 667.02,91.59 668.36,92.38 669.70,93.17 671.04,93.99 672.38,94.81 673.71,95.65 675.05,96.51 676.39,97.37 677.73,98.25 679.07,99.14 680.41,100.05 681.75,100.96 683.09,101.89 684.43,102.83 685.77,103.78 687.11,104.74 688.45,105.71 689.79,106.70 691.13,107.69 692.46,108.69 693.80,109.71 695.14,110.73 696.48,111.76 697.82,112.81 699.16,113.86 700.50,114.92 701.84,115.99 703.18,117.06 704.52,118.15 705.86,119.24 707.20,120.34 708.54,121.45 709.88,122.57 711.21,123.69 712.55,124.82 713.89,125.95 715.23,127.10 716.57,128.25 717.91,129.40 719.25,130.56 720.59,131.73 721.93,132.90 723.27,134.08 724.61,135.26 725.95,136.45 727.29,137.64 728.62,138.83 729.96,140.03 731.30,141.24 732.64,142.45 733.98,143.66 735.32,144.88 736.66,146.09 738.00,147.32 739.34,148.54 740.68,149.77 742.02,151.00 743.36,152.23 744.70,153.47 746.04,154.71 747.38,155.95 748.71,157.19 750.05,158.43 751.39,159.68 752.73,160.92 754.07,162.17 755.41,163.42 756.75,164.67 758.09,165.92 759.43,167.17"/>
<line x1="828" y1="102" x2="856" y2="102" stroke="#8a4fbf" stroke-width="3"/>
<text x="864" y="106" font-family="Arial" font-size="13">My</text>
<polyline fill="none" stroke="#258a45" stroke-width="2.2" points="116.57,221.77 117.91,221.45 119.25,221.12 120.59,220.79 121.93,220.45 123.27,220.12 124.61,219.78 125.95,219.44 127.29,219.09 128.62,218.75 129.96,218.40 131.30,218.05 132.64,217.70 133.98,217.34 135.32,216.99 136.66,216.63 138.00,216.27 139.34,215.91 140.68,215.55 142.02,215.18 143.36,214.81 144.70,214.45 146.04,214.08 147.38,213.71 148.71,213.33 150.05,212.96 151.39,212.59 152.73,212.21 154.07,211.83 155.41,211.45 156.75,211.08 158.09,210.70 159.43,210.31 160.77,209.93 162.11,209.55 163.45,209.17 164.79,208.78 166.12,208.40 167.46,208.02 168.80,207.63 170.14,207.25 171.48,206.86 172.82,206.48 174.16,206.09 175.50,205.70 176.84,205.32 178.18,204.93 179.52,204.55 180.86,204.17 182.20,203.78 183.54,203.40 184.88,203.02 186.21,202.63 187.55,202.25 188.89,201.87 190.23,201.49 191.57,201.11 192.91,200.74 194.25,200.36 195.59,199.99 196.93,199.61 198.27,199.24 199.61,198.87 200.95,198.50 202.29,198.13 203.62,197.77 204.96,197.40 206.30,197.04 207.64,196.68 208.98,196.33 210.32,195.97 211.66,195.62 213.00,195.27 214.34,194.92 215.68,194.57 217.02,194.23 218.36,193.89 219.70,193.55 221.04,193.22 222.38,192.88 223.71,192.56 225.05,192.23 226.39,191.91 227.73,191.59 229.07,191.27 230.41,190.96 231.75,190.65 233.09,190.34 234.43,190.04 235.77,189.74 237.11,189.45 238.45,189.16 239.79,188.87 241.12,188.59 242.46,188.31 243.80,188.04 245.14,187.77 246.48,187.50 247.82,187.24 249.16,186.99 250.50,186.74 251.84,186.49 253.18,186.25 254.52,186.01 255.86,185.78 257.20,185.55 258.54,185.32 259.88,185.11 261.21,184.89 262.55,184.69 263.89,184.48 265.23,184.29 266.57,184.09 267.91,183.91 269.25,183.73 270.59,183.55 271.93,183.38 273.27,183.22 274.61,183.06 275.95,182.91 277.29,182.76 278.62,182.62 279.96,182.48 281.30,182.35 282.64,182.23 283.98,182.11 285.32,182.00 286.66,181.90 288.00,181.80 289.34,181.70 290.68,181.62 292.02,181.54 293.36,181.46 294.70,181.39 296.04,181.33 297.38,181.28 298.71,181.23 300.05,181.19 301.39,181.15 302.73,181.12 304.07,181.10 305.41,181.08 306.75,181.07 308.09,181.07 309.43,181.07 310.77,181.08 312.11,181.09 313.45,181.12 314.79,181.15 316.12,181.18 317.46,181.22 318.80,181.27 320.14,181.33 321.48,181.39 322.82,181.46 324.16,181.53 325.50,181.62 326.84,181.70 328.18,181.80 329.52,181.90 330.86,182.01 332.20,182.12 333.54,182.24 334.88,182.37 336.21,182.50 337.55,182.65 338.89,182.79 340.23,182.95 341.57,183.10 342.91,183.27 344.25,183.44 345.59,183.62 346.93,183.81 348.27,184.00 349.61,184.19 350.95,184.40 352.29,184.61 353.62,184.82 354.96,185.05 356.30,185.27 357.64,185.51 358.98,185.75 360.32,185.99 361.66,186.24 363.00,186.50 364.34,186.76 365.68,187.03 367.02,187.30 368.36,187.58 369.70,187.87 371.04,188.16 372.38,188.45 373.71,188.76 375.05,189.06 376.39,189.37 377.73,189.69 379.07,190.01 380.41,190.34 381.75,190.67 383.09,191.01 384.43,191.35 385.77,191.69 387.11,192.04 388.45,192.40 389.79,192.76 391.12,193.12 392.46,193.49 393.80,193.86 395.14,194.24 396.48,194.62 397.82,195.00 399.16,195.39 400.50,195.78 401.84,196.18 403.18,196.58 404.52,196.98 405.86,197.39 407.20,197.80 408.54,198.21 409.88,198.63 411.21,199.05 412.55,199.47 413.89,199.89 415.23,200.32 416.57,200.75 417.91,201.19 419.25,201.62 420.59,202.06 421.93,202.50 423.27,202.95 424.61,203.39 425.95,203.84 427.29,204.29 428.62,204.74 429.96,205.19 431.30,205.65 432.64,206.10 433.98,206.56 435.32,207.02 436.66,207.48 438.00,207.94 439.34,208.41 440.68,208.87 442.02,209.34 443.36,209.80 444.70,210.27 446.04,210.74 447.38,211.20 448.71,211.67 450.05,212.14 451.39,212.61 452.73,213.08 454.07,213.55 455.41,214.01 456.75,214.48 458.09,214.95 459.43,215.42 460.77,215.89 462.11,216.35 463.45,216.82 464.79,217.28 466.12,217.75 467.46,218.21 468.80,218.68 470.14,219.14 471.48,219.60 472.82,220.06 474.16,220.51 475.50,220.97 476.84,221.42 478.18,221.88 479.52,222.33 480.86,222.78 482.20,223.23 483.54,223.67 484.88,224.11 486.21,224.56 487.55,224.99 488.89,225.43 490.23,225.86 491.57,226.30 492.91,226.73 494.25,227.15 495.59,227.58 496.93,228.00 498.27,228.41 499.61,228.83 500.95,229.24 502.29,229.65 503.62,230.06 504.96,230.46 506.30,230.86 507.64,231.25 508.98,231.65 510.32,232.03 511.66,232.42 513.00,232.80 514.34,233.18 515.68,233.55 517.02,233.92 518.36,234.29 519.70,234.65 521.04,235.01 522.38,235.37 523.71,235.72 525.05,236.06 526.39,236.40 527.73,236.74 529.07,237.08 530.41,237.40 531.75,237.73 533.09,238.05 534.43,238.37 535.77,238.68 537.11,238.98 538.45,239.29 539.79,239.58 541.12,239.88 542.46,240.16 543.80,240.45 545.14,240.73 546.48,241.00 547.82,241.27 549.16,241.53 550.50,241.79 551.84,242.05 553.18,242.29 554.52,242.54 555.86,242.78 557.20,243.01 558.54,243.24 559.88,243.47 561.21,243.69 562.55,243.90 563.89,244.11 565.23,244.31 566.57,244.51 567.91,244.71 569.25,244.89 570.59,245.08 571.93,245.26 573.27,245.43 574.61,245.60 575.95,245.76 577.29,245.92 578.62,246.07 579.96,246.22 581.30,246.36 582.64,246.50 583.98,246.63 585.32,246.76 586.66,246.88 588.00,247.00 589.34,247.11 590.68,247.21 592.02,247.32 593.36,247.41 594.70,247.50 596.04,247.59 597.38,247.67 598.71,247.75 600.05,247.82 601.39,247.89 602.73,247.95 604.07,248.01 605.41,248.06 606.75,248.11 608.09,248.15 609.43,248.18 610.77,248.22 612.11,248.25 613.45,248.27 614.79,248.29 616.12,248.30 617.46,248.31 618.80,248.31 620.14,248.32 621.48,248.31 622.82,248.30 624.16,248.29 625.50,248.27 626.84,248.25 628.18,248.22 629.52,248.19 630.86,248.16 632.20,248.12 633.54,248.07 634.88,248.03 636.21,247.97 637.55,247.92 638.89,247.86 640.23,247.79 641.57,247.73 642.91,247.65 644.25,247.58 645.59,247.50 646.93,247.42 648.27,247.33 649.61,247.24 650.95,247.15 652.29,247.05 653.62,246.95 654.96,246.84 656.30,246.73 657.64,246.62 658.98,246.51 660.32,246.39 661.66,246.27 663.00,246.14 664.34,246.02 665.68,245.88 667.02,245.75 668.36,245.61 669.70,245.47 671.04,245.33 672.38,245.19 673.71,245.04 675.05,244.89 676.39,244.73 677.73,244.58 679.07,244.42 680.41,244.26 681.75,244.09 683.09,243.92 684.43,243.76 685.77,243.58 687.11,243.41 688.45,243.24 689.79,243.06 691.13,242.88 692.46,242.70 693.80,242.51 695.14,242.32 696.48,242.14 697.82,241.95 699.16,241.75 700.50,241.56 701.84,241.37 703.18,241.17 704.52,240.97 705.86,240.77 707.20,240.57 708.54,240.36 709.88,240.16 711.21,239.95 712.55,239.74 713.89,239.53 715.23,239.32 716.57,239.11 717.91,238.90 719.25,238.69 720.59,238.47 721.93,238.25 723.27,238.04 724.61,237.82 725.95,237.60 727.29,237.38 728.62,237.16 729.96,236.94 731.30,236.71 732.64,236.49 733.98,236.27 735.32,236.04 736.66,235.82 738.00,235.59 739.34,235.36 740.68,235.14 742.02,234.91 743.36,234.68 744.70,234.45 746.04,234.23 747.38,234.00 748.71,233.77 750.05,233.54 751.39,233.31 752.73,233.08 754.07,232.85 755.41,232.62 756.75,232.39 758.09,232.16 759.43,231.93"/>
<line x1="828" y1="126" x2="856" y2="126" stroke="#258a45" stroke-width="3"/>
<text x="864" y="130" font-family="Arial" font-size="13">Mz</text>
</svg>