<svg xmlns="http://www.w3.org/2000/svg" width="920" height="520" viewBox="0 0 920 520">
<rect width="100%" height="100%" fill="white"/>
<text x="460" y="28" text-anchor="middle" font-family="Arial" font-size="20">Teaching Aero Table Forces</text>
<rect x="78" y="54" width="720" height="380" fill="#fafafa" stroke="#222"/>
<line x1="78" y1="434" x2="798" y2="434" stroke="#222"/>
<line x1="78" y1="54" x2="78" y2="434" stroke="#222"/>
<text x="438" y="492" text-anchor="middle" font-family="Arial" font-size="14">time (s)</text>
<text transform="translate(22,244) rotate(-90)" text-anchor="middle" font-family="Arial" font-size="14">force (N)</text>
<text x="78" y="456" text-anchor="middle" font-family="Arial" font-size="11">-1.44</text>
<text x="798" y="456" text-anchor="middle" font-family="Arial" font-size="11">25.44</text>
<text x="68" y="434" text-anchor="end" font-family="Arial" font-size="11">-2377.39</text>
<text x="68" y="59" text-anchor="end" font-family="Arial" font-size="11">32327.32</text>
<polyline fill="none" stroke="#2f6fbb" stroke-width="2.2" points="116.57,262.80 117.91,261.03 119.25,259.26 120.59,257.47 121.93,255.69 123.27,253.89 124.61,252.09 125.95,250.28 127.29,248.46 128.62,246.64 129.96,244.81 131.30,242.98 132.64,241.14 133.98,239.30 135.32,237.45 136.66,235.60 138.00,233.74 139.34,231.88 140.68,230.02 142.02,228.15 143.36,226.28 144.70,224.40 146.04,222.53 147.38,220.65 148.71,218.77 150.05,216.89 151.39,215.01 152.73,213.12 154.07,211.24 155.41,209.36 156.75,207.47 158.09,205.59 159.43,203.70 160.77,201.82 162.11,199.94 163.45,198.06 164.79,196.18 166.12,194.31 167.46,192.43 168.80,190.56 170.14,188.70 171.48,186.84 172.82,184.98 174.16,183.12 175.50,181.27 176.84,179.43 178.18,177.59 179.52,175.75 180.86,173.92 182.20,172.10 183.54,170.29 184.88,168.48 186.21,166.68 187.55,164.88 188.89,163.10 190.23,161.32 191.57,159.55 192.91,157.80 194.25,156.05 195.59,154.31 196.93,152.58 198.27,150.86 199.61,149.15 200.95,147.45 202.29,145.77 203.62,144.09 204.96,142.43 206.30,140.78 207.64,139.15 208.98,137.53 210.32,135.92 211.66,134.32 213.00,132.74 214.34,131.17 215.68,129.62 217.02,128.09 218.36,126.57 219.70,125.06 221.04,123.57 222.38,122.10 223.71,120.65 225.05,119.21 226.39,117.79 227.73,116.39 229.07,115.00 230.41,113.64 231.75,112.29 233.09,110.96 234.43,109.65 235.77,108.36 237.11,107.09 238.45,105.84 239.79,104.62 241.12,103.41 242.46,102.22 243.80,101.06 245.14,99.91 246.48,98.79 247.82,97.69 249.16,96.62 250.50,95.56 251.84,94.53 253.18,93.52 254.52,92.54 255.86,91.58 257.20,90.64 258.54,89.73 259.88,88.84 261.21,87.97 262.55,87.14 263.89,86.32 265.23,85.53 266.57,84.77 267.91,84.03 269.25,83.32 270.59,82.63 271.93,81.97 273.27,81.34 274.61,80.73 275.95,80.15 277.29,79.60 278.62,79.07 279.96,78.57 281.30,78.10 282.64,77.66 283.98,77.24 285.32,76.85 286.66,76.49 288.00,76.16 289.34,75.85 290.68,75.57 292.02,75.32 293.36,75.10 294.70,74.91 296.04,74.75 297.38,74.61 298.71,74.51 300.05,74.43 301.39,74.38 302.73,74.36 304.07,74.37 305.41,74.40 306.75,74.47 308.09,74.56 309.43,74.69 310.77,74.84 312.11,75.02 313.45,75.23 314.79,75.47 316.12,75.74 317.46,76.03 318.80,76.36 320.14,76.71 321.48,77.10 322.82,77.51 324.16,77.95 325.50,78.41 326.84,78.91 328.18,79.44 329.52,79.99 330.86,80.57 332.20,81.18 333.54,81.82 334.88,82.49 336.21,83.18 337.55,83.90 338.89,84.65 340.23,85.42 341.57,86.23 342.91,87.06 344.25,87.91 345.59,88.80 346.93,89.71 348.27,90.64 349.61,91.61 350.95,92.60 352.29,93.61 353.62,94.65 354.96,95.72 356.30,96.81 357.64,97.92 358.98,99.07 360.32,100.23 361.66,101.42 363.00,102.63 364.34,103.87 365.68,105.13 367.02,106.42 368.36,107.73 369.70,109.06 371.04,110.41 372.38,111.79 373.71,113.18 375.05,114.60 376.39,116.04 377.73,117.51 379.07,118.99 380.41,120.49 381.75,122.02 383.09,123.56 384.43,125.12 385.77,126.70 387.11,128.31 388.45,129.93 389.79,131.56 391.12,133.22 392.46,134.90 393.80,136.59 395.14,138.30 396.48,140.02 397.82,141.76 399.16,143.52 400.50,145.29 401.84,147.08 403.18,148.88 404.52,150.70 405.86,152.53 407.20,154.38 408.54,156.24 409.88,158.11 411.21,159.99 412.55,161.89 413.89,163.80 415.23,165.72 416.57,167.65 417.91,169.59 419.25,171.55 420.59,173.51 421.93,175.48 423.27,177.46 424.61,179.45 425.95,181.45 427.29,183.45 428.62,185.47 429.96,187.49 431.30,189.52 432.64,191.55 433.98,193.59 435.32,195.64 436.66,197.69 438.00,199.74 439.34,201.80 440.68,203.87 442.02,205.93 443.36,208.00 444.70,210.08 446.04,212.15 447.38,214.23 448.71,216.31 450.05,218.39 451.39,220.47 452.73,222.56 454.07,224.64 455.41,226.72 456.75,228.80 458.09,230.88 459.43,232.96 460.77,235.03 462.11,237.11 463.45,239.18 464.79,241.25 466.12,243.31 467.46,245.38 468.80,247.43 470.14,249.49 471.48,251.53 472.82,253.58 474.16,255.61 475.50,257.64 476.84,259.67 478.18,261.69 479.52,263.70 480.86,265.70 482.20,267.70 483.54,269.68 484.88,271.66 486.21,273.64 487.55,275.60 488.89,277.55 490.23,279.49 491.57,281.42 492.91,283.35 494.25,285.26 495.59,287.16 496.93,289.05 498.27,290.93 499.61,292.79 500.95,294.65 502.29,296.49 503.62,298.32 504.96,300.13 506.30,301.94 507.64,303.73 508.98,305.50 510.32,307.26 511.66,309.01 513.00,310.74 514.34,312.46 515.68,314.17 517.02,315.85 518.36,317.52 519.70,319.18 521.04,320.82 522.38,322.45 523.71,324.05 525.05,325.65 526.39,327.22 527.73,328.78 529.07,330.32 530.41,331.84 531.75,333.35 533.09,334.84 534.43,336.31 535.77,337.76 537.11,339.19 538.45,340.61 539.79,342.01 541.12,343.38 542.46,344.74 543.80,346.08 545.14,347.41 546.48,348.71 547.82,349.99 549.16,351.26 550.50,352.50 551.84,353.72 553.18,354.93 554.52,356.11 555.86,357.28 557.20,358.43 558.54,359.55 559.88,360.66 561.21,361.74 562.55,362.80 563.89,363.85 565.23,364.87 566.57,365.88 567.91,366.86 569.25,367.82 570.59,368.76 571.93,369.68 573.27,370.59 574.61,371.47 575.95,372.33 577.29,373.16 578.62,373.98 579.96,374.78 581.30,375.56 582.64,376.31 583.98,377.05 585.32,377.76 586.66,378.46 588.00,379.13 589.34,379.79 590.68,380.42 592.02,381.03 593.36,381.62 594.70,382.19 596.04,382.75 597.38,383.28 598.71,383.79 600.05,384.28 601.39,384.75 602.73,385.20 604.07,385.63 605.41,386.04 606.75,386.43 608.09,386.81 609.43,387.16 610.77,387.49 612.11,387.80 613.45,388.10 614.79,388.37 616.12,388.63 617.46,388.86 618.80,389.08 620.14,389.28 621.48,389.46 622.82,389.62 624.16,389.77 625.50,389.89 626.84,390.00 628.18,390.09 629.52,390.16 630.86,390.22 632.20,390.25 633.54,390.27 634.88,390.27 636.21,390.26 637.55,390.23 638.89,390.18 640.23,390.11 641.57,390.03 642.91,389.93 644.25,389.81 645.59,389.68 646.93,389.54 648.27,389.37 649.61,389.19 650.95,389.00 652.29,388.79 653.62,388.57 654.96,388.33 656.30,388.07 657.64,387.81 658.98,387.52 660.32,387.23 661.66,386.91 663.00,386.59 664.34,386.25 665.68,385.90 667.02,385.53 668.36,385.16 669.70,384.76 671.04,384.36 672.38,383.94 673.71,383.51 675.05,383.07 676.39,382.62 677.73,382.15 679.07,381.67 680.41,381.18 681.75,380.68 683.09,380.17 684.43,379.65 685.77,379.12 687.11,378.57 688.45,378.02 689.79,377.45 691.13,376.88 692.46,376.29 693.80,375.70 695.14,375.09 696.48,374.48 697.82,373.86 699.16,373.22 700.50,372.58 701.84,371.93 703.18,371.27 704.52,370.61 705.86,369.93 707.20,369.25 708.54,368.56 709.88,367.86 711.21,367.15 712.55,366.44 713.89,365.72 715.23,364.99 716.57,364.25 717.91,363.51 719.25,362.76 720.59,362.01 721.93,361.24 723.27,360.48 724.61,359.70 725.95,358.92 727.29,358.14 728.62,357.35 729.96,356.55 731.30,355.75 732.64,354.94 733.98,354.13 735.32,353.31 736.66,352.49 738.00,351.67 739.34,350.83 740.68,350.00 742.02,349.16 743.36,348.32 744.70,347.47 746.04,346.62 747.38,345.76 748.71,344.91 750.05,344.04 751.39,343.18 752.73,342.31 754.07,341.44 755.41,340.56 756.75,339.68 758.09,338.80 759.43,337.92"/>
<line x1="828" y1="78" x2="856" y2="78" stroke="#2f6fbb" stroke-width="3"/>
<text x="864" y="82" font-family="Arial" font-size="13">lift</text>
<polyline fill="none" stroke="#c23b3b" stroke-width="2.2" points="116.57,363.54 117.91,363.28 119.25,363.01 120.59,362.75 121.93,362.48 123.27,362.22 124.61,361.95 125.95,361.68 127.29,361.42 128.62,361.15 129.96,360.88 131.30,360.61 132.64,360.34 133.98,360.07 135.32,359.80 136.66,359.53 138.00,359.26 139.34,358.99 140.68,358.72 142.02,358.45 143.36,358.18 144.70,357.91 146.04,357.64 147.38,357.36 148.71,357.09 150.05,356.82 151.39,356.55 152.73,356.28 154.07,356.01 155.41,355.73 156.75,355.46 158.09,355.19 159.43,354.92 160.77,354.65 162.11,354.38 163.45,354.11 164.79,353.84 166.12,353.57 167.46,353.30 168.80,353.04 170.14,352.77 171.48,352.50 172.82,352.23 174.16,351.97 175.50,351.70 176.84,351.44 178.18,351.17 179.52,350.91 180.86,350.65 182.20,350.38 183.54,350.12 184.88,349.86 186.21,349.60 187.55,349.34 188.89,349.09 190.23,348.83 191.57,348.58 192.91,348.32 194.25,348.07 195.59,347.82 196.93,347.56 198.27,347.31 199.61,347.02 200.95,346.73 202.29,346.45 203.62,346.17 204.96,345.89 206.30,345.61 207.64,345.33 208.98,345.06 210.32,344.78 211.66,344.51 213.00,344.24 214.34,343.97 215.68,343.71 217.02,343.44 218.36,343.18 219.70,342.92 221.04,342.67 222.38,342.41 223.71,342.16 225.05,341.91 226.39,341.66 227.73,341.41 229.07,341.17 230.41,340.93 231.75,340.69 233.09,340.45 234.43,340.22 235.77,339.99 237.11,339.76 238.45,339.53 239.79,339.31 241.12,339.09 242.46,338.87 243.80,338.66 245.14,338.45 246.48,338.24 247.82,338.03 249.16,337.83 250.50,337.63 251.84,337.43 253.18,337.24 254.52,337.05 255.86,336.86 257.20,336.68 258.54,336.50 259.88,336.32 261.21,336.14 262.55,335.97 263.89,335.80 265.23,335.64 266.57,335.48 267.91,335.32 269.25,335.16 270.59,335.01 271.93,334.86 273.27,334.72 274.61,334.58 275.95,334.44 277.29,334.31 278.62,334.18 279.96,334.05 281.30,333.93 282.64,333.73 283.98,333.53 285.32,333.34 286.66,333.15 288.00,332.96 289.34,332.78 290.68,332.60 292.02,332.43 293.36,332.26 294.70,332.10 296.04,331.94 297.38,331.79 298.71,331.64 300.05,331.50 301.39,331.36 302.73,331.23 304.07,331.10 305.41,330.97 306.75,330.85 308.09,330.74 309.43,330.63 310.77,330.53 312.11,330.43 313.45,330.33 314.79,330.25 316.12,330.16 317.46,330.08 318.80,330.01 320.14,329.94 321.48,329.88 322.82,329.82 324.16,329.77 325.50,329.72 326.84,329.68 328.18,329.64 329.52,329.61 330.86,329.58 332.20,329.56 333.54,329.54 334.88,329.53 336.21,329.52 337.55,329.52 338.89,329.52 340.23,329.53 341.57,329.54 342.91,329.56 344.25,329.59 345.59,329.62 346.93,329.65 348.27,329.69 349.61,329.74 350.95,329.79 352.29,329.84 353.62,329.90 354.96,329.97 356.30,330.04 357.64,330.11 358.98,330.19 360.32,330.28 361.66,330.37 363.00,330.46 364.34,330.56 365.68,330.67 367.02,330.77 368.36,330.89 369.70,331.01 371.04,331.13 372.38,331.26 373.71,331.40 375.05,331.53 376.39,331.68 377.73,331.83 379.07,331.98 380.41,332.14 381.75,332.30 383.09,332.46 384.43,332.63 385.77,332.81 387.11,332.94 388.45,333.08 389.79,333.23 391.12,333.37 392.46,333.53 393.80,333.68 395.14,333.84 396.48,334.00 397.82,334.17 399.16,334.34 400.50,334.51 401.84,334.69 403.18,334.87 404.52,335.06 405.86,335.25 407.20,335.44 408.54,335.64 409.88,335.84 411.21,336.04 412.55,336.25 413.89,336.46 415.23,336.67 416.57,336.89 417.91,337.11 419.25,337.33 420.59,337.55 421.93,337.78 423.27,338.02 424.61,338.25 425.95,338.49 427.29,338.73 428.62,338.95 429.96,339.13 431.30,339.32 432.64,339.51 433.98,339.70 435.32,339.90 436.66,340.10 438.00,340.30 439.34,340.50 440.68,340.71 442.02,340.92 443.36,341.14 444.70,341.35 446.04,341.57 447.38,341.79 448.71,342.01 450.05,342.24 451.39,342.47 452.73,342.70 454.07,342.93 455.41,343.17 456.75,343.41 458.09,343.65 459.43,343.89 460.77,344.14 462.11,344.39 463.45,344.64 464.79,344.89 466.12,345.14 467.46,345.39 468.80,345.59 470.14,345.80 471.48,346.00 472.82,346.21 474.16,346.42 475.50,346.64 476.84,346.85 478.18,347.03 479.52,347.17 480.86,347.31 482.20,347.44 483.54,347.58 484.88,347.72 486.21,347.86 487.55,348.01 488.89,348.15 490.23,348.28 491.57,348.41 492.91,348.55 494.25,348.68 495.59,348.82 496.93,348.95 498.27,349.09 499.61,349.23 500.95,349.37 502.29,349.51 503.62,349.65 504.96,349.79 506.30,349.93 507.64,350.08 508.98,350.22 510.32,350.37 511.66,350.52 513.00,350.67 514.34,350.82 515.68,350.97 517.02,351.12 518.36,351.27 519.70,351.42 521.04,351.58 522.38,351.73 523.71,351.89 525.05,352.04 526.39,352.20 527.73,352.36 529.07,352.51 530.41,352.67 531.75,352.83 533.09,352.99 534.43,353.16 535.77,353.32 537.11,353.48 538.45,353.64 539.79,353.81 541.12,353.97 542.46,354.14 543.80,354.30 545.14,354.47 546.48,354.64 547.82,354.80 549.16,354.95 550.50,355.08 551.84,355.20 553.18,355.32 554.52,355.45 555.86,355.58 557.20,355.71 558.54,355.83 559.88,355.96 561.21,356.10 562.55,356.23 563.89,356.36 565.23,356.50 566.57,356.63 567.91,356.77 569.25,356.91 570.59,357.05 571.93,357.19 573.27,357.33 574.61,357.47 575.95,357.62 577.29,357.76 578.62,357.91 579.96,358.05 581.30,358.20 582.64,358.35 583.98,358.50 585.32,358.64 586.66,358.80 588.00,358.95 589.34,359.10 590.68,359.25 592.02,359.41 593.36,359.56 594.70,359.72 596.04,359.87 597.38,360.03 598.71,360.19 600.05,360.34 601.39,360.50 602.73,360.66 604.07,360.82 605.41,360.98 606.75,361.15 608.09,361.31 609.43,361.47 610.77,361.63 612.11,361.80 613.45,361.96 614.79,362.13 616.12,362.29 617.46,362.46 618.80,362.63 620.14,362.79 621.48,362.96 622.82,363.13 624.16,363.30 625.50,363.46 626.84,363.63 628.18,363.80 629.52,363.97 630.86,364.14 632.20,364.31 633.54,364.48 634.88,364.65 636.21,364.82 637.55,364.99 638.89,365.17 640.23,365.34 641.57,365.51 642.91,365.68 644.25,365.85 645.59,366.03 646.93,366.20 648.27,366.37 649.61,366.54 650.95,366.72 652.29,366.89 653.62,367.06 654.96,367.24 656.30,367.41 657.64,367.58 658.98,367.75 660.32,367.93 661.66,368.10 663.00,368.27 664.34,368.44 665.68,368.62 667.02,368.79 668.36,368.96 669.70,369.13 671.04,369.31 672.38,369.48 673.71,369.65 675.05,369.82 676.39,369.99 677.73,370.16 679.07,370.33 680.41,370.50 681.75,370.67 683.09,370.84 684.43,371.01 685.77,371.18 687.11,371.35 688.45,371.52 689.79,371.68 691.13,371.77 692.46,371.86 693.80,371.95 695.14,372.04 696.48,372.13 697.82,372.23 699.16,372.32 700.50,372.41 701.84,372.50 703.18,372.60 704.52,372.69 705.86,372.78 707.20,372.88 708.54,372.97 709.88,373.06 711.21,373.16 712.55,373.25 713.89,373.34 715.23,373.44 716.57,373.53 717.91,373.62 719.25,373.72 720.59,373.81 721.93,373.90 723.27,374.00 724.61,374.09 725.95,374.18 727.29,374.28 728.62,374.37 729.96,374.46 731.30,374.55 732.64,374.65 733.98,374.74 735.32,374.83 736.66,374.92 738.00,374.98 739.34,375.04 740.68,375.10 742.02,375.16 743.36,375.22 744.70,375.28 746.04,375.33 747.38,375.39 748.71,375.45 750.05,375.51 751.39,375.56 752.73,375.62 754.07,375.68 755.41,375.73 756.75,375.79 758.09,375.84 759.43,375.89"/>
<line x1="828" y1="102" x2="856" y2="102" stroke="#c23b3b" stroke-width="3"/>
<text x="864" y="106" font-family="Arial" font-size="13">drag</text>
<polyline fill="none" stroke="#258a45" stroke-width="2.2" points="116.57,411.77 117.91,411.81 119.25,411.85 120.59,411.88 121.93,411.92 123.27,411.95 124.61,411.99 125.95,412.02 127.29,412.06 128.62,412.09 129.96,412.13 131.30,412.16 132.64,412.20 133.98,412.23 135.32,412.26 136.66,412.30 138.00,412.33 139.34,412.36 140.68,412.39 142.02,412.42 143.36,412.45 144.70,412.48 146.04,412.51 147.38,412.54 148.71,412.57 150.05,412.60 151.39,412.63 152.73,412.66 154.07,412.69 155.41,412.72 156.75,412.74 158.09,412.77 159.43,412.80 160.77,412.83 162.11,412.85 163.45,412.88 164.79,412.90 166.12,412.93 167.46,412.95 168.80,412.98 170.14,413.00 171.48,413.02 172.82,413.05 174.16,413.07 175.50,413.09 176.84,413.11 178.18,413.13 179.52,413.15 180.86,413.17 182.20,413.19 183.54,413.21 184.88,413.23 186.21,413.25 187.55,413.27 188.89,413.29 190.23,413.31 191.57,413.32 192.91,413.34 194.25,413.35 195.59,413.37 196.93,413.39 198.27,413.40 199.61,413.42 200.95,413.43 202.29,413.44 203.62,413.46 204.96,413.47 206.30,413.48 207.64,413.49 208.98,413.50 210.32,413.51 211.66,413.53 213.00,413.54 214.34,413.55 215.68,413.55 217.02,413.56 218.36,413.57 219.70,413.58 221.04,413.59 222.38,413.59 223.71,413.60 225.05,413.61 226.39,413.61 227.73,413.62 229.07,413.62 230.41,413.62 231.75,413.63 233.09,413.63 234.43,413.63 235.77,413.64 237.11,413.64 238.45,413.64 239.79,413.64 241.12,413.64 242.46,413.64 243.80,413.64 245.14,413.64 246.48,413.64 247.82,413.64 249.16,413.64 250.50,413.63 251.84,413.63 253.18,413.63 254.52,413.63 255.86,413.62 257.20,413.62 258.54,413.61 259.88,413.61 261.21,413.60 262.55,413.59 263.89,413.59 265.23,413.58 266.57,413.57 267.91,413.56 269.25,413.56 270.59,413.55 271.93,413.54 273.27,413.53 274.61,413.52 275.95,413.51 277.29,413.50 278.62,413.49 279.96,413.47 281.30,413.46 282.64,413.45 283.98,413.44 285.32,413.42 286.66,413.41 288.00,413.40 289.34,413.38 290.68,413.37 292.02,413.35 293.36,413.34 294.70,413.32 296.04,413.30 297.38,413.29 298.71,413.27 300.05,413.25 301.39,413.24 302.73,413.22 304.07,413.20 305.41,413.18 306.75,413.16 308.09,413.14 309.43,413.12 310.77,413.10 312.11,413.08 313.45,413.06 314.79,413.04 316.12,413.02 317.46,413.00 318.80,412.98 320.14,412.95 321.48,412.93 322.82,412.91 324.16,412.88 325.50,412.86 326.84,412.84 328.18,412.81 329.52,412.79 330.86,412.76 332.20,412.74 333.54,412.71 334.88,412.69 336.21,412.66 337.55,412.63 338.89,412.61 340.23,412.58 341.57,412.55 342.91,412.52 344.25,412.50 345.59,412.47 346.93,412.44 348.27,412.41 349.61,412.38 350.95,412.35 352.29,412.32 353.62,412.30 354.96,412.27 356.30,412.24 357.64,412.20 358.98,412.17 360.32,412.14 361.66,412.11 363.00,412.08 364.34,412.05 365.68,412.02 367.02,411.99 368.36,411.95 369.70,411.92 371.04,411.89 372.38,411.86 373.71,411.82 375.05,411.79 376.39,411.76 377.73,411.72 379.07,411.69 380.41,411.66 381.75,411.62 383.09,411.59 384.43,411.55 385.77,411.52 387.11,411.48 388.45,411.45 389.79,411.41 391.12,411.38 392.46,411.34 393.80,411.31 395.14,411.27 396.48,411.23 397.82,411.20 399.16,411.16 400.50,411.12 401.84,411.09 403.18,411.05 404.52,411.01 405.86,410.98 407.20,410.94 408.54,410.90 409.88,410.87 411.21,410.83 412.55,410.79 413.89,410.75 415.23,410.71 416.57,410.68 417.91,410.64 419.25,410.60 420.59,410.56 421.93,410.52 423.27,410.48 424.61,410.45 425.95,410.41 427.29,410.37 428.62,410.33 429.96,410.29 431.30,410.25 432.64,410.21 433.98,410.17 435.32,410.13 436.66,410.09 438.00,410.05 439.34,410.01 440.68,409.97 442.02,409.93 443.36,409.89 444.70,409.85 446.04,409.81 447.38,409.77 448.71,409.73 450.05,409.69 451.39,409.65 452.73,409.61 454.07,409.57 455.41,409.53 456.75,409.49 458.09,409.45 459.43,409.41 460.77,409.37 462.11,409.33 463.45,409.29 464.79,409.25 466.12,409.21 467.46,409.17 468.80,409.13 470.14,409.09 471.48,409.05 472.82,409.00 474.16,408.96 475.50,408.92 476.84,408.88 478.18,408.84 479.52,408.80 480.86,408.76 482.20,408.72 483.54,408.68 484.88,408.64 486.21,408.60 487.55,408.56 488.89,408.52 490.23,408.48 491.57,408.44 492.91,408.40 494.25,408.35 495.59,408.31 496.93,408.27 498.27,408.23 499.61,408.19 500.95,408.15 502.29,408.11 503.62,408.07 504.96,408.03 506.30,407.99 507.64,407.95 508.98,407.91 510.32,407.87 511.66,407.83 513.00,407.79 514.34,407.75 515.68,407.71 517.02,407.68 518.36,407.64 519.70,407.60 521.04,407.56 522.38,407.52 523.71,407.48 525.05,407.44 526.39,407.40 527.73,407.36 529.07,407.32 530.41,407.29 531.75,407.25 533.09,407.21 534.43,407.17 535.77,407.13 537.11,407.10 538.45,407.06 539.79,407.02 541.12,406.98 542.46,406.94 543.80,406.91 545.14,406.87 546.48,406.83 547.82,406.80 549.16,406.76 550.50,406.72 551.84,406.69 553.18,406.65 554.52,406.61 555.86,406.58 557.20,406.54 558.54,406.51 559.88,406.47 561.21,406.44 562.55,406.40 563.89,406.37 565.23,406.33 566.57,406.30 567.91,406.26 569.25,406.23 570.59,406.19 571.93,406.16 573.27,406.13 574.61,406.09 575.95,406.06 577.29,406.03 578.62,405.99 579.96,405.96 581.30,405.93 582.64,405.90 583.98,405.86 585.32,405.83 586.66,405.80 588.00,405.77 589.34,405.74 590.68,405.71 592.02,405.68 593.36,405.65 594.70,405.62 596.04,405.59 597.38,405.56 598.71,405.53 600.05,405.50 601.39,405.47 602.73,405.44 604.07,405.41 605.41,405.38 606.75,405.35 608.09,405.33 609.43,405.30 610.77,405.27 612.11,405.24 613.45,405.22 614.79,405.19 616.12,405.16 617.46,405.14 618.80,405.11 620.14,405.09 621.48,405.06 622.82,405.04 624.16,405.01 625.50,404.99 626.84,404.96 628.18,404.94 629.52,404.91 630.86,404.89 632.20,404.87 633.54,404.85 634.88,404.82 636.21,404.80 637.55,404.78 638.89,404.76 640.23,404.73 641.57,404.71 642.91,404.69 644.25,404.67 645.59,404.65 646.93,404.63 648.27,404.61 649.61,404.59 650.95,404.57 652.29,404.55 653.62,404.54 654.96,404.52 656.30,404.50 657.64,404.48 658.98,404.46 660.32,404.45 661.66,404.43 663.00,404.41 664.34,404.40 665.68,404.38 667.02,404.37 668.36,404.35 669.70,404.34 671.04,404.32 672.38,404.31 673.71,404.29 675.05,404.28 676.39,404.26 677.73,404.25 679.07,404.24 680.41,404.23 681.75,404.21 683.09,404.20 684.43,404.19 685.77,404.18 687.11,404.17 688.45,404.16 689.79,404.15 691.13,404.14 692.46,404.13 693.80,404.12 695.14,404.11 696.48,404.10 697.82,404.09 699.16,404.08 700.50,404.07 701.84,404.06 703.18,404.06 704.52,404.05 705.86,404.04 707.20,404.04 708.54,404.03 709.88,404.02 711.21,404.02 712.55,404.01 713.89,404.01 715.23,404.00 716.57,404.00 717.91,403.99 719.25,403.99 720.59,403.99 721.93,403.98 723.27,403.98 724.61,403.98 725.95,403.97 727.29,403.97 728.62,403.97 729.96,403.97 731.30,403.97 732.64,403.96 733.98,403.96 735.32,403.96 736.66,403.96 738.00,403.96 739.34,403.96 740.68,403.96 742.02,403.96 743.36,403.96 744.70,403.97 746.04,403.97 747.38,403.97 748.71,403.97 750.05,403.97 751.39,403.98 752.73,403.98 754.07,403.98 755.41,403.99 756.75,403.99 758.09,403.99 759.43,404.00"/>
<line x1="828" y1="126" x2="856" y2="126" stroke="#258a45" stroke-width="3"/>
<text x="864" y="130" font-family="Arial" font-size="13">side force</text>
</svg>