<svg xmlns="http://www.w3.org/2000/svg" width="920" height="520" viewBox="0 0 920 520">
<rect width="100%" height="100%" fill="white"/>
<text x="460" y="28" text-anchor="middle" font-family="Arial" font-size="20">Control Allocation Residual</text>
<rect x="78" y="54" width="720" height="380" fill="#fafafa" stroke="#222"/>
<line x1="78" y1="434" x2="798" y2="434" stroke="#222"/>
<line x1="78" y1="54" x2="78" y2="434" stroke="#222"/>
<text x="438" y="492" text-anchor="middle" font-family="Arial" font-size="14">time (s)</text>
<text transform="translate(22,244) rotate(-90)" text-anchor="middle" font-family="Arial" font-size="14">residual norm (N m)</text>
<text x="78" y="456" text-anchor="middle" font-family="Arial" font-size="11">-1.44</text>
<text x="798" y="456" text-anchor="middle" font-family="Arial" font-size="11">25.44</text>
<text x="68" y="434" text-anchor="end" font-family="Arial" font-size="11">-4.33</text>
<text x="68" y="59" text-anchor="end" font-family="Arial" font-size="11">87.04</text>
<polyline fill="none" stroke="#c23b3b" stroke-width="2.2" points="116.57,74.36 117.11,413.64 117.64,413.64 118.18,413.63 118.71,413.62 119.25,413.61 119.79,413.61 120.32,413.60 120.86,413.59 121.39,413.58 121.93,413.57 122.46,413.56 123.00,413.55 123.54,413.54 124.07,413.53 124.61,413.52 125.14,413.50 125.68,413.49 126.21,413.48 126.75,413.47 127.29,413.46 127.82,413.44 128.36,413.43 128.89,413.41 129.43,413.40 129.96,413.39 130.50,413.37 131.04,413.36 131.57,413.34 132.11,413.33 132.64,413.31 133.18,413.30 133.71,413.28 134.25,413.26 134.79,413.25 135.32,413.23 135.86,413.21 136.39,413.20 136.93,413.18 137.46,413.16 138.00,413.14 138.54,413.13 139.07,413.11 139.61,413.09 140.14,413.07 140.68,413.05 141.21,413.03 141.75,413.02 142.29,413.00 142.82,412.98 143.36,412.96 143.89,412.94 144.43,412.92 144.96,412.90 145.50,412.88 146.04,412.86 146.57,412.84 147.11,412.82 147.64,412.80 148.18,412.78 148.71,412.76 149.25,412.74 149.79,412.72 150.32,412.70 150.86,412.68 151.39,412.66 151.93,412.64 152.46,412.62 153.00,412.60 153.54,412.58 154.07,412.56 154.61,412.54 155.14,412.52 155.68,412.50 156.21,412.48 156.75,412.46 157.29,412.43 157.82,412.41 158.36,412.39 158.89,412.37 159.43,412.35 159.96,412.33 160.50,412.31 161.04,412.29 161.57,412.27 162.11,412.25 162.64,412.23 163.18,412.20 163.71,412.18 164.25,412.16 164.79,412.14 165.32,412.12 165.86,412.10 166.39,412.08 166.93,412.06 167.46,412.04 168.00,412.02 168.54,412.00 169.07,411.98 169.61,411.96 170.14,411.93 170.68,411.91 171.21,411.89 171.75,411.87 172.29,411.85 172.82,411.83 173.36,411.81 173.89,411.79 174.43,411.77 174.96,411.75 175.50,411.73 176.04,411.71 176.57,411.69 177.11,411.67 177.64,411.65 178.18,411.63 178.71,411.61 179.25,411.59 179.79,411.57 180.32,411.55 180.86,411.53 181.39,411.51 181.93,411.49 182.46,411.47 183.00,411.46 183.54,411.44 184.07,411.42 184.61,411.40 185.14,411.38 185.68,411.36 186.21,411.34 186.75,411.32 187.29,411.30 187.82,411.29 188.36,411.27 188.89,411.25 189.43,411.23 189.96,411.21 190.50,411.19 191.04,411.18 191.57,411.16 192.11,411.14 192.64,411.12 193.18,411.10 193.71,411.09 194.25,411.07 194.79,411.05 195.32,411.03 195.86,411.02 196.39,411.00 196.93,410.98 197.46,410.97 198.00,410.95 198.54,410.93 199.07,410.92 199.61,410.90 200.14,410.88 200.68,410.87 201.21,410.85 201.75,410.83 202.29,410.82 202.82,410.80 203.36,410.79 203.89,410.77 204.43,410.76 204.96,410.74 205.50,410.73 206.04,410.71 206.57,410.70 207.11,410.68 207.64,410.67 208.18,410.65 208.71,410.64 209.25,410.62 209.79,410.61 210.32,410.59 210.86,410.58 211.39,410.56 211.93,410.55 212.46,410.54 213.00,410.52 213.54,410.51 214.07,410.50 214.61,410.48 215.14,410.47 215.68,410.46 216.21,410.44 216.75,410.43 217.29,410.42 217.82,410.40 218.36,410.39 218.89,410.38 219.43,410.37 219.96,410.35 220.50,410.34 221.04,410.33 221.57,410.32 222.11,410.31 222.64,410.29 223.18,410.28 223.71,410.27 224.25,410.26 224.79,410.25 225.32,410.24 225.86,410.23 226.39,410.22 226.93,410.21 227.46,410.20 228.00,410.19 228.54,410.17 229.07,410.16 229.61,410.15 230.14,410.14 230.68,410.13 231.21,410.13 231.75,410.12 232.29,410.11 232.82,410.10 233.36,410.09 233.89,410.08 234.43,410.07 234.96,410.06 235.50,410.05 236.04,410.04 236.57,410.03 237.11,410.03 237.64,410.02 238.18,410.01 238.71,410.00 239.25,409.99 239.79,409.99 240.32,409.98 240.86,409.97 241.39,409.96 241.93,409.96 242.46,409.95 243.00,409.94 243.54,409.94 244.07,409.93 244.61,409.92 245.14,409.92 245.68,409.91 246.21,409.90 246.75,409.90 247.29,409.89 247.82,409.89 248.36,409.88 248.89,409.87 249.43,409.87 249.96,409.86 250.50,409.86 251.04,409.85 251.57,409.85 252.11,409.84 252.64,409.84 253.18,409.83 253.71,409.83 254.25,409.82 254.79,409.82 255.32,409.81 255.86,409.81 256.39,409.81 256.93,409.80 257.46,409.80 258.00,409.79 258.54,409.79 259.07,409.79 259.61,409.78 260.14,409.78 260.68,409.78 261.21,409.77 261.75,409.77 262.29,409.77 262.82,409.77 263.36,409.76 263.89,409.76 264.43,409.76 264.96,409.76 265.50,409.75 266.04,409.75 266.57,409.75 267.11,409.75 267.64,409.75 268.18,409.74 268.71,409.74 269.25,409.74 269.79,409.74 270.32,409.74 270.86,409.74 271.39,409.74 271.93,409.73 272.46,409.73 273.00,409.73 273.54,409.73 274.07,409.73 274.61,409.73 275.14,409.73 275.68,409.73 276.21,409.73 276.75,409.73 277.29,409.73 277.82,409.73 278.36,409.73 278.89,409.73 279.43,409.73 279.96,409.73 280.50,409.73 281.04,409.73 281.57,409.73 282.11,409.73 282.64,409.73 283.18,409.74 283.71,409.74 284.25,409.74 284.79,409.74 285.32,409.74 285.86,409.74 286.39,409.74 286.93,409.74 287.46,409.75 288.00,409.75 288.54,409.75 289.07,409.75 289.61,409.75 290.14,409.76 290.68,409.76 291.21,409.76 291.75,409.76 292.29,409.76 292.82,409.77 293.36,409.77 293.89,409.77 294.43,409.77 294.96,409.78 295.50,409.78 296.04,409.78 296.57,409.79 297.11,409.79 297.64,409.79 298.18,409.79 298.71,409.80 299.25,409.80 299.79,409.80 300.32,409.81 300.86,409.81 301.39,409.81 301.93,409.82 302.46,409.82 303.00,409.82 303.54,409.83 304.07,409.83 304.61,409.83 305.14,409.84 305.68,409.84 306.21,409.85 306.75,409.85 307.29,409.85 307.82,409.86 308.36,409.86 308.89,409.87 309.43,409.87 309.96,409.87 310.50,409.88 311.04,409.88 311.57,409.89 312.11,409.89 312.64,409.90 313.18,409.90 313.71,409.91 314.25,409.91 314.79,409.91 315.32,409.92 315.86,409.92 316.39,409.93 316.93,409.93 317.46,409.94 318.00,409.94 318.54,409.95 319.07,409.95 319.61,409.96 320.14,409.96 320.68,409.97 321.21,409.97 321.75,409.98 322.29,409.98 322.82,409.99 323.36,409.99 323.89,410.00 324.43,410.00 324.96,410.01 325.50,410.01 326.04,410.02 326.57,410.02 327.11,410.03 327.64,410.03 328.18,410.04 328.71,410.04 329.25,410.05 329.79,410.05 330.32,410.06 330.86,410.06 331.39,410.07 331.93,410.07 332.46,410.08 333.00,410.08 333.54,410.09 334.07,410.09 334.61,410.10 335.14,410.10 335.68,410.11 336.21,410.11 336.75,410.12 337.29,410.12 337.82,410.13 338.36,410.14 338.89,410.14 339.43,410.15 339.96,410.15 340.50,410.16 341.04,410.16 341.57,410.17 342.11,410.17 342.64,410.18 343.18,410.18 343.71,410.19 344.25,410.19 344.79,410.20 345.32,410.20 345.86,410.21 346.39,410.21 346.93,410.22 347.46,410.22 348.00,410.23 348.54,410.23 349.07,410.24 349.61,410.24 350.14,410.25 350.68,410.25 351.21,410.26 351.75,410.26 352.29,410.27 352.82,410.27 353.36,410.28 353.89,410.28 354.43,410.29 354.96,410.29 355.50,410.30 356.04,410.30 356.57,410.31 357.11,410.31 357.64,410.31 358.18,410.32 358.71,410.32 359.25,410.33 359.79,410.33 360.32,410.34 360.86,410.34 361.39,410.35 361.93,410.35 362.46,410.36 363.00,410.36 363.54,410.36 364.07,410.37 364.61,410.37 365.14,410.38 365.68,410.38 366.21,410.39 366.75,410.39 367.29,410.39 367.82,410.40 368.36,410.40 368.89,410.41 369.43,410.41 369.96,410.41 370.50,410.42 371.04,410.42 371.57,410.42 372.11,410.43 372.64,410.43 373.18,410.44 373.71,410.44 374.25,410.44 374.79,410.45 375.32,410.45 375.86,410.45 376.39,410.46 376.93,410.46 377.46,410.46 378.00,410.47 378.54,410.47 379.07,410.47 379.61,410.48 380.14,410.48 380.68,410.48 381.21,410.49 381.75,410.49 382.29,410.49 382.82,410.50 383.36,410.50 383.89,410.50 384.43,410.50 384.96,410.51 385.50,410.51 386.04,410.51 386.57,410.52 387.11,410.52 387.64,410.52 388.18,410.52 388.71,410.53 389.25,410.53 389.79,410.53 390.32,410.53 390.86,410.54 391.39,410.54 391.93,410.54 392.46,410.54 393.00,410.55 393.54,410.55 394.07,410.55 394.61,410.55 395.14,410.55 395.68,410.56 396.21,410.56 396.75,410.56 397.29,410.56 397.82,410.57 398.36,410.57 398.89,410.57 399.43,410.57 399.96,410.57 400.50,410.57 401.04,410.58 401.57,410.58 402.11,410.58 402.64,410.58 403.18,410.58 403.71,410.59 404.25,410.59 404.79,410.59 405.32,410.59 405.86,410.59 406.39,410.59 406.93,410.59 407.46,410.60 408.00,410.60 408.54,410.60 409.07,410.60 409.61,410.60 410.14,410.60 410.68,410.60 411.21,410.61 411.75,410.61 412.29,410.61 412.82,410.61 413.36,410.61 413.89,410.61 414.43,410.61 414.96,410.62 415.50,410.62 416.04,410.62 416.57,410.62 417.11,410.62 417.64,410.62 418.18,410.62 418.71,410.62 419.25,410.62 419.79,410.63 420.32,410.63 420.86,410.63 421.39,410.63 421.93,410.63 422.46,410.63 423.00,410.63 423.54,410.63 424.07,410.63 424.61,410.63 425.14,410.64 425.68,410.64 426.21,410.64 426.75,410.64 427.29,410.64 427.82,410.64 428.36,410.64 428.89,410.64 429.43,410.64 429.96,410.64 430.50,410.65 431.04,410.65 431.57,410.65 432.11,410.65 432.64,410.65 433.18,410.65 433.71,410.65 434.25,410.65 434.79,410.65 435.32,410.65 435.86,410.65 436.39,410.66 436.93,410.66 437.46,410.66 438.00,410.66 438.54,410.66 439.07,410.66 439.61,410.66 440.14,410.66 440.68,410.66 441.21,410.66 441.75,410.67 442.29,410.67 442.82,410.67 443.36,410.67 443.89,410.67 444.43,410.67 444.96,410.67 445.50,410.67 446.04,410.67 446.57,410.68 447.11,410.68 447.64,410.68 448.18,410.68 448.71,410.68 449.25,410.68 449.79,410.68 450.32,410.68 450.86,410.69 451.39,410.69 451.93,410.69 452.46,410.69 453.00,410.69 453.54,410.69 454.07,410.69 454.61,410.70 455.14,410.70 455.68,410.70 456.21,410.70 456.75,410.70 457.29,410.70 457.82,410.70 458.36,410.71 458.89,410.71 459.43,410.71 459.96,410.71 460.50,410.71 461.04,410.71 461.57,410.72 462.11,410.72 462.64,410.72 463.18,410.72 463.71,410.72 464.25,410.72 464.79,410.73 465.32,410.73 465.86,410.73 466.39,410.73 466.93,410.73 467.46,410.74 468.00,410.74 468.54,410.74 469.07,410.74 469.61,410.74 470.14,410.75 470.68,410.75 471.21,410.75 471.75,410.75 472.29,410.76 472.82,410.76 473.36,410.76 473.89,410.76 474.43,410.76 474.96,410.77 475.50,410.77 476.04,410.77 476.57,410.77 477.11,410.78 477.64,410.78 478.18,410.78 478.71,410.78 479.25,410.79 479.79,410.79 480.32,410.79 480.86,410.79 481.39,410.80 481.93,410.80 482.46,410.80 483.00,410.80 483.54,410.81 484.07,410.81 484.61,410.81 485.14,410.82 485.68,410.82 486.21,410.82 486.75,410.82 487.29,410.83 487.82,410.83 488.36,410.83 488.89,410.84 489.43,410.84 489.96,410.84 490.50,410.84 491.04,410.85 491.57,410.85 492.11,410.85 492.64,410.86 493.18,410.86 493.71,410.86 494.25,410.87 494.79,410.87 495.32,410.87 495.86,410.88 496.39,410.88 496.93,410.88 497.46,410.88 498.00,410.89 498.54,410.89 499.07,410.89 499.61,410.90 500.14,410.90 500.68,410.90 501.21,410.91 501.75,410.91 502.29,410.91 502.82,410.92 503.36,410.92 503.89,410.92 504.43,410.93 504.96,410.93 505.50,410.93 506.04,410.94 506.57,410.94 507.11,410.94 507.64,410.95 508.18,410.95 508.71,410.95 509.25,410.96 509.79,410.96 510.32,410.96 510.86,410.97 511.39,410.97 511.93,410.97 512.46,410.98 513.00,410.98 513.54,410.98 514.07,410.98 514.61,410.99 515.14,410.99 515.68,410.99 516.21,411.00 516.75,411.00 517.29,411.00 517.82,411.01 518.36,411.01 518.89,411.01 519.43,411.02 519.96,411.02 520.50,411.02 521.04,411.02 521.57,411.03 522.11,411.03 522.64,411.03 523.18,411.04 523.71,411.04 524.25,411.04 524.79,411.04 525.32,411.05 525.86,411.05 526.39,411.05 526.93,411.06 527.46,411.06 528.00,411.06 528.54,411.06 529.07,411.07 529.61,411.07 530.14,411.07 530.68,411.07 531.21,411.07 531.75,411.08 532.29,411.08 532.82,411.08 533.36,411.08 533.89,411.09 534.43,411.09 534.96,411.09 535.50,411.09 536.04,411.09 536.57,411.09 537.11,411.10 537.64,411.10 538.18,411.10 538.71,411.10 539.25,411.10 539.79,411.10 540.32,411.11 540.86,411.11 541.39,411.11 541.93,411.11 542.46,411.11 543.00,411.11 543.54,411.11 544.07,411.11 544.61,411.11 545.14,411.11 545.68,411.12 546.21,411.12 546.75,411.12 547.29,411.12 547.82,411.12 548.36,411.12 548.89,411.12 549.43,411.12 549.96,411.12 550.50,411.12 551.04,411.12 551.57,411.12 552.11,411.12 552.64,411.12 553.18,411.12 553.71,411.12 554.25,411.12 554.79,411.11 555.32,411.11 555.86,411.11 556.39,411.11 556.93,411.11 557.46,411.11 558.00,411.11 558.54,411.11 559.07,411.10 559.61,411.10 560.14,411.10 560.68,411.10 561.21,411.10 561.75,411.10 562.29,411.09 562.82,411.09 563.36,411.09 563.89,411.09 564.43,411.08 564.96,411.08 565.50,411.08 566.04,411.08 566.57,411.07 567.11,411.07 567.64,411.07 568.18,411.06 568.71,411.06 569.25,411.06 569.79,411.05 570.32,411.05 570.86,411.05 571.39,411.04 571.93,411.04 572.46,411.03 573.00,411.03 573.54,411.03 574.07,411.02 574.61,411.02 575.14,411.01 575.68,411.01 576.21,411.00 576.75,411.00 577.29,410.99 577.82,410.99 578.36,410.98 578.89,410.98 579.43,410.97 579.96,410.97 580.50,410.96 581.04,410.96 581.57,410.95 582.11,410.94 582.64,410.94 583.18,410.93 583.71,410.92 584.25,410.92 584.79,410.91 585.32,410.91 585.86,410.90 586.39,410.89 586.93,410.88 587.46,410.88 588.00,410.87 588.54,410.86 589.07,410.86 589.61,410.85 590.14,410.84 590.68,410.83 591.21,410.83 591.75,410.82 592.29,410.81 592.82,410.80 593.36,410.79 593.89,410.79 594.43,410.78 594.96,410.77 595.50,410.76 596.04,410.75 596.57,410.74 597.11,410.73 597.64,410.72 598.18,410.72 598.71,410.71 599.25,410.70 599.79,410.69 600.32,410.68 600.86,410.67 601.39,410.66 601.93,410.65 602.46,410.64 603.00,410.63 603.54,410.62 604.07,410.61 604.61,410.60 605.14,410.59 605.68,410.58 606.21,410.57 606.75,410.56 607.29,410.55 607.82,410.54 608.36,410.53 608.89,410.52 609.43,410.51 609.96,410.50 610.50,410.49 611.04,410.48 611.57,410.46 612.11,410.45 612.64,410.44 613.18,410.43 613.71,410.42 614.25,410.41 614.79,410.40 615.32,410.39 615.86,410.37 616.39,410.36 616.93,410.35 617.46,410.34 618.00,410.33 618.54,410.32 619.07,410.30 619.61,410.29 620.14,410.28 620.68,410.27 621.21,410.26 621.75,410.25 622.29,410.23 622.82,410.22 623.36,410.21 623.89,410.20 624.43,410.19 624.96,410.17 625.50,410.16 626.04,410.15 626.57,410.14 627.11,410.12 627.64,410.11 628.18,410.10 628.71,410.09 629.25,410.07 629.79,410.06 630.32,410.05 630.86,410.04 631.39,410.02 631.93,410.01 632.46,410.00 633.00,409.99 633.54,409.97 634.07,409.96 634.61,409.95 635.14,409.94 635.68,409.92 636.21,409.91 636.75,409.90 637.29,409.89 637.82,409.87 638.36,409.86 638.89,409.85 639.43,409.84 639.96,409.82 640.50,409.81 641.04,409.80 641.57,409.79 642.11,409.77 642.64,409.76 643.18,409.75 643.71,409.74 644.25,409.72 644.79,409.71 645.32,409.70 645.86,409.69 646.39,409.67 646.93,409.66 647.46,409.65 648.00,409.64 648.54,409.62 649.07,409.61 649.61,409.60 650.14,409.59 650.68,409.58 651.21,409.56 651.75,409.55 652.29,409.54 652.82,409.53 653.36,409.51 653.89,409.50 654.43,409.49 654.96,409.48 655.50,409.47 656.04,409.46 656.57,409.44 657.11,409.43 657.64,409.42 658.18,409.41 658.71,409.40 659.25,409.38 659.79,409.37 660.32,409.36 660.86,409.35 661.39,409.34 661.93,409.33 662.46,409.32 663.00,409.31 663.54,409.29 664.07,409.28 664.61,409.27 665.14,409.26 665.68,409.25 666.21,409.24 666.75,409.23 667.29,409.22 667.82,409.21 668.36,409.20 668.89,409.19 669.43,409.18 669.96,409.17 670.50,409.16 671.04,409.15 671.57,409.14 672.11,409.12 672.64,409.12 673.18,409.11 673.71,409.10 674.25,409.09 674.79,409.08 675.32,409.07 675.86,409.06 676.39,409.05 676.93,409.04 677.46,409.03 678.00,409.02 678.54,409.01 679.07,409.00 679.61,408.99 680.14,408.98 680.68,408.98 681.21,408.97 681.75,408.96 682.29,408.95 682.82,408.94 683.36,408.93 683.89,408.92 684.43,408.92 684.96,408.91 685.50,408.90 686.04,408.89 686.57,408.89 687.11,408.88 687.64,408.87 688.18,408.86 688.71,408.86 689.25,408.85 689.79,408.84 690.32,408.83 690.86,408.83 691.39,408.82 691.93,408.81 692.46,408.81 693.00,408.80 693.54,408.80 694.07,408.79 694.61,408.78 695.14,408.78 695.68,408.77 696.21,408.77 696.75,408.76 697.29,408.75 697.82,408.75 698.36,408.74 698.89,408.74 699.43,408.73 699.96,408.73 700.50,408.72 701.04,408.72 701.57,408.71 702.11,408.71 702.64,408.71 703.18,408.70 703.71,408.70 704.25,408.69 704.79,408.69 705.32,408.69 705.86,408.68 706.39,408.68 706.93,408.68 707.46,408.67 708.00,408.67 708.54,408.67 709.07,408.66 709.61,408.66 710.14,408.66 710.68,408.66 711.21,408.65 711.75,408.65 712.29,408.65 712.82,408.65 713.36,408.65 713.89,408.64 714.43,408.64 714.96,408.64 715.50,408.64 716.04,408.64 716.57,408.64 717.11,408.64 717.64,408.64 718.18,408.63 718.71,408.63 719.25,408.63 719.79,408.63 720.32,408.63 720.86,408.63 721.39,408.63 721.93,408.63 722.46,408.63 723.00,408.63 723.54,408.63 724.07,408.64 724.61,408.64 725.14,408.64 725.68,408.64 726.21,408.64 726.75,408.64 727.29,408.64 727.82,408.64 728.36,408.65 728.89,408.65 729.43,408.65 729.96,408.65 730.50,408.66 731.04,408.66 731.57,408.66 732.11,408.66 732.64,408.67 733.18,408.67 733.71,408.67 734.25,408.68 734.79,408.68 735.32,408.68 735.86,408.69 736.39,408.69 736.93,408.69 737.46,408.70 738.00,408.70 738.54,408.71 739.07,408.71 739.61,408.72 740.14,408.72 740.68,408.73 741.21,408.73 741.75,408.74 742.29,408.74 742.82,408.75 743.36,408.75 743.89,408.76 744.43,408.76 744.96,408.77 745.50,408.78 746.04,408.78 746.57,408.79 747.11,408.80 747.64,408.80 748.18,408.81 748.71,408.82 749.25,408.82 749.79,408.83 750.32,408.84 750.86,408.85 751.39,408.85 751.93,408.86 752.46,408.87 753.00,408.88 753.54,408.88 754.07,408.89 754.61,408.90 755.14,408.91 755.68,408.92 756.21,408.93 756.75,408.94 757.29,408.94 757.82,408.95 758.36,408.96 758.89,408.97 759.43,408.98"/>
<line x1="828" y1="78" x2="856" y2="78" stroke="#c23b3b" stroke-width="3"/>
<text x="864" y="82" font-family="Arial" font-size="13">residual</text>
</svg>