<svg xmlns="http://www.w3.org/2000/svg" width="920" height="520" viewBox="0 0 920 520">
<rect width="100%" height="100%" fill="white"/>
<text x="460" y="28" text-anchor="middle" font-family="Arial" font-size="20">Control Allocation Actuators</text>
<rect x="78" y="54" width="720" height="380" fill="#fafafa" stroke="#222"/>
<line x1="78" y1="434" x2="798" y2="434" stroke="#222"/>
<line x1="78" y1="54" x2="78" y2="434" stroke="#222"/>
<text x="438" y="492" text-anchor="middle" font-family="Arial" font-size="14">time (s)</text>
<text transform="translate(22,244) rotate(-90)" text-anchor="middle" font-family="Arial" font-size="14">deflection (rad)</text>
<text x="78" y="456" text-anchor="middle" font-family="Arial" font-size="11">-1.44</text>
<text x="798" y="456" text-anchor="middle" font-family="Arial" font-size="11">25.44</text>
<text x="68" y="434" text-anchor="end" font-family="Arial" font-size="11">-0.15</text>
<text x="68" y="59" text-anchor="end" font-family="Arial" font-size="11">0.34</text>
<line x1="78" y1="74.36" x2="798" y2="74.36" stroke="#c23b3b" stroke-dasharray="8 6"/>
<text x="806" y="78.36" font-family="Arial" font-size="12" fill="#c23b3b">deflection limit</text>
<polyline fill="none" stroke="#2f6fbb" stroke-width="2.2" points="116.57,328.37 117.11,328.21 117.64,328.04 118.18,327.88 118.71,327.71 119.25,327.55 119.79,327.38 120.32,327.22 120.86,327.05 121.39,326.89 121.93,326.72 122.46,326.55 123.00,326.39 123.54,326.22 124.07,326.05 124.61,325.89 125.14,325.72 125.68,325.55 126.21,325.39 126.75,325.22 127.29,325.05 127.82,324.88 128.36,324.72 128.89,324.55 129.43,324.38 129.96,324.21 130.50,324.04 131.04,323.88 131.57,323.71 132.11,323.54 132.64,323.37 133.18,323.20 133.71,323.04 134.25,322.87 134.79,322.70 135.32,322.53 135.86,322.37 136.39,322.20 136.93,322.03 137.46,321.86 138.00,321.69 138.54,321.53 139.07,321.36 139.61,321.19 140.14,321.03 140.68,320.86 141.21,320.69 141.75,320.53 142.29,320.36 142.82,320.19 143.36,320.03 143.89,319.86 144.43,319.70 144.96,319.53 145.50,319.37 146.04,319.20 146.57,319.04 147.11,318.87 147.64,318.71 148.18,318.55 148.71,318.38 149.25,318.22 149.79,318.06 150.32,317.90 150.86,317.73 151.39,317.57 151.93,317.41 152.46,317.25 153.00,317.09 153.54,316.93 154.07,316.77 154.61,316.61 155.14,316.45 155.68,316.29 156.21,316.13 156.75,315.98 157.29,315.82 157.82,315.66 158.36,315.51 158.89,315.35 159.43,315.20 159.96,315.04 160.50,314.89 161.04,314.73 161.57,314.58 162.11,314.43 162.64,314.28 163.18,314.12 163.71,313.97 164.25,313.82 164.79,313.67 165.32,313.52 165.86,313.38 166.39,313.23 166.93,313.08 167.46,312.93 168.00,312.79 168.54,312.64 169.07,312.50 169.61,312.35 170.14,312.21 170.68,312.07 171.21,311.93 171.75,311.78 172.29,311.64 172.82,311.50 173.36,311.37 173.89,311.23 174.43,311.09 174.96,310.95 175.50,310.82 176.04,310.68 176.57,310.55 177.11,310.41 177.64,310.28 178.18,310.15 178.71,310.02 179.25,309.89 179.79,309.76 180.32,309.63 180.86,309.50 181.39,309.37 181.93,309.25 182.46,309.12 183.00,308.99 183.54,308.87 184.07,308.75 184.61,308.63 185.14,308.51 185.68,308.39 186.21,308.27 186.75,308.15 187.29,308.03 187.82,307.91 188.36,307.80 188.89,307.68 189.43,307.57 189.96,307.46 190.50,307.35 191.04,307.23 191.57,307.12 192.11,307.02 192.64,306.91 193.18,306.80 193.71,306.70 194.25,306.59 194.79,306.49 195.32,306.38 195.86,306.28 196.39,306.18 196.93,306.08 197.46,305.98 198.00,305.89 198.54,305.79 199.07,305.69 199.61,305.60 200.14,305.51 200.68,305.42 201.21,305.32 201.75,305.23 202.29,305.15 202.82,305.06 203.36,304.97 203.89,304.89 204.43,304.80 204.96,304.72 205.50,304.64 206.04,304.55 206.57,304.47 207.11,304.40 207.64,304.32 208.18,304.24 208.71,304.17 209.25,304.09 209.79,304.02 210.32,303.95 210.86,303.88 211.39,303.81 211.93,303.74 212.46,303.67 213.00,303.61 213.54,303.54 214.07,303.48 214.61,303.42 215.14,303.36 215.68,303.30 216.21,303.24 216.75,303.18 217.29,303.12 217.82,303.07 218.36,303.02 218.89,302.96 219.43,302.91 219.96,302.86 220.50,302.81 221.04,302.77 221.57,302.72 222.11,302.67 222.64,302.63 223.18,302.59 223.71,302.55 224.25,302.51 224.79,302.47 225.32,302.43 225.86,302.40 226.39,302.36 226.93,302.33 227.46,302.29 228.00,302.26 228.54,302.23 229.07,302.20 229.61,302.18 230.14,302.15 230.68,302.13 231.21,302.10 231.75,302.08 232.29,302.06 232.82,302.04 233.36,302.02 233.89,302.01 234.43,301.99 234.96,301.98 235.50,301.96 236.04,301.95 236.57,301.94 237.11,301.93 237.64,301.92 238.18,301.92 238.71,301.91 239.25,301.91 239.79,301.91 240.32,301.90 240.86,301.90 241.39,301.91 241.93,301.91 242.46,301.91 243.00,301.92 243.54,301.92 244.07,301.93 244.61,301.94 245.14,301.95 245.68,301.96 246.21,301.98 246.75,301.99 247.29,302.01 247.82,302.02 248.36,302.04 248.89,302.06 249.43,302.08 249.96,302.10 250.50,302.13 251.04,302.15 251.57,302.18 252.11,302.20 252.64,302.23 253.18,302.26 253.71,302.29 254.25,302.33 254.79,302.36 255.32,302.40 255.86,302.43 256.39,302.47 256.93,302.51 257.46,302.55 258.00,302.59 258.54,302.63 259.07,302.68 259.61,302.72 260.14,302.77 260.68,302.81 261.21,302.86 261.75,302.91 262.29,302.97 262.82,303.02 263.36,303.07 263.89,303.13 264.43,303.18 264.96,303.24 265.50,303.30 266.04,303.36 266.57,303.42 267.11,303.48 267.64,303.55 268.18,303.61 268.71,303.68 269.25,303.75 269.79,303.81 270.32,303.88 270.86,303.95 271.39,304.03 271.93,304.10 272.46,304.17 273.00,304.25 273.54,304.33 274.07,304.40 274.61,304.48 275.14,304.56 275.68,304.65 276.21,304.73 276.75,304.81 277.29,304.90 277.82,304.98 278.36,305.07 278.89,305.16 279.43,305.25 279.96,305.34 280.50,305.43 281.04,305.52 281.57,305.62 282.11,305.71 282.64,305.81 283.18,305.90 283.71,306.00 284.25,306.10 284.79,306.20 285.32,306.30 285.86,306.41 286.39,306.51 286.93,306.61 287.46,306.72 288.00,306.83 288.54,306.93 289.07,307.04 289.61,307.15 290.14,307.26 290.68,307.38 291.21,307.49 291.75,307.60 292.29,307.72 292.82,307.83 293.36,307.95 293.89,308.07 294.43,308.19 294.96,308.30 295.50,308.43 296.04,308.55 296.57,308.67 297.11,308.79 297.64,308.92 298.18,309.04 298.71,309.17 299.25,309.29 299.79,309.42 300.32,309.55 300.86,309.68 301.39,309.81 301.93,309.94 302.46,310.07 303.00,310.21 303.54,310.34 304.07,310.47 304.61,310.61 305.14,310.75 305.68,310.88 306.21,311.02 306.75,311.16 307.29,311.30 307.82,311.44 308.36,311.58 308.89,311.72 309.43,311.86 309.96,312.01 310.50,312.15 311.04,312.30 311.57,312.44 312.11,312.59 312.64,312.73 313.18,312.88 313.71,313.03 314.25,313.18 314.79,313.33 315.32,313.48 315.86,313.63 316.39,313.78 316.93,313.93 317.46,314.08 318.00,314.24 318.54,314.39 319.07,314.54 319.61,314.70 320.14,314.85 320.68,315.01 321.21,315.17 321.75,315.32 322.29,315.48 322.82,315.64 323.36,315.80 323.89,315.96 324.43,316.12 324.96,316.28 325.50,316.44 326.04,316.60 326.57,316.76 327.11,316.92 327.64,317.09 328.18,317.25 328.71,317.41 329.25,317.58 329.79,317.74 330.32,317.91 330.86,318.07 331.39,318.24 331.93,318.40 332.46,318.57 333.00,318.73 333.54,318.90 334.07,319.07 334.61,319.23 335.14,319.40 335.68,319.57 336.21,319.74 336.75,319.91 337.29,320.08 337.82,320.25 338.36,320.41 338.89,320.58 339.43,320.75 339.96,320.92 340.50,321.09 341.04,321.26 341.57,321.44 342.11,321.61 342.64,321.78 343.18,321.95 343.71,322.12 344.25,322.29 344.79,322.46 345.32,322.63 345.86,322.81 346.39,322.98 346.93,323.15 347.46,323.32 348.00,323.49 348.54,323.67 349.07,323.84 349.61,324.01 350.14,324.18 350.68,324.35 351.21,324.53 351.75,324.70 352.29,324.87 352.82,325.04 353.36,325.21 353.89,325.39 354.43,325.56 354.96,325.73 355.50,325.90 356.04,326.07 356.57,326.25 357.11,326.42 357.64,326.59 358.18,326.76 358.71,326.93 359.25,327.10 359.79,327.27 360.32,327.44 360.86,327.61 361.39,327.78 361.93,327.95 362.46,328.12 363.00,328.29 363.54,328.46 364.07,328.63 364.61,328.80 365.14,328.97 365.68,329.14 366.21,329.30 366.75,329.47 367.29,329.64 367.82,329.81 368.36,329.97 368.89,330.14 369.43,330.31 369.96,330.47 370.50,330.64 371.04,330.80 371.57,330.97 372.11,331.13 372.64,331.29 373.18,331.46 373.71,331.62 374.25,331.78 374.79,331.94 375.32,332.11 375.86,332.27 376.39,332.43 376.93,332.59 377.46,332.75 378.00,332.91 378.54,333.06 379.07,333.22 379.61,333.38 380.14,333.54 380.68,333.69 381.21,333.85 381.75,334.00 382.29,334.16 382.82,334.31 383.36,334.46 383.89,334.62 384.43,334.77 384.96,334.92 385.50,335.07 386.04,335.22 386.57,335.37 387.11,335.52 387.64,335.67 388.18,335.81 388.71,335.96 389.25,336.11 389.79,336.25 390.32,336.40 390.86,336.54 391.39,336.68 391.93,336.82 392.46,336.97 393.00,337.11 393.54,337.25 394.07,337.39 394.61,337.52 395.14,337.66 395.68,337.80 396.21,337.93 396.75,338.07 397.29,338.20 397.82,338.33 398.36,338.47 398.89,338.60 399.43,338.73 399.96,338.86 400.50,338.99 401.04,339.11 401.57,339.24 402.11,339.37 402.64,339.49 403.18,339.62 403.71,339.74 404.25,339.86 404.79,339.98 405.32,340.10 405.86,340.22 406.39,340.34 406.93,340.46 407.46,340.57 408.00,340.69 408.54,340.80 409.07,340.91 409.61,341.02 410.14,341.14 410.68,341.24 411.21,341.35 411.75,341.46 412.29,341.57 412.82,341.67 413.36,341.78 413.89,341.88 414.43,341.98 414.96,342.08 415.50,342.18 416.04,342.28 416.57,342.38 417.11,342.47 417.64,342.57 418.18,342.66 418.71,342.76 419.25,342.85 419.79,342.94 420.32,343.03 420.86,343.11 421.39,343.20 421.93,343.29 422.46,343.37 423.00,343.45 423.54,343.54 424.07,343.62 424.61,343.70 425.14,343.77 425.68,343.85 426.21,343.93 426.75,344.00 427.29,344.07 427.82,344.14 428.36,344.21 428.89,344.28 429.43,344.35 429.96,344.42 430.50,344.48 431.04,344.55 431.57,344.61 432.11,344.67 432.64,344.73 433.18,344.79 433.71,344.84 434.25,344.90 434.79,344.95 435.32,345.01 435.86,345.06 436.39,345.11 436.93,345.16 437.46,345.20 438.00,345.25 438.54,345.30 439.07,345.34 439.61,345.38 440.14,345.42 440.68,345.46 441.21,345.50 441.75,345.53 442.29,345.57 442.82,345.60 443.36,345.63 443.89,345.66 444.43,345.69 444.96,345.72 445.50,345.74 446.04,345.77 446.57,345.79 447.11,345.81 447.64,345.83 448.18,345.85 448.71,345.87 449.25,345.89 449.79,345.90 450.32,345.91 450.86,345.92 451.39,345.93 451.93,345.94 452.46,345.95 453.00,345.95 453.54,345.96 454.07,345.96 454.61,345.96 455.14,345.96 455.68,345.96 456.21,345.95 456.75,345.95 457.29,345.94 457.82,345.93 458.36,345.92 458.89,345.91 459.43,345.90 459.96,345.88 460.50,345.87 461.04,345.85 461.57,345.83 462.11,345.81 462.64,345.79 463.18,345.77 463.71,345.74 464.25,345.71 464.79,345.69 465.32,345.66 465.86,345.62 466.39,345.59 466.93,345.56 467.46,345.52 468.00,345.48 468.54,345.44 469.07,345.40 469.61,345.36 470.14,345.32 470.68,345.27 471.21,345.23 471.75,345.18 472.29,345.13 472.82,345.08 473.36,345.02 473.89,344.97 474.43,344.91 474.96,344.86 475.50,344.80 476.04,344.74 476.57,344.67 477.11,344.61 477.64,344.54 478.18,344.48 478.71,344.41 479.25,344.34 479.79,344.27 480.32,344.19 480.86,344.12 481.39,344.04 481.93,343.97 482.46,343.89 483.00,343.81 483.54,343.72 484.07,343.64 484.61,343.56 485.14,343.47 485.68,343.38 486.21,343.29 486.75,343.20 487.29,343.11 487.82,343.01 488.36,342.92 488.89,342.82 489.43,342.72 489.96,342.62 490.50,342.52 491.04,342.42 491.57,342.31 492.11,342.20 492.64,342.10 493.18,341.99 493.71,341.88 494.25,341.76 494.79,341.65 495.32,341.54 495.86,341.42 496.39,341.30 496.93,341.18 497.46,341.06 498.00,340.94 498.54,340.82 499.07,340.69 499.61,340.56 500.14,340.44 500.68,340.31 501.21,340.17 501.75,340.04 502.29,339.91 502.82,339.77 503.36,339.64 503.89,339.50 504.43,339.36 504.96,339.22 505.50,339.08 506.04,338.93 506.57,338.79 507.11,338.64 507.64,338.49 508.18,338.35 508.71,338.20 509.25,338.04 509.79,337.89 510.32,337.74 510.86,337.58 511.39,337.42 511.93,337.27 512.46,337.11 513.00,336.95 513.54,336.78 514.07,336.62 514.61,336.45 515.14,336.29 515.68,336.12 516.21,335.95 516.75,335.78 517.29,335.61 517.82,335.44 518.36,335.27 518.89,335.09 519.43,334.92 519.96,334.74 520.50,334.56 521.04,334.38 521.57,334.20 522.11,334.02 522.64,333.83 523.18,333.65 523.71,333.46 524.25,333.28 524.79,333.09 525.32,332.90 525.86,332.71 526.39,332.52 526.93,332.33 527.46,332.13 528.00,331.94 528.54,331.74 529.07,331.55 529.61,331.35 530.14,331.15 530.68,330.95 531.21,330.75 531.75,330.55 532.29,330.34 532.82,330.14 533.36,329.93 533.89,329.73 534.43,329.52 534.96,329.31 535.50,329.10 536.04,328.89 536.57,328.68 537.11,328.47 537.64,328.26 538.18,328.04 538.71,327.83 539.25,327.61 539.79,327.40 540.32,327.18 540.86,326.96 541.39,326.74 541.93,326.52 542.46,326.30 543.00,326.08 543.54,325.85 544.07,325.63 544.61,325.41 545.14,325.18 545.68,324.95 546.21,324.73 546.75,324.50 547.29,324.27 547.82,324.04 548.36,323.81 548.89,323.58 549.43,323.35 549.96,323.12 550.50,322.89 551.04,322.65 551.57,322.42 552.11,322.18 552.64,321.95 553.18,321.71 553.71,321.47 554.25,321.24 554.79,321.00 555.32,320.76 555.86,320.52 556.39,320.28 556.93,320.04 557.46,319.80 558.00,319.56 558.54,319.31 559.07,319.07 559.61,318.83 560.14,318.58 560.68,318.34 561.21,318.09 561.75,317.85 562.29,317.60 562.82,317.36 563.36,317.11 563.89,316.86 564.43,316.61 564.96,316.37 565.50,316.12 566.04,315.87 566.57,315.62 567.11,315.37 567.64,315.12 568.18,314.87 568.71,314.62 569.25,314.37 569.79,314.12 570.32,313.87 570.86,313.61 571.39,313.36 571.93,313.11 572.46,312.86 573.00,312.60 573.54,312.35 574.07,312.10 574.61,311.84 575.14,311.59 575.68,311.34 576.21,311.08 576.75,310.83 577.29,310.57 577.82,310.32 578.36,310.06 578.89,309.81 579.43,309.55 579.96,309.30 580.50,309.04 581.04,308.79 581.57,308.53 582.11,308.28 582.64,308.02 583.18,307.77 583.71,307.51 584.25,307.26 584.79,307.00 585.32,306.75 585.86,306.49 586.39,306.24 586.93,305.98 587.46,305.73 588.00,305.47 588.54,305.22 589.07,304.96 589.61,304.71 590.14,304.46 590.68,304.20 591.21,303.95 591.75,303.69 592.29,303.44 592.82,303.19 593.36,302.93 593.89,302.68 594.43,302.43 594.96,302.18 595.50,301.93 596.04,301.67 596.57,301.42 597.11,301.17 597.64,300.92 598.18,300.67 598.71,300.42 599.25,300.17 599.79,299.92 600.32,299.67 600.86,299.42 601.39,299.18 601.93,298.93 602.46,298.68 603.00,298.43 603.54,298.19 604.07,297.94 604.61,297.70 605.14,297.45 605.68,297.21 606.21,296.96 606.75,296.72 607.29,296.48 607.82,296.23 608.36,295.99 608.89,295.75 609.43,295.51 609.96,295.27 610.50,295.03 611.04,294.79 611.57,294.56 612.11,294.32 612.64,294.08 613.18,293.85 613.71,293.61 614.25,293.38 614.79,293.14 615.32,292.91 615.86,292.68 616.39,292.45 616.93,292.21 617.46,291.98 618.00,291.76 618.54,291.53 619.07,291.30 619.61,291.07 620.14,290.85 620.68,290.62 621.21,290.40 621.75,290.17 622.29,289.95 622.82,289.73 623.36,289.51 623.89,289.29 624.43,289.07 624.96,288.85 625.50,288.64 626.04,288.42 626.57,288.20 627.11,287.99 627.64,287.78 628.18,287.57 628.71,287.35 629.25,287.15 629.79,286.94 630.32,286.73 630.86,286.52 631.39,286.32 631.93,286.11 632.46,285.91 633.00,285.71 633.54,285.50 634.07,285.30 634.61,285.11 635.14,284.91 635.68,284.71 636.21,284.52 636.75,284.32 637.29,284.13 637.82,283.94 638.36,283.75 638.89,283.56 639.43,283.37 639.96,283.18 640.50,283.00 641.04,282.81 641.57,282.63 642.11,282.45 642.64,282.27 643.18,282.09 643.71,281.91 644.25,281.73 644.79,281.56 645.32,281.38 645.86,281.21 646.39,281.04 646.93,280.87 647.46,280.70 648.00,280.54 648.54,280.37 649.07,280.21 649.61,280.05 650.14,279.88 650.68,279.72 651.21,279.57 651.75,279.41 652.29,279.25 652.82,279.10 653.36,278.95 653.89,278.80 654.43,278.65 654.96,278.50 655.50,278.35 656.04,278.21 656.57,278.07 657.11,277.93 657.64,277.79 658.18,277.65 658.71,277.51 659.25,277.37 659.79,277.24 660.32,277.11 660.86,276.98 661.39,276.85 661.93,276.72 662.46,276.60 663.00,276.47 663.54,276.35 664.07,276.23 664.61,276.11 665.14,276.00 665.68,275.88 666.21,275.77 666.75,275.65 667.29,275.54 667.82,275.44 668.36,275.33 668.89,275.22 669.43,275.12 669.96,275.02 670.50,274.92 671.04,274.82 671.57,274.72 672.11,274.63 672.64,274.54 673.18,274.45 673.71,274.36 674.25,274.27 674.79,274.18 675.32,274.10 675.86,274.02 676.39,273.94 676.93,273.86 677.46,273.78 678.00,273.71 678.54,273.64 679.07,273.56 679.61,273.50 680.14,273.43 680.68,273.36 681.21,273.30 681.75,273.24 682.29,273.18 682.82,273.12 683.36,273.06 683.89,273.01 684.43,272.96 684.96,272.91 685.50,272.86 686.04,272.81 686.57,272.77 687.11,272.73 687.64,272.69 688.18,272.65 688.71,272.61 689.25,272.58 689.79,272.54 690.32,272.51 690.86,272.48 691.39,272.46 691.93,272.43 692.46,272.41 693.00,272.39 693.54,272.37 694.07,272.35 694.61,272.34 695.14,272.32 695.68,272.31 696.21,272.30 696.75,272.30 697.29,272.29 697.82,272.29 698.36,272.29 698.89,272.29 699.43,272.29 699.96,272.30 700.50,272.30 701.04,272.31 701.57,272.32 702.11,272.34 702.64,272.35 703.18,272.37 703.71,272.39 704.25,272.41 704.79,272.43 705.32,272.46 705.86,272.48 706.39,272.51 706.93,272.54 707.46,272.58 708.00,272.61 708.54,272.65 709.07,272.69 709.61,272.73 710.14,272.77 710.68,272.82 711.21,272.87 711.75,272.92 712.29,272.97 712.82,273.02 713.36,273.08 713.89,273.13 714.43,273.19 714.96,273.26 715.50,273.32 716.04,273.38 716.57,273.45 717.11,273.52 717.64,273.59 718.18,273.67 718.71,273.74 719.25,273.82 719.79,273.90 720.32,273.98 720.86,274.07 721.39,274.15 721.93,274.24 722.46,274.33 723.00,274.43 723.54,274.52 724.07,274.62 724.61,274.71 725.14,274.81 725.68,274.92 726.21,275.02 726.75,275.13 727.29,275.24 727.82,275.35 728.36,275.46 728.89,275.57 729.43,275.69 729.96,275.81 730.50,275.93 731.04,276.05 731.57,276.17 732.11,276.30 732.64,276.43 733.18,276.56 733.71,276.69 734.25,276.82 734.79,276.96 735.32,277.10 735.86,277.24 736.39,277.38 736.93,277.52 737.46,277.67 738.00,277.82 738.54,277.97 739.07,278.12 739.61,278.27 740.14,278.43 740.68,278.59 741.21,278.75 741.75,278.91 742.29,279.07 742.82,279.23 743.36,279.40 743.89,279.57 744.43,279.74 744.96,279.91 745.50,280.09 746.04,280.26 746.57,280.44 747.11,280.62 747.64,280.80 748.18,280.99 748.71,281.17 749.25,281.36 749.79,281.55 750.32,281.74 750.86,281.93 751.39,282.13 751.93,282.32 752.46,282.52 753.00,282.72 753.54,282.92 754.07,283.13 754.61,283.33 755.14,283.54 755.68,283.75 756.21,283.96 756.75,284.17 757.29,284.38 757.82,284.60 758.36,284.82 758.89,285.03 759.43,285.25"/>
<line x1="828" y1="78" x2="856" y2="78" stroke="#2f6fbb" stroke-width="3"/>
<text x="864" y="82" font-family="Arial" font-size="13">left elevon</text>
<polyline fill="none" stroke="#258a45" stroke-width="2.2" points="116.57,330.71 117.11,331.13 117.64,331.55 118.18,331.96 118.71,332.38 119.25,332.80 119.79,333.21 120.32,333.63 120.86,334.05 121.39,334.46 121.93,334.88 122.46,335.29 123.00,335.70 123.54,336.12 124.07,336.53 124.61,336.94 125.14,337.35 125.68,337.76 126.21,338.17 126.75,338.58 127.29,338.99 127.82,339.40 128.36,339.80 128.89,340.21 129.43,340.62 129.96,341.02 130.50,341.42 131.04,341.83 131.57,342.23 132.11,342.63 132.64,343.03 133.18,343.43 133.71,343.83 134.25,344.23 134.79,344.63 135.32,345.02 135.86,345.42 136.39,345.81 136.93,346.20 137.46,346.60 138.00,346.99 138.54,347.38 139.07,347.77 139.61,348.15 140.14,348.54 140.68,348.93 141.21,349.31 141.75,349.70 142.29,350.08 142.82,350.46 143.36,350.84 143.89,351.22 144.43,351.59 144.96,351.97 145.50,352.35 146.04,352.72 146.57,353.09 147.11,353.46 147.64,353.83 148.18,354.20 148.71,354.57 149.25,354.93 149.79,355.30 150.32,355.66 150.86,356.02 151.39,356.38 151.93,356.74 152.46,357.10 153.00,357.45 153.54,357.81 154.07,358.16 154.61,358.51 155.14,358.86 155.68,359.21 156.21,359.56 156.75,359.90 157.29,360.25 157.82,360.59 158.36,360.93 158.89,361.27 159.43,361.60 159.96,361.94 160.50,362.27 161.04,362.60 161.57,362.93 162.11,363.26 162.64,363.59 163.18,363.91 163.71,364.23 164.25,364.56 164.79,364.87 165.32,365.19 165.86,365.51 166.39,365.82 166.93,366.13 167.46,366.44 168.00,366.75 168.54,367.06 169.07,367.36 169.61,367.67 170.14,367.97 170.68,368.26 171.21,368.56 171.75,368.86 172.29,369.15 172.82,369.44 173.36,369.73 173.89,370.01 174.43,370.30 174.96,370.58 175.50,370.86 176.04,371.14 176.57,371.42 177.11,371.69 177.64,371.96 178.18,372.23 178.71,372.50 179.25,372.77 179.79,373.03 180.32,373.29 180.86,373.55 181.39,373.81 181.93,374.06 182.46,374.31 183.00,374.56 183.54,374.81 184.07,375.06 184.61,375.30 185.14,375.54 185.68,375.78 186.21,376.02 186.75,376.25 187.29,376.49 187.82,376.72 188.36,376.94 188.89,377.17 189.43,377.39 189.96,377.61 190.50,377.83 191.04,378.04 191.57,378.26 192.11,378.47 192.64,378.68 193.18,378.88 193.71,379.09 194.25,379.29 194.79,379.49 195.32,379.68 195.86,379.88 196.39,380.07 196.93,380.26 197.46,380.44 198.00,380.63 198.54,380.81 199.07,380.99 199.61,381.16 200.14,381.34 200.68,381.51 201.21,381.67 201.75,381.84 202.29,382.00 202.82,382.16 203.36,382.32 203.89,382.48 204.43,382.63 204.96,382.78 205.50,382.93 206.04,383.08 206.57,383.22 207.11,383.36 207.64,383.50 208.18,383.63 208.71,383.76 209.25,383.89 209.79,384.02 210.32,384.14 210.86,384.26 211.39,384.38 211.93,384.50 212.46,384.61 213.00,384.72 213.54,384.83 214.07,384.94 214.61,385.04 215.14,385.14 215.68,385.24 216.21,385.33 216.75,385.42 217.29,385.51 217.82,385.60 218.36,385.68 218.89,385.76 219.43,385.84 219.96,385.91 220.50,385.99 221.04,386.06 221.57,386.12 222.11,386.19 222.64,386.25 223.18,386.31 223.71,386.36 224.25,386.42 224.79,386.47 225.32,386.51 225.86,386.56 226.39,386.60 226.93,386.64 227.46,386.68 228.00,386.71 228.54,386.74 229.07,386.77 229.61,386.79 230.14,386.82 230.68,386.84 231.21,386.85 231.75,386.87 232.29,386.88 232.82,386.89 233.36,386.89 233.89,386.89 234.43,386.89 234.96,386.89 235.50,386.89 236.04,386.88 236.57,386.87 237.11,386.85 237.64,386.83 238.18,386.81 238.71,386.79 239.25,386.77 239.79,386.74 240.32,386.71 240.86,386.67 241.39,386.64 241.93,386.60 242.46,386.55 243.00,386.51 243.54,386.46 244.07,386.41 244.61,386.36 245.14,386.30 245.68,386.24 246.21,386.18 246.75,386.12 247.29,386.05 247.82,385.98 248.36,385.91 248.89,385.83 249.43,385.75 249.96,385.67 250.50,385.59 251.04,385.50 251.57,385.41 252.11,385.32 252.64,385.22 253.18,385.12 253.71,385.02 254.25,384.92 254.79,384.81 255.32,384.70 255.86,384.59 256.39,384.48 256.93,384.36 257.46,384.24 258.00,384.12 258.54,383.99 259.07,383.86 259.61,383.73 260.14,383.60 260.68,383.46 261.21,383.32 261.75,383.18 262.29,383.04 262.82,382.89 263.36,382.74 263.89,382.59 264.43,382.43 264.96,382.28 265.50,382.12 266.04,381.95 266.57,381.79 267.11,381.62 267.64,381.45 268.18,381.28 268.71,381.10 269.25,380.92 269.79,380.74 270.32,380.56 270.86,380.37 271.39,380.18 271.93,379.99 272.46,379.80 273.00,379.60 273.54,379.40 274.07,379.20 274.61,378.99 275.14,378.79 275.68,378.58 276.21,378.37 276.75,378.15 277.29,377.94 277.82,377.72 278.36,377.49 278.89,377.27 279.43,377.04 279.96,376.81 280.50,376.58 281.04,376.35 281.57,376.11 282.11,375.87 282.64,375.63 283.18,375.39 283.71,375.14 284.25,374.90 284.79,374.65 285.32,374.39 285.86,374.14 286.39,373.88 286.93,373.62 287.46,373.36 288.00,373.09 288.54,372.83 289.07,372.56 289.61,372.29 290.14,372.01 290.68,371.74 291.21,371.46 291.75,371.18 292.29,370.90 292.82,370.61 293.36,370.33 293.89,370.04 294.43,369.75 294.96,369.45 295.50,369.16 296.04,368.86 296.57,368.56 297.11,368.26 297.64,367.95 298.18,367.65 298.71,367.34 299.25,367.03 299.79,366.72 300.32,366.40 300.86,366.09 301.39,365.77 301.93,365.45 302.46,365.13 303.00,364.80 303.54,364.48 304.07,364.15 304.61,363.82 305.14,363.49 305.68,363.16 306.21,362.82 306.75,362.48 307.29,362.14 307.82,361.80 308.36,361.46 308.89,361.12 309.43,360.77 309.96,360.42 310.50,360.07 311.04,359.72 311.57,359.37 312.11,359.01 312.64,358.65 313.18,358.30 313.71,357.94 314.25,357.57 314.79,357.21 315.32,356.84 315.86,356.48 316.39,356.11 316.93,355.74 317.46,355.37 318.00,354.99 318.54,354.62 319.07,354.24 319.61,353.87 320.14,353.49 320.68,353.11 321.21,352.72 321.75,352.34 322.29,351.96 322.82,351.57 323.36,351.18 323.89,350.79 324.43,350.40 324.96,350.01 325.50,349.62 326.04,349.22 326.57,348.83 327.11,348.43 327.64,348.03 328.18,347.63 328.71,347.23 329.25,346.83 329.79,346.42 330.32,346.02 330.86,345.61 331.39,345.21 331.93,344.80 332.46,344.39 333.00,343.98 333.54,343.57 334.07,343.16 334.61,342.74 335.14,342.33 335.68,341.91 336.21,341.50 336.75,341.08 337.29,340.66 337.82,340.24 338.36,339.82 338.89,339.40 339.43,338.98 339.96,338.55 340.50,338.13 341.04,337.70 341.57,337.28 342.11,336.85 342.64,336.43 343.18,336.00 343.71,335.57 344.25,335.14 344.79,334.71 345.32,334.28 345.86,333.85 346.39,333.41 346.93,332.98 347.46,332.55 348.00,332.11 348.54,331.68 349.07,331.24 349.61,330.81 350.14,330.37 350.68,329.93 351.21,329.50 351.75,329.06 352.29,328.62 352.82,328.18 353.36,327.74 353.89,327.30 354.43,326.86 354.96,326.42 355.50,325.98 356.04,325.54 356.57,325.10 357.11,324.65 357.64,324.21 358.18,323.77 358.71,323.33 359.25,322.88 359.79,322.44 360.32,322.00 360.86,321.55 361.39,321.11 361.93,320.67 362.46,320.22 363.00,319.78 363.54,319.33 364.07,318.89 364.61,318.44 365.14,318.00 365.68,317.56 366.21,317.11 366.75,316.67 367.29,316.22 367.82,315.78 368.36,315.33 368.89,314.89 369.43,314.45 369.96,314.00 370.50,313.56 371.04,313.12 371.57,312.67 372.11,312.23 372.64,311.79 373.18,311.34 373.71,310.90 374.25,310.46 374.79,310.02 375.32,309.57 375.86,309.13 376.39,308.69 376.93,308.25 377.46,307.81 378.00,307.37 378.54,306.93 379.07,306.49 379.61,306.06 380.14,305.62 380.68,305.18 381.21,304.74 381.75,304.31 382.29,303.87 382.82,303.44 383.36,303.00 383.89,302.57 384.43,302.13 384.96,301.70 385.50,301.27 386.04,300.84 386.57,300.41 387.11,299.98 387.64,299.55 388.18,299.12 388.71,298.69 389.25,298.26 389.79,297.84 390.32,297.41 390.86,296.99 391.39,296.56 391.93,296.14 392.46,295.72 393.00,295.30 393.54,294.88 394.07,294.46 394.61,294.04 395.14,293.62 395.68,293.21 396.21,292.79 396.75,292.38 397.29,291.96 397.82,291.55 398.36,291.14 398.89,290.73 399.43,290.32 399.96,289.91 400.50,289.51 401.04,289.10 401.57,288.70 402.11,288.29 402.64,287.89 403.18,287.49 403.71,287.09 404.25,286.69 404.79,286.30 405.32,285.90 405.86,285.51 406.39,285.11 406.93,284.72 407.46,284.33 408.00,283.94 408.54,283.56 409.07,283.17 409.61,282.79 410.14,282.40 410.68,282.02 411.21,281.64 411.75,281.26 412.29,280.88 412.82,280.51 413.36,280.13 413.89,279.76 414.43,279.39 414.96,279.02 415.50,278.65 416.04,278.29 416.57,277.92 417.11,277.56 417.64,277.20 418.18,276.84 418.71,276.48 419.25,276.12 419.79,275.77 420.32,275.41 420.86,275.06 421.39,274.71 421.93,274.37 422.46,274.02 423.00,273.68 423.54,273.33 424.07,272.99 424.61,272.65 425.14,272.32 425.68,271.98 426.21,271.65 426.75,271.32 427.29,270.99 427.82,270.66 428.36,270.34 428.89,270.01 429.43,269.69 429.96,269.37 430.50,269.05 431.04,268.74 431.57,268.43 432.11,268.11 432.64,267.80 433.18,267.50 433.71,267.19 434.25,266.89 434.79,266.59 435.32,266.29 435.86,265.99 436.39,265.70 436.93,265.40 437.46,265.11 438.00,264.82 438.54,264.54 439.07,264.25 439.61,263.97 440.14,263.69 440.68,263.42 441.21,263.14 441.75,262.87 442.29,262.60 442.82,262.33 443.36,262.06 443.89,261.80 444.43,261.54 444.96,261.28 445.50,261.02 446.04,260.77 446.57,260.51 447.11,260.26 447.64,260.02 448.18,259.77 448.71,259.53 449.25,259.29 449.79,259.05 450.32,258.81 450.86,258.58 451.39,258.35 451.93,258.12 452.46,257.90 453.00,257.67 453.54,257.45 454.07,257.23 454.61,257.02 455.14,256.80 455.68,256.59 456.21,256.38 456.75,256.18 457.29,255.97 457.82,255.77 458.36,255.57 458.89,255.38 459.43,255.18 459.96,254.99 460.50,254.81 461.04,254.62 461.57,254.44 462.11,254.26 462.64,254.08 463.18,253.90 463.71,253.73 464.25,253.56 464.79,253.39 465.32,253.23 465.86,253.07 466.39,252.91 466.93,252.75 467.46,252.60 468.00,252.44 468.54,252.30 469.07,252.15 469.61,252.01 470.14,251.86 470.68,251.73 471.21,251.59 471.75,251.46 472.29,251.33 472.82,251.20 473.36,251.08 473.89,250.95 474.43,250.84 474.96,250.72 475.50,250.61 476.04,250.49 476.57,250.39 477.11,250.28 477.64,250.18 478.18,250.08 478.71,249.98 479.25,249.89 479.79,249.80 480.32,249.71 480.86,249.62 481.39,249.54 481.93,249.46 482.46,249.38 483.00,249.30 483.54,249.23 484.07,249.16 484.61,249.10 485.14,249.03 485.68,248.97 486.21,248.91 486.75,248.86 487.29,248.81 487.82,248.76 488.36,248.71 488.89,248.66 489.43,248.62 489.96,248.58 490.50,248.55 491.04,248.52 491.57,248.49 492.11,248.46 492.64,248.43 493.18,248.41 493.71,248.39 494.25,248.38 494.79,248.36 495.32,248.35 495.86,248.35 496.39,248.34 496.93,248.34 497.46,248.34 498.00,248.34 498.54,248.35 499.07,248.36 499.61,248.37 500.14,248.39 500.68,248.41 501.21,248.43 501.75,248.45 502.29,248.48 502.82,248.51 503.36,248.54 503.89,248.57 504.43,248.61 504.96,248.65 505.50,248.69 506.04,248.74 506.57,248.79 507.11,248.84 507.64,248.89 508.18,248.95 508.71,249.01 509.25,249.07 509.79,249.14 510.32,249.21 510.86,249.28 511.39,249.35 511.93,249.43 512.46,249.51 513.00,249.59 513.54,249.67 514.07,249.76 514.61,249.85 515.14,249.94 515.68,250.04 516.21,250.14 516.75,250.24 517.29,250.34 517.82,250.45 518.36,250.56 518.89,250.67 519.43,250.78 519.96,250.90 520.50,251.02 521.04,251.15 521.57,251.27 522.11,251.40 522.64,251.53 523.18,251.66 523.71,251.80 524.25,251.94 524.79,252.08 525.32,252.22 525.86,252.37 526.39,252.52 526.93,252.67 527.46,252.83 528.00,252.98 528.54,253.14 529.07,253.31 529.61,253.47 530.14,253.64 530.68,253.81 531.21,253.98 531.75,254.16 532.29,254.33 532.82,254.51 533.36,254.70 533.89,254.88 534.43,255.07 534.96,255.26 535.50,255.45 536.04,255.65 536.57,255.85 537.11,256.05 537.64,256.25 538.18,256.45 538.71,256.66 539.25,256.87 539.79,257.08 540.32,257.30 540.86,257.52 541.39,257.74 541.93,257.96 542.46,258.18 543.00,258.41 543.54,258.64 544.07,258.87 544.61,259.10 545.14,259.34 545.68,259.58 546.21,259.82 546.75,260.06 547.29,260.31 547.82,260.56 548.36,260.81 548.89,261.06 549.43,261.31 549.96,261.57 550.50,261.83 551.04,262.09 551.57,262.35 552.11,262.62 552.64,262.89 553.18,263.16 553.71,263.43 554.25,263.70 554.79,263.98 555.32,264.26 555.86,264.54 556.39,264.82 556.93,265.10 557.46,265.39 558.00,265.68 558.54,265.97 559.07,266.26 559.61,266.56 560.14,266.86 560.68,267.15 561.21,267.46 561.75,267.76 562.29,268.06 562.82,268.37 563.36,268.68 563.89,268.99 564.43,269.30 564.96,269.62 565.50,269.93 566.04,270.25 566.57,270.57 567.11,270.89 567.64,271.22 568.18,271.54 568.71,271.87 569.25,272.20 569.79,272.53 570.32,272.86 570.86,273.19 571.39,273.53 571.93,273.87 572.46,274.21 573.00,274.55 573.54,274.89 574.07,275.24 574.61,275.58 575.14,275.93 575.68,276.28 576.21,276.63 576.75,276.98 577.29,277.34 577.82,277.69 578.36,278.05 578.89,278.41 579.43,278.77 579.96,279.13 580.50,279.49 581.04,279.86 581.57,280.22 582.11,280.59 582.64,280.96 583.18,281.33 583.71,281.70 584.25,282.07 584.79,282.45 585.32,282.82 585.86,283.20 586.39,283.58 586.93,283.96 587.46,284.34 588.00,284.72 588.54,285.10 589.07,285.49 589.61,285.87 590.14,286.26 590.68,286.65 591.21,287.04 591.75,287.43 592.29,287.82 592.82,288.21 593.36,288.61 593.89,289.00 594.43,289.40 594.96,289.79 595.50,290.19 596.04,290.59 596.57,290.99 597.11,291.39 597.64,291.79 598.18,292.19 598.71,292.60 599.25,293.00 599.79,293.41 600.32,293.81 600.86,294.22 601.39,294.63 601.93,295.04 602.46,295.45 603.00,295.86 603.54,296.27 604.07,296.68 604.61,297.09 605.14,297.51 605.68,297.92 606.21,298.33 606.75,298.75 607.29,299.17 607.82,299.58 608.36,300.00 608.89,300.42 609.43,300.84 609.96,301.25 610.50,301.67 611.04,302.09 611.57,302.51 612.11,302.94 612.64,303.36 613.18,303.78 613.71,304.20 614.25,304.62 614.79,305.05 615.32,305.47 615.86,305.89 616.39,306.32 616.93,306.74 617.46,307.17 618.00,307.59 618.54,308.02 619.07,308.44 619.61,308.87 620.14,309.30 620.68,309.72 621.21,310.15 621.75,310.58 622.29,311.00 622.82,311.43 623.36,311.86 623.89,312.28 624.43,312.71 624.96,313.14 625.50,313.57 626.04,313.99 626.57,314.42 627.11,314.85 627.64,315.28 628.18,315.70 628.71,316.13 629.25,316.56 629.79,316.99 630.32,317.41 630.86,317.84 631.39,318.27 631.93,318.69 632.46,319.12 633.00,319.55 633.54,319.97 634.07,320.40 634.61,320.82 635.14,321.25 635.68,321.67 636.21,322.10 636.75,322.52 637.29,322.95 637.82,323.37 638.36,323.79 638.89,324.22 639.43,324.64 639.96,325.06 640.50,325.48 641.04,325.90 641.57,326.33 642.11,326.75 642.64,327.17 643.18,327.58 643.71,328.00 644.25,328.42 644.79,328.84 645.32,329.26 645.86,329.67 646.39,330.09 646.93,330.50 647.46,330.92 648.00,331.33 648.54,331.74 649.07,332.16 649.61,332.57 650.14,332.98 650.68,333.39 651.21,333.80 651.75,334.21 652.29,334.61 652.82,335.02 653.36,335.43 653.89,335.83 654.43,336.24 654.96,336.64 655.50,337.04 656.04,337.44 656.57,337.84 657.11,338.24 657.64,338.64 658.18,339.04 658.71,339.44 659.25,339.83 659.79,340.23 660.32,340.62 660.86,341.01 661.39,341.40 661.93,341.79 662.46,342.18 663.00,342.57 663.54,342.96 664.07,343.34 664.61,343.73 665.14,344.11 665.68,344.49 666.21,344.87 666.75,345.25 667.29,345.63 667.82,346.01 668.36,346.39 668.89,346.76 669.43,347.13 669.96,347.50 670.50,347.88 671.04,348.24 671.57,348.61 672.11,348.98 672.64,349.34 673.18,349.71 673.71,350.07 674.25,350.43 674.79,350.79 675.32,351.15 675.86,351.50 676.39,351.86 676.93,352.21 677.46,352.56 678.00,352.91 678.54,353.26 679.07,353.61 679.61,353.95 680.14,354.30 680.68,354.64 681.21,354.98 681.75,355.32 682.29,355.66 682.82,355.99 683.36,356.33 683.89,356.66 684.43,356.99 684.96,357.32 685.50,357.64 686.04,357.97 686.57,358.29 687.11,358.61 687.64,358.93 688.18,359.25 688.71,359.57 689.25,359.88 689.79,360.20 690.32,360.51 690.86,360.82 691.39,361.12 691.93,361.43 692.46,361.73 693.00,362.03 693.54,362.33 694.07,362.63 694.61,362.93 695.14,363.22 695.68,363.51 696.21,363.80 696.75,364.09 697.29,364.37 697.82,364.66 698.36,364.94 698.89,365.22 699.43,365.50 699.96,365.77 700.50,366.05 701.04,366.32 701.57,366.59 702.11,366.86 702.64,367.12 703.18,367.38 703.71,367.65 704.25,367.90 704.79,368.16 705.32,368.42 705.86,368.67 706.39,368.92 706.93,369.17 707.46,369.41 708.00,369.66 708.54,369.90 709.07,370.14 709.61,370.38 710.14,370.61 710.68,370.84 711.21,371.07 711.75,371.30 712.29,371.53 712.82,371.75 713.36,371.97 713.89,372.19 714.43,372.41 714.96,372.62 715.50,372.84 716.04,373.05 716.57,373.25 717.11,373.46 717.64,373.66 718.18,373.86 718.71,374.06 719.25,374.26 719.79,374.45 720.32,374.64 720.86,374.83 721.39,375.02 721.93,375.20 722.46,375.38 723.00,375.56 723.54,375.74 724.07,375.91 724.61,376.08 725.14,376.25 725.68,376.42 726.21,376.58 726.75,376.75 727.29,376.91 727.82,377.06 728.36,377.22 728.89,377.37 729.43,377.52 729.96,377.67 730.50,377.81 731.04,377.95 731.57,378.09 732.11,378.23 732.64,378.37 733.18,378.50 733.71,378.63 734.25,378.76 734.79,378.88 735.32,379.00 735.86,379.12 736.39,379.24 736.93,379.36 737.46,379.47 738.00,379.58 738.54,379.68 739.07,379.79 739.61,379.89 740.14,379.99 740.68,380.09 741.21,380.18 741.75,380.27 742.29,380.36 742.82,380.45 743.36,380.53 743.89,380.62 744.43,380.69 744.96,380.77 745.50,380.84 746.04,380.92 746.57,380.98 747.11,381.05 747.64,381.11 748.18,381.18 748.71,381.23 749.25,381.29 749.79,381.34 750.32,381.39 750.86,381.44 751.39,381.49 751.93,381.53 752.46,381.57 753.00,381.61 753.54,381.64 754.07,381.68 754.61,381.71 755.14,381.73 755.68,381.76 756.21,381.78 756.75,381.80 757.29,381.82 757.82,381.83 758.36,381.84 758.89,381.85 759.43,381.86"/>
<line x1="828" y1="102" x2="856" y2="102" stroke="#258a45" stroke-width="3"/>
<text x="864" y="106" font-family="Arial" font-size="13">right elevon</text>
<polyline fill="none" stroke="#8a4fbf" stroke-width="2.2" points="116.57,338.90 117.11,338.53 117.64,338.17 118.18,337.80 118.71,337.43 119.25,337.06 119.79,336.69 120.32,336.33 120.86,335.96 121.39,335.59 121.93,335.22 122.46,334.85 123.00,334.48 123.54,334.10 124.07,333.73 124.61,333.36 125.14,332.99 125.68,332.62 126.21,332.24 126.75,331.87 127.29,331.50 127.82,331.12 128.36,330.75 128.89,330.38 129.43,330.00 129.96,329.63 130.50,329.25 131.04,328.88 131.57,328.50 132.11,328.13 132.64,327.75 133.18,327.37 133.71,327.00 134.25,326.62 134.79,326.24 135.32,325.87 135.86,325.49 136.39,325.11 136.93,324.74 137.46,324.36 138.00,323.98 138.54,323.60 139.07,323.22 139.61,322.85 140.14,322.47 140.68,322.09 141.21,321.71 141.75,321.33 142.29,320.95 142.82,320.57 143.36,320.20 143.89,319.82 144.43,319.44 144.96,319.06 145.50,318.68 146.04,318.30 146.57,317.92 147.11,317.54 147.64,317.16 148.18,316.78 148.71,316.40 149.25,316.02 149.79,315.64 150.32,315.26 150.86,314.88 151.39,314.50 151.93,314.13 152.46,313.75 153.00,313.37 153.54,312.99 154.07,312.61 154.61,312.23 155.14,311.85 155.68,311.47 156.21,311.09 156.75,310.71 157.29,310.33 157.82,309.95 158.36,309.58 158.89,309.20 159.43,308.82 159.96,308.44 160.50,308.06 161.04,307.69 161.57,307.31 162.11,306.93 162.64,306.55 163.18,306.18 163.71,305.80 164.25,305.42 164.79,305.04 165.32,304.67 165.86,304.29 166.39,303.92 166.93,303.54 167.46,303.16 168.00,302.79 168.54,302.41 169.07,302.04 169.61,301.66 170.14,301.29 170.68,300.92 171.21,300.54 171.75,300.17 172.29,299.79 172.82,299.42 173.36,299.05 173.89,298.68 174.43,298.30 174.96,297.93 175.50,297.56 176.04,297.19 176.57,296.82 177.11,296.45 177.64,296.08 178.18,295.71 178.71,295.34 179.25,294.97 179.79,294.60 180.32,294.24 180.86,293.87 181.39,293.50 181.93,293.13 182.46,292.77 183.00,292.40 183.54,292.04 184.07,291.67 184.61,291.31 185.14,290.94 185.68,290.58 186.21,290.22 186.75,289.85 187.29,289.49 187.82,289.13 188.36,288.77 188.89,288.41 189.43,288.05 189.96,287.69 190.50,287.33 191.04,286.97 191.57,286.61 192.11,286.25 192.64,285.90 193.18,285.54 193.71,285.18 194.25,284.83 194.79,284.47 195.32,284.12 195.86,283.77 196.39,283.41 196.93,283.06 197.46,282.71 198.00,282.36 198.54,282.01 199.07,281.66 199.61,281.31 200.14,280.96 200.68,280.61 201.21,280.27 201.75,279.92 202.29,279.58 202.82,279.23 203.36,278.89 203.89,278.54 204.43,278.20 204.96,277.86 205.50,277.52 206.04,277.18 206.57,276.84 207.11,276.50 207.64,276.16 208.18,275.82 208.71,275.48 209.25,275.15 209.79,274.81 210.32,274.48 210.86,274.14 211.39,273.81 211.93,273.48 212.46,273.15 213.00,272.82 213.54,272.49 214.07,272.16 214.61,271.83 215.14,271.50 215.68,271.17 216.21,270.85 216.75,270.52 217.29,270.20 217.82,269.88 218.36,269.56 218.89,269.23 219.43,268.91 219.96,268.59 220.50,268.28 221.04,267.96 221.57,267.64 222.11,267.33 222.64,267.01 223.18,266.70 223.71,266.38 224.25,266.07 224.79,265.76 225.32,265.45 225.86,265.14 226.39,264.83 226.93,264.53 227.46,264.22 228.00,263.92 228.54,263.61 229.07,263.31 229.61,263.01 230.14,262.71 230.68,262.41 231.21,262.11 231.75,261.81 232.29,261.51 232.82,261.22 233.36,260.92 233.89,260.63 234.43,260.34 234.96,260.04 235.50,259.75 236.04,259.46 236.57,259.18 237.11,258.89 237.64,258.60 238.18,258.32 238.71,258.03 239.25,257.75 239.79,257.47 240.32,257.19 240.86,256.91 241.39,256.63 241.93,256.35 242.46,256.08 243.00,255.80 243.54,255.53 244.07,255.26 244.61,254.99 245.14,254.72 245.68,254.45 246.21,254.18 246.75,253.91 247.29,253.65 247.82,253.38 248.36,253.12 248.89,252.86 249.43,252.60 249.96,252.34 250.50,252.08 251.04,251.83 251.57,251.57 252.11,251.32 252.64,251.07 253.18,250.81 253.71,250.56 254.25,250.32 254.79,250.07 255.32,249.82 255.86,249.58 256.39,249.33 256.93,249.09 257.46,248.85 258.00,248.61 258.54,248.37 259.07,248.13 259.61,247.90 260.14,247.66 260.68,247.43 261.21,247.20 261.75,246.97 262.29,246.74 262.82,246.51 263.36,246.29 263.89,246.06 264.43,245.84 264.96,245.62 265.50,245.40 266.04,245.18 266.57,244.96 267.11,244.74 267.64,244.53 268.18,244.31 268.71,244.10 269.25,243.89 269.79,243.68 270.32,243.47 270.86,243.27 271.39,243.06 271.93,242.86 272.46,242.66 273.00,242.46 273.54,242.26 274.07,242.06 274.61,241.86 275.14,241.67 275.68,241.48 276.21,241.28 276.75,241.09 277.29,240.90 277.82,240.72 278.36,240.53 278.89,240.35 279.43,240.17 279.96,239.98 280.50,239.80 281.04,239.63 281.57,239.45 282.11,239.27 282.64,239.10 283.18,238.93 283.71,238.76 284.25,238.59 284.79,238.42 285.32,238.26 285.86,238.09 286.39,237.93 286.93,237.77 287.46,237.61 288.00,237.45 288.54,237.30 289.07,237.14 289.61,236.99 290.14,236.84 290.68,236.69 291.21,236.54 291.75,236.39 292.29,236.25 292.82,236.10 293.36,235.96 293.89,235.82 294.43,235.68 294.96,235.55 295.50,235.41 296.04,235.28 296.57,235.15 297.11,235.02 297.64,234.89 298.18,234.76 298.71,234.64 299.25,234.51 299.79,234.39 300.32,234.27 300.86,234.15 301.39,234.03 301.93,233.92 302.46,233.80 303.00,233.69 303.54,233.58 304.07,233.47 304.61,233.37 305.14,233.26 305.68,233.16 306.21,233.06 306.75,232.96 307.29,232.86 307.82,232.76 308.36,232.67 308.89,232.57 309.43,232.48 309.96,232.39 310.50,232.30 311.04,232.22 311.57,232.13 312.11,232.05 312.64,231.97 313.18,231.89 313.71,231.81 314.25,231.74 314.79,231.66 315.32,231.59 315.86,231.52 316.39,231.45 316.93,231.38 317.46,231.32 318.00,231.25 318.54,231.19 319.07,231.13 319.61,231.07 320.14,231.02 320.68,230.96 321.21,230.91 321.75,230.86 322.29,230.81 322.82,230.76 323.36,230.71 323.89,230.67 324.43,230.63 324.96,230.59 325.50,230.55 326.04,230.51 326.57,230.48 327.11,230.44 327.64,230.41 328.18,230.38 328.71,230.35 329.25,230.33 329.79,230.30 330.32,230.28 330.86,230.26 331.39,230.24 331.93,230.22 332.46,230.21 333.00,230.19 333.54,230.18 334.07,230.17 334.61,230.16 335.14,230.16 335.68,230.15 336.21,230.15 336.75,230.15 337.29,230.15 337.82,230.15 338.36,230.16 338.89,230.16 339.43,230.17 339.96,230.18 340.50,230.19 341.04,230.21 341.57,230.22 342.11,230.24 342.64,230.26 343.18,230.28 343.71,230.30 344.25,230.33 344.79,230.35 345.32,230.38 345.86,230.41 346.39,230.44 346.93,230.48 347.46,230.51 348.00,230.55 348.54,230.59 349.07,230.63 349.61,230.67 350.14,230.72 350.68,230.76 351.21,230.81 351.75,230.86 352.29,230.91 352.82,230.97 353.36,231.02 353.89,231.08 354.43,231.14 354.96,231.20 355.50,231.27 356.04,231.33 356.57,231.40 357.11,231.47 357.64,231.54 358.18,231.61 358.71,231.68 359.25,231.76 359.79,231.84 360.32,231.92 360.86,232.00 361.39,232.08 361.93,232.16 362.46,232.25 363.00,232.34 363.54,232.43 364.07,232.52 364.61,232.62 365.14,232.71 365.68,232.81 366.21,232.91 366.75,233.01 367.29,233.11 367.82,233.22 368.36,233.33 368.89,233.43 369.43,233.54 369.96,233.66 370.50,233.77 371.04,233.89 371.57,234.00 372.11,234.12 372.64,234.25 373.18,234.37 373.71,234.49 374.25,234.62 374.79,234.75 375.32,234.88 375.86,235.01 376.39,235.14 376.93,235.28 377.46,235.42 378.00,235.56 378.54,235.70 379.07,235.84 379.61,235.98 380.14,236.13 380.68,236.28 381.21,236.43 381.75,236.58 382.29,236.73 382.82,236.89 383.36,237.05 383.89,237.20 384.43,237.37 384.96,237.53 385.50,237.69 386.04,237.86 386.57,238.02 387.11,238.19 387.64,238.36 388.18,238.54 388.71,238.71 389.25,238.89 389.79,239.07 390.32,239.25 390.86,239.43 391.39,239.61 391.93,239.79 392.46,239.98 393.00,240.17 393.54,240.36 394.07,240.55 394.61,240.74 395.14,240.94 395.68,241.14 396.21,241.33 396.75,241.53 397.29,241.74 397.82,241.94 398.36,242.15 398.89,242.35 399.43,242.56 399.96,242.77 400.50,242.98 401.04,243.20 401.57,243.41 402.11,243.63 402.64,243.85 403.18,244.07 403.71,244.29 404.25,244.51 404.79,244.74 405.32,244.96 405.86,245.19 406.39,245.42 406.93,245.66 407.46,245.89 408.00,246.12 408.54,246.36 409.07,246.60 409.61,246.84 410.14,247.08 410.68,247.32 411.21,247.57 411.75,247.81 412.29,248.06 412.82,248.31 413.36,248.56 413.89,248.81 414.43,249.07 414.96,249.32 415.50,249.58 416.04,249.84 416.57,250.10 417.11,250.36 417.64,250.62 418.18,250.89 418.71,251.16 419.25,251.42 419.79,251.69 420.32,251.96 420.86,252.24 421.39,252.51 421.93,252.79 422.46,253.06 423.00,253.34 423.54,253.62 424.07,253.90 424.61,254.19 425.14,254.47 425.68,254.76 426.21,255.04 426.75,255.33 427.29,255.62 427.82,255.91 428.36,256.21 428.89,256.50 429.43,256.80 429.96,257.09 430.50,257.39 431.04,257.69 431.57,257.99 432.11,258.30 432.64,258.60 433.18,258.91 433.71,259.21 434.25,259.52 434.79,259.83 435.32,260.14 435.86,260.46 436.39,260.77 436.93,261.09 437.46,261.40 438.00,261.72 438.54,262.04 439.07,262.36 439.61,262.68 440.14,263.00 440.68,263.33 441.21,263.66 441.75,263.98 442.29,264.31 442.82,264.64 443.36,264.97 443.89,265.30 444.43,265.64 444.96,265.97 445.50,266.31 446.04,266.64 446.57,266.98 447.11,267.32 447.64,267.66 448.18,268.00 448.71,268.35 449.25,268.69 449.79,269.04 450.32,269.38 450.86,269.73 451.39,270.08 451.93,270.43 452.46,270.78 453.00,271.14 453.54,271.49 454.07,271.84 454.61,272.20 455.14,272.56 455.68,272.92 456.21,273.28 456.75,273.64 457.29,274.00 457.82,274.36 458.36,274.72 458.89,275.09 459.43,275.45 459.96,275.82 460.50,276.19 461.04,276.56 461.57,276.93 462.11,277.30 462.64,277.67 463.18,278.04 463.71,278.42 464.25,278.79 464.79,279.17 465.32,279.54 465.86,279.92 466.39,280.30 466.93,280.68 467.46,281.06 468.00,281.44 468.54,281.83 469.07,282.21 469.61,282.59 470.14,282.98 470.68,283.37 471.21,283.75 471.75,284.14 472.29,284.53 472.82,284.92 473.36,285.31 473.89,285.70 474.43,286.09 474.96,286.49 475.50,286.88 476.04,287.28 476.57,287.67 477.11,288.07 477.64,288.47 478.18,288.86 478.71,289.26 479.25,289.66 479.79,290.06 480.32,290.46 480.86,290.87 481.39,291.27 481.93,291.67 482.46,292.08 483.00,292.48 483.54,292.89 484.07,293.29 484.61,293.70 485.14,294.11 485.68,294.51 486.21,294.92 486.75,295.33 487.29,295.74 487.82,296.15 488.36,296.56 488.89,296.98 489.43,297.39 489.96,297.80 490.50,298.21 491.04,298.63 491.57,299.04 492.11,299.46 492.64,299.87 493.18,300.29 493.71,300.71 494.25,301.13 494.79,301.54 495.32,301.96 495.86,302.38 496.39,302.80 496.93,303.22 497.46,303.64 498.00,304.06 498.54,304.48 499.07,304.91 499.61,305.33 500.14,305.75 500.68,306.17 501.21,306.60 501.75,307.02 502.29,307.45 502.82,307.87 503.36,308.30 503.89,308.72 504.43,309.15 504.96,309.57 505.50,310.00 506.04,310.43 506.57,310.85 507.11,311.28 507.64,311.71 508.18,312.14 508.71,312.56 509.25,312.99 509.79,313.42 510.32,313.85 510.86,314.28 511.39,314.71 511.93,315.14 512.46,315.57 513.00,316.00 513.54,316.43 514.07,316.86 514.61,317.29 515.14,317.72 515.68,318.15 516.21,318.58 516.75,319.01 517.29,319.44 517.82,319.88 518.36,320.31 518.89,320.74 519.43,321.17 519.96,321.60 520.50,322.03 521.04,322.47 521.57,322.90 522.11,323.33 522.64,323.76 523.18,324.19 523.71,324.63 524.25,325.06 524.79,325.49 525.32,325.92 525.86,326.35 526.39,326.79 526.93,327.22 527.46,327.65 528.00,328.08 528.54,328.51 529.07,328.94 529.61,329.38 530.14,329.81 530.68,330.24 531.21,330.67 531.75,331.10 532.29,331.53 532.82,331.96 533.36,332.39 533.89,332.82 534.43,333.25 534.96,333.68 535.50,334.11 536.04,334.54 536.57,334.97 537.11,335.40 537.64,335.83 538.18,336.26 538.71,336.69 539.25,337.11 539.79,337.54 540.32,337.97 540.86,338.40 541.39,338.82 541.93,339.25 542.46,339.68 543.00,340.10 543.54,340.53 544.07,340.95 544.61,341.38 545.14,341.80 545.68,342.23 546.21,342.65 546.75,343.07 547.29,343.50 547.82,343.92 548.36,344.34 548.89,344.76 549.43,345.18 549.96,345.60 550.50,346.02 551.04,346.44 551.57,346.86 552.11,347.28 552.64,347.70 553.18,348.11 553.71,348.53 554.25,348.95 554.79,349.36 555.32,349.78 555.86,350.19 556.39,350.61 556.93,351.02 557.46,351.43 558.00,351.85 558.54,352.26 559.07,352.67 559.61,353.08 560.14,353.49 560.68,353.90 561.21,354.31 561.75,354.71 562.29,355.12 562.82,355.53 563.36,355.93 563.89,356.34 564.43,356.74 564.96,357.14 565.50,357.55 566.04,357.95 566.57,358.35 567.11,358.75 567.64,359.15 568.18,359.55 568.71,359.95 569.25,360.34 569.79,360.74 570.32,361.13 570.86,361.53 571.39,361.92 571.93,362.32 572.46,362.71 573.00,363.10 573.54,363.49 574.07,363.88 574.61,364.27 575.14,364.65 575.68,365.04 576.21,365.43 576.75,365.81 577.29,366.19 577.82,366.58 578.36,366.96 578.89,367.34 579.43,367.72 579.96,368.10 580.50,368.48 581.04,368.85 581.57,369.23 582.11,369.60 582.64,369.98 583.18,370.35 583.71,370.72 584.25,371.09 584.79,371.46 585.32,371.83 585.86,372.20 586.39,372.56 586.93,372.93 587.46,373.29 588.00,373.65 588.54,374.02 589.07,374.38 589.61,374.74 590.14,375.09 590.68,375.45 591.21,375.81 591.75,376.16 592.29,376.51 592.82,376.87 593.36,377.22 593.89,377.57 594.43,377.92 594.96,378.26 595.50,378.61 596.04,378.95 596.57,379.30 597.11,379.64 597.64,379.98 598.18,380.32 598.71,380.66 599.25,380.99 599.79,381.33 600.32,381.66 600.86,382.00 601.39,382.33 601.93,382.66 602.46,382.99 603.00,383.31 603.54,383.64 604.07,383.97 604.61,384.29 605.14,384.61 605.68,384.93 606.21,385.25 606.75,385.57 607.29,385.88 607.82,386.20 608.36,386.51 608.89,386.82 609.43,387.13 609.96,387.44 610.50,387.75 611.04,388.06 611.57,388.36 612.11,388.66 612.64,388.97 613.18,389.27 613.71,389.56 614.25,389.86 614.79,390.16 615.32,390.45 615.86,390.74 616.39,391.03 616.93,391.32 617.46,391.61 618.00,391.90 618.54,392.18 619.07,392.46 619.61,392.74 620.14,393.02 620.68,393.30 621.21,393.58 621.75,393.85 622.29,394.13 622.82,394.40 623.36,394.67 623.89,394.94 624.43,395.20 624.96,395.47 625.50,395.73 626.04,395.99 626.57,396.25 627.11,396.51 627.64,396.76 628.18,397.02 628.71,397.27 629.25,397.52 629.79,397.77 630.32,398.02 630.86,398.27 631.39,398.51 631.93,398.75 632.46,398.99 633.00,399.23 633.54,399.47 634.07,399.70 634.61,399.94 635.14,400.17 635.68,400.40 636.21,400.63 636.75,400.85 637.29,401.08 637.82,401.30 638.36,401.52 638.89,401.74 639.43,401.96 639.96,402.17 640.50,402.39 641.04,402.60 641.57,402.81 642.11,403.02 642.64,403.22 643.18,403.43 643.71,403.63 644.25,403.83 644.79,404.03 645.32,404.22 645.86,404.42 646.39,404.61 646.93,404.80 647.46,404.99 648.00,405.18 648.54,405.36 649.07,405.55 649.61,405.73 650.14,405.91 650.68,406.08 651.21,406.26 651.75,406.43 652.29,406.60 652.82,406.77 653.36,406.94 653.89,407.11 654.43,407.27 654.96,407.43 655.50,407.59 656.04,407.75 656.57,407.90 657.11,408.06 657.64,408.21 658.18,408.36 658.71,408.51 659.25,408.65 659.79,408.80 660.32,408.94 660.86,409.08 661.39,409.21 661.93,409.35 662.46,409.48 663.00,409.61 663.54,409.74 664.07,409.87 664.61,410.00 665.14,410.12 665.68,410.24 666.21,410.36 666.75,410.48 667.29,410.59 667.82,410.70 668.36,410.81 668.89,410.92 669.43,411.03 669.96,411.13 670.50,411.23 671.04,411.34 671.57,411.43 672.11,411.53 672.64,411.62 673.18,411.72 673.71,411.80 674.25,411.89 674.79,411.98 675.32,412.06 675.86,412.14 676.39,412.22 676.93,412.30 677.46,412.37 678.00,412.45 678.54,412.52 679.07,412.59 679.61,412.65 680.14,412.72 680.68,412.78 681.21,412.84 681.75,412.90 682.29,412.95 682.82,413.01 683.36,413.06 683.89,413.11 684.43,413.15 684.96,413.20 685.50,413.24 686.04,413.28 686.57,413.32 687.11,413.36 687.64,413.39 688.18,413.42 688.71,413.45 689.25,413.48 689.79,413.51 690.32,413.53 690.86,413.55 691.39,413.57 691.93,413.59 692.46,413.60 693.00,413.61 693.54,413.62 694.07,413.63 694.61,413.64 695.14,413.64 695.68,413.64 696.21,413.64 696.75,413.64 697.29,413.63 697.82,413.63 698.36,413.62 698.89,413.61 699.43,413.59 699.96,413.58 700.50,413.56 701.04,413.54 701.57,413.52 702.11,413.49 702.64,413.47 703.18,413.44 703.71,413.41 704.25,413.37 704.79,413.34 705.32,413.30 705.86,413.26 706.39,413.22 706.93,413.18 707.46,413.13 708.00,413.08 708.54,413.03 709.07,412.98 709.61,412.92 710.14,412.87 710.68,412.81 711.21,412.75 711.75,412.68 712.29,412.62 712.82,412.55 713.36,412.48 713.89,412.41 714.43,412.33 714.96,412.26 715.50,412.18 716.04,412.10 716.57,412.02 717.11,411.93 717.64,411.84 718.18,411.75 718.71,411.66 719.25,411.57 719.79,411.47 720.32,411.38 720.86,411.28 721.39,411.17 721.93,411.07 722.46,410.96 723.00,410.85 723.54,410.74 724.07,410.63 724.61,410.52 725.14,410.40 725.68,410.28 726.21,410.16 726.75,410.04 727.29,409.91 727.82,409.78 728.36,409.65 728.89,409.52 729.43,409.39 729.96,409.25 730.50,409.11 731.04,408.97 731.57,408.83 732.11,408.69 732.64,408.54 733.18,408.39 733.71,408.24 734.25,408.09 734.79,407.93 735.32,407.78 735.86,407.62 736.39,407.46 736.93,407.29 737.46,407.13 738.00,406.96 738.54,406.79 739.07,406.62 739.61,406.45 740.14,406.27 740.68,406.10 741.21,405.92 741.75,405.74 742.29,405.55 742.82,405.37 743.36,405.18 743.89,404.99 744.43,404.80 744.96,404.61 745.50,404.41 746.04,404.22 746.57,404.02 747.11,403.82 747.64,403.61 748.18,403.41 748.71,403.20 749.25,402.99 749.79,402.78 750.32,402.57 750.86,402.35 751.39,402.14 751.93,401.92 752.46,401.70 753.00,401.47 753.54,401.25 754.07,401.02 754.61,400.80 755.14,400.57 755.68,400.33 756.21,400.10 756.75,399.86 757.29,399.63 757.82,399.39 758.36,399.14 758.89,398.90 759.43,398.66"/>
<line x1="828" y1="126" x2="856" y2="126" stroke="#8a4fbf" stroke-width="3"/>
<text x="864" y="130" font-family="Arial" font-size="13">rudder</text>
<polyline fill="none" stroke="#c47f1f" stroke-width="2.2" points="116.57,341.34 117.11,345.12 117.64,345.39 118.18,345.65 118.71,345.92 119.25,346.18 119.79,346.45 120.32,346.71 120.86,346.97 121.39,347.24 121.93,347.50 122.46,347.76 123.00,348.02 123.54,348.28 124.07,348.53 124.61,348.79 125.14,349.05 125.68,349.30 126.21,349.55 126.75,349.81 127.29,350.06 127.82,350.31 128.36,350.56 128.89,350.81 129.43,351.06 129.96,351.31 130.50,351.55 131.04,351.80 131.57,352.04 132.11,352.29 132.64,352.53 133.18,352.77 133.71,353.01 134.25,353.25 134.79,353.49 135.32,353.73 135.86,353.96 136.39,354.20 136.93,354.43 137.46,354.67 138.00,354.90 138.54,355.13 139.07,355.36 139.61,355.59 140.14,355.82 140.68,356.05 141.21,356.27 141.75,356.50 142.29,356.72 142.82,356.94 143.36,357.16 143.89,357.38 144.43,357.60 144.96,357.82 145.50,358.04 146.04,358.25 146.57,358.47 147.11,358.68 147.64,358.89 148.18,359.10 148.71,359.31 149.25,359.52 149.79,359.73 150.32,359.94 150.86,360.14 151.39,360.34 151.93,360.55 152.46,360.75 153.00,360.95 153.54,361.15 154.07,361.34 154.61,361.54 155.14,361.73 155.68,361.93 156.21,362.12 156.75,362.31 157.29,362.50 157.82,362.69 158.36,362.88 158.89,363.06 159.43,363.25 159.96,363.43 160.50,363.61 161.04,363.79 161.57,363.97 162.11,364.15 162.64,364.33 163.18,364.50 163.71,364.68 164.25,364.85 164.79,365.02 165.32,365.19 165.86,365.36 166.39,365.53 166.93,365.69 167.46,365.86 168.00,366.02 168.54,366.18 169.07,366.34 169.61,366.50 170.14,366.66 170.68,366.81 171.21,366.97 171.75,367.12 172.29,367.27 172.82,367.42 173.36,367.57 173.89,367.72 174.43,367.86 174.96,368.01 175.50,368.15 176.04,368.29 176.57,368.43 177.11,368.57 177.64,368.70 178.18,368.84 178.71,368.97 179.25,369.11 179.79,369.24 180.32,369.37 180.86,369.49 181.39,369.62 181.93,369.75 182.46,369.87 183.00,369.99 183.54,370.11 184.07,370.23 184.61,370.35 185.14,370.46 185.68,370.58 186.21,370.69 186.75,370.80 187.29,370.91 187.82,371.02 188.36,371.13 188.89,371.23 189.43,371.33 189.96,371.44 190.50,371.54 191.04,371.63 191.57,371.73 192.11,371.83 192.64,371.92 193.18,372.01 193.71,372.10 194.25,372.19 194.79,372.28 195.32,372.37 195.86,372.45 196.39,372.53 196.93,372.61 197.46,372.69 198.00,372.77 198.54,372.85 199.07,372.92 199.61,373.00 200.14,373.07 200.68,373.14 201.21,373.21 201.75,373.27 202.29,373.34 202.82,373.40 203.36,373.46 203.89,373.52 204.43,373.58 204.96,373.64 205.50,373.69 206.04,373.75 206.57,373.80 207.11,373.85 207.64,373.90 208.18,373.94 208.71,373.99 209.25,374.03 209.79,374.08 210.32,374.12 210.86,374.15 211.39,374.19 211.93,374.23 212.46,374.26 213.00,374.29 213.54,374.32 214.07,374.35 214.61,374.38 215.14,374.41 215.68,374.43 216.21,374.45 216.75,374.47 217.29,374.49 217.82,374.51 218.36,374.52 218.89,374.54 219.43,374.55 219.96,374.56 220.50,374.57 221.04,374.58 221.57,374.58 222.11,374.58 222.64,374.59 223.18,374.59 223.71,374.59 224.25,374.58 224.79,374.58 225.32,374.57 225.86,374.56 226.39,374.56 226.93,374.54 227.46,374.53 228.00,374.52 228.54,374.50 229.07,374.48 229.61,374.46 230.14,374.44 230.68,374.42 231.21,374.39 231.75,374.37 232.29,374.34 232.82,374.31 233.36,374.28 233.89,374.25 234.43,374.21 234.96,374.18 235.50,374.14 236.04,374.10 236.57,374.06 237.11,374.01 237.64,373.97 238.18,373.92 238.71,373.88 239.25,373.83 239.79,373.78 240.32,373.72 240.86,373.67 241.39,373.61 241.93,373.55 242.46,373.50 243.00,373.43 243.54,373.37 244.07,373.31 244.61,373.24 245.14,373.17 245.68,373.10 246.21,373.03 246.75,372.96 247.29,372.89 247.82,372.81 248.36,372.73 248.89,372.66 249.43,372.58 249.96,372.49 250.50,372.41 251.04,372.32 251.57,372.24 252.11,372.15 252.64,372.06 253.18,371.97 253.71,371.87 254.25,371.78 254.79,371.68 255.32,371.58 255.86,371.48 256.39,371.38 256.93,371.28 257.46,371.17 258.00,371.07 258.54,370.96 259.07,370.85 259.61,370.74 260.14,370.63 260.68,370.51 261.21,370.40 261.75,370.28 262.29,370.16 262.82,370.04 263.36,369.92 263.89,369.80 264.43,369.67 264.96,369.55 265.50,369.42 266.04,369.29 266.57,369.16 267.11,369.03 267.64,368.89 268.18,368.76 268.71,368.62 269.25,368.48 269.79,368.34 270.32,368.20 270.86,368.06 271.39,367.91 271.93,367.77 272.46,367.62 273.00,367.47 273.54,367.32 274.07,367.17 274.61,367.01 275.14,366.86 275.68,366.70 276.21,366.55 276.75,366.39 277.29,366.23 277.82,366.06 278.36,365.90 278.89,365.74 279.43,365.57 279.96,365.40 280.50,365.23 281.04,365.06 281.57,364.89 282.11,364.72 282.64,364.54 283.18,364.37 283.71,364.19 284.25,364.01 284.79,363.83 285.32,363.65 285.86,363.47 286.39,363.28 286.93,363.10 287.46,362.91 288.00,362.72 288.54,362.53 289.07,362.34 289.61,362.15 290.14,361.95 290.68,361.76 291.21,361.56 291.75,361.37 292.29,361.17 292.82,360.97 293.36,360.77 293.89,360.56 294.43,360.36 294.96,360.15 295.50,359.95 296.04,359.74 296.57,359.53 297.11,359.32 297.64,359.11 298.18,358.90 298.71,358.68 299.25,358.47 299.79,358.25 300.32,358.03 300.86,357.82 301.39,357.60 301.93,357.37 302.46,357.15 303.00,356.93 303.54,356.70 304.07,356.48 304.61,356.25 305.14,356.02 305.68,355.79 306.21,355.56 306.75,355.33 307.29,355.10 307.82,354.87 308.36,354.63 308.89,354.40 309.43,354.16 309.96,353.92 310.50,353.68 311.04,353.44 311.57,353.20 312.11,352.96 312.64,352.71 313.18,352.47 313.71,352.22 314.25,351.98 314.79,351.73 315.32,351.48 315.86,351.23 316.39,350.98 316.93,350.73 317.46,350.48 318.00,350.22 318.54,349.97 319.07,349.71 319.61,349.46 320.14,349.20 320.68,348.94 321.21,348.68 321.75,348.42 322.29,348.16 322.82,347.90 323.36,347.64 323.89,347.37 324.43,347.11 324.96,346.84 325.50,346.58 326.04,346.31 326.57,346.04 327.11,345.77 327.64,345.50 328.18,345.23 328.71,344.96 329.25,344.69 329.79,344.42 330.32,344.14 330.86,343.87 331.39,343.59 331.93,343.32 332.46,343.04 333.00,342.76 333.54,342.48 334.07,342.20 334.61,341.92 335.14,341.64 335.68,341.36 336.21,341.08 336.75,340.80 337.29,340.51 337.82,340.23 338.36,339.94 338.89,339.66 339.43,339.37 339.96,339.09 340.50,338.80 341.04,338.51 341.57,338.22 342.11,337.93 342.64,337.64 343.18,337.35 343.71,337.06 344.25,336.77 344.79,336.48 345.32,336.18 345.86,335.89 346.39,335.60 346.93,335.30 347.46,335.01 348.00,334.71 348.54,334.41 349.07,334.12 349.61,333.82 350.14,333.52 350.68,333.23 351.21,332.93 351.75,332.63 352.29,332.33 352.82,332.03 353.36,331.73 353.89,331.43 354.43,331.13 354.96,330.83 355.50,330.52 356.04,330.22 356.57,329.92 357.11,329.61 357.64,329.31 358.18,329.01 358.71,328.70 359.25,328.40 359.79,328.09 360.32,327.79 360.86,327.48 361.39,327.18 361.93,326.87 362.46,326.57 363.00,326.26 363.54,325.95 364.07,325.64 364.61,325.34 365.14,325.03 365.68,324.72 366.21,324.41 366.75,324.11 367.29,323.80 367.82,323.49 368.36,323.18 368.89,322.87 369.43,322.56 369.96,322.25 370.50,321.94 371.04,321.63 371.57,321.32 372.11,321.01 372.64,320.70 373.18,320.39 373.71,320.08 374.25,319.77 374.79,319.46 375.32,319.15 375.86,318.84 376.39,318.53 376.93,318.22 377.46,317.91 378.00,317.60 378.54,317.29 379.07,316.98 379.61,316.67 380.14,316.36 380.68,316.05 381.21,315.74 381.75,315.42 382.29,315.11 382.82,314.80 383.36,314.49 383.89,314.18 384.43,313.87 384.96,313.56 385.50,313.25 386.04,312.94 386.57,312.63 387.11,312.32 387.64,312.01 388.18,311.71 388.71,311.40 389.25,311.09 389.79,310.78 390.32,310.47 390.86,310.16 391.39,309.85 391.93,309.55 392.46,309.24 393.00,308.93 393.54,308.62 394.07,308.32 394.61,308.01 395.14,307.70 395.68,307.40 396.21,307.09 396.75,306.79 397.29,306.48 397.82,306.18 398.36,305.87 398.89,305.57 399.43,305.26 399.96,304.96 400.50,304.66 401.04,304.35 401.57,304.05 402.11,303.75 402.64,303.45 403.18,303.15 403.71,302.85 404.25,302.55 404.79,302.25 405.32,301.95 405.86,301.65 406.39,301.35 406.93,301.05 407.46,300.75 408.00,300.46 408.54,300.16 409.07,299.86 409.61,299.57 410.14,299.27 410.68,298.98 411.21,298.68 411.75,298.39 412.29,298.10 412.82,297.81 413.36,297.51 413.89,297.22 414.43,296.93 414.96,296.64 415.50,296.35 416.04,296.06 416.57,295.78 417.11,295.49 417.64,295.20 418.18,294.92 418.71,294.63 419.25,294.35 419.79,294.06 420.32,293.78 420.86,293.49 421.39,293.21 421.93,292.93 422.46,292.65 423.00,292.37 423.54,292.09 424.07,291.81 424.61,291.54 425.14,291.26 425.68,290.98 426.21,290.71 426.75,290.43 427.29,290.16 427.82,289.89 428.36,289.61 428.89,289.34 429.43,289.07 429.96,288.80 430.50,288.53 431.04,288.27 431.57,288.00 432.11,287.73 432.64,287.47 433.18,287.20 433.71,286.94 434.25,286.68 434.79,286.41 435.32,286.15 435.86,285.89 436.39,285.63 436.93,285.38 437.46,285.12 438.00,284.86 438.54,284.61 439.07,284.35 439.61,284.10 440.14,283.85 440.68,283.60 441.21,283.35 441.75,283.10 442.29,282.85 442.82,282.60 443.36,282.35 443.89,282.11 444.43,281.86 444.96,281.62 445.50,281.38 446.04,281.14 446.57,280.90 447.11,280.66 447.64,280.42 448.18,280.19 448.71,279.95 449.25,279.71 449.79,279.48 450.32,279.25 450.86,279.02 451.39,278.79 451.93,278.56 452.46,278.33 453.00,278.11 453.54,277.88 454.07,277.66 454.61,277.43 455.14,277.21 455.68,276.99 456.21,276.77 456.75,276.55 457.29,276.34 457.82,276.12 458.36,275.90 458.89,275.69 459.43,275.48 459.96,275.27 460.50,275.06 461.04,274.85 461.57,274.64 462.11,274.44 462.64,274.23 463.18,274.03 463.71,273.83 464.25,273.63 464.79,273.43 465.32,273.23 465.86,273.03 466.39,272.84 466.93,272.64 467.46,272.45 468.00,272.26 468.54,272.07 469.07,271.88 469.61,271.69 470.14,271.50 470.68,271.32 471.21,271.14 471.75,270.95 472.29,270.77 472.82,270.59 473.36,270.42 473.89,270.24 474.43,270.06 474.96,269.89 475.50,269.72 476.04,269.55 476.57,269.38 477.11,269.21 477.64,269.04 478.18,268.88 478.71,268.71 479.25,268.55 479.79,268.39 480.32,268.23 480.86,268.07 481.39,267.92 481.93,267.76 482.46,267.61 483.00,267.46 483.54,267.30 484.07,267.16 484.61,267.01 485.14,266.86 485.68,266.72 486.21,266.57 486.75,266.43 487.29,266.29 487.82,266.15 488.36,266.02 488.89,265.88 489.43,265.75 489.96,265.61 490.50,265.48 491.04,265.35 491.57,265.23 492.11,265.10 492.64,264.97 493.18,264.85 493.71,264.73 494.25,264.61 494.79,264.49 495.32,264.37 495.86,264.26 496.39,264.14 496.93,264.03 497.46,263.92 498.00,263.81 498.54,263.71 499.07,263.60 499.61,263.50 500.14,263.39 500.68,263.29 501.21,263.19 501.75,263.09 502.29,263.00 502.82,262.90 503.36,262.81 503.89,262.72 504.43,262.63 504.96,262.54 505.50,262.45 506.04,262.37 506.57,262.29 507.11,262.20 507.64,262.12 508.18,262.05 508.71,261.97 509.25,261.89 509.79,261.82 510.32,261.75 510.86,261.68 511.39,261.61 511.93,261.54 512.46,261.48 513.00,261.42 513.54,261.35 514.07,261.29 514.61,261.24 515.14,261.18 515.68,261.12 516.21,261.07 516.75,261.02 517.29,260.97 517.82,260.92 518.36,260.87 518.89,260.83 519.43,260.79 519.96,260.74 520.50,260.70 521.04,260.67 521.57,260.63 522.11,260.59 522.64,260.56 523.18,260.53 523.71,260.50 524.25,260.47 524.79,260.45 525.32,260.42 525.86,260.40 526.39,260.38 526.93,260.36 527.46,260.34 528.00,260.32 528.54,260.31 529.07,260.30 529.61,260.28 530.14,260.27 530.68,260.27 531.21,260.26 531.75,260.26 532.29,260.25 532.82,260.25 533.36,260.25 533.89,260.26 534.43,260.26 534.96,260.27 535.50,260.27 536.04,260.28 536.57,260.30 537.11,260.31 537.64,260.32 538.18,260.34 538.71,260.36 539.25,260.38 539.79,260.40 540.32,260.42 540.86,260.45 541.39,260.47 541.93,260.50 542.46,260.53 543.00,260.56 543.54,260.59 544.07,260.63 544.61,260.67 545.14,260.70 545.68,260.74 546.21,260.79 546.75,260.83 547.29,260.87 547.82,260.92 548.36,260.97 548.89,261.02 549.43,261.07 549.96,261.12 550.50,261.18 551.04,261.24 551.57,261.30 552.11,261.36 552.64,261.42 553.18,261.48 553.71,261.55 554.25,261.61 554.79,261.68 555.32,261.75 555.86,261.82 556.39,261.90 556.93,261.97 557.46,262.05 558.00,262.13 558.54,262.21 559.07,262.29 559.61,262.37 560.14,262.46 560.68,262.55 561.21,262.63 561.75,262.72 562.29,262.82 562.82,262.91 563.36,263.00 563.89,263.10 564.43,263.20 564.96,263.30 565.50,263.40 566.04,263.50 566.57,263.61 567.11,263.72 567.64,263.82 568.18,263.93 568.71,264.04 569.25,264.16 569.79,264.27 570.32,264.39 570.86,264.50 571.39,264.62 571.93,264.74 572.46,264.87 573.00,264.99 573.54,265.12 574.07,265.24 574.61,265.37 575.14,265.50 575.68,265.63 576.21,265.77 576.75,265.90 577.29,266.04 577.82,266.18 578.36,266.32 578.89,266.46 579.43,266.60 579.96,266.74 580.50,266.89 581.04,267.04 581.57,267.19 582.11,267.34 582.64,267.49 583.18,267.64 583.71,267.80 584.25,267.95 584.79,268.11 585.32,268.27 585.86,268.43 586.39,268.59 586.93,268.75 587.46,268.92 588.00,269.09 588.54,269.25 589.07,269.42 589.61,269.59 590.14,269.77 590.68,269.94 591.21,270.12 591.75,270.29 592.29,270.47 592.82,270.65 593.36,270.83 593.89,271.01 594.43,271.20 594.96,271.38 595.50,271.57 596.04,271.76 596.57,271.95 597.11,272.14 597.64,272.33 598.18,272.52 598.71,272.72 599.25,272.91 599.79,273.11 600.32,273.31 600.86,273.51 601.39,273.71 601.93,273.91 602.46,274.12 603.00,274.32 603.54,274.53 604.07,274.74 604.61,274.95 605.14,275.16 605.68,275.37 606.21,275.58 606.75,275.80 607.29,276.01 607.82,276.23 608.36,276.45 608.89,276.67 609.43,276.89 609.96,277.11 610.50,277.33 611.04,277.56 611.57,277.78 612.11,278.01 612.64,278.24 613.18,278.47 613.71,278.70 614.25,278.93 614.79,279.16 615.32,279.40 615.86,279.63 616.39,279.87 616.93,280.10 617.46,280.34 618.00,280.58 618.54,280.82 619.07,281.07 619.61,281.31 620.14,281.55 620.68,281.80 621.21,282.04 621.75,282.29 622.29,282.54 622.82,282.79 623.36,283.04 623.89,283.29 624.43,283.54 624.96,283.80 625.50,284.05 626.04,284.31 626.57,284.56 627.11,284.82 627.64,285.08 628.18,285.34 628.71,285.60 629.25,285.86 629.79,286.13 630.32,286.39 630.86,286.66 631.39,286.92 631.93,287.19 632.46,287.45 633.00,287.72 633.54,287.99 634.07,288.26 634.61,288.53 635.14,288.81 635.68,289.08 636.21,289.35 636.75,289.63 637.29,289.90 637.82,290.18 638.36,290.46 638.89,290.73 639.43,291.01 639.96,291.29 640.50,291.57 641.04,291.86 641.57,292.14 642.11,292.42 642.64,292.70 643.18,292.99 643.71,293.27 644.25,293.56 644.79,293.85 645.32,294.13 645.86,294.42 646.39,294.71 646.93,295.00 647.46,295.29 648.00,295.58 648.54,295.88 649.07,296.17 649.61,296.46 650.14,296.75 650.68,297.05 651.21,297.34 651.75,297.64 652.29,297.94 652.82,298.23 653.36,298.53 653.89,298.83 654.43,299.13 654.96,299.43 655.50,299.73 656.04,300.03 656.57,300.33 657.11,300.63 657.64,300.93 658.18,301.24 658.71,301.54 659.25,301.84 659.79,302.15 660.32,302.45 660.86,302.76 661.39,303.06 661.93,303.37 662.46,303.68 663.00,303.98 663.54,304.29 664.07,304.60 664.61,304.91 665.14,305.22 665.68,305.53 666.21,305.84 666.75,306.15 667.29,306.46 667.82,306.77 668.36,307.08 668.89,307.39 669.43,307.70 669.96,308.02 670.50,308.33 671.04,308.64 671.57,308.95 672.11,309.27 672.64,309.58 673.18,309.90 673.71,310.21 674.25,310.52 674.79,310.84 675.32,311.15 675.86,311.47 676.39,311.79 676.93,312.10 677.46,312.42 678.00,312.73 678.54,313.05 679.07,313.37 679.61,313.68 680.14,314.00 680.68,314.32 681.21,314.64 681.75,314.95 682.29,315.27 682.82,315.59 683.36,315.91 683.89,316.22 684.43,316.54 684.96,316.86 685.50,317.18 686.04,317.50 686.57,317.81 687.11,318.13 687.64,318.45 688.18,318.77 688.71,319.09 689.25,319.41 689.79,319.72 690.32,320.04 690.86,320.36 691.39,320.68 691.93,321.00 692.46,321.32 693.00,321.63 693.54,321.95 694.07,322.27 694.61,322.59 695.14,322.91 695.68,323.22 696.21,323.54 696.75,323.86 697.29,324.18 697.82,324.49 698.36,324.81 698.89,325.13 699.43,325.44 699.96,325.76 700.50,326.08 701.04,326.39 701.57,326.71 702.11,327.02 702.64,327.34 703.18,327.65 703.71,327.97 704.25,328.28 704.79,328.60 705.32,328.91 705.86,329.23 706.39,329.54 706.93,329.85 707.46,330.17 708.00,330.48 708.54,330.79 709.07,331.10 709.61,331.41 710.14,331.73 710.68,332.04 711.21,332.35 711.75,332.66 712.29,332.97 712.82,333.28 713.36,333.59 713.89,333.89 714.43,334.20 714.96,334.51 715.50,334.82 716.04,335.12 716.57,335.43 717.11,335.74 717.64,336.04 718.18,336.35 718.71,336.65 719.25,336.96 719.79,337.26 720.32,337.56 720.86,337.86 721.39,338.17 721.93,338.47 722.46,338.77 723.00,339.07 723.54,339.37 724.07,339.67 724.61,339.96 725.14,340.26 725.68,340.56 726.21,340.86 726.75,341.15 727.29,341.45 727.82,341.74 728.36,342.03 728.89,342.33 729.43,342.62 729.96,342.91 730.50,343.20 731.04,343.49 731.57,343.78 732.11,344.07 732.64,344.36 733.18,344.65 733.71,344.94 734.25,345.22 734.79,345.51 735.32,345.79 735.86,346.08 736.39,346.36 736.93,346.64 737.46,346.92 738.00,347.20 738.54,347.48 739.07,347.76 739.61,348.04 740.14,348.32 740.68,348.59 741.21,348.87 741.75,349.14 742.29,349.42 742.82,349.69 743.36,349.96 743.89,350.23 744.43,350.50 744.96,350.77 745.50,351.04 746.04,351.31 746.57,351.58 747.11,351.84 747.64,352.11 748.18,352.37 748.71,352.63 749.25,352.89 749.79,353.15 750.32,353.41 750.86,353.67 751.39,353.93 751.93,354.19 752.46,354.44 753.00,354.70 753.54,354.95 754.07,355.20 754.61,355.46 755.14,355.71 755.68,355.96 756.21,356.20 756.75,356.45 757.29,356.70 757.82,356.94 758.36,357.19 758.89,357.43 759.43,357.67"/>
<line x1="828" y1="150" x2="856" y2="150" stroke="#c47f1f" stroke-width="3"/>
<text x="864" y="154" font-family="Arial" font-size="13">body flap</text>
</svg>