<svg xmlns="http://www.w3.org/2000/svg" width="920" height="520" viewBox="0 0 920 520">
<rect width="100%" height="100%" fill="white"/>
<text x="460" y="28" text-anchor="middle" font-family="Arial" font-size="20">Attitude Inner-Loop Body Moments</text>
<rect x="78" y="54" width="720" height="380" fill="#fafafa" stroke="#222"/>
<line x1="78" y1="434" x2="798" y2="434" stroke="#222"/>
<line x1="78" y1="54" x2="78" y2="434" stroke="#222"/>
<text x="438" y="492" text-anchor="middle" font-family="Arial" font-size="14">time (s)</text>
<text transform="translate(22,244) rotate(-90)" text-anchor="middle" font-family="Arial" font-size="14">moment (N m)</text>
<text x="78" y="456" text-anchor="middle" font-family="Arial" font-size="11">-1.56</text>
<text x="798" y="456" text-anchor="middle" font-family="Arial" font-size="11">27.56</text>
<text x="68" y="434" text-anchor="end" font-family="Arial" font-size="11">-5376.00</text>
<text x="68" y="59" text-anchor="end" font-family="Arial" font-size="11">5376.00</text>
<line x1="78" y1="74.36" x2="798" y2="74.36" stroke="#c23b3b" stroke-dasharray="8 6"/>
<text x="806" y="78.36" font-family="Arial" font-size="12" fill="#c23b3b">moment limit</text>
<polyline fill="none" stroke="#2f6fbb" stroke-width="2.2" points="116.57,244.00 117.07,253.82 117.56,261.47 118.05,267.40 118.55,271.98 119.04,275.49 119.54,278.18 120.03,280.19 120.53,281.69 121.02,282.76 121.52,283.50 122.01,283.97 122.51,284.22 123.00,284.30 123.49,284.23 123.99,284.04 124.48,283.76 124.98,283.39 125.47,282.94 125.97,282.44 126.46,281.88 126.96,281.27 127.45,280.61 127.95,279.92 128.44,279.20 128.93,278.44 129.43,277.65 129.92,276.83 130.42,275.98 130.91,275.11 131.41,274.21 131.90,273.30 132.40,272.36 132.89,271.40 133.38,270.42 133.88,269.43 134.37,268.41 134.87,267.39 135.36,266.34 135.86,265.28 136.35,264.21 136.85,263.13 137.34,262.04 137.84,260.93 138.33,259.82 138.82,258.70 139.32,257.57 139.81,256.43 140.31,255.29 140.80,254.15 141.30,253.00 141.79,251.85 142.29,250.69 142.78,249.54 143.27,248.38 143.77,247.23 144.26,246.08 144.76,244.93 145.25,243.79 145.75,242.65 146.24,241.52 146.74,240.39 147.23,239.27 147.73,238.16 148.22,237.06 148.71,235.96 149.21,234.88 149.70,233.81 150.20,232.76 150.69,231.71 151.19,230.69 151.68,229.67 152.18,228.67 152.67,227.69 153.16,226.73 153.66,225.78 154.15,224.85 154.65,223.94 155.14,223.05 155.64,222.18 156.13,221.34 156.63,220.51 157.12,219.71 157.62,218.93 158.11,218.17 158.60,217.44 159.10,216.73 159.59,216.05 160.09,215.39 160.58,214.76 161.08,214.15 161.57,213.57 162.07,213.02 162.56,212.49 163.05,212.00 163.55,211.53 164.04,211.09 164.54,210.68 165.03,210.29 165.53,209.94 166.02,209.61 166.52,196.89 167.01,184.17 167.51,171.44 168.00,158.72 168.49,146.00 168.99,133.27 169.48,120.75 169.98,110.48 170.47,102.49 170.97,96.27 171.46,91.42 171.96,87.65 172.45,84.71 172.95,82.42 173.44,80.64 173.93,79.25 174.43,78.17 174.92,77.32 175.42,76.67 175.91,76.16 176.41,75.76 176.90,75.45 177.40,75.21 177.89,75.02 178.38,74.87 178.88,74.76 179.37,74.67 179.87,74.60 180.36,74.55 180.86,74.50 181.35,74.47 181.85,74.45 182.34,74.43 182.84,74.41 183.33,74.40 183.82,74.39 184.32,74.43 184.81,75.57 185.31,77.59 185.80,80.32 186.30,83.63 186.79,87.42 187.29,91.59 187.78,96.09 188.27,100.87 188.77,105.88 189.26,111.08 189.76,116.45 190.25,121.96 190.75,127.60 191.24,133.36 191.74,139.21 192.23,145.14 192.73,151.15 193.22,157.22 193.71,163.36 194.21,169.54 194.70,175.76 195.20,182.02 195.69,188.30 196.19,194.61 196.68,200.94 197.18,207.28 197.67,213.62 198.16,219.96 198.66,226.30 199.15,232.62 199.65,238.93 200.14,245.22 200.64,251.48 201.13,257.71 201.63,263.90 202.12,270.05 202.62,276.15 203.11,282.21 203.60,288.21 204.10,294.14 204.59,300.01 205.09,305.81 205.58,311.54 206.08,317.19 206.57,322.76 207.07,328.24 207.56,333.63 208.05,338.92 208.55,344.11 209.04,349.20 209.54,354.19 210.03,359.06 210.53,363.83 211.02,368.47 211.52,372.99 212.01,377.39 212.51,381.67 213.00,385.81 213.49,389.82 213.99,393.70 214.48,397.44 214.98,401.02 215.47,403.82 215.97,405.99 216.46,407.68 216.96,409.00 217.45,410.03 217.95,410.83 218.44,411.45 218.93,411.94 219.43,412.31 219.92,412.61 220.42,412.84 220.91,413.01 221.41,413.15 221.90,413.26 222.40,413.35 222.89,413.41 223.38,413.46 223.88,413.50 224.37,413.53 224.87,413.56 225.36,413.58 225.86,413.59 226.35,413.60 226.85,413.61 227.34,413.62 227.84,413.62 228.33,413.63 228.82,413.63 229.32,413.63 229.81,413.64 230.31,413.64 230.80,413.64 231.30,413.64 231.79,413.64 232.29,413.64 232.78,413.64 233.27,413.64 233.77,413.64 234.26,413.64 234.76,413.64 235.25,413.64 235.75,413.64 236.24,413.64 236.74,413.40 237.23,412.54 237.73,411.16 238.22,409.35 238.71,407.18 239.21,404.71 239.70,401.97 240.20,399.01 240.69,395.84 241.19,392.50 241.68,389.00 242.18,385.35 242.67,381.57 243.16,377.67 243.66,373.66 244.15,369.54 244.65,365.33 245.14,361.02 245.64,356.63 246.13,352.17 246.63,347.62 247.12,343.01 247.62,338.34 248.11,333.60 248.60,328.82 249.10,323.98 249.59,319.09 250.09,314.16 250.58,309.20 251.08,304.20 251.57,299.18 252.07,294.12 252.56,289.05 253.05,283.96 253.55,278.86 254.04,273.76 254.54,268.64 255.03,263.53 255.53,258.43 256.02,253.33 256.52,248.24 257.01,243.17 257.51,238.13 258.00,233.10 258.49,228.11 258.99,223.15 259.48,218.22 259.98,213.34 260.47,208.49 260.97,203.70 261.46,198.96 261.96,194.27 262.45,189.64 262.95,185.07 263.44,180.57 263.93,176.14 264.43,171.78 264.92,167.49 265.42,163.28 265.91,159.16 266.41,155.12 266.90,151.16 267.40,147.30 267.89,143.53 268.38,139.85 268.88,136.28 269.37,132.80 269.87,129.43 270.36,126.16 270.86,123.01 271.35,119.96 271.85,117.02 272.34,114.20 272.84,111.49 273.33,108.90 273.82,106.43 274.32,104.08 274.81,101.86 275.31,99.75 275.80,97.78 276.30,95.92 276.79,94.20 277.29,92.60 277.78,91.13 278.27,89.80 278.77,88.59 279.26,87.51 279.76,86.56 280.25,85.74 280.75,85.06 281.24,84.51 281.74,84.08 282.23,83.79 282.73,83.64 283.22,83.61 283.71,83.71 284.21,83.94 284.70,84.30 285.20,84.79 285.69,85.40 286.19,86.15 286.68,87.01 287.18,88.00 287.67,89.12 288.16,90.35 288.66,91.71 289.15,93.18 289.65,94.78 290.14,96.48 290.64,98.30 291.13,100.23 291.63,102.27 292.12,104.42 292.62,106.67 293.11,109.03 293.60,111.49 294.10,114.05 294.59,116.71 295.09,119.46 295.58,122.30 296.08,125.24 296.57,128.26 297.07,131.37 297.56,134.56 298.05,137.83 298.55,141.17 299.04,144.59 299.54,148.08 300.03,151.64 300.53,155.26 301.02,158.95 301.52,162.69 302.01,166.48 302.51,170.33 303.00,174.22 303.49,178.16 303.99,182.14 304.48,186.15 304.98,190.20 305.47,194.28 305.97,198.39 306.46,202.52 306.96,206.67 307.45,210.83 307.95,215.01 308.44,219.19 308.93,223.38 309.43,227.57 309.92,231.76 310.42,235.95 310.91,240.12 311.41,244.29 311.90,248.43 312.40,252.56 312.89,256.66 313.38,260.74 313.88,264.79 314.37,268.81 314.87,272.79 315.36,276.73 315.86,280.63 316.35,284.48 316.85,288.29 317.34,292.04 317.84,295.74 318.33,299.38 318.82,302.96 319.32,306.48 319.81,309.93 320.31,313.31 320.80,316.63 321.30,319.87 321.79,323.03 322.29,326.12 322.78,329.12 323.27,332.04 323.77,334.88 324.26,337.63 324.76,340.29 325.25,342.87 325.75,345.34 326.24,347.73 326.74,350.02 327.23,352.21 327.73,354.30 328.22,356.30 328.71,358.19 329.21,359.98 329.70,361.66 330.20,363.24 330.69,364.72 331.19,366.09 331.68,367.35 332.18,368.51 332.67,369.55 333.16,370.49 333.66,371.32 334.15,372.04 334.65,372.65 335.14,373.16 335.64,373.55 336.13,373.83 336.63,374.01 337.12,374.08 337.62,374.03 338.11,373.89 338.60,373.63 339.10,373.27 339.59,372.80 340.09,372.23 340.58,371.56 341.08,370.78 341.57,369.91 342.07,368.93 342.56,367.86 343.05,366.68 343.55,365.41 344.04,364.05 344.54,362.60 345.03,361.05 345.53,359.42 346.02,357.70 346.52,355.89 347.01,354.00 347.51,352.03 348.00,349.98 348.49,347.86 348.99,345.65 349.48,343.38 349.98,341.04 350.47,338.62 350.97,336.15 351.46,333.61 351.96,331.00 352.45,328.34 352.95,325.63 353.44,322.86 353.93,320.04 354.43,317.17 354.92,314.26 355.42,311.30 355.91,308.31 356.41,305.27 356.90,302.20 357.40,299.10 357.89,295.97 358.38,292.81 358.88,289.63 359.37,286.43 359.87,283.20 360.36,279.97 360.86,276.71 361.35,273.45 361.85,270.18 362.34,266.90 362.84,263.62 363.33,260.34 363.82,257.06 364.32,253.78 364.81,250.52 365.31,247.26 365.80,244.01 366.30,240.78 366.79,237.57 367.29,234.38 367.78,231.21 368.27,228.06 368.77,224.94 369.26,221.85 369.76,218.79 370.25,215.76 370.75,212.77 371.24,209.82 371.74,206.91 372.23,204.04 372.73,201.21 373.22,198.43 373.71,195.70 374.21,193.02 374.70,190.39 375.20,187.81 375.69,185.29 376.19,182.82 376.68,180.42 377.18,178.07 377.67,175.78 378.16,173.56 378.66,171.40 379.15,169.30 379.65,167.28 380.14,165.32 380.64,163.43 381.13,161.61 381.63,159.86 382.12,158.18 382.62,156.58 383.11,155.05 383.60,153.60 384.10,152.22 384.59,150.91 385.09,149.69 385.58,148.54 386.08,147.47 386.57,146.48 387.07,145.56 387.56,144.73 388.05,143.97 388.55,143.29 389.04,142.70 389.54,142.18 390.03,141.74 390.53,141.38 391.02,141.10 391.52,140.90 392.01,140.78 392.51,140.74 393.00,140.77 393.49,140.89 393.99,141.08 394.48,141.34 394.98,141.69 395.47,142.11 395.97,142.60 396.46,143.17 396.96,143.81 397.45,144.52 397.95,145.31 398.44,146.17 398.93,147.09 399.43,148.09 399.92,149.15 400.42,150.28 400.91,151.47 401.41,152.73 401.90,154.05 402.40,155.43 402.89,156.88 403.38,158.38 403.88,159.94 404.37,161.55 404.87,163.22 405.36,164.94 405.86,166.72 406.35,168.54 406.85,170.41 407.34,172.33 407.84,174.29 408.33,176.30 408.82,178.35 409.32,180.43 409.81,182.56 410.31,184.72 410.80,186.91 411.30,189.14 411.79,191.40 412.29,193.69 412.78,196.01 413.27,198.35 413.77,200.71 414.26,203.09 414.76,205.50 415.25,207.92 415.75,210.36 416.24,212.81 416.74,215.27 417.23,217.75 417.73,220.23 418.22,222.72 418.71,225.21 419.21,227.70 419.70,230.20 420.20,232.69 420.69,235.18 421.19,237.66 421.68,240.14 422.18,242.61 422.67,245.07 423.16,247.51 423.66,249.95 424.15,252.36 424.65,254.76 425.14,257.14 425.64,259.50 426.13,261.84 426.63,264.15 427.12,266.44 427.62,268.70 428.11,270.94 428.60,273.14 429.10,275.31 429.59,277.45 430.09,279.56 430.58,281.63 431.08,283.66 431.57,285.65 432.07,287.61 432.56,289.52 433.05,291.39 433.55,293.22 434.04,295.01 434.54,296.75 435.03,298.44 435.53,300.08 436.02,301.68 436.52,303.22 437.01,304.71 437.51,306.16 438.00,307.55 438.49,320.27 438.99,332.99 439.48,345.72 439.98,358.44 440.47,370.51 440.97,380.05 441.46,387.48 441.96,393.27 442.45,397.77 442.95,401.28 443.44,404.02 443.93,406.15 444.43,407.80 444.92,409.10 445.42,410.10 445.91,410.89 446.41,411.50 446.90,411.97 447.40,412.34 447.89,412.63 448.38,412.85 448.88,413.03 449.37,413.16 449.87,413.27 450.36,413.35 450.86,413.42 451.35,413.47 451.85,413.51 452.34,413.54 452.84,413.56 453.33,413.58 453.82,413.59 454.32,413.60 454.81,413.61 455.31,413.62 455.80,413.62 456.30,413.63 456.79,413.63 457.29,413.63 457.78,413.64 458.27,413.64 458.77,413.64 459.26,413.64 459.76,413.64 460.25,413.64 460.75,413.64 461.24,413.64 461.74,413.64 462.23,413.64 462.73,413.64 463.22,413.64 463.71,413.64 464.21,413.64 464.70,413.64 465.20,413.64 465.69,413.64 466.19,413.64 466.68,413.64 467.18,413.64 467.67,413.64 468.16,413.64 468.66,413.64 469.15,413.64 469.65,413.64 470.14,413.64 470.64,413.64 471.13,413.64 471.63,413.64 472.12,413.64 472.62,413.59 473.11,411.71 473.60,408.39 474.10,403.91 474.59,398.52 475.09,392.39 475.58,385.68 476.08,378.49 476.57,370.93 477.07,363.06 477.56,354.94 478.05,346.62 478.55,338.14 479.04,329.53 479.54,320.82 480.03,312.03 480.53,303.18 481.02,294.29 481.52,285.37 482.01,276.43 482.51,267.50 483.00,258.57 483.49,249.65 483.99,240.77 484.48,231.92 484.98,223.11 485.47,214.36 485.97,205.66 486.46,197.04 486.96,188.49 487.45,180.02 487.95,171.64 488.44,163.35 488.93,155.17 489.43,147.10 489.92,139.14 490.42,131.30 490.91,123.59 491.41,116.02 491.90,108.58 492.40,101.29 492.89,95.33 493.38,90.69 493.88,87.08 494.37,84.26 494.87,82.07 495.36,80.37 495.86,79.04 496.35,78.00 496.85,77.20 497.34,76.57 497.84,76.08 498.33,75.70 498.82,75.40 499.32,75.17 499.81,74.99 500.31,74.85 500.80,74.74 501.30,74.66 501.79,74.59 502.29,74.54 502.78,74.50 503.27,74.47 503.77,74.44 504.26,74.42 504.76,74.41 505.25,74.40 505.75,74.39 506.24,74.38 506.74,74.38 507.23,74.37 507.73,74.37 508.22,74.37 508.71,74.36 509.21,74.36 509.70,74.36 510.20,74.36 510.69,74.36 511.19,74.36 511.68,74.36 512.18,74.36 512.67,74.36 513.16,74.36 513.66,74.36 514.15,74.36 514.65,74.36 515.14,74.36 515.64,74.36 516.13,74.36 516.63,74.36 517.12,74.36 517.62,74.36 518.11,74.36 518.60,74.36 519.10,74.36 519.59,74.36 520.09,74.36 520.58,74.36 521.08,74.36 521.57,74.36 522.07,74.36 522.56,74.36 523.05,74.36 523.55,74.36 524.04,74.36 524.54,74.36 525.03,74.36 525.53,74.36 526.02,74.36 526.52,74.36 527.01,74.36 527.51,74.36 528.00,74.36 528.49,74.36 528.99,74.36 529.48,74.36 529.98,74.36 530.47,74.36 530.97,74.36 531.46,74.36 531.96,74.36 532.45,74.36 532.95,74.36 533.44,74.36 533.93,74.36 534.43,74.36 534.92,74.36 535.42,74.36 535.91,74.36 536.41,74.36 536.90,74.36 537.40,74.36 537.89,74.36 538.38,74.36 538.88,74.56 539.37,76.10 539.87,78.71 540.36,82.17 540.86,86.32 541.35,91.03 541.85,96.19 542.34,101.72 542.84,107.56 543.33,113.64 543.82,119.94 544.32,126.40 544.81,133.02 545.31,139.75 545.80,146.59 546.30,153.51 546.79,160.51 547.29,167.57 547.78,174.67 548.27,181.81 548.77,188.99 549.26,196.18 549.76,203.39 550.25,210.61 550.75,217.83 551.24,225.04 551.74,232.24 552.23,239.42 552.73,246.57 553.22,253.70 553.71,260.78 554.21,267.83 554.70,274.83 555.20,281.78 555.69,288.67 556.19,295.49 556.68,302.25 557.18,308.94 557.67,315.54 558.16,322.07 558.66,328.50 559.15,334.85 559.65,341.09 560.14,347.24 560.64,353.28 561.13,359.20 561.63,365.02 562.12,370.71 562.62,376.28 563.11,381.73 563.60,387.04 564.10,392.22 564.59,396.96 565.09,400.65 565.58,403.53 566.08,405.76 566.57,407.51 567.07,408.86 567.56,409.92 568.05,410.74 568.55,411.39 569.04,411.88 569.54,412.27 570.03,412.58 570.53,412.81 571.02,413.00 571.52,413.14 572.01,413.25 572.51,413.34 573.00,413.40 573.49,413.46 573.99,413.50 574.48,413.53 574.98,413.56 575.47,413.57 575.97,413.59 576.46,413.60 576.96,413.61 577.45,413.62 577.95,413.62 578.44,413.63 578.93,413.63 579.43,413.63 579.92,413.64 580.42,413.64 580.91,413.64 581.41,413.64 581.90,413.64 582.40,413.64 582.89,413.64 583.38,413.64 583.88,413.64 584.37,413.64 584.87,413.64 585.36,413.64 585.86,413.64 586.35,413.64 586.85,413.64 587.34,413.64 587.84,413.64 588.33,413.64 588.82,413.64 589.32,413.64 589.81,413.64 590.31,413.64 590.80,413.64 591.30,413.64 591.79,413.64 592.29,413.64 592.78,413.64 593.27,413.64 593.77,413.64 594.26,413.64 594.76,413.64 595.25,413.64 595.75,413.64 596.24,413.64 596.74,413.64 597.23,413.27 597.73,411.96 598.22,409.89 598.71,407.20 599.21,404.00 599.70,400.38 600.20,396.41 600.69,392.14 601.19,387.63 601.68,382.90 602.18,377.99 602.67,372.92 603.16,367.70 603.66,362.36 604.15,356.92 604.65,351.37 605.14,345.74 605.64,340.03 606.13,334.25 606.63,328.41 607.12,322.51 607.62,316.57 608.11,310.59 608.60,304.57 609.10,298.53 609.59,292.46 610.09,286.37 610.58,280.28 611.08,274.17 611.57,268.07 612.07,261.97 612.56,255.88 613.05,249.81 613.55,243.76 614.04,237.73 614.54,231.73 615.03,225.76 615.53,219.84 616.02,213.96 616.52,208.13 617.01,202.35 617.51,196.63 618.00,190.97 618.49,185.37 618.99,179.85 619.48,174.40 619.98,169.03 620.47,163.74 620.97,158.54 621.46,153.43 621.96,148.42 622.45,143.50 622.95,138.69 623.44,133.98 623.93,129.37 624.43,124.88 624.92,120.51 625.42,116.25 625.91,112.12 626.41,108.11 626.90,104.23 627.40,100.47 627.89,96.85 628.38,93.37 628.88,90.02 629.37,86.81 629.87,84.06 630.36,81.91 630.86,80.24 631.35,78.94 631.85,77.93 632.34,77.14 632.84,76.52 633.33,76.04 633.82,75.67 634.32,75.38 634.81,75.15 635.31,74.98 635.80,74.84 636.30,74.73 636.79,74.65 637.29,74.59 637.78,74.53 638.27,74.50 638.77,74.46 639.26,74.44 639.76,74.42 640.25,74.41 640.75,74.40 641.24,74.39 641.74,74.38 642.23,74.38 642.73,74.37 643.22,74.37 643.71,74.37 644.21,74.36 644.70,74.36 645.20,74.36 645.69,74.36 646.19,74.36 646.68,74.36 647.18,74.36 647.67,74.36 648.16,74.83 648.66,75.80 649.15,77.17 649.65,78.89 650.14,80.91 650.64,83.18 651.13,85.68 651.63,88.38 652.12,91.26 652.62,94.30 653.11,97.49 653.60,100.81 654.10,104.26 654.59,107.83 655.09,111.51 655.58,115.30 656.08,119.18 656.57,123.15 657.07,127.22 657.56,131.36 658.05,135.58 658.55,139.88 659.04,144.24 659.54,148.67 660.03,153.15 660.53,157.70 661.02,162.29 661.52,166.94 662.01,171.62 662.51,176.35 663.00,181.11 663.49,185.90 663.99,190.72 664.48,195.57 664.98,200.43 665.47,205.30 665.97,210.19 666.46,215.09 666.96,219.98 667.45,224.88 667.95,229.77 668.44,234.65 668.93,239.52 669.43,244.37 669.92,249.20 670.42,254.01 670.91,258.78 671.41,263.53 671.90,268.24 672.40,272.91 672.89,277.53 673.38,282.11 673.88,286.64 674.37,291.12 674.87,295.53 675.36,299.89 675.86,304.19 676.35,308.41 676.85,312.57 677.34,316.65 677.84,320.66 678.33,324.59 678.82,328.44 679.32,332.20 679.81,335.87 680.31,339.46 680.80,342.95 681.30,346.34 681.79,349.64 682.29,352.84 682.78,355.94 683.27,358.94 683.77,361.83 684.26,364.61 684.76,367.28 685.25,369.84 685.75,372.29 686.24,374.62 686.74,376.84 687.23,378.94 687.73,380.92 688.22,382.79 688.71,384.53 689.21,386.15 689.70,387.66 690.20,389.03 690.69,390.29 691.19,391.42 691.68,392.43 692.18,393.31 692.67,394.07 693.16,394.70 693.66,395.21 694.15,395.59 694.65,395.85 695.14,395.99 695.64,396.00 696.13,395.89 696.63,395.65 697.12,395.30 697.62,394.82 698.11,394.22 698.60,393.51 699.10,392.67 699.59,391.72 700.09,390.66 700.58,389.48 701.08,388.18 701.57,386.78 702.07,385.26 702.56,383.64 703.05,381.91 703.55,380.08 704.04,378.14 704.54,376.10 705.03,373.97 705.53,371.74 706.02,369.41 706.52,366.99 707.01,364.49 707.51,361.89 708.00,359.21 708.49,356.45 708.99,353.61 709.48,350.69 709.98,347.70 710.47,344.63 710.97,341.50 711.46,338.30 711.96,335.04 712.45,331.71 712.95,328.33 713.44,324.90 713.93,321.41 714.43,317.87 714.92,314.29 715.42,310.67 715.91,307.01 716.41,303.31 716.90,299.58 717.40,295.82 717.89,292.03 718.38,288.22 718.88,284.38 719.37,280.53 719.87,276.67 720.36,272.79 720.86,268.91 721.35,265.03 721.85,261.14 722.34,257.25 722.84,253.37 723.33,249.50 723.82,245.63 724.32,241.79 724.81,237.95 725.31,234.14 725.80,230.36 726.30,226.60 726.79,222.86 727.29,219.16 727.78,215.50 728.27,211.87 728.77,208.29 729.26,204.74 729.76,201.25 730.25,197.80 730.75,194.40 731.24,191.06 731.74,187.77 732.23,184.54 732.73,181.38 733.22,178.27 733.71,175.24 734.21,172.27 734.70,169.37 735.20,166.54 735.69,163.79 736.19,161.11 736.68,158.51 737.18,156.00 737.67,153.56 738.16,151.21 738.66,148.94 739.15,146.76 739.65,144.66 740.14,142.66 740.64,140.74 741.13,138.92 741.63,137.19 742.12,135.56 742.62,134.02 743.11,132.57 743.60,131.22 744.10,129.97 744.59,128.82 745.09,127.76 745.58,126.81 746.08,125.95 746.57,125.20 747.07,124.54 747.56,123.98 748.05,123.53 748.55,123.17 749.04,122.91 749.54,122.76 750.03,122.70 750.53,122.74 751.02,122.88 751.52,123.12 752.01,123.46 752.51,123.89 753.00,124.42 753.49,125.05 753.99,125.77 754.48,126.58 754.98,127.48 755.47,128.48 755.97,129.57 756.46,130.74 756.96,132.01 757.45,133.36 757.95,134.79 758.44,136.31 758.93,137.91 759.43,139.59"/>
<line x1="828" y1="78" x2="856" y2="78" stroke="#2f6fbb" stroke-width="3"/>
<text x="864" y="82" font-family="Arial" font-size="13">Mx</text>
<polyline fill="none" stroke="#258a45" stroke-width="2.2" points="116.57,244.00 117.07,233.63 117.56,225.56 118.05,219.30 118.55,214.46 119.04,210.73 119.54,207.88 120.03,205.73 120.53,204.12 121.02,202.96 121.52,202.14 122.01,201.60 122.51,201.29 123.00,201.16 123.49,201.18 123.99,201.33 124.48,201.57 124.98,201.91 125.47,202.31 125.97,202.79 126.46,203.31 126.96,203.89 127.45,204.51 127.95,205.17 128.44,205.87 128.93,206.60 129.43,207.36 129.92,208.16 130.42,208.98 130.91,209.83 131.41,210.70 131.90,211.59 132.40,212.51 132.89,213.45 133.38,214.41 133.88,215.39 134.37,216.39 134.87,217.40 135.36,218.44 135.86,219.48 136.35,220.55 136.85,221.62 137.34,222.71 137.84,223.82 138.33,224.93 138.82,226.06 139.32,227.19 139.81,228.33 140.31,229.48 140.80,230.64 141.30,231.80 141.79,232.97 142.29,234.14 142.78,235.32 143.27,236.50 143.77,237.68 144.26,238.86 144.76,240.04 145.25,241.22 145.75,242.40 146.24,243.57 146.74,244.74 147.23,245.91 147.73,247.07 148.22,248.23 148.71,249.37 149.21,250.51 149.70,251.64 150.20,252.77 150.69,253.88 151.19,254.98 151.68,256.06 152.18,257.14 152.67,258.20 153.16,259.25 153.66,260.28 154.15,261.30 154.65,262.30 155.14,263.28 155.64,264.25 156.13,265.20 156.63,266.13 157.12,267.04 157.62,267.92 158.11,268.79 158.60,269.64 159.10,270.46 159.59,271.27 160.09,272.05 160.58,272.80 161.08,273.54 161.57,274.24 162.07,274.93 162.56,275.59 163.05,276.22 163.55,276.83 164.04,277.41 164.54,277.96 165.03,278.49 165.53,278.99 166.02,279.46 166.52,279.90 167.01,280.32 167.51,280.71 168.00,281.07 168.49,281.40 168.99,281.70 169.48,281.97 169.98,282.22 170.47,282.43 170.97,282.62 171.46,282.78 171.96,282.91 172.45,283.01 172.95,283.08 173.44,283.12 173.93,283.13 174.43,283.11 174.92,283.07 175.42,282.99 175.91,282.89 176.41,282.76 176.90,282.60 177.40,282.42 177.89,282.20 178.38,281.96 178.88,281.69 179.37,281.40 179.87,281.08 180.36,280.73 180.86,280.36 181.35,279.96 181.85,279.53 182.34,279.08 182.84,278.61 183.33,278.11 183.82,277.59 184.32,277.05 184.81,276.48 185.31,275.89 185.80,275.28 186.30,274.65 186.79,274.00 187.29,273.33 187.78,272.64 188.27,271.92 188.77,271.20 189.26,270.45 189.76,269.68 190.25,268.90 190.75,268.11 191.24,267.29 191.74,266.46 192.23,265.62 192.73,264.77 193.22,263.90 193.71,263.02 194.21,262.13 194.70,261.22 195.20,260.31 195.69,259.38 196.19,258.45 196.68,257.51 197.18,256.56 197.67,255.61 198.16,254.65 198.66,253.68 199.15,252.71 199.65,251.73 200.14,250.75 200.64,249.77 201.13,248.79 201.63,247.80 202.12,246.82 202.62,245.83 203.11,244.85 203.60,243.86 204.10,242.88 204.59,241.91 205.09,240.93 205.58,239.96 206.08,239.00 206.57,238.04 207.07,237.09 207.56,236.15 208.05,235.21 208.55,234.28 209.04,233.37 209.54,232.46 210.03,231.56 210.53,230.67 211.02,229.80 211.52,228.94 212.01,228.09 212.51,227.25 213.00,226.43 213.49,225.62 213.99,224.83 214.48,224.06 214.98,223.30 215.47,222.56 215.97,209.84 216.46,197.11 216.96,184.39 217.45,171.67 217.95,158.94 218.44,146.42 218.93,136.19 219.43,128.24 219.92,122.11 220.42,117.43 220.91,113.89 221.41,111.27 221.90,109.39 222.40,108.11 222.89,107.33 223.38,106.95 223.88,106.90 224.37,107.15 224.87,107.64 225.36,108.34 225.86,109.22 226.35,110.27 226.85,111.47 227.34,112.81 227.84,114.27 228.33,115.85 228.82,117.53 229.32,119.32 229.81,121.21 230.31,123.19 230.80,125.26 231.30,127.41 231.79,129.66 232.29,131.98 232.78,134.38 233.27,136.85 233.77,139.40 234.26,142.02 234.76,144.71 235.25,147.46 235.75,150.28 236.24,153.16 236.74,156.10 237.23,159.10 237.73,162.15 238.22,165.25 238.71,168.40 239.21,171.60 239.70,174.84 240.20,178.13 240.69,181.45 241.19,184.82 241.68,188.22 242.18,191.65 242.67,195.11 243.16,198.59 243.66,202.11 244.15,205.64 244.65,209.19 245.14,212.77 245.64,216.35 246.13,219.95 246.63,223.55 247.12,227.16 247.62,230.78 248.11,234.39 248.60,238.00 249.10,241.61 249.59,245.22 250.09,248.81 250.58,252.39 251.08,255.95 251.57,259.50 252.07,263.03 252.56,266.54 253.05,270.02 253.55,273.47 254.04,276.89 254.54,280.28 255.03,283.63 255.53,286.95 256.02,290.23 256.52,293.46 257.01,296.65 257.51,299.80 258.00,302.89 258.49,305.93 258.99,308.92 259.48,311.86 259.98,314.73 260.47,317.55 260.97,320.30 261.46,322.99 261.96,325.62 262.45,328.18 262.95,330.67 263.44,333.09 263.93,335.43 264.43,337.70 264.92,339.90 265.42,342.02 265.91,344.06 266.41,346.02 266.90,347.91 267.40,349.70 267.89,351.42 268.38,353.05 268.88,354.60 269.37,356.05 269.87,357.43 270.36,358.71 270.86,359.90 271.35,361.01 271.85,362.03 272.34,362.95 272.84,363.79 273.33,364.53 273.82,365.18 274.32,365.74 274.81,366.21 275.31,366.58 275.80,366.86 276.30,367.05 276.79,367.15 277.29,367.16 277.78,367.08 278.27,366.90 278.77,366.64 279.26,366.28 279.76,365.84 280.25,365.30 280.75,364.68 281.24,363.97 281.74,363.17 282.23,362.29 282.73,361.32 283.22,360.27 283.71,359.13 284.21,357.92 284.70,356.62 285.20,355.24 285.69,353.79 286.19,352.26 286.68,350.65 287.18,348.97 287.67,347.22 288.16,345.39 288.66,343.50 289.15,341.54 289.65,339.52 290.14,337.43 290.64,335.27 291.13,333.06 291.63,330.79 292.12,328.46 292.62,326.07 293.11,323.64 293.60,321.15 294.10,318.61 294.59,316.02 295.09,313.39 295.58,310.71 296.08,307.99 296.57,305.23 297.07,302.43 297.56,299.60 298.05,296.73 298.55,293.82 299.04,290.89 299.54,287.93 300.03,284.94 300.53,281.93 301.02,278.90 301.52,275.85 302.01,272.78 302.51,269.69 303.00,266.59 303.49,263.48 303.99,260.36 304.48,257.24 304.98,254.10 305.47,250.97 305.97,247.83 306.46,244.70 306.96,241.57 307.45,238.44 307.95,235.33 308.44,232.22 308.93,229.12 309.43,226.04 309.92,222.97 310.42,219.92 310.91,216.89 311.41,213.88 311.90,210.89 312.40,207.93 312.89,204.99 313.38,202.09 313.88,199.21 314.37,196.37 314.87,193.55 315.36,190.78 315.86,188.04 316.35,185.34 316.85,182.68 317.34,180.07 317.84,177.49 318.33,174.97 318.82,172.48 319.32,170.05 319.81,167.66 320.31,165.33 320.80,163.05 321.30,160.82 321.79,158.64 322.29,156.52 322.78,154.46 323.27,152.45 323.77,150.51 324.26,148.62 324.76,146.80 325.25,145.03 325.75,143.33 326.24,141.69 326.74,140.12 327.23,138.61 327.73,137.17 328.22,135.79 328.71,134.49 329.21,133.25 329.70,132.08 330.20,130.97 330.69,129.94 331.19,128.98 331.68,128.08 332.18,127.26 332.67,126.51 333.16,125.83 333.66,125.23 334.15,124.69 334.65,124.23 335.14,123.84 335.64,123.52 336.13,123.27 336.63,123.10 337.12,123.01 337.62,122.98 338.11,123.04 338.60,123.16 339.10,123.37 339.59,123.65 340.09,124.00 340.58,124.43 341.08,124.94 341.57,125.53 342.07,126.19 342.56,126.93 343.05,127.74 343.55,128.64 344.04,129.61 344.54,130.66 345.03,131.78 345.53,132.98 346.02,134.26 346.52,135.62 347.01,137.05 347.51,138.55 348.00,140.14 348.49,141.79 348.99,143.52 349.48,145.33 349.98,147.20 350.47,149.15 350.97,151.17 351.46,153.26 351.96,155.42 352.45,157.65 352.95,159.94 353.44,162.30 353.93,164.72 354.43,167.21 354.92,169.76 355.42,172.37 355.91,175.04 356.41,177.76 356.90,180.54 357.40,183.37 357.89,186.25 358.38,189.18 358.88,192.16 359.37,195.18 359.87,198.24 360.36,201.34 360.86,204.48 361.35,207.66 361.85,210.86 362.34,214.10 362.84,217.36 363.33,220.64 363.82,223.95 364.32,227.27 364.81,230.62 365.31,233.97 365.80,237.34 366.30,240.71 366.79,244.09 367.29,247.48 367.78,250.86 368.27,254.24 368.77,257.62 369.26,260.99 369.76,264.35 370.25,267.70 370.75,271.03 371.24,274.34 371.74,277.63 372.23,280.90 372.73,284.14 373.22,287.35 373.71,290.53 374.21,293.68 374.70,296.80 375.20,299.87 375.69,302.91 376.19,305.90 376.68,308.85 377.18,311.75 377.67,314.60 378.16,317.40 378.66,320.14 379.15,322.83 379.65,325.46 380.14,328.03 380.64,330.54 381.13,332.99 381.63,335.37 382.12,337.68 382.62,339.92 383.11,342.10 383.60,344.20 384.10,346.23 384.59,348.18 385.09,350.06 385.58,351.86 386.08,353.58 386.57,355.22 387.07,356.79 387.56,358.26 388.05,359.66 388.55,360.97 389.04,362.20 389.54,363.34 390.03,364.40 390.53,365.37 391.02,366.25 391.52,367.04 392.01,367.75 392.51,368.37 393.00,368.90 393.49,369.34 393.99,369.69 394.48,369.95 394.98,370.13 395.47,370.21 395.97,370.21 396.46,370.12 396.96,369.94 397.45,369.67 397.95,369.32 398.44,368.88 398.93,368.35 399.43,367.74 399.92,367.05 400.42,366.27 400.91,365.41 401.41,364.46 401.90,363.44 402.40,362.33 402.89,361.15 403.38,359.89 403.88,358.56 404.37,357.15 404.87,355.66 405.36,354.11 405.86,352.48 406.35,350.78 406.85,349.02 407.34,347.19 407.84,345.30 408.33,343.35 408.82,341.33 409.32,339.26 409.81,337.13 410.31,334.94 410.80,332.70 411.30,330.41 411.79,328.07 412.29,325.69 412.78,323.26 413.27,320.78 413.77,318.27 414.26,315.72 414.76,313.13 415.25,310.50 415.75,307.85 416.24,305.16 416.74,302.45 417.23,299.71 417.73,296.95 418.22,294.17 418.71,291.37 419.21,288.55 419.70,285.73 420.20,282.88 420.69,280.04 421.19,277.18 421.68,274.32 422.18,271.45 422.67,268.59 423.16,265.73 423.66,262.87 424.15,260.02 424.65,257.17 425.14,254.34 425.64,251.51 426.13,248.70 426.63,245.91 427.12,243.13 427.62,240.37 428.11,237.63 428.60,234.92 429.10,232.23 429.59,229.56 430.09,226.92 430.58,224.31 431.08,221.72 431.57,219.17 432.07,216.66 432.56,214.17 433.05,211.72 433.55,209.31 434.04,206.94 434.54,204.60 435.03,202.30 435.53,200.05 436.02,197.83 436.52,195.66 437.01,193.54 437.51,191.45 438.00,189.42 438.49,187.43 438.99,185.48 439.48,183.59 439.98,181.74 440.47,179.94 440.97,178.20 441.46,176.50 441.96,174.85 442.45,173.25 442.95,171.71 443.44,170.22 443.93,168.78 444.43,167.39 444.92,166.06 445.42,164.78 445.91,163.55 446.41,162.38 446.90,161.26 447.40,160.19 447.89,159.19 448.38,158.23 448.88,157.33 449.37,156.49 449.87,155.70 450.36,154.97 450.86,154.30 451.35,153.68 451.85,153.12 452.34,152.61 452.84,152.16 453.33,151.77 453.82,151.44 454.32,151.16 454.81,150.93 455.31,150.77 455.80,150.66 456.30,150.61 456.79,150.61 457.29,150.67 457.78,150.78 458.27,150.95 458.77,151.18 459.26,151.46 459.76,151.79 460.25,152.18 460.75,152.63 461.24,153.12 461.74,153.67 462.23,154.28 462.73,154.93 463.22,155.64 463.71,156.39 464.21,157.20 464.70,158.06 465.20,158.97 465.69,159.92 466.19,160.93 466.68,161.98 467.18,163.08 467.67,164.22 468.16,165.41 468.66,166.64 469.15,167.92 469.65,169.24 470.14,170.61 470.64,172.01 471.13,173.45 471.63,174.94 472.12,176.46 472.62,178.02 473.11,179.62 473.60,181.26 474.10,182.93 474.59,184.63 475.09,186.37 475.58,188.14 476.08,189.94 476.57,191.77 477.07,193.63 477.56,195.52 478.05,197.43 478.55,199.37 479.04,201.34 479.54,203.33 480.03,205.34 480.53,207.38 481.02,209.44 481.52,211.52 482.01,213.61 482.51,215.73 483.00,217.86 483.49,220.00 483.99,222.16 484.48,224.34 484.98,226.53 485.47,228.72 485.97,230.93 486.46,233.15 486.96,235.38 487.45,237.61 487.95,239.85 488.44,242.09 488.93,244.34 489.43,246.58 489.92,248.83 490.42,251.08 490.91,253.33 491.41,255.58 491.90,257.82 492.40,260.06 492.89,262.29 493.38,264.52 493.88,266.74 494.37,268.95 494.87,271.15 495.36,273.34 495.86,275.51 496.35,277.67 496.85,279.82 497.34,281.95 497.84,284.06 498.33,286.16 498.82,288.23 499.32,290.29 499.81,292.32 500.31,294.32 500.80,296.30 501.30,298.26 501.79,300.18 502.29,302.08 502.78,303.94 503.27,305.77 503.77,307.57 504.26,309.32 504.76,311.05 505.25,312.73 505.75,314.37 506.24,315.97 506.74,317.52 507.23,319.03 507.73,320.49 508.22,321.90 508.71,323.26 509.21,324.58 509.70,325.83 510.20,327.04 510.69,328.18 511.19,329.27 511.68,330.30 512.18,331.27 512.67,344.00 513.16,356.72 513.66,369.12 514.15,378.96 514.65,386.64 515.14,392.61 515.64,397.26 516.13,400.88 516.63,403.71 517.12,405.90 517.62,407.62 518.11,408.95 518.60,409.99 519.10,410.80 519.59,411.43 520.09,411.92 520.58,412.30 521.08,412.60 521.57,412.45 522.07,411.91 522.56,411.04 523.05,409.87 523.55,408.46 524.04,406.82 524.54,404.97 525.03,402.94 525.53,400.74 526.02,398.39 526.52,395.88 527.01,393.23 527.51,390.44 528.00,387.53 528.49,384.50 528.99,381.34 529.48,378.07 529.98,374.69 530.47,371.20 530.97,367.61 531.46,363.92 531.96,360.13 532.45,356.25 532.95,352.28 533.44,348.22 533.93,344.08 534.43,339.87 534.92,335.57 535.42,331.21 535.91,326.77 536.41,322.27 536.90,317.71 537.40,313.09 537.89,308.41 538.38,303.69 538.88,298.92 539.37,294.11 539.87,289.25 540.36,284.36 540.86,279.44 541.35,274.50 541.85,269.53 542.34,264.54 542.84,259.53 543.33,254.52 543.82,249.49 544.32,244.46 544.81,239.44 545.31,234.41 545.80,229.40 546.30,224.39 546.79,219.41 547.29,214.44 547.78,209.50 548.27,204.59 548.77,199.70 549.26,194.86 549.76,190.05 550.25,185.29 550.75,180.58 551.24,175.91 551.74,171.30 552.23,166.75 552.73,162.27 553.22,157.84 553.71,153.49 554.21,149.21 554.70,145.01 555.20,140.88 555.69,136.84 556.19,132.89 556.68,129.02 557.18,125.25 557.67,121.57 558.16,117.99 558.66,114.51 559.15,111.13 559.65,107.86 560.14,104.70 560.64,101.65 561.13,98.72 561.63,95.90 562.12,93.19 562.62,90.61 563.11,88.15 563.60,85.81 564.10,83.60 564.59,81.56 565.09,79.96 565.58,78.72 566.08,77.76 566.57,77.01 567.07,76.42 567.56,75.96 568.05,75.61 568.55,75.33 569.04,75.12 569.54,74.95 570.03,74.82 570.53,74.72 571.02,74.64 571.52,74.57 572.01,74.53 572.51,74.49 573.00,74.46 573.49,74.44 573.99,74.42 574.48,74.41 574.98,74.39 575.47,74.39 575.97,74.38 576.46,74.37 576.96,74.71 577.45,75.36 577.95,76.29 578.44,77.45 578.93,78.82 579.43,80.39 579.92,82.13 580.42,84.04 580.91,86.09 581.41,88.28 581.90,90.61 582.40,93.06 582.89,95.64 583.38,98.32 583.88,101.12 584.37,104.03 584.87,107.03 585.36,110.13 585.86,113.33 586.35,116.62 586.85,120.00 587.34,123.46 587.84,126.99 588.33,130.61 588.82,134.30 589.32,138.06 589.81,141.88 590.31,145.77 590.80,149.72 591.30,153.72 591.79,157.78 592.29,161.89 592.78,166.04 593.27,170.23 593.77,174.46 594.26,178.73 594.76,183.03 595.25,187.35 595.75,191.70 596.24,196.07 596.74,200.46 597.23,204.87 597.73,209.28 598.22,213.70 598.71,218.12 599.21,222.54 599.70,226.96 600.20,231.37 600.69,235.77 601.19,240.16 601.68,244.54 602.18,248.89 602.67,253.22 603.16,257.52 603.66,261.79 604.15,266.03 604.65,270.24 605.14,274.41 605.64,278.53 606.13,282.61 606.63,286.65 607.12,290.64 607.62,294.57 608.11,298.45 608.60,302.28 609.10,306.04 609.59,309.75 610.09,313.39 610.58,316.96 611.08,320.47 611.57,323.90 612.07,327.27 612.56,330.55 613.05,333.77 613.55,336.90 614.04,339.96 614.54,342.93 615.03,345.82 615.53,348.62 616.02,351.34 616.52,353.97 617.01,356.51 617.51,358.95 618.00,361.30 618.49,363.55 618.99,365.71 619.48,367.77 619.98,369.73 620.47,371.59 620.97,373.35 621.46,375.00 621.96,376.55 622.45,378.00 622.95,379.34 623.44,380.58 623.93,381.71 624.43,382.73 624.92,383.65 625.42,384.46 625.91,385.17 626.41,385.76 626.90,386.25 627.40,386.63 627.89,386.91 628.38,387.08 628.88,387.14 629.37,387.10 629.87,386.96 630.36,386.71 630.86,386.35 631.35,385.90 631.85,385.34 632.34,384.68 632.84,383.92 633.33,383.06 633.82,382.11 634.32,381.05 634.81,379.91 635.31,378.66 635.80,377.33 636.30,375.91 636.79,374.39 637.29,372.79 637.78,371.10 638.27,369.32 638.77,367.47 639.26,365.53 639.76,363.51 640.25,361.42 640.75,359.24 641.24,357.00 641.74,354.68 642.23,352.29 642.73,349.84 643.22,347.32 643.71,344.73 644.21,342.09 644.70,339.38 645.20,336.62 645.69,333.80 646.19,330.93 646.68,328.01 647.18,325.05 647.67,322.03 648.16,318.98 648.66,315.88 649.15,312.74 649.65,309.57 650.14,306.36 650.64,303.12 651.13,299.86 651.63,296.56 652.12,293.24 652.62,289.90 653.11,286.55 653.60,283.17 654.10,279.78 654.59,276.38 655.09,272.97 655.58,269.55 656.08,266.12 656.57,262.70 657.07,259.27 657.56,255.85 658.05,252.43 658.55,249.02 659.04,245.62 659.54,242.23 660.03,238.86 660.53,235.50 661.02,232.16 661.52,228.84 662.01,225.55 662.51,222.28 663.00,219.04 663.49,215.83 663.99,212.65 664.48,209.51 664.98,206.40 665.47,203.34 665.97,200.31 666.46,197.32 666.96,194.38 667.45,191.49 667.95,188.65 668.44,185.85 668.93,183.11 669.43,180.42 669.92,177.79 670.42,175.21 670.91,172.70 671.41,170.24 671.90,167.84 672.40,165.51 672.89,163.25 673.38,161.05 673.88,158.92 674.37,156.86 674.87,154.86 675.36,152.94 675.86,151.10 676.35,149.32 676.85,147.63 677.34,146.00 677.84,144.46 678.33,142.99 678.82,141.60 679.32,140.29 679.81,139.06 680.31,137.91 680.80,136.84 681.30,135.86 681.79,134.95 682.29,134.13 682.78,133.39 683.27,132.74 683.77,132.17 684.26,131.68 684.76,131.27 685.25,130.95 685.75,130.72 686.24,130.56 686.74,130.49 687.23,130.51 687.73,130.60 688.22,130.78 688.71,131.05 689.21,131.39 689.70,131.82 690.20,132.33 690.69,132.91 691.19,133.58 691.68,134.33 692.18,135.15 692.67,136.05 693.16,137.03 693.66,138.08 694.15,139.21 694.65,140.41 695.14,141.69 695.64,143.03 696.13,144.45 696.63,145.93 697.12,147.48 697.62,149.10 698.11,150.78 698.60,152.53 699.10,154.34 699.59,156.20 700.09,158.13 700.58,160.12 701.08,162.15 701.57,164.25 702.07,166.39 702.56,168.59 703.05,170.83 703.55,173.12 704.04,175.46 704.54,177.84 705.03,180.26 705.53,182.72 706.02,185.21 706.52,187.74 707.01,190.31 707.51,192.91 708.00,195.53 708.49,198.18 708.99,200.86 709.48,203.56 709.98,206.28 710.47,209.02 710.97,211.78 711.46,214.55 711.96,217.34 712.45,220.13 712.95,222.93 713.44,225.74 713.93,228.55 714.43,231.37 714.92,234.18 715.42,236.99 715.91,239.80 716.41,242.60 716.90,245.39 717.40,248.17 717.89,250.94 718.38,253.69 718.88,256.43 719.37,259.15 719.87,261.84 720.36,264.52 720.86,267.17 721.35,269.79 721.85,272.38 722.34,274.94 722.84,277.47 723.33,279.97 723.82,282.43 724.32,284.86 724.81,287.24 725.31,289.58 725.80,291.88 726.30,294.14 726.79,296.35 727.29,298.52 727.78,300.63 728.27,302.70 728.77,304.71 729.26,306.68 729.76,308.58 730.25,310.44 730.75,312.23 731.24,313.97 731.74,315.65 732.23,317.28 732.73,318.84 733.22,320.34 733.71,321.77 734.21,323.15 734.70,324.46 735.20,325.71 735.69,326.89 736.19,328.00 736.68,329.05 737.18,330.03 737.67,330.95 738.16,331.79 738.66,332.57 739.15,333.28 739.65,333.92 740.14,334.49 740.64,335.00 741.13,335.43 741.63,335.80 742.12,336.09 742.62,336.32 743.11,336.48 743.60,336.57 744.10,336.59 744.59,336.54 745.09,336.43 745.58,336.24 746.08,335.99 746.57,335.68 747.07,335.30 747.56,334.85 748.05,334.34 748.55,333.76 749.04,333.12 749.54,332.41 750.03,331.65 750.53,330.82 751.02,329.94 751.52,328.99 752.01,327.98 752.51,326.92 753.00,325.80 753.49,324.63 753.99,323.40 754.48,322.11 754.98,320.78 755.47,319.39 755.97,317.96 756.46,316.47 756.96,314.94 757.45,313.37 757.95,311.74 758.44,310.08 758.93,308.37 759.43,306.62"/>
<line x1="828" y1="102" x2="856" y2="102" stroke="#258a45" stroke-width="3"/>
<text x="864" y="106" font-family="Arial" font-size="13">My</text>
<polyline fill="none" stroke="#8a4fbf" stroke-width="2.2" points="116.57,244.00 117.07,250.14 117.56,254.92 118.05,258.63 118.55,261.50 119.04,263.71 119.54,265.41 120.03,266.69 120.53,267.66 121.02,268.37 121.52,268.87 122.01,269.22 122.51,269.43 123.00,269.54 123.49,269.57 123.99,269.53 124.48,269.43 124.98,269.28 125.47,269.09 125.97,268.87 126.46,268.62 126.96,268.34 127.45,268.04 127.95,267.72 128.44,267.38 128.93,267.03 129.43,266.65 129.92,266.27 130.42,265.87 130.91,265.45 131.41,265.03 131.90,264.59 132.40,264.14 132.89,263.68 133.38,263.21 133.88,262.73 134.37,262.24 134.87,261.74 135.36,261.23 135.86,260.71 136.35,260.19 136.85,259.65 137.34,259.11 137.84,258.56 138.33,258.01 138.82,257.45 139.32,256.88 139.81,256.30 140.31,255.72 140.80,255.14 141.30,254.55 141.79,253.95 142.29,253.36 142.78,252.75 143.27,252.15 143.77,251.54 144.26,250.93 144.76,250.31 145.25,249.70 145.75,249.08 146.24,248.46 146.74,247.84 147.23,247.22 147.73,246.60 148.22,245.98 148.71,245.36 149.21,244.74 149.70,244.12 150.20,243.51 150.69,242.89 151.19,242.28 151.68,241.67 152.18,241.07 152.67,240.47 153.16,239.87 153.66,239.27 154.15,238.68 154.65,238.10 155.14,237.52 155.64,236.95 156.13,236.38 156.63,235.82 157.12,235.26 157.62,234.71 158.11,234.17 158.60,233.64 159.10,233.11 159.59,232.59 160.09,232.08 160.58,231.58 161.08,231.09 161.57,230.61 162.07,230.14 162.56,229.68 163.05,229.22 163.55,228.78 164.04,228.35 164.54,227.93 165.03,227.52 165.53,227.12 166.02,226.73 166.52,226.36 167.01,226.00 167.51,225.65 168.00,225.31 168.49,224.98 168.99,224.67 169.48,224.37 169.98,224.08 170.47,223.81 170.97,223.55 171.46,223.30 171.96,223.06 172.45,222.84 172.95,222.64 173.44,222.44 173.93,222.27 174.43,222.10 174.92,221.95 175.42,221.81 175.91,221.69 176.41,221.58 176.90,221.49 177.40,221.40 177.89,221.34 178.38,221.29 178.88,221.25 179.37,221.22 179.87,221.21 180.36,221.21 180.86,221.23 181.35,221.26 181.85,221.31 182.34,221.36 182.84,221.43 183.33,221.52 183.82,221.61 184.32,221.72 184.81,221.84 185.31,221.98 185.80,222.13 186.30,222.29 186.79,222.46 187.29,222.64 187.78,222.83 188.27,223.04 188.77,223.25 189.26,223.48 189.76,223.72 190.25,223.97 190.75,224.22 191.24,224.49 191.74,224.77 192.23,225.05 192.73,225.35 193.22,225.65 193.71,225.96 194.21,226.28 194.70,226.61 195.20,226.95 195.69,227.29 196.19,227.64 196.68,228.00 197.18,228.36 197.67,228.73 198.16,229.10 198.66,229.48 199.15,229.87 199.65,230.26 200.14,230.66 200.64,231.06 201.13,231.46 201.63,231.87 202.12,232.29 202.62,232.70 203.11,233.12 203.60,233.55 204.10,233.97 204.59,234.40 205.09,234.83 205.58,235.27 206.08,235.70 206.57,236.14 207.07,236.58 207.56,237.02 208.05,237.46 208.55,237.91 209.04,238.35 209.54,238.80 210.03,239.24 210.53,239.69 211.02,240.13 211.52,240.58 212.01,241.03 212.51,241.47 213.00,241.92 213.49,242.37 213.99,242.81 214.48,243.26 214.98,243.70 215.47,244.14 215.97,244.58 216.46,245.02 216.96,245.46 217.45,245.90 217.95,246.34 218.44,246.78 218.93,247.22 219.43,247.67 219.92,248.11 220.42,248.56 220.91,249.02 221.41,249.48 221.90,249.94 222.40,250.41 222.89,250.89 223.38,251.38 223.88,251.87 224.37,252.38 224.87,252.88 225.36,253.40 225.86,253.93 226.35,254.46 226.85,254.99 227.34,255.54 227.84,256.09 228.33,256.65 228.82,257.21 229.32,257.78 229.81,258.36 230.31,258.94 230.80,259.52 231.30,260.11 231.79,260.70 232.29,261.29 232.78,261.88 233.27,262.48 233.77,263.07 234.26,263.67 234.76,264.26 235.25,264.85 235.75,265.44 236.24,266.03 236.74,266.61 237.23,267.19 237.73,267.76 238.22,268.33 238.71,268.89 239.21,269.44 239.70,269.99 240.20,270.52 240.69,271.05 241.19,271.56 241.68,272.06 242.18,272.55 242.67,273.03 243.16,273.49 243.66,273.93 244.15,274.37 244.65,274.78 245.14,275.18 245.64,275.56 246.13,275.92 246.63,276.26 247.12,276.59 247.62,276.89 248.11,277.17 248.60,277.43 249.10,277.67 249.59,277.88 250.09,278.07 250.58,278.24 251.08,278.38 251.57,278.50 252.07,278.60 252.56,278.66 253.05,278.71 253.55,278.72 254.04,278.71 254.54,278.68 255.03,278.62 255.53,278.53 256.02,278.41 256.52,278.27 257.01,278.10 257.51,277.90 258.00,277.67 258.49,277.42 258.99,277.14 259.48,276.84 259.98,276.50 260.47,276.14 260.97,275.76 261.46,275.35 261.96,274.91 262.45,274.45 262.95,273.96 263.44,273.45 263.93,272.91 264.43,272.36 264.92,271.77 265.42,271.17 265.91,270.54 266.41,269.89 266.90,269.22 267.40,268.53 267.89,267.82 268.38,267.09 268.88,266.34 269.37,265.57 269.87,264.79 270.36,263.99 270.86,263.17 271.35,262.34 271.85,261.49 272.34,260.63 272.84,259.76 273.33,258.87 273.82,257.98 274.32,257.07 274.81,256.16 275.31,255.23 275.80,254.30 276.30,253.36 276.79,252.41 277.29,251.45 277.78,250.49 278.27,249.53 278.77,248.56 279.26,247.60 279.76,246.62 280.25,245.65 280.75,244.68 281.24,243.70 281.74,242.73 282.23,241.76 282.73,240.79 283.22,239.82 283.71,238.86 284.21,237.90 284.70,236.95 285.20,236.00 285.69,235.05 286.19,234.12 286.68,233.19 287.18,232.27 287.67,231.35 288.16,230.45 288.66,229.56 289.15,228.67 289.65,227.79 290.14,215.07 290.64,202.35 291.13,189.62 291.63,176.90 292.12,164.18 292.62,151.46 293.11,138.73 293.60,126.01 294.10,114.61 294.59,105.71 295.09,98.77 295.58,93.37 296.08,89.17 296.57,85.89 297.07,83.34 297.56,81.35 298.05,79.80 298.55,78.60 299.04,77.66 299.54,76.93 300.03,76.36 300.53,75.92 301.02,75.57 301.52,75.30 302.01,75.09 302.51,74.93 303.00,74.80 303.49,74.71 303.99,74.63 304.48,74.57 304.98,74.52 305.47,74.49 305.97,74.46 306.46,74.43 306.96,74.42 307.45,74.40 307.95,74.39 308.44,74.39 308.93,74.38 309.43,74.37 309.92,74.37 310.42,74.37 310.91,74.37 311.41,74.36 311.90,74.36 312.40,74.36 312.89,74.36 313.38,74.36 313.88,74.36 314.37,74.36 314.87,74.36 315.36,74.36 315.86,74.36 316.35,74.36 316.85,74.36 317.34,74.36 317.84,74.36 318.33,74.36 318.82,74.36 319.32,74.36 319.81,74.36 320.31,74.36 320.80,74.36 321.30,74.36 321.79,74.36 322.29,74.36 322.78,74.36 323.27,74.36 323.77,74.36 324.26,74.36 324.76,74.36 325.25,74.36 325.75,74.36 326.24,74.36 326.74,74.36 327.23,74.36 327.73,74.36 328.22,74.36 328.71,74.36 329.21,74.36 329.70,74.36 330.20,74.36 330.69,74.36 331.19,74.36 331.68,74.36 332.18,74.77 332.67,76.81 333.16,80.15 333.66,84.51 334.15,89.68 334.65,95.51 335.14,101.86 335.64,108.63 336.13,115.74 336.63,123.12 337.12,130.73 337.62,138.52 338.11,146.45 338.60,154.51 339.10,162.66 339.59,170.90 340.09,179.20 340.58,187.55 341.08,195.94 341.57,204.36 342.07,212.80 342.56,221.25 343.05,229.71 343.55,238.16 344.04,246.61 344.54,255.04 345.03,263.45 345.53,271.83 346.02,280.19 346.52,288.50 347.01,296.77 347.51,304.99 348.00,313.16 348.49,321.27 348.99,329.32 349.48,337.30 349.98,345.21 350.47,353.03 350.97,360.78 351.46,368.44 351.96,376.01 352.45,383.48 352.95,390.15 353.44,395.35 353.93,399.40 354.43,402.55 354.92,405.00 355.42,406.91 355.91,408.40 356.41,409.56 356.90,410.46 357.40,411.17 357.89,411.71 358.38,412.14 358.88,412.47 359.37,412.73 359.87,412.93 360.36,413.09 360.86,413.21 361.35,413.31 361.85,413.38 362.34,413.44 362.84,413.48 363.33,413.52 363.82,413.55 364.32,413.57 364.81,413.58 365.31,413.60 365.80,413.61 366.30,413.62 366.79,413.62 367.29,413.63 367.78,413.63 368.27,413.63 368.77,413.63 369.26,413.64 369.76,413.64 370.25,413.64 370.75,413.64 371.24,413.64 371.74,413.64 372.23,413.64 372.73,413.64 373.22,413.64 373.71,413.64 374.21,413.64 374.70,413.64 375.20,413.64 375.69,413.64 376.19,413.64 376.68,413.64 377.18,413.64 377.67,413.64 378.16,413.64 378.66,413.64 379.15,413.64 379.65,413.64 380.14,413.64 380.64,413.64 381.13,413.64 381.63,413.64 382.12,413.64 382.62,413.64 383.11,413.64 383.60,413.64 384.10,413.64 384.59,413.64 385.09,413.64 385.58,413.64 386.08,413.64 386.57,413.64 387.07,413.64 387.56,413.64 388.05,413.64 388.55,413.64 389.04,413.64 389.54,413.64 390.03,413.64 390.53,413.64 391.02,413.64 391.52,413.64 392.01,413.64 392.51,413.64 393.00,413.64 393.49,413.64 393.99,413.64 394.48,413.64 394.98,413.64 395.47,413.64 395.97,413.64 396.46,413.64 396.96,413.64 397.45,413.64 397.95,413.64 398.44,413.64 398.93,413.64 399.43,413.64 399.92,413.64 400.42,413.64 400.91,413.64 401.41,413.64 401.90,413.64 402.40,413.64 402.89,413.64 403.38,413.64 403.88,413.64 404.37,413.64 404.87,413.64 405.36,413.64 405.86,413.64 406.35,413.64 406.85,413.64 407.34,413.64 407.84,413.64 408.33,413.64 408.82,413.64 409.32,413.64 409.81,413.64 410.31,413.64 410.80,413.64 411.30,413.64 411.79,413.64 412.29,413.64 412.78,413.64 413.27,413.64 413.77,413.64 414.26,413.64 414.76,413.64 415.25,413.64 415.75,413.64 416.24,413.64 416.74,413.64 417.23,413.64 417.73,413.64 418.22,413.64 418.71,413.64 419.21,412.32 419.70,409.74 420.20,406.16 420.69,401.79 421.19,396.78 421.68,391.26 422.18,385.32 422.67,379.06 423.16,372.53 423.66,365.78 424.15,358.85 424.65,351.77 425.14,344.57 425.64,337.27 426.13,329.90 426.63,322.46 427.12,314.96 427.62,307.42 428.11,299.86 428.60,292.26 429.10,284.66 429.59,277.04 430.09,269.42 430.58,261.81 431.08,254.21 431.57,246.62 432.07,239.06 432.56,231.52 433.05,224.01 433.55,216.53 434.04,209.10 434.54,201.72 435.03,194.38 435.53,187.10 436.02,179.88 436.52,172.72 437.01,165.63 437.51,158.61 438.00,151.67 438.49,144.80 438.99,138.03 439.48,131.34 439.98,124.74 440.47,118.24 440.97,111.84 441.46,105.54 441.96,99.35 442.45,93.82 442.95,89.52 443.44,86.16 443.93,83.55 444.43,81.52 444.92,79.93 445.42,78.70 445.91,77.74 446.41,76.99 446.90,76.41 447.40,75.96 447.89,75.60 448.38,75.33 448.88,75.11 449.37,74.95 449.87,74.82 450.36,74.71 450.86,74.63 451.35,74.57 451.85,74.53 452.34,74.49 452.84,74.46 453.33,74.44 453.82,74.42 454.32,74.41 454.81,74.39 455.31,74.39 455.80,74.38 456.30,74.37 456.79,74.37 457.29,74.37 457.78,74.37 458.27,74.36 458.77,74.36 459.26,74.36 459.76,74.36 460.25,74.36 460.75,74.36 461.24,74.36 461.74,74.36 462.23,74.36 462.73,74.36 463.22,74.36 463.71,74.36 464.21,74.36 464.70,74.36 465.20,74.36 465.69,74.36 466.19,74.36 466.68,74.36 467.18,74.36 467.67,74.36 468.16,74.36 468.66,74.36 469.15,74.36 469.65,74.36 470.14,74.36 470.64,74.36 471.13,74.36 471.63,74.36 472.12,74.36 472.62,74.36 473.11,74.36 473.60,74.36 474.10,74.36 474.59,74.36 475.09,74.36 475.58,74.36 476.08,74.36 476.57,74.36 477.07,74.36 477.56,74.36 478.05,74.36 478.55,74.36 479.04,74.36 479.54,74.36 480.03,74.36 480.53,74.36 481.02,74.36 481.52,74.36 482.01,74.36 482.51,74.36 483.00,74.36 483.49,74.36 483.99,74.36 484.48,74.36 484.98,74.36 485.47,74.36 485.97,74.36 486.46,74.36 486.96,74.36 487.45,74.36 487.95,74.36 488.44,74.36 488.93,74.36 489.43,74.36 489.92,74.36 490.42,74.36 490.91,74.36 491.41,74.36 491.90,74.36 492.40,74.36 492.89,74.36 493.38,74.36 493.88,74.36 494.37,74.36 494.87,74.36 495.36,74.92 495.86,76.53 496.35,78.98 496.85,82.10 497.34,85.75 497.84,89.85 498.33,94.29 498.82,99.02 499.32,104.00 499.81,109.17 500.31,114.50 500.80,119.98 501.30,125.57 501.79,131.27 502.29,137.05 502.78,142.91 503.27,148.83 503.77,154.81 504.26,160.84 504.76,166.91 505.25,173.03 505.75,179.17 506.24,185.34 506.74,191.53 507.23,197.74 507.73,203.96 508.22,210.19 508.71,216.43 509.21,222.68 509.70,228.92 510.20,235.16 510.69,241.39 511.19,247.60 511.68,253.81 512.18,259.99 512.67,266.15 513.16,272.29 513.66,278.40 514.15,284.48 514.65,290.53 515.14,296.54 515.64,302.51 516.13,308.44 516.63,314.33 517.12,320.17 517.62,325.97 518.11,331.71 518.60,337.40 519.10,343.04 519.59,348.61 520.09,354.13 520.58,359.58 521.08,364.96 521.57,370.27 522.07,375.52 522.56,380.68 523.05,385.77 523.55,390.78 524.04,395.70 524.54,399.67 525.03,402.76 525.53,405.17 526.02,407.04 526.52,408.50 527.01,409.64 527.51,410.52 528.00,411.21 528.49,411.75 528.99,412.17 529.48,412.50 529.98,412.75 530.47,412.95 530.97,413.10 531.46,413.22 531.96,413.31 532.45,413.39 532.95,413.44 533.44,413.49 533.93,413.52 534.43,413.55 534.92,413.57 535.42,413.59 535.91,413.60 536.41,413.61 536.90,413.62 537.40,413.62 537.89,413.63 538.38,413.63 538.88,413.63 539.37,413.64 539.87,413.64 540.36,413.64 540.86,413.64 541.35,413.64 541.85,413.64 542.34,413.64 542.84,413.64 543.33,413.64 543.82,413.64 544.32,413.64 544.81,413.64 545.31,413.64 545.80,413.64 546.30,413.64 546.79,413.64 547.29,413.64 547.78,413.64 548.27,413.64 548.77,413.64 549.26,413.64 549.76,413.64 550.25,413.64 550.75,413.64 551.24,413.64 551.74,413.64 552.23,413.64 552.73,413.64 553.22,413.64 553.71,413.64 554.21,413.64 554.70,413.64 555.20,413.64 555.69,413.64 556.19,413.64 556.68,413.64 557.18,413.64 557.67,413.64 558.16,413.64 558.66,413.64 559.15,413.64 559.65,413.64 560.14,413.64 560.64,413.64 561.13,413.64 561.63,413.64 562.12,413.64 562.62,413.64 563.11,413.64 563.60,413.64 564.10,413.64 564.59,413.64 565.09,413.64 565.58,413.64 566.08,413.64 566.57,413.64 567.07,413.64 567.56,413.64 568.05,413.64 568.55,413.64 569.04,413.64 569.54,413.49 570.03,412.29 570.53,410.24 571.02,407.53 571.52,404.28 572.01,400.59 572.51,396.54 573.00,392.20 573.49,387.62 573.99,382.84 574.48,377.89 574.98,372.80 575.47,367.59 575.97,362.28 576.46,356.87 576.96,351.40 577.45,345.85 577.95,340.25 578.44,334.60 578.93,328.91 579.43,323.18 579.92,317.43 580.42,311.64 580.91,305.84 581.41,300.02 581.90,294.19 582.40,288.36 582.89,282.52 583.38,276.68 583.88,270.84 584.37,265.01 584.87,259.20 585.36,253.40 585.86,247.61 586.35,241.85 586.85,236.12 587.34,230.41 587.84,224.73 588.33,219.09 588.82,213.49 589.32,207.93 589.81,202.41 590.31,196.94 590.80,191.52 591.30,186.15 591.79,180.83 592.29,175.57 592.78,170.38 593.27,165.24 593.77,160.18 594.26,155.18 594.76,150.25 595.25,145.39 595.75,140.61 596.24,135.91 596.74,131.28 597.23,126.74 597.73,122.28 598.22,117.91 598.71,113.63 599.21,109.43 599.70,105.33 600.20,101.32 600.69,97.41 601.19,93.60 601.68,89.88 602.18,86.45 602.67,83.77 603.16,81.69 603.66,80.07 604.15,78.80 604.65,77.82 605.14,77.05 605.64,76.46 606.13,75.99 606.63,75.63 607.12,75.35 607.62,75.13 608.11,74.96 608.60,74.83 609.10,74.72 609.59,74.64 610.09,74.58 610.58,74.53 611.08,74.49 611.57,87.21 612.07,99.94 612.56,112.66 613.05,125.38 613.55,138.11 614.04,150.83 614.54,163.55 615.03,176.28 615.53,189.00 616.02,200.45 616.52,209.09 617.01,215.50 617.51,220.18 618.00,223.49 618.49,225.75 618.99,227.19 619.48,227.98 619.98,228.28 620.47,228.18 620.97,227.80 621.46,227.18 621.96,226.39 622.45,225.46 622.95,224.44 623.44,223.35 623.93,222.20 624.43,221.02 624.92,219.82 625.42,218.61 625.91,217.40 626.41,216.20 626.90,215.00 627.40,213.82 627.89,212.66 628.38,211.52 628.88,210.41 629.37,209.32 629.87,208.26 630.36,207.24 630.86,206.24 631.35,205.28 631.85,204.36 632.34,203.47 632.84,202.61 633.33,201.80 633.82,201.02 634.32,200.28 634.81,199.58 635.31,198.92 635.80,198.30 636.30,197.72 636.79,197.18 637.29,196.68 637.78,196.23 638.27,195.81 638.77,195.44 639.26,195.11 639.76,194.82 640.25,194.57 640.75,194.36 641.24,194.19 641.74,194.07 642.23,193.99 642.73,193.94 643.22,193.94 643.71,193.98 644.21,194.05 644.70,194.17 645.20,194.32 645.69,194.52 646.19,194.75 646.68,195.02 647.18,195.32 647.67,195.66 648.16,196.04 648.66,196.45 649.15,196.89 649.65,197.37 650.14,197.87 650.64,198.41 651.13,198.99 651.63,199.59 652.12,200.21 652.62,200.87 653.11,201.56 653.60,202.26 654.10,203.00 654.59,203.76 655.09,204.54 655.58,205.35 656.08,206.17 656.57,207.02 657.07,207.88 657.56,208.77 658.05,209.67 658.55,210.59 659.04,211.52 659.54,212.47 660.03,213.43 660.53,214.40 661.02,215.38 661.52,216.38 662.01,217.38 662.51,218.40 663.00,219.42 663.49,220.44 663.99,221.48 664.48,222.52 664.98,223.56 665.47,224.61 665.97,225.65 666.46,226.70 666.96,227.76 667.45,228.81 667.95,229.86 668.44,230.91 668.93,231.96 669.43,233.00 669.92,234.04 670.42,235.08 670.91,236.11 671.41,237.14 671.90,238.16 672.40,239.17 672.89,240.18 673.38,241.18 673.88,242.18 674.37,243.16 674.87,244.13 675.36,245.10 675.86,246.05 676.35,247.00 676.85,247.93 677.34,248.86 677.84,249.77 678.33,250.67 678.82,251.56 679.32,252.43 679.81,253.29 680.31,254.14 680.80,254.98 681.30,255.80 681.79,256.61 682.29,257.41 682.78,258.19 683.27,258.95 683.77,259.70 684.26,260.44 684.76,261.16 685.25,261.87 685.75,262.56 686.24,263.24 686.74,263.90 687.23,264.54 687.73,265.17 688.22,265.78 688.71,266.38 689.21,266.96 689.70,267.52 690.20,268.06 690.69,268.59 691.19,269.11 691.68,269.60 692.18,270.08 692.67,270.54 693.16,270.98 693.66,271.41 694.15,271.82 694.65,272.21 695.14,272.58 695.64,272.94 696.13,273.27 696.63,273.59 697.12,273.89 697.62,274.18 698.11,274.44 698.60,274.68 699.10,274.91 699.59,275.12 700.09,275.31 700.58,275.48 701.08,275.63 701.57,275.76 702.07,275.88 702.56,275.97 703.05,276.04 703.55,276.10 704.04,276.13 704.54,276.15 705.03,276.15 705.53,276.13 706.02,276.08 706.52,276.02 707.01,275.94 707.51,275.84 708.00,275.72 708.49,275.58 708.99,275.42 709.48,275.24 709.98,275.04 710.47,274.83 710.97,274.59 711.46,274.34 711.96,274.06 712.45,273.77 712.95,273.46 713.44,273.13 713.93,272.78 714.43,272.41 714.92,272.03 715.42,271.62 715.91,271.20 716.41,270.77 716.90,270.31 717.40,269.84 717.89,269.35 718.38,268.85 718.88,268.33 719.37,267.80 719.87,267.25 720.36,266.69 720.86,266.11 721.35,265.52 721.85,264.91 722.34,264.30 722.84,263.67 723.33,263.03 723.82,262.38 724.32,261.71 724.81,261.04 725.31,260.36 725.80,259.66 726.30,258.96 726.79,258.25 727.29,257.54 727.78,256.82 728.27,256.09 728.77,255.35 729.26,254.61 729.76,253.87 730.25,253.12 730.75,252.37 731.24,251.62 731.74,250.86 732.23,250.11 732.73,249.35 733.22,248.60 733.71,247.84 734.21,247.09 734.70,246.34 735.20,245.59 735.69,244.85 736.19,244.11 736.68,243.37 737.18,242.65 737.67,241.92 738.16,241.21 738.66,240.50 739.15,239.80 739.65,239.10 740.14,238.42 740.64,237.75 741.13,237.08 741.63,236.43 742.12,235.79 742.62,235.16 743.11,234.54 743.60,233.94 744.10,233.35 744.59,232.77 745.09,232.20 745.58,231.66 746.08,231.12 746.57,230.60 747.07,230.10 747.56,229.61 748.05,229.14 748.55,228.68 749.04,228.25 749.54,227.82 750.03,227.42 750.53,227.03 751.02,226.66 751.52,226.31 752.01,225.98 752.51,225.66 753.00,225.36 753.49,225.08 753.99,224.82 754.48,224.58 754.98,224.35 755.47,224.15 755.97,223.96 756.46,223.79 756.96,223.63 757.45,223.50 757.95,223.38 758.44,223.28 758.93,223.20 759.43,223.13"/>
<line x1="828" y1="126" x2="856" y2="126" stroke="#8a4fbf" stroke-width="3"/>
<text x="864" y="130" font-family="Arial" font-size="13">Mz</text>
</svg>