<svg xmlns="http://www.w3.org/2000/svg" width="920" height="520" viewBox="0 0 920 520">
<rect width="100%" height="100%" fill="white"/>
<text x="460" y="28" text-anchor="middle" font-family="Arial" font-size="20">Attitude Inner-Loop Body Rates</text>
<rect x="78" y="54" width="720" height="380" fill="#fafafa" stroke="#222"/>
<line x1="78" y1="434" x2="798" y2="434" stroke="#222"/>
<line x1="78" y1="54" x2="78" y2="434" stroke="#222"/>
<text x="438" y="492" text-anchor="middle" font-family="Arial" font-size="14">time (s)</text>
<text transform="translate(22,244) rotate(-90)" text-anchor="middle" font-family="Arial" font-size="14">rate (rad/s)</text>
<text x="78" y="456" text-anchor="middle" font-family="Arial" font-size="11">-1.56</text>
<text x="798" y="456" text-anchor="middle" font-family="Arial" font-size="11">27.56</text>
<text x="68" y="434" text-anchor="end" font-family="Arial" font-size="11">-0.19</text>
<text x="68" y="59" text-anchor="end" font-family="Arial" font-size="11">0.16</text>
<polyline fill="none" stroke="#2f6fbb" stroke-width="2.2" points="116.57,225.17 117.07,225.25 117.56,225.49 118.05,225.84 118.55,226.28 119.04,226.79 119.54,227.35 120.03,227.95 120.53,228.58 121.02,229.23 121.52,229.90 122.01,230.57 122.51,231.25 123.00,231.93 123.49,232.62 123.99,233.30 124.48,233.97 124.98,234.64 125.47,235.30 125.97,235.95 126.46,236.60 126.96,237.23 127.45,237.85 127.95,238.46 128.44,239.06 128.93,239.64 129.43,240.21 129.92,240.77 130.42,241.31 130.91,241.83 131.41,242.34 131.90,242.84 132.40,243.31 132.89,243.78 133.38,244.22 133.88,244.65 134.37,245.06 134.87,245.45 135.36,245.82 135.86,246.18 136.35,246.52 136.85,246.83 137.34,247.13 137.84,247.41 138.33,247.68 138.82,247.92 139.32,248.14 139.81,248.34 140.31,248.53 140.80,248.69 141.30,248.83 141.79,248.96 142.29,249.06 142.78,249.15 143.27,249.21 143.77,249.26 144.26,249.28 144.76,249.29 145.25,249.28 145.75,249.24 146.24,249.19 146.74,249.12 147.23,249.03 147.73,248.92 148.22,248.79 148.71,248.64 149.21,248.47 149.70,248.29 150.20,248.09 150.69,247.87 151.19,247.63 151.68,247.37 152.18,247.10 152.67,246.81 153.16,246.51 153.66,246.19 154.15,245.85 154.65,245.50 155.14,245.13 155.64,244.75 156.13,244.35 156.63,243.94 157.12,243.52 157.62,243.08 158.11,242.63 158.60,242.17 159.10,241.70 159.59,241.21 160.09,240.72 160.58,240.21 161.08,239.69 161.57,239.17 162.07,238.63 162.56,238.08 163.05,237.53 163.55,236.97 164.04,236.40 164.54,235.83 165.03,235.25 165.53,234.66 166.02,234.07 166.52,233.36 167.01,232.44 167.51,231.31 168.00,229.95 168.49,228.38 168.99,226.60 169.48,224.60 169.98,222.40 170.47,220.05 170.97,217.58 171.46,215.02 171.96,212.39 172.45,209.70 172.95,206.97 173.44,204.21 173.93,201.42 174.43,198.62 174.92,195.80 175.42,192.97 175.91,190.13 176.41,187.29 176.90,184.44 177.40,181.59 177.89,178.74 178.38,175.89 178.88,173.03 179.37,170.18 179.87,167.33 180.36,164.48 180.86,161.64 181.35,158.79 181.85,155.94 182.34,153.10 182.84,150.26 183.33,147.42 183.82,144.59 184.32,141.75 184.81,138.93 185.31,136.14 185.80,133.39 186.30,130.69 186.79,128.06 187.29,125.50 187.78,123.01 188.27,120.61 188.77,118.29 189.26,116.06 189.76,113.92 190.25,111.88 190.75,109.93 191.24,108.08 191.74,106.33 192.23,104.69 192.73,103.15 193.22,101.71 193.71,100.38 194.21,99.15 194.70,98.03 195.20,97.02 195.69,96.12 196.19,95.32 196.68,94.64 197.18,94.06 197.67,93.59 198.16,93.23 198.66,92.98 199.15,92.83 199.65,92.80 200.14,92.87 200.64,93.05 201.13,93.33 201.63,93.72 202.12,94.22 202.62,94.82 203.11,95.52 203.60,96.33 204.10,97.24 204.59,98.25 205.09,99.35 205.58,100.56 206.08,101.86 206.57,103.25 207.07,104.74 207.56,106.32 208.05,107.99 208.55,109.75 209.04,111.59 209.54,113.52 210.03,115.53 210.53,117.63 211.02,119.80 211.52,122.05 212.01,124.37 212.51,126.76 213.00,129.23 213.49,131.76 213.99,134.36 214.48,137.02 214.98,139.74 215.47,142.51 215.97,145.33 216.46,148.17 216.96,151.04 217.45,153.92 217.95,156.82 218.44,159.73 218.93,162.64 219.43,165.56 219.92,168.49 220.42,171.41 220.91,174.34 221.41,177.27 221.90,180.20 222.40,183.12 222.89,186.05 223.38,188.98 223.88,191.90 224.37,194.82 224.87,197.74 225.36,200.66 225.86,203.58 226.35,206.49 226.85,209.40 227.34,212.31 227.84,215.22 228.33,218.13 228.82,221.03 229.32,223.93 229.81,226.83 230.31,229.73 230.80,232.63 231.30,235.52 231.79,238.41 232.29,241.30 232.78,244.19 233.27,247.07 233.77,249.95 234.26,252.83 234.76,255.71 235.25,258.58 235.75,261.46 236.24,264.33 236.74,267.19 237.23,270.05 237.73,272.88 238.22,275.68 238.71,278.45 239.21,281.18 239.70,283.85 240.20,286.48 240.69,289.05 241.19,291.57 241.68,294.02 242.18,296.41 242.67,298.74 243.16,301.00 243.66,303.19 244.15,305.31 244.65,307.35 245.14,309.32 245.64,311.22 246.13,313.03 246.63,314.77 247.12,316.43 247.62,318.01 248.11,319.51 248.60,320.92 249.10,322.25 249.59,323.50 250.09,324.66 250.58,325.74 251.08,326.73 251.57,327.63 252.07,328.45 252.56,329.18 253.05,329.82 253.55,330.37 254.04,330.84 254.54,331.22 255.03,331.51 255.53,331.71 256.02,331.83 256.52,331.86 257.01,331.80 257.51,331.66 258.00,331.43 258.49,331.11 258.99,330.71 259.48,330.23 259.98,329.66 260.47,329.01 260.97,328.28 261.46,327.47 261.96,326.58 262.45,325.60 262.95,324.55 263.44,323.43 263.93,322.23 264.43,320.95 264.92,319.60 265.42,318.18 265.91,316.69 266.41,315.13 266.90,313.51 267.40,311.82 267.89,310.06 268.38,308.25 268.88,306.37 269.37,304.43 269.87,302.44 270.36,300.39 270.86,298.29 271.35,296.14 271.85,293.94 272.34,291.69 272.84,289.39 273.33,287.06 273.82,284.68 274.32,282.26 274.81,279.80 275.31,277.31 275.80,274.79 276.30,272.24 276.79,269.65 277.29,267.05 277.78,264.41 278.27,261.76 278.77,259.09 279.26,256.40 279.76,253.69 280.25,250.97 280.75,248.24 281.24,245.51 281.74,242.76 282.23,240.01 282.73,237.27 283.22,234.52 283.71,231.77 284.21,229.03 284.70,226.30 285.20,223.58 285.69,220.86 286.19,218.17 286.68,215.48 287.18,212.82 287.67,210.18 288.16,207.56 288.66,204.96 289.15,202.39 289.65,199.85 290.14,197.33 290.64,194.85 291.13,192.41 291.63,190.00 292.12,187.62 292.62,185.29 293.11,183.00 293.60,180.75 294.10,178.55 294.59,176.39 295.09,174.28 295.58,172.21 296.08,170.20 296.57,168.24 297.07,166.34 297.56,164.49 298.05,162.69 298.55,160.96 299.04,159.28 299.54,157.66 300.03,156.11 300.53,154.61 301.02,153.18 301.52,151.81 302.01,150.51 302.51,149.28 303.00,148.11 303.49,147.00 303.99,145.97 304.48,145.01 304.98,144.11 305.47,143.28 305.97,142.53 306.46,141.84 306.96,141.23 307.45,140.68 307.95,140.21 308.44,139.81 308.93,139.48 309.43,139.22 309.92,139.04 310.42,138.92 310.91,138.88 311.41,138.91 311.90,139.00 312.40,139.17 312.89,139.41 313.38,139.72 313.88,140.10 314.37,140.54 314.87,141.05 315.36,141.63 315.86,142.28 316.35,142.99 316.85,143.77 317.34,144.61 317.84,145.51 318.33,146.48 318.82,147.51 319.32,148.59 319.81,149.74 320.31,150.94 320.80,152.20 321.30,153.51 321.79,154.88 322.29,156.30 322.78,157.77 323.27,159.29 323.77,160.86 324.26,162.48 324.76,164.14 325.25,165.85 325.75,167.59 326.24,169.38 326.74,171.21 327.23,173.07 327.73,174.97 328.22,176.91 328.71,178.87 329.21,180.87 329.70,182.89 330.20,184.95 330.69,187.02 331.19,189.12 331.68,191.25 332.18,193.39 332.67,195.55 333.16,197.72 333.66,199.91 334.15,202.11 334.65,204.33 335.14,206.55 335.64,208.78 336.13,211.01 336.63,213.24 337.12,215.48 337.62,217.72 338.11,219.95 338.60,222.18 339.10,224.41 339.59,226.62 340.09,228.83 340.58,231.02 341.08,233.20 341.57,235.37 342.07,237.52 342.56,239.65 343.05,241.76 343.55,243.86 344.04,245.92 344.54,247.96 345.03,249.98 345.53,251.97 346.02,253.93 346.52,255.85 347.01,257.75 347.51,259.61 348.00,261.43 348.49,263.22 348.99,264.97 349.48,266.69 349.98,268.36 350.47,269.99 350.97,271.58 351.46,273.12 351.96,274.62 352.45,276.07 352.95,277.48 353.44,278.84 353.93,280.15 354.43,281.41 354.92,282.62 355.42,283.78 355.91,284.88 356.41,285.94 356.90,286.94 357.40,287.89 357.89,288.78 358.38,289.62 358.88,290.41 359.37,291.14 359.87,291.81 360.36,292.43 360.86,292.99 361.35,293.49 361.85,293.94 362.34,294.33 362.84,294.67 363.33,294.94 363.82,295.16 364.32,295.33 364.81,295.44 365.31,295.49 365.80,295.48 366.30,295.42 366.79,295.31 367.29,295.14 367.78,294.91 368.27,294.63 368.77,294.30 369.26,293.91 369.76,293.47 370.25,292.98 370.75,292.44 371.24,291.84 371.74,291.20 372.23,290.50 372.73,289.76 373.22,288.97 373.71,288.13 374.21,287.25 374.70,286.32 375.20,285.35 375.69,284.33 376.19,283.27 376.68,282.17 377.18,281.03 377.67,279.85 378.16,278.63 378.66,277.37 379.15,276.08 379.65,274.76 380.14,273.40 380.64,272.00 381.13,270.58 381.63,269.13 382.12,267.65 382.62,266.14 383.11,264.60 383.60,263.04 384.10,261.46 384.59,259.86 385.09,258.23 385.58,256.59 386.08,254.92 386.57,253.24 387.07,251.55 387.56,249.84 388.05,248.12 388.55,246.39 389.04,244.64 389.54,242.89 390.03,241.14 390.53,239.37 391.02,237.61 391.52,235.84 392.01,234.07 392.51,232.29 393.00,230.52 393.49,228.76 393.99,226.99 394.48,225.24 394.98,223.48 395.47,221.74 395.97,220.01 396.46,218.28 396.96,216.57 397.45,214.87 397.95,213.19 398.44,211.52 398.93,209.87 399.43,208.23 399.92,206.62 400.42,205.03 400.91,203.45 401.41,201.90 401.90,200.38 402.40,198.87 402.89,197.40 403.38,195.95 403.88,194.53 404.37,193.13 404.87,191.77 405.36,190.44 405.86,189.14 406.35,187.87 406.85,186.63 407.34,185.43 407.84,184.26 408.33,183.13 408.82,182.03 409.32,180.97 409.81,179.95 410.31,178.97 410.80,178.02 411.30,177.12 411.79,176.25 412.29,175.42 412.78,174.64 413.27,173.89 413.77,173.19 414.26,172.53 414.76,171.91 415.25,171.33 415.75,170.80 416.24,170.31 416.74,169.86 417.23,169.46 417.73,169.09 418.22,168.77 418.71,168.50 419.21,168.27 419.70,168.08 420.20,167.94 420.69,167.83 421.19,167.78 421.68,167.76 422.18,167.79 422.67,167.86 423.16,167.97 423.66,168.12 424.15,168.32 424.65,168.56 425.14,168.84 425.64,169.15 426.13,169.51 426.63,169.91 427.12,170.35 427.62,170.83 428.11,171.34 428.60,171.89 429.10,172.48 429.59,173.11 430.09,173.77 430.58,174.47 431.08,175.20 431.57,175.96 432.07,176.76 432.56,177.59 433.05,178.45 433.55,179.34 434.04,180.26 434.54,181.21 435.03,182.19 435.53,183.20 436.02,184.23 436.52,185.29 437.01,186.37 437.51,187.48 438.00,188.61 438.49,189.85 438.99,191.32 439.48,193.00 439.98,194.89 440.47,197.00 440.97,199.29 441.46,201.72 441.96,204.26 442.45,206.89 442.95,209.58 443.44,212.32 443.93,215.10 444.43,217.91 444.92,220.74 445.42,223.59 445.91,226.45 446.41,229.32 446.90,232.19 447.40,235.07 447.89,237.96 448.38,240.84 448.88,243.73 449.37,246.61 449.87,249.49 450.36,252.38 450.86,255.26 451.35,258.14 451.85,261.01 452.34,263.89 452.84,266.76 453.33,269.63 453.82,272.50 454.32,275.36 454.81,278.23 455.31,281.09 455.80,283.95 456.30,286.80 456.79,289.65 457.29,292.50 457.78,295.35 458.27,298.20 458.77,301.04 459.26,303.88 459.76,306.72 460.25,309.55 460.75,312.38 461.24,315.21 461.74,318.04 462.23,320.87 462.73,323.69 463.22,326.51 463.71,329.33 464.21,332.14 464.70,334.96 465.20,337.77 465.69,340.58 466.19,343.39 466.68,346.19 467.18,348.99 467.67,351.80 468.16,354.59 468.66,357.39 469.15,360.18 469.65,362.98 470.14,365.77 470.64,368.55 471.13,371.34 471.63,374.12 472.12,376.91 472.62,379.69 473.11,382.45 473.60,385.16 474.10,387.80 474.59,390.36 475.09,392.82 475.58,395.17 476.08,397.39 476.57,399.49 477.07,401.45 477.56,403.28 478.05,404.97 478.55,406.51 479.04,407.90 479.54,409.15 480.03,410.24 480.53,411.18 481.02,411.97 481.52,412.61 482.01,413.10 482.51,413.43 483.00,413.61 483.49,413.64 483.99,413.52 484.48,413.25 484.98,412.82 485.47,412.25 485.97,411.53 486.46,410.66 486.96,409.64 487.45,408.48 487.95,407.18 488.44,405.74 488.93,404.16 489.43,402.44 489.92,400.58 490.42,398.59 490.91,396.47 491.41,394.23 491.90,391.85 492.40,389.36 492.89,386.75 493.38,384.05 493.88,381.29 494.37,378.47 494.87,375.61 495.36,372.73 495.86,369.82 496.35,366.89 496.85,363.94 497.34,360.99 497.84,358.03 498.33,355.07 498.82,352.10 499.32,349.13 499.81,346.16 500.31,343.19 500.80,340.21 501.30,337.24 501.79,334.27 502.29,331.30 502.78,328.33 503.27,325.37 503.77,322.40 504.26,319.44 504.76,316.48 505.25,313.51 505.75,310.56 506.24,307.60 506.74,304.64 507.23,301.69 507.73,298.74 508.22,295.79 508.71,292.84 509.21,289.89 509.70,286.95 510.20,284.01 510.69,281.07 511.19,278.13 511.68,275.19 512.18,272.25 512.67,269.32 513.16,266.39 513.66,263.46 514.15,260.53 514.65,257.60 515.14,254.67 515.64,251.75 516.13,248.82 516.63,245.90 517.12,242.98 517.62,240.06 518.11,237.14 518.60,234.23 519.10,231.31 519.59,228.40 520.09,225.49 520.58,222.58 521.08,219.67 521.57,216.76 522.07,213.86 522.56,210.95 523.05,208.05 523.55,205.15 524.04,202.25 524.54,199.35 525.03,196.46 525.53,193.57 526.02,190.68 526.52,187.79 527.01,184.90 527.51,182.01 528.00,179.13 528.49,176.25 528.99,173.37 529.48,170.50 529.98,167.62 530.47,164.75 530.97,161.88 531.46,159.01 531.96,156.15 532.45,153.29 532.95,150.43 533.44,147.57 533.93,144.71 534.43,141.86 534.92,139.01 535.42,136.17 535.91,133.32 536.41,130.48 536.90,127.64 537.40,124.80 537.89,121.97 538.38,119.14 538.88,116.31 539.37,113.50 539.87,110.73 540.36,108.02 540.86,105.37 541.35,102.80 541.85,100.32 542.34,97.93 542.84,95.65 543.33,93.46 543.82,91.39 544.32,89.42 544.81,87.57 545.31,85.84 545.80,84.22 546.30,82.73 546.79,81.35 547.29,80.10 547.78,78.97 548.27,77.96 548.77,77.07 549.26,76.31 549.76,75.68 550.25,75.16 550.75,74.78 551.24,74.51 551.74,74.37 552.23,74.36 552.73,74.46 553.22,74.69 553.71,75.04 554.21,75.52 554.70,76.11 555.20,76.82 555.69,77.65 556.19,78.59 556.68,79.65 557.18,80.83 557.67,82.12 558.16,83.52 558.66,85.03 559.15,86.65 559.65,88.37 560.14,90.20 560.64,92.13 561.13,94.16 561.63,96.29 562.12,98.52 562.62,100.84 563.11,103.26 563.60,105.76 564.10,108.36 564.59,111.03 565.09,113.77 565.58,116.57 566.08,119.41 566.57,122.28 567.07,125.17 567.56,128.08 568.05,131.01 568.55,133.94 569.04,136.88 569.54,139.83 570.03,142.78 570.53,145.73 571.02,148.68 571.52,151.63 572.01,154.59 572.51,157.54 573.00,160.48 573.49,163.43 573.99,166.37 574.48,169.32 574.98,172.25 575.47,175.19 575.97,178.12 576.46,181.06 576.96,183.98 577.45,186.91 577.95,189.83 578.44,192.75 578.93,195.66 579.43,198.58 579.92,201.49 580.42,204.39 580.91,207.30 581.41,210.20 581.90,213.09 582.40,215.99 582.89,218.88 583.38,221.76 583.88,224.65 584.37,227.53 584.87,230.41 585.36,233.28 585.86,236.16 586.35,239.03 586.85,241.89 587.34,244.76 587.84,247.62 588.33,250.48 588.82,253.33 589.32,256.19 589.81,259.04 590.31,261.88 590.80,264.73 591.30,267.57 591.79,270.41 592.29,273.25 592.78,276.08 593.27,278.92 593.77,281.75 594.26,284.58 594.76,287.40 595.25,290.22 595.75,293.05 596.24,295.87 596.74,298.68 597.23,301.50 597.73,304.29 598.22,307.05 598.71,309.78 599.21,312.45 599.70,315.05 600.20,317.60 600.69,320.07 601.19,322.46 601.68,324.77 602.18,327.00 602.67,329.15 603.16,331.20 603.66,333.16 604.15,335.03 604.65,336.81 605.14,338.49 605.64,340.07 606.13,341.55 606.63,342.93 607.12,344.22 607.62,345.40 608.11,346.48 608.60,347.45 609.10,348.32 609.59,349.09 610.09,349.76 610.58,350.32 611.08,350.78 611.57,351.13 612.07,351.38 612.56,351.53 613.05,351.57 613.55,351.51 614.04,351.35 614.54,351.08 615.03,350.71 615.53,350.25 616.02,349.68 616.52,349.01 617.01,348.24 617.51,347.38 618.00,346.42 618.49,345.37 618.99,344.22 619.48,342.98 619.98,341.64 620.47,340.22 620.97,338.71 621.46,337.11 621.96,335.43 622.45,333.67 622.95,331.82 623.44,329.89 623.93,327.89 624.43,325.81 624.92,323.65 625.42,321.43 625.91,319.13 626.41,316.77 626.90,314.34 627.40,311.85 627.89,309.29 628.38,306.68 628.88,304.02 629.37,301.30 629.87,298.53 630.36,295.72 630.86,292.88 631.35,290.02 631.85,287.14 632.34,284.25 632.84,281.34 633.33,278.44 633.82,275.52 634.32,272.61 634.81,269.69 635.31,266.77 635.80,263.85 636.30,260.93 636.79,258.01 637.29,255.09 637.78,252.17 638.27,249.26 638.77,246.35 639.26,243.43 639.76,240.52 640.25,237.62 640.75,234.71 641.24,231.81 641.74,228.91 642.23,226.01 642.73,223.11 643.22,220.21 643.71,217.32 644.21,214.43 644.70,211.54 645.20,208.66 645.69,205.77 646.19,202.89 646.68,200.01 647.18,197.13 647.67,194.25 648.16,191.39 648.66,188.53 649.15,185.70 649.65,182.89 650.14,180.12 650.64,177.39 651.13,174.70 651.63,172.06 652.12,169.47 652.62,166.93 653.11,164.45 653.60,162.02 654.10,159.65 654.59,157.35 655.09,155.11 655.58,152.93 656.08,150.82 656.57,148.78 657.07,146.81 657.56,144.91 658.05,143.08 658.55,141.33 659.04,139.65 659.54,138.05 660.03,136.53 660.53,135.09 661.02,133.72 661.52,132.43 662.01,131.23 662.51,130.10 663.00,129.06 663.49,128.10 663.99,127.23 664.48,126.43 664.98,125.72 665.47,125.10 665.97,124.55 666.46,124.09 666.96,123.72 667.45,123.43 667.95,123.22 668.44,123.10 668.93,123.06 669.43,123.10 669.92,123.23 670.42,123.43 670.91,123.72 671.41,124.10 671.90,124.55 672.40,125.08 672.89,125.69 673.38,126.38 673.88,127.14 674.37,127.98 674.87,128.90 675.36,129.89 675.86,130.96 676.35,132.09 676.85,133.30 677.34,134.58 677.84,135.92 678.33,137.34 678.82,138.81 679.32,140.36 679.81,141.96 680.31,143.62 680.80,145.35 681.30,147.13 681.79,148.97 682.29,150.86 682.78,152.80 683.27,154.79 683.77,156.84 684.26,158.93 684.76,161.06 685.25,163.24 685.75,165.46 686.24,167.72 686.74,170.01 687.23,172.34 687.73,174.71 688.22,177.10 688.71,179.53 689.21,181.98 689.70,184.45 690.20,186.95 690.69,189.47 691.19,192.01 691.68,194.56 692.18,197.13 692.67,199.71 693.16,202.30 693.66,204.89 694.15,207.50 694.65,210.10 695.14,212.71 695.64,215.32 696.13,217.92 696.63,220.52 697.12,223.11 697.62,225.69 698.11,228.26 698.60,230.82 699.10,233.36 699.59,235.89 700.09,238.40 700.58,240.88 701.08,243.34 701.57,245.78 702.07,248.19 702.56,250.57 703.05,252.92 703.55,255.24 704.04,257.52 704.54,259.77 705.03,261.98 705.53,264.16 706.02,266.29 706.52,268.38 707.01,270.42 707.51,272.42 708.00,274.37 708.49,276.28 708.99,278.13 709.48,279.94 709.98,281.69 710.47,283.39 710.97,285.04 711.46,286.63 711.96,288.16 712.45,289.64 712.95,291.05 713.44,292.41 713.93,293.71 714.43,294.95 714.92,296.12 715.42,297.23 715.91,298.28 716.41,299.27 716.90,300.19 717.40,301.05 717.89,301.84 718.38,302.56 718.88,303.22 719.37,303.82 719.87,304.34 720.36,304.80 720.86,305.20 721.35,305.52 721.85,305.79 722.34,305.98 722.84,306.11 723.33,306.17 723.82,306.16 724.32,306.09 724.81,305.95 725.31,305.75 725.80,305.49 726.30,305.16 726.79,304.76 727.29,304.30 727.78,303.78 728.27,303.20 728.77,302.56 729.26,301.86 729.76,301.09 730.25,300.27 730.75,299.39 731.24,298.46 731.74,297.46 732.23,296.42 732.73,295.32 733.22,294.16 733.71,292.96 734.21,291.70 734.70,290.40 735.20,289.05 735.69,287.65 736.19,286.20 736.68,284.72 737.18,283.19 737.67,281.62 738.16,280.01 738.66,278.36 739.15,276.67 739.65,274.95 740.14,273.20 740.64,271.41 741.13,269.59 741.63,267.75 742.12,265.88 742.62,263.98 743.11,262.06 743.60,260.11 744.10,258.15 744.59,256.16 745.09,254.16 745.58,252.14 746.08,250.11 746.57,248.07 747.07,246.02 747.56,243.96 748.05,241.89 748.55,239.81 749.04,237.74 749.54,235.66 750.03,233.58 750.53,231.50 751.02,229.42 751.52,227.35 752.01,225.29 752.51,223.24 753.00,221.19 753.49,219.16 753.99,217.14 754.48,215.13 754.98,213.14 755.47,211.17 755.97,209.22 756.46,207.29 756.96,205.38 757.45,203.49 757.95,201.63 758.44,199.80 758.93,197.99 759.43,196.22"/>
<line x1="828" y1="78" x2="856" y2="78" stroke="#2f6fbb" stroke-width="3"/>
<text x="864" y="82" font-family="Arial" font-size="13">p</text>
<polyline fill="none" stroke="#258a45" stroke-width="2.2" points="116.57,225.17 117.07,225.10 117.56,224.93 118.05,224.67 118.55,224.35 119.04,223.98 119.54,223.57 120.03,223.13 120.53,222.67 121.02,222.19 121.52,221.70 122.01,221.21 122.51,220.71 123.00,220.20 123.49,219.70 123.99,219.20 124.48,218.70 124.98,218.20 125.47,217.71 125.97,217.23 126.46,216.75 126.96,216.27 127.45,215.81 127.95,215.35 128.44,214.90 128.93,214.46 129.43,214.03 129.92,213.61 130.42,213.20 130.91,212.79 131.41,212.40 131.90,212.02 132.40,211.65 132.89,211.29 133.38,210.95 133.88,210.61 134.37,210.29 134.87,209.97 135.36,209.67 135.86,209.39 136.35,209.11 136.85,208.85 137.34,208.60 137.84,208.37 138.33,208.14 138.82,207.93 139.32,207.74 139.81,207.56 140.31,207.39 140.80,207.23 141.30,207.09 141.79,206.96 142.29,206.85 142.78,206.75 143.27,206.66 143.77,206.59 144.26,206.54 144.76,206.49 145.25,206.46 145.75,206.45 146.24,206.45 146.74,206.46 147.23,206.48 147.73,206.52 148.22,206.58 148.71,206.64 149.21,206.72 149.70,206.82 150.20,206.93 150.69,207.05 151.19,207.18 151.68,207.33 152.18,207.48 152.67,207.66 153.16,207.84 153.66,208.04 154.15,208.24 154.65,208.46 155.14,208.70 155.64,208.94 156.13,209.19 156.63,209.46 157.12,209.73 157.62,210.02 158.11,210.32 158.60,210.62 159.10,210.94 159.59,211.27 160.09,211.60 160.58,211.95 161.08,212.30 161.57,212.66 162.07,213.03 162.56,213.41 163.05,213.79 163.55,214.18 164.04,214.58 164.54,214.98 165.03,215.39 165.53,215.81 166.02,216.23 166.52,216.66 167.01,217.09 167.51,217.53 168.00,217.97 168.49,218.42 168.99,218.86 169.48,219.32 169.98,219.77 170.47,220.23 170.97,220.69 171.46,221.15 171.96,221.61 172.45,222.07 172.95,222.54 173.44,223.00 173.93,223.47 174.43,223.93 174.92,224.40 175.42,224.86 175.91,225.32 176.41,225.78 176.90,226.24 177.40,226.70 177.89,227.15 178.38,227.60 178.88,228.04 179.37,228.49 179.87,228.93 180.36,229.36 180.86,229.79 181.35,230.22 181.85,230.63 182.34,231.05 182.84,231.46 183.33,231.86 183.82,232.25 184.32,232.64 184.81,233.02 185.31,233.40 185.80,233.77 186.30,234.13 186.79,234.48 187.29,234.82 187.78,235.15 188.27,235.48 188.77,235.79 189.26,236.10 189.76,236.40 190.25,236.69 190.75,236.97 191.24,237.23 191.74,237.49 192.23,237.74 192.73,237.98 193.22,238.21 193.71,238.42 194.21,238.63 194.70,238.82 195.20,239.00 195.69,239.18 196.19,239.34 196.68,239.49 197.18,239.62 197.67,239.75 198.16,239.86 198.66,239.97 199.15,240.06 199.65,240.14 200.14,240.20 200.64,240.26 201.13,240.30 201.63,240.33 202.12,240.35 202.62,240.36 203.11,240.36 203.60,240.35 204.10,240.32 204.59,240.28 205.09,240.23 205.58,240.17 206.08,240.10 206.57,240.01 207.07,239.92 207.56,239.81 208.05,239.69 208.55,239.57 209.04,239.43 209.54,239.28 210.03,239.12 210.53,238.95 211.02,238.77 211.52,238.58 212.01,238.38 212.51,238.17 213.00,237.95 213.49,237.72 213.99,237.48 214.48,237.23 214.98,236.98 215.47,236.71 215.97,236.37 216.46,235.88 216.96,235.23 217.45,234.44 217.95,233.50 218.44,232.41 218.93,231.18 219.43,229.85 219.92,228.43 220.42,226.96 220.91,225.43 221.41,223.87 221.90,222.29 222.40,220.69 222.89,219.07 223.38,217.46 223.88,215.84 224.37,214.22 224.87,212.61 225.36,211.01 225.86,209.42 226.35,207.84 226.85,206.27 227.34,204.73 227.84,203.20 228.33,201.69 228.82,200.20 229.32,198.73 229.81,197.28 230.31,195.86 230.80,194.46 231.30,193.09 231.79,191.75 232.29,190.43 232.78,189.15 233.27,187.89 233.77,186.66 234.26,185.47 234.76,184.31 235.25,183.18 235.75,182.08 236.24,181.02 236.74,180.00 237.23,179.01 237.73,178.05 238.22,177.14 238.71,176.26 239.21,175.42 239.70,174.62 240.20,173.85 240.69,173.13 241.19,172.44 241.68,171.80 242.18,171.20 242.67,170.64 243.16,170.12 243.66,169.64 244.15,169.20 244.65,168.81 245.14,168.45 245.64,168.14 246.13,167.88 246.63,167.65 247.12,167.47 247.62,167.33 248.11,167.23 248.60,167.18 249.10,167.16 249.59,167.19 250.09,167.26 250.58,167.38 251.08,167.53 251.57,167.73 252.07,167.97 252.56,168.25 253.05,168.57 253.55,168.93 254.04,169.33 254.54,169.78 255.03,170.26 255.53,170.77 256.02,171.33 256.52,171.93 257.01,172.56 257.51,173.23 258.00,173.93 258.49,174.68 258.99,175.45 259.48,176.26 259.98,177.11 260.47,177.98 260.97,178.89 261.46,179.83 261.96,180.80 262.45,181.80 262.95,182.83 263.44,183.89 263.93,184.98 264.43,186.09 264.92,187.23 265.42,188.39 265.91,189.57 266.41,190.78 266.90,192.01 267.40,193.26 267.89,194.54 268.38,195.83 268.88,197.13 269.37,198.46 269.87,199.80 270.36,201.16 270.86,202.53 271.35,203.91 271.85,205.31 272.34,206.71 272.84,208.13 273.33,209.55 273.82,210.98 274.32,212.42 274.81,213.86 275.31,215.31 275.80,216.76 276.30,218.21 276.79,219.67 277.29,221.12 277.78,222.57 278.27,224.03 278.77,225.47 279.26,226.92 279.76,228.35 280.25,229.79 280.75,231.21 281.24,232.63 281.74,234.03 282.23,235.43 282.73,236.81 283.22,238.18 283.71,239.54 284.21,240.89 284.70,242.22 285.20,243.53 285.69,244.82 286.19,246.10 286.68,247.36 287.18,248.60 287.67,249.81 288.16,251.01 288.66,252.18 289.15,253.33 289.65,254.46 290.14,255.56 290.64,256.63 291.13,257.68 291.63,258.71 292.12,259.70 292.62,260.67 293.11,261.60 293.60,262.51 294.10,263.38 294.59,264.23 295.09,265.04 295.58,265.82 296.08,266.57 296.57,267.28 297.07,267.96 297.56,268.61 298.05,269.22 298.55,269.79 299.04,270.33 299.54,270.83 300.03,271.29 300.53,271.72 301.02,272.11 301.52,272.47 302.01,272.78 302.51,273.06 303.00,273.30 303.49,273.50 303.99,273.66 304.48,273.79 304.98,273.88 305.47,273.92 305.97,273.93 306.46,273.90 306.96,273.83 307.45,273.73 307.95,273.58 308.44,273.40 308.93,273.18 309.43,272.92 309.92,272.62 310.42,272.29 310.91,271.92 311.41,271.51 311.90,271.07 312.40,270.59 312.89,270.07 313.38,269.52 313.88,268.93 314.37,268.31 314.87,267.66 315.36,266.97 315.86,266.25 316.35,265.50 316.85,264.71 317.34,263.89 317.84,263.04 318.33,262.17 318.82,261.26 319.32,260.32 319.81,259.36 320.31,258.36 320.80,257.35 321.30,256.30 321.79,255.23 322.29,254.13 322.78,253.01 323.27,251.87 323.77,250.71 324.26,249.52 324.76,248.31 325.25,247.09 325.75,245.84 326.24,244.58 326.74,243.29 327.23,242.00 327.73,240.68 328.22,239.35 328.71,238.01 329.21,236.66 329.70,235.29 330.20,233.91 330.69,232.52 331.19,231.12 331.68,229.72 332.18,228.30 332.67,226.88 333.16,225.46 333.66,224.03 334.15,222.59 334.65,221.16 335.14,219.72 335.64,218.28 336.13,216.84 336.63,215.40 337.12,213.96 337.62,212.53 338.11,211.10 338.60,209.67 339.10,208.25 339.59,206.84 340.09,205.43 340.58,204.04 341.08,202.65 341.57,201.27 342.07,199.90 342.56,198.55 343.05,197.20 343.55,195.87 344.04,194.56 344.54,193.26 345.03,191.98 345.53,190.71 346.02,189.46 346.52,188.23 347.01,187.02 347.51,185.83 348.00,184.66 348.49,183.52 348.99,182.39 349.48,181.29 349.98,180.22 350.47,179.16 350.97,178.14 351.46,177.14 351.96,176.17 352.45,175.22 352.95,174.30 353.44,173.42 353.93,172.56 354.43,171.73 354.92,170.93 355.42,170.17 355.91,169.43 356.41,168.73 356.90,168.06 357.40,167.43 357.89,166.83 358.38,166.26 358.88,165.73 359.37,165.24 359.87,164.78 360.36,164.36 360.86,163.97 361.35,163.62 361.85,163.31 362.34,163.04 362.84,162.80 363.33,162.60 363.82,162.44 364.32,162.32 364.81,162.24 365.31,162.19 365.80,162.19 366.30,162.22 366.79,162.29 367.29,162.40 367.78,162.55 368.27,162.74 368.77,162.97 369.26,163.23 369.76,163.53 370.25,163.87 370.75,164.25 371.24,164.67 371.74,165.13 372.23,165.62 372.73,166.15 373.22,166.71 373.71,167.31 374.21,167.95 374.70,168.62 375.20,169.33 375.69,170.07 376.19,170.84 376.68,171.65 377.18,172.49 377.67,173.36 378.16,174.27 378.66,175.20 379.15,176.17 379.65,177.17 380.14,178.19 380.64,179.24 381.13,180.32 381.63,181.43 382.12,182.56 382.62,183.72 383.11,184.90 383.60,186.11 384.10,187.34 384.59,188.59 385.09,189.86 385.58,191.15 386.08,192.46 386.57,193.79 387.07,195.14 387.56,196.51 388.05,197.89 388.55,199.28 389.04,200.69 389.54,202.11 390.03,203.54 390.53,204.99 391.02,206.44 391.52,207.90 392.01,209.37 392.51,210.85 393.00,212.33 393.49,213.82 393.99,215.31 394.48,216.80 394.98,218.30 395.47,219.80 395.97,221.30 396.46,222.79 396.96,224.29 397.45,225.78 397.95,227.26 398.44,228.74 398.93,230.22 399.43,231.69 399.92,233.15 400.42,234.60 400.91,236.04 401.41,237.47 401.90,238.89 402.40,240.30 402.89,241.69 403.38,243.07 403.88,244.44 404.37,245.79 404.87,247.12 405.36,248.43 405.86,249.72 406.35,251.00 406.85,252.25 407.34,253.49 407.84,254.70 408.33,255.89 408.82,257.06 409.32,258.20 409.81,259.32 410.31,260.42 410.80,261.49 411.30,262.53 411.79,263.55 412.29,264.53 412.78,265.50 413.27,266.43 413.77,267.33 414.26,268.21 414.76,269.05 415.25,269.87 415.75,270.65 416.24,271.40 416.74,272.12 417.23,272.81 417.73,273.47 418.22,274.10 418.71,274.69 419.21,275.25 419.70,275.78 420.20,276.28 420.69,276.74 421.19,277.17 421.68,277.57 422.18,277.93 422.67,278.26 423.16,278.55 423.66,278.82 424.15,279.04 424.65,279.24 425.14,279.40 425.64,279.53 426.13,279.62 426.63,279.69 427.12,279.71 427.62,279.71 428.11,279.67 428.60,279.60 429.10,279.50 429.59,279.37 430.09,279.20 430.58,279.00 431.08,278.77 431.57,278.51 432.07,278.22 432.56,277.90 433.05,277.55 433.55,277.17 434.04,276.76 434.54,276.32 435.03,275.86 435.53,275.36 436.02,274.84 436.52,274.29 437.01,273.71 437.51,273.11 438.00,272.49 438.49,271.83 438.99,271.16 439.48,270.46 439.98,269.73 440.47,268.98 440.97,268.21 441.46,267.42 441.96,266.61 442.45,265.77 442.95,264.91 443.44,264.03 443.93,263.14 444.43,262.22 444.92,261.29 445.42,260.34 445.91,259.37 446.41,258.39 446.90,257.39 447.40,256.38 447.89,255.35 448.38,254.31 448.88,253.26 449.37,252.20 449.87,251.12 450.36,250.04 450.86,248.95 451.35,247.84 451.85,246.74 452.34,245.62 452.84,244.50 453.33,243.37 453.82,242.24 454.32,241.11 454.81,239.97 455.31,238.83 455.80,237.68 456.30,236.54 456.79,235.40 457.29,234.26 457.78,233.12 458.27,231.98 458.77,230.84 459.26,229.71 459.76,228.58 460.25,227.46 460.75,226.35 461.24,225.24 461.74,224.13 462.23,223.04 462.73,221.95 463.22,220.88 463.71,219.81 464.21,218.76 464.70,217.71 465.20,216.68 465.69,215.67 466.19,214.66 466.68,213.67 467.18,212.69 467.67,211.73 468.16,210.79 468.66,209.86 469.15,208.95 469.65,208.05 470.14,207.18 470.64,206.32 471.13,205.49 471.63,204.67 472.12,203.87 472.62,203.10 473.11,202.35 473.60,201.61 474.10,200.91 474.59,200.22 475.09,199.56 475.58,198.92 476.08,198.31 476.57,197.72 477.07,197.15 477.56,196.61 478.05,196.10 478.55,195.61 479.04,195.15 479.54,194.72 480.03,194.32 480.53,193.94 481.02,193.58 481.52,193.26 482.01,192.97 482.51,192.70 483.00,192.46 483.49,192.25 483.99,192.06 484.48,191.91 484.98,191.78 485.47,191.69 485.97,191.62 486.46,191.58 486.96,191.57 487.45,191.59 487.95,191.63 488.44,191.71 488.93,191.81 489.43,191.94 489.92,192.10 490.42,192.29 490.91,192.51 491.41,192.75 491.90,193.02 492.40,193.32 492.89,193.65 493.38,194.00 493.88,194.38 494.37,194.79 494.87,195.22 495.36,195.68 495.86,196.16 496.35,196.67 496.85,197.21 497.34,197.76 497.84,198.35 498.33,198.95 498.82,199.59 499.32,200.24 499.81,200.92 500.31,201.62 500.80,202.34 501.30,203.08 501.79,203.84 502.29,204.63 502.78,205.43 503.27,206.25 503.77,207.10 504.26,207.96 504.76,208.84 505.25,209.73 505.75,210.65 506.24,211.58 506.74,212.52 507.23,213.48 507.73,214.46 508.22,215.45 508.71,216.45 509.21,217.46 509.70,218.49 510.20,219.53 510.69,220.57 511.19,221.63 511.68,222.70 512.18,223.77 512.67,224.92 513.16,226.22 513.66,227.67 514.15,229.24 514.65,230.91 515.14,232.66 515.64,234.47 516.13,236.32 516.63,238.21 517.12,240.12 517.62,242.05 518.11,243.99 518.60,245.95 519.10,247.91 519.59,249.87 520.09,251.84 520.58,253.81 521.08,255.78 521.57,257.75 522.07,259.71 522.56,261.66 523.05,263.59 523.55,265.50 524.04,267.39 524.54,269.26 525.03,271.11 525.53,272.92 526.02,274.71 526.52,276.46 527.01,278.18 527.51,279.87 528.00,281.51 528.49,283.13 528.99,284.70 529.48,286.23 529.98,287.73 530.47,289.18 530.97,290.58 531.46,291.95 531.96,293.26 532.45,294.53 532.95,295.75 533.44,296.93 533.93,298.05 534.43,299.12 534.92,300.15 535.42,301.12 535.91,302.04 536.41,302.90 536.90,303.71 537.40,304.47 537.89,305.17 538.38,305.82 538.88,306.41 539.37,306.94 539.87,307.42 540.36,307.84 540.86,308.21 541.35,308.51 541.85,308.76 542.34,308.95 542.84,309.09 543.33,309.16 543.82,309.18 544.32,309.14 544.81,309.04 545.31,308.89 545.80,308.67 546.30,308.40 546.79,308.07 547.29,307.69 547.78,307.25 548.27,306.76 548.77,306.20 549.26,305.60 549.76,304.94 550.25,304.22 550.75,303.45 551.24,302.63 551.74,301.76 552.23,300.84 552.73,299.86 553.22,298.84 553.71,297.76 554.21,296.64 554.70,295.47 555.20,294.26 555.69,292.99 556.19,291.69 556.68,290.34 557.18,288.95 557.67,287.52 558.16,286.04 558.66,284.53 559.15,282.98 559.65,281.39 560.14,279.77 560.64,278.11 561.13,276.42 561.63,274.70 562.12,272.95 562.62,271.17 563.11,269.36 563.60,267.53 564.10,265.67 564.59,263.78 565.09,261.88 565.58,259.96 566.08,258.03 566.57,256.09 567.07,254.15 567.56,252.20 568.05,250.24 568.55,248.29 569.04,246.33 569.54,244.37 570.03,242.41 570.53,240.44 571.02,238.48 571.52,236.52 572.01,234.56 572.51,232.59 573.00,230.63 573.49,228.67 573.99,226.70 574.48,224.74 574.98,222.77 575.47,220.81 575.97,218.84 576.46,216.87 576.96,214.91 577.45,212.95 577.95,211.00 578.44,209.06 578.93,207.13 579.43,205.23 579.92,203.33 580.42,201.47 580.91,199.62 581.41,197.79 581.90,196.00 582.40,194.23 582.89,192.48 583.38,190.77 583.88,189.09 584.37,187.44 584.87,185.82 585.36,184.24 585.86,182.70 586.35,181.19 586.85,179.72 587.34,178.29 587.84,176.90 588.33,175.55 588.82,174.24 589.32,172.97 589.81,171.75 590.31,170.57 590.80,169.43 591.30,168.35 591.79,167.30 592.29,166.31 592.78,165.36 593.27,164.46 593.77,163.61 594.26,162.81 594.76,162.05 595.25,161.35 595.75,160.70 596.24,160.10 596.74,159.54 597.23,159.04 597.73,158.59 598.22,158.20 598.71,157.85 599.21,157.55 599.70,157.31 600.20,157.12 600.69,156.98 601.19,156.89 601.68,156.86 602.18,156.87 602.67,156.94 603.16,157.06 603.66,157.23 604.15,157.45 604.65,157.72 605.14,158.04 605.64,158.41 606.13,158.83 606.63,159.30 607.12,159.82 607.62,160.38 608.11,161.00 608.60,161.66 609.10,162.36 609.59,163.11 610.09,163.91 610.58,164.74 611.08,165.63 611.57,166.55 612.07,167.52 612.56,168.52 613.05,169.57 613.55,170.65 614.04,171.77 614.54,172.93 615.03,174.12 615.53,175.34 616.02,176.60 616.52,177.89 617.01,179.21 617.51,180.56 618.00,181.93 618.49,183.34 618.99,184.77 619.48,186.22 619.98,187.70 620.47,189.19 620.97,190.71 621.46,192.25 621.96,193.81 622.45,195.39 622.95,196.98 623.44,198.58 623.93,200.20 624.43,201.83 624.92,203.48 625.42,205.13 625.91,206.79 626.41,208.46 626.90,210.13 627.40,211.81 627.89,213.49 628.38,215.18 628.88,216.86 629.37,218.55 629.87,220.23 630.36,221.91 630.86,223.59 631.35,225.26 631.85,226.93 632.34,228.59 632.84,230.23 633.33,231.87 633.82,233.50 634.32,235.11 634.81,236.72 635.31,238.30 635.80,239.87 636.30,241.43 636.79,242.96 637.29,244.48 637.78,245.98 638.27,247.46 638.77,248.91 639.26,250.34 639.76,251.75 640.25,253.13 640.75,254.49 641.24,255.82 641.74,257.12 642.23,258.39 642.73,259.63 643.22,260.85 643.71,262.03 644.21,263.18 644.70,264.30 645.20,265.39 645.69,266.44 646.19,267.46 646.68,268.44 647.18,269.39 647.67,270.30 648.16,271.17 648.66,272.01 649.15,272.81 649.65,273.58 650.14,274.30 650.64,274.98 651.13,275.63 651.63,276.24 652.12,276.80 652.62,277.33 653.11,277.81 653.60,278.26 654.10,278.67 654.59,279.03 655.09,279.35 655.58,279.64 656.08,279.88 656.57,280.08 657.07,280.24 657.56,280.36 658.05,280.43 658.55,280.47 659.04,280.47 659.54,280.42 660.03,280.34 660.53,280.21 661.02,280.05 661.52,279.84 662.01,279.60 662.51,279.31 663.00,278.99 663.49,278.63 663.99,278.24 664.48,277.80 664.98,277.33 665.47,276.82 665.97,276.28 666.46,275.70 666.96,275.08 667.45,274.43 667.95,273.75 668.44,273.03 668.93,272.29 669.43,271.51 669.92,270.70 670.42,269.85 670.91,268.98 671.41,268.08 671.90,267.16 672.40,266.20 672.89,265.22 673.38,264.21 673.88,263.18 674.37,262.12 674.87,261.04 675.36,259.94 675.86,258.82 676.35,257.68 676.85,256.51 677.34,255.33 677.84,254.13 678.33,252.92 678.82,251.68 679.32,250.44 679.81,249.18 680.31,247.90 680.80,246.62 681.30,245.32 681.79,244.01 682.29,242.70 682.78,241.37 683.27,240.04 683.77,238.70 684.26,237.36 684.76,236.01 685.25,234.67 685.75,233.31 686.24,231.96 686.74,230.61 687.23,229.26 687.73,227.91 688.22,226.56 688.71,225.22 689.21,223.88 689.70,222.55 690.20,221.22 690.69,219.91 691.19,218.60 691.68,217.30 692.18,216.01 692.67,214.73 693.16,213.46 693.66,212.21 694.15,210.97 694.65,209.75 695.14,208.54 695.64,207.35 696.13,206.17 696.63,205.02 697.12,203.88 697.62,202.76 698.11,201.67 698.60,200.59 699.10,199.54 699.59,198.50 700.09,197.49 700.58,196.51 701.08,195.55 701.57,194.61 702.07,193.71 702.56,192.82 703.05,191.97 703.55,191.14 704.04,190.34 704.54,189.56 705.03,188.82 705.53,188.10 706.02,187.42 706.52,186.76 707.01,186.14 707.51,185.55 708.00,184.98 708.49,184.45 708.99,183.95 709.48,183.49 709.98,183.05 710.47,182.65 710.97,182.28 711.46,181.94 711.96,181.64 712.45,181.36 712.95,181.13 713.44,180.92 713.93,180.75 714.43,180.61 714.92,180.50 715.42,180.43 715.91,180.39 716.41,180.39 716.90,180.41 717.40,180.47 717.89,180.56 718.38,180.69 718.88,180.84 719.37,181.03 719.87,181.25 720.36,181.50 720.86,181.78 721.35,182.10 721.85,182.44 722.34,182.81 722.84,183.22 723.33,183.65 723.82,184.11 724.32,184.60 724.81,185.12 725.31,185.66 725.80,186.24 726.30,186.84 726.79,187.46 727.29,188.11 727.78,188.79 728.27,189.49 728.77,190.21 729.26,190.96 729.76,191.72 730.25,192.51 730.75,193.33 731.24,194.16 731.74,195.01 732.23,195.88 732.73,196.77 733.22,197.67 733.71,198.60 734.21,199.54 734.70,200.49 735.20,201.46 735.69,202.44 736.19,203.44 736.68,204.45 737.18,205.47 737.67,206.50 738.16,207.54 738.66,208.59 739.15,209.65 739.65,210.71 740.14,211.79 740.64,212.86 741.13,213.95 741.63,215.03 742.12,216.12 742.62,217.22 743.11,218.31 743.60,219.41 744.10,220.50 744.59,221.60 745.09,222.69 745.58,223.78 746.08,224.87 746.57,225.96 747.07,227.04 747.56,228.11 748.05,229.18 748.55,230.24 749.04,231.29 749.54,232.34 750.03,233.37 750.53,234.40 751.02,235.41 751.52,236.42 752.01,237.41 752.51,238.39 753.00,239.35 753.49,240.30 753.99,241.24 754.48,242.16 754.98,243.07 755.47,243.95 755.97,244.83 756.46,245.68 756.96,246.51 757.45,247.33 757.95,248.13 758.44,248.90 758.93,249.66 759.43,250.40"/>
<line x1="828" y1="102" x2="856" y2="102" stroke="#258a45" stroke-width="3"/>
<text x="864" y="106" font-family="Arial" font-size="13">q</text>
<polyline fill="none" stroke="#8a4fbf" stroke-width="2.2" points="116.57,225.17 117.07,225.20 117.56,225.29 118.05,225.42 118.55,225.58 119.04,225.77 119.54,225.97 120.03,226.20 120.53,226.43 121.02,226.67 121.52,226.92 122.01,227.17 122.51,227.42 123.00,227.68 123.49,227.93 123.99,228.19 124.48,228.44 124.98,228.70 125.47,228.95 125.97,229.20 126.46,229.44 126.96,229.69 127.45,229.93 127.95,230.17 128.44,230.40 128.93,230.63 129.43,230.86 129.92,231.08 130.42,231.30 130.91,231.51 131.41,231.72 131.90,231.92 132.40,232.12 132.89,232.32 133.38,232.51 133.88,232.69 134.37,232.87 134.87,233.05 135.36,233.22 135.86,233.38 136.35,233.54 136.85,233.69 137.34,233.84 137.84,233.98 138.33,234.12 138.82,234.25 139.32,234.38 139.81,234.50 140.31,234.61 140.80,234.72 141.30,234.82 141.79,234.91 142.29,235.00 142.78,235.09 143.27,235.16 143.77,235.23 144.26,235.30 144.76,235.35 145.25,235.41 145.75,235.45 146.24,235.49 146.74,235.53 147.23,235.55 147.73,235.57 148.22,235.59 148.71,235.59 149.21,235.60 149.70,235.59 150.20,235.58 150.69,235.57 151.19,235.54 151.68,235.51 152.18,235.48 152.67,235.44 153.16,235.39 153.66,235.34 154.15,235.28 154.65,235.21 155.14,235.14 155.64,235.07 156.13,234.99 156.63,234.90 157.12,234.81 157.62,234.71 158.11,234.60 158.60,234.49 159.10,234.38 159.59,234.26 160.09,234.14 160.58,234.01 161.08,233.87 161.57,233.73 162.07,233.59 162.56,233.44 163.05,233.29 163.55,233.13 164.04,232.97 164.54,232.81 165.03,232.64 165.53,232.46 166.02,232.29 166.52,232.11 167.01,231.92 167.51,231.73 168.00,231.54 168.49,231.35 168.99,231.15 169.48,230.95 169.98,230.75 170.47,230.54 170.97,230.33 171.46,230.12 171.96,229.91 172.45,229.70 172.95,229.48 173.44,229.26 173.93,229.04 174.43,228.82 174.92,228.59 175.42,228.37 175.91,228.14 176.41,227.91 176.90,227.69 177.40,227.46 177.89,227.23 178.38,227.00 178.88,226.76 179.37,226.53 179.87,226.30 180.36,226.07 180.86,225.84 181.35,225.61 181.85,225.38 182.34,225.15 182.84,224.92 183.33,224.69 183.82,224.46 184.32,224.23 184.81,224.00 185.31,223.78 185.80,223.55 186.30,223.33 186.79,223.11 187.29,222.89 187.78,222.67 188.27,222.46 188.77,222.24 189.26,222.03 189.76,221.82 190.25,221.62 190.75,221.41 191.24,221.21 191.74,221.01 192.23,220.81 192.73,220.62 193.22,220.43 193.71,220.24 194.21,220.05 194.70,219.87 195.20,219.69 195.69,219.52 196.19,219.34 196.68,219.18 197.18,219.01 197.67,218.85 198.16,218.69 198.66,218.54 199.15,218.39 199.65,218.24 200.14,218.10 200.64,217.96 201.13,217.83 201.63,217.70 202.12,217.58 202.62,217.46 203.11,217.34 203.60,217.23 204.10,217.12 204.59,217.02 205.09,216.92 205.58,216.82 206.08,216.73 206.57,216.65 207.07,216.57 207.56,216.49 208.05,216.42 208.55,216.36 209.04,216.29 209.54,216.24 210.03,216.19 210.53,216.14 211.02,216.10 211.52,216.06 212.01,216.03 212.51,216.00 213.00,215.97 213.49,215.95 213.99,215.94 214.48,215.93 214.98,215.93 215.47,215.93 215.97,215.93 216.46,215.94 216.96,215.96 217.45,215.98 217.95,216.00 218.44,216.03 218.93,216.06 219.43,216.10 219.92,216.15 220.42,216.20 220.91,216.25 221.41,216.31 221.90,216.37 222.40,216.44 222.89,216.51 223.38,216.59 223.88,216.68 224.37,216.76 224.87,216.86 225.36,216.96 225.86,217.06 226.35,217.17 226.85,217.29 227.34,217.41 227.84,217.53 228.33,217.66 228.82,217.80 229.32,217.94 229.81,218.09 230.31,218.24 230.80,218.39 231.30,218.56 231.79,218.72 232.29,218.90 232.78,219.08 233.27,219.26 233.77,219.45 234.26,219.64 234.76,219.84 235.25,220.05 235.75,220.26 236.24,220.47 236.74,220.69 237.23,220.91 237.73,221.14 238.22,221.38 238.71,221.61 239.21,221.86 239.70,222.11 240.20,222.36 240.69,222.61 241.19,222.87 241.68,223.14 242.18,223.41 242.67,223.68 243.16,223.96 243.66,224.24 244.15,224.52 244.65,224.81 245.14,225.10 245.64,225.39 246.13,225.69 246.63,225.98 247.12,226.29 247.62,226.59 248.11,226.89 248.60,227.20 249.10,227.51 249.59,227.82 250.09,228.14 250.58,228.45 251.08,228.77 251.57,229.09 252.07,229.40 252.56,229.72 253.05,230.04 253.55,230.36 254.04,230.68 254.54,230.99 255.03,231.31 255.53,231.63 256.02,231.94 256.52,232.26 257.01,232.57 257.51,232.88 258.00,233.19 258.49,233.50 258.99,233.80 259.48,234.11 259.98,234.40 260.47,234.70 260.97,234.99 261.46,235.28 261.96,235.57 262.45,235.85 262.95,236.13 263.44,236.40 263.93,236.67 264.43,236.93 264.92,237.19 265.42,237.44 265.91,237.69 266.41,237.93 266.90,238.16 267.40,238.39 267.89,238.61 268.38,238.83 268.88,239.04 269.37,239.24 269.87,239.44 270.36,239.62 270.86,239.80 271.35,239.98 271.85,240.14 272.34,240.30 272.84,240.44 273.33,240.58 273.82,240.72 274.32,240.84 274.81,240.95 275.31,241.06 275.80,241.15 276.30,241.24 276.79,241.32 277.29,241.39 277.78,241.45 278.27,241.50 278.77,241.54 279.26,241.57 279.76,241.59 280.25,241.60 280.75,241.60 281.24,241.59 281.74,241.58 282.23,241.55 282.73,241.51 283.22,241.47 283.71,241.41 284.21,241.34 284.70,241.27 285.20,241.18 285.69,241.08 286.19,240.98 286.68,240.86 287.18,240.74 287.67,240.60 288.16,240.46 288.66,240.31 289.15,240.14 289.65,239.97 290.14,239.73 290.64,239.36 291.13,238.86 291.63,238.24 292.12,237.48 292.62,236.60 293.11,235.59 293.60,234.45 294.10,233.19 294.59,231.82 295.09,230.38 295.58,228.87 296.08,227.32 296.57,225.73 297.07,224.11 297.56,222.46 298.05,220.80 298.55,219.13 299.04,217.45 299.54,215.76 300.03,214.06 300.53,212.36 301.02,210.66 301.52,208.95 302.01,207.24 302.51,205.53 303.00,203.82 303.49,202.11 303.99,200.40 304.48,198.69 304.98,196.97 305.47,195.26 305.97,193.55 306.46,191.85 306.96,190.14 307.45,188.43 307.95,186.72 308.44,185.02 308.93,183.31 309.43,181.61 309.92,179.90 310.42,178.20 310.91,176.50 311.41,174.80 311.90,173.10 312.40,171.41 312.89,169.71 313.38,168.02 313.88,166.32 314.37,164.63 314.87,162.94 315.36,161.25 315.86,159.57 316.35,157.88 316.85,156.20 317.34,154.51 317.84,152.83 318.33,151.15 318.82,149.48 319.32,147.80 319.81,146.12 320.31,144.45 320.80,142.78 321.30,141.11 321.79,139.44 322.29,137.77 322.78,136.11 323.27,134.44 323.77,132.78 324.26,131.12 324.76,129.46 325.25,127.81 325.75,126.15 326.24,124.50 326.74,122.84 327.23,121.19 327.73,119.54 328.22,117.89 328.71,116.25 329.21,114.60 329.70,112.96 330.20,111.32 330.69,109.68 331.19,108.04 331.68,106.40 332.18,104.76 332.67,103.14 333.16,101.55 333.66,100.00 334.15,98.49 334.65,97.05 335.14,95.66 335.64,94.35 336.13,93.10 336.63,91.93 337.12,90.84 337.62,89.82 338.11,88.88 338.60,88.03 339.10,87.25 339.59,86.56 340.09,85.95 340.58,85.43 341.08,84.99 341.57,84.64 342.07,84.37 342.56,84.18 343.05,84.09 343.55,84.07 344.04,84.14 344.54,84.30 345.03,84.54 345.53,84.86 346.02,85.27 346.52,85.76 347.01,86.33 347.51,86.99 348.00,87.72 348.49,88.54 348.99,89.44 349.48,90.42 349.98,91.48 350.47,92.61 350.97,93.82 351.46,95.11 351.96,96.48 352.45,97.91 352.95,99.42 353.44,100.99 353.93,102.60 354.43,104.24 354.92,105.92 355.42,107.61 355.91,109.32 356.41,111.04 356.90,112.76 357.40,114.50 357.89,116.24 358.38,117.98 358.88,119.73 359.37,121.47 359.87,123.22 360.36,124.97 360.86,126.72 361.35,128.46 361.85,130.21 362.34,131.96 362.84,133.70 363.33,135.45 363.82,137.19 364.32,138.94 364.81,140.68 365.31,142.42 365.80,144.16 366.30,145.90 366.79,147.64 367.29,149.37 367.78,151.11 368.27,152.85 368.77,154.58 369.26,156.31 369.76,158.05 370.25,159.78 370.75,161.51 371.24,163.24 371.74,164.97 372.23,166.70 372.73,168.43 373.22,170.15 373.71,171.88 374.21,173.61 374.70,175.33 375.20,177.06 375.69,178.78 376.19,180.51 376.68,182.23 377.18,183.95 377.67,185.67 378.16,187.40 378.66,189.12 379.15,190.84 379.65,192.56 380.14,194.28 380.64,196.00 381.13,197.71 381.63,199.43 382.12,201.15 382.62,202.87 383.11,204.58 383.60,206.30 384.10,208.01 384.59,209.73 385.09,211.44 385.58,213.16 386.08,214.87 386.57,216.58 387.07,218.29 387.56,220.00 388.05,221.71 388.55,223.42 389.04,225.13 389.54,226.84 390.03,228.55 390.53,230.26 391.02,231.96 391.52,233.67 392.01,235.37 392.51,237.07 393.00,238.78 393.49,240.48 393.99,242.18 394.48,243.88 394.98,245.58 395.47,247.28 395.97,248.97 396.46,250.67 396.96,252.36 397.45,254.06 397.95,255.75 398.44,257.44 398.93,259.13 399.43,260.82 399.92,262.51 400.42,264.19 400.91,265.88 401.41,267.56 401.90,269.24 402.40,270.92 402.89,272.60 403.38,274.28 403.88,275.96 404.37,277.64 404.87,279.31 405.36,280.98 405.86,282.65 406.35,284.32 406.85,285.99 407.34,287.66 407.84,289.33 408.33,290.99 408.82,292.65 409.32,294.31 409.81,295.98 410.31,297.63 410.80,299.29 411.30,300.95 411.79,302.60 412.29,304.25 412.78,305.91 413.27,307.56 413.77,309.20 414.26,310.85 414.76,312.50 415.25,314.14 415.75,315.79 416.24,317.43 416.74,319.07 417.23,320.71 417.73,322.34 418.22,323.98 418.71,325.62 419.21,327.24 419.70,328.85 420.20,330.42 420.69,331.96 421.19,333.44 421.68,334.87 422.18,336.24 422.67,337.55 423.16,338.79 423.66,339.97 424.15,341.07 424.65,342.10 425.14,343.07 425.64,343.95 426.13,344.77 426.63,345.50 427.12,346.17 427.62,346.75 428.11,347.26 428.60,347.70 429.10,348.05 429.59,348.33 430.09,348.53 430.58,348.66 431.08,348.71 431.57,348.68 432.07,348.58 432.56,348.40 433.05,348.15 433.55,347.82 434.04,347.42 434.54,346.94 435.03,346.39 435.53,345.76 436.02,345.07 436.52,344.30 437.01,343.46 437.51,342.55 438.00,341.57 438.49,340.52 438.99,339.41 439.48,338.22 439.98,336.98 440.47,335.66 440.97,334.29 441.46,332.85 441.96,331.35 442.45,329.79 442.95,328.19 443.44,326.54 443.93,324.87 444.43,323.18 444.92,321.47 445.42,319.75 445.91,318.02 446.41,316.28 446.90,314.54 447.40,312.80 447.89,311.05 448.38,309.30 448.88,307.54 449.37,305.79 449.87,304.04 450.36,302.29 450.86,300.53 451.35,298.78 451.85,297.03 452.34,295.28 452.84,293.53 453.33,291.79 453.82,290.04 454.32,288.29 454.81,286.55 455.31,284.80 455.80,283.06 456.30,281.32 456.79,279.57 457.29,277.83 457.78,276.09 458.27,274.35 458.77,272.61 459.26,270.88 459.76,269.14 460.25,267.40 460.75,265.67 461.24,263.93 461.74,262.20 462.23,260.46 462.73,258.73 463.22,257.00 463.71,255.26 464.21,253.53 464.70,251.80 465.20,250.07 465.69,248.34 466.19,246.61 466.68,244.88 467.18,243.15 467.67,241.42 468.16,239.69 468.66,237.96 469.15,236.23 469.65,234.50 470.14,232.78 470.64,231.05 471.13,229.32 471.63,227.59 472.12,225.87 472.62,224.14 473.11,222.41 473.60,220.69 474.10,218.96 474.59,217.23 475.09,215.51 475.58,213.78 476.08,212.06 476.57,210.33 477.07,208.61 477.56,206.88 478.05,205.16 478.55,203.44 479.04,201.71 479.54,199.99 480.03,198.27 480.53,196.55 481.02,194.83 481.52,193.11 482.01,191.39 482.51,189.67 483.00,187.95 483.49,186.23 483.99,184.52 484.48,182.80 484.98,181.09 485.47,179.37 485.97,177.66 486.46,175.95 486.96,174.24 487.45,172.53 487.95,170.83 488.44,169.12 488.93,167.42 489.43,165.71 489.92,164.01 490.42,162.31 490.91,160.61 491.41,158.92 491.90,157.22 492.40,155.53 492.89,153.83 493.38,152.14 493.88,150.46 494.37,148.77 494.87,147.08 495.36,145.40 495.86,143.74 496.35,142.09 496.85,140.48 497.34,138.90 497.84,137.36 498.33,135.87 498.82,134.42 499.32,133.03 499.81,131.69 500.31,130.40 500.80,129.17 501.30,128.00 501.79,126.88 502.29,125.83 502.78,124.83 503.27,123.89 503.77,123.02 504.26,122.21 504.76,121.46 505.25,120.77 505.75,120.15 506.24,119.58 506.74,119.09 507.23,118.65 507.73,118.28 508.22,117.97 508.71,117.73 509.21,117.55 509.70,117.43 510.20,117.38 510.69,117.38 511.19,117.46 511.68,117.59 512.18,117.79 512.67,118.05 513.16,118.37 513.66,118.76 514.15,119.20 514.65,119.71 515.14,120.28 515.64,120.90 516.13,121.59 516.63,122.34 517.12,123.14 517.62,124.01 518.11,124.93 518.60,125.90 519.10,126.94 519.59,128.03 520.09,129.17 520.58,130.37 521.08,131.62 521.57,132.93 522.07,134.28 522.56,135.69 523.05,137.15 523.55,138.66 524.04,140.21 524.54,141.81 525.03,143.44 525.53,145.10 526.02,146.78 526.52,148.47 527.01,150.17 527.51,151.88 528.00,153.60 528.49,155.32 528.99,157.04 529.48,158.76 529.98,160.49 530.47,162.21 530.97,163.94 531.46,165.66 531.96,167.38 532.45,169.10 532.95,170.82 533.44,172.54 533.93,174.25 534.43,175.96 534.92,177.67 535.42,179.38 535.91,181.08 536.41,182.79 536.90,184.49 537.40,186.19 537.89,187.88 538.38,189.57 538.88,191.26 539.37,192.95 539.87,194.64 540.36,196.32 540.86,198.00 541.35,199.68 541.85,201.36 542.34,203.03 542.84,204.70 543.33,206.37 543.82,208.04 544.32,209.71 544.81,211.37 545.31,213.04 545.80,214.70 546.30,216.36 546.79,218.02 547.29,219.67 547.78,221.33 548.27,222.98 548.77,224.64 549.26,226.29 549.76,227.94 550.25,229.59 550.75,231.24 551.24,232.89 551.74,234.54 552.23,236.19 552.73,237.84 553.22,239.49 553.71,241.14 554.21,242.79 554.70,244.44 555.20,246.08 555.69,247.73 556.19,249.38 556.68,251.03 557.18,252.68 557.67,254.33 558.16,255.98 558.66,257.63 559.15,259.28 559.65,260.93 560.14,262.58 560.64,264.24 561.13,265.89 561.63,267.54 562.12,269.20 562.62,270.85 563.11,272.51 563.60,274.16 564.10,275.82 564.59,277.47 565.09,279.13 565.58,280.79 566.08,282.45 566.57,284.11 567.07,285.77 567.56,287.42 568.05,289.08 568.55,290.74 569.04,292.40 569.54,294.06 570.03,295.72 570.53,297.35 571.02,298.96 571.52,300.54 572.01,302.09 572.51,303.60 573.00,305.06 573.49,306.48 573.99,307.85 574.48,309.17 574.98,310.45 575.47,311.66 575.97,312.83 576.46,313.94 576.96,315.00 577.45,316.00 577.95,316.94 578.44,317.83 578.93,318.65 579.43,319.42 579.92,320.14 580.42,320.79 580.91,321.38 581.41,321.92 581.90,322.40 582.40,322.81 582.89,323.17 583.38,323.47 583.88,323.70 584.37,323.88 584.87,324.00 585.36,324.06 585.86,324.06 586.35,324.00 586.85,323.89 587.34,323.71 587.84,323.48 588.33,323.19 588.82,322.84 589.32,322.44 589.81,321.97 590.31,321.46 590.80,320.88 591.30,320.26 591.79,319.57 592.29,318.84 592.78,318.05 593.27,317.20 593.77,316.31 594.26,315.36 594.76,314.37 595.25,313.32 595.75,312.23 596.24,311.09 596.74,309.89 597.23,308.66 597.73,307.38 598.22,306.05 598.71,304.68 599.21,303.26 599.70,301.81 600.20,300.31 600.69,298.77 601.19,297.20 601.68,295.58 602.18,293.94 602.67,292.26 603.16,290.55 603.66,288.83 604.15,287.10 604.65,285.35 605.14,283.60 605.64,281.84 606.13,280.08 606.63,278.31 607.12,276.54 607.62,274.77 608.11,273.00 608.60,271.22 609.10,269.45 609.59,267.68 610.09,265.91 610.58,264.14 611.08,262.37 611.57,260.66 612.07,259.09 612.56,257.65 613.05,256.33 613.55,255.15 614.04,254.09 614.54,253.17 615.03,252.37 615.53,251.70 616.02,251.16 616.52,250.73 617.01,250.36 617.51,250.06 618.00,249.79 618.49,249.56 618.99,249.34 619.48,249.14 619.98,248.94 620.47,248.75 620.97,248.55 621.46,248.35 621.96,248.15 622.45,247.94 622.95,247.72 623.44,247.48 623.93,247.24 624.43,246.99 624.92,246.73 625.42,246.46 625.91,246.17 626.41,245.88 626.90,245.57 627.40,245.25 627.89,244.92 628.38,244.59 628.88,244.24 629.37,243.88 629.87,243.51 630.36,243.13 630.86,242.74 631.35,242.35 631.85,241.94 632.34,241.53 632.84,241.10 633.33,240.67 633.82,240.24 634.32,239.79 634.81,239.34 635.31,238.88 635.80,238.42 636.30,237.95 636.79,237.48 637.29,237.00 637.78,236.51 638.27,236.02 638.77,235.53 639.26,235.04 639.76,234.54 640.25,234.04 640.75,233.53 641.24,233.03 641.74,232.52 642.23,232.01 642.73,231.50 643.22,230.99 643.71,230.49 644.21,229.98 644.70,229.47 645.20,228.96 645.69,228.46 646.19,227.95 646.68,227.45 647.18,226.95 647.67,226.45 648.16,225.96 648.66,225.47 649.15,224.98 649.65,224.50 650.14,224.03 650.64,223.55 651.13,223.09 651.63,222.62 652.12,222.17 652.62,221.72 653.11,221.27 653.60,220.83 654.10,220.40 654.59,219.98 655.09,219.56 655.58,219.16 656.08,218.75 656.57,218.36 657.07,217.98 657.56,217.60 658.05,217.23 658.55,216.87 659.04,216.53 659.54,216.19 660.03,215.85 660.53,215.53 661.02,215.22 661.52,214.92 662.01,214.63 662.51,214.35 663.00,214.08 663.49,213.82 663.99,213.57 664.48,213.33 664.98,213.10 665.47,212.88 665.97,212.67 666.46,212.48 666.96,212.29 667.45,212.12 667.95,211.95 668.44,211.80 668.93,211.66 669.43,211.53 669.92,211.41 670.42,211.30 670.91,211.20 671.41,211.12 671.90,211.04 672.40,210.98 672.89,210.92 673.38,210.88 673.88,210.85 674.37,210.82 674.87,210.81 675.36,210.81 675.86,210.82 676.35,210.84 676.85,210.87 677.34,210.91 677.84,210.96 678.33,211.02 678.82,211.09 679.32,211.17 679.81,211.26 680.31,211.35 680.80,211.46 681.30,211.58 681.79,211.70 682.29,211.83 682.78,211.97 683.27,212.12 683.77,212.28 684.26,212.45 684.76,212.62 685.25,212.80 685.75,212.99 686.24,213.19 686.74,213.39 687.23,213.60 687.73,213.82 688.22,214.04 688.71,214.27 689.21,214.51 689.70,214.75 690.20,215.00 690.69,215.25 691.19,215.51 691.68,215.77 692.18,216.04 692.67,216.31 693.16,216.59 693.66,216.87 694.15,217.15 694.65,217.44 695.14,217.73 695.64,218.03 696.13,218.33 696.63,218.63 697.12,218.93 697.62,219.24 698.11,219.55 698.60,219.86 699.10,220.17 699.59,220.49 700.09,220.80 700.58,221.12 701.08,221.44 701.57,221.76 702.07,222.08 702.56,222.40 703.05,222.72 703.55,223.04 704.04,223.36 704.54,223.68 705.03,224.00 705.53,224.32 706.02,224.63 706.52,224.95 707.01,225.26 707.51,225.57 708.00,225.89 708.49,226.19 708.99,226.50 709.48,226.81 709.98,227.11 710.47,227.41 710.97,227.70 711.46,227.99 711.96,228.28 712.45,228.57 712.95,228.85 713.44,229.13 713.93,229.41 714.43,229.68 714.92,229.94 715.42,230.21 715.91,230.46 716.41,230.72 716.90,230.96 717.40,231.21 717.89,231.44 718.38,231.68 718.88,231.90 719.37,232.13 719.87,232.34 720.36,232.55 720.86,232.76 721.35,232.96 721.85,233.15 722.34,233.33 722.84,233.51 723.33,233.69 723.82,233.85 724.32,234.01 724.81,234.17 725.31,234.32 725.80,234.46 726.30,234.59 726.79,234.72 727.29,234.84 727.78,234.95 728.27,235.05 728.77,235.15 729.26,235.24 729.76,235.33 730.25,235.41 730.75,235.48 731.24,235.54 731.74,235.59 732.23,235.64 732.73,235.68 733.22,235.72 733.71,235.74 734.21,235.76 734.70,235.78 735.20,235.78 735.69,235.78 736.19,235.77 736.68,235.76 737.18,235.73 737.67,235.71 738.16,235.67 738.66,235.63 739.15,235.58 739.65,235.52 740.14,235.46 740.64,235.39 741.13,235.31 741.63,235.23 742.12,235.14 742.62,235.05 743.11,234.95 743.60,234.84 744.10,234.73 744.59,234.62 745.09,234.49 745.58,234.36 746.08,234.23 746.57,234.09 747.07,233.95 747.56,233.80 748.05,233.65 748.55,233.49 749.04,233.33 749.54,233.17 750.03,233.00 750.53,232.82 751.02,232.64 751.52,232.46 752.01,232.28 752.51,232.09 753.00,231.90 753.49,231.71 753.99,231.51 754.48,231.31 754.98,231.11 755.47,230.90 755.97,230.70 756.46,230.49 756.96,230.28 757.45,230.07 757.95,229.86 758.44,229.64 758.93,229.43 759.43,229.21"/>
<line x1="828" y1="126" x2="856" y2="126" stroke="#8a4fbf" stroke-width="3"/>
<text x="864" y="130" font-family="Arial" font-size="13">r</text>
</svg>