<svg xmlns="http://www.w3.org/2000/svg" width="920" height="520" viewBox="0 0 920 520">
<rect width="100%" height="100%" fill="white"/>
<text x="460" y="28" text-anchor="middle" font-family="Arial" font-size="20">Coupled Skeleton Attitude References</text>
<rect x="78" y="54" width="720" height="380" fill="#fafafa" stroke="#222"/>
<line x1="78" y1="434" x2="798" y2="434" stroke="#222"/>
<line x1="78" y1="54" x2="78" y2="434" stroke="#222"/>
<text x="438" y="492" text-anchor="middle" font-family="Arial" font-size="14">time (s)</text>
<text transform="translate(22,244) rotate(-90)" text-anchor="middle" font-family="Arial" font-size="14">angle (rad)</text>
<text x="78" y="456" text-anchor="middle" font-family="Arial" font-size="11">-2.04</text>
<text x="798" y="456" text-anchor="middle" font-family="Arial" font-size="11">36.04</text>
<text x="68" y="434" text-anchor="end" font-family="Arial" font-size="11">-0.03</text>
<text x="68" y="59" text-anchor="end" font-family="Arial" font-size="11">0.55</text>
<polyline fill="none" stroke="#222222" stroke-width="2.2" points="116.57,241.18 117.52,241.18 118.46,241.18 119.41,241.18 120.35,241.18 121.30,241.18 122.24,241.18 123.19,241.18 124.13,241.18 125.08,241.18 126.03,241.18 126.97,241.18 127.92,241.18 128.86,241.18 129.81,241.18 130.75,241.18 131.70,241.18 132.64,241.18 133.59,241.18 134.53,241.18 135.48,241.18 136.42,241.18 137.37,241.18 138.32,241.18 139.26,241.18 140.21,241.18 141.15,241.18 142.10,241.18 143.04,241.18 143.99,241.18 144.93,241.18 145.88,241.18 146.82,241.18 147.77,241.18 148.71,241.18 149.66,241.18 150.61,241.18 151.55,241.18 152.50,241.18 153.44,241.18 154.39,241.18 155.33,241.18 156.28,241.18 157.22,241.18 158.17,241.18 159.11,241.18 160.06,241.18 161.00,241.18 161.95,241.18 162.89,241.18 163.84,241.18 164.79,241.18 165.73,241.18 166.68,241.18 167.62,241.18 168.57,241.18 169.51,241.18 170.46,241.18 171.40,241.18 172.35,241.18 173.29,241.18 174.24,241.18 175.18,241.18 176.13,241.18 177.08,241.18 178.02,241.18 178.97,241.18 179.91,241.18 180.86,241.18 181.80,241.18 182.75,241.18 183.69,241.18 184.64,241.18 185.58,241.18 186.53,241.18 187.47,241.18 188.42,241.18 189.37,241.18 190.31,241.18 191.26,241.18 192.20,241.18 193.15,241.18 194.09,241.18 195.04,241.18 195.98,241.18 196.93,241.18 197.87,241.18 198.82,241.18 199.76,241.18 200.71,241.18 201.66,241.18 202.60,241.18 203.55,241.18 204.49,241.18 205.44,241.18 206.38,241.18 207.33,241.18 208.27,241.18 209.22,241.18 210.16,241.18 211.11,241.18 212.05,241.18 213.00,241.18 213.95,241.18 214.89,241.18 215.84,241.18 216.78,241.18 217.73,241.18 218.67,241.18 219.62,241.18 220.56,241.18 221.51,241.18 222.45,241.18 223.40,241.18 224.34,241.18 225.29,241.18 226.24,241.18 227.18,241.18 228.13,241.18 229.07,241.18 230.02,241.18 230.96,241.18 231.91,241.18 232.85,241.18 233.80,241.18 234.74,241.18 235.69,241.18 236.63,241.18 237.58,241.18 238.53,241.18 239.47,241.18 240.42,241.18 241.36,241.18 242.31,241.18 243.25,241.18 244.20,241.18 245.14,241.18 246.09,241.18 247.03,241.18 247.98,241.18 248.92,241.18 249.87,241.18 250.82,241.18 251.76,241.18 252.71,241.18 253.65,241.18 254.60,241.18 255.54,241.18 256.49,241.18 257.43,241.18 258.38,241.18 259.32,241.18 260.27,241.18 261.21,241.18 262.16,241.18 263.11,241.18 264.05,241.18 265.00,241.18 265.94,241.18 266.89,241.18 267.83,241.18 268.78,241.18 269.72,241.18 270.67,241.18 271.61,241.18 272.56,241.18 273.50,241.18 274.45,241.18 275.39,241.18 276.34,241.18 277.29,241.18 278.23,241.18 279.18,241.18 280.12,241.18 281.07,241.18 282.01,241.18 282.96,241.18 283.90,241.18 284.85,241.18 285.79,241.18 286.74,241.18 287.68,241.18 288.63,241.18 289.58,241.18 290.52,241.18 291.47,241.18 292.41,241.18 293.36,241.18 294.30,241.18 295.25,241.18 296.19,241.18 297.14,241.18 298.08,241.18 299.03,241.18 299.97,241.18 300.92,241.18 301.87,241.18 302.81,241.18 303.76,241.18 304.70,241.18 305.65,241.18 306.59,241.18 307.54,241.18 308.48,241.18 309.43,241.18 310.37,241.18 311.32,241.18 312.26,241.18 313.21,241.18 314.16,241.18 315.10,241.18 316.05,241.18 316.99,241.18 317.94,241.18 318.88,241.18 319.83,241.18 320.77,241.18 321.72,241.18 322.66,241.18 323.61,241.18 324.55,241.18 325.50,241.18 326.45,241.18 327.39,241.18 328.34,241.18 329.28,241.18 330.23,241.18 331.17,241.18 332.12,241.18 333.06,241.18 334.01,241.18 334.95,241.18 335.90,241.18 336.84,241.18 337.79,241.18 338.74,241.18 339.68,241.18 340.63,241.18 341.57,241.18 342.52,241.18 343.46,241.18 344.41,241.18 345.35,241.18 346.30,241.18 347.24,241.18 348.19,241.18 349.13,241.18 350.08,241.18 351.03,241.18 351.97,241.18 352.92,241.18 353.86,241.18 354.81,241.18 355.75,241.18 356.70,241.18 357.64,241.18 358.59,241.18 359.53,241.18 360.48,241.18 361.42,241.18 362.37,241.18 363.32,241.18 364.26,241.18 365.21,241.18 366.15,241.18 367.10,241.18 368.04,241.18 368.99,241.18 369.93,241.18 370.88,241.18 371.82,241.18 372.77,241.18 373.71,241.18 374.66,241.18 375.61,241.18 376.55,241.18 377.50,241.18 378.44,241.18 379.39,241.18 380.33,241.18 381.28,241.18 382.22,241.18 383.17,241.18 384.11,241.18 385.06,241.18 386.00,241.18 386.95,241.18 387.89,241.18 388.84,241.18 389.79,241.18 390.73,241.18 391.68,241.18 392.62,241.18 393.57,241.18 394.51,241.18 395.46,241.18 396.40,241.18 397.35,241.18 398.29,241.18 399.24,241.18 400.18,241.18 401.13,241.18 402.08,241.18 403.02,241.18 403.97,241.18 404.91,241.18 405.86,241.18 406.80,241.18 407.75,241.18 408.69,241.18 409.64,241.18 410.58,241.18 411.53,241.18 412.47,241.18 413.42,241.18 414.37,241.18 415.31,241.18 416.26,241.18 417.20,241.18 418.15,241.18 419.09,241.18 420.04,241.18 420.98,241.18 421.93,241.18 422.87,241.18 423.82,241.18 424.76,241.18 425.71,241.18 426.66,241.18 427.60,241.18 428.55,241.18 429.49,241.18 430.44,241.18 431.38,241.18 432.33,241.18 433.27,241.18 434.22,241.18 435.16,241.18 436.11,241.18 437.05,241.18 438.00,241.18 438.95,241.18 439.89,241.18 440.84,241.18 441.78,241.18 442.73,241.18 443.67,241.18 444.62,241.18 445.56,241.18 446.51,241.18 447.45,241.18 448.40,241.18 449.34,241.18 450.29,241.18 451.24,241.18 452.18,241.18 453.13,241.18 454.07,241.18 455.02,241.18 455.96,241.18 456.91,241.18 457.85,241.18 458.80,241.18 459.74,241.18 460.69,241.18 461.63,241.18 462.58,241.18 463.53,241.18 464.47,241.18 465.42,241.18 466.36,241.18 467.31,241.18 468.25,241.18 469.20,241.18 470.14,241.18 471.09,241.18 472.03,241.18 472.98,241.18 473.92,241.18 474.87,241.18 475.82,241.18 476.76,241.18 477.71,241.18 478.65,241.18 479.60,241.18 480.54,241.18 481.49,241.18 482.43,241.18 483.38,241.18 484.32,241.18 485.27,241.18 486.21,241.18 487.16,241.18 488.11,241.18 489.05,241.18 490.00,241.18 490.94,241.18 491.89,241.18 492.83,241.18 493.78,241.18 494.72,241.18 495.67,241.18 496.61,241.18 497.56,241.18 498.50,241.18 499.45,241.18 500.39,241.18 501.34,241.18 502.29,241.18 503.23,241.18 504.18,241.18 505.12,241.18 506.07,241.18 507.01,241.18 507.96,241.18 508.90,241.18 509.85,241.18 510.79,241.18 511.74,241.18 512.68,241.18 513.63,241.18 514.58,241.18 515.52,241.18 516.47,241.18 517.41,241.18 518.36,241.18 519.30,241.18 520.25,241.18 521.19,241.18 522.14,241.18 523.08,241.18 524.03,241.18 524.97,241.18 525.92,241.18 526.87,241.18 527.81,241.18 528.76,241.18 529.70,241.18 530.65,241.18 531.59,241.18 532.54,241.18 533.48,241.18 534.43,241.18 535.37,241.18 536.32,241.18 537.26,241.18 538.21,241.18 539.16,241.18 540.10,241.18 541.05,241.18 541.99,241.18 542.94,241.18 543.88,241.18 544.83,241.18 545.77,241.18 546.72,241.18 547.66,241.18 548.61,241.18 549.55,241.18 550.50,241.18 551.45,241.18 552.39,241.18 553.34,241.18 554.28,241.18 555.23,241.18 556.17,241.18 557.12,241.18 558.06,241.18 559.01,241.18 559.95,241.18 560.90,241.18 561.84,241.18 562.79,241.18 563.74,241.18 564.68,241.18 565.63,241.18 566.57,241.18 567.52,241.18 568.46,241.18 569.41,241.18 570.35,241.18 571.30,241.18 572.24,241.18 573.19,241.18 574.13,241.18 575.08,241.18 576.03,241.18 576.97,241.18 577.92,241.18 578.86,241.18 579.81,241.18 580.75,241.18 581.70,241.18 582.64,241.18 583.59,241.18 584.53,241.18 585.48,241.18 586.42,241.18 587.37,241.18 588.32,241.18 589.26,241.18 590.21,241.18 591.15,241.18 592.10,241.18 593.04,241.18 593.99,241.18 594.93,241.18 595.88,241.18 596.82,241.18 597.77,241.18 598.71,241.18 599.66,241.18 600.61,241.18 601.55,241.18 602.50,241.18 603.44,241.18 604.39,241.18 605.33,241.18 606.28,241.18 607.22,241.18 608.17,241.18 609.11,241.18 610.06,241.18 611.00,241.18 611.95,241.18 612.89,241.18 613.84,241.18 614.79,241.18 615.73,241.18 616.68,241.18 617.62,241.18 618.57,241.18 619.51,241.18 620.46,241.18 621.40,241.18 622.35,241.18 623.29,241.18 624.24,241.18 625.18,241.18 626.13,241.18 627.08,241.18 628.02,241.18 628.97,241.18 629.91,241.18 630.86,241.18 631.80,241.18 632.75,241.18 633.69,241.18 634.64,241.18 635.58,241.18 636.53,241.18 637.47,241.18 638.42,241.18 639.37,241.18 640.31,241.18 641.26,241.18 642.20,241.18 643.15,241.18 644.09,241.18 645.04,241.18 645.98,241.18 646.93,241.18 647.87,241.18 648.82,241.18 649.76,241.18 650.71,241.18 651.66,241.18 652.60,241.18 653.55,241.18 654.49,241.18 655.44,241.18 656.38,241.18 657.33,241.18 658.27,241.18 659.22,241.18 660.16,241.18 661.11,241.18 662.05,241.18 663.00,241.18 663.95,241.18 664.89,241.18 665.84,241.18 666.78,241.18 667.73,241.18 668.67,241.18 669.62,241.18 670.56,241.18 671.51,241.18 672.45,241.18 673.40,241.18 674.34,241.18 675.29,241.18 676.24,241.18 677.18,241.18 678.13,241.18 679.07,241.18 680.02,241.18 680.96,241.18 681.91,241.18 682.85,241.18 683.80,241.18 684.74,241.18 685.69,241.18 686.63,241.18 687.58,241.18 688.53,241.18 689.47,241.18 690.42,241.18 691.36,241.18 692.31,241.18 693.25,241.18 694.20,241.18 695.14,241.18 696.09,241.18 697.03,241.18 697.98,241.18 698.92,241.18 699.87,241.18 700.82,241.18 701.76,241.18 702.71,241.18 703.65,241.18 704.60,241.18 705.54,241.18 706.49,241.18 707.43,241.18 708.38,241.18 709.32,241.18 710.27,241.18 711.21,241.18 712.16,241.18 713.11,241.18 714.05,241.18 715.00,241.18 715.94,241.18 716.89,241.18 717.83,241.18 718.78,241.18 719.72,241.18 720.67,241.18 721.61,241.18 722.56,241.18 723.50,241.18 724.45,241.18 725.39,241.18 726.34,241.18 727.29,241.18 728.23,241.18 729.18,241.18 730.12,241.18 731.07,241.18 732.01,241.18 732.96,241.18 733.90,241.18 734.85,241.18 735.79,241.18 736.74,241.18 737.68,241.18 738.63,241.18 739.58,241.18 740.52,241.18 741.47,241.18 742.41,241.18 743.36,241.18 744.30,241.18 745.25,241.18 746.19,241.18 747.14,241.18 748.08,241.18 749.03,241.18 749.97,241.18 750.92,241.18 751.87,241.18 752.81,241.18 753.76,241.18 754.70,241.18 755.65,241.18 756.59,241.18 757.54,241.18 758.48,241.18 759.43,241.18"/>
<line x1="828" y1="78" x2="856" y2="78" stroke="#222222" stroke-width="3"/>
<text x="864" y="82" font-family="Arial" font-size="13">roll ref</text>
<polyline fill="none" stroke="#2f6fbb" stroke-width="2.2" points="116.57,413.64 117.52,413.64 118.46,413.59 119.41,413.46 120.35,413.20 121.30,412.78 122.24,412.18 123.19,411.37 124.13,410.35 125.08,409.11 126.03,407.66 126.97,406.00 127.92,404.11 128.86,402.01 129.81,399.70 130.75,397.16 131.70,394.42 132.64,391.45 133.59,388.28 134.53,384.88 135.48,381.28 136.42,377.46 137.37,373.43 138.32,369.19 139.26,364.74 140.21,360.08 141.15,355.21 142.10,350.13 143.04,344.84 143.99,339.34 144.93,333.64 145.88,327.73 146.82,321.61 147.77,315.29 148.71,308.76 149.66,302.03 150.61,295.09 151.55,287.95 152.50,280.60 153.44,273.06 154.39,265.33 155.33,257.48 156.28,249.52 157.22,241.51 158.17,233.49 159.11,225.50 160.06,217.57 161.00,209.75 161.95,202.08 162.89,194.60 163.84,187.32 164.79,180.26 165.73,173.43 166.68,166.83 167.62,160.46 168.57,154.31 169.51,148.40 170.46,142.72 171.40,137.26 172.35,132.04 173.29,127.04 174.24,122.28 175.18,117.74 176.13,113.43 177.08,109.35 178.02,105.49 178.97,101.86 179.91,98.46 180.86,95.28 181.80,92.33 182.75,89.61 183.69,87.11 184.64,84.83 185.58,82.78 186.53,80.95 187.47,79.35 188.42,77.97 189.37,76.81 190.31,75.88 191.26,75.17 192.20,74.68 193.15,74.41 194.09,74.36 195.04,74.53 195.98,74.92 196.93,75.53 197.87,76.36 198.82,77.40 199.76,78.67 200.71,80.15 201.66,81.85 202.60,83.76 203.55,85.89 204.49,88.23 205.44,90.79 206.38,93.56 207.33,96.55 208.27,99.75 209.22,103.16 210.16,106.78 211.11,110.62 212.05,114.67 213.00,118.92 213.95,123.39 214.89,128.07 215.84,132.96 216.78,138.05 217.73,143.36 218.67,148.87 219.62,154.59 220.56,160.52 221.51,166.66 222.45,173.00 223.40,179.55 224.34,186.31 225.29,193.27 226.24,200.44 227.18,207.81 228.13,215.38 229.07,223.10 230.02,230.93 230.96,238.84 231.91,246.78 232.85,254.72 233.80,262.60 234.74,270.40 235.69,278.06 236.63,285.56 237.58,292.86 238.53,299.94 239.47,306.80 240.42,313.44 241.36,319.84 242.31,326.02 243.25,331.97 244.20,337.69 245.14,343.18 246.09,348.44 247.03,353.47 247.98,358.28 248.92,362.85 249.87,367.20 250.82,371.32 251.76,375.22 252.71,378.89 253.65,382.33 254.60,385.54 255.54,388.53 256.49,391.29 257.43,393.83 258.38,396.14 259.32,398.23 260.27,400.09 261.21,401.73 262.16,403.15 263.11,404.34 264.05,405.31 265.00,406.06 265.94,406.59 266.89,406.90 267.83,406.98 268.78,406.85 269.72,406.49 270.67,405.92 271.61,405.13 272.56,404.11 273.50,402.88 274.45,401.44 275.39,399.77 276.34,397.89 277.29,395.79 278.23,393.48 279.18,390.95 280.12,388.20 281.07,385.24 282.01,382.07 282.96,378.68 283.90,375.08 284.85,371.27 285.79,367.24 286.74,363.00 287.68,358.55 288.63,353.89 289.58,349.02 290.52,343.94 291.47,338.66 292.41,333.16 293.36,327.45 294.30,321.54 295.25,315.42 296.19,309.09 297.14,302.55 298.08,295.81 299.03,288.86 299.97,281.71 300.92,274.36 301.87,266.82 302.81,259.13 303.76,251.33 304.70,243.47 305.65,235.58 306.59,227.71 307.54,219.89 308.48,212.17 309.43,204.59 310.37,197.18 311.32,189.98 312.26,183.00 313.21,176.23 314.16,169.70 315.10,163.40 316.05,157.32 316.99,151.48 317.94,145.86 318.88,140.48 319.83,135.33 320.77,130.40 321.72,125.70 322.66,121.23 323.61,116.99 324.55,112.98 325.50,109.20 326.45,105.64 327.39,102.30 328.34,99.20 329.28,96.32 330.23,93.66 331.17,91.23 332.12,89.02 333.06,87.04 334.01,85.28 334.95,83.75 335.90,82.43 336.84,81.34 337.79,80.48 338.74,79.83 339.68,79.40 340.63,79.20 341.57,79.22 342.52,79.45 343.46,79.91 344.41,80.58 345.35,81.48 346.30,82.59 347.24,83.92 348.19,85.47 349.13,87.23 350.08,89.21 351.03,91.41 351.97,93.82 352.92,96.45 353.86,99.29 354.81,102.35 355.75,105.61 356.70,109.10 357.64,112.79 358.59,116.69 359.53,120.81 360.48,125.14 361.42,129.68 362.37,134.43 363.32,139.38 364.26,144.55 365.21,149.92 366.15,155.51 367.10,161.30 368.04,167.30 368.99,173.50 369.93,179.92 370.88,186.54 371.82,193.36 372.77,200.39 373.71,207.63 374.66,215.06 375.61,222.66 376.55,230.38 377.50,238.18 378.44,246.02 379.39,253.86 380.33,261.66 381.28,269.38 382.22,276.97 383.17,284.40 384.11,291.64 385.06,298.66 386.00,305.46 386.95,312.04 387.89,318.38 388.84,324.50 389.79,330.39 390.73,336.05 391.68,341.48 392.62,346.68 393.57,351.65 394.51,356.40 395.46,360.91 396.40,365.20 397.35,369.26 398.29,373.10 399.24,376.71 400.18,380.09 401.13,383.25 402.08,386.18 403.02,388.88 403.97,391.37 404.91,393.62 405.86,395.66 406.80,397.47 407.75,399.05 408.69,400.42 409.64,401.56 410.58,402.48 411.53,403.18 412.47,403.66 413.42,403.91 414.37,403.95 415.31,403.76 416.26,403.36 417.20,402.74 418.15,401.89 419.09,400.83 420.04,399.56 420.98,398.06 421.93,396.35 422.87,394.42 423.82,392.28 424.76,389.92 425.71,387.34 426.66,384.55 427.60,381.55 428.55,378.33 429.49,374.90 430.44,371.25 431.38,367.39 432.33,363.32 433.27,359.04 434.22,354.55 435.16,349.84 436.11,344.93 437.05,339.80 438.00,334.47 438.95,328.93 439.89,323.17 440.84,317.21 441.78,311.05 442.73,304.67 443.67,298.09 444.62,291.30 445.56,284.31 446.51,277.11 447.45,269.72 448.40,262.15 449.34,254.47 450.29,246.70 451.24,238.89 452.18,231.08 453.13,223.31 454.07,215.62 455.02,208.06 455.96,200.65 456.91,193.44 457.85,186.45 458.80,179.67 459.74,173.12 460.69,166.80 461.63,160.71 462.58,154.85 463.53,149.22 464.47,143.82 465.42,138.65 466.36,133.71 467.31,129.00 468.25,124.51 469.20,120.26 470.14,116.23 471.09,112.43 472.03,108.85 472.98,105.50 473.92,102.38 474.87,99.48 475.82,96.81 476.76,94.36 477.71,92.14 478.65,90.14 479.60,88.37 480.54,86.81 481.49,85.48 482.43,84.38 483.38,83.49 484.32,82.83 485.27,82.39 486.21,82.17 487.16,82.17 488.11,82.39 489.05,82.83 490.00,83.49 490.94,84.37 491.89,85.47 492.83,86.79 493.78,88.32 494.72,90.07 495.67,92.04 496.61,94.23 497.56,96.63 498.50,99.24 499.45,102.07 500.39,105.12 501.34,108.37 502.29,111.84 503.23,115.53 504.18,119.42 505.12,123.53 506.07,127.84 507.01,132.37 507.96,137.11 508.90,142.05 509.85,147.21 510.79,152.57 511.74,158.14 512.68,163.92 513.63,169.91 514.58,176.10 515.52,182.50 516.47,189.10 517.41,195.91 518.36,202.93 519.30,210.15 520.25,217.56 521.19,225.13 522.14,232.81 523.08,240.57 524.03,248.35 524.97,256.13 525.92,263.86 526.87,271.49 527.81,278.99 528.76,286.33 529.70,293.46 530.65,300.38 531.59,307.07 532.54,313.54 533.48,319.78 534.43,325.79 535.37,331.57 536.32,337.13 537.26,342.45 538.21,347.54 539.16,352.41 540.10,357.05 541.05,361.46 541.99,365.65 542.94,369.60 543.88,373.34 544.83,376.84 545.77,380.12 546.72,383.18 547.66,386.01 548.61,388.62 549.55,391.00 550.50,393.16 551.45,395.09 552.39,396.80 553.34,398.29 554.28,399.56 555.23,400.60 556.17,401.42 557.12,402.02 558.06,402.40 559.01,402.56 559.95,402.50 560.90,402.22 561.84,401.72 562.79,401.00 563.74,400.06 564.68,398.90 565.63,397.53 566.57,395.94 567.52,394.13 568.46,392.11 569.41,389.87 570.35,387.41 571.30,384.74 572.24,381.86 573.19,378.76 574.13,375.44 575.08,371.92 576.03,368.17 576.97,364.22 577.92,360.06 578.86,355.68 579.81,351.09 580.75,346.29 581.70,341.28 582.64,336.06 583.59,330.63 584.53,325.00 585.48,319.15 586.42,313.10 587.37,306.84 588.32,300.37 589.26,293.69 590.21,286.81 591.15,279.73 592.10,272.44 593.04,264.97 593.99,257.35 594.93,249.63 595.88,241.85 596.82,234.05 597.77,226.27 598.71,218.55 599.66,210.94 600.61,203.46 601.55,196.17 602.50,189.08 603.44,182.21 604.39,175.56 605.33,169.15 606.28,162.96 607.22,157.00 608.17,151.27 609.11,145.77 610.06,140.50 611.00,135.46 611.95,130.65 612.89,126.06 613.84,121.71 614.79,117.58 615.73,113.68 616.68,110.01 617.62,106.56 618.57,103.34 619.51,100.35 620.46,97.58 621.40,95.03 622.35,92.71 623.29,90.62 624.24,88.75 625.18,87.10 626.13,85.68 627.08,84.48 628.02,83.50 628.97,82.74 629.91,82.21 630.86,81.90 631.80,81.80 632.75,81.94 633.69,82.29 634.64,82.86 635.58,83.65 636.53,84.66 637.47,85.89 638.42,87.33 639.37,89.00 640.31,90.88 641.26,92.98 642.20,95.29 643.15,97.82 644.09,100.56 645.04,103.52 645.98,106.69 646.93,110.08 647.87,113.67 648.82,117.48 649.76,121.50 650.71,125.72 651.66,130.16 652.60,134.81 653.55,139.67 654.49,144.73 655.44,150.00 656.38,155.48 657.33,161.17 658.27,167.07 659.22,173.17 660.16,179.48 661.11,185.99 662.05,192.71 663.00,199.64 663.95,206.77 664.89,214.10 665.84,221.60 666.78,229.23 667.73,236.95 668.67,244.71 669.62,252.49 670.56,260.23 671.51,267.89 672.45,275.44 673.40,282.83 674.34,290.03 675.29,297.03 676.24,303.80 677.18,310.35 678.13,316.67 679.07,322.77 680.02,328.63 680.96,334.27 681.91,339.68 682.85,344.86 683.80,349.81 684.74,354.54 685.69,359.04 686.63,363.31 687.58,367.36 688.53,371.18 689.47,374.78 690.42,378.15 691.36,381.29 692.31,384.21 693.25,386.91 694.20,389.38 695.14,391.62 696.09,393.65 697.03,395.45 697.98,397.02 698.92,398.37 699.87,399.50 700.82,400.41 701.76,401.10 702.71,401.56 703.65,401.80 704.60,401.82 705.54,401.63 706.49,401.21 707.43,400.57 708.38,399.71 709.32,398.64 710.27,397.35 711.21,395.83 712.16,394.11 713.11,392.16 714.05,390.00 715.00,387.62 715.94,385.03 716.89,382.22 717.83,379.19 718.78,375.95 719.72,372.50 720.67,368.84 721.61,364.96 722.56,360.86 723.50,356.56 724.45,352.04 725.39,347.32 726.34,342.38 727.29,337.23 728.23,331.88 729.18,326.31 730.12,320.54 731.07,314.56 732.01,308.37 732.96,301.97 733.90,295.37 734.85,288.56 735.79,281.55 736.74,274.33 737.68,266.92 738.63,259.34 739.58,251.64 740.52,243.86 741.47,236.04 742.41,228.22 743.36,220.45 744.30,212.76 745.25,205.19 746.19,197.79 747.14,190.59 748.08,183.60 749.03,176.83 749.97,170.28 750.92,163.97 751.87,157.88 752.81,152.03 753.76,146.40 754.70,141.00 755.65,135.84 756.59,130.90 757.54,126.19 758.48,121.71 759.43,117.46"/>
<line x1="828" y1="102" x2="856" y2="102" stroke="#2f6fbb" stroke-width="3"/>
<text x="864" y="106" font-family="Arial" font-size="13">roll</text>
<polyline fill="none" stroke="#555555" stroke-width="2.2" points="116.57,402.22 117.52,402.30 118.46,402.37 119.41,402.44 120.35,402.51 121.30,402.57 122.24,402.62 123.19,402.67 124.13,402.71 125.08,402.74 126.03,402.77 126.97,402.79 127.92,402.80 128.86,402.80 129.81,402.79 130.75,402.78 131.70,402.77 132.64,402.74 133.59,402.72 134.53,402.69 135.48,402.66 136.42,402.62 137.37,402.59 138.32,402.55 139.26,402.52 140.21,402.48 141.15,402.45 142.10,402.42 143.04,402.40 143.99,402.38 144.93,402.37 145.88,402.36 146.82,402.35 147.77,402.36 148.71,402.36 149.66,402.38 150.61,402.40 151.55,402.42 152.50,402.45 153.44,402.48 154.39,402.52 155.33,402.57 156.28,402.61 157.22,402.66 158.17,402.72 159.11,402.77 160.06,402.83 161.00,402.88 161.95,402.94 162.89,402.99 163.84,403.05 164.79,403.10 165.73,403.15 166.68,403.20 167.62,403.25 168.57,403.29 169.51,403.34 170.46,403.37 171.40,403.41 172.35,403.44 173.29,403.46 174.24,403.49 175.18,403.51 176.13,403.53 177.08,403.54 178.02,403.55 178.97,403.56 179.91,403.57 180.86,403.57 181.80,403.57 182.75,403.58 183.69,403.58 184.64,403.58 185.58,403.58 186.53,403.58 187.47,403.58 188.42,403.58 189.37,403.58 190.31,403.58 191.26,403.59 192.20,403.59 193.15,403.60 194.09,403.61 195.04,403.62 195.98,403.64 196.93,403.66 197.87,403.68 198.82,403.70 199.76,403.72 200.71,403.75 201.66,403.78 202.60,403.81 203.55,403.85 204.49,403.89 205.44,403.93 206.38,403.97 207.33,404.01 208.27,404.06 209.22,404.10 210.16,404.15 211.11,404.20 212.05,404.25 213.00,404.29 213.95,404.34 214.89,404.39 215.84,404.44 216.78,404.48 217.73,404.53 218.67,404.57 219.62,404.61 220.56,404.65 221.51,404.69 222.45,404.73 223.40,404.76 224.34,404.79 225.29,404.81 226.24,404.84 227.18,404.86 228.13,404.87 229.07,404.89 230.02,404.90 230.96,404.91 231.91,404.91 232.85,404.91 233.80,404.91 234.74,404.90 235.69,404.89 236.63,404.88 237.58,404.87 238.53,404.86 239.47,404.84 240.42,404.82 241.36,404.81 242.31,404.79 243.25,404.77 244.20,404.75 245.14,404.74 246.09,404.73 247.03,404.71 247.98,404.71 248.92,404.70 249.87,404.70 250.82,404.70 251.76,404.70 252.71,404.71 253.65,404.72 254.60,404.73 255.54,404.75 256.49,404.77 257.43,404.80 258.38,404.82 259.32,404.85 260.27,404.89 261.21,404.92 262.16,404.96 263.11,405.00 264.05,405.04 265.00,405.08 265.94,405.11 266.89,405.15 267.83,405.19 268.78,405.23 269.72,405.26 270.67,405.30 271.61,405.33 272.56,405.36 273.50,405.38 274.45,405.40 275.39,405.42 276.34,405.44 277.29,405.45 278.23,405.46 279.18,405.47 280.12,405.47 281.07,405.47 282.01,405.47 282.96,405.47 283.90,405.46 284.85,405.45 285.79,405.44 286.74,405.43 287.68,405.42 288.63,405.41 289.58,405.40 290.52,405.39 291.47,405.38 292.41,405.37 293.36,405.37 294.30,405.36 295.25,405.36 296.19,405.36 297.14,405.36 298.08,405.36 299.03,405.37 299.97,405.38 300.92,405.39 301.87,405.40 302.81,405.41 303.76,405.43 304.70,405.45 305.65,405.47 306.59,405.49 307.54,405.52 308.48,405.54 309.43,405.57 310.37,405.59 311.32,405.62 312.26,405.65 313.21,405.68 314.16,405.71 315.10,405.73 316.05,405.76 316.99,405.79 317.94,405.82 318.88,405.84 319.83,405.87 320.77,405.89 321.72,405.91 322.66,405.93 323.61,405.95 324.55,405.97 325.50,405.98 326.45,406.00 327.39,406.01 328.34,406.02 329.28,406.03 330.23,406.04 331.17,406.05 332.12,406.05 333.06,406.06 334.01,406.06 334.95,406.06 335.90,406.06 336.84,406.06 337.79,406.06 338.74,406.06 339.68,406.06 340.63,406.06 341.57,406.06 342.52,406.06 343.46,406.06 344.41,406.06 345.35,406.07 346.30,406.07 347.24,406.08 348.19,406.08 349.13,406.09 350.08,406.10 351.03,406.11 351.97,406.12 352.92,406.14 353.86,406.15 354.81,406.17 355.75,406.19 356.70,406.21 357.64,406.24 358.59,406.26 359.53,406.29 360.48,406.32 361.42,406.35 362.37,406.38 363.32,406.42 364.26,406.45 365.21,406.49 366.15,406.52 367.10,406.56 368.04,406.59 368.99,406.63 369.93,406.66 370.88,406.70 371.82,406.73 372.77,406.76 373.71,406.79 374.66,406.82 375.61,406.85 376.55,406.87 377.50,406.89 378.44,406.91 379.39,406.93 380.33,406.94 381.28,406.94 382.22,406.95 383.17,406.95 384.11,406.94 385.06,406.94 386.00,406.93 386.95,406.91 387.89,406.90 388.84,406.88 389.79,406.86 390.73,406.83 391.68,406.81 392.62,406.79 393.57,406.76 394.51,406.73 395.46,406.71 396.40,406.69 397.35,406.66 398.29,406.64 399.24,406.62 400.18,406.61 401.13,406.59 402.08,406.58 403.02,406.58 403.97,406.57 404.91,406.57 405.86,406.58 406.80,406.58 407.75,406.60 408.69,406.61 409.64,406.62 410.58,406.64 411.53,406.66 412.47,406.69 413.42,406.71 414.37,406.74 415.31,406.76 416.26,406.79 417.20,406.82 418.15,406.84 419.09,406.87 420.04,406.89 420.98,406.91 421.93,406.93 422.87,406.95 423.82,406.96 424.76,406.98 425.71,406.98 426.66,406.99 427.60,406.99 428.55,406.99 429.49,406.99 430.44,406.99 431.38,406.98 432.33,406.97 433.27,406.95 434.22,406.94 435.16,406.92 436.11,406.90 437.05,406.89 438.00,406.87 438.95,406.85 439.89,406.83 440.84,406.81 441.78,406.79 442.73,406.77 443.67,406.76 444.62,406.74 445.56,406.73 446.51,406.72 447.45,406.71 448.40,406.71 449.34,406.70 450.29,406.70 451.24,406.71 452.18,406.71 453.13,406.71 454.07,406.72 455.02,406.73 455.96,406.75 456.91,406.76 457.85,406.78 458.80,406.79 459.74,406.81 460.69,406.83 461.63,406.85 462.58,406.87 463.53,406.90 464.47,406.92 465.42,406.94 466.36,406.96 467.31,406.98 468.25,406.99 469.20,407.01 470.14,407.02 471.09,407.04 472.03,407.05 472.98,407.05 473.92,407.06 474.87,407.06 475.82,407.06 476.76,407.06 477.71,407.06 478.65,407.05 479.60,407.04 480.54,407.03 481.49,407.02 482.43,407.01 483.38,406.99 484.32,406.97 485.27,406.96 486.21,406.94 487.16,406.92 488.11,406.90 489.05,406.88 490.00,406.86 490.94,406.84 491.89,406.82 492.83,406.80 493.78,406.79 494.72,406.77 495.67,406.76 496.61,406.75 497.56,406.74 498.50,406.74 499.45,406.73 500.39,406.73 501.34,406.74 502.29,406.74 503.23,406.75 504.18,406.77 505.12,406.78 506.07,406.80 507.01,406.82 507.96,406.84 508.90,406.87 509.85,406.90 510.79,406.93 511.74,406.96 512.68,406.99 513.63,407.03 514.58,407.06 515.52,407.09 516.47,407.13 517.41,407.16 518.36,407.19 519.30,407.22 520.25,407.24 521.19,407.27 522.14,407.29 523.08,407.30 524.03,407.31 524.97,407.32 525.92,407.32 526.87,407.32 527.81,407.31 528.76,407.30 529.70,407.28 530.65,407.26 531.59,407.23 532.54,407.20 533.48,407.16 534.43,407.12 535.37,407.08 536.32,407.03 537.26,406.98 538.21,406.93 539.16,406.88 540.10,406.83 541.05,406.77 541.99,406.72 542.94,406.67 543.88,406.63 544.83,406.58 545.77,406.54 546.72,406.51 547.66,406.47 548.61,406.45 549.55,406.42 550.50,406.40 551.45,406.39 552.39,406.38 553.34,406.38 554.28,406.37 555.23,406.38 556.17,406.38 557.12,406.39 558.06,406.41 559.01,406.42 559.95,406.44 560.90,406.45 561.84,406.47 562.79,406.49 563.74,406.51 564.68,406.52 565.63,406.53 566.57,406.54 567.52,406.55 568.46,406.55 569.41,406.56 570.35,406.55 571.30,406.54 572.24,406.53 573.19,406.52 574.13,406.50 575.08,406.48 576.03,406.45 576.97,406.42 577.92,406.38 578.86,406.35 579.81,406.31 580.75,406.27 581.70,406.22 582.64,406.18 583.59,406.14 584.53,406.09 585.48,406.05 586.42,406.00 587.37,405.96 588.32,405.92 589.26,405.88 590.21,405.85 591.15,405.81 592.10,405.78 593.04,405.76 593.99,405.73 594.93,405.71 595.88,405.69 596.82,405.68 597.77,405.67 598.71,405.66 599.66,405.65 600.61,405.65 601.55,405.65 602.50,405.65 603.44,405.65 604.39,405.65 605.33,405.66 606.28,405.66 607.22,405.67 608.17,405.67 609.11,405.67 610.06,405.68 611.00,405.68 611.95,405.68 612.89,405.68 613.84,405.67 614.79,405.67 615.73,405.66 616.68,405.64 617.62,405.63 618.57,405.61 619.51,405.59 620.46,405.56 621.40,405.54 622.35,405.50 623.29,405.47 624.24,405.43 625.18,405.40 626.13,405.36 627.08,405.31 628.02,405.27 628.97,405.22 629.91,405.18 630.86,405.13 631.80,405.08 632.75,405.03 633.69,404.99 634.64,404.94 635.58,404.90 636.53,404.86 637.47,404.81 638.42,404.78 639.37,404.74 640.31,404.71 641.26,404.68 642.20,404.65 643.15,404.63 644.09,404.61 645.04,404.60 645.98,404.59 646.93,404.58 647.87,404.58 648.82,404.58 649.76,404.58 650.71,404.59 651.66,404.60 652.60,404.61 653.55,404.62 654.49,404.64 655.44,404.66 656.38,404.68 657.33,404.70 658.27,404.72 659.22,404.74 660.16,404.75 661.11,404.77 662.05,404.78 663.00,404.79 663.95,404.80 664.89,404.81 665.84,404.81 666.78,404.80 667.73,404.79 668.67,404.77 669.62,404.75 670.56,404.72 671.51,404.69 672.45,404.65 673.40,404.60 674.34,404.55 675.29,404.49 676.24,404.43 677.18,404.36 678.13,404.29 679.07,404.21 680.02,404.13 680.96,404.05 681.91,403.97 682.85,403.89 683.80,403.81 684.74,403.72 685.69,403.65 686.63,403.57 687.58,403.50 688.53,403.43 689.47,403.37 690.42,403.31 691.36,403.25 692.31,403.21 693.25,403.17 694.20,403.13 695.14,403.10 696.09,403.08 697.03,403.06 697.98,403.05 698.92,403.04 699.87,403.04 700.82,403.04 701.76,403.04 702.71,403.05 703.65,403.06 704.60,403.06 705.54,403.07 706.49,403.08 707.43,403.08 708.38,403.09 709.32,403.09 710.27,403.08 711.21,403.07 712.16,403.06 713.11,403.04 714.05,403.02 715.00,403.00 715.94,402.96 716.89,402.93 717.83,402.89 718.78,402.84 719.72,402.79 720.67,402.74 721.61,402.68 722.56,402.62 723.50,402.56 724.45,402.50 725.39,402.44 726.34,402.37 727.29,402.31 728.23,402.25 729.18,402.19 730.12,402.13 731.07,402.07 732.01,402.02 732.96,401.97 733.90,401.92 734.85,401.88 735.79,401.84 736.74,401.81 737.68,401.78 738.63,401.75 739.58,401.73 740.52,401.71 741.47,401.69 742.41,401.68 743.36,401.67 744.30,401.66 745.25,401.66 746.19,401.65 747.14,401.65 748.08,401.65 749.03,401.65 749.97,401.64 750.92,401.64 751.87,401.64 752.81,401.63 753.76,401.63 754.70,401.62 755.65,401.61 756.59,401.60 757.54,401.58 758.48,401.56 759.43,401.54"/>
<line x1="828" y1="126" x2="856" y2="126" stroke="#555555" stroke-width="3"/>
<text x="864" y="130" font-family="Arial" font-size="13">pitch ref</text>
<polyline fill="none" stroke="#258a45" stroke-width="2.2" points="116.57,402.15 117.52,402.14 118.46,402.11 119.41,402.02 120.35,401.86 121.30,401.62 122.24,401.30 123.19,400.91 124.13,400.45 125.08,399.92 126.03,399.35 126.97,398.73 127.92,398.08 128.86,397.42 129.81,396.74 130.75,396.07 131.70,395.42 132.64,394.79 133.59,394.19 134.53,393.65 135.48,393.15 136.42,392.72 137.37,392.35 138.32,392.05 139.26,391.83 140.21,391.69 141.15,391.62 142.10,391.64 143.04,391.72 143.99,391.88 144.93,392.11 145.88,392.40 146.82,392.75 147.77,393.14 148.71,393.58 149.66,394.05 150.61,394.54 151.55,395.05 152.50,395.56 153.44,396.07 154.39,396.56 155.33,397.05 156.28,397.50 157.22,397.93 158.17,398.32 159.11,398.68 160.06,398.99 161.00,399.26 161.95,399.48 162.89,399.66 163.84,399.79 164.79,399.87 165.73,399.90 166.68,399.89 167.62,399.84 168.57,399.74 169.51,399.61 170.46,399.44 171.40,399.24 172.35,399.01 173.29,398.76 174.24,398.50 175.18,398.22 176.13,397.92 177.08,397.63 178.02,397.33 178.97,397.04 179.91,396.75 180.86,396.48 181.80,396.21 182.75,395.97 183.69,395.74 184.64,395.54 185.58,395.36 186.53,395.21 187.47,395.09 188.42,394.99 189.37,394.93 190.31,394.89 191.26,394.89 192.20,394.91 193.15,394.97 194.09,395.05 195.04,395.16 195.98,395.30 196.93,395.47 197.87,395.65 198.82,395.86 199.76,396.09 200.71,396.34 201.66,396.60 202.60,396.88 203.55,397.16 204.49,397.46 205.44,397.75 206.38,398.05 207.33,398.35 208.27,398.65 209.22,398.93 210.16,399.21 211.11,399.47 212.05,399.72 213.00,399.95 213.95,400.16 214.89,400.35 215.84,400.51 216.78,400.65 217.73,400.76 218.67,400.84 219.62,400.88 220.56,400.90 221.51,400.88 222.45,400.84 223.40,400.76 224.34,400.65 225.29,400.52 226.24,400.35 227.18,400.16 228.13,399.94 229.07,399.70 230.02,399.44 230.96,399.16 231.91,398.86 232.85,398.55 233.80,398.23 234.74,397.91 235.69,397.59 236.63,397.28 237.58,396.98 238.53,396.69 239.47,396.43 240.42,396.20 241.36,396.00 242.31,395.84 243.25,395.71 244.20,395.63 245.14,395.59 246.09,395.59 247.03,395.64 247.98,395.74 248.92,395.87 249.87,396.05 250.82,396.27 251.76,396.52 252.71,396.80 253.65,397.11 254.60,397.44 255.54,397.79 256.49,398.15 257.43,398.51 258.38,398.88 259.32,399.24 260.27,399.58 261.21,399.91 262.16,400.22 263.11,400.50 264.05,400.76 265.00,400.97 265.94,401.16 266.89,401.30 267.83,401.40 268.78,401.47 269.72,401.49 270.67,401.47 271.61,401.41 272.56,401.32 273.50,401.19 274.45,401.02 275.39,400.83 276.34,400.62 277.29,400.38 278.23,400.13 279.18,399.87 280.12,399.61 281.07,399.34 282.01,399.08 282.96,398.82 283.90,398.58 284.85,398.36 285.79,398.15 286.74,397.97 287.68,397.82 288.63,397.69 289.58,397.60 290.52,397.54 291.47,397.50 292.41,397.50 293.36,397.53 294.30,397.59 295.25,397.68 296.19,397.79 297.14,397.92 298.08,398.07 299.03,398.24 299.97,398.42 300.92,398.61 301.87,398.81 302.81,399.02 303.76,399.22 304.70,399.43 305.65,399.63 306.59,399.82 307.54,400.01 308.48,400.19 309.43,400.37 310.37,400.53 311.32,400.67 312.26,400.80 313.21,400.92 314.16,401.02 315.10,401.09 316.05,401.15 316.99,401.19 317.94,401.21 318.88,401.21 319.83,401.19 320.77,401.15 321.72,401.09 322.66,401.02 323.61,400.92 324.55,400.81 325.50,400.69 326.45,400.55 327.39,400.41 328.34,400.25 329.28,400.09 330.23,399.92 331.17,399.75 332.12,399.57 333.06,399.39 334.01,399.22 334.95,399.05 335.90,398.89 336.84,398.73 337.79,398.58 338.74,398.44 339.68,398.32 340.63,398.21 341.57,398.11 342.52,398.04 343.46,397.98 344.41,397.93 345.35,397.91 346.30,397.91 347.24,397.94 348.19,397.98 349.13,398.05 350.08,398.13 351.03,398.24 351.97,398.38 352.92,398.53 353.86,398.70 354.81,398.89 355.75,399.10 356.70,399.32 357.64,399.56 358.59,399.80 359.53,400.06 360.48,400.32 361.42,400.59 362.37,400.86 363.32,401.13 364.26,401.39 365.21,401.64 366.15,401.88 367.10,402.11 368.04,402.32 368.99,402.51 369.93,402.67 370.88,402.81 371.82,402.93 372.77,403.01 373.71,403.06 374.66,403.07 375.61,403.05 376.55,402.99 377.50,402.89 378.44,402.75 379.39,402.58 380.33,402.37 381.28,402.13 382.22,401.86 383.17,401.56 384.11,401.25 385.06,400.92 386.00,400.58 386.95,400.25 387.89,399.91 388.84,399.59 389.79,399.28 390.73,399.00 391.68,398.74 392.62,398.51 393.57,398.32 394.51,398.16 395.46,398.05 396.40,397.98 397.35,397.95 398.29,397.97 399.24,398.04 400.18,398.14 401.13,398.29 402.08,398.47 403.02,398.69 403.97,398.94 404.91,399.22 405.86,399.52 406.80,399.83 407.75,400.15 408.69,400.48 409.64,400.81 410.58,401.13 411.53,401.43 412.47,401.73 413.42,402.00 414.37,402.24 415.31,402.46 416.26,402.64 417.20,402.79 418.15,402.90 419.09,402.97 420.04,403.01 420.98,403.00 421.93,402.96 422.87,402.88 423.82,402.77 424.76,402.63 425.71,402.46 426.66,402.26 427.60,402.04 428.55,401.81 429.49,401.57 430.44,401.32 431.38,401.06 432.33,400.81 433.27,400.57 434.22,400.33 435.16,400.11 436.11,399.91 437.05,399.73 438.00,399.58 438.95,399.45 439.89,399.35 440.84,399.27 441.78,399.23 442.73,399.21 443.67,399.23 444.62,399.27 445.56,399.33 446.51,399.42 447.45,399.54 448.40,399.67 449.34,399.83 450.29,400.00 451.24,400.19 452.18,400.39 453.13,400.60 454.07,400.81 455.02,401.04 455.96,401.26 456.91,401.48 457.85,401.70 458.80,401.91 459.74,402.11 460.69,402.30 461.63,402.46 462.58,402.61 463.53,402.73 464.47,402.83 465.42,402.91 466.36,402.95 467.31,402.97 468.25,402.96 469.20,402.92 470.14,402.85 471.09,402.76 472.03,402.63 472.98,402.48 473.92,402.31 474.87,402.11 475.82,401.90 476.76,401.66 477.71,401.41 478.65,401.15 479.60,400.88 480.54,400.61 481.49,400.33 482.43,400.05 483.38,399.77 484.32,399.51 485.27,399.25 486.21,399.01 487.16,398.78 488.11,398.57 489.05,398.39 490.00,398.23 490.94,398.10 491.89,398.00 492.83,397.93 493.78,397.90 494.72,397.90 495.67,397.94 496.61,398.01 497.56,398.12 498.50,398.26 499.45,398.44 500.39,398.65 501.34,398.90 502.29,399.17 503.23,399.47 504.18,399.80 505.12,400.15 506.07,400.51 507.01,400.89 507.96,401.28 508.90,401.67 509.85,402.05 510.79,402.44 511.74,402.81 512.68,403.16 513.63,403.50 514.58,403.80 515.52,404.08 516.47,404.32 517.41,404.52 518.36,404.68 519.30,404.78 520.25,404.84 521.19,404.84 522.14,404.78 523.08,404.67 524.03,404.50 524.97,404.27 525.92,403.99 526.87,403.66 527.81,403.28 528.76,402.87 529.70,402.43 530.65,401.96 531.59,401.47 532.54,400.98 533.48,400.49 534.43,400.01 535.37,399.55 536.32,399.11 537.26,398.71 538.21,398.35 539.16,398.04 540.10,397.78 541.05,397.57 541.99,397.43 542.94,397.35 543.88,397.32 544.83,397.37 545.77,397.47 546.72,397.63 547.66,397.84 548.61,398.10 549.55,398.41 550.50,398.75 551.45,399.13 552.39,399.53 553.34,399.95 554.28,400.37 555.23,400.80 556.17,401.21 557.12,401.62 558.06,402.00 559.01,402.35 559.95,402.67 560.90,402.94 561.84,403.18 562.79,403.36 563.74,403.49 564.68,403.57 565.63,403.60 566.57,403.57 567.52,403.49 568.46,403.37 569.41,403.19 570.35,402.98 571.30,402.72 572.24,402.44 573.19,402.12 574.13,401.79 575.08,401.44 576.03,401.08 576.97,400.72 577.92,400.37 578.86,400.03 579.81,399.71 580.75,399.41 581.70,399.13 582.64,398.89 583.59,398.68 584.53,398.51 585.48,398.38 586.42,398.29 587.37,398.25 588.32,398.24 589.26,398.27 590.21,398.34 591.15,398.44 592.10,398.58 593.04,398.74 593.99,398.94 594.93,399.15 595.88,399.39 596.82,399.64 597.77,399.90 598.71,400.17 599.66,400.45 600.61,400.72 601.55,400.99 602.50,401.25 603.44,401.49 604.39,401.72 605.33,401.92 606.28,402.10 607.22,402.25 608.17,402.36 609.11,402.44 610.06,402.49 611.00,402.49 611.95,402.46 612.89,402.39 613.84,402.29 614.79,402.14 615.73,401.97 616.68,401.75 617.62,401.51 618.57,401.24 619.51,400.95 620.46,400.63 621.40,400.29 622.35,399.95 623.29,399.59 624.24,399.22 625.18,398.85 626.13,398.49 627.08,398.13 628.02,397.78 628.97,397.45 629.91,397.14 630.86,396.86 631.80,396.59 632.75,396.37 633.69,396.17 634.64,396.01 635.58,395.89 636.53,395.81 637.47,395.77 638.42,395.78 639.37,395.83 640.31,395.93 641.26,396.07 642.20,396.26 643.15,396.48 644.09,396.75 645.04,397.05 645.98,397.39 646.93,397.76 647.87,398.16 648.82,398.57 649.76,399.01 650.71,399.46 651.66,399.91 652.60,400.36 653.55,400.81 654.49,401.24 655.44,401.65 656.38,402.04 657.33,402.40 658.27,402.72 659.22,403.00 660.16,403.23 661.11,403.41 662.05,403.53 663.00,403.59 663.95,403.59 664.89,403.52 665.84,403.39 666.78,403.19 667.73,402.92 668.67,402.58 669.62,402.19 670.56,401.74 671.51,401.24 672.45,400.69 673.40,400.11 674.34,399.51 675.29,398.89 676.24,398.27 677.18,397.65 678.13,397.05 679.07,396.48 680.02,395.95 680.96,395.47 681.91,395.04 682.85,394.67 683.80,394.38 684.74,394.15 685.69,394.00 686.63,393.93 687.58,393.94 688.53,394.03 689.47,394.19 690.42,394.42 691.36,394.71 692.31,395.06 693.25,395.46 694.20,395.91 695.14,396.38 696.09,396.88 697.03,397.40 697.98,397.91 698.92,398.42 699.87,398.91 700.82,399.37 701.76,399.80 702.71,400.19 703.65,400.52 704.60,400.80 705.54,401.01 706.49,401.17 707.43,401.25 708.38,401.27 709.32,401.22 710.27,401.10 711.21,400.92 712.16,400.69 713.11,400.40 714.05,400.06 715.00,399.68 715.94,399.27 716.89,398.84 717.83,398.38 718.78,397.92 719.72,397.47 720.67,397.02 721.61,396.58 722.56,396.18 723.50,395.80 724.45,395.46 725.39,395.17 726.34,394.92 727.29,394.72 728.23,394.57 729.18,394.47 730.12,394.43 731.07,394.44 732.01,394.49 732.96,394.60 733.90,394.74 734.85,394.92 735.79,395.14 736.74,395.38 737.68,395.64 738.63,395.92 739.58,396.21 740.52,396.50 741.47,396.80 742.41,397.09 743.36,397.37 744.30,397.64 745.25,397.88 746.19,398.11 747.14,398.31 748.08,398.48 749.03,398.62 749.97,398.72 750.92,398.78 751.87,398.81 752.81,398.80 753.76,398.75 754.70,398.65 755.65,398.53 756.59,398.36 757.54,398.16 758.48,397.93 759.43,397.67"/>
<line x1="828" y1="150" x2="856" y2="150" stroke="#258a45" stroke-width="3"/>
<text x="864" y="154" font-family="Arial" font-size="13">pitch</text>
<polyline fill="none" stroke="#888888" stroke-width="2.2" points="116.57,402.21 117.52,402.19 118.46,402.17 119.41,402.14 120.35,402.12 121.30,402.09 122.24,402.07 123.19,402.04 124.13,402.00 125.08,401.97 126.03,401.93 126.97,401.90 127.92,401.86 128.86,401.81 129.81,401.77 130.75,401.72 131.70,401.67 132.64,401.62 133.59,401.57 134.53,401.52 135.48,401.46 136.42,401.40 137.37,401.34 138.32,401.28 139.26,401.22 140.21,401.15 141.15,401.09 142.10,401.02 143.04,400.96 143.99,400.89 144.93,400.82 145.88,400.75 146.82,400.68 147.77,400.61 148.71,400.54 149.66,400.47 150.61,400.40 151.55,400.33 152.50,400.26 153.44,400.18 154.39,400.11 155.33,400.04 156.28,399.97 157.22,399.89 158.17,399.82 159.11,399.74 160.06,399.67 161.00,399.59 161.95,399.51 162.89,399.43 163.84,399.35 164.79,399.27 165.73,399.18 166.68,399.10 167.62,399.01 168.57,398.93 169.51,398.84 170.46,398.75 171.40,398.66 172.35,398.56 173.29,398.47 174.24,398.38 175.18,398.28 176.13,398.18 177.08,398.08 178.02,397.98 178.97,397.88 179.91,397.78 180.86,397.68 181.80,397.58 182.75,397.47 183.69,397.37 184.64,397.26 185.58,397.16 186.53,397.05 187.47,396.95 188.42,396.84 189.37,396.73 190.31,396.63 191.26,396.52 192.20,396.42 193.15,396.31 194.09,396.21 195.04,396.10 195.98,396.00 196.93,395.89 197.87,395.79 198.82,395.69 199.76,395.59 200.71,395.48 201.66,395.38 202.60,395.28 203.55,395.18 204.49,395.08 205.44,394.98 206.38,394.88 207.33,394.78 208.27,394.69 209.22,394.59 210.16,394.49 211.11,394.39 212.05,394.30 213.00,394.20 213.95,394.10 214.89,394.01 215.84,393.91 216.78,393.81 217.73,393.71 218.67,393.62 219.62,393.52 220.56,393.42 221.51,393.32 222.45,393.23 223.40,393.13 224.34,393.03 225.29,392.94 226.24,392.84 227.18,392.74 228.13,392.65 229.07,392.55 230.02,392.46 230.96,392.37 231.91,392.28 232.85,392.19 233.80,392.10 234.74,392.01 235.69,391.93 236.63,391.85 237.58,391.77 238.53,391.69 239.47,391.62 240.42,391.54 241.36,391.47 242.31,391.41 243.25,391.34 244.20,391.28 245.14,391.22 246.09,391.16 247.03,391.10 247.98,391.05 248.92,391.00 249.87,390.95 250.82,390.90 251.76,390.85 252.71,390.80 253.65,390.76 254.60,390.72 255.54,390.68 256.49,390.63 257.43,390.59 258.38,390.55 259.32,390.51 260.27,390.47 261.21,390.43 262.16,390.40 263.11,390.36 264.05,390.32 265.00,390.28 265.94,390.23 266.89,390.19 267.83,390.15 268.78,390.10 269.72,390.06 270.67,390.01 271.61,389.97 272.56,389.92 273.50,389.87 274.45,389.81 275.39,389.76 276.34,389.70 277.29,389.65 278.23,389.59 279.18,389.53 280.12,389.47 281.07,389.40 282.01,389.34 282.96,389.27 283.90,389.20 284.85,389.13 285.79,389.06 286.74,388.99 287.68,388.91 288.63,388.83 289.58,388.76 290.52,388.68 291.47,388.59 292.41,388.51 293.36,388.43 294.30,388.34 295.25,388.26 296.19,388.17 297.14,388.08 298.08,387.99 299.03,387.90 299.97,387.81 300.92,387.72 301.87,387.62 302.81,387.53 303.76,387.43 304.70,387.33 305.65,387.23 306.59,387.13 307.54,387.03 308.48,386.92 309.43,386.82 310.37,386.71 311.32,386.60 312.26,386.49 313.21,386.38 314.16,386.26 315.10,386.14 316.05,386.03 316.99,385.91 317.94,385.79 318.88,385.67 319.83,385.54 320.77,385.42 321.72,385.29 322.66,385.17 323.61,385.04 324.55,384.91 325.50,384.80 326.45,384.70 327.39,384.60 328.34,384.50 329.28,384.41 330.23,384.31 331.17,384.21 332.12,384.10 333.06,384.00 334.01,383.90 334.95,383.80 335.90,383.70 336.84,383.60 337.79,383.50 338.74,383.40 339.68,383.30 340.63,383.20 341.57,383.11 342.52,383.01 343.46,382.91 344.41,382.81 345.35,382.72 346.30,382.62 347.24,382.53 348.19,382.44 349.13,382.35 350.08,382.25 351.03,382.16 351.97,382.08 352.92,381.99 353.86,381.90 354.81,381.81 355.75,381.73 356.70,381.65 357.64,381.56 358.59,381.48 359.53,381.40 360.48,381.32 361.42,381.24 362.37,381.16 363.32,381.08 364.26,381.00 365.21,380.92 366.15,380.84 367.10,380.76 368.04,380.69 368.99,380.61 369.93,380.53 370.88,380.46 371.82,380.38 372.77,380.30 373.71,380.23 374.66,380.15 375.61,380.08 376.55,380.01 377.50,379.93 378.44,379.86 379.39,379.79 380.33,379.72 381.28,379.66 382.22,379.59 383.17,379.53 384.11,379.47 385.06,379.41 386.00,379.35 386.95,379.29 387.89,379.24 388.84,379.19 389.79,379.14 390.73,379.09 391.68,379.04 392.62,379.00 393.57,378.96 394.51,378.92 395.46,378.88 396.40,378.84 397.35,378.81 398.29,378.78 399.24,378.75 400.18,378.72 401.13,378.69 402.08,378.67 403.02,378.64 403.97,378.62 404.91,378.60 405.86,378.57 406.80,378.55 407.75,378.53 408.69,378.51 409.64,378.49 410.58,378.48 411.53,378.46 412.47,378.44 413.42,378.42 414.37,378.40 415.31,378.38 416.26,378.36 417.20,378.34 418.15,378.32 419.09,378.30 420.04,378.27 420.98,378.25 421.93,378.22 422.87,378.20 423.82,378.17 424.76,378.14 425.71,378.11 426.66,378.08 427.60,378.05 428.55,378.02 429.49,377.98 430.44,377.94 431.38,377.91 432.33,377.87 433.27,377.82 434.22,377.78 435.16,377.74 436.11,377.69 437.05,377.65 438.00,377.60 438.95,377.55 439.89,377.50 440.84,377.44 441.78,377.39 442.73,377.34 443.67,377.28 444.62,377.22 445.56,377.16 446.51,377.10 447.45,377.04 448.40,376.98 449.34,376.91 450.29,376.85 451.24,376.78 452.18,376.71 453.13,376.63 454.07,376.56 455.02,376.48 455.96,376.41 456.91,376.33 457.85,376.24 458.80,376.16 459.74,376.07 460.69,375.99 461.63,375.90 462.58,375.81 463.53,375.72 464.47,375.62 465.42,375.53 466.36,375.43 467.31,375.34 468.25,375.24 469.20,375.14 470.14,375.04 471.09,374.94 472.03,374.84 472.98,374.74 473.92,374.63 474.87,374.53 475.82,374.43 476.76,374.32 477.71,374.22 478.65,374.11 479.60,374.01 480.54,373.90 481.49,373.80 482.43,373.70 483.38,373.59 484.32,373.49 485.27,373.38 486.21,373.28 487.16,373.18 488.11,373.08 489.05,372.98 490.00,372.88 490.94,372.78 491.89,372.68 492.83,372.59 493.78,372.49 494.72,372.40 495.67,372.31 496.61,372.22 497.56,372.13 498.50,372.04 499.45,371.95 500.39,371.87 501.34,371.78 502.29,371.70 503.23,371.62 504.18,371.54 505.12,371.45 506.07,371.38 507.01,371.30 507.96,371.22 508.90,371.14 509.85,371.06 510.79,370.99 511.74,370.91 512.68,370.84 513.63,370.76 514.58,370.69 515.52,370.61 516.47,370.53 517.41,370.46 518.36,370.38 519.30,370.31 520.25,370.23 521.19,370.16 522.14,370.08 523.08,370.01 524.03,369.94 524.97,369.87 525.92,369.80 526.87,369.73 527.81,369.66 528.76,369.59 529.70,369.53 530.65,369.46 531.59,369.40 532.54,369.34 533.48,369.28 534.43,369.22 535.37,369.17 536.32,369.12 537.26,369.07 538.21,369.02 539.16,368.97 540.10,368.93 541.05,368.89 541.99,368.85 542.94,368.81 543.88,368.77 544.83,368.74 545.77,368.71 546.72,368.68 547.66,368.65 548.61,368.63 549.55,368.60 550.50,368.58 551.45,368.55 552.39,368.53 553.34,368.51 554.28,368.49 555.23,368.47 556.17,368.46 557.12,368.44 558.06,368.42 559.01,368.40 559.95,368.38 560.90,368.37 561.84,368.35 562.79,368.33 563.74,368.31 564.68,368.29 565.63,368.27 566.57,368.25 567.52,368.22 568.46,368.20 569.41,368.17 570.35,368.15 571.30,368.12 572.24,368.09 573.19,368.06 574.13,368.02 575.08,367.99 576.03,367.95 576.97,367.92 577.92,367.88 578.86,367.84 579.81,367.79 580.75,367.75 581.70,367.70 582.64,367.66 583.59,367.61 584.53,367.56 585.48,367.50 586.42,367.45 587.37,367.39 588.32,367.34 589.26,367.28 590.21,367.22 591.15,367.16 592.10,367.09 593.04,367.03 593.99,366.96 594.93,366.89 595.88,366.82 596.82,366.75 597.77,366.68 598.71,366.60 599.66,366.52 600.61,366.44 601.55,366.36 602.50,366.27 603.44,366.19 604.39,366.10 605.33,366.01 606.28,365.91 607.22,365.82 608.17,365.73 609.11,365.63 610.06,365.53 611.00,365.43 611.95,365.33 612.89,365.23 613.84,365.13 614.79,365.02 615.73,364.92 616.68,364.81 617.62,364.71 618.57,364.60 619.51,364.49 620.46,364.38 621.40,364.28 622.35,364.17 623.29,364.06 624.24,363.95 625.18,363.84 626.13,363.73 627.08,363.63 628.02,363.52 628.97,363.41 629.91,363.31 630.86,363.20 631.80,363.10 632.75,362.99 633.69,362.89 634.64,362.79 635.58,362.69 636.53,362.59 637.47,362.50 638.42,362.40 639.37,362.31 640.31,362.21 641.26,362.12 642.20,362.03 643.15,361.94 644.09,361.86 645.04,361.77 645.98,361.68 646.93,361.60 647.87,361.52 648.82,361.44 649.76,361.35 650.71,361.27 651.66,361.19 652.60,361.11 653.55,361.03 654.49,360.96 655.44,360.88 656.38,360.80 657.33,360.72 658.27,360.64 659.22,360.56 660.16,360.48 661.11,360.40 662.05,360.31 663.00,360.23 663.95,360.15 664.89,360.07 665.84,359.99 666.78,359.91 667.73,359.82 668.67,359.74 669.62,359.66 670.56,359.58 671.51,359.51 672.45,359.43 673.40,359.36 674.34,359.28 675.29,359.21 676.24,359.14 677.18,359.08 678.13,359.01 679.07,358.95 680.02,358.89 680.96,358.84 681.91,358.78 682.85,358.73 683.80,358.69 684.74,358.64 685.69,358.60 686.63,358.56 687.58,358.52 688.53,358.49 689.47,358.46 690.42,358.43 691.36,358.40 692.31,358.38 693.25,358.35 694.20,358.33 695.14,358.31 696.09,358.29 697.03,358.28 697.98,358.26 698.92,358.25 699.87,358.23 700.82,358.22 701.76,358.21 702.71,358.19 703.65,358.18 704.60,358.17 705.54,358.15 706.49,358.14 707.43,358.12 708.38,358.11 709.32,358.09 710.27,358.07 711.21,358.05 712.16,358.03 713.11,358.00 714.05,357.98 715.00,357.95 715.94,357.92 716.89,357.89 717.83,357.86 718.78,357.83 719.72,357.79 720.67,357.75 721.61,357.71 722.56,357.67 723.50,357.63 724.45,357.58 725.39,357.53 726.34,357.48 727.29,357.43 728.23,357.38 729.18,357.32 730.12,357.26 731.07,357.21 732.01,357.15 732.96,357.08 733.90,357.02 734.85,356.96 735.79,356.89 736.74,356.82 737.68,356.75 738.63,356.68 739.58,356.61 740.52,356.54 741.47,356.46 742.41,356.39 743.36,356.31 744.30,356.22 745.25,356.14 746.19,356.06 747.14,355.97 748.08,355.88 749.03,355.79 749.97,355.70 750.92,355.60 751.87,355.51 752.81,355.41 753.76,355.31 754.70,355.21 755.65,355.11 756.59,355.01 757.54,354.90 758.48,354.80 759.43,354.69"/>
<line x1="828" y1="174" x2="856" y2="174" stroke="#888888" stroke-width="3"/>
<text x="864" y="178" font-family="Arial" font-size="13">yaw ref</text>
<polyline fill="none" stroke="#8a4fbf" stroke-width="2.2" points="116.57,413.64 117.52,413.64 118.46,413.61 119.41,413.54 120.35,413.42 121.30,413.24 122.24,413.00 123.19,412.71 124.13,412.35 125.08,411.95 126.03,411.49 126.97,410.99 127.92,410.44 128.86,409.85 129.81,409.23 130.75,408.58 131.70,407.90 132.64,407.20 133.59,406.49 134.53,405.77 135.48,405.04 136.42,404.31 137.37,403.60 138.32,402.89 139.26,402.20 140.21,401.53 141.15,400.89 142.10,400.29 143.04,399.71 143.99,399.18 144.93,398.70 145.88,398.26 146.82,397.86 147.77,397.52 148.71,397.23 149.66,396.99 150.61,396.80 151.55,396.65 152.50,396.56 153.44,396.50 154.39,396.48 155.33,396.48 156.28,396.51 157.22,396.56 158.17,396.61 159.11,396.67 160.06,396.72 161.00,396.75 161.95,396.78 162.89,396.78 163.84,396.76 164.79,396.72 165.73,396.65 166.68,396.55 167.62,396.43 168.57,396.28 169.51,396.11 170.46,395.91 171.40,395.69 172.35,395.45 173.29,395.20 174.24,394.92 175.18,394.64 176.13,394.35 177.08,394.05 178.02,393.76 178.97,393.46 179.91,393.17 180.86,392.90 181.80,392.63 182.75,392.39 183.69,392.16 184.64,391.95 185.58,391.77 186.53,391.62 187.47,391.50 188.42,391.40 189.37,391.33 190.31,391.30 191.26,391.29 192.20,391.31 193.15,391.36 194.09,391.44 195.04,391.54 195.98,391.66 196.93,391.81 197.87,391.96 198.82,392.14 199.76,392.32 200.71,392.51 201.66,392.70 202.60,392.89 203.55,393.08 204.49,393.26 205.44,393.42 206.38,393.57 207.33,393.70 208.27,393.81 209.22,393.90 210.16,393.95 211.11,393.97 212.05,393.97 213.00,393.93 213.95,393.85 214.89,393.74 215.84,393.59 216.78,393.40 217.73,393.18 218.67,392.93 219.62,392.64 220.56,392.32 221.51,391.97 222.45,391.60 223.40,391.20 224.34,390.79 225.29,390.36 226.24,389.91 227.18,389.47 228.13,389.03 229.07,388.60 230.02,388.19 230.96,387.80 231.91,387.45 232.85,387.13 233.80,386.86 234.74,386.63 235.69,386.46 236.63,386.34 237.58,386.28 238.53,386.27 239.47,386.32 240.42,386.42 241.36,386.58 242.31,386.78 243.25,387.04 244.20,387.33 245.14,387.67 246.09,388.05 247.03,388.46 247.98,388.89 248.92,389.36 249.87,389.84 250.82,390.33 251.76,390.84 252.71,391.35 253.65,391.86 254.60,392.37 255.54,392.87 256.49,393.36 257.43,393.83 258.38,394.28 259.32,394.72 260.27,395.12 261.21,395.49 262.16,395.84 263.11,396.15 264.05,396.42 265.00,396.66 265.94,396.86 266.89,397.02 267.83,397.14 268.78,397.21 269.72,397.25 270.67,397.24 271.61,397.19 272.56,397.10 273.50,396.98 274.45,396.81 275.39,396.61 276.34,396.37 277.29,396.09 278.23,395.79 279.18,395.45 280.12,395.09 281.07,394.71 282.01,394.30 282.96,393.87 283.90,393.43 284.85,392.98 285.79,392.51 286.74,392.04 287.68,391.57 288.63,391.10 289.58,390.64 290.52,390.18 291.47,389.73 292.41,389.30 293.36,388.88 294.30,388.48 295.25,388.10 296.19,387.75 297.14,387.42 298.08,387.11 299.03,386.83 299.97,386.58 300.92,386.34 301.87,386.13 302.81,385.93 303.76,385.74 304.70,385.56 305.65,385.38 306.59,385.21 307.54,385.03 308.48,384.84 309.43,384.64 310.37,384.44 311.32,384.21 312.26,383.98 313.21,383.73 314.16,383.47 315.10,383.19 316.05,382.90 316.99,382.60 317.94,382.29 318.88,381.96 319.83,381.63 320.77,381.29 321.72,380.94 322.66,380.59 323.61,380.23 324.55,379.88 325.50,379.52 326.45,379.17 327.39,378.83 328.34,378.49 329.28,378.17 330.23,377.86 331.17,377.56 332.12,377.29 333.06,377.03 334.01,376.80 334.95,376.60 335.90,376.42 336.84,376.26 337.79,376.14 338.74,376.05 339.68,375.99 340.63,375.96 341.57,375.97 342.52,376.00 343.46,376.07 344.41,376.17 345.35,376.29 346.30,376.44 347.24,376.62 348.19,376.83 349.13,377.05 350.08,377.29 351.03,377.55 351.97,377.82 352.92,378.10 353.86,378.38 354.81,378.66 355.75,378.94 356.70,379.22 357.64,379.48 358.59,379.74 359.53,379.97 360.48,380.18 361.42,380.37 362.37,380.53 363.32,380.66 364.26,380.75 365.21,380.81 366.15,380.84 367.10,380.82 368.04,380.76 368.99,380.67 369.93,380.53 370.88,380.35 371.82,380.14 372.77,379.89 373.71,379.61 374.66,379.31 375.61,378.98 376.55,378.64 377.50,378.30 378.44,377.96 379.39,377.62 380.33,377.29 381.28,376.99 382.22,376.71 383.17,376.45 384.11,376.24 385.06,376.05 386.00,375.90 386.95,375.79 387.89,375.72 388.84,375.69 389.79,375.70 390.73,375.75 391.68,375.83 392.62,375.95 393.57,376.11 394.51,376.29 395.46,376.51 396.40,376.76 397.35,377.03 398.29,377.32 399.24,377.64 400.18,377.96 401.13,378.30 402.08,378.65 403.02,379.01 403.97,379.37 404.91,379.72 405.86,380.07 406.80,380.42 407.75,380.76 408.69,381.08 409.64,381.39 410.58,381.68 411.53,381.95 412.47,382.20 413.42,382.43 414.37,382.63 415.31,382.81 416.26,382.96 417.20,383.08 418.15,383.17 419.09,383.23 420.04,383.27 420.98,383.27 421.93,383.25 422.87,383.19 423.82,383.11 424.76,383.00 425.71,382.87 426.66,382.70 427.60,382.52 428.55,382.31 429.49,382.08 430.44,381.83 431.38,381.56 432.33,381.28 433.27,380.99 434.22,380.69 435.16,380.38 436.11,380.06 437.05,379.74 438.00,379.43 438.95,379.12 439.89,378.81 440.84,378.51 441.78,378.22 442.73,377.95 443.67,377.69 444.62,377.44 445.56,377.21 446.51,377.00 447.45,376.79 448.40,376.60 449.34,376.41 450.29,376.23 451.24,376.04 452.18,375.86 453.13,375.66 454.07,375.46 455.02,375.25 455.96,375.02 456.91,374.77 457.85,374.51 458.80,374.24 459.74,373.94 460.69,373.63 461.63,373.31 462.58,372.97 463.53,372.62 464.47,372.25 465.42,371.87 466.36,371.47 467.31,371.07 468.25,370.66 469.20,370.24 470.14,369.81 471.09,369.39 472.03,368.96 472.98,368.53 473.92,368.12 474.87,367.71 475.82,367.31 476.76,366.93 477.71,366.57 478.65,366.23 479.60,365.91 480.54,365.62 481.49,365.37 482.43,365.15 483.38,364.96 484.32,364.82 485.27,364.71 486.21,364.65 487.16,364.63 488.11,364.66 489.05,364.73 490.00,364.85 490.94,365.01 491.89,365.21 492.83,365.45 493.78,365.73 494.72,366.05 495.67,366.40 496.61,366.78 497.56,367.18 498.50,367.60 499.45,368.04 500.39,368.48 501.34,368.94 502.29,369.39 503.23,369.83 504.18,370.26 505.12,370.67 506.07,371.05 507.01,371.41 507.96,371.73 508.90,372.01 509.85,372.25 510.79,372.43 511.74,372.56 512.68,372.64 513.63,372.66 514.58,372.62 515.52,372.52 516.47,372.36 517.41,372.14 518.36,371.86 519.30,371.54 520.25,371.17 521.19,370.76 522.14,370.33 523.08,369.87 524.03,369.40 524.97,368.92 525.92,368.45 526.87,367.99 527.81,367.54 528.76,367.13 529.70,366.74 530.65,366.39 531.59,366.07 532.54,365.80 533.48,365.56 534.43,365.38 535.37,365.24 536.32,365.15 537.26,365.10 538.21,365.11 539.16,365.16 540.10,365.25 541.05,365.39 541.99,365.57 542.94,365.78 543.88,366.04 544.83,366.32 545.77,366.63 546.72,366.96 547.66,367.32 548.61,367.69 549.55,368.08 550.50,368.47 551.45,368.87 552.39,369.27 553.34,369.67 554.28,370.06 555.23,370.45 556.17,370.82 557.12,371.17 558.06,371.51 559.01,371.83 559.95,372.12 560.90,372.39 561.84,372.63 562.79,372.84 563.74,373.02 564.68,373.17 565.63,373.29 566.57,373.37 567.52,373.42 568.46,373.44 569.41,373.42 570.35,373.37 571.30,373.28 572.24,373.17 573.19,373.02 574.13,372.84 575.08,372.64 576.03,372.41 576.97,372.16 577.92,371.88 578.86,371.59 579.81,371.29 580.75,370.97 581.70,370.65 582.64,370.31 583.59,369.98 584.53,369.64 585.48,369.31 586.42,368.99 587.37,368.68 588.32,368.38 589.26,368.09 590.21,367.81 591.15,367.56 592.10,367.31 593.04,367.07 593.99,366.84 594.93,366.62 595.88,366.39 596.82,366.17 597.77,365.94 598.71,365.70 599.66,365.45 600.61,365.18 601.55,364.89 602.50,364.59 603.44,364.27 604.39,363.93 605.33,363.58 606.28,363.20 607.22,362.81 608.17,362.40 609.11,361.97 610.06,361.53 611.00,361.08 611.95,360.61 612.89,360.14 613.84,359.65 614.79,359.17 615.73,358.68 616.68,358.20 617.62,357.72 618.57,357.25 619.51,356.80 620.46,356.37 621.40,355.96 622.35,355.57 623.29,355.22 624.24,354.90 625.18,354.62 626.13,354.39 627.08,354.19 628.02,354.05 628.97,353.96 629.91,353.92 630.86,353.94 631.80,354.01 632.75,354.13 633.69,354.31 634.64,354.54 635.58,354.83 636.53,355.16 637.47,355.54 638.42,355.96 639.37,356.42 640.31,356.91 641.26,357.42 642.20,357.96 643.15,358.51 644.09,359.07 645.04,359.63 645.98,360.19 646.93,360.73 647.87,361.25 648.82,361.73 649.76,362.19 650.71,362.60 651.66,362.96 652.60,363.27 653.55,363.51 654.49,363.69 655.44,363.80 656.38,363.84 657.33,363.81 658.27,363.70 659.22,363.51 660.16,363.25 661.11,362.91 662.05,362.50 663.00,362.03 663.95,361.50 664.89,360.92 665.84,360.30 666.78,359.65 667.73,358.98 668.67,358.30 669.62,357.63 670.56,356.97 671.51,356.33 672.45,355.72 673.40,355.16 674.34,354.65 675.29,354.19 676.24,353.80 677.18,353.46 678.13,353.19 679.07,352.99 680.02,352.86 680.96,352.80 681.91,352.80 682.85,352.87 683.80,353.01 684.74,353.21 685.69,353.47 686.63,353.79 687.58,354.15 688.53,354.56 689.47,355.01 690.42,355.50 691.36,356.01 692.31,356.55 693.25,357.11 694.20,357.68 695.14,358.25 696.09,358.83 697.03,359.40 697.98,359.96 698.92,360.51 699.87,361.04 700.82,361.54 701.76,362.02 702.71,362.47 703.65,362.88 704.60,363.26 705.54,363.59 706.49,363.89 707.43,364.14 708.38,364.34 709.32,364.50 710.27,364.61 711.21,364.68 712.16,364.69 713.11,364.66 714.05,364.58 715.00,364.46 715.94,364.29 716.89,364.08 717.83,363.83 718.78,363.55 719.72,363.23 720.67,362.88 721.61,362.50 722.56,362.11 723.50,361.69 724.45,361.26 725.39,360.82 726.34,360.38 727.29,359.93 728.23,359.48 729.18,359.05 730.12,358.62 731.07,358.21 732.01,357.82 732.96,357.44 733.90,357.09 734.85,356.77 735.79,356.46 736.74,356.18 737.68,355.92 738.63,355.67 739.58,355.43 740.52,355.20 741.47,354.97 742.41,354.74 743.36,354.50 744.30,354.26 745.25,354.00 746.19,353.72 747.14,353.42 748.08,353.11 749.03,352.78 749.97,352.43 750.92,352.06 751.87,351.68 752.81,351.28 753.76,350.86 754.70,350.44 755.65,350.00 756.59,349.56 757.54,349.11 758.48,348.67 759.43,348.22"/>
<line x1="828" y1="198" x2="856" y2="198" stroke="#8a4fbf" stroke-width="3"/>
<text x="864" y="202" font-family="Arial" font-size="13">yaw</text>
</svg>