<svg xmlns="http://www.w3.org/2000/svg" width="920" height="520" viewBox="0 0 920 520">
<rect width="100%" height="100%" fill="white"/>
<text x="460" y="28" text-anchor="middle" font-family="Arial" font-size="20">Coupled Skeleton DCM Force Transform Check</text>
<rect x="78" y="54" width="720" height="380" fill="#fafafa" stroke="#222"/>
<line x1="78" y1="434" x2="798" y2="434" stroke="#222"/>
<line x1="78" y1="54" x2="78" y2="434" stroke="#222"/>
<text x="438" y="492" text-anchor="middle" font-family="Arial" font-size="14">time (s)</text>
<text transform="translate(22,244) rotate(-90)" text-anchor="middle" font-family="Arial" font-size="14">force (N)</text>
<text x="78" y="456" text-anchor="middle" font-family="Arial" font-size="11">-2.04</text>
<text x="798" y="456" text-anchor="middle" font-family="Arial" font-size="11">36.04</text>
<text x="68" y="434" text-anchor="end" font-family="Arial" font-size="11">-3645.97</text>
<text x="68" y="59" text-anchor="end" font-family="Arial" font-size="11">9591.45</text>
<polyline fill="none" stroke="#222222" stroke-width="2.2" points="116.57,392.74 117.52,392.79 118.46,392.89 119.41,393.05 120.35,393.26 121.30,393.50 122.24,393.78 123.19,394.09 124.13,394.42 125.08,394.76 126.03,395.11 126.97,395.46 127.92,395.81 128.86,396.15 129.81,396.48 130.75,396.79 131.70,397.07 132.64,397.33 133.59,397.56 134.53,397.75 135.48,397.91 136.42,398.03 137.37,398.12 138.32,398.16 139.26,398.16 140.21,398.13 141.15,398.06 142.10,397.96 143.04,397.83 143.99,397.67 144.93,397.49 145.88,397.28 146.82,397.06 147.77,396.84 148.71,396.60 149.66,396.38 150.61,396.16 151.55,395.95 152.50,395.75 153.44,395.57 154.39,395.41 155.33,395.26 156.28,395.14 157.22,395.05 158.17,394.97 159.11,394.93 160.06,394.90 161.00,394.89 161.95,394.91 162.89,394.95 163.84,395.02 164.79,395.12 165.73,395.23 166.68,395.36 167.62,395.51 168.57,395.67 169.51,395.85 170.46,396.04 171.40,396.23 172.35,396.43 173.29,396.63 174.24,396.83 175.18,397.03 176.13,397.23 177.08,397.42 178.02,397.60 178.97,397.77 179.91,397.93 180.86,398.07 181.80,398.20 182.75,398.32 183.69,398.42 184.64,398.51 185.58,398.57 186.53,398.63 187.47,398.66 188.42,398.68 189.37,398.68 190.31,398.67 191.26,398.64 192.20,398.60 193.15,398.55 194.09,398.48 195.04,398.40 195.98,398.32 196.93,398.22 197.87,398.12 198.82,398.01 199.76,397.89 200.71,397.78 201.66,397.66 202.60,397.54 203.55,397.41 204.49,397.30 205.44,397.18 206.38,397.07 207.33,396.96 208.27,396.86 209.22,396.77 210.16,396.69 211.11,396.62 212.05,396.55 213.00,396.50 213.95,396.46 214.89,396.43 215.84,396.42 216.78,396.42 217.73,396.42 218.67,396.45 219.62,396.48 220.56,396.53 221.51,396.58 222.45,396.65 223.40,396.72 224.34,396.79 225.29,396.86 226.24,396.95 227.18,397.04 228.13,397.13 229.07,397.23 230.02,397.33 230.96,397.43 231.91,397.54 232.85,397.64 233.80,397.76 234.74,397.87 235.69,397.98 236.63,398.08 237.58,398.16 238.53,398.24 239.47,398.29 240.42,398.34 241.36,398.36 242.31,398.36 243.25,398.35 244.20,398.31 245.14,398.26 246.09,398.18 247.03,398.09 247.98,397.98 248.92,397.85 249.87,397.71 250.82,397.56 251.76,397.40 252.71,397.24 253.65,397.07 254.60,396.90 255.54,396.73 256.49,396.56 257.43,396.40 258.38,396.26 259.32,396.12 260.27,396.00 261.21,395.89 262.16,395.80 263.11,395.73 264.05,395.68 265.00,395.66 265.94,395.65 266.89,395.66 267.83,395.70 268.78,395.75 269.72,395.83 270.67,395.92 271.61,396.02 272.56,396.15 273.50,396.28 274.45,396.42 275.39,396.58 276.34,396.73 277.29,396.90 278.23,397.06 279.18,397.22 280.12,397.37 281.07,397.53 282.01,397.67 282.96,397.80 283.90,397.92 284.85,398.03 285.79,398.13 286.74,398.21 287.68,398.28 288.63,398.34 289.58,398.38 290.52,398.40 291.47,398.42 292.41,398.42 293.36,398.41 294.30,398.39 295.25,398.36 296.19,398.33 297.14,398.30 298.08,398.28 299.03,398.26 299.97,398.24 300.92,398.22 301.87,398.21 302.81,398.20 303.76,398.20 304.70,398.21 305.65,398.22 306.59,398.24 307.54,398.25 308.48,398.27 309.43,398.29 310.37,398.32 311.32,398.36 312.26,398.41 313.21,398.47 314.16,398.54 315.10,398.62 316.05,398.71 316.99,398.81 317.94,398.91 318.88,399.03 319.83,399.15 320.77,399.27 321.72,399.40 322.66,399.54 323.61,399.68 324.55,399.82 325.50,399.97 326.45,400.11 327.39,400.25 328.34,400.40 329.28,400.54 330.23,400.67 331.17,400.80 332.12,400.93 333.06,401.05 334.01,401.17 334.95,401.28 335.90,401.37 336.84,401.46 337.79,401.54 338.74,401.62 339.68,401.67 340.63,401.72 341.57,401.76 342.52,401.79 343.46,401.80 344.41,401.80 345.35,401.79 346.30,401.77 347.24,401.74 348.19,401.69 349.13,401.64 350.08,401.57 351.03,401.49 351.97,401.40 352.92,401.31 353.86,401.20 354.81,401.09 355.75,400.98 356.70,400.85 357.64,400.73 358.59,400.60 359.53,400.47 360.48,400.34 361.42,400.21 362.37,400.08 363.32,399.96 364.26,399.84 365.21,399.73 366.15,399.63 367.10,399.53 368.04,399.45 368.99,399.37 369.93,399.29 370.88,399.22 371.82,399.15 372.77,399.11 373.71,399.07 374.66,399.05 375.61,399.04 376.55,399.05 377.50,399.07 378.44,399.11 379.39,399.16 380.33,399.24 381.28,399.34 382.22,399.44 383.17,399.56 384.11,399.67 385.06,399.79 386.00,399.90 386.95,400.01 387.89,400.11 388.84,400.19 389.79,400.27 390.73,400.33 391.68,400.37 392.62,400.40 393.57,400.40 394.51,400.39 395.46,400.35 396.40,400.30 397.35,400.22 398.29,400.13 399.24,400.02 400.18,399.90 401.13,399.77 402.08,399.62 403.02,399.47 403.97,399.31 404.91,399.15 405.86,398.98 406.80,398.83 407.75,398.67 408.69,398.53 409.64,398.40 410.58,398.28 411.53,398.17 412.47,398.09 413.42,398.02 414.37,397.97 415.31,397.94 416.26,397.94 417.20,397.95 418.15,397.99 419.09,398.05 420.04,398.13 420.98,398.23 421.93,398.34 422.87,398.47 423.82,398.61 424.76,398.77 425.71,398.94 426.66,399.11 427.60,399.29 428.55,399.47 429.49,399.65 430.44,399.83 431.38,400.00 432.33,400.17 433.27,400.33 434.22,400.49 435.16,400.63 436.11,400.76 437.05,400.88 438.00,400.99 438.95,401.08 439.89,401.16 440.84,401.23 441.78,401.29 442.73,401.35 443.67,401.41 444.62,401.47 445.56,401.52 446.51,401.56 447.45,401.60 448.40,401.64 449.34,401.67 450.29,401.70 451.24,401.73 452.18,401.76 453.13,401.79 454.07,401.80 455.02,401.81 455.96,401.82 456.91,401.84 457.85,401.87 458.80,401.90 459.74,401.94 460.69,401.99 461.63,402.05 462.58,402.13 463.53,402.21 464.47,402.31 465.42,402.42 466.36,402.54 467.31,402.68 468.25,402.82 469.20,402.98 470.14,403.15 471.09,403.32 472.03,403.51 472.98,403.70 473.92,403.89 474.87,404.09 475.82,404.29 476.76,404.49 477.71,404.69 478.65,404.89 479.60,405.08 480.54,405.26 481.49,405.44 482.43,405.61 483.38,405.77 484.32,405.91 485.27,406.04 486.21,406.16 487.16,406.26 488.11,406.34 489.05,406.40 490.00,406.44 490.94,406.47 491.89,406.47 492.83,406.46 493.78,406.42 494.72,406.36 495.67,406.29 496.61,406.19 497.56,406.08 498.50,405.94 499.45,405.79 500.39,405.63 501.34,405.45 502.29,405.26 503.23,405.06 504.18,404.85 505.12,404.64 506.07,404.42 507.01,404.20 507.96,403.98 508.90,403.76 509.85,403.55 510.79,403.35 511.74,403.15 512.68,402.97 513.63,402.80 514.58,402.65 515.52,402.49 516.47,402.35 517.41,402.22 518.36,402.12 519.30,402.04 520.25,401.98 521.19,401.95 522.14,401.94 523.08,401.96 524.03,402.00 524.97,402.06 525.92,402.16 526.87,402.29 527.81,402.43 528.76,402.59 529.70,402.74 530.65,402.90 531.59,403.06 532.54,403.22 533.48,403.36 534.43,403.49 535.37,403.60 536.32,403.68 537.26,403.75 538.21,403.79 539.16,403.80 540.10,403.79 541.05,403.75 541.99,403.67 542.94,403.57 543.88,403.45 544.83,403.30 545.77,403.13 546.72,402.94 547.66,402.74 548.61,402.52 549.55,402.30 550.50,402.07 551.45,401.84 552.39,401.62 553.34,401.41 554.28,401.20 555.23,401.02 556.17,400.85 557.12,400.70 558.06,400.59 559.01,400.49 559.95,400.43 560.90,400.40 561.84,400.39 562.79,400.42 563.74,400.48 564.68,400.57 565.63,400.69 566.57,400.83 567.52,401.00 568.46,401.19 569.41,401.40 570.35,401.63 571.30,401.87 572.24,402.12 573.19,402.37 574.13,402.63 575.08,402.89 576.03,403.14 576.97,403.38 577.92,403.62 578.86,403.85 579.81,404.06 580.75,404.25 581.70,404.43 582.64,404.59 583.59,404.73 584.53,404.85 585.48,404.95 586.42,405.04 587.37,405.12 588.32,405.20 589.26,405.27 590.21,405.34 591.15,405.39 592.10,405.44 593.04,405.48 593.99,405.52 594.93,405.56 595.88,405.59 596.82,405.63 597.77,405.67 598.71,405.69 599.66,405.70 600.61,405.72 601.55,405.75 602.50,405.79 603.44,405.84 604.39,405.91 605.33,405.99 606.28,406.08 607.22,406.20 608.17,406.32 609.11,406.47 610.06,406.63 611.00,406.81 611.95,407.01 612.89,407.22 613.84,407.44 614.79,407.68 615.73,407.93 616.68,408.18 617.62,408.45 618.57,408.71 619.51,408.98 620.46,409.25 621.40,409.52 622.35,409.79 623.29,410.04 624.24,410.29 625.18,410.53 626.13,410.75 627.08,410.96 628.02,411.15 628.97,411.32 629.91,411.47 630.86,411.60 631.80,411.71 632.75,411.79 633.69,411.84 634.64,411.87 635.58,411.87 636.53,411.85 637.47,411.79 638.42,411.72 639.37,411.61 640.31,411.48 641.26,411.33 642.20,411.15 643.15,410.95 644.09,410.74 645.04,410.50 645.98,410.26 646.93,410.00 647.87,409.73 648.82,409.45 649.76,409.17 650.71,408.89 651.66,408.61 652.60,408.34 653.55,408.08 654.49,407.83 655.44,407.59 656.38,407.37 657.33,407.17 658.27,406.99 659.22,406.83 660.16,406.67 661.11,406.53 662.05,406.42 663.00,406.33 663.95,406.27 664.89,406.23 665.84,406.22 666.78,406.24 667.73,406.28 668.67,406.35 669.62,406.44 670.56,406.56 671.51,406.72 672.45,406.89 673.40,407.06 674.34,407.24 675.29,407.41 676.24,407.57 677.18,407.72 678.13,407.85 679.07,407.95 680.02,408.03 680.96,408.07 681.91,408.09 682.85,408.06 683.80,408.00 684.74,407.91 685.69,407.78 686.63,407.62 687.58,407.42 688.53,407.20 689.47,406.95 690.42,406.68 691.36,406.39 692.31,406.09 693.25,405.79 694.20,405.49 695.14,405.19 696.09,404.90 697.03,404.63 697.98,404.38 698.92,404.15 699.87,403.95 700.82,403.79 701.76,403.66 702.71,403.57 703.65,403.52 704.60,403.51 705.54,403.54 706.49,403.61 707.43,403.72 708.38,403.87 709.32,404.05 710.27,404.27 711.21,404.51 712.16,404.78 713.11,405.07 714.05,405.37 715.00,405.68 715.94,406.01 716.89,406.33 717.83,406.65 718.78,406.97 719.72,407.27 720.67,407.56 721.61,407.83 722.56,408.09 723.50,408.32 724.45,408.52 725.39,408.71 726.34,408.86 727.29,408.99 728.23,409.10 729.18,409.19 730.12,409.25 731.07,409.30 732.01,409.33 732.96,409.37 733.90,409.42 734.85,409.46 735.79,409.49 736.74,409.53 737.68,409.58 738.63,409.63 739.58,409.68 740.52,409.75 741.47,409.83 742.41,409.92 743.36,410.01 744.30,410.09 745.25,410.19 746.19,410.30 747.14,410.43 748.08,410.58 749.03,410.75 749.97,410.93 750.92,411.14 751.87,411.36 752.81,411.60 753.76,411.86 754.70,412.13 755.65,412.41 756.59,412.71 757.54,413.01 758.48,413.33 759.43,413.64"/>
<line x1="828" y1="78" x2="856" y2="78" stroke="#222222" stroke-width="3"/>
<text x="864" y="82" font-family="Arial" font-size="13">direct east</text>
<polyline fill="none" stroke="#2f6fbb" stroke-width="2.2" points="116.57,392.74 117.52,392.79 118.46,392.88 119.41,392.99 120.35,393.12 121.30,393.25 122.24,393.36 123.19,393.45 124.13,393.52 125.08,393.56 126.03,393.56 126.97,393.54 127.92,393.49 128.86,393.40 129.81,393.28 130.75,393.13 131.70,392.96 132.64,392.76 133.59,392.54 134.53,392.30 135.48,392.06 136.42,391.81 137.37,391.55 138.32,391.30 139.26,391.06 140.21,390.83 141.15,390.62 142.10,390.43 143.04,390.25 143.99,390.10 144.93,389.98 145.88,389.88 146.82,389.80 147.77,389.75 148.71,389.72 149.66,389.74 150.61,389.78 151.55,389.84 152.50,389.92 153.44,390.01 154.39,390.11 155.33,390.22 156.28,390.34 157.22,390.46 158.17,390.58 159.11,390.70 160.06,390.79 161.00,390.87 161.95,390.95 162.89,391.02 163.84,391.09 164.79,391.14 165.73,391.19 166.68,391.22 167.62,391.24 168.57,391.24 169.51,391.23 170.46,391.20 171.40,391.16 172.35,391.10 173.29,391.02 174.24,390.93 175.18,390.83 176.13,390.71 177.08,390.58 178.02,390.44 178.97,390.30 179.91,390.14 180.86,389.99 181.80,389.83 182.75,389.67 183.69,389.52 184.64,389.37 185.58,389.22 186.53,389.09 187.47,388.97 188.42,388.86 189.37,388.77 190.31,388.69 191.26,388.63 192.20,388.59 193.15,388.56 194.09,388.55 195.04,388.56 195.98,388.58 196.93,388.63 197.87,388.68 198.82,388.76 199.76,388.84 200.71,388.94 201.66,389.05 202.60,389.17 203.55,389.30 204.49,389.44 205.44,389.58 206.38,389.73 207.33,389.88 208.27,390.04 209.22,390.19 210.16,390.34 211.11,390.49 212.05,390.64 213.00,390.79 213.95,390.93 214.89,391.07 215.84,391.20 216.78,391.32 217.73,391.43 218.67,391.54 219.62,391.64 220.56,391.73 221.51,391.81 222.45,391.89 223.40,391.93 224.34,391.95 225.29,391.97 226.24,391.97 227.18,391.97 228.13,391.96 229.07,391.95 230.02,391.93 230.96,391.91 231.91,391.88 232.85,391.86 233.80,391.85 234.74,391.86 235.69,391.87 236.63,391.88 237.58,391.89 238.53,391.90 239.47,391.92 240.42,391.93 241.36,391.96 242.31,391.99 243.25,392.03 244.20,392.08 245.14,392.13 246.09,392.20 247.03,392.28 247.98,392.36 248.92,392.45 249.87,392.56 250.82,392.67 251.76,392.79 252.71,392.92 253.65,393.05 254.60,393.19 255.54,393.33 256.49,393.48 257.43,393.63 258.38,393.78 259.32,393.93 260.27,394.07 261.21,394.22 262.16,394.37 263.11,394.51 264.05,394.64 265.00,394.77 265.94,394.90 266.89,395.02 267.83,395.13 268.78,395.23 269.72,395.31 270.67,395.39 271.61,395.46 272.56,395.51 273.50,395.55 274.45,395.57 275.39,395.58 276.34,395.57 277.29,395.55 278.23,395.51 279.18,395.45 280.12,395.38 281.07,395.30 282.01,395.20 282.96,395.09 283.90,394.96 284.85,394.83 285.79,394.69 286.74,394.54 287.68,394.39 288.63,394.24 289.58,394.09 290.52,393.93 291.47,393.78 292.41,393.63 293.36,393.49 294.30,393.36 295.25,393.23 296.19,393.11 297.14,393.02 298.08,392.94 299.03,392.88 299.97,392.82 300.92,392.77 301.87,392.72 302.81,392.68 303.76,392.65 304.70,392.61 305.65,392.58 306.59,392.55 307.54,392.50 308.48,392.44 309.43,392.37 310.37,392.31 311.32,392.25 312.26,392.18 313.21,392.11 314.16,392.05 315.10,391.97 316.05,391.90 316.99,391.82 317.94,391.73 318.88,391.64 319.83,391.54 320.77,391.44 321.72,391.33 322.66,391.22 323.61,391.10 324.55,390.97 325.50,390.84 326.45,390.71 327.39,390.57 328.34,390.42 329.28,390.28 330.23,390.14 331.17,390.00 332.12,389.86 333.06,389.72 334.01,389.59 334.95,389.46 335.90,389.34 336.84,389.24 337.79,389.14 338.74,389.05 339.68,388.97 340.63,388.91 341.57,388.86 342.52,388.83 343.46,388.81 344.41,388.81 345.35,388.83 346.30,388.86 347.24,388.91 348.19,388.98 349.13,389.06 350.08,389.16 351.03,389.27 351.97,389.40 352.92,389.55 353.86,389.70 354.81,389.87 355.75,390.04 356.70,390.23 357.64,390.42 358.59,390.62 359.53,390.83 360.48,391.04 361.42,391.25 362.37,391.47 363.32,391.69 364.26,391.90 365.21,392.11 366.15,392.33 367.10,392.53 368.04,392.74 368.99,392.93 369.93,393.10 370.88,393.25 371.82,393.39 372.77,393.53 373.71,393.66 374.66,393.78 375.61,393.89 376.55,394.00 377.50,394.10 378.44,394.19 379.39,394.28 380.33,394.38 381.28,394.49 382.22,394.59 383.17,394.68 384.11,394.76 385.06,394.84 386.00,394.90 386.95,394.95 387.89,395.00 388.84,395.04 389.79,395.08 390.73,395.11 391.68,395.15 392.62,395.18 393.57,395.21 394.51,395.25 395.46,395.30 396.40,395.35 397.35,395.41 398.29,395.47 399.24,395.55 400.18,395.63 401.13,395.72 402.08,395.82 403.02,395.93 403.97,396.05 404.91,396.17 405.86,396.30 406.80,396.44 407.75,396.58 408.69,396.72 409.64,396.86 410.58,397.00 411.53,397.15 412.47,397.28 413.42,397.42 414.37,397.55 415.31,397.68 416.26,397.80 417.20,397.90 418.15,398.01 419.09,398.09 420.04,398.17 420.98,398.24 421.93,398.29 422.87,398.32 423.82,398.34 424.76,398.34 425.71,398.33 426.66,398.29 427.60,398.24 428.55,398.17 429.49,398.08 430.44,397.98 431.38,397.86 432.33,397.72 433.27,397.57 434.22,397.40 435.16,397.23 436.11,397.05 437.05,396.85 438.00,396.66 438.95,396.46 439.89,396.26 440.84,396.06 441.78,395.86 442.73,395.68 443.67,395.52 444.62,395.38 445.56,395.24 446.51,395.10 447.45,394.98 448.40,394.85 449.34,394.74 450.29,394.63 451.24,394.53 452.18,394.43 453.13,394.33 454.07,394.21 455.02,394.09 455.96,393.97 456.91,393.86 457.85,393.75 458.80,393.65 459.74,393.55 460.69,393.45 461.63,393.35 462.58,393.25 463.53,393.15 464.47,393.04 465.42,392.93 466.36,392.82 467.31,392.70 468.25,392.57 469.20,392.44 470.14,392.30 471.09,392.15 472.03,391.99 472.98,391.83 473.92,391.66 474.87,391.49 475.82,391.31 476.76,391.13 477.71,390.94 478.65,390.76 479.60,390.57 480.54,390.39 481.49,390.21 482.43,390.04 483.38,389.88 484.32,389.72 485.27,389.58 486.21,389.46 487.16,389.35 488.11,389.27 489.05,389.20 490.00,389.15 490.94,389.13 491.89,389.14 492.83,389.16 493.78,389.22 494.72,389.30 495.67,389.41 496.61,389.54 497.56,389.70 498.50,389.88 499.45,390.08 500.39,390.30 501.34,390.55 502.29,390.81 503.23,391.08 504.18,391.37 505.12,391.67 506.07,391.97 507.01,392.29 507.96,392.60 508.90,392.92 509.85,393.24 510.79,393.55 511.74,393.87 512.68,394.17 513.63,394.47 514.58,394.76 515.52,395.00 516.47,395.23 517.41,395.45 518.36,395.66 519.30,395.85 520.25,396.03 521.19,396.20 522.14,396.35 523.08,396.49 524.03,396.62 524.97,396.73 525.92,396.86 526.87,396.98 527.81,397.09 528.76,397.17 529.70,397.24 530.65,397.29 531.59,397.33 532.54,397.35 533.48,397.35 534.43,397.35 535.37,397.34 536.32,397.32 537.26,397.30 538.21,397.28 539.16,397.27 540.10,397.27 541.05,397.27 541.99,397.29 542.94,397.32 543.88,397.37 544.83,397.44 545.77,397.52 546.72,397.62 547.66,397.74 548.61,397.87 549.55,398.02 550.50,398.18 551.45,398.35 552.39,398.53 553.34,398.71 554.28,398.91 555.23,399.10 556.17,399.30 557.12,399.50 558.06,399.69 559.01,399.88 559.95,400.06 560.90,400.23 561.84,400.39 562.79,400.54 563.74,400.68 564.68,400.80 565.63,400.90 566.57,400.99 567.52,401.05 568.46,401.09 569.41,401.11 570.35,401.10 571.30,401.07 572.24,401.01 573.19,400.92 574.13,400.81 575.08,400.67 576.03,400.50 576.97,400.31 577.92,400.10 578.86,399.87 579.81,399.63 580.75,399.36 581.70,399.09 582.64,398.81 583.59,398.52 584.53,398.23 585.48,397.94 586.42,397.66 587.37,397.38 588.32,397.15 589.26,396.92 590.21,396.71 591.15,396.51 592.10,396.33 593.04,396.15 593.99,395.98 594.93,395.83 595.88,395.68 596.82,395.54 597.77,395.42 598.71,395.26 599.66,395.10 600.61,394.95 601.55,394.80 602.50,394.66 603.44,394.53 604.39,394.39 605.33,394.26 606.28,394.13 607.22,393.99 608.17,393.85 609.11,393.70 610.06,393.54 611.00,393.38 611.95,393.20 612.89,393.02 613.84,392.82 614.79,392.61 615.73,392.39 616.68,392.16 617.62,391.92 618.57,391.67 619.51,391.41 620.46,391.14 621.40,390.87 622.35,390.60 623.29,390.32 624.24,390.05 625.18,389.79 626.13,389.53 627.08,389.29 628.02,389.06 628.97,388.85 629.91,388.66 630.86,388.49 631.80,388.36 632.75,388.25 633.69,388.18 634.64,388.14 635.58,388.13 636.53,388.16 637.47,388.23 638.42,388.33 639.37,388.47 640.31,388.64 641.26,388.85 642.20,389.09 643.15,389.36 644.09,389.66 645.04,389.98 645.98,390.32 646.93,390.68 647.87,391.05 648.82,391.43 649.76,391.83 650.71,392.22 651.66,392.62 652.60,393.02 653.55,393.41 654.49,393.80 655.44,394.18 656.38,394.54 657.33,394.89 658.27,395.23 659.22,395.55 660.16,395.83 661.11,396.06 662.05,396.28 663.00,396.47 663.95,396.65 664.89,396.80 665.84,396.93 666.78,397.03 667.73,397.12 668.67,397.18 669.62,397.22 670.56,397.26 671.51,397.31 672.45,397.34 673.40,397.35 674.34,397.34 675.29,397.31 676.24,397.27 677.18,397.22 678.13,397.17 679.07,397.11 680.02,397.05 680.96,397.00 681.91,396.97 682.85,396.95 683.80,396.95 684.74,396.97 685.69,397.02 686.63,397.09 687.58,397.20 688.53,397.33 689.47,397.49 690.42,397.68 691.36,397.89 692.31,398.12 693.25,398.37 694.20,398.64 695.14,398.92 696.09,399.21 697.03,399.50 697.98,399.80 698.92,400.10 699.87,400.39 700.82,400.67 701.76,400.95 702.71,401.21 703.65,401.46 704.60,401.70 705.54,401.91 706.49,402.10 707.43,402.27 708.38,402.42 709.32,402.53 710.27,402.62 711.21,402.67 712.16,402.69 713.11,402.68 714.05,402.63 715.00,402.54 715.94,402.42 716.89,402.26 717.83,402.06 718.78,401.83 719.72,401.56 720.67,401.27 721.61,400.95 722.56,400.61 723.50,400.25 724.45,399.88 725.39,399.50 726.34,399.12 727.29,398.73 728.23,398.35 729.18,397.98 730.12,397.62 731.07,397.27 732.01,396.94 732.96,396.66 733.90,396.42 734.85,396.19 735.79,395.99 736.74,395.80 737.68,395.62 738.63,395.46 739.58,395.31 740.52,395.17 741.47,395.03 742.41,394.91 743.36,394.76 744.30,394.58 745.25,394.41 746.19,394.24 747.14,394.08 748.08,393.90 749.03,393.73 749.97,393.55 750.92,393.36 751.87,393.16 752.81,392.95 753.76,392.73 754.70,392.50 755.65,392.25 756.59,391.99 757.54,391.71 758.48,391.42 759.43,391.12"/>
<line x1="828" y1="102" x2="856" y2="102" stroke="#2f6fbb" stroke-width="3"/>
<text x="864" y="106" font-family="Arial" font-size="13">DCM east</text>
<polyline fill="none" stroke="#555555" stroke-width="2.2" points="116.57,144.23 117.52,144.01 118.46,143.76 119.41,143.42 120.35,142.94 121.30,142.30 122.24,141.49 123.19,140.52 124.13,139.39 125.08,138.12 126.03,136.74 126.97,135.27 127.92,133.74 128.86,132.16 129.81,130.57 130.75,128.99 131.70,127.45 132.64,125.98 133.59,124.59 134.53,123.31 135.48,122.16 136.42,121.16 137.37,120.32 138.32,119.66 139.26,119.17 140.21,118.88 141.15,118.78 142.10,118.87 143.04,119.15 143.99,119.62 144.93,120.25 145.88,121.05 146.82,122.00 147.77,123.09 148.71,124.29 149.66,125.59 150.61,126.98 151.55,128.43 152.50,129.92 153.44,131.44 154.39,132.96 155.33,134.49 156.28,135.98 157.22,137.44 158.17,138.85 159.11,140.19 160.06,141.45 161.00,142.63 161.95,143.72 162.89,144.72 163.84,145.61 164.79,146.40 165.73,147.09 166.68,147.68 167.62,148.16 168.57,148.56 169.51,148.86 170.46,149.09 171.40,149.23 172.35,149.31 173.29,149.33 174.24,149.29 175.18,149.21 176.13,149.09 177.08,148.94 178.02,148.77 178.97,148.58 179.91,148.38 180.86,148.18 181.80,147.98 182.75,147.79 183.69,147.61 184.64,147.44 185.58,147.29 186.53,147.16 187.47,147.06 188.42,146.97 189.37,146.92 190.31,146.89 191.26,146.88 192.20,146.90 193.15,146.94 194.09,147.01 195.04,147.10 195.98,147.20 196.93,147.32 197.87,147.46 198.82,147.61 199.76,147.76 200.71,147.92 201.66,148.08 202.60,148.24 203.55,148.38 204.49,148.52 205.44,148.63 206.38,148.73 207.33,148.80 208.27,148.84 209.22,148.84 210.16,148.80 211.11,148.72 212.05,148.58 213.00,148.39 213.95,148.15 214.89,147.84 215.84,147.47 216.78,147.02 217.73,146.51 218.67,145.92 219.62,145.26 220.56,144.53 221.51,143.72 222.45,142.83 223.40,141.87 224.34,140.85 225.29,139.75 226.24,138.60 227.18,137.39 228.13,136.12 229.07,134.81 230.02,133.46 230.96,132.09 231.91,130.71 232.85,129.33 233.80,127.96 234.74,126.62 235.69,125.32 236.63,124.06 237.58,122.87 238.53,121.75 239.47,120.72 240.42,119.78 241.36,118.94 242.31,118.21 243.25,117.60 244.20,117.11 245.14,116.75 246.09,116.50 247.03,116.38 247.98,116.38 248.92,116.50 249.87,116.72 250.82,117.05 251.76,117.48 252.71,117.98 253.65,118.56 254.60,119.20 255.54,119.88 256.49,120.59 257.43,121.33 258.38,122.06 259.32,122.79 260.27,123.50 261.21,124.17 262.16,124.79 263.11,125.35 264.05,125.85 265.00,126.27 265.94,126.60 266.89,126.85 267.83,127.00 268.78,127.06 269.72,127.03 270.67,126.90 271.61,126.68 272.56,126.37 273.50,125.99 274.45,125.54 275.39,125.02 276.34,124.44 277.29,123.83 278.23,123.18 279.18,122.52 280.12,121.84 281.07,121.17 282.01,120.52 282.96,119.89 283.90,119.31 284.85,118.77 285.79,118.30 286.74,117.89 287.68,117.56 288.63,117.31 289.58,117.15 290.52,117.09 291.47,117.11 292.41,117.23 293.36,117.45 294.30,117.75 295.25,118.15 296.19,118.64 297.14,119.20 298.08,119.85 299.03,120.57 299.97,121.35 300.92,122.19 301.87,123.08 302.81,124.01 303.76,124.99 304.70,125.99 305.65,127.02 306.59,128.06 307.54,129.10 308.48,130.13 309.43,131.16 310.37,132.16 311.32,133.14 312.26,134.08 313.21,134.98 314.16,135.84 315.10,136.64 316.05,137.40 316.99,138.09 317.94,138.73 318.88,139.31 319.83,139.84 320.77,140.30 321.72,140.70 322.66,141.04 323.61,141.33 324.55,141.56 325.50,141.74 326.45,141.86 327.39,141.94 328.34,141.97 329.28,141.96 330.23,141.90 331.17,141.81 332.12,141.68 333.06,141.52 334.01,141.34 334.95,141.12 335.90,140.89 336.84,140.63 337.79,140.36 338.74,140.08 339.68,139.78 340.63,139.48 341.57,139.18 342.52,138.87 343.46,138.57 344.41,138.27 345.35,137.98 346.30,137.70 347.24,137.43 348.19,137.17 349.13,136.92 350.08,136.68 351.03,136.47 351.97,136.26 352.92,136.07 353.86,135.90 354.81,135.74 355.75,135.59 356.70,135.44 357.64,135.31 358.59,135.18 359.53,135.05 360.48,134.91 361.42,134.77 362.37,134.62 363.32,134.45 364.26,134.25 365.21,134.03 366.15,133.78 367.10,133.49 368.04,133.16 368.99,132.78 369.93,132.34 370.88,131.84 371.82,131.29 372.77,130.67 373.71,129.97 374.66,129.21 375.61,128.37 376.55,127.46 377.50,126.48 378.44,125.44 379.39,124.34 380.33,123.19 381.28,122.00 382.22,120.77 383.17,119.53 384.11,118.27 385.06,117.01 386.00,115.77 386.95,114.56 387.89,113.38 388.84,112.26 389.79,111.20 390.73,110.21 391.68,109.31 392.62,108.51 393.57,107.81 394.51,107.23 395.46,106.75 396.40,106.40 397.35,106.17 398.29,106.06 399.24,106.06 400.18,106.18 401.13,106.40 402.08,106.73 403.02,107.14 403.97,107.63 404.91,108.20 405.86,108.81 406.80,109.48 407.75,110.16 408.69,110.87 409.64,111.57 410.58,112.27 411.53,112.93 412.47,113.56 413.42,114.14 414.37,114.65 415.31,115.10 416.26,115.47 417.20,115.76 418.15,115.96 419.09,116.07 420.04,116.08 420.98,116.01 421.93,115.85 422.87,115.61 423.82,115.28 424.76,114.89 425.71,114.43 426.66,113.92 427.60,113.37 428.55,112.79 429.49,112.18 430.44,111.57 431.38,110.97 432.33,110.39 433.27,109.83 434.22,109.32 435.16,108.86 436.11,108.46 437.05,108.13 438.00,107.89 438.95,107.73 439.89,107.66 440.84,107.69 441.78,107.82 442.73,108.06 443.67,108.39 444.62,108.83 445.56,109.36 446.51,109.99 447.45,110.72 448.40,111.54 449.34,112.43 450.29,113.41 451.24,114.44 452.18,115.54 453.13,116.68 454.07,117.85 455.02,119.05 455.96,120.26 456.91,121.47 457.85,122.66 458.80,123.83 459.74,124.97 460.69,126.07 461.63,127.11 462.58,128.09 463.53,129.01 464.47,129.86 465.42,130.63 466.36,131.32 467.31,131.92 468.25,132.44 469.20,132.87 470.14,133.21 471.09,133.47 472.03,133.64 472.98,133.73 473.92,133.74 474.87,133.67 475.82,133.52 476.76,133.31 477.71,133.03 478.65,132.69 479.60,132.30 480.54,131.87 481.49,131.39 482.43,130.88 483.38,130.34 484.32,129.78 485.27,129.20 486.21,128.62 487.16,128.03 488.11,127.45 489.05,126.88 490.00,126.33 490.94,125.80 491.89,125.30 492.83,124.83 493.78,124.40 494.72,124.01 495.67,123.66 496.61,123.36 497.56,123.11 498.50,122.90 499.45,122.74 500.39,122.63 501.34,122.56 502.29,122.54 503.23,122.56 504.18,122.61 505.12,122.68 506.07,122.78 507.01,122.90 507.96,123.02 508.90,123.14 509.85,123.25 510.79,123.34 511.74,123.40 512.68,123.42 513.63,123.38 514.58,123.29 515.52,123.12 516.47,122.87 517.41,122.52 518.36,122.08 519.30,121.53 520.25,120.86 521.19,120.08 522.14,119.18 523.08,118.16 524.03,117.04 524.97,115.80 525.92,114.47 526.87,113.05 527.81,111.56 528.76,110.00 529.70,108.40 530.65,106.78 531.59,105.15 532.54,103.53 533.48,101.95 534.43,100.41 535.37,98.95 536.32,97.58 537.26,96.31 538.21,95.17 539.16,94.16 540.10,93.31 541.05,92.61 541.99,92.07 542.94,91.70 543.88,91.51 544.83,91.47 545.77,91.61 546.72,91.89 547.66,92.33 548.61,92.89 549.55,93.57 550.50,94.36 551.45,95.23 552.39,96.17 553.34,97.15 554.28,98.16 555.23,99.17 556.17,100.17 557.12,101.13 558.06,102.04 559.01,102.88 559.95,103.64 560.90,104.29 561.84,104.84 562.79,105.26 563.74,105.56 564.68,105.73 565.63,105.77 566.57,105.67 567.52,105.45 568.46,105.11 569.41,104.65 570.35,104.09 571.30,103.44 572.24,102.72 573.19,101.93 574.13,101.10 575.08,100.25 576.03,99.38 576.97,98.53 577.92,97.70 578.86,96.92 579.81,96.20 580.75,95.55 581.70,94.99 582.64,94.54 583.59,94.20 584.53,93.98 585.48,93.89 586.42,93.94 587.37,94.11 588.32,94.43 589.26,94.88 590.21,95.46 591.15,96.18 592.10,97.01 593.04,97.96 593.99,99.01 594.93,100.16 595.88,101.39 596.82,102.69 597.77,104.05 598.71,105.44 599.66,106.85 600.61,108.28 601.55,109.69 602.50,111.08 603.44,112.44 604.39,113.74 605.33,114.98 606.28,116.14 607.22,117.22 608.17,118.21 609.11,119.10 610.06,119.88 611.00,120.56 611.95,121.13 612.89,121.59 613.84,121.95 614.79,122.19 615.73,122.32 616.68,122.36 617.62,122.29 618.57,122.13 619.51,121.88 620.46,121.56 621.40,121.16 622.35,120.69 623.29,120.17 624.24,119.60 625.18,118.99 626.13,118.35 627.08,117.69 628.02,117.01 628.97,116.33 629.91,115.65 630.86,114.99 631.80,114.34 632.75,113.73 633.69,113.15 634.64,112.61 635.58,112.12 636.53,111.68 637.47,111.30 638.42,110.98 639.37,110.73 640.31,110.54 641.26,110.42 642.20,110.37 643.15,110.38 644.09,110.45 645.04,110.58 645.98,110.77 646.93,111.00 647.87,111.27 648.82,111.58 649.76,111.90 650.71,112.24 651.66,112.58 652.60,112.91 653.55,113.22 654.49,113.48 655.44,113.70 656.38,113.85 657.33,113.92 658.27,113.91 659.22,113.79 660.16,113.55 661.11,113.18 662.05,112.68 663.00,112.03 663.95,111.24 664.89,110.28 665.84,109.17 666.78,107.90 667.73,106.48 668.67,104.93 669.62,103.24 670.56,101.44 671.51,99.55 672.45,97.58 673.40,95.56 674.34,93.51 675.29,91.45 676.24,89.42 677.18,87.44 678.13,85.53 679.07,83.73 680.02,82.05 680.96,80.52 681.91,79.15 682.85,77.98 683.80,77.00 684.74,76.23 685.69,75.69 686.63,75.36 687.58,75.26 688.53,75.37 689.47,75.69 690.42,76.21 691.36,76.91 692.31,77.77 693.25,78.78 694.20,79.91 695.14,81.13 696.09,82.41 697.03,83.74 697.98,85.09 698.92,86.42 699.87,87.70 700.82,88.93 701.76,90.06 702.71,91.08 703.65,91.98 704.60,92.73 705.54,93.32 706.49,93.74 707.43,93.99 708.38,94.06 709.32,93.96 710.27,93.69 711.21,93.26 712.16,92.67 713.11,91.95 714.05,91.10 715.00,90.15 715.94,89.13 716.89,88.04 717.83,86.92 718.78,85.78 719.72,84.66 720.67,83.57 721.61,82.54 722.56,81.58 723.50,80.73 724.45,79.99 725.39,79.39 726.34,78.93 727.29,78.62 728.23,78.48 729.18,78.50 730.12,78.69 731.07,79.04 732.01,79.56 732.96,80.24 733.90,81.06 734.85,82.02 735.79,83.10 736.74,84.30 737.68,85.60 738.63,86.98 739.58,88.43 740.52,89.93 741.47,91.46 742.41,93.01 743.36,94.55 744.30,96.08 745.25,97.57 746.19,99.01 747.14,100.39 748.08,101.70 749.03,102.92 749.97,104.04 750.92,105.05 751.87,105.97 752.81,106.77 753.76,107.46 754.70,108.03 755.65,108.50 756.59,108.86 757.54,109.11 758.48,109.26 759.43,109.32"/>
<line x1="828" y1="126" x2="856" y2="126" stroke="#555555" stroke-width="3"/>
<text x="864" y="130" font-family="Arial" font-size="13">direct up</text>
<polyline fill="none" stroke="#258a45" stroke-width="2.2" points="116.57,144.23 117.52,144.01 118.46,143.75 119.41,143.40 120.35,142.89 121.30,142.21 122.24,141.34 123.19,140.28 124.13,139.06 125.08,137.69 126.03,136.20 126.97,134.61 127.92,132.95 128.86,131.24 129.81,129.53 130.75,127.83 131.70,126.18 132.64,124.60 133.59,123.12 134.53,121.77 135.48,120.57 136.42,119.53 137.37,118.68 138.32,118.02 139.26,117.57 140.21,117.33 141.15,117.30 142.10,117.49 143.04,117.89 143.99,118.49 144.93,119.27 145.88,120.24 146.82,121.36 147.77,122.63 148.71,124.02 149.66,125.48 150.61,127.01 151.55,128.59 152.50,130.20 153.44,131.83 154.39,133.46 155.33,135.06 156.28,136.63 157.22,138.14 158.17,139.59 159.11,140.96 160.06,142.32 161.00,143.60 161.95,144.78 162.89,145.86 163.84,146.84 164.79,147.71 165.73,148.49 166.68,149.15 167.62,149.73 168.57,150.20 169.51,150.60 170.46,150.91 171.40,151.14 172.35,151.32 173.29,151.43 174.24,151.49 175.18,151.51 176.13,151.49 177.08,151.43 178.02,151.36 178.97,151.26 179.91,151.15 180.86,151.03 181.80,150.91 182.75,150.79 183.69,150.67 184.64,150.55 185.58,150.44 186.53,150.34 187.47,150.25 188.42,150.17 189.37,150.11 190.31,150.06 191.26,150.02 192.20,150.00 193.15,149.99 194.09,149.99 195.04,150.01 195.98,150.04 196.93,150.08 197.87,150.12 198.82,150.18 199.76,150.25 200.71,150.32 201.66,150.39 202.60,150.46 203.55,150.53 204.49,150.59 205.44,150.64 206.38,150.69 207.33,150.71 208.27,150.72 209.22,150.70 210.16,150.65 211.11,150.57 212.05,150.44 213.00,150.28 213.95,150.06 214.89,149.80 215.84,149.47 216.78,149.08 217.73,148.63 218.67,148.10 219.62,147.50 220.56,146.83 221.51,146.07 222.45,145.24 223.40,144.40 224.34,143.49 225.29,142.50 226.24,141.43 227.18,140.28 228.13,139.05 229.07,137.75 230.02,136.38 230.96,134.95 231.91,133.49 232.85,131.99 233.80,130.44 234.74,128.88 235.69,127.34 236.63,125.85 237.58,124.41 238.53,123.05 239.47,121.78 240.42,120.61 241.36,119.55 242.31,118.62 243.25,117.81 244.20,117.14 245.14,116.61 246.09,116.23 247.03,115.98 247.98,115.88 248.92,115.91 249.87,116.07 250.82,116.35 251.76,116.74 252.71,117.23 253.65,117.80 254.60,118.45 255.54,119.16 256.49,119.91 257.43,120.68 258.38,121.47 259.32,122.25 260.27,123.01 261.21,123.73 262.16,124.41 263.11,125.02 264.05,125.57 265.00,126.03 265.94,126.40 266.89,126.67 267.83,126.85 268.78,126.92 269.72,126.89 270.67,126.76 271.61,126.53 272.56,126.21 273.50,125.81 274.45,125.33 275.39,124.77 276.34,124.17 277.29,123.51 278.23,122.83 279.18,122.13 280.12,121.42 281.07,120.72 282.01,120.04 282.96,119.39 283.90,118.80 284.85,118.26 285.79,117.79 286.74,117.41 287.68,117.11 288.63,116.90 289.58,116.80 290.52,116.80 291.47,116.90 292.41,117.11 293.36,117.43 294.30,117.85 295.25,118.37 296.19,118.98 297.14,119.65 298.08,120.39 299.03,121.19 299.97,122.06 300.92,122.98 301.87,123.95 302.81,124.96 303.76,126.01 304.70,127.09 305.65,128.18 306.59,129.29 307.54,130.44 308.48,131.63 309.43,132.81 310.37,133.98 311.32,135.12 312.26,136.23 313.21,137.30 314.16,138.33 315.10,139.31 316.05,140.23 316.99,141.11 317.94,141.92 318.88,142.68 319.83,143.37 320.77,144.01 321.72,144.58 322.66,145.09 323.61,145.54 324.55,145.93 325.50,146.27 326.45,146.55 327.39,146.78 328.34,146.94 329.28,147.06 330.23,147.12 331.17,147.13 332.12,147.10 333.06,147.01 334.01,146.89 334.95,146.72 335.90,146.51 336.84,146.27 337.79,146.00 338.74,145.69 339.68,145.36 340.63,145.00 341.57,144.63 342.52,144.24 343.46,143.83 344.41,143.42 345.35,143.00 346.30,142.58 347.24,142.16 348.19,141.75 349.13,141.34 350.08,140.94 351.03,140.55 351.97,140.18 352.92,139.83 353.86,139.49 354.81,139.17 355.75,138.87 356.70,138.59 357.64,138.33 358.59,138.08 359.53,137.84 360.48,137.61 361.42,137.39 362.37,137.17 363.32,136.95 364.26,136.72 365.21,136.48 366.15,136.22 367.10,135.93 368.04,135.60 368.99,135.24 369.93,134.90 370.88,134.52 371.82,134.08 372.77,133.56 373.71,132.97 374.66,132.29 375.61,131.51 376.55,130.63 377.50,129.67 378.44,128.61 379.39,127.47 380.33,126.22 381.28,124.87 382.22,123.47 383.17,122.04 384.11,120.58 385.06,119.12 386.00,117.67 386.95,116.24 387.89,114.86 388.84,113.52 389.79,112.26 390.73,111.07 391.68,109.99 392.62,109.01 393.57,108.15 394.51,107.41 395.46,106.80 396.40,106.33 397.35,105.99 398.29,105.79 399.24,105.73 400.18,105.79 401.13,105.98 402.08,106.28 403.02,106.69 403.97,107.19 404.91,107.77 405.86,108.42 406.80,109.12 407.75,109.85 408.69,110.60 409.64,111.36 410.58,112.10 411.53,112.83 412.47,113.51 413.42,114.14 414.37,114.70 415.31,115.19 416.26,115.60 417.20,115.92 418.15,116.15 419.09,116.28 420.04,116.31 420.98,116.25 421.93,116.09 422.87,115.84 423.82,115.50 424.76,115.09 425.71,114.62 426.66,114.09 427.60,113.52 428.55,112.91 429.49,112.29 430.44,111.66 431.38,111.05 432.33,110.45 433.27,109.90 434.22,109.39 435.16,108.94 436.11,108.57 437.05,108.28 438.00,108.07 438.95,107.97 439.89,107.97 440.84,108.07 441.78,108.29 442.73,108.59 443.67,108.98 444.62,109.48 445.56,110.07 446.51,110.76 447.45,111.54 448.40,112.42 449.34,113.38 450.29,114.42 451.24,115.53 452.18,116.69 453.13,117.92 454.07,119.26 455.02,120.64 455.96,122.03 456.91,123.44 457.85,124.84 458.80,126.22 459.74,127.57 460.69,128.88 461.63,130.14 462.58,131.35 463.53,132.50 464.47,133.57 465.42,134.56 466.36,135.48 467.31,136.31 468.25,137.05 469.20,137.69 470.14,138.25 471.09,138.71 472.03,139.08 472.98,139.35 473.92,139.54 474.87,139.63 475.82,139.64 476.76,139.56 477.71,139.40 478.65,139.16 479.60,138.85 480.54,138.48 481.49,138.04 482.43,137.54 483.38,137.00 484.32,136.41 485.27,135.78 486.21,135.12 487.16,134.43 488.11,133.73 489.05,133.02 490.00,132.30 490.94,131.59 491.89,130.89 492.83,130.21 493.78,129.55 494.72,128.92 495.67,128.33 496.61,127.78 497.56,127.27 498.50,126.82 499.45,126.41 500.39,126.06 501.34,125.77 502.29,125.53 503.23,125.34 504.18,125.21 505.12,125.12 506.07,125.08 507.01,125.08 507.96,125.10 508.90,125.15 509.85,125.21 510.79,125.27 511.74,125.33 512.68,125.36 513.63,125.37 514.58,125.33 515.52,125.32 516.47,125.24 517.41,125.07 518.36,124.79 519.30,124.40 520.25,123.88 521.19,123.21 522.14,122.41 523.08,121.45 524.03,120.36 524.97,119.12 525.92,117.70 526.87,116.15 527.81,114.51 528.76,112.78 529.70,110.99 530.65,109.16 531.59,107.31 532.54,105.46 533.48,103.65 534.43,101.88 535.37,100.18 536.32,98.58 537.26,97.10 538.21,95.75 539.16,94.54 540.10,93.50 541.05,92.64 541.99,91.96 542.94,91.47 543.88,91.17 544.83,91.05 545.77,91.12 546.72,91.37 547.66,91.78 548.61,92.34 549.55,93.03 550.50,93.85 551.45,94.76 552.39,95.75 553.34,96.79 554.28,97.87 555.23,98.95 556.17,100.03 557.12,101.07 558.06,102.05 559.01,102.96 559.95,103.78 560.90,104.50 561.84,105.09 562.79,105.56 563.74,105.89 564.68,106.08 565.63,106.13 566.57,106.04 567.52,105.81 568.46,105.45 569.41,104.96 570.35,104.37 571.30,103.68 572.24,102.91 573.19,102.08 574.13,101.20 575.08,100.30 576.03,99.39 576.97,98.50 577.92,97.64 578.86,96.83 579.81,96.09 580.75,95.44 581.70,94.89 582.64,94.46 583.59,94.15 584.53,93.98 585.48,93.95 586.42,94.07 587.37,94.33 588.32,94.71 589.26,95.22 590.21,95.86 591.15,96.64 592.10,97.54 593.04,98.57 593.99,99.70 594.93,100.93 595.88,102.25 596.82,103.65 597.77,105.10 598.71,106.66 599.66,108.28 600.61,109.92 601.55,111.56 602.50,113.18 603.44,114.77 604.39,116.32 605.33,117.80 606.28,119.22 607.22,120.55 608.17,121.80 609.11,122.94 610.06,123.98 611.00,124.92 611.95,125.74 612.89,126.45 613.84,127.04 614.79,127.51 615.73,127.87 616.68,128.11 617.62,128.25 618.57,128.27 619.51,128.20 620.46,128.02 621.40,127.75 622.35,127.40 623.29,126.96 624.24,126.45 625.18,125.87 626.13,125.24 627.08,124.55 628.02,123.83 628.97,123.07 629.91,122.28 630.86,121.48 631.80,120.67 632.75,119.87 633.69,119.07 634.64,118.30 635.58,117.55 636.53,116.84 637.47,116.18 638.42,115.56 639.37,115.00 640.31,114.50 641.26,114.07 642.20,113.71 643.15,113.42 644.09,113.20 645.04,113.06 645.98,112.99 646.93,113.00 647.87,113.06 648.82,113.19 649.76,113.37 650.71,113.59 651.66,113.84 652.60,114.11 653.55,114.39 654.49,114.67 655.44,114.92 656.38,115.14 657.33,115.30 658.27,115.39 659.22,115.40 660.16,115.36 661.11,115.24 662.05,114.98 663.00,114.57 663.95,113.99 664.89,113.24 665.84,112.29 666.78,111.15 667.73,109.83 668.67,108.32 669.62,106.63 670.56,104.77 671.51,102.73 672.45,100.57 673.40,98.33 674.34,96.04 675.29,93.72 676.24,91.41 677.18,89.14 678.13,86.94 679.07,84.84 680.02,82.87 680.96,81.06 681.91,79.43 682.85,78.00 683.80,76.79 684.74,75.81 685.69,75.08 686.63,74.60 687.58,74.36 688.53,74.36 689.47,74.60 690.42,75.07 691.36,75.74 692.31,76.60 693.25,77.62 694.20,78.78 695.14,80.06 696.09,81.41 697.03,82.81 697.98,84.24 698.92,85.66 699.87,87.03 700.82,88.34 701.76,89.56 702.71,90.66 703.65,91.63 704.60,92.43 705.54,93.07 706.49,93.53 707.43,93.80 708.38,93.88 709.32,93.76 710.27,93.47 711.21,93.00 712.16,92.36 713.11,91.58 714.05,90.67 715.00,89.65 715.94,88.54 716.89,87.37 717.83,86.17 718.78,84.96 719.72,83.76 720.67,82.61 721.61,81.52 722.56,80.53 723.50,79.65 724.45,78.90 725.39,78.30 726.34,77.86 727.29,77.60 728.23,77.52 729.18,77.62 730.12,77.91 731.07,78.38 732.01,79.03 732.96,79.81 733.90,80.74 734.85,81.81 735.79,83.00 736.74,84.31 737.68,85.71 738.63,87.21 739.58,88.77 740.52,90.38 741.47,92.02 742.41,93.68 743.36,95.39 744.30,97.12 745.25,98.84 746.19,100.50 747.14,102.11 748.08,103.65 749.03,105.10 749.97,106.46 750.92,107.72 751.87,108.87 752.81,109.90 753.76,110.82 754.70,111.63 755.65,112.32 756.59,112.90 757.54,113.37 758.48,113.73 759.43,113.98"/>
<line x1="828" y1="150" x2="856" y2="150" stroke="#258a45" stroke-width="3"/>
<text x="864" y="154" font-family="Arial" font-size="13">DCM up</text>
<polyline fill="none" stroke="#c23b3b" stroke-width="2.2" points="116.57,329.34 117.52,329.33 118.46,329.31 119.41,329.23 120.35,329.06 121.30,328.78 122.24,328.38 123.19,327.84 124.13,327.15 125.08,326.32 126.03,325.34 126.97,324.20 127.92,322.91 128.86,321.47 129.81,319.87 130.75,318.12 131.70,316.21 132.64,314.16 133.59,311.95 134.53,309.61 135.48,307.12 136.42,304.50 137.37,301.75 138.32,298.88 139.26,295.90 140.21,292.81 141.15,289.62 142.10,286.34 143.04,282.97 143.99,279.52 144.93,276.01 145.88,272.42 146.82,268.78 147.77,265.08 148.71,261.32 149.66,257.51 150.61,253.65 151.55,249.72 152.50,245.74 153.44,241.69 154.39,237.59 155.33,233.44 156.28,229.26 157.22,225.07 158.17,220.87 159.11,216.69 160.06,212.53 161.00,208.42 161.95,204.35 162.89,200.34 163.84,196.40 164.79,192.53 165.73,188.72 166.68,184.96 167.62,181.27 168.57,177.63 169.51,174.04 170.46,170.51 171.40,167.05 172.35,163.65 173.29,160.31 174.24,157.06 175.18,153.89 176.13,150.82 177.08,147.84 178.02,144.98 178.97,142.24 179.91,139.62 180.86,137.14 181.80,134.81 182.75,132.64 183.69,130.62 184.64,128.77 185.58,127.10 186.53,125.61 187.47,124.30 188.42,123.18 189.37,122.24 190.31,121.50 191.26,120.96 192.20,120.60 193.15,120.44 194.09,120.46 195.04,120.68 195.98,121.08 196.93,121.65 197.87,122.41 198.82,123.33 199.76,124.42 200.71,125.66 201.66,127.06 202.60,128.60 203.55,130.28 204.49,132.10 205.44,134.03 206.38,136.08 207.33,138.24 208.27,140.50 209.22,142.86 210.16,145.30 211.11,147.83 212.05,150.43 213.00,153.11 213.95,155.85 214.89,158.67 215.84,161.54 216.78,164.48 217.73,167.47 218.67,170.53 219.62,173.66 220.56,176.85 221.51,180.11 222.45,183.44 223.40,186.87 224.34,190.39 225.29,194.00 226.24,197.71 227.18,201.53 228.13,205.46 229.07,209.50 230.02,213.63 230.96,217.84 231.91,222.10 232.85,226.41 233.80,230.74 234.74,235.08 235.69,239.41 236.63,243.71 237.58,247.95 238.53,252.13 239.47,256.25 240.42,260.29 241.36,264.24 242.31,268.12 243.25,271.90 244.20,275.59 245.14,279.18 246.09,282.66 247.03,286.02 247.98,289.27 248.92,292.39 249.87,295.38 250.82,298.23 251.76,300.95 252.71,303.52 253.65,305.94 254.60,308.21 255.54,310.33 256.49,312.30 257.43,314.11 258.38,315.76 259.32,317.26 260.27,318.60 261.21,319.78 262.16,320.81 263.11,321.69 264.05,322.42 265.00,322.99 265.94,323.41 266.89,323.68 267.83,323.80 268.78,323.78 269.72,323.61 270.67,323.29 271.61,322.82 272.56,322.21 273.50,321.45 274.45,320.53 275.39,319.47 276.34,318.26 277.29,316.90 278.23,315.38 279.18,313.72 280.12,311.90 281.07,309.93 282.01,307.81 282.96,305.54 283.90,303.12 284.85,300.56 285.79,297.86 286.74,295.02 287.68,292.04 288.63,288.93 289.58,285.69 290.52,282.34 291.47,278.86 292.41,275.27 293.36,271.57 294.30,267.77 295.25,263.86 296.19,259.86 297.14,255.76 298.08,251.57 299.03,247.29 299.97,242.91 300.92,238.45 301.87,233.90 302.81,229.29 303.76,224.65 304.70,219.98 305.65,215.33 306.59,210.71 307.54,206.15 308.48,201.66 309.43,197.26 310.37,192.98 311.32,188.83 312.26,184.80 313.21,180.90 314.16,177.13 315.10,173.47 316.05,169.93 316.99,166.50 317.94,163.17 318.88,159.95 319.83,156.83 320.77,153.80 321.72,150.88 322.66,148.04 323.61,145.31 324.55,142.66 325.50,140.12 326.45,137.67 327.39,135.33 328.34,133.09 329.28,130.95 330.23,128.93 331.17,127.02 332.12,125.23 333.06,123.56 334.01,122.02 334.95,120.61 335.90,119.33 336.84,118.20 337.79,117.21 338.74,116.38 339.68,115.70 340.63,115.18 341.57,114.82 342.52,114.63 343.46,114.61 344.41,114.76 345.35,115.09 346.30,115.60 347.24,116.29 348.19,117.16 349.13,118.21 350.08,119.44 351.03,120.85 351.97,122.43 352.92,124.19 353.86,126.12 354.81,128.22 355.75,130.49 356.70,132.91 357.64,135.48 358.59,138.20 359.53,141.06 360.48,144.05 361.42,147.17 362.37,150.40 363.32,153.75 364.26,157.21 365.21,160.77 366.15,164.42 367.10,168.16 368.04,171.99 368.99,175.89 369.93,179.89 370.88,183.96 371.82,188.11 372.77,192.34 373.71,196.64 374.66,201.02 375.61,205.46 376.55,209.95 377.50,214.47 378.44,219.01 379.39,223.53 380.33,228.04 381.28,232.50 382.22,236.91 383.17,241.25 384.11,245.51 385.06,249.68 386.00,253.74 386.95,257.72 387.89,261.60 388.84,265.38 389.79,269.07 390.73,272.66 391.68,276.15 392.62,279.53 393.57,282.82 394.51,285.99 395.46,289.04 396.40,291.98 397.35,294.80 398.29,297.48 399.24,300.04 400.18,302.46 401.13,304.74 402.08,306.87 403.02,308.86 403.97,310.70 404.91,312.39 405.86,313.92 406.80,315.31 407.75,316.53 408.69,317.60 409.64,318.51 410.58,319.27 411.53,319.86 412.47,320.30 413.42,320.58 414.37,320.71 415.31,320.68 416.26,320.50 417.20,320.16 418.15,319.68 419.09,319.05 420.04,318.27 420.98,317.34 421.93,316.26 422.87,315.03 423.82,313.64 424.76,312.10 425.71,310.40 426.66,308.54 427.60,306.53 428.55,304.35 429.49,302.01 430.44,299.51 431.38,296.85 432.33,294.04 433.27,291.06 434.22,287.94 435.16,284.66 436.11,281.24 437.05,277.68 438.00,273.97 438.95,270.14 439.89,266.18 440.84,262.09 441.78,257.89 442.73,253.58 443.67,249.15 444.62,244.63 445.56,240.01 446.51,235.29 447.45,230.48 448.40,225.61 449.34,220.69 450.29,215.77 451.24,210.86 452.18,206.00 453.13,201.20 454.07,196.51 455.02,191.94 455.96,187.50 456.91,183.22 457.85,179.09 458.80,175.13 459.74,171.31 460.69,167.64 461.63,164.11 462.58,160.70 463.53,157.41 464.47,154.22 465.42,151.14 466.36,148.16 467.31,145.26 468.25,142.44 469.20,139.70 470.14,137.04 471.09,134.45 472.03,131.93 472.98,129.48 473.92,127.11 474.87,124.81 475.82,122.59 476.76,120.46 477.71,118.42 478.65,116.48 479.60,114.64 480.54,112.91 481.49,111.30 482.43,109.83 483.38,108.49 484.32,107.30 485.27,106.27 486.21,105.40 487.16,104.71 488.11,104.20 489.05,103.89 490.00,103.78 490.94,103.87 491.89,104.18 492.83,104.70 493.78,105.45 494.72,106.42 495.67,107.62 496.61,109.04 497.56,110.69 498.50,112.56 499.45,114.65 500.39,116.96 501.34,119.47 502.29,122.18 503.23,125.09 504.18,128.17 505.12,131.43 506.07,134.85 507.01,138.41 507.96,142.11 508.90,145.94 509.85,149.87 510.79,153.91 511.74,158.03 512.68,162.23 513.63,166.50 514.58,170.84 515.52,175.24 516.47,179.69 517.41,184.18 518.36,188.72 519.30,193.30 520.25,197.92 521.19,202.57 522.14,207.23 523.08,211.88 524.03,216.51 524.97,221.11 525.92,225.66 526.87,230.15 527.81,234.57 528.76,238.91 529.70,243.15 530.65,247.29 531.59,251.34 532.54,255.29 533.48,259.16 534.43,262.94 535.37,266.63 536.32,270.23 537.26,273.74 538.21,277.16 539.16,280.48 540.10,283.70 541.05,286.81 541.99,289.81 542.94,292.70 543.88,295.46 544.83,298.09 545.77,300.58 546.72,302.94 547.66,305.15 548.61,307.21 549.55,309.12 550.50,310.88 551.45,312.47 552.39,313.91 553.34,315.18 554.28,316.28 555.23,317.21 556.17,317.98 557.12,318.57 558.06,319.00 559.01,319.25 559.95,319.34 560.90,319.26 561.84,319.02 562.79,318.62 563.74,318.07 564.68,317.36 565.63,316.50 566.57,315.48 567.52,314.29 568.46,312.95 569.41,311.43 570.35,309.75 571.30,307.90 572.24,305.87 573.19,303.66 574.13,301.28 575.08,298.72 576.03,295.98 576.97,293.07 577.92,289.98 578.86,286.72 579.81,283.30 580.75,279.72 581.70,275.98 582.64,272.09 583.59,268.06 584.53,263.89 585.48,259.60 586.42,255.18 587.37,250.66 588.32,246.02 589.26,241.28 590.21,236.45 591.15,231.52 592.10,226.52 593.04,221.44 593.99,216.32 594.93,211.19 595.88,206.07 596.82,201.00 597.77,196.00 598.71,191.09 599.66,186.30 600.61,181.65 601.55,177.15 602.50,172.81 603.44,168.63 604.39,164.61 605.33,160.72 606.28,156.96 607.22,153.32 608.17,149.79 609.11,146.36 610.06,143.01 611.00,139.74 611.95,136.54 612.89,133.41 613.84,130.33 614.79,127.32 615.73,124.37 616.68,121.47 617.62,118.64 618.57,115.88 619.51,113.18 620.46,110.57 621.40,108.04 622.35,105.61 623.29,103.28 624.24,101.07 625.18,98.99 626.13,97.06 627.08,95.27 628.02,93.66 628.97,92.22 629.91,90.97 630.86,89.92 631.80,89.09 632.75,88.49 633.69,88.11 634.64,87.98 635.58,88.10 636.53,88.47 637.47,89.11 638.42,90.00 639.37,91.15 640.31,92.57 641.26,94.25 642.20,96.18 643.15,98.36 644.09,100.78 645.04,103.43 645.98,106.30 646.93,109.39 647.87,112.66 648.82,116.12 649.76,119.74 650.71,123.51 651.66,127.41 652.60,131.43 653.55,135.55 654.49,139.75 655.44,144.03 656.38,148.36 657.33,152.75 658.27,157.16 659.22,161.61 660.16,166.09 661.11,170.60 662.05,175.12 663.00,179.67 663.95,184.24 664.89,188.84 665.84,193.47 666.78,198.11 667.73,202.76 668.67,207.40 669.62,212.02 670.56,216.61 671.51,221.17 672.45,225.68 673.40,230.14 674.34,234.53 675.29,238.84 676.24,243.08 677.18,247.25 678.13,251.35 679.07,255.38 680.02,259.34 680.96,263.23 681.91,267.04 682.85,270.77 683.80,274.41 684.74,277.96 685.69,281.40 686.63,284.73 687.58,287.95 688.53,291.04 689.47,293.99 690.42,296.80 691.36,299.47 692.31,301.98 693.25,304.33 694.20,306.51 695.14,308.53 696.09,310.37 697.03,312.03 697.98,313.52 698.92,314.82 699.87,315.94 700.82,316.87 701.76,317.62 702.71,318.18 703.65,318.56 704.60,318.75 705.54,318.77 706.49,318.60 707.43,318.26 708.38,317.74 709.32,317.04 710.27,316.17 711.21,315.11 712.16,313.88 713.11,312.46 714.05,310.85 715.00,309.05 715.94,307.06 716.89,304.88 717.83,302.51 718.78,299.95 719.72,297.20 720.67,294.26 721.61,291.14 722.56,287.85 723.50,284.39 724.45,280.76 725.39,276.97 726.34,273.04 727.29,268.96 728.23,264.76 729.18,260.43 730.12,255.98 731.07,251.43 732.01,246.77 732.96,242.02 733.90,237.18 734.85,232.26 735.79,227.25 736.74,222.15 737.68,216.98 738.63,211.75 739.58,206.49 740.52,201.23 741.47,195.98 742.41,190.78 743.36,185.64 744.30,180.59 745.25,175.64 746.19,170.81 747.14,166.12 748.08,161.55 749.03,157.11 749.97,152.78 750.92,148.56 751.87,144.45 752.81,140.42 753.76,136.47 754.70,132.60 755.65,128.81 756.59,125.09 757.54,121.44 758.48,117.87 759.43,114.37"/>
<line x1="828" y1="174" x2="856" y2="174" stroke="#c23b3b" stroke-width="3"/>
<text x="864" y="178" font-family="Arial" font-size="13">delta norm</text>
</svg>