<svg xmlns="http://www.w3.org/2000/svg" width="920" height="520" viewBox="0 0 920 520">
<rect width="100%" height="100%" fill="white"/>
<text x="460" y="28" text-anchor="middle" font-family="Arial" font-size="20">Coupled Skeleton Aero Moments</text>
<rect x="78" y="54" width="720" height="380" fill="#fafafa" stroke="#222"/>
<line x1="78" y1="434" x2="798" y2="434" stroke="#222"/>
<line x1="78" y1="54" x2="78" y2="434" stroke="#222"/>
<text x="438" y="492" text-anchor="middle" font-family="Arial" font-size="14">time (s)</text>
<text transform="translate(22,244) rotate(-90)" text-anchor="middle" font-family="Arial" font-size="14">moment (N m)</text>
<text x="78" y="456" text-anchor="middle" font-family="Arial" font-size="11">-2.04</text>
<text x="798" y="456" text-anchor="middle" font-family="Arial" font-size="11">36.04</text>
<text x="68" y="434" text-anchor="end" font-family="Arial" font-size="11">-16202.17</text>
<text x="68" y="59" text-anchor="end" font-family="Arial" font-size="11">15578.25</text>
<polyline fill="none" stroke="#222222" stroke-width="2.2" points="116.57,182.88 117.52,182.88 118.46,182.88 119.41,182.88 120.35,182.88 121.30,182.88 122.24,182.88 123.19,182.88 124.13,182.88 125.08,182.88 126.03,182.88 126.97,182.88 127.92,182.88 128.86,182.88 129.81,182.88 130.75,182.88 131.70,182.88 132.64,182.88 133.59,182.88 134.53,182.88 135.48,182.88 136.42,182.88 137.37,182.88 138.32,182.88 139.26,182.88 140.21,182.88 141.15,182.88 142.10,182.88 143.04,182.88 143.99,182.88 144.93,182.88 145.88,182.88 146.82,182.88 147.77,182.88 148.71,182.88 149.66,191.74 150.61,201.74 151.55,212.01 152.50,222.54 153.44,233.27 154.39,244.08 155.33,254.88 156.28,265.62 157.22,276.24 158.17,286.70 159.11,296.93 160.06,297.66 161.00,297.66 161.95,297.66 162.89,297.66 163.84,297.66 164.79,297.66 165.73,297.66 166.68,297.66 167.62,297.66 168.57,297.66 169.51,297.66 170.46,297.66 171.40,297.66 172.35,297.66 173.29,297.66 174.24,297.66 175.18,297.66 176.13,297.66 177.08,297.66 178.02,297.66 178.97,297.66 179.91,297.66 180.86,297.66 181.80,297.66 182.75,297.66 183.69,297.66 184.64,297.66 185.58,297.66 186.53,297.66 187.47,297.66 188.42,297.66 189.37,297.66 190.31,297.66 191.26,297.66 192.20,297.66 193.15,297.66 194.09,297.66 195.04,297.66 195.98,297.66 196.93,297.66 197.87,297.66 198.82,297.66 199.76,297.66 200.71,297.66 201.66,297.66 202.60,297.66 203.55,297.66 204.49,297.66 205.44,297.66 206.38,297.66 207.33,297.66 208.27,297.66 209.22,297.66 210.16,297.66 211.11,297.66 212.05,297.66 213.00,297.66 213.95,297.66 214.89,297.66 215.84,297.66 216.78,297.66 217.73,297.66 218.67,297.66 219.62,297.66 220.56,297.66 221.51,297.66 222.45,297.66 223.40,290.58 224.34,280.81 225.29,270.78 226.24,260.48 227.18,249.93 228.13,239.24 229.07,228.54 230.02,217.87 230.96,207.29 231.91,196.86 232.85,186.62 233.80,182.88 234.74,182.88 235.69,182.88 236.63,182.88 237.58,182.88 238.53,182.88 239.47,182.88 240.42,182.88 241.36,182.88 242.31,182.88 243.25,182.88 244.20,182.88 245.14,182.88 246.09,182.88 247.03,182.88 247.98,182.88 248.92,182.88 249.87,182.88 250.82,182.88 251.76,182.88 252.71,182.88 253.65,182.88 254.60,182.88 255.54,182.88 256.49,182.88 257.43,182.88 258.38,182.88 259.32,182.88 260.27,182.88 261.21,182.88 262.16,182.88 263.11,182.88 264.05,182.88 265.00,182.88 265.94,182.88 266.89,182.88 267.83,182.88 268.78,182.88 269.72,182.88 270.67,182.88 271.61,182.88 272.56,182.88 273.50,182.88 274.45,182.88 275.39,182.88 276.34,182.88 277.29,182.88 278.23,182.88 279.18,182.88 280.12,182.88 281.07,182.88 282.01,182.88 282.96,182.88 283.90,182.88 284.85,182.88 285.79,182.88 286.74,182.88 287.68,182.88 288.63,182.88 289.58,182.88 290.52,182.88 291.47,182.88 292.41,182.88 293.36,182.88 294.30,182.88 295.25,182.88 296.19,182.88 297.14,190.15 298.08,199.90 299.03,209.91 299.97,220.19 300.92,230.70 301.87,241.33 302.81,251.96 303.76,262.55 304.70,273.03 305.65,283.37 306.59,293.49 307.54,297.66 308.48,297.66 309.43,297.66 310.37,297.66 311.32,297.66 312.26,297.66 313.21,297.66 314.16,297.66 315.10,297.66 316.05,297.66 316.99,297.66 317.94,297.66 318.88,297.66 319.83,297.66 320.77,297.66 321.72,297.66 322.66,297.66 323.61,297.66 324.55,297.66 325.50,297.66 326.45,297.66 327.39,297.66 328.34,297.66 329.28,297.66 330.23,297.66 331.17,297.66 332.12,297.66 333.06,297.66 334.01,297.66 334.95,297.66 335.90,297.66 336.84,297.66 337.79,297.66 338.74,297.66 339.68,297.66 340.63,297.66 341.57,297.66 342.52,297.66 343.46,297.66 344.41,297.66 345.35,297.66 346.30,297.66 347.24,297.66 348.19,297.66 349.13,297.66 350.08,297.66 351.03,297.66 351.97,297.66 352.92,297.66 353.86,297.66 354.81,297.66 355.75,297.66 356.70,297.66 357.64,297.66 358.59,297.66 359.53,297.66 360.48,297.66 361.42,297.66 362.37,297.66 363.32,297.66 364.26,297.66 365.21,297.66 366.15,297.66 367.10,297.66 368.04,297.66 368.99,297.66 369.93,290.75 370.88,281.17 371.82,271.31 372.77,261.19 373.71,250.80 374.66,240.25 375.61,229.67 376.55,219.11 377.50,208.64 378.44,198.30 379.39,188.15 380.33,182.88 381.28,182.88 382.22,182.88 383.17,182.88 384.11,182.88 385.06,182.88 386.00,182.88 386.95,182.88 387.89,182.88 388.84,182.88 389.79,182.88 390.73,182.88 391.68,182.88 392.62,182.88 393.57,182.88 394.51,182.88 395.46,182.88 396.40,182.88 397.35,182.88 398.29,182.88 399.24,182.88 400.18,182.88 401.13,182.88 402.08,182.88 403.02,182.88 403.97,182.88 404.91,182.88 405.86,182.88 406.80,182.88 407.75,182.88 408.69,182.88 409.64,182.88 410.58,182.88 411.53,182.88 412.47,182.88 413.42,182.88 414.37,182.88 415.31,182.88 416.26,182.88 417.20,182.88 418.15,182.88 419.09,182.88 420.04,182.88 420.98,182.88 421.93,182.88 422.87,182.88 423.82,182.88 424.76,182.88 425.71,182.88 426.66,182.88 427.60,182.88 428.55,182.88 429.49,182.88 430.44,182.88 431.38,182.88 432.33,182.88 433.27,182.88 434.22,182.88 435.16,182.88 436.11,182.88 437.05,182.88 438.00,182.88 438.95,182.88 439.89,182.88 440.84,182.88 441.78,182.88 442.73,186.66 443.67,196.20 444.62,206.01 445.56,216.08 446.51,226.42 447.45,236.93 448.40,247.47 449.34,257.98 450.29,268.42 451.24,278.72 452.18,288.83 453.13,297.66 454.07,297.66 455.02,297.66 455.96,297.66 456.91,297.66 457.85,297.66 458.80,297.66 459.74,297.66 460.69,297.66 461.63,297.66 462.58,297.66 463.53,297.66 464.47,297.66 465.42,297.66 466.36,297.66 467.31,297.66 468.25,297.66 469.20,297.66 470.14,297.66 471.09,297.66 472.03,297.66 472.98,297.66 473.92,297.66 474.87,297.66 475.82,297.66 476.76,297.66 477.71,297.66 478.65,297.66 479.60,297.66 480.54,297.66 481.49,297.66 482.43,297.66 483.38,297.66 484.32,297.66 485.27,297.66 486.21,297.66 487.16,297.66 488.11,297.66 489.05,297.66 490.00,297.66 490.94,297.66 491.89,297.66 492.83,297.66 493.78,297.66 494.72,297.66 495.67,297.66 496.61,297.66 497.56,297.66 498.50,297.66 499.45,297.66 500.39,297.66 501.34,297.66 502.29,297.66 503.23,297.66 504.18,297.66 505.12,297.66 506.07,297.66 507.01,297.66 507.96,297.66 508.90,297.66 509.85,297.66 510.79,297.66 511.74,297.66 512.68,297.66 513.63,297.66 514.58,296.75 515.52,287.44 516.47,277.87 517.41,268.04 518.36,257.93 519.30,247.58 520.25,237.10 521.19,226.59 522.14,216.13 523.08,205.75 524.03,195.53 524.97,185.50 525.92,182.88 526.87,182.88 527.81,182.88 528.76,182.88 529.70,182.88 530.65,182.88 531.59,182.88 532.54,182.88 533.48,182.88 534.43,182.88 535.37,182.88 536.32,182.88 537.26,182.88 538.21,182.88 539.16,182.88 540.10,182.88 541.05,182.88 541.99,182.88 542.94,182.88 543.88,182.88 544.83,182.88 545.77,182.88 546.72,182.88 547.66,182.88 548.61,182.88 549.55,182.88 550.50,182.88 551.45,182.88 552.39,182.88 553.34,182.88 554.28,182.88 555.23,182.88 556.17,182.88 557.12,182.88 558.06,182.88 559.01,182.88 559.95,182.88 560.90,182.88 561.84,182.88 562.79,182.88 563.74,182.88 564.68,182.88 565.63,182.88 566.57,182.88 567.52,182.88 568.46,182.88 569.41,182.88 570.35,182.88 571.30,182.88 572.24,182.88 573.19,182.88 574.13,182.88 575.08,182.88 576.03,182.88 576.97,182.88 577.92,182.88 578.86,182.88 579.81,182.88 580.75,182.88 581.70,182.88 582.64,182.88 583.59,182.88 584.53,182.88 585.48,182.88 586.42,182.88 587.37,183.32 588.32,192.71 589.26,202.37 590.21,212.30 591.15,222.49 592.10,232.90 593.04,243.42 593.99,253.93 594.93,264.39 595.88,274.75 596.82,284.94 597.77,294.93 598.71,297.66 599.66,297.66 600.61,297.66 601.55,297.66 602.50,297.66 603.44,297.66 604.39,297.66 605.33,297.66 606.28,297.66 607.22,297.66 608.17,297.66 609.11,297.66 610.06,297.66 611.00,297.66 611.95,297.66 612.89,297.66 613.84,297.66 614.79,297.66 615.73,297.66 616.68,297.66 617.62,297.66 618.57,297.66 619.51,297.66 620.46,297.66 621.40,297.66 622.35,297.66 623.29,297.66 624.24,297.66 625.18,297.66 626.13,297.66 627.08,297.66 628.02,297.66 628.97,297.66 629.91,297.66 630.86,297.66 631.80,297.66 632.75,297.66 633.69,297.66 634.64,297.66 635.58,297.66 636.53,297.66 637.47,297.66 638.42,297.66 639.37,297.66 640.31,297.66 641.26,297.66 642.20,297.66 643.15,297.66 644.09,297.66 645.04,297.66 645.98,297.66 646.93,297.66 647.87,297.66 648.82,297.66 649.76,297.66 650.71,297.66 651.66,297.66 652.60,297.66 653.55,297.66 654.49,297.66 655.44,297.66 656.38,297.66 657.33,297.66 658.27,297.66 659.22,297.66 660.16,291.79 661.11,282.34 662.05,272.62 663.00,262.63 663.95,252.38 664.89,241.95 665.84,231.46 666.78,220.99 667.73,210.59 668.67,200.31 669.62,190.21 670.56,182.88 671.51,182.88 672.45,182.88 673.40,182.88 674.34,182.88 675.29,182.88 676.24,182.88 677.18,182.88 678.13,182.88 679.07,182.88 680.02,182.88 680.96,182.88 681.91,182.88 682.85,182.88 683.80,182.88 684.74,182.88 685.69,182.88 686.63,182.88 687.58,182.88 688.53,182.88 689.47,182.88 690.42,182.88 691.36,182.88 692.31,182.88 693.25,182.88 694.20,182.88 695.14,182.88 696.09,182.88 697.03,182.88 697.98,182.88 698.92,182.88 699.87,182.88 700.82,182.88 701.76,182.88 702.71,182.88 703.65,182.88 704.60,182.88 705.54,182.88 706.49,182.88 707.43,182.88 708.38,182.88 709.32,182.88 710.27,182.88 711.21,182.88 712.16,182.88 713.11,182.88 714.05,182.88 715.00,182.88 715.94,182.88 716.89,182.88 717.83,182.88 718.78,182.88 719.72,182.88 720.67,182.88 721.61,182.88 722.56,182.88 723.50,182.88 724.45,182.88 725.39,182.88 726.34,182.88 727.29,182.88 728.23,182.88 729.18,182.88 730.12,182.88 731.07,182.88 732.01,182.88 732.96,190.26 733.90,199.83 734.85,209.66 735.79,219.76 736.74,230.13 737.68,240.65 738.63,251.21 739.58,261.73 740.52,272.17 741.47,282.47 742.41,292.58 743.36,297.66 744.30,297.66 745.25,297.66 746.19,297.66 747.14,297.66 748.08,297.66 749.03,297.66 749.97,297.66 750.92,297.66 751.87,297.66 752.81,297.66 753.76,297.66 754.70,297.66 755.65,297.66 756.59,297.66 757.54,297.66 758.48,297.66 759.43,297.66"/>
<line x1="828" y1="78" x2="856" y2="78" stroke="#222222" stroke-width="3"/>
<text x="864" y="82" font-family="Arial" font-size="13">Mx cmd</text>
<polyline fill="none" stroke="#2f6fbb" stroke-width="2.2" points="116.57,143.45 117.52,102.18 118.46,102.09 119.41,101.96 120.35,101.81 121.30,101.63 122.24,101.44 123.19,101.23 124.13,101.02 125.08,100.79 126.03,100.56 126.97,100.33 127.92,100.09 128.86,99.85 129.81,99.61 130.75,99.37 131.70,99.14 132.64,98.91 133.59,98.69 134.53,98.48 135.48,98.28 136.42,98.09 137.37,97.91 138.32,97.75 139.26,97.60 140.21,97.47 141.15,97.35 142.10,97.24 143.04,97.16 143.99,97.09 144.93,97.03 145.88,97.00 146.82,96.98 147.77,96.97 148.71,96.98 149.66,119.32 150.61,144.55 151.55,170.46 152.50,197.06 153.44,224.16 154.39,251.47 155.33,278.78 156.28,305.94 157.22,332.81 158.17,359.25 159.11,385.14 160.06,387.05 161.00,387.11 161.95,387.16 162.89,387.20 163.84,387.23 164.79,387.25 165.73,387.27 166.68,387.28 167.62,387.28 168.57,387.28 169.51,387.27 170.46,387.26 171.40,387.24 172.35,387.22 173.29,387.19 174.24,387.17 175.18,387.15 176.13,387.12 177.08,387.10 178.02,387.08 178.97,387.07 179.91,387.06 180.86,387.05 181.80,387.05 182.75,387.06 183.69,387.08 184.64,387.10 185.58,387.14 186.53,387.18 187.47,387.23 188.42,387.29 189.37,387.36 190.31,387.43 191.26,387.51 192.20,387.60 193.15,387.70 194.09,387.80 195.04,387.90 195.98,388.01 196.93,388.12 197.87,388.23 198.82,388.35 199.76,388.46 200.71,388.57 201.66,388.68 202.60,388.78 203.55,388.88 204.49,388.98 205.44,389.06 206.38,389.14 207.33,389.22 208.27,389.28 209.22,389.33 210.16,389.38 211.11,389.41 212.05,389.44 213.00,389.45 213.95,389.46 214.89,389.45 215.84,389.44 216.78,389.41 217.73,389.38 218.67,389.34 219.62,389.30 220.56,389.24 221.51,389.19 222.45,389.13 223.40,370.94 224.34,345.88 225.29,320.13 226.24,293.68 227.18,266.60 228.13,239.16 229.07,211.67 230.02,184.28 230.96,157.12 231.91,130.34 232.85,104.07 233.80,94.46 234.74,94.47 235.69,94.50 236.63,94.55 237.58,94.61 238.53,94.68 239.47,94.77 240.42,94.87 241.36,94.98 242.31,95.10 243.25,95.22 244.20,95.36 245.14,95.50 246.09,95.65 247.03,95.79 247.98,95.94 248.92,96.09 249.87,96.24 250.82,96.38 251.76,96.52 252.71,96.66 253.65,96.78 254.60,96.90 255.54,97.01 256.49,97.10 257.43,97.19 258.38,97.26 259.32,97.32 260.27,97.37 261.21,97.41 262.16,97.43 263.11,97.43 264.05,97.42 265.00,97.40 265.94,97.37 266.89,97.32 267.83,97.26 268.78,97.18 269.72,97.10 270.67,97.00 271.61,96.89 272.56,96.78 273.50,96.65 274.45,96.52 275.39,96.38 276.34,96.23 277.29,96.08 278.23,95.93 279.18,95.77 280.12,95.61 281.07,95.45 282.01,95.29 282.96,95.14 283.90,94.98 284.85,94.83 285.79,94.68 286.74,94.54 287.68,94.40 288.63,94.27 289.58,94.15 290.52,94.04 291.47,93.93 292.41,93.84 293.36,93.75 294.30,93.67 295.25,93.60 296.19,93.54 297.14,112.46 298.08,137.83 299.03,163.92 299.97,190.72 300.92,218.12 301.87,245.85 302.81,273.62 303.76,301.27 304.70,328.67 305.65,355.67 306.59,382.15 307.54,393.06 308.48,393.07 309.43,393.08 310.37,393.09 311.32,393.09 312.26,393.09 313.21,393.08 314.16,393.08 315.10,393.07 316.05,393.07 316.99,393.06 317.94,393.05 318.88,393.04 319.83,393.03 320.77,393.02 321.72,393.01 322.66,393.01 323.61,393.00 324.55,393.00 325.50,392.99 326.45,392.98 327.39,392.98 328.34,392.98 329.28,392.98 330.23,392.99 331.17,393.01 332.12,393.03 333.06,393.06 334.01,393.10 334.95,393.15 335.90,393.21 336.84,393.27 337.79,393.35 338.74,393.43 339.68,393.52 340.63,393.61 341.57,393.72 342.52,393.83 343.46,393.95 344.41,394.07 345.35,394.20 346.30,394.33 347.24,394.47 348.19,394.61 349.13,394.75 350.08,394.89 351.03,395.04 351.97,395.18 352.92,395.32 353.86,395.45 354.81,395.58 355.75,395.71 356.70,395.83 357.64,395.94 358.59,396.05 359.53,396.14 360.48,396.23 361.42,396.30 362.37,396.37 363.32,396.42 364.26,396.46 365.21,396.49 366.15,396.51 367.10,396.52 368.04,396.52 368.99,396.50 369.93,378.11 370.88,352.57 371.82,326.31 372.77,299.31 373.71,271.59 374.66,243.42 375.61,215.16 376.55,186.97 377.50,158.98 378.44,131.34 379.39,104.20 380.33,90.05 381.28,89.99 382.22,89.93 383.17,89.89 384.11,89.86 385.06,89.84 386.00,89.83 386.95,89.83 387.89,89.84 388.84,89.86 389.79,89.89 390.73,89.93 391.68,89.98 392.62,90.04 393.57,90.11 394.51,90.18 395.46,90.25 396.40,90.33 397.35,90.42 398.29,90.50 399.24,90.59 400.18,90.67 401.13,90.76 402.08,90.84 403.02,90.92 403.97,90.99 404.91,91.06 405.86,91.12 406.80,91.17 407.75,91.21 408.69,91.25 409.64,91.27 410.58,91.29 411.53,91.30 412.47,91.29 413.42,91.28 414.37,91.25 415.31,91.21 416.26,91.17 417.20,91.11 418.15,91.05 419.09,90.97 420.04,90.89 420.98,90.79 421.93,90.69 422.87,90.58 423.82,90.47 424.76,90.35 425.71,90.22 426.66,90.09 427.60,89.96 428.55,89.82 429.49,89.69 430.44,89.55 431.38,89.41 432.33,89.27 433.27,89.13 434.22,89.00 435.16,88.87 436.11,88.74 437.05,88.62 438.00,88.51 438.95,88.40 439.89,88.29 440.84,88.20 441.78,88.11 442.73,98.31 443.67,124.15 444.62,150.74 445.56,178.08 446.51,206.15 447.45,234.69 448.40,263.34 449.34,291.93 450.29,320.32 451.24,348.35 452.18,375.89 453.13,399.94 454.07,399.92 455.02,399.91 455.96,399.88 456.91,399.86 457.85,399.83 458.80,399.80 459.74,399.77 460.69,399.74 461.63,399.70 462.58,399.67 463.53,399.63 464.47,399.60 465.42,399.56 466.36,399.53 467.31,399.50 468.25,399.46 469.20,399.43 470.14,399.40 471.09,399.38 472.03,399.36 472.98,399.34 473.92,399.33 474.87,399.33 475.82,399.33 476.76,399.34 477.71,399.36 478.65,399.38 479.60,399.42 480.54,399.46 481.49,399.52 482.43,399.59 483.38,399.67 484.32,399.76 485.27,399.86 486.21,399.98 487.16,400.10 488.11,400.24 489.05,400.38 490.00,400.54 490.94,400.70 491.89,400.88 492.83,401.06 493.78,401.24 494.72,401.43 495.67,401.63 496.61,401.83 497.56,402.02 498.50,402.22 499.45,402.41 500.39,402.60 501.34,402.78 502.29,402.96 503.23,403.13 504.18,403.28 505.12,403.43 506.07,403.56 507.01,403.67 507.96,403.77 508.90,403.86 509.85,403.92 510.79,403.97 511.74,404.00 512.68,404.01 513.63,404.00 514.58,401.44 515.52,375.57 516.47,348.92 517.41,321.51 518.36,293.34 519.30,264.46 520.25,235.17 521.19,205.82 522.14,176.57 523.08,147.56 524.03,118.94 524.97,90.87 525.92,83.44 526.87,83.31 527.81,83.19 528.76,83.09 529.70,83.00 530.65,82.93 531.59,82.87 532.54,82.82 533.48,82.79 534.43,82.78 535.37,82.77 536.32,82.79 537.26,82.82 538.21,82.86 539.16,82.92 540.10,82.98 541.05,83.06 541.99,83.15 542.94,83.24 543.88,83.34 544.83,83.44 545.77,83.55 546.72,83.66 547.66,83.77 548.61,83.88 549.55,83.98 550.50,84.09 551.45,84.18 552.39,84.27 553.34,84.35 554.28,84.42 555.23,84.48 556.17,84.53 557.12,84.57 558.06,84.59 559.01,84.61 559.95,84.61 560.90,84.60 561.84,84.57 562.79,84.54 563.74,84.49 564.68,84.42 565.63,84.35 566.57,84.26 567.52,84.17 568.46,84.06 569.41,83.95 570.35,83.82 571.30,83.69 572.24,83.55 573.19,83.41 574.13,83.26 575.08,83.11 576.03,82.96 576.97,82.80 577.92,82.65 578.86,82.49 579.81,82.34 580.75,82.19 581.70,82.04 582.64,81.90 583.59,81.77 584.53,81.64 585.48,81.52 586.42,81.41 587.37,82.55 588.32,109.12 589.26,136.47 590.21,164.60 591.15,193.51 592.10,223.04 593.04,252.89 593.99,282.75 594.93,312.47 595.88,341.91 596.82,370.90 597.77,399.29 598.71,407.06 599.66,407.03 600.61,407.00 601.55,406.96 602.50,406.92 603.44,406.88 604.39,406.83 605.33,406.79 606.28,406.74 607.22,406.69 608.17,406.64 609.11,406.59 610.06,406.54 611.00,406.49 611.95,406.45 612.89,406.40 613.84,406.36 614.79,406.32 615.73,406.29 616.68,406.26 617.62,406.24 618.57,406.22 619.51,406.21 620.46,406.22 621.40,406.23 622.35,406.26 623.29,406.30 624.24,406.35 625.18,406.41 626.13,406.49 627.08,406.58 628.02,406.69 628.97,406.81 629.91,406.95 630.86,407.10 631.80,407.26 632.75,407.44 633.69,407.63 634.64,407.83 635.58,408.04 636.53,408.26 637.47,408.49 638.42,408.72 639.37,408.95 640.31,409.19 641.26,409.42 642.20,409.65 643.15,409.88 644.09,410.10 645.04,410.31 645.98,410.51 646.93,410.69 647.87,410.86 648.82,411.02 649.76,411.15 650.71,411.27 651.66,411.36 652.60,411.43 653.55,411.48 654.49,411.50 655.44,411.50 656.38,411.47 657.33,411.43 658.27,411.36 659.22,411.26 660.16,394.12 661.11,366.58 662.05,338.24 663.00,309.09 663.95,279.16 664.89,248.69 665.84,218.03 666.78,187.42 667.73,157.00 668.67,126.94 669.62,97.40 670.56,75.89 671.51,75.73 672.45,75.59 673.40,75.48 674.34,75.39 675.29,75.32 676.24,75.27 677.18,75.25 678.13,75.25 679.07,75.28 680.02,75.32 680.96,75.39 681.91,75.48 682.85,75.59 683.80,75.71 684.74,75.85 685.69,76.01 686.63,76.17 687.58,76.34 688.53,76.53 689.47,76.71 690.42,76.90 691.36,77.08 692.31,77.26 693.25,77.44 694.20,77.61 695.14,77.77 696.09,77.92 697.03,78.06 697.98,78.18 698.92,78.29 699.87,78.38 700.82,78.45 701.76,78.51 702.71,78.54 703.65,78.56 704.60,78.56 705.54,78.54 706.49,78.50 707.43,78.44 708.38,78.37 709.32,78.28 710.27,78.17 711.21,78.05 712.16,77.91 713.11,77.76 714.05,77.60 715.00,77.43 715.94,77.25 716.89,77.07 717.83,76.88 718.78,76.68 719.72,76.48 720.67,76.29 721.61,76.09 722.56,75.89 723.50,75.70 724.45,75.52 725.39,75.34 726.34,75.17 727.29,75.00 728.23,74.85 729.18,74.71 730.12,74.58 731.07,74.46 732.01,74.36 732.96,96.11 733.90,124.32 734.85,153.34 735.79,183.16 736.74,213.79 737.68,244.91 738.63,276.12 739.58,307.25 740.52,338.15 741.47,368.65 742.41,398.60 743.36,413.64 744.30,413.62 745.25,413.59 746.19,413.55 747.14,413.51 748.08,413.47 749.03,413.43 749.97,413.38 750.92,413.33 751.87,413.28 752.81,413.23 753.76,413.18 754.70,413.13 755.65,413.09 756.59,413.04 757.54,413.00 758.48,412.96 759.43,412.93"/>
<line x1="828" y1="102" x2="856" y2="102" stroke="#2f6fbb" stroke-width="3"/>
<text x="864" y="106" font-family="Arial" font-size="13">Mx aero</text>
<polyline fill="none" stroke="#555555" stroke-width="2.2" points="116.57,240.40 117.52,240.62 118.46,241.05 119.41,241.69 120.35,242.51 121.30,243.48 122.24,244.56 123.19,245.73 124.13,246.97 125.08,248.25 126.03,249.56 126.97,250.86 127.92,252.15 128.86,253.39 129.81,254.57 130.75,255.67 131.70,256.68 132.64,257.57 133.59,258.34 134.53,258.98 135.48,259.48 136.42,259.83 137.37,260.04 138.32,260.09 139.26,260.00 140.21,259.77 141.15,259.40 142.10,258.91 143.04,258.31 143.99,257.60 144.93,256.81 145.88,255.96 146.82,255.04 147.77,254.10 148.71,253.13 149.66,252.17 150.61,251.22 151.55,250.30 152.50,249.42 153.44,248.61 154.39,247.86 155.33,247.20 156.28,246.61 157.22,246.13 158.17,245.73 159.11,245.44 160.06,245.24 161.00,245.14 161.95,245.14 162.89,245.22 163.84,245.40 164.79,245.65 165.73,245.98 166.68,246.38 167.62,246.83 168.57,247.34 169.51,247.89 170.46,248.48 171.40,249.08 172.35,249.70 173.29,250.33 174.24,250.95 175.18,251.55 176.13,252.14 177.08,252.70 178.02,253.23 178.97,253.72 179.91,254.16 180.86,254.56 181.80,254.90 182.75,255.18 183.69,255.41 184.64,255.59 185.58,255.70 186.53,255.75 187.47,255.75 188.42,255.69 189.37,255.58 190.31,255.41 191.26,255.20 192.20,254.94 193.15,254.64 194.09,254.30 195.04,253.93 195.98,253.53 196.93,253.11 197.87,252.66 198.82,252.21 199.76,251.74 200.71,251.27 201.66,250.80 202.60,250.33 203.55,249.87 204.49,249.43 205.44,249.01 206.38,248.61 207.33,248.24 208.27,247.90 209.22,247.59 210.16,247.33 211.11,247.10 212.05,246.92 213.00,246.78 213.95,246.69 214.89,246.65 215.84,246.66 216.78,246.72 217.73,246.83 218.67,246.99 219.62,247.19 220.56,247.44 221.51,247.74 222.45,248.07 223.40,248.45 224.34,248.85 225.29,249.29 226.24,249.75 227.18,250.23 228.13,250.74 229.07,251.25 230.02,251.78 230.96,252.31 231.91,252.84 232.85,253.36 233.80,253.86 234.74,254.33 235.69,254.78 236.63,255.18 237.58,255.53 238.53,255.83 239.47,256.07 240.42,256.23 241.36,256.33 242.31,256.34 243.25,256.28 244.20,256.15 245.14,255.94 246.09,255.65 247.03,255.30 247.98,254.88 248.92,254.40 249.87,253.87 250.82,253.31 251.76,252.70 252.71,252.08 253.65,251.44 254.60,250.80 255.54,250.17 256.49,249.56 257.43,248.97 258.38,248.42 259.32,247.92 260.27,247.46 261.21,247.07 262.16,246.74 263.11,246.49 264.05,246.30 265.00,246.20 265.94,246.17 266.89,246.21 267.83,246.33 268.78,246.52 269.72,246.77 270.67,247.09 271.61,247.46 272.56,247.88 273.50,248.34 274.45,248.84 275.39,249.35 276.34,249.88 277.29,250.42 278.23,250.95 279.18,251.47 280.12,251.96 281.07,252.43 282.01,252.86 282.96,253.25 283.90,253.59 284.85,253.88 285.79,254.11 286.74,254.28 287.68,254.39 288.63,254.44 289.58,254.43 290.52,254.36 291.47,254.23 292.41,254.06 293.36,253.84 294.30,253.57 295.25,253.28 296.19,252.95 297.14,252.60 298.08,252.24 299.03,251.87 299.97,251.50 300.92,251.14 301.87,250.78 302.81,250.43 303.76,250.11 304.70,249.81 305.65,249.53 306.59,249.28 307.54,249.06 308.48,248.87 309.43,248.71 310.37,248.58 311.32,248.49 312.26,248.44 313.21,248.42 314.16,248.44 315.10,248.50 316.05,248.59 316.99,248.71 317.94,248.87 318.88,249.05 319.83,249.27 320.77,249.50 321.72,249.76 322.66,250.04 323.61,250.33 324.55,250.63 325.50,250.94 326.45,251.25 327.39,251.56 328.34,251.87 329.28,252.18 330.23,252.47 331.17,252.76 332.12,253.02 333.06,253.27 334.01,253.50 334.95,253.71 335.90,253.89 336.84,254.04 337.79,254.16 338.74,254.26 339.68,254.32 340.63,254.35 341.57,254.35 342.52,254.31 343.46,254.24 344.41,254.14 345.35,254.00 346.30,253.83 347.24,253.63 348.19,253.40 349.13,253.14 350.08,252.85 351.03,252.54 351.97,252.20 352.92,251.85 353.86,251.48 354.81,251.10 355.75,250.71 356.70,250.32 357.64,249.93 358.59,249.53 359.53,249.15 360.48,248.78 361.42,248.42 362.37,248.09 363.32,247.78 364.26,247.50 365.21,247.26 366.15,247.05 367.10,246.88 368.04,246.75 368.99,246.67 369.93,246.64 370.88,246.66 371.82,246.74 372.77,246.86 373.71,247.04 374.66,247.28 375.61,247.58 376.55,247.92 377.50,248.32 378.44,248.77 379.39,249.26 380.33,249.79 381.28,250.34 382.22,250.91 383.17,251.50 384.11,252.08 385.06,252.65 386.00,253.20 386.95,253.72 387.89,254.19 388.84,254.61 389.79,254.98 390.73,255.27 391.68,255.50 392.62,255.65 393.57,255.71 394.51,255.70 395.46,255.61 396.40,255.44 397.35,255.20 398.29,254.88 399.24,254.50 400.18,254.06 401.13,253.57 402.08,253.03 403.02,252.47 403.97,251.88 404.91,251.28 405.86,250.68 406.80,250.08 407.75,249.51 408.69,248.96 409.64,248.45 410.58,247.98 411.53,247.57 412.47,247.22 413.42,246.93 414.37,246.71 415.31,246.56 416.26,246.48 417.20,246.47 418.15,246.54 419.09,246.68 420.04,246.88 420.98,247.14 421.93,247.46 422.87,247.83 423.82,248.24 424.76,248.68 425.71,249.15 426.66,249.63 427.60,250.12 428.55,250.61 429.49,251.09 430.44,251.56 431.38,252.00 432.33,252.40 433.27,252.77 434.22,253.09 435.16,253.36 436.11,253.58 437.05,253.74 438.00,253.85 438.95,253.90 439.89,253.89 440.84,253.83 441.78,253.72 442.73,253.56 443.67,253.36 444.62,253.11 445.56,252.84 446.51,252.53 447.45,252.20 448.40,251.85 449.34,251.48 450.29,251.11 451.24,250.73 452.18,250.35 453.13,249.98 454.07,249.62 455.02,249.28 455.96,248.95 456.91,248.66 457.85,248.39 458.80,248.16 459.74,247.97 460.69,247.82 461.63,247.72 462.58,247.67 463.53,247.66 464.47,247.70 465.42,247.79 466.36,247.93 467.31,248.12 468.25,248.35 469.20,248.62 470.14,248.92 471.09,249.27 472.03,249.64 472.98,250.03 473.92,250.45 474.87,250.88 475.82,251.32 476.76,251.76 477.71,252.20 478.65,252.64 479.60,253.06 480.54,253.46 481.49,253.84 482.43,254.19 483.38,254.50 484.32,254.78 485.27,255.02 486.21,255.21 487.16,255.36 488.11,255.45 489.05,255.49 490.00,255.48 490.94,255.41 491.89,255.29 492.83,255.11 493.78,254.88 494.72,254.59 495.67,254.25 496.61,253.87 497.56,253.44 498.50,252.96 499.45,252.45 500.39,251.91 501.34,251.34 502.29,250.75 503.23,250.15 504.18,249.54 505.12,248.93 506.07,248.33 507.01,247.75 507.96,247.18 508.90,246.65 509.85,246.16 510.79,245.71 511.74,245.31 512.68,244.97 513.63,244.69 514.58,244.48 515.52,244.35 516.47,244.29 517.41,244.32 518.36,244.43 519.30,244.62 520.25,244.91 521.19,245.28 522.14,245.73 523.08,246.27 524.03,246.88 524.97,247.56 525.92,248.29 526.87,249.07 527.81,249.89 528.76,250.72 529.70,251.56 530.65,252.39 531.59,253.19 532.54,253.95 533.48,254.65 534.43,255.29 535.37,255.84 536.32,256.31 537.26,256.67 538.21,256.93 539.16,257.08 540.10,257.12 541.05,257.04 541.99,256.86 542.94,256.56 543.88,256.16 544.83,255.67 545.77,255.10 546.72,254.44 547.66,253.73 548.61,252.97 549.55,252.17 550.50,251.36 551.45,250.53 552.39,249.72 553.34,248.93 554.28,248.18 555.23,247.47 556.17,246.83 557.12,246.26 558.06,245.77 559.01,245.38 559.95,245.07 560.90,244.86 561.84,244.76 562.79,244.75 563.74,244.85 564.68,245.03 565.63,245.31 566.57,245.68 567.52,246.11 568.46,246.62 569.41,247.18 570.35,247.78 571.30,248.41 572.24,249.07 573.19,249.73 574.13,250.38 575.08,251.02 576.03,251.63 576.97,252.20 577.92,252.71 578.86,253.18 579.81,253.57 580.75,253.90 581.70,254.15 582.64,254.32 583.59,254.41 584.53,254.42 585.48,254.36 586.42,254.22 587.37,254.01 588.32,253.74 589.26,253.41 590.21,253.03 591.15,252.61 592.10,252.15 593.04,251.67 593.99,251.16 594.93,250.65 595.88,250.14 596.82,249.63 597.77,249.13 598.71,248.66 599.66,248.21 600.61,247.80 601.55,247.43 602.50,247.10 603.44,246.83 604.39,246.61 605.33,246.46 606.28,246.37 607.22,246.34 608.17,246.38 609.11,246.49 610.06,246.66 611.00,246.89 611.95,247.18 612.89,247.52 613.84,247.91 614.79,248.35 615.73,248.82 616.68,249.32 617.62,249.85 618.57,250.40 619.51,250.95 620.46,251.51 621.40,252.06 622.35,252.59 623.29,253.11 624.24,253.60 625.18,254.06 626.13,254.47 627.08,254.84 628.02,255.16 628.97,255.43 629.91,255.63 630.86,255.77 631.80,255.85 632.75,255.86 633.69,255.80 634.64,255.66 635.58,255.46 636.53,255.19 637.47,254.86 638.42,254.46 639.37,254.00 640.31,253.48 641.26,252.91 642.20,252.30 643.15,251.64 644.09,250.96 645.04,250.24 645.98,249.51 646.93,248.77 647.87,248.03 648.82,247.30 649.76,246.59 650.71,245.90 651.66,245.25 652.60,244.65 653.55,244.10 654.49,243.61 655.44,243.20 656.38,242.86 657.33,242.61 658.27,242.44 659.22,242.37 660.16,242.40 661.11,242.53 662.05,242.75 663.00,243.08 663.95,243.50 664.89,244.03 665.84,244.65 666.78,245.36 667.73,246.14 668.67,247.00 669.62,247.92 670.56,248.88 671.51,249.87 672.45,250.88 673.40,251.88 674.34,252.86 675.29,253.80 676.24,254.68 677.18,255.48 678.13,256.20 679.07,256.80 680.02,257.29 680.96,257.65 681.91,257.87 682.85,257.96 683.80,257.90 684.74,257.71 685.69,257.37 686.63,256.91 687.58,256.33 688.53,255.64 689.47,254.85 690.42,253.97 691.36,253.04 692.31,252.05 693.25,251.04 694.20,250.01 695.14,248.99 696.09,248.00 697.03,247.05 697.98,246.17 698.92,245.36 699.87,244.64 700.82,244.03 701.76,243.52 702.71,243.14 703.65,242.88 704.60,242.75 705.54,242.75 706.49,242.87 707.43,243.12 708.38,243.48 709.32,243.94 710.27,244.50 711.21,245.14 712.16,245.85 713.11,246.62 714.05,247.42 715.00,248.24 715.94,249.07 716.89,249.89 717.83,250.68 718.78,251.43 719.72,252.13 720.67,252.76 721.61,253.31 722.56,253.77 723.50,254.15 724.45,254.42 725.39,254.59 726.34,254.66 727.29,254.63 728.23,254.50 729.18,254.28 730.12,253.97 731.07,253.59 732.01,253.14 732.96,252.63 733.90,252.08 734.85,251.50 735.79,250.90 736.74,250.29 737.68,249.68 738.63,249.08 739.58,248.50 740.52,247.96 741.47,247.46 742.41,247.00 743.36,246.60 744.30,246.26 745.25,245.97 746.19,245.76 747.14,245.61 748.08,245.54 749.03,245.53 749.97,245.60 750.92,245.74 751.87,245.95 752.81,246.22 753.76,246.54 754.70,246.92 755.65,247.35 756.59,247.82 757.54,248.32 758.48,248.85 759.43,249.40"/>
<line x1="828" y1="126" x2="856" y2="126" stroke="#555555" stroke-width="3"/>
<text x="864" y="130" font-family="Arial" font-size="13">My cmd</text>
<polyline fill="none" stroke="#8a4fbf" stroke-width="2.2" points="116.57,203.28 117.52,204.05 118.46,205.32 119.41,207.24 120.35,209.72 121.30,212.68 122.24,216.06 123.19,219.78 124.13,223.78 125.08,227.97 126.03,232.29 126.97,236.67 127.92,241.02 128.86,245.27 129.81,249.37 130.75,253.24 131.70,256.82 132.64,260.06 133.59,262.92 134.53,265.34 135.48,267.30 136.42,268.78 137.37,269.76 138.32,270.23 139.26,270.20 140.21,269.68 141.15,268.69 142.10,267.26 143.04,265.41 143.99,263.20 144.93,260.67 145.88,257.86 146.82,254.85 147.77,251.67 148.71,248.40 149.66,245.17 150.61,241.98 151.55,238.86 152.50,235.86 153.44,233.04 154.39,230.43 155.33,228.06 156.28,225.97 157.22,224.18 158.17,222.69 159.11,221.53 160.06,220.61 161.00,220.02 161.95,219.74 162.89,219.78 163.84,220.12 164.79,220.76 165.73,221.66 166.68,222.81 167.62,224.18 168.57,225.75 169.51,227.48 170.46,229.35 171.40,231.32 172.35,233.37 173.29,235.46 174.24,237.56 175.18,239.65 176.13,241.70 177.08,243.68 178.02,245.56 178.97,247.34 179.91,248.98 180.86,250.48 181.80,251.82 182.75,252.98 183.69,253.96 184.64,254.75 185.58,255.35 186.53,255.76 187.47,255.97 188.42,255.99 189.37,255.82 190.31,255.48 191.26,254.96 192.20,254.28 193.15,253.44 194.09,252.47 195.04,251.36 195.98,250.14 196.93,248.82 197.87,247.41 198.82,245.94 199.76,244.41 200.71,242.84 201.66,241.25 202.60,239.65 203.55,238.06 204.49,236.50 205.44,234.99 206.38,233.53 207.33,232.14 208.27,230.84 209.22,229.64 210.16,228.56 211.11,227.60 212.05,226.78 213.00,226.11 213.95,225.59 214.89,225.23 215.84,225.04 216.78,225.01 217.73,225.17 218.67,225.49 219.62,225.99 220.56,226.65 221.51,227.47 222.45,228.45 223.40,229.51 224.34,230.68 225.29,231.97 226.24,233.38 227.18,234.88 228.13,236.49 229.07,238.17 230.02,239.91 230.96,241.70 231.91,243.51 232.85,245.32 233.80,247.17 234.74,249.00 235.69,250.74 236.63,252.37 237.58,253.86 238.53,255.17 239.47,256.27 240.42,257.16 241.36,257.80 242.31,258.19 243.25,258.30 244.20,258.15 245.14,257.73 246.09,257.03 247.03,256.09 247.98,254.90 248.92,253.48 249.87,251.87 250.82,250.08 251.76,248.15 252.71,246.11 253.65,243.98 254.60,241.82 255.54,239.65 256.49,237.51 257.43,235.43 258.38,233.45 259.32,231.59 260.27,229.90 261.21,228.40 262.16,227.10 263.11,226.03 264.05,225.21 265.00,224.64 265.94,224.33 266.89,224.28 267.83,224.49 268.78,224.96 269.72,225.66 270.67,226.59 271.61,227.73 272.56,229.05 273.50,230.53 274.45,232.14 275.39,233.85 276.34,235.63 277.29,237.45 278.23,239.28 279.18,241.08 280.12,242.82 281.07,244.48 282.01,246.03 282.96,247.44 283.90,248.70 284.85,249.78 285.79,250.67 286.74,251.35 287.68,251.83 288.63,252.09 289.58,252.14 290.52,251.99 291.47,251.63 292.41,251.09 293.36,250.37 294.30,249.50 295.25,248.50 296.19,247.38 297.14,246.25 298.08,245.07 299.03,243.85 299.97,242.62 300.92,241.39 301.87,240.18 302.81,239.00 303.76,237.87 304.70,236.81 305.65,235.82 306.59,234.91 307.54,234.04 308.48,233.23 309.43,232.53 310.37,231.94 311.32,231.46 312.26,231.11 313.21,230.88 314.16,230.79 315.10,230.82 316.05,230.98 316.99,231.27 317.94,231.68 318.88,232.19 319.83,232.82 320.77,233.55 321.72,234.36 322.66,235.25 323.61,236.21 324.55,237.23 325.50,238.29 326.45,239.38 327.39,240.48 328.34,241.60 329.28,242.71 330.23,243.81 331.17,244.89 332.12,245.93 333.06,246.92 334.01,247.85 334.95,248.72 335.90,249.52 336.84,250.23 337.79,250.85 338.74,251.38 339.68,251.80 340.63,252.12 341.57,252.32 342.52,252.40 343.46,252.37 344.41,252.21 345.35,251.94 346.30,251.54 347.24,251.02 348.19,250.39 349.13,249.64 350.08,248.78 351.03,247.82 351.97,246.77 352.92,245.63 353.86,244.42 354.81,243.13 355.75,241.80 356.70,240.42 357.64,239.02 358.59,237.60 359.53,236.19 360.48,234.79 361.42,233.43 362.37,232.12 363.32,230.88 364.26,229.73 365.21,228.67 366.15,227.73 367.10,226.92 368.04,226.26 368.99,225.75 369.93,225.34 370.88,225.08 371.82,225.01 372.77,225.13 373.71,225.46 374.66,226.00 375.61,226.75 376.55,227.73 377.50,228.91 378.44,230.29 379.39,231.86 380.33,233.64 381.28,235.60 382.22,237.68 383.17,239.82 384.11,242.00 385.06,244.18 386.00,246.31 386.95,248.35 387.89,250.27 388.84,252.02 389.79,253.59 390.73,254.94 391.68,256.04 392.62,256.88 393.57,257.44 394.51,257.71 395.46,257.68 396.40,257.37 397.35,256.77 398.29,255.89 399.24,254.76 400.18,253.39 401.13,251.81 402.08,250.05 403.02,248.14 403.97,246.12 404.91,244.02 405.86,241.88 406.80,239.73 407.75,237.62 408.69,235.58 409.64,233.64 410.58,231.85 411.53,230.22 412.47,228.78 413.42,227.56 414.37,226.57 415.31,225.84 416.26,225.35 417.20,225.14 418.15,225.18 419.09,225.48 420.04,226.02 420.98,226.80 421.93,227.80 422.87,228.99 423.82,230.34 424.76,231.84 425.71,233.46 426.66,235.15 427.60,236.90 428.55,238.66 429.49,240.41 430.44,242.12 431.38,243.75 432.33,245.28 433.27,246.69 434.22,247.95 435.16,249.03 436.11,249.94 437.05,250.65 438.00,251.16 438.95,251.46 439.89,251.55 440.84,251.44 441.78,251.14 442.73,250.69 443.67,250.12 444.62,249.40 445.56,248.55 446.51,247.57 447.45,246.49 448.40,245.31 449.34,244.07 450.29,242.77 451.24,241.44 452.18,240.08 453.13,238.72 454.07,237.29 455.02,235.89 455.96,234.55 456.91,233.29 457.85,232.12 458.80,231.08 459.74,230.16 460.69,229.39 461.63,228.79 462.58,228.35 463.53,228.10 464.47,228.03 465.42,228.14 466.36,228.44 467.31,228.92 468.25,229.58 469.20,230.40 470.14,231.39 471.09,232.52 472.03,233.78 472.98,235.16 473.92,236.64 474.87,238.20 475.82,239.83 476.76,241.50 477.71,243.19 478.65,244.88 479.60,246.56 480.54,248.20 481.49,249.78 482.43,251.28 483.38,252.68 484.32,253.97 485.27,255.13 486.21,256.15 487.16,256.99 488.11,257.67 489.05,258.16 490.00,258.46 490.94,258.55 491.89,258.43 492.83,258.11 493.78,257.57 494.72,256.83 495.67,255.88 496.61,254.72 497.56,253.38 498.50,251.86 499.45,250.17 500.39,248.33 501.34,246.35 502.29,244.27 503.23,242.09 504.18,239.85 505.12,237.57 506.07,235.28 507.01,233.00 507.96,230.77 508.90,228.61 509.85,226.55 510.79,224.63 511.74,222.87 512.68,221.29 513.63,219.93 514.58,218.80 515.52,217.84 516.47,217.16 517.41,216.78 518.36,216.71 519.30,216.97 520.25,217.57 521.19,218.52 522.14,219.81 523.08,221.44 524.03,223.39 524.97,225.63 525.92,228.21 526.87,231.05 527.81,234.06 528.76,237.20 529.70,240.41 530.65,243.63 531.59,246.80 532.54,249.87 533.48,252.78 534.43,255.47 535.37,257.90 536.32,260.02 537.26,261.79 538.21,263.18 539.16,264.17 540.10,264.74 541.05,264.88 541.99,264.59 542.94,263.88 543.88,262.77 544.83,261.27 545.77,259.42 546.72,257.25 547.66,254.81 548.61,252.14 549.55,249.29 550.50,246.32 551.45,243.28 552.39,240.22 553.34,237.21 554.28,234.29 555.23,231.52 556.17,228.95 557.12,226.61 558.06,224.56 559.01,222.81 559.95,221.41 560.90,220.37 561.84,219.70 562.79,219.41 563.74,219.50 564.68,219.95 565.63,220.77 566.57,221.92 567.52,223.37 568.46,225.11 569.41,227.07 570.35,229.24 571.30,231.56 572.24,233.99 573.19,236.47 574.13,238.97 575.08,241.43 576.03,243.81 576.97,246.07 577.92,248.16 578.86,250.06 579.81,251.72 580.75,253.13 581.70,254.26 582.64,255.10 583.59,255.64 584.53,255.87 585.48,255.80 586.42,255.44 587.37,254.81 588.32,254.00 589.26,252.97 590.21,251.73 591.15,250.30 592.10,248.71 593.04,247.00 593.99,245.18 594.93,243.30 595.88,241.37 596.82,239.44 597.77,237.52 598.71,235.58 599.66,233.68 600.61,231.89 601.55,230.23 602.50,228.73 603.44,227.42 604.39,226.31 605.33,225.42 606.28,224.78 607.22,224.39 608.17,224.25 609.11,224.37 610.06,224.74 611.00,225.37 611.95,226.25 612.89,227.35 613.84,228.67 614.79,230.18 615.73,231.88 616.68,233.72 617.62,235.70 618.57,237.78 619.51,239.93 620.46,242.14 621.40,244.36 622.35,246.57 623.29,248.74 624.24,250.85 625.18,252.87 626.13,254.76 627.08,256.51 628.02,258.10 628.97,259.50 629.91,260.69 630.86,261.66 631.80,262.38 632.75,262.86 633.69,263.07 634.64,263.01 635.58,262.68 636.53,262.08 637.47,261.20 638.42,260.06 639.37,258.66 640.31,257.01 641.26,255.12 642.20,253.02 643.15,250.72 644.09,248.25 645.04,245.63 645.98,242.90 646.93,240.08 647.87,237.20 648.82,234.30 649.76,231.43 650.71,228.60 651.66,225.87 652.60,223.26 653.55,220.82 654.49,218.58 655.44,216.58 656.38,214.85 657.33,213.42 658.27,212.31 659.22,211.56 660.16,211.11 661.11,211.01 662.05,211.30 663.00,211.99 663.95,213.10 664.89,214.62 665.84,216.55 666.78,218.86 667.73,221.55 668.67,224.56 669.62,227.88 670.56,231.46 671.51,235.32 672.45,239.30 673.40,243.33 674.34,247.35 675.29,251.28 676.24,255.04 677.18,258.55 678.13,261.76 679.07,264.60 680.02,267.02 680.96,268.96 681.91,270.40 682.85,271.31 683.80,271.66 684.74,271.46 685.69,270.71 686.63,269.42 687.58,267.62 688.53,265.35 689.47,262.65 690.42,259.58 691.36,256.19 692.31,252.55 693.25,248.73 694.20,244.81 695.14,240.85 696.09,236.94 697.03,233.14 697.98,229.53 698.92,226.16 699.87,223.11 700.82,220.43 701.76,218.15 702.71,216.32 703.65,214.97 704.60,214.10 705.54,213.74 706.49,213.88 707.43,214.51 708.38,215.61 709.32,217.15 710.27,219.10 711.21,221.40 712.16,224.01 713.11,226.87 714.05,229.92 715.00,233.10 715.94,236.34 716.89,239.59 717.83,242.77 718.78,245.83 719.72,248.70 720.67,251.35 721.61,253.71 722.56,255.75 723.50,257.43 724.45,258.73 725.39,259.64 726.34,260.14 727.29,260.24 728.23,259.94 729.18,259.25 730.12,258.21 731.07,256.84 732.01,255.17 732.96,253.34 733.90,251.32 734.85,249.14 735.79,246.85 736.74,244.48 737.68,242.10 738.63,239.73 739.58,237.41 740.52,235.19 741.47,233.10 742.41,231.16 743.36,229.36 744.30,227.71 745.25,226.29 746.19,225.12 747.14,224.22 748.08,223.60 749.03,223.26 749.97,223.21 750.92,223.45 751.87,223.96 752.81,224.75 753.76,225.80 754.70,227.09 755.65,228.59 756.59,230.29 757.54,232.15 758.48,234.16 759.43,236.28"/>
<line x1="828" y1="150" x2="856" y2="150" stroke="#8a4fbf" stroke-width="3"/>
<text x="864" y="154" font-family="Arial" font-size="13">My aero</text>
<polyline fill="none" stroke="#888888" stroke-width="2.2" points="116.57,221.59 117.52,221.64 118.46,221.85 119.41,222.22 120.35,222.71 121.30,223.31 122.24,224.00 123.19,224.77 124.13,225.62 125.08,226.53 126.03,227.50 126.97,228.52 127.92,229.59 128.86,230.69 129.81,231.81 130.75,232.95 131.70,234.10 132.64,235.26 133.59,236.40 134.53,237.53 135.48,238.63 136.42,239.70 137.37,240.73 138.32,241.71 139.26,242.64 140.21,243.50 141.15,244.30 142.10,245.02 143.04,245.66 143.99,246.22 144.93,246.69 145.88,247.08 146.82,247.37 147.77,247.57 148.71,247.69 149.66,247.72 150.61,247.67 151.55,247.55 152.50,247.37 153.44,247.15 154.39,246.90 155.33,246.63 156.28,246.35 157.22,246.07 158.17,245.80 159.11,245.55 160.06,245.34 161.00,245.17 161.95,245.04 162.89,244.94 163.84,244.88 164.79,244.86 165.73,244.89 166.68,244.96 167.62,245.06 168.57,245.21 169.51,245.39 170.46,245.60 171.40,245.85 172.35,246.12 173.29,246.40 174.24,246.71 175.18,247.02 176.13,247.34 177.08,247.65 178.02,247.96 178.97,248.25 179.91,248.52 180.86,248.77 181.80,248.98 182.75,249.17 183.69,249.31 184.64,249.41 185.58,249.47 186.53,249.47 187.47,249.44 188.42,249.35 189.37,249.22 190.31,249.03 191.26,248.81 192.20,248.54 193.15,248.23 194.09,247.88 195.04,247.51 195.98,247.10 196.93,246.68 197.87,246.23 198.82,245.78 199.76,245.32 200.71,244.87 201.66,244.42 202.60,243.98 203.55,243.57 204.49,243.18 205.44,242.82 206.38,242.50 207.33,242.22 208.27,241.99 209.22,241.80 210.16,241.67 211.11,241.59 212.05,241.57 213.00,241.61 213.95,241.71 214.89,241.86 215.84,242.08 216.78,242.35 217.73,242.67 218.67,243.04 219.62,243.46 220.56,243.92 221.51,244.42 222.45,244.95 223.40,245.51 224.34,246.08 225.29,246.66 226.24,247.22 227.18,247.76 228.13,248.26 229.07,248.71 230.02,249.10 230.96,249.42 231.91,249.65 232.85,249.81 233.80,249.86 234.74,249.82 235.69,249.68 236.63,249.45 237.58,249.13 238.53,248.72 239.47,248.24 240.42,247.67 241.36,247.04 242.31,246.34 243.25,245.58 244.20,244.77 245.14,243.92 246.09,243.03 247.03,242.10 247.98,241.16 248.92,240.21 249.87,239.24 250.82,238.29 251.76,237.34 252.71,236.41 253.65,235.51 254.60,234.64 255.54,233.80 256.49,233.01 257.43,232.27 258.38,231.58 259.32,230.95 260.27,230.39 261.21,229.88 262.16,229.45 263.11,229.08 264.05,228.78 265.00,228.55 265.94,228.39 266.89,228.30 267.83,228.28 268.78,228.33 269.72,228.44 270.67,228.62 271.61,228.87 272.56,229.17 273.50,229.52 274.45,229.93 275.39,230.39 276.34,230.89 277.29,231.44 278.23,232.01 279.18,232.62 280.12,233.26 281.07,233.92 282.01,234.59 282.96,235.27 283.90,235.96 284.85,236.65 285.79,237.33 286.74,238.00 287.68,238.66 288.63,239.29 289.58,239.90 290.52,240.48 291.47,241.02 292.41,241.53 293.36,241.99 294.30,242.41 295.25,242.78 296.19,243.11 297.14,243.38 298.08,243.60 299.03,243.79 299.97,243.95 300.92,244.08 301.87,244.19 302.81,244.30 303.76,244.40 304.70,244.51 305.65,244.62 306.59,244.75 307.54,244.91 308.48,245.08 309.43,245.28 310.37,245.50 311.32,245.73 312.26,245.99 313.21,246.25 314.16,246.53 315.10,246.82 316.05,247.13 316.99,247.44 317.94,247.77 318.88,248.10 319.83,248.43 320.77,248.77 321.72,249.11 322.66,249.44 323.61,249.77 324.55,250.09 325.50,250.43 326.45,250.78 327.39,251.10 328.34,251.41 329.28,251.68 330.23,251.93 331.17,252.14 332.12,252.31 333.06,252.44 334.01,252.53 334.95,252.58 335.90,252.58 336.84,252.53 337.79,252.44 338.74,252.29 339.68,252.10 340.63,251.86 341.57,251.58 342.52,251.24 343.46,250.87 344.41,250.46 345.35,250.00 346.30,249.52 347.24,249.01 348.19,248.47 349.13,247.91 350.08,247.34 351.03,246.76 351.97,246.17 352.92,245.59 353.86,245.01 354.81,244.45 355.75,243.91 356.70,243.40 357.64,242.91 358.59,242.47 359.53,242.07 360.48,241.71 361.42,241.41 362.37,241.16 363.32,240.98 364.26,240.85 365.21,240.79 366.15,240.80 367.10,240.87 368.04,241.00 368.99,241.21 369.93,241.47 370.88,241.80 371.82,242.17 372.77,242.58 373.71,243.01 374.66,243.45 375.61,243.89 376.55,244.33 377.50,244.75 378.44,245.14 379.39,245.48 380.33,245.78 381.28,246.02 382.22,246.20 383.17,246.32 384.11,246.38 385.06,246.38 386.00,246.33 386.95,246.21 387.89,246.03 388.84,245.79 389.79,245.50 390.73,245.15 391.68,244.75 392.62,244.30 393.57,243.81 394.51,243.27 395.46,242.71 396.40,242.11 397.35,241.49 398.29,240.85 399.24,240.20 400.18,239.54 401.13,238.88 402.08,238.23 403.02,237.59 403.97,236.96 404.91,236.36 405.86,235.78 406.80,235.23 407.75,234.71 408.69,234.23 409.64,233.78 410.58,233.38 411.53,233.03 412.47,232.72 413.42,232.46 414.37,232.24 415.31,232.08 416.26,231.97 417.20,231.90 418.15,231.89 419.09,231.92 420.04,232.00 420.98,232.12 421.93,232.29 422.87,232.50 423.82,232.75 424.76,233.04 425.71,233.36 426.66,233.71 427.60,234.09 428.55,234.50 429.49,234.92 430.44,235.37 431.38,235.82 432.33,236.29 433.27,236.76 434.22,237.23 435.16,237.70 436.11,238.16 437.05,238.61 438.00,239.04 438.95,239.46 439.89,239.85 440.84,240.21 441.78,240.55 442.73,240.85 443.67,241.12 444.62,241.36 445.56,241.59 446.51,241.80 447.45,242.00 448.40,242.20 449.34,242.40 450.29,242.61 451.24,242.84 452.18,243.08 453.13,243.35 454.07,243.65 455.02,243.97 455.96,244.31 456.91,244.67 457.85,245.05 458.80,245.44 459.74,245.84 460.69,246.26 461.63,246.70 462.58,247.14 463.53,247.59 464.47,248.05 465.42,248.52 466.36,249.00 467.31,249.47 468.25,249.95 469.20,250.43 470.14,250.89 471.09,251.35 472.03,251.79 472.98,252.22 473.92,252.62 474.87,253.00 475.82,253.34 476.76,253.65 477.71,253.92 478.65,254.14 479.60,254.31 480.54,254.43 481.49,254.50 482.43,254.51 483.38,254.45 484.32,254.33 485.27,254.15 486.21,253.90 487.16,253.58 488.11,253.20 489.05,252.76 490.00,252.25 490.94,251.69 491.89,251.07 492.83,250.40 493.78,249.69 494.72,248.94 495.67,248.15 496.61,247.34 497.56,246.51 498.50,245.68 499.45,244.84 500.39,244.01 501.34,243.20 502.29,242.41 503.23,241.66 504.18,240.95 505.12,240.30 506.07,239.71 507.01,239.18 507.96,238.74 508.90,238.37 509.85,238.09 510.79,237.90 511.74,237.81 512.68,237.82 513.63,237.92 514.58,238.13 515.52,238.43 516.47,238.82 517.41,239.28 518.36,239.81 519.30,240.39 520.25,241.01 521.19,241.66 522.14,242.32 523.08,242.97 524.03,243.61 524.97,244.23 525.92,244.79 526.87,245.31 527.81,245.77 528.76,246.17 529.70,246.51 530.65,246.78 531.59,246.98 532.54,247.11 533.48,247.16 534.43,247.14 535.37,247.04 536.32,246.87 537.26,246.62 538.21,246.30 539.16,245.91 540.10,245.46 541.05,244.95 541.99,244.40 542.94,243.79 543.88,243.15 544.83,242.47 545.77,241.77 546.72,241.05 547.66,240.32 548.61,239.59 549.55,238.85 550.50,238.13 551.45,237.42 552.39,236.73 553.34,236.07 554.28,235.43 555.23,234.84 556.17,234.28 557.12,233.77 558.06,233.30 559.01,232.88 559.95,232.52 560.90,232.20 561.84,231.95 562.79,231.74 563.74,231.60 564.68,231.51 565.63,231.47 566.57,231.49 567.52,231.57 568.46,231.69 569.41,231.87 570.35,232.10 571.30,232.37 572.24,232.68 573.19,233.03 574.13,233.42 575.08,233.84 576.03,234.28 576.97,234.75 577.92,235.24 578.86,235.74 579.81,236.24 580.75,236.75 581.70,237.26 582.64,237.76 583.59,238.24 584.53,238.71 585.48,239.16 586.42,239.58 587.37,239.97 588.32,240.33 589.26,240.66 590.21,240.96 591.15,241.25 592.10,241.53 593.04,241.80 593.99,242.07 594.93,242.35 595.88,242.64 596.82,242.94 597.77,243.27 598.71,243.62 599.66,244.00 600.61,244.41 601.55,244.83 602.50,245.27 603.44,245.73 604.39,246.21 605.33,246.69 606.28,247.20 607.22,247.71 608.17,248.24 609.11,248.78 610.06,249.32 611.00,249.87 611.95,250.42 612.89,250.97 613.84,251.51 614.79,252.04 615.73,252.56 616.68,253.05 617.62,253.52 618.57,253.96 619.51,254.35 620.46,254.71 621.40,255.02 622.35,255.27 623.29,255.46 624.24,255.59 625.18,255.65 626.13,255.63 627.08,255.54 628.02,255.38 628.97,255.13 629.91,254.80 630.86,254.39 631.80,253.90 632.75,253.33 633.69,252.69 634.64,251.98 635.58,251.21 636.53,250.37 637.47,249.49 638.42,248.56 639.37,247.60 640.31,246.61 641.26,245.60 642.20,244.60 643.15,243.59 644.09,242.61 645.04,241.65 645.98,240.74 646.93,239.87 647.87,239.07 648.82,238.35 649.76,237.70 650.71,237.15 651.66,236.70 652.60,236.35 653.55,236.12 654.49,236.00 655.44,236.01 656.38,236.14 657.33,236.39 658.27,236.76 659.22,237.25 660.16,237.86 661.11,238.57 662.05,239.37 663.00,240.24 663.95,241.17 664.89,242.13 665.84,243.12 666.78,244.10 667.73,245.07 668.67,246.00 669.62,246.88 670.56,247.69 671.51,248.41 672.45,249.04 673.40,249.58 674.34,250.01 675.29,250.34 676.24,250.56 677.18,250.67 678.13,250.66 679.07,250.54 680.02,250.32 680.96,249.98 681.91,249.54 682.85,249.00 683.80,248.37 684.74,247.66 685.69,246.87 686.63,246.02 687.58,245.11 688.53,244.15 689.47,243.16 690.42,242.14 691.36,241.11 692.31,240.07 693.25,239.04 694.20,238.02 695.14,237.02 696.09,236.05 697.03,235.13 697.98,234.25 698.92,233.42 699.87,232.65 700.82,231.95 701.76,231.31 702.71,230.75 703.65,230.26 704.60,229.84 705.54,229.51 706.49,229.26 707.43,229.08 708.38,228.99 709.32,228.98 710.27,229.04 711.21,229.18 712.16,229.39 713.11,229.67 714.05,230.02 715.00,230.43 715.94,230.89 716.89,231.41 717.83,231.97 718.78,232.58 719.72,233.21 720.67,233.88 721.61,234.56 722.56,235.26 723.50,235.97 724.45,236.67 725.39,237.37 726.34,238.06 727.29,238.72 728.23,239.35 729.18,239.96 730.12,240.52 731.07,241.04 732.01,241.52 732.96,241.94 733.90,242.32 734.85,242.66 735.79,242.96 736.74,243.24 737.68,243.50 738.63,243.75 739.58,243.99 740.52,244.24 741.47,244.50 742.41,244.77 743.36,245.07 744.30,245.40 745.25,245.75 746.19,246.12 747.14,246.51 748.08,246.92 749.03,247.35 749.97,247.79 750.92,248.25 751.87,248.72 752.81,249.19 753.76,249.68 754.70,250.17 755.65,250.66 756.59,251.14 757.54,251.61 758.48,252.07 759.43,252.51"/>
<line x1="828" y1="174" x2="856" y2="174" stroke="#888888" stroke-width="3"/>
<text x="864" y="178" font-family="Arial" font-size="13">Mz cmd</text>
<polyline fill="none" stroke="#258a45" stroke-width="2.2" points="116.57,211.29 117.52,211.39 118.46,211.85 119.41,212.62 120.35,213.64 121.30,214.86 122.24,216.26 123.19,217.81 124.13,219.50 125.08,221.31 126.03,223.23 126.97,225.22 127.92,227.29 128.86,229.41 129.81,231.57 130.75,233.74 131.70,235.91 132.64,238.08 133.59,240.21 134.53,242.29 135.48,244.31 136.42,246.25 137.37,248.10 138.32,249.84 139.26,251.47 140.21,252.96 141.15,254.32 142.10,255.52 143.04,256.57 143.99,257.46 144.93,258.19 145.88,258.74 146.82,259.13 147.77,259.35 148.71,259.41 149.66,258.02 150.61,256.32 151.55,254.46 152.50,252.48 153.44,250.39 154.39,248.24 155.33,246.07 156.28,243.91 157.22,241.78 158.17,239.71 159.11,237.73 160.06,237.22 161.00,236.90 161.95,236.65 162.89,236.49 163.84,236.41 164.79,236.41 165.73,236.49 166.68,236.65 167.62,236.89 168.57,237.20 169.51,237.58 170.46,238.03 171.40,238.53 172.35,239.07 173.29,239.65 174.24,240.26 175.18,240.88 176.13,241.50 177.08,242.11 178.02,242.71 178.97,243.27 179.91,243.79 180.86,244.26 181.80,244.67 182.75,245.01 183.69,245.27 184.64,245.45 185.58,245.54 186.53,245.55 187.47,245.46 188.42,245.28 189.37,245.00 190.31,244.64 191.26,244.19 192.20,243.65 193.15,243.05 194.09,242.37 195.04,241.64 195.98,240.85 196.93,240.03 197.87,239.17 198.82,238.30 199.76,237.42 200.71,236.54 201.66,235.68 202.60,234.85 203.55,234.05 204.49,233.31 205.44,232.62 206.38,232.01 207.33,231.48 208.27,231.03 209.22,230.68 210.16,230.43 211.11,230.29 212.05,230.25 213.00,230.33 213.95,230.52 214.89,230.82 215.84,231.22 216.78,231.74 217.73,232.36 218.67,233.07 219.62,233.87 220.56,234.75 221.51,235.70 222.45,236.71 223.40,238.82 224.34,241.35 225.29,243.94 226.24,246.53 227.18,249.11 228.13,251.64 229.07,254.08 230.02,256.40 230.96,258.56 231.91,260.56 232.85,262.36 233.80,263.01 234.74,262.91 235.69,262.63 236.63,262.18 237.58,261.56 238.53,260.78 239.47,259.85 240.42,258.77 241.36,257.56 242.31,256.22 243.25,254.76 244.20,253.21 245.14,251.57 246.09,249.86 247.03,248.09 247.98,246.28 248.92,244.44 249.87,242.60 250.82,240.76 251.76,238.94 252.71,237.16 253.65,235.42 254.60,233.75 255.54,232.16 256.49,230.65 257.43,229.23 258.38,227.93 259.32,226.74 260.27,225.67 261.21,224.73 262.16,223.92 263.11,223.24 264.05,222.70 265.00,222.30 265.94,222.04 266.89,221.92 267.83,221.94 268.78,222.08 269.72,222.36 270.67,222.76 271.61,223.28 272.56,223.92 273.50,224.66 274.45,225.50 275.39,226.43 276.34,227.44 277.29,228.53 278.23,229.68 279.18,230.88 280.12,232.12 281.07,233.40 282.01,234.70 282.96,236.01 283.90,237.33 284.85,238.63 285.79,239.92 286.74,241.17 287.68,242.39 288.63,243.56 289.58,244.67 290.52,245.72 291.47,246.69 292.41,247.59 293.36,248.40 294.30,249.12 295.25,249.75 296.19,250.28 297.14,249.62 298.08,248.49 299.03,247.25 299.97,245.91 300.92,244.50 301.87,243.04 302.81,241.56 303.76,240.10 304.70,238.66 305.65,237.26 306.59,235.94 307.54,235.56 308.48,235.87 309.43,236.23 310.37,236.62 311.32,237.05 312.26,237.51 313.21,238.00 314.16,238.52 315.10,239.07 316.05,239.64 316.99,240.23 317.94,240.84 318.88,241.46 319.83,242.10 320.77,242.74 321.72,243.38 322.66,244.02 323.61,244.64 324.55,245.25 325.50,245.90 326.45,246.56 327.39,247.19 328.34,247.77 329.28,248.30 330.23,248.77 331.17,249.17 332.12,249.50 333.06,249.75 334.01,249.92 334.95,250.00 335.90,249.99 336.84,249.89 337.79,249.70 338.74,249.41 339.68,249.03 340.63,248.55 341.57,247.99 342.52,247.34 343.46,246.61 344.41,245.80 345.35,244.91 346.30,243.97 347.24,242.97 348.19,241.92 349.13,240.83 350.08,239.71 351.03,238.58 351.97,237.44 352.92,236.31 353.86,235.19 354.81,234.10 355.75,233.06 356.70,232.06 357.64,231.13 358.59,230.27 359.53,229.49 360.48,228.81 361.42,228.23 362.37,227.76 363.32,227.40 364.26,227.17 365.21,227.06 366.15,227.09 367.10,227.24 368.04,227.52 368.99,227.94 369.93,229.54 370.88,231.67 371.82,233.93 372.77,236.30 373.71,238.76 374.66,241.27 375.61,243.79 376.55,246.29 377.50,248.74 378.44,251.10 379.39,253.37 380.33,254.77 381.28,255.25 382.22,255.62 383.17,255.87 384.11,256.01 385.06,256.03 386.00,255.94 386.95,255.72 387.89,255.39 388.84,254.94 389.79,254.37 390.73,253.70 391.68,252.91 392.62,252.03 393.57,251.06 394.51,250.01 395.46,248.88 396.40,247.70 397.35,246.46 398.29,245.18 399.24,243.88 400.18,242.56 401.13,241.24 402.08,239.93 403.02,238.64 403.97,237.38 404.91,236.16 405.86,234.99 406.80,233.88 407.75,232.84 408.69,231.88 409.64,231.00 410.58,230.20 411.53,229.50 412.47,228.90 413.42,228.40 414.37,228.00 415.31,227.70 416.26,227.51 417.20,227.42 418.15,227.43 419.09,227.54 420.04,227.75 420.98,228.05 421.93,228.44 422.87,228.92 423.82,229.48 424.76,230.11 425.71,230.81 426.66,231.57 427.60,232.38 428.55,233.24 429.49,234.14 430.44,235.06 431.38,236.01 432.33,236.96 433.27,237.92 434.22,238.88 435.16,239.82 436.11,240.74 437.05,241.62 438.00,242.47 438.95,243.27 439.89,244.02 440.84,244.71 441.78,245.34 442.73,245.30 443.67,244.29 444.62,243.17 445.56,241.98 446.51,240.71 447.45,239.41 448.40,238.09 449.34,236.79 450.29,235.52 451.24,234.30 452.18,233.14 453.13,232.24 454.07,232.80 455.02,233.41 455.96,234.06 456.91,234.75 457.85,235.47 458.80,236.23 459.74,237.01 460.69,237.82 461.63,238.66 462.58,239.53 463.53,240.42 464.47,241.33 465.42,242.25 466.36,243.19 467.31,244.14 468.25,245.08 469.20,246.03 470.14,246.96 471.09,247.87 472.03,248.76 472.98,249.61 473.92,250.41 474.87,251.17 475.82,251.86 476.76,252.47 477.71,253.01 478.65,253.46 479.60,253.81 480.54,254.05 481.49,254.18 482.43,254.19 483.38,254.08 484.32,253.83 485.27,253.46 486.21,252.95 487.16,252.31 488.11,251.54 489.05,250.63 490.00,249.60 490.94,248.46 491.89,247.20 492.83,245.84 493.78,244.39 494.72,242.86 495.67,241.27 496.61,239.62 497.56,237.94 498.50,236.24 499.45,234.54 500.39,232.85 501.34,231.21 502.29,229.61 503.23,228.09 504.18,226.66 505.12,225.34 506.07,224.14 507.01,223.08 507.96,222.18 508.90,221.45 509.85,220.89 510.79,220.53 511.74,220.36 512.68,220.39 513.63,220.62 514.58,221.20 515.52,223.34 516.47,225.70 517.41,228.26 518.36,231.00 519.30,233.88 520.25,236.86 521.19,239.90 522.14,242.96 523.08,246.00 524.03,248.98 524.97,251.88 525.92,253.49 526.87,254.57 527.81,255.54 528.76,256.40 529.70,257.12 530.65,257.71 531.59,258.15 532.54,258.43 533.48,258.57 534.43,258.54 535.37,258.34 536.32,257.99 537.26,257.48 538.21,256.82 539.16,256.02 540.10,255.08 541.05,254.01 541.99,252.83 542.94,251.55 543.88,250.18 544.83,248.75 545.77,247.25 546.72,245.71 547.66,244.15 548.61,242.58 549.55,241.01 550.50,239.47 551.45,237.95 552.39,236.48 553.34,235.08 554.28,233.74 555.23,232.48 556.17,231.31 557.12,230.24 558.06,229.28 559.01,228.42 559.95,227.69 560.90,227.07 561.84,226.58 562.79,226.21 563.74,225.96 564.68,225.84 565.63,225.84 566.57,225.97 567.52,226.20 568.46,226.56 569.41,227.01 570.35,227.57 571.30,228.23 572.24,228.97 573.19,229.78 574.13,230.67 575.08,231.61 576.03,232.61 576.97,233.64 577.92,234.70 578.86,235.78 579.81,236.86 580.75,237.94 581.70,239.00 582.64,240.03 583.59,241.03 584.53,241.98 585.48,242.88 586.42,243.71 587.37,244.40 588.32,243.54 589.26,242.56 590.21,241.50 591.15,240.35 592.10,239.14 593.04,237.90 593.99,236.67 594.93,235.46 595.88,234.28 596.82,233.18 597.77,232.15 598.71,232.39 599.66,233.13 600.61,233.93 601.55,234.77 602.50,235.65 603.44,236.57 604.39,237.53 605.33,238.52 606.28,239.54 607.22,240.59 608.17,241.67 609.11,242.78 610.06,243.90 611.00,245.04 611.95,246.18 612.89,247.32 613.84,248.45 614.79,249.56 615.73,250.64 616.68,251.68 617.62,252.67 618.57,253.58 619.51,254.42 620.46,255.17 621.40,255.82 622.35,256.35 623.29,256.75 624.24,257.02 625.18,257.14 626.13,257.11 627.08,256.91 628.02,256.55 628.97,256.02 629.91,255.32 630.86,254.45 631.80,253.41 632.75,252.20 633.69,250.84 634.64,249.33 635.58,247.68 636.53,245.91 637.47,244.03 638.42,242.06 639.37,240.01 640.31,237.92 641.26,235.79 642.20,233.65 643.15,231.52 644.09,229.43 645.04,227.41 645.98,225.47 646.93,223.65 647.87,221.96 648.82,220.42 649.76,219.07 650.71,217.91 651.66,216.96 652.60,216.25 653.55,215.77 654.49,215.55 655.44,215.59 656.38,215.89 657.33,216.46 658.27,217.29 659.22,218.37 660.16,220.68 661.11,223.82 662.05,227.20 663.00,230.78 663.95,234.51 664.89,238.36 665.84,242.25 666.78,246.15 667.73,249.99 668.67,253.74 669.62,257.35 670.56,260.34 671.51,261.91 672.45,263.28 673.40,264.44 674.34,265.39 675.29,266.10 676.24,266.59 677.18,266.82 678.13,266.81 679.07,266.56 680.02,266.06 680.96,265.32 681.91,264.35 682.85,263.17 683.80,261.78 684.74,260.20 685.69,258.45 686.63,256.56 687.58,254.54 688.53,252.42 689.47,250.21 690.42,247.95 691.36,245.65 692.31,243.35 693.25,241.06 694.20,238.80 695.14,236.60 696.09,234.47 697.03,232.43 697.98,230.51 698.92,228.71 699.87,227.05 700.82,225.54 701.76,224.19 702.71,223.01 703.65,222.01 704.60,221.18 705.54,220.54 706.49,220.08 707.43,219.81 708.38,219.71 709.32,219.80 710.27,220.06 711.21,220.48 712.16,221.07 713.11,221.81 714.05,222.69 715.00,223.70 715.94,224.82 716.89,226.05 717.83,227.37 718.78,228.77 719.72,230.23 720.67,231.74 721.61,233.27 722.56,234.82 723.50,236.37 724.45,237.91 725.39,239.41 726.34,240.86 727.29,242.26 728.23,243.58 729.18,244.82 730.12,245.97 731.07,247.01 732.01,247.94 732.96,247.50 733.90,246.57 734.85,245.50 735.79,244.32 736.74,243.05 737.68,241.70 738.63,240.34 739.58,238.97 740.52,237.64 741.47,236.36 742.41,235.16 743.36,234.88 744.30,235.54 745.25,236.26 746.19,237.04 747.14,237.87 748.08,238.74 749.03,239.65 749.97,240.60 750.92,241.58 751.87,242.60 752.81,243.64 753.76,244.70 754.70,245.77 755.65,246.84 756.59,247.90 757.54,248.94 758.48,249.95 759.43,250.91"/>
<line x1="828" y1="198" x2="856" y2="198" stroke="#258a45" stroke-width="3"/>
<text x="864" y="202" font-family="Arial" font-size="13">Mz aero</text>
</svg>