<svg xmlns="http://www.w3.org/2000/svg" width="920" height="520" viewBox="0 0 920 520">
<rect width="100%" height="100%" fill="white"/>
<text x="460" y="28" text-anchor="middle" font-family="Arial" font-size="20">Coupled Skeleton Ground Track</text>
<rect x="78" y="54" width="720" height="380" fill="#fafafa" stroke="#222"/>
<line x1="78" y1="434" x2="798" y2="434" stroke="#222"/>
<line x1="78" y1="54" x2="78" y2="434" stroke="#222"/>
<text x="438" y="492" text-anchor="middle" font-family="Arial" font-size="14">east (m)</text>
<text transform="translate(22,244) rotate(-90)" text-anchor="middle" font-family="Arial" font-size="14">north (m)</text>
<text x="78" y="456" text-anchor="middle" font-family="Arial" font-size="11">-3545.91</text>
<text x="798" y="456" text-anchor="middle" font-family="Arial" font-size="11">62644.46</text>
<text x="68" y="434" text-anchor="end" font-family="Arial" font-size="11">-110.82</text>
<text x="68" y="59" text-anchor="end" font-family="Arial" font-size="11">1957.81</text>
<polyline fill="none" stroke="#2f6fbb" stroke-width="2.2" points="116.57,413.64 117.52,413.64 118.47,413.64 119.43,413.64 120.38,413.64 121.33,413.64 122.28,413.64 123.23,413.64 124.18,413.64 125.14,413.64 126.09,413.64 127.04,413.63 127.99,413.63 128.94,413.63 129.89,413.62 130.84,413.62 131.80,413.61 132.75,413.60 133.70,413.60 134.65,413.59 135.60,413.58 136.55,413.57 137.50,413.56 138.45,413.55 139.41,413.53 140.36,413.52 141.31,413.50 142.26,413.49 143.21,413.47 144.16,413.45 145.11,413.43 146.06,413.41 147.02,413.38 147.97,413.36 148.92,413.33 149.87,413.31 150.82,413.28 151.77,413.25 152.72,413.22 153.67,413.18 154.62,413.15 155.57,413.12 156.53,413.08 157.48,413.04 158.43,413.00 159.38,412.96 160.33,412.92 161.28,412.88 162.23,412.83 163.18,412.79 164.13,412.74 165.08,412.69 166.03,412.64 166.98,412.58 167.93,412.53 168.89,412.47 169.84,412.42 170.79,412.36 171.74,412.29 172.69,412.23 173.64,412.17 174.59,412.10 175.54,412.03 176.49,411.96 177.44,411.89 178.39,411.81 179.34,411.73 180.29,411.66 181.24,411.58 182.19,411.49 183.14,411.41 184.09,411.32 185.04,411.23 185.99,411.14 186.95,411.05 187.90,410.95 188.85,410.85 189.80,410.75 190.75,410.65 191.70,410.54 192.65,410.44 193.60,410.33 194.55,410.22 195.50,410.11 196.45,409.99 197.40,409.87 198.35,409.75 199.30,409.63 200.25,409.51 201.20,409.38 202.15,409.26 203.10,409.13 204.05,408.99 205.00,408.86 205.95,408.73 206.90,408.59 207.85,408.45 208.80,408.31 209.75,408.17 210.70,408.02 211.65,407.87 212.60,407.72 213.55,407.57 214.50,407.42 215.45,407.27 216.40,407.11 217.35,406.95 218.30,406.79 219.25,406.63 220.20,406.47 221.15,406.30 222.09,406.13 223.04,405.97 223.99,405.79 224.94,405.62 225.89,405.45 226.84,405.27 227.79,405.09 228.74,404.91 229.69,404.73 230.64,404.54 231.59,404.36 232.54,404.17 233.49,403.98 234.44,403.79 235.39,403.60 236.34,403.41 237.29,403.21 238.24,403.01 239.19,402.82 240.14,402.62 241.08,402.42 242.03,402.22 242.98,402.01 243.93,401.81 244.88,401.61 245.83,401.40 246.78,401.20 247.73,400.99 248.68,400.78 249.63,400.57 250.58,400.36 251.53,400.16 252.47,399.95 253.42,399.74 254.37,399.53 255.32,399.31 256.27,399.10 257.22,398.89 258.17,398.68 259.12,398.47 260.07,398.25 261.02,398.04 261.97,397.83 262.91,397.62 263.86,397.40 264.81,397.19 265.76,396.98 266.71,396.76 267.66,396.55 268.61,396.33 269.56,396.12 270.50,395.90 271.45,395.69 272.40,395.47 273.35,395.25 274.30,395.04 275.25,394.82 276.20,394.60 277.15,394.38 278.09,394.16 279.04,393.94 279.99,393.72 280.94,393.50 281.89,393.28 282.84,393.06 283.79,392.83 284.73,392.61 285.68,392.38 286.63,392.15 287.58,391.93 288.53,391.70 289.48,391.47 290.43,391.24 291.37,391.00 292.32,390.77 293.27,390.54 294.22,390.30 295.17,390.06 296.12,389.82 297.06,389.58 298.01,389.34 298.96,389.10 299.91,388.86 300.86,388.61 301.81,388.36 302.75,388.12 303.70,387.87 304.65,387.61 305.60,387.36 306.55,387.11 307.49,386.85 308.44,386.59 309.39,386.33 310.34,386.07 311.29,385.81 312.23,385.54 313.18,385.27 314.13,385.01 315.08,384.73 316.03,384.46 316.97,384.19 317.92,383.91 318.87,383.63 319.82,383.35 320.77,383.06 321.71,382.78 322.66,382.49 323.61,382.20 324.56,381.91 325.51,381.61 326.45,381.31 327.40,381.01 328.35,380.71 329.30,380.41 330.24,380.10 331.19,379.79 332.14,379.48 333.09,379.17 334.03,378.85 334.98,378.53 335.93,378.21 336.88,377.88 337.82,377.56 338.77,377.23 339.72,376.90 340.67,376.56 341.61,376.23 342.56,375.89 343.51,375.55 344.46,375.21 345.40,374.86 346.35,374.51 347.30,374.16 348.25,373.81 349.19,373.46 350.14,373.10 351.09,372.74 352.03,372.38 352.98,372.01 353.93,371.65 354.88,371.28 355.82,370.91 356.77,370.54 357.72,370.17 358.66,369.79 359.61,369.41 360.56,369.03 361.51,368.65 362.45,368.27 363.40,367.88 364.35,367.49 365.29,367.10 366.24,366.71 367.19,366.32 368.13,365.92 369.08,365.52 370.03,365.13 370.98,364.72 371.92,364.32 372.87,363.92 373.82,363.51 374.76,363.10 375.71,362.69 376.66,362.28 377.60,361.87 378.55,361.45 379.50,361.03 380.44,360.61 381.39,360.19 382.34,359.77 383.28,359.35 384.23,358.92 385.18,358.50 386.12,358.07 387.07,357.64 388.02,357.21 388.96,356.77 389.91,356.34 390.85,355.90 391.80,355.47 392.75,355.03 393.69,354.59 394.64,354.15 395.59,353.71 396.53,353.27 397.48,352.83 398.43,352.39 399.37,351.94 400.32,351.50 401.26,351.05 402.21,350.61 403.16,350.16 404.10,349.71 405.05,349.26 406.00,348.82 406.94,348.37 407.89,347.92 408.83,347.47 409.78,347.02 410.73,346.57 411.67,346.12 412.62,345.66 413.56,345.21 414.51,344.76 415.46,344.31 416.40,343.85 417.35,343.40 418.29,342.94 419.24,342.49 420.19,342.03 421.13,341.58 422.08,341.12 423.02,340.66 423.97,340.21 424.92,339.75 425.86,339.29 426.81,338.83 427.75,338.37 428.70,337.91 429.65,337.45 430.59,336.98 431.54,336.52 432.48,336.05 433.43,335.59 434.37,335.12 435.32,334.65 436.27,334.19 437.21,333.72 438.16,333.24 439.10,332.77 440.05,332.30 440.99,331.83 441.94,331.35 442.88,330.87 443.83,330.39 444.78,329.92 445.72,329.43 446.67,328.95 447.61,328.47 448.56,327.98 449.50,327.50 450.45,327.01 451.39,326.52 452.34,326.03 453.28,325.53 454.23,325.04 455.17,324.54 456.12,324.04 457.06,323.54 458.01,323.04 458.96,322.54 459.90,322.03 460.85,321.52 461.79,321.01 462.74,320.50 463.68,319.98 464.63,319.47 465.57,318.95 466.52,318.43 467.46,317.90 468.41,317.38 469.35,316.85 470.30,316.32 471.24,315.79 472.19,315.25 473.13,314.71 474.08,314.17 475.02,313.63 475.97,313.08 476.91,312.54 477.86,311.99 478.80,311.43 479.74,310.88 480.69,310.32 481.63,309.76 482.58,309.20 483.52,308.63 484.47,308.06 485.41,307.49 486.36,306.92 487.30,306.35 488.25,305.77 489.19,305.19 490.14,304.60 491.08,304.02 492.02,303.43 492.97,302.84 493.91,302.25 494.86,301.65 495.80,301.06 496.75,300.46 497.69,299.86 498.64,299.25 499.58,298.65 500.52,298.04 501.47,297.43 502.41,296.82 503.36,296.21 504.30,295.59 505.24,294.97 506.19,294.35 507.13,293.73 508.08,293.11 509.02,292.48 509.97,291.85 510.91,291.23 511.85,290.59 512.80,289.96 513.74,289.33 514.69,288.69 515.63,288.05 516.57,287.41 517.52,286.77 518.46,286.13 519.41,285.48 520.35,284.83 521.29,284.18 522.24,283.53 523.18,282.88 524.12,282.23 525.07,281.57 526.01,280.91 526.96,280.25 527.90,279.59 528.84,278.93 529.79,278.26 530.73,277.60 531.67,276.93 532.62,276.26 533.56,275.59 534.50,274.92 535.45,274.24 536.39,273.57 537.33,272.89 538.28,272.21 539.22,271.54 540.17,270.86 541.11,270.17 542.05,269.49 543.00,268.81 543.94,268.13 544.88,267.44 545.83,266.76 546.77,266.07 547.71,265.38 548.66,264.70 549.60,264.01 550.54,263.32 551.48,262.63 552.43,261.94 553.37,261.25 554.31,260.56 555.26,259.87 556.20,259.17 557.14,258.48 558.09,257.79 559.03,257.09 559.97,256.40 560.92,255.71 561.86,255.01 562.80,254.32 563.75,253.62 564.69,252.93 565.63,252.23 566.57,251.53 567.52,250.84 568.46,250.14 569.40,249.44 570.35,248.74 571.29,248.04 572.23,247.34 573.17,246.64 574.12,245.94 575.06,245.24 576.00,244.53 576.95,243.83 577.89,243.12 578.83,242.42 579.77,241.71 580.72,241.00 581.66,240.29 582.60,239.58 583.54,238.87 584.49,238.16 585.43,237.45 586.37,236.73 587.31,236.02 588.26,235.30 589.20,234.58 590.14,233.86 591.08,233.14 592.03,232.42 592.97,231.69 593.91,230.97 594.85,230.24 595.80,229.51 596.74,228.78 597.68,228.05 598.62,227.31 599.57,226.58 600.51,225.84 601.45,225.10 602.39,224.36 603.33,223.61 604.28,222.87 605.22,222.12 606.16,221.37 607.10,220.62 608.05,219.86 608.99,219.11 609.93,218.35 610.87,217.59 611.81,216.82 612.76,216.06 613.70,215.29 614.64,214.52 615.58,213.74 616.52,212.97 617.47,212.19 618.41,211.41 619.35,210.62 620.29,209.84 621.23,209.05 622.17,208.26 623.12,207.46 624.06,206.67 625.00,205.87 625.94,205.06 626.88,204.26 627.82,203.45 628.77,202.64 629.71,201.83 630.65,201.02 631.59,200.20 632.53,199.38 633.47,198.56 634.41,197.73 635.36,196.90 636.30,196.08 637.24,195.24 638.18,194.41 639.12,193.57 640.06,192.73 641.00,191.89 641.94,191.05 642.89,190.20 643.83,189.36 644.77,188.51 645.71,187.65 646.65,186.80 647.59,185.94 648.53,185.09 649.47,184.23 650.41,183.36 651.36,182.50 652.30,181.64 653.24,180.77 654.18,179.90 655.12,179.03 656.06,178.15 657.00,177.28 657.94,176.40 658.88,175.52 659.82,174.64 660.76,173.76 661.71,172.87 662.65,171.99 663.59,171.10 664.53,170.21 665.47,169.32 666.41,168.42 667.35,167.52 668.29,166.63 669.23,165.73 670.17,164.82 671.11,163.92 672.05,163.01 672.99,162.10 673.93,161.20 674.87,160.28 675.81,159.37 676.75,158.46 677.69,157.54 678.63,156.62 679.57,155.70 680.51,154.78 681.46,153.86 682.40,152.93 683.34,152.01 684.28,151.08 685.22,150.16 686.16,149.23 687.10,148.30 688.04,147.37 688.98,146.44 689.92,145.51 690.86,144.57 691.80,143.64 692.74,142.71 693.68,141.77 694.62,140.84 695.56,139.90 696.50,138.97 697.44,138.03 698.38,137.10 699.32,136.16 700.26,135.22 701.20,134.28 702.14,133.35 703.08,132.41 704.02,131.47 704.96,130.53 705.90,129.59 706.84,128.65 707.78,127.71 708.71,126.78 709.65,125.83 710.59,124.89 711.53,123.95 712.47,123.01 713.41,122.07 714.35,121.13 715.29,120.18 716.23,119.24 717.17,118.29 718.11,117.35 719.05,116.40 719.99,115.46 720.93,114.51 721.87,113.56 722.81,112.61 723.75,111.66 724.69,110.71 725.63,109.75 726.57,108.80 727.51,107.84 728.44,106.89 729.38,105.93 730.32,104.97 731.26,104.01 732.20,103.05 733.14,102.08 734.08,101.12 735.02,100.15 735.96,99.18 736.90,98.21 737.84,97.24 738.78,96.27 739.71,95.29 740.65,94.32 741.59,93.34 742.53,92.36 743.47,91.38 744.41,90.39 745.35,89.41 746.29,88.42 747.23,87.43 748.16,86.44 749.10,85.44 750.04,84.45 750.98,83.45 751.92,82.45 752.86,81.45 753.80,80.44 754.74,79.43 755.67,78.42 756.61,77.41 757.55,76.39 758.49,75.38 759.43,74.36"/>
<line x1="828" y1="78" x2="856" y2="78" stroke="#2f6fbb" stroke-width="3"/>
<text x="864" y="82" font-family="Arial" font-size="13">vehicle</text>
</svg>