<svg xmlns="http://www.w3.org/2000/svg" width="920" height="520" viewBox="0 0 920 520">
<rect width="100%" height="100%" fill="white"/>
<text x="460" y="28" text-anchor="middle" font-family="Arial" font-size="20">Coupled Skeleton Allocation Residual</text>
<rect x="78" y="54" width="720" height="380" fill="#fafafa" stroke="#222"/>
<line x1="78" y1="434" x2="798" y2="434" stroke="#222"/>
<line x1="78" y1="54" x2="78" y2="434" stroke="#222"/>
<text x="438" y="492" text-anchor="middle" font-family="Arial" font-size="14">time (s)</text>
<text transform="translate(22,244) rotate(-90)" text-anchor="middle" font-family="Arial" font-size="14">residual norm (N m)</text>
<text x="78" y="456" text-anchor="middle" font-family="Arial" font-size="11">-2.04</text>
<text x="798" y="456" text-anchor="middle" font-family="Arial" font-size="11">36.04</text>
<text x="68" y="434" text-anchor="end" font-family="Arial" font-size="11">-83.48</text>
<text x="68" y="59" text-anchor="end" font-family="Arial" font-size="11">1478.44</text>
<polyline fill="none" stroke="#c23b3b" stroke-width="2.2" points="116.57,74.36 117.52,413.38 118.46,413.38 119.41,413.38 120.35,413.38 121.30,413.38 122.24,413.38 123.19,413.38 124.13,413.38 125.08,413.38 126.03,413.37 126.97,413.37 127.92,413.36 128.86,413.36 129.81,413.35 130.75,413.34 131.70,413.34 132.64,413.33 133.59,413.32 134.53,413.31 135.48,413.31 136.42,413.30 137.37,413.29 138.32,413.29 139.26,413.29 140.21,413.28 141.15,413.28 142.10,413.28 143.04,413.28 143.99,413.28 144.93,413.28 145.88,413.29 146.82,413.29 147.77,413.29 148.71,413.30 149.66,413.34 150.61,413.40 151.55,413.45 152.50,413.50 153.44,413.55 154.39,413.58 155.33,413.57 156.28,413.54 157.22,413.49 158.17,413.44 159.11,413.39 160.06,413.38 161.00,413.38 161.95,413.38 162.89,413.38 163.84,413.38 164.79,413.38 165.73,413.38 166.68,413.38 167.62,413.38 168.57,413.38 169.51,413.38 170.46,413.37 171.40,413.37 172.35,413.37 173.29,413.37 174.24,413.37 175.18,413.37 176.13,413.36 177.08,413.36 178.02,413.36 178.97,413.36 179.91,413.35 180.86,413.35 181.80,413.35 182.75,413.35 183.69,413.35 184.64,413.35 185.58,413.35 186.53,413.35 187.47,413.35 188.42,413.35 189.37,413.35 190.31,413.35 191.26,413.35 192.20,413.35 193.15,413.35 194.09,413.35 195.04,413.35 195.98,413.36 196.93,413.36 197.87,413.36 198.82,413.36 199.76,413.36 200.71,413.36 201.66,413.36 202.60,413.36 203.55,413.36 204.49,413.36 205.44,413.36 206.38,413.36 207.33,413.36 208.27,413.37 209.22,413.37 210.16,413.37 211.11,413.37 212.05,413.37 213.00,413.37 213.95,413.37 214.89,413.37 215.84,413.37 216.78,413.37 217.73,413.37 218.67,413.37 219.62,413.37 220.56,413.37 221.51,413.37 222.45,413.37 223.40,413.41 224.34,413.46 225.29,413.50 226.24,413.54 227.18,413.55 228.13,413.54 229.07,413.50 230.02,413.46 230.96,413.41 231.91,413.35 232.85,413.30 233.80,413.28 234.74,413.28 235.69,413.27 236.63,413.27 237.58,413.28 238.53,413.28 239.47,413.28 240.42,413.28 241.36,413.28 242.31,413.29 243.25,413.29 244.20,413.30 245.14,413.30 246.09,413.31 247.03,413.32 247.98,413.32 248.92,413.33 249.87,413.34 250.82,413.34 251.76,413.35 252.71,413.35 253.65,413.36 254.60,413.36 255.54,413.37 256.49,413.37 257.43,413.38 258.38,413.38 259.32,413.38 260.27,413.38 261.21,413.38 262.16,413.38 263.11,413.38 264.05,413.38 265.00,413.38 265.94,413.38 266.89,413.38 267.83,413.38 268.78,413.38 269.72,413.38 270.67,413.38 271.61,413.38 272.56,413.38 273.50,413.38 274.45,413.38 275.39,413.38 276.34,413.37 277.29,413.37 278.23,413.37 279.18,413.36 280.12,413.36 281.07,413.36 282.01,413.36 282.96,413.35 283.90,413.35 284.85,413.34 285.79,413.34 286.74,413.34 287.68,413.34 288.63,413.33 289.58,413.33 290.52,413.33 291.47,413.33 292.41,413.33 293.36,413.32 294.30,413.32 295.25,413.32 296.19,413.32 297.14,413.36 298.08,413.41 299.03,413.46 299.97,413.50 300.92,413.54 301.87,413.56 302.81,413.56 303.76,413.53 304.70,413.49 305.65,413.44 306.59,413.39 307.54,413.37 308.48,413.37 309.43,413.37 310.37,413.37 311.32,413.37 312.26,413.37 313.21,413.38 314.16,413.38 315.10,413.38 316.05,413.38 316.99,413.38 317.94,413.38 318.88,413.38 319.83,413.38 320.77,413.38 321.72,413.37 322.66,413.37 323.61,413.37 324.55,413.37 325.50,413.37 326.45,413.37 327.39,413.37 328.34,413.37 329.28,413.36 330.23,413.36 331.17,413.36 332.12,413.36 333.06,413.36 334.01,413.36 334.95,413.36 335.90,413.36 336.84,413.35 337.79,413.35 338.74,413.35 339.68,413.35 340.63,413.35 341.57,413.35 342.52,413.35 343.46,413.35 344.41,413.36 345.35,413.36 346.30,413.36 347.24,413.36 348.19,413.36 349.13,413.36 350.08,413.36 351.03,413.36 351.97,413.36 352.92,413.36 353.86,413.36 354.81,413.36 355.75,413.36 356.70,413.36 357.64,413.36 358.59,413.36 359.53,413.36 360.48,413.36 361.42,413.36 362.37,413.36 363.32,413.36 364.26,413.36 365.21,413.36 366.15,413.36 367.10,413.36 368.04,413.36 368.99,413.37 369.93,413.40 370.88,413.46 371.82,413.51 372.77,413.56 373.71,413.60 374.66,413.60 375.61,413.57 376.55,413.52 377.50,413.47 378.44,413.41 379.39,413.35 380.33,413.32 381.28,413.32 382.22,413.31 383.17,413.31 384.11,413.31 385.06,413.31 386.00,413.30 386.95,413.30 387.89,413.30 388.84,413.30 389.79,413.30 390.73,413.30 391.68,413.30 392.62,413.30 393.57,413.31 394.51,413.31 395.46,413.31 396.40,413.32 397.35,413.32 398.29,413.32 399.24,413.33 400.18,413.33 401.13,413.34 402.08,413.34 403.02,413.35 403.97,413.35 404.91,413.36 405.86,413.36 406.80,413.37 407.75,413.37 408.69,413.37 409.64,413.37 410.58,413.38 411.53,413.38 412.47,413.38 413.42,413.38 414.37,413.38 415.31,413.38 416.26,413.38 417.20,413.38 418.15,413.38 419.09,413.38 420.04,413.38 420.98,413.38 421.93,413.38 422.87,413.38 423.82,413.38 424.76,413.38 425.71,413.37 426.66,413.37 427.60,413.37 428.55,413.37 429.49,413.36 430.44,413.36 431.38,413.36 432.33,413.35 433.27,413.35 434.22,413.35 435.16,413.34 436.11,413.34 437.05,413.34 438.00,413.34 438.95,413.34 439.89,413.33 440.84,413.33 441.78,413.33 442.73,413.35 443.67,413.40 444.62,413.44 445.56,413.49 446.51,413.53 447.45,413.55 448.40,413.55 449.34,413.53 450.29,413.50 451.24,413.45 452.18,413.41 453.13,413.36 454.07,413.37 455.02,413.37 455.96,413.37 456.91,413.37 457.85,413.37 458.80,413.37 459.74,413.38 460.69,413.38 461.63,413.38 462.58,413.38 463.53,413.38 464.47,413.38 465.42,413.38 466.36,413.38 467.31,413.38 468.25,413.38 469.20,413.38 470.14,413.38 471.09,413.38 472.03,413.37 472.98,413.37 473.92,413.37 474.87,413.37 475.82,413.37 476.76,413.36 477.71,413.36 478.65,413.36 479.60,413.36 480.54,413.36 481.49,413.35 482.43,413.35 483.38,413.35 484.32,413.35 485.27,413.35 486.21,413.35 487.16,413.35 488.11,413.35 489.05,413.35 490.00,413.35 490.94,413.35 491.89,413.35 492.83,413.35 493.78,413.35 494.72,413.35 495.67,413.35 496.61,413.35 497.56,413.36 498.50,413.36 499.45,413.36 500.39,413.36 501.34,413.36 502.29,413.36 503.23,413.36 504.18,413.36 505.12,413.36 506.07,413.35 507.01,413.35 507.96,413.35 508.90,413.35 509.85,413.35 510.79,413.35 511.74,413.35 512.68,413.35 513.63,413.35 514.58,413.36 515.52,413.41 516.47,413.47 517.41,413.52 518.36,413.58 519.30,413.63 520.25,413.63 521.19,413.59 522.14,413.53 523.08,413.47 524.03,413.41 524.97,413.35 525.92,413.33 526.87,413.33 527.81,413.32 528.76,413.31 529.70,413.31 530.65,413.30 531.59,413.30 532.54,413.30 533.48,413.29 534.43,413.29 535.37,413.29 536.32,413.29 537.26,413.29 538.21,413.29 539.16,413.29 540.10,413.29 541.05,413.29 541.99,413.30 542.94,413.30 543.88,413.31 544.83,413.31 545.77,413.32 546.72,413.33 547.66,413.33 548.61,413.34 549.55,413.35 550.50,413.35 551.45,413.36 552.39,413.36 553.34,413.37 554.28,413.37 555.23,413.38 556.17,413.38 557.12,413.38 558.06,413.38 559.01,413.38 559.95,413.39 560.90,413.39 561.84,413.39 562.79,413.39 563.74,413.39 564.68,413.39 565.63,413.39 566.57,413.39 567.52,413.38 568.46,413.38 569.41,413.38 570.35,413.38 571.30,413.38 572.24,413.37 573.19,413.37 574.13,413.37 575.08,413.36 576.03,413.36 576.97,413.36 577.92,413.35 578.86,413.35 579.81,413.35 580.75,413.34 581.70,413.34 582.64,413.34 583.59,413.34 584.53,413.34 585.48,413.33 586.42,413.33 587.37,413.33 588.32,413.38 589.26,413.43 590.21,413.47 591.15,413.52 592.10,413.55 593.04,413.56 593.99,413.55 594.93,413.52 595.88,413.48 596.82,413.43 597.77,413.38 598.71,413.37 599.66,413.37 600.61,413.37 601.55,413.38 602.50,413.38 603.44,413.38 604.39,413.38 605.33,413.38 606.28,413.38 607.22,413.38 608.17,413.38 609.11,413.38 610.06,413.38 611.00,413.38 611.95,413.38 612.89,413.38 613.84,413.38 614.79,413.38 615.73,413.38 616.68,413.37 617.62,413.37 618.57,413.37 619.51,413.37 620.46,413.36 621.40,413.36 622.35,413.36 623.29,413.35 624.24,413.35 625.18,413.35 626.13,413.35 627.08,413.35 628.02,413.34 628.97,413.34 629.91,413.34 630.86,413.34 631.80,413.34 632.75,413.34 633.69,413.35 634.64,413.35 635.58,413.35 636.53,413.35 637.47,413.35 638.42,413.35 639.37,413.35 640.31,413.36 641.26,413.36 642.20,413.36 643.15,413.36 644.09,413.36 645.04,413.36 645.98,413.36 646.93,413.35 647.87,413.35 648.82,413.35 649.76,413.35 650.71,413.35 651.66,413.35 652.60,413.35 653.55,413.34 654.49,413.34 655.44,413.34 656.38,413.35 657.33,413.35 658.27,413.35 659.22,413.35 660.16,413.39 661.11,413.44 662.05,413.50 663.00,413.56 663.95,413.62 664.89,413.64 665.84,413.60 666.78,413.54 667.73,413.48 668.67,413.42 669.62,413.36 670.56,413.31 671.51,413.30 672.45,413.30 673.40,413.29 674.34,413.28 675.29,413.27 676.24,413.27 677.18,413.26 678.13,413.26 679.07,413.26 680.02,413.26 680.96,413.26 681.91,413.26 682.85,413.26 683.80,413.27 684.74,413.27 685.69,413.28 686.63,413.29 687.58,413.30 688.53,413.30 689.47,413.31 690.42,413.32 691.36,413.33 692.31,413.34 693.25,413.35 694.20,413.36 695.14,413.36 696.09,413.37 697.03,413.38 697.98,413.38 698.92,413.38 699.87,413.39 700.82,413.39 701.76,413.39 702.71,413.39 703.65,413.39 704.60,413.39 705.54,413.39 706.49,413.39 707.43,413.39 708.38,413.39 709.32,413.39 710.27,413.39 711.21,413.39 712.16,413.39 713.11,413.38 714.05,413.38 715.00,413.38 715.94,413.38 716.89,413.37 717.83,413.37 718.78,413.37 719.72,413.36 720.67,413.36 721.61,413.35 722.56,413.35 723.50,413.35 724.45,413.34 725.39,413.34 726.34,413.34 727.29,413.33 728.23,413.33 729.18,413.33 730.12,413.33 731.07,413.33 732.01,413.33 732.96,413.37 733.90,413.42 734.85,413.47 735.79,413.51 736.74,413.55 737.68,413.58 738.63,413.57 739.58,413.55 740.52,413.50 741.47,413.45 742.41,413.40 743.36,413.38 744.30,413.38 745.25,413.38 746.19,413.38 747.14,413.38 748.08,413.38 749.03,413.38 749.97,413.39 750.92,413.39 751.87,413.39 752.81,413.39 753.76,413.38 754.70,413.38 755.65,413.38 756.59,413.38 757.54,413.38 758.48,413.38 759.43,413.38"/>
<line x1="828" y1="78" x2="856" y2="78" stroke="#c23b3b" stroke-width="3"/>
<text x="864" y="82" font-family="Arial" font-size="13">residual</text>
</svg>