<svg xmlns="http://www.w3.org/2000/svg" width="920" height="520" viewBox="0 0 920 520">
<rect width="100%" height="100%" fill="white"/>
<text x="460" y="28" text-anchor="middle" font-family="Arial" font-size="20">Coupled Skeleton Aero Angles</text>
<rect x="78" y="54" width="720" height="380" fill="#fafafa" stroke="#222"/>
<line x1="78" y1="434" x2="798" y2="434" stroke="#222"/>
<line x1="78" y1="54" x2="78" y2="434" stroke="#222"/>
<text x="438" y="492" text-anchor="middle" font-family="Arial" font-size="14">time (s)</text>
<text transform="translate(22,244) rotate(-90)" text-anchor="middle" font-family="Arial" font-size="14">angle (rad)</text>
<text x="78" y="456" text-anchor="middle" font-family="Arial" font-size="11">-2.04</text>
<text x="798" y="456" text-anchor="middle" font-family="Arial" font-size="11">36.04</text>
<text x="68" y="434" text-anchor="end" font-family="Arial" font-size="11">-0.00</text>
<text x="68" y="59" text-anchor="end" font-family="Arial" font-size="11">0.06</text>
<polyline fill="none" stroke="#2f6fbb" stroke-width="2.2" points="116.57,195.51 117.52,194.67 118.46,193.57 119.41,191.99 120.35,189.76 121.30,186.85 122.24,183.26 123.19,179.03 124.13,174.22 125.08,168.91 126.03,163.19 126.97,157.15 127.92,150.91 128.86,144.56 129.81,138.22 130.75,131.97 131.70,125.93 132.64,120.19 133.59,114.83 134.53,109.94 135.48,105.58 136.42,101.82 137.37,98.71 138.32,96.28 139.26,94.55 140.21,93.54 141.15,93.25 142.10,93.66 143.04,94.75 143.99,96.48 144.93,98.80 145.88,101.66 146.82,104.99 147.77,108.72 148.71,112.77 149.66,117.07 150.61,121.52 151.55,126.06 152.50,130.59 153.44,135.04 154.39,139.36 155.33,143.46 156.28,147.30 157.22,150.83 158.17,154.01 159.11,156.80 160.06,159.18 161.00,161.14 161.95,162.66 162.89,163.74 163.84,164.38 164.79,164.58 165.73,164.36 166.68,163.72 167.62,162.71 168.57,161.33 169.51,159.62 170.46,157.62 171.40,155.37 172.35,152.89 173.29,150.24 174.24,147.45 175.18,144.56 176.13,141.62 177.08,138.66 178.02,135.72 178.97,132.84 179.91,130.05 180.86,127.38 181.80,124.86 182.75,122.52 183.69,120.38 184.64,118.45 185.58,116.76 186.53,115.32 187.47,114.14 188.42,113.23 189.37,112.59 190.31,112.22 191.26,112.12 192.20,112.29 193.15,112.72 194.09,113.41 195.04,114.33 195.98,115.49 196.93,116.86 197.87,118.43 198.82,120.17 199.76,122.08 200.71,124.13 201.66,126.30 202.60,128.56 203.55,130.89 204.49,133.26 205.44,135.66 206.38,138.05 207.33,140.42 208.27,142.73 209.22,144.95 210.16,147.08 211.11,149.07 212.05,150.92 213.00,152.59 213.95,154.06 214.89,155.33 215.84,156.36 216.78,157.16 217.73,157.70 218.67,157.97 219.62,157.98 220.56,157.71 221.51,157.16 222.45,156.35 223.40,155.27 224.34,153.94 225.29,152.36 226.24,150.54 227.18,148.50 228.13,146.25 229.07,143.80 230.02,141.19 230.96,138.43 231.91,135.56 232.85,132.61 233.80,129.62 234.74,126.62 235.69,123.67 236.63,120.81 237.58,118.08 238.53,115.55 239.47,113.24 240.42,111.21 241.36,109.49 242.31,108.11 243.25,107.09 244.20,106.47 245.14,106.24 246.09,106.42 247.03,107.00 247.98,107.98 248.92,109.34 249.87,111.05 250.82,113.10 251.76,115.44 252.71,118.04 253.65,120.86 254.60,123.84 255.54,126.94 256.49,130.11 257.43,133.30 258.38,136.45 259.32,139.52 260.27,142.45 261.21,145.20 262.16,147.73 263.11,149.99 264.05,151.96 265.00,153.61 265.94,154.92 266.89,155.86 267.83,156.43 268.78,156.62 269.72,156.44 270.67,155.90 271.61,155.02 272.56,153.80 273.50,152.29 274.45,150.50 275.39,148.49 276.34,146.27 277.29,143.90 278.23,141.42 279.18,138.87 280.12,136.30 281.07,133.75 282.01,131.27 282.96,128.88 283.90,126.65 284.85,124.59 285.79,122.73 286.74,121.12 287.68,119.76 288.63,118.67 289.58,117.87 290.52,117.36 291.47,117.14 292.41,117.21 293.36,117.55 294.30,118.14 295.25,118.98 296.19,120.04 297.14,121.28 298.08,122.68 299.03,124.21 299.97,125.83 300.92,127.53 301.87,129.27 302.81,131.04 303.76,132.79 304.70,134.52 305.65,136.20 306.59,137.81 307.54,139.35 308.48,140.79 309.43,142.13 310.37,143.34 311.32,144.43 312.26,145.36 313.21,146.14 314.16,146.75 315.10,147.19 316.05,147.44 316.99,147.52 317.94,147.40 318.88,147.11 319.83,146.64 320.77,146.00 321.72,145.19 322.66,144.23 323.61,143.13 324.55,141.89 325.50,140.54 326.45,139.09 327.39,137.55 328.34,135.93 329.28,134.27 330.23,132.56 331.17,130.83 332.12,129.10 333.06,127.38 334.01,125.68 334.95,124.03 335.90,122.44 336.84,120.93 337.79,119.51 338.74,118.19 339.68,116.99 340.63,115.93 341.57,115.01 342.52,114.24 343.46,113.65 344.41,113.22 345.35,112.98 346.30,112.93 347.24,113.07 348.19,113.40 349.13,113.93 350.08,114.65 351.03,115.56 351.97,116.65 352.92,117.92 353.86,119.36 354.81,120.95 355.75,122.69 356.70,124.55 357.64,126.52 358.59,128.57 359.53,130.70 360.48,132.87 361.42,135.05 362.37,137.23 363.32,139.38 364.26,141.47 365.21,143.48 366.15,145.37 367.10,147.12 368.04,148.71 368.99,150.11 369.93,151.29 370.88,152.25 371.82,152.95 372.77,153.37 373.71,153.49 374.66,153.31 375.61,152.79 376.55,151.94 377.50,150.76 378.44,149.25 379.39,147.42 380.33,145.29 381.28,142.90 382.22,140.27 383.17,137.44 384.11,134.47 385.06,131.40 386.00,128.29 386.95,125.20 387.89,122.18 388.84,119.28 389.79,116.56 390.73,114.06 391.68,111.83 392.62,109.91 393.57,108.33 394.51,107.11 395.46,106.28 396.40,105.85 397.35,105.82 398.29,106.20 399.24,106.97 400.18,108.12 401.13,109.62 402.08,111.45 403.02,113.58 403.97,115.95 404.91,118.54 405.86,121.29 406.80,124.15 407.75,127.08 408.69,130.02 409.64,132.92 410.58,135.73 411.53,138.41 412.47,140.91 413.42,143.19 414.37,145.21 415.31,146.95 416.26,148.37 417.20,149.47 418.15,150.22 419.09,150.61 420.04,150.66 420.98,150.35 421.93,149.72 422.87,148.76 423.82,147.51 424.76,145.99 425.71,144.24 426.66,142.28 427.60,140.16 428.55,137.92 429.49,135.61 430.44,133.25 431.38,130.90 432.33,128.59 433.27,126.37 434.22,124.27 435.16,122.33 436.11,120.58 437.05,119.03 438.00,117.72 438.95,116.66 439.89,115.86 440.84,115.33 441.78,115.06 442.73,115.06 443.67,115.31 444.62,115.81 445.56,116.53 446.51,117.47 447.45,118.60 448.40,119.91 449.34,121.38 450.29,122.98 451.24,124.70 452.18,126.52 453.13,128.40 454.07,130.33 455.02,132.29 455.96,134.24 456.91,136.17 457.85,138.02 458.80,139.79 459.74,141.43 460.69,142.93 461.63,144.25 462.58,145.38 463.53,146.29 464.47,146.97 465.42,147.41 466.36,147.60 467.31,147.53 468.25,147.19 469.20,146.60 470.14,145.76 471.09,144.66 472.03,143.33 472.98,141.78 473.92,140.02 474.87,138.08 475.82,135.97 476.76,133.71 477.71,131.34 478.65,128.88 479.60,126.35 480.54,123.79 481.49,121.23 482.43,118.68 483.38,116.19 484.32,113.79 485.27,111.49 486.21,109.33 487.16,107.34 488.11,105.55 489.05,103.97 490.00,102.63 490.94,101.54 491.89,100.74 492.83,100.22 493.78,100.01 494.72,100.11 495.67,100.52 496.61,101.26 497.56,102.31 498.50,103.68 499.45,105.35 500.39,107.30 501.34,109.53 502.29,112.02 503.23,114.72 504.18,117.63 505.12,120.70 506.07,123.90 507.01,127.20 507.96,130.55 508.90,133.91 509.85,137.23 510.79,140.48 511.74,143.61 512.68,146.57 513.63,149.31 514.58,151.81 515.52,154.01 516.47,155.87 517.41,157.36 518.36,158.45 519.30,159.09 520.25,159.26 521.19,158.94 522.14,158.12 523.08,156.79 524.03,154.97 524.97,152.66 525.92,149.90 526.87,146.72 527.81,143.17 528.76,139.30 529.70,135.20 530.65,130.91 531.59,126.54 532.54,122.14 533.48,117.80 534.43,113.60 535.37,109.61 536.32,105.91 537.26,102.55 538.21,99.60 539.16,97.10 540.10,95.10 541.05,93.63 541.99,92.71 542.94,92.35 543.88,92.56 544.83,93.33 545.77,94.64 546.72,96.45 547.66,98.73 548.61,101.44 549.55,104.52 550.50,107.91 551.45,111.54 552.39,115.35 553.34,119.27 554.28,123.22 555.23,127.13 556.17,130.93 557.12,134.56 558.06,137.95 559.01,141.04 559.95,143.78 560.90,146.14 561.84,148.06 562.79,149.53 563.74,150.52 564.68,151.03 565.63,151.05 566.57,150.59 567.52,149.67 568.46,148.32 569.41,146.56 570.35,144.44 571.30,142.01 572.24,139.30 573.19,136.39 574.13,133.32 575.08,130.15 576.03,126.96 576.97,123.78 577.92,120.69 578.86,117.74 579.81,114.98 580.75,112.45 581.70,110.20 582.64,108.26 583.59,106.66 584.53,105.41 585.48,104.54 586.42,104.04 587.37,103.91 588.32,104.15 589.26,104.74 590.21,105.66 591.15,106.88 592.10,108.38 593.04,110.14 593.99,112.11 594.93,114.27 595.88,116.58 596.82,119.00 597.77,121.51 598.71,124.05 599.66,126.60 600.61,129.11 601.55,131.56 602.50,133.88 603.44,136.06 604.39,138.04 605.33,139.80 606.28,141.30 607.22,142.52 608.17,143.44 609.11,144.03 610.06,144.29 611.00,144.22 611.95,143.80 612.89,143.04 613.84,141.94 614.79,140.53 615.73,138.81 616.68,136.81 617.62,134.55 618.57,132.05 619.51,129.34 620.46,126.46 621.40,123.44 622.35,120.32 623.29,117.13 624.24,113.91 625.18,110.71 626.13,107.55 627.08,104.47 628.02,101.52 628.97,98.73 629.91,96.14 630.86,93.77 631.80,91.67 632.75,89.85 633.69,88.34 634.64,87.17 635.58,86.36 636.53,85.92 637.47,85.87 638.42,86.20 639.37,86.93 640.31,88.06 641.26,89.57 642.20,91.45 643.15,93.70 644.09,96.29 645.04,99.19 645.98,102.38 646.93,105.82 647.87,109.48 648.82,113.30 649.76,117.25 650.71,121.27 651.66,125.32 652.60,129.33 653.55,133.26 654.49,137.06 655.44,140.65 656.38,144.00 657.33,147.04 658.27,149.74 659.22,152.03 660.16,153.89 661.11,155.27 662.05,156.14 663.00,156.46 663.95,156.22 664.89,155.40 665.84,153.98 666.78,151.97 667.73,149.38 668.67,146.24 669.62,142.58 670.56,138.45 671.51,133.91 672.45,129.03 673.40,123.89 674.34,118.58 675.29,113.19 676.24,107.82 677.18,102.57 678.13,97.53 679.07,92.80 680.02,88.46 680.96,84.59 681.91,81.26 682.85,78.54 683.80,76.45 684.74,75.05 685.69,74.36 686.63,74.37 687.58,75.09 688.53,76.50 689.47,78.56 690.42,81.23 691.36,84.46 692.31,88.17 693.25,92.30 694.20,96.77 695.14,101.48 696.09,106.34 697.03,111.27 697.98,116.17 698.92,120.95 699.87,125.52 700.82,129.80 701.76,133.72 702.71,137.20 703.65,140.19 704.60,142.63 705.54,144.50 706.49,145.77 707.43,146.42 708.38,146.45 709.32,145.88 710.27,144.72 711.21,143.01 712.16,140.79 713.11,138.12 714.05,135.05 715.00,131.65 715.94,127.99 716.89,124.16 717.83,120.22 718.78,116.25 719.72,112.34 720.67,108.56 721.61,104.97 722.56,101.64 723.50,98.63 724.45,96.00 725.39,93.78 726.34,92.01 727.29,90.70 728.23,89.88 729.18,89.54 730.12,89.68 731.07,90.28 732.01,91.32 732.96,92.75 733.90,94.54 734.85,96.65 735.79,99.02 736.74,101.61 737.68,104.37 738.63,107.23 739.58,110.16 740.52,113.10 741.47,116.01 742.41,118.84 743.36,121.54 744.30,124.09 745.25,126.45 746.19,128.59 747.14,130.46 748.08,132.04 749.03,133.31 749.97,134.25 750.92,134.84 751.87,135.08 752.81,134.96 753.76,134.49 754.70,133.67 755.65,132.52 756.59,131.05 757.54,129.29 758.48,127.25 759.43,124.98"/>
<line x1="828" y1="78" x2="856" y2="78" stroke="#2f6fbb" stroke-width="3"/>
<text x="864" y="82" font-family="Arial" font-size="13">alpha</text>
<polyline fill="none" stroke="#258a45" stroke-width="2.2" points="116.57,413.64 117.52,413.63 118.46,413.40 119.41,412.77 120.35,411.67 121.30,410.04 122.24,407.87 123.19,405.18 124.13,401.98 125.08,398.28 126.03,394.13 126.97,389.55 127.92,384.57 128.86,379.24 129.81,373.60 130.75,367.70 131.70,361.57 132.64,355.27 133.59,348.84 134.53,342.34 135.48,335.82 136.42,329.32 137.37,322.90 138.32,316.62 139.26,310.51 140.21,304.64 141.15,299.03 142.10,293.74 143.04,288.80 143.99,284.25 144.93,280.12 145.88,276.43 146.82,273.20 147.77,270.46 148.71,268.19 149.66,266.42 150.61,265.13 151.55,264.30 152.50,263.90 153.44,263.88 154.39,264.20 155.33,264.79 156.28,265.60 157.22,266.56 158.17,267.60 159.11,268.68 160.06,269.71 161.00,270.65 161.95,271.45 162.89,272.08 163.84,272.50 164.79,272.71 165.73,272.69 166.68,272.43 167.62,271.93 168.57,271.19 169.51,270.23 170.46,269.04 171.40,267.66 172.35,266.10 173.29,264.39 174.24,262.54 175.18,260.61 176.13,258.60 177.08,256.57 178.02,254.53 178.97,252.54 179.91,250.62 180.86,248.80 181.80,247.11 182.75,245.60 183.69,244.27 184.64,243.16 185.58,242.29 186.53,241.67 187.47,241.32 188.42,241.25 189.37,241.46 190.31,241.96 191.26,242.73 192.20,243.78 193.15,245.09 194.09,246.64 195.04,248.42 195.98,250.41 196.93,252.58 197.87,254.90 198.82,257.34 199.76,259.87 200.71,262.46 201.66,265.07 202.60,267.66 203.55,270.20 204.49,272.65 205.44,274.98 206.38,277.16 207.33,279.15 208.27,280.93 209.22,282.45 210.16,283.71 211.11,284.68 212.05,285.34 213.00,285.68 213.95,285.68 214.89,285.34 215.84,284.65 216.78,283.62 217.73,282.26 218.67,280.57 219.62,278.57 220.56,276.28 221.51,273.71 222.45,270.90 223.40,267.86 224.34,264.64 225.29,261.27 226.24,257.81 227.18,254.32 228.13,250.85 229.07,247.47 230.02,244.25 230.96,241.25 231.91,238.53 232.85,236.15 233.80,234.16 234.74,232.61 235.69,231.54 236.63,230.96 237.58,230.90 238.53,231.33 239.47,232.27 240.42,233.71 241.36,235.61 242.31,237.97 243.25,240.75 244.20,243.93 245.14,247.48 246.09,251.35 247.03,255.51 247.98,259.91 248.92,264.53 249.87,269.31 250.82,274.21 251.76,279.19 252.71,284.21 253.65,289.22 254.60,294.18 255.54,299.05 256.49,303.81 257.43,308.40 258.38,312.81 259.32,316.99 260.27,320.92 261.21,324.57 262.16,327.93 263.11,330.97 264.05,333.67 265.00,336.02 265.94,338.01 266.89,339.63 267.83,340.86 268.78,341.72 269.72,342.20 270.67,342.29 271.61,342.00 272.56,341.34 273.50,340.32 274.45,338.95 275.39,337.23 276.34,335.20 277.29,332.86 278.23,330.23 279.18,327.34 280.12,324.20 281.07,320.85 282.01,317.32 282.96,313.62 283.90,309.80 284.85,305.87 285.79,301.87 286.74,297.84 287.68,293.79 288.63,289.78 289.58,285.81 290.52,281.93 291.47,278.17 292.41,274.54 293.36,271.08 294.30,267.81 295.25,264.74 296.19,261.90 297.14,259.30 298.08,256.96 299.03,254.86 299.97,253.00 300.92,251.36 301.87,249.91 302.81,248.62 303.76,247.45 304.70,246.38 305.65,245.36 306.59,244.35 307.54,243.33 308.48,242.25 309.43,241.09 310.37,239.83 311.32,238.46 312.26,236.98 313.21,235.39 314.16,233.68 315.10,231.85 316.05,229.92 316.99,227.88 317.94,225.74 318.88,223.51 319.83,221.21 320.77,218.84 321.72,216.43 322.66,213.97 323.61,211.51 324.55,209.04 325.50,206.60 326.45,204.21 327.39,201.87 328.34,199.63 329.28,197.49 330.23,195.50 331.17,193.65 332.12,191.99 333.06,190.53 334.01,189.29 334.95,188.28 335.90,187.53 336.84,187.04 337.79,186.84 338.74,186.92 339.68,187.29 340.63,187.96 341.57,188.93 342.52,190.20 343.46,191.75 344.41,193.58 345.35,195.68 346.30,198.04 347.24,200.63 348.19,203.43 349.13,206.42 350.08,209.58 351.03,212.87 351.97,216.26 352.92,219.73 353.86,223.24 354.81,226.74 355.75,230.22 356.70,233.63 357.64,236.93 358.59,240.10 359.53,243.09 360.48,245.87 361.42,248.41 362.37,250.68 363.32,252.66 364.26,254.31 365.21,255.63 366.15,256.59 367.10,257.17 368.04,257.38 368.99,257.20 369.93,256.63 370.88,255.68 371.82,254.37 372.77,252.73 373.71,250.79 374.66,248.62 375.61,246.24 376.55,243.74 377.50,241.16 378.44,238.56 379.39,236.02 380.33,233.58 381.28,231.32 382.22,229.27 383.17,227.49 384.11,226.00 385.06,224.82 386.00,223.97 386.95,223.46 387.89,223.30 388.84,223.50 389.79,224.04 390.73,224.93 391.68,226.17 392.62,227.72 393.57,229.59 394.51,231.75 395.46,234.18 396.40,236.85 397.35,239.75 398.29,242.84 399.24,246.09 400.18,249.47 401.13,252.96 402.08,256.52 403.02,260.11 403.97,263.72 404.91,267.32 405.86,270.86 406.80,274.34 407.75,277.71 408.69,280.96 409.64,284.07 410.58,287.01 411.53,289.76 412.47,292.31 413.42,294.65 414.37,296.75 415.31,298.61 416.26,300.22 417.20,301.57 418.15,302.65 419.09,303.46 420.04,304.00 420.98,304.28 421.93,304.28 422.87,304.02 423.82,303.50 424.76,302.72 425.71,301.71 426.66,300.46 427.60,299.00 428.55,297.34 429.49,295.49 430.44,293.48 431.38,291.32 432.33,289.03 433.27,286.65 434.22,284.18 435.16,281.66 436.11,279.11 437.05,276.55 438.00,274.02 438.95,271.52 439.89,269.10 440.84,266.77 441.78,264.55 442.73,262.46 443.67,260.52 444.62,258.75 445.56,257.13 446.51,255.65 447.45,254.30 448.40,253.06 449.34,251.89 450.29,250.78 451.24,249.68 452.18,248.58 453.13,247.44 454.07,246.22 455.02,244.91 455.96,243.47 456.91,241.91 457.85,240.22 458.80,238.39 459.74,236.43 460.69,234.33 461.63,232.09 462.58,229.73 463.53,227.23 464.47,224.62 465.42,221.90 466.36,219.07 467.31,216.16 468.25,213.18 469.20,210.13 470.14,207.06 471.09,203.96 472.03,200.88 472.98,197.83 473.92,194.84 474.87,191.94 475.82,189.16 476.76,186.53 477.71,184.08 478.65,181.85 479.60,179.85 480.54,178.12 481.49,176.69 482.43,175.58 483.38,174.82 484.32,174.43 485.27,174.41 486.21,174.80 487.16,175.59 488.11,176.80 489.05,178.42 490.00,180.46 490.94,182.90 491.89,185.74 492.83,188.95 493.78,192.51 494.72,196.40 495.67,200.59 496.61,205.03 497.56,209.70 498.50,214.54 499.45,219.52 500.39,224.57 501.34,229.65 502.29,234.71 503.23,239.69 504.18,244.53 505.12,249.19 506.07,253.60 507.01,257.72 507.96,261.50 508.90,264.89 509.85,267.84 510.79,270.33 511.74,272.31 512.68,273.76 513.63,274.65 514.58,274.98 515.52,274.74 516.47,273.92 517.41,272.55 518.36,270.66 519.30,268.30 520.25,265.51 521.19,262.37 522.14,258.94 523.08,255.30 524.03,251.52 524.97,247.68 525.92,243.87 526.87,240.15 527.81,236.60 528.76,233.28 529.70,230.22 530.65,227.47 531.59,225.07 532.54,223.04 533.48,221.40 534.43,220.17 535.37,219.37 536.32,219.00 537.26,219.06 538.21,219.55 539.16,220.46 540.10,221.78 541.05,223.48 541.99,225.55 542.94,227.95 543.88,230.67 544.83,233.67 545.77,236.92 546.72,240.38 547.66,244.02 548.61,247.81 549.55,251.70 550.50,255.66 551.45,259.66 552.39,263.66 553.34,267.63 554.28,271.54 555.23,275.35 556.17,279.04 557.12,282.58 558.06,285.95 559.01,289.11 559.95,292.06 560.90,294.77 561.84,297.23 562.79,299.41 563.74,301.32 564.68,302.92 565.63,304.23 566.57,305.23 567.52,305.92 568.46,306.30 569.41,306.37 570.35,306.14 571.30,305.60 572.24,304.78 573.19,303.68 574.13,302.32 575.08,300.72 576.03,298.89 576.97,296.85 577.92,294.64 578.86,292.27 579.81,289.78 580.75,287.19 581.70,284.53 582.64,281.83 583.59,279.13 584.53,276.44 585.48,273.81 586.42,271.26 587.37,268.80 588.32,266.48 589.26,264.31 590.21,262.29 591.15,260.41 592.10,258.67 593.04,257.04 593.99,255.50 594.93,254.02 595.88,252.58 596.82,251.13 597.77,249.65 598.71,248.11 599.66,246.46 600.61,244.69 601.55,242.78 602.50,240.72 603.44,238.50 604.39,236.13 605.33,233.61 606.28,230.92 607.22,228.09 608.17,225.10 609.11,221.98 610.06,218.73 611.00,215.36 611.95,211.89 612.89,208.35 613.84,204.76 614.79,201.13 615.73,197.51 616.68,193.93 617.62,190.41 618.57,186.99 619.51,183.72 620.46,180.63 621.40,177.75 622.35,175.14 623.29,172.82 624.24,170.83 625.18,169.21 626.13,167.99 627.08,167.20 628.02,166.87 628.97,167.01 629.91,167.65 630.86,168.78 631.80,170.43 632.75,172.59 633.69,175.26 634.64,178.42 635.58,182.06 636.53,186.14 637.47,190.65 638.42,195.55 639.37,200.78 640.31,206.31 641.26,212.08 642.20,218.04 643.15,224.12 644.09,230.26 645.04,236.39 645.98,242.45 646.93,248.36 647.87,254.06 648.82,259.48 649.76,264.54 650.71,269.20 651.66,273.39 652.60,277.05 653.55,280.13 654.49,282.60 655.44,284.41 656.38,285.53 657.33,285.95 658.27,285.65 659.22,284.63 660.16,282.90 661.11,280.48 662.05,277.38 663.00,273.68 663.95,269.43 664.89,264.72 665.84,259.62 666.78,254.23 667.73,248.65 668.67,242.99 669.62,237.34 670.56,231.80 671.51,226.49 672.45,221.49 673.40,216.87 674.34,212.70 675.29,209.04 676.24,205.91 677.18,203.36 678.13,201.42 679.07,200.10 680.02,199.40 680.96,199.34 681.91,199.90 682.85,201.07 683.80,202.84 684.74,205.17 685.69,208.03 686.63,211.38 687.58,215.19 688.53,219.40 689.47,223.97 690.42,228.85 691.36,233.99 692.31,239.33 693.25,244.82 694.20,250.41 695.14,256.05 696.09,261.68 697.03,267.25 697.98,272.73 698.92,278.06 699.87,283.21 700.82,288.13 701.76,292.80 702.71,297.17 703.65,301.21 704.60,304.91 705.54,308.23 706.49,311.16 707.43,313.68 708.38,315.78 709.32,317.45 710.27,318.68 711.21,319.47 712.16,319.82 713.11,319.74 714.05,319.23 715.00,318.31 715.94,316.99 716.89,315.29 717.83,313.24 718.78,310.87 719.72,308.19 720.67,305.25 721.61,302.08 722.56,298.71 723.50,295.19 724.45,291.55 725.39,287.83 726.34,284.08 727.29,280.33 728.23,276.63 729.18,273.02 730.12,269.52 731.07,266.17 732.01,263.00 732.96,260.05 733.90,257.32 734.85,254.84 735.79,252.58 736.74,250.53 737.68,248.68 738.63,246.98 739.58,245.40 740.52,243.91 741.47,242.46 742.41,241.01 743.36,239.53 744.30,237.96 745.25,236.28 746.19,234.46 747.14,232.49 748.08,230.37 749.03,228.09 749.97,225.65 750.92,223.05 751.87,220.31 752.81,217.44 753.76,214.45 754.70,211.35 755.65,208.18 756.59,204.95 757.54,201.70 758.48,198.46 759.43,195.25"/>
<line x1="828" y1="102" x2="856" y2="102" stroke="#258a45" stroke-width="3"/>
<text x="864" y="106" font-family="Arial" font-size="13">beta</text>
</svg>