<svg xmlns="http://www.w3.org/2000/svg" width="920" height="520" viewBox="0 0 920 520">
<rect width="100%" height="100%" fill="white"/>
<text x="460" y="28" text-anchor="middle" font-family="Arial" font-size="20">Coupled Skeleton Force Projection</text>
<rect x="78" y="54" width="720" height="380" fill="#fafafa" stroke="#222"/>
<line x1="78" y1="434" x2="798" y2="434" stroke="#222"/>
<line x1="78" y1="54" x2="78" y2="434" stroke="#222"/>
<text x="438" y="492" text-anchor="middle" font-family="Arial" font-size="14">time (s)</text>
<text transform="translate(22,244) rotate(-90)" text-anchor="middle" font-family="Arial" font-size="14">force (N)</text>
<text x="78" y="456" text-anchor="middle" font-family="Arial" font-size="11">-2.04</text>
<text x="798" y="456" text-anchor="middle" font-family="Arial" font-size="11">36.04</text>
<text x="68" y="434" text-anchor="end" font-family="Arial" font-size="11">-3640.84</text>
<text x="68" y="59" text-anchor="end" font-family="Arial" font-size="11">9485.78</text>
<polyline fill="none" stroke="#222222" stroke-width="2.2" points="116.57,395.79 117.52,395.87 118.46,396.00 119.41,396.18 120.35,396.42 121.30,396.70 122.24,397.02 123.19,397.36 124.13,397.72 125.08,398.10 126.03,398.49 126.97,398.87 127.92,399.26 128.86,399.63 129.81,399.99 130.75,400.33 131.70,400.64 132.64,400.92 133.59,401.16 134.53,401.37 135.48,401.54 136.42,401.67 137.37,401.75 138.32,401.79 139.26,401.79 140.21,401.75 141.15,401.67 142.10,401.56 143.04,401.41 143.99,401.23 144.93,401.02 145.88,400.80 146.82,400.56 147.77,400.30 148.71,400.04 149.66,399.79 150.61,399.55 151.55,399.31 152.50,399.09 153.44,398.88 154.39,398.69 155.33,398.53 156.28,398.38 157.22,398.27 158.17,398.18 159.11,398.11 160.06,398.07 161.00,398.04 161.95,398.05 162.89,398.08 163.84,398.14 164.79,398.22 165.73,398.32 166.68,398.45 167.62,398.59 168.57,398.75 169.51,398.92 170.46,399.10 171.40,399.29 172.35,399.49 173.29,399.68 174.24,399.88 175.18,400.07 176.13,400.26 177.08,400.44 178.02,400.61 178.97,400.78 179.91,400.92 180.86,401.06 181.80,401.18 182.75,401.29 183.69,401.38 184.64,401.45 185.58,401.50 186.53,401.54 187.47,401.56 188.42,401.57 189.37,401.56 190.31,401.53 191.26,401.49 192.20,401.43 193.15,401.37 194.09,401.29 195.04,401.20 195.98,401.10 196.93,400.99 197.87,400.88 198.82,400.77 199.76,400.65 200.71,400.52 201.66,400.40 202.60,400.28 203.55,400.16 204.49,400.04 205.44,399.93 206.38,399.82 207.33,399.73 208.27,399.64 209.22,399.56 210.16,399.49 211.11,399.43 212.05,399.39 213.00,399.36 213.95,399.34 214.89,399.34 215.84,399.35 216.78,399.38 217.73,399.42 218.67,399.48 219.62,399.55 220.56,399.64 221.51,399.74 222.45,399.85 223.40,399.97 224.34,400.09 225.29,400.22 226.24,400.36 227.18,400.50 228.13,400.65 229.07,400.81 230.02,400.97 230.96,401.14 231.91,401.30 232.85,401.46 233.80,401.63 234.74,401.80 235.69,401.96 236.63,402.10 237.58,402.24 238.53,402.35 239.47,402.45 240.42,402.53 241.36,402.58 242.31,402.62 243.25,402.62 244.20,402.61 245.14,402.57 246.09,402.51 247.03,402.43 247.98,402.33 248.92,402.21 249.87,402.08 250.82,401.93 251.76,401.77 252.71,401.61 253.65,401.44 254.60,401.26 255.54,401.09 256.49,400.92 257.43,400.76 258.38,400.61 259.32,400.47 260.27,400.35 261.21,400.24 262.16,400.15 263.11,400.08 264.05,400.04 265.00,400.02 265.94,400.02 266.89,400.04 267.83,400.08 268.78,400.15 269.72,400.24 270.67,400.34 271.61,400.46 272.56,400.60 273.50,400.75 274.45,400.91 275.39,401.08 276.34,401.25 277.29,401.43 278.23,401.60 279.18,401.78 280.12,401.94 281.07,402.10 282.01,402.25 282.96,402.39 283.90,402.52 284.85,402.62 285.79,402.72 286.74,402.79 287.68,402.85 288.63,402.89 289.58,402.91 290.52,402.91 291.47,402.90 292.41,402.87 293.36,402.83 294.30,402.78 295.25,402.71 296.19,402.64 297.14,402.57 298.08,402.50 299.03,402.42 299.97,402.35 300.92,402.28 301.87,402.20 302.81,402.14 303.76,402.07 304.70,402.02 305.65,401.97 306.59,401.92 307.54,401.88 308.48,401.84 309.43,401.81 310.37,401.79 311.32,401.78 312.26,401.78 313.21,401.79 314.16,401.81 315.10,401.84 316.05,401.89 316.99,401.94 317.94,402.01 318.88,402.08 319.83,402.16 320.77,402.25 321.72,402.35 322.66,402.45 323.61,402.56 324.55,402.68 325.50,402.79 326.45,402.91 327.39,403.02 328.34,403.14 329.28,403.25 330.23,403.37 331.17,403.48 332.12,403.58 333.06,403.68 334.01,403.78 334.95,403.86 335.90,403.95 336.84,404.02 337.79,404.08 338.74,404.14 339.68,404.18 340.63,404.22 341.57,404.24 342.52,404.26 343.46,404.26 344.41,404.26 345.35,404.24 346.30,404.21 347.24,404.18 348.19,404.13 349.13,404.07 350.08,404.01 351.03,403.93 351.97,403.85 352.92,403.77 353.86,403.68 354.81,403.58 355.75,403.48 356.70,403.38 357.64,403.27 358.59,403.17 359.53,403.07 360.48,402.97 361.42,402.88 362.37,402.79 363.32,402.71 364.26,402.64 365.21,402.58 366.15,402.53 367.10,402.49 368.04,402.46 368.99,402.45 369.93,402.45 370.88,402.45 371.82,402.47 372.77,402.51 373.71,402.57 374.66,402.64 375.61,402.73 376.55,402.84 377.50,402.97 378.44,403.11 379.39,403.26 380.33,403.44 381.28,403.63 382.22,403.84 383.17,404.04 384.11,404.25 385.06,404.45 386.00,404.65 386.95,404.83 387.89,405.01 388.84,405.17 389.79,405.31 390.73,405.43 391.68,405.53 392.62,405.61 393.57,405.66 394.51,405.69 395.46,405.69 396.40,405.66 397.35,405.62 398.29,405.55 399.24,405.45 400.18,405.34 401.13,405.22 402.08,405.08 403.02,404.93 403.97,404.77 404.91,404.60 405.86,404.43 406.80,404.27 407.75,404.11 408.69,403.96 409.64,403.81 410.58,403.69 411.53,403.57 412.47,403.48 413.42,403.40 414.37,403.35 415.31,403.31 416.26,403.30 417.20,403.32 418.15,403.35 419.09,403.41 420.04,403.48 420.98,403.58 421.93,403.69 422.87,403.82 423.82,403.97 424.76,404.12 425.71,404.28 426.66,404.45 427.60,404.63 428.55,404.80 429.49,404.97 430.44,405.14 431.38,405.30 432.33,405.45 433.27,405.58 434.22,405.71 435.16,405.82 436.11,405.91 437.05,405.99 438.00,406.05 438.95,406.09 439.89,406.12 440.84,406.13 441.78,406.12 442.73,406.10 443.67,406.08 444.62,406.05 445.56,406.00 446.51,405.95 447.45,405.88 448.40,405.81 449.34,405.74 450.29,405.66 451.24,405.58 452.18,405.50 453.13,405.41 454.07,405.32 455.02,405.23 455.96,405.15 456.91,405.07 457.85,405.01 458.80,404.95 459.74,404.91 460.69,404.88 461.63,404.87 462.58,404.87 463.53,404.89 464.47,404.92 465.42,404.97 466.36,405.03 467.31,405.11 468.25,405.20 469.20,405.31 470.14,405.42 471.09,405.55 472.03,405.69 472.98,405.84 473.92,406.00 474.87,406.16 475.82,406.33 476.76,406.49 477.71,406.66 478.65,406.83 479.60,406.99 480.54,407.14 481.49,407.30 482.43,407.44 483.38,407.57 484.32,407.69 485.27,407.80 486.21,407.89 487.16,407.97 488.11,408.03 489.05,408.08 490.00,408.10 490.94,408.11 491.89,408.11 492.83,408.08 493.78,408.04 494.72,407.97 495.67,407.90 496.61,407.80 497.56,407.69 498.50,407.56 499.45,407.43 500.39,407.28 501.34,407.12 502.29,406.95 503.23,406.78 504.18,406.61 505.12,406.43 506.07,406.25 507.01,406.08 507.96,405.92 508.90,405.76 509.85,405.62 510.79,405.49 511.74,405.37 512.68,405.27 513.63,405.20 514.58,405.14 515.52,405.09 516.47,405.07 517.41,405.07 518.36,405.11 519.30,405.17 520.25,405.26 521.19,405.37 522.14,405.52 523.08,405.69 524.03,405.89 524.97,406.12 525.92,406.37 526.87,406.65 527.81,406.93 528.76,407.23 529.70,407.53 530.65,407.83 531.59,408.11 532.54,408.39 533.48,408.65 534.43,408.89 535.37,409.11 536.32,409.29 537.26,409.45 538.21,409.57 539.16,409.65 540.10,409.70 541.05,409.71 541.99,409.69 542.94,409.63 543.88,409.53 544.83,409.41 545.77,409.25 546.72,409.07 547.66,408.87 548.61,408.65 549.55,408.42 550.50,408.18 551.45,407.94 552.39,407.70 553.34,407.46 554.28,407.24 555.23,407.03 556.17,406.84 557.12,406.67 558.06,406.52 559.01,406.41 559.95,406.32 560.90,406.27 561.84,406.24 562.79,406.25 563.74,406.30 564.68,406.37 565.63,406.48 566.57,406.61 567.52,406.76 568.46,406.94 569.41,407.14 570.35,407.35 571.30,407.58 572.24,407.81 573.19,408.04 574.13,408.28 575.08,408.51 576.03,408.73 576.97,408.94 577.92,409.14 578.86,409.31 579.81,409.47 580.75,409.60 581.70,409.71 582.64,409.80 583.59,409.86 584.53,409.89 585.48,409.90 586.42,409.89 587.37,409.85 588.32,409.80 589.26,409.74 590.21,409.66 591.15,409.57 592.10,409.46 593.04,409.35 593.99,409.22 594.93,409.10 595.88,408.97 596.82,408.84 597.77,408.71 598.71,408.58 599.66,408.45 600.61,408.34 601.55,408.23 602.50,408.14 603.44,408.07 604.39,408.02 605.33,407.98 606.28,407.97 607.22,407.98 608.17,408.01 609.11,408.07 610.06,408.14 611.00,408.24 611.95,408.35 612.89,408.48 613.84,408.64 614.79,408.80 615.73,408.98 616.68,409.17 617.62,409.37 618.57,409.58 619.51,409.79 620.46,410.00 621.40,410.21 622.35,410.42 623.29,410.62 624.24,410.82 625.18,411.00 626.13,411.17 627.08,411.33 628.02,411.47 628.97,411.60 629.91,411.70 630.86,411.78 631.80,411.84 632.75,411.88 633.69,411.89 634.64,411.88 635.58,411.85 636.53,411.79 637.47,411.71 638.42,411.61 639.37,411.49 640.31,411.35 641.26,411.18 642.20,411.00 643.15,410.81 644.09,410.60 645.04,410.39 645.98,410.16 646.93,409.94 647.87,409.71 648.82,409.48 649.76,409.25 650.71,409.04 651.66,408.83 652.60,408.64 653.55,408.47 654.49,408.31 655.44,408.18 656.38,408.08 657.33,408.00 658.27,407.95 659.22,407.94 660.16,407.94 661.11,407.98 662.05,408.05 663.00,408.15 663.95,408.29 664.89,408.46 665.84,408.66 666.78,408.90 667.73,409.16 668.67,409.46 669.62,409.77 670.56,410.10 671.51,410.47 672.45,410.83 673.40,411.20 674.34,411.56 675.29,411.91 676.24,412.24 677.18,412.55 678.13,412.83 679.07,413.07 680.02,413.27 680.96,413.44 681.91,413.55 682.85,413.62 683.80,413.64 684.74,413.62 685.69,413.54 686.63,413.43 687.58,413.26 688.53,413.07 689.47,412.83 690.42,412.57 691.36,412.28 692.31,411.98 693.25,411.66 694.20,411.33 695.14,411.01 696.09,410.70 697.03,410.39 697.98,410.11 698.92,409.85 699.87,409.61 700.82,409.42 701.76,409.26 702.71,409.13 703.65,409.05 704.60,409.01 705.54,409.02 706.49,409.07 707.43,409.16 708.38,409.29 709.32,409.45 710.27,409.65 711.21,409.88 712.16,410.13 713.11,410.40 714.05,410.68 715.00,410.98 715.94,411.27 716.89,411.57 717.83,411.86 718.78,412.13 719.72,412.39 720.67,412.63 721.61,412.84 722.56,413.03 723.50,413.18 724.45,413.30 725.39,413.39 726.34,413.44 727.29,413.46 728.23,413.44 729.18,413.39 730.12,413.32 731.07,413.22 732.01,413.09 732.96,412.96 733.90,412.81 734.85,412.66 735.79,412.49 736.74,412.32 737.68,412.16 738.63,411.99 739.58,411.83 740.52,411.68 741.47,411.54 742.41,411.42 743.36,411.31 744.30,411.20 745.25,411.12 746.19,411.06 747.14,411.02 748.08,411.01 749.03,411.02 749.97,411.06 750.92,411.12 751.87,411.20 752.81,411.31 753.76,411.44 754.70,411.58 755.65,411.75 756.59,411.93 757.54,412.12 758.48,412.32 759.43,412.53"/>
<line x1="828" y1="78" x2="856" y2="78" stroke="#222222" stroke-width="3"/>
<text x="864" y="82" font-family="Arial" font-size="13">tangent</text>
<polyline fill="none" stroke="#2f6fbb" stroke-width="2.2" points="116.57,143.07 117.52,142.86 118.46,142.62 119.41,142.29 120.35,141.82 121.30,141.19 122.24,140.38 123.19,139.41 124.13,138.28 125.08,137.02 126.03,135.63 126.97,134.16 127.92,132.62 128.86,131.04 129.81,129.44 130.75,127.85 131.70,126.30 132.64,124.82 133.59,123.42 134.53,122.13 135.48,120.97 136.42,119.96 137.37,119.11 138.32,118.44 139.26,117.95 140.21,117.64 141.15,117.54 142.10,117.62 143.04,117.90 143.99,118.36 144.93,119.00 145.88,119.80 146.82,120.76 147.77,121.85 148.71,123.05 149.66,124.37 150.61,125.76 151.55,127.22 152.50,128.72 153.44,130.26 154.39,131.80 155.33,133.34 156.28,134.85 157.22,136.32 158.17,137.74 159.11,139.10 160.06,140.38 161.00,141.58 161.95,142.69 162.89,143.70 163.84,144.61 164.79,145.41 165.73,146.11 166.68,146.71 167.62,147.21 168.57,147.62 169.51,147.93 170.46,148.16 171.40,148.32 172.35,148.41 173.29,148.43 174.24,148.40 175.18,148.32 176.13,148.21 177.08,148.06 178.02,147.90 178.97,147.71 179.91,147.51 180.86,147.31 181.80,147.12 182.75,146.92 183.69,146.74 184.64,146.57 185.58,146.42 186.53,146.30 187.47,146.19 188.42,146.11 189.37,146.05 190.31,146.02 191.26,146.01 192.20,146.03 193.15,146.07 194.09,146.14 195.04,146.23 195.98,146.33 196.93,146.46 197.87,146.60 198.82,146.74 199.76,146.90 200.71,147.06 201.66,147.22 202.60,147.38 203.55,147.53 204.49,147.67 205.44,147.79 206.38,147.89 207.33,147.96 208.27,148.00 209.22,148.01 210.16,147.97 211.11,147.89 212.05,147.76 213.00,147.58 213.95,147.33 214.89,147.03 215.84,146.66 216.78,146.22 217.73,145.70 218.67,145.12 219.62,144.46 220.56,143.72 221.51,142.91 222.45,142.03 223.40,141.07 224.34,140.04 225.29,138.94 226.24,137.78 227.18,136.56 228.13,135.29 229.07,133.97 230.02,132.62 230.96,131.25 231.91,129.86 232.85,128.47 233.80,127.09 234.74,125.74 235.69,124.43 236.63,123.16 237.58,121.96 238.53,120.83 239.47,119.79 240.42,118.84 241.36,118.00 242.31,117.26 243.25,116.65 244.20,116.15 245.14,115.78 246.09,115.53 247.03,115.40 247.98,115.40 248.92,115.51 249.87,115.74 250.82,116.07 251.76,116.49 252.71,117.00 253.65,117.58 254.60,118.22 255.54,118.91 256.49,119.63 257.43,120.37 258.38,121.11 259.32,121.84 260.27,122.56 261.21,123.23 262.16,123.86 263.11,124.44 264.05,124.94 265.00,125.36 265.94,125.71 266.89,125.96 267.83,126.12 268.78,126.19 269.72,126.16 270.67,126.03 271.61,125.82 272.56,125.52 273.50,125.14 274.45,124.69 275.39,124.17 276.34,123.60 277.29,122.98 278.23,122.33 279.18,121.67 280.12,120.99 281.07,120.32 282.01,119.66 282.96,119.04 283.90,118.45 284.85,117.91 285.79,117.43 286.74,117.02 287.68,116.69 288.63,116.44 289.58,116.28 290.52,116.21 291.47,116.23 292.41,116.35 293.36,116.57 294.30,116.88 295.25,117.28 296.19,117.76 297.14,118.34 298.08,118.99 299.03,119.71 299.97,120.49 300.92,121.34 301.87,122.24 302.81,123.18 303.76,124.17 304.70,125.18 305.65,126.22 306.59,127.27 307.54,128.32 308.48,129.37 309.43,130.40 310.37,131.42 311.32,132.41 312.26,133.36 313.21,134.27 314.16,135.14 315.10,135.96 316.05,136.72 316.99,137.43 317.94,138.08 318.88,138.67 319.83,139.20 320.77,139.67 321.72,140.08 322.66,140.43 323.61,140.73 324.55,140.97 325.50,141.15 326.45,141.28 327.39,141.36 328.34,141.40 329.28,141.39 330.23,141.34 331.17,141.25 332.12,141.12 333.06,140.96 334.01,140.78 334.95,140.56 335.90,140.33 336.84,140.07 337.79,139.80 338.74,139.52 339.68,139.22 340.63,138.92 341.57,138.61 342.52,138.31 343.46,138.00 344.41,137.70 345.35,137.41 346.30,137.12 347.24,136.85 348.19,136.58 349.13,136.33 350.08,136.10 351.03,135.88 351.97,135.67 352.92,135.48 353.86,135.31 354.81,135.14 355.75,134.99 356.70,134.85 357.64,134.71 358.59,134.58 359.53,134.45 360.48,134.32 361.42,134.17 362.37,134.02 363.32,133.85 364.26,133.66 365.21,133.44 366.15,133.19 367.10,132.90 368.04,132.57 368.99,132.19 369.93,131.75 370.88,131.25 371.82,130.70 372.77,130.07 373.71,129.38 374.66,128.61 375.61,127.77 376.55,126.86 377.50,125.88 378.44,124.83 379.39,123.73 380.33,122.58 381.28,121.38 382.22,120.15 383.17,118.90 384.11,117.64 385.06,116.38 386.00,115.13 386.95,113.90 387.89,112.72 388.84,111.59 389.79,110.52 390.73,109.53 391.68,108.62 392.62,107.81 393.57,107.11 394.51,106.51 395.46,106.03 396.40,105.68 397.35,105.44 398.29,105.32 399.24,105.32 400.18,105.43 401.13,105.65 402.08,105.98 403.02,106.39 403.97,106.89 404.91,107.45 405.86,108.07 406.80,108.73 407.75,109.42 408.69,110.13 409.64,110.84 410.58,111.54 411.53,112.21 412.47,112.84 413.42,113.43 414.37,113.95 415.31,114.41 416.26,114.78 417.20,115.08 418.15,115.28 419.09,115.40 420.04,115.42 420.98,115.35 421.93,115.19 422.87,114.95 423.82,114.63 424.76,114.24 425.71,113.79 426.66,113.28 427.60,112.73 428.55,112.14 429.49,111.54 430.44,110.93 431.38,110.32 432.33,109.74 433.27,109.18 434.22,108.66 435.16,108.20 436.11,107.80 437.05,107.47 438.00,107.22 438.95,107.06 439.89,106.99 440.84,107.02 441.78,107.15 442.73,107.38 443.67,107.72 444.62,108.16 445.56,108.70 446.51,109.33 447.45,110.06 448.40,110.88 449.34,111.79 450.29,112.76 451.24,113.81 452.18,114.91 453.13,116.06 454.07,117.25 455.02,118.45 455.96,119.67 456.91,120.89 457.85,122.10 458.80,123.28 459.74,124.43 460.69,125.54 461.63,126.59 462.58,127.59 463.53,128.52 464.47,129.38 465.42,130.16 466.36,130.85 467.31,131.47 468.25,132.00 469.20,132.44 470.14,132.79 471.09,133.06 472.03,133.23 472.98,133.33 473.92,133.34 474.87,133.27 475.82,133.13 476.76,132.92 477.71,132.65 478.65,132.31 479.60,131.92 480.54,131.48 481.49,131.00 482.43,130.49 483.38,129.95 484.32,129.38 485.27,128.80 486.21,128.22 487.16,127.63 488.11,127.04 489.05,126.47 490.00,125.91 490.94,125.37 491.89,124.87 492.83,124.39 493.78,123.95 494.72,123.56 495.67,123.20 496.61,122.90 497.56,122.64 498.50,122.42 499.45,122.26 500.39,122.15 501.34,122.08 502.29,122.05 503.23,122.06 504.18,122.11 505.12,122.19 506.07,122.29 507.01,122.40 507.96,122.52 508.90,122.64 509.85,122.76 510.79,122.85 511.74,122.91 512.68,122.93 513.63,122.90 514.58,122.80 515.52,122.63 516.47,122.38 517.41,122.04 518.36,121.60 519.30,121.05 520.25,120.39 521.19,119.60 522.14,118.70 523.08,117.69 524.03,116.55 524.97,115.32 525.92,113.98 526.87,112.56 527.81,111.06 528.76,109.50 529.70,107.89 530.65,106.26 531.59,104.62 532.54,103.00 533.48,101.40 534.43,99.85 535.37,98.38 536.32,97.00 537.26,95.72 538.21,94.56 539.16,93.54 540.10,92.67 541.05,91.96 541.99,91.42 542.94,91.04 543.88,90.83 544.83,90.79 545.77,90.92 546.72,91.20 547.66,91.63 548.61,92.19 549.55,92.87 550.50,93.66 551.45,94.53 552.39,95.47 553.34,96.45 554.28,97.46 555.23,98.48 556.17,99.48 557.12,100.45 558.06,101.37 559.01,102.22 559.95,102.98 560.90,103.64 561.84,104.19 562.79,104.63 563.74,104.93 564.68,105.11 565.63,105.15 566.57,105.06 567.52,104.84 568.46,104.50 569.41,104.05 570.35,103.49 571.30,102.84 572.24,102.12 573.19,101.33 574.13,100.50 575.08,99.64 576.03,98.77 576.97,97.91 577.92,97.08 578.86,96.29 579.81,95.56 580.75,94.91 581.70,94.35 582.64,93.89 583.59,93.55 584.53,93.32 585.48,93.23 586.42,93.27 587.37,93.44 588.32,93.76 589.26,94.21 590.21,94.79 591.15,95.50 592.10,96.33 593.04,97.29 593.99,98.35 594.93,99.50 595.88,100.74 596.82,102.05 597.77,103.41 598.71,104.81 599.66,106.23 600.61,107.67 601.55,109.10 602.50,110.50 603.44,111.86 604.39,113.18 605.33,114.42 606.28,115.60 607.22,116.69 608.17,117.69 609.11,118.59 610.06,119.39 611.00,120.08 611.95,120.66 612.89,121.13 613.84,121.49 614.79,121.74 615.73,121.88 616.68,121.92 617.62,121.86 618.57,121.70 619.51,121.46 620.46,121.13 621.40,120.73 622.35,120.26 623.29,119.74 624.24,119.17 625.18,118.55 626.13,117.91 627.08,117.24 628.02,116.55 628.97,115.87 629.91,115.18 630.86,114.51 631.80,113.86 632.75,113.23 633.69,112.64 634.64,112.09 635.58,111.60 636.53,111.15 637.47,110.76 638.42,110.43 639.37,110.17 640.31,109.98 641.26,109.85 642.20,109.79 643.15,109.79 644.09,109.86 645.04,109.99 645.98,110.17 646.93,110.40 647.87,110.67 648.82,110.97 649.76,111.30 650.71,111.64 651.66,111.98 652.60,112.31 653.55,112.61 654.49,112.88 655.44,113.10 656.38,113.26 657.33,113.33 658.27,113.32 659.22,113.20 660.16,112.96 661.11,112.60 662.05,112.10 663.00,111.45 663.95,110.65 664.89,109.70 665.84,108.58 666.78,107.31 667.73,105.89 668.67,104.32 669.62,102.63 670.56,100.82 671.51,98.92 672.45,96.94 673.40,94.91 674.34,92.84 675.29,90.77 676.24,88.72 677.18,86.72 678.13,84.80 679.07,82.98 680.02,81.28 680.96,79.73 681.91,78.35 682.85,77.15 683.80,76.16 684.74,75.38 685.69,74.81 686.63,74.47 687.58,74.36 688.53,74.46 689.47,74.77 690.42,75.28 691.36,75.97 692.31,76.83 693.25,77.84 694.20,78.96 695.14,80.18 696.09,81.47 697.03,82.81 697.98,84.15 698.92,85.49 699.87,86.78 700.82,88.02 701.76,89.16 702.71,90.19 703.65,91.09 704.60,91.85 705.54,92.45 706.49,92.88 707.43,93.13 708.38,93.21 709.32,93.11 710.27,92.84 711.21,92.41 712.16,91.82 713.11,91.10 714.05,90.25 715.00,89.30 715.94,88.27 716.89,87.18 717.83,86.05 718.78,84.90 719.72,83.77 720.67,82.67 721.61,81.63 722.56,80.67 723.50,79.80 724.45,79.05 725.39,78.44 726.34,77.97 727.29,77.65 728.23,77.50 729.18,77.51 730.12,77.69 731.07,78.04 732.01,78.56 732.96,79.23 733.90,80.05 734.85,81.01 735.79,82.10 736.74,83.30 737.68,84.60 738.63,85.98 739.58,87.44 740.52,88.95 741.47,90.49 742.41,92.04 743.36,93.60 744.30,95.14 745.25,96.64 746.19,98.10 747.14,99.49 748.08,100.80 749.03,102.03 749.97,103.16 750.92,104.19 751.87,105.11 752.81,105.92 753.76,106.62 754.70,107.21 755.65,107.68 756.59,108.04 757.54,108.30 758.48,108.46 759.43,108.52"/>
<line x1="828" y1="102" x2="856" y2="102" stroke="#2f6fbb" stroke-width="3"/>
<text x="864" y="106" font-family="Arial" font-size="13">normal</text>
<polyline fill="none" stroke="#258a45" stroke-width="2.2" points="116.57,323.32 117.52,323.34 118.46,323.42 119.41,323.54 120.35,323.70 121.30,323.86 122.24,324.02 123.19,324.16 124.13,324.28 125.08,324.38 126.03,324.45 126.97,324.47 127.92,324.45 128.86,324.37 129.81,324.24 130.75,324.04 131.70,323.77 132.64,323.43 133.59,323.01 134.53,322.51 135.48,321.93 136.42,321.25 137.37,320.49 138.32,319.63 139.26,318.69 140.21,317.65 141.15,316.51 142.10,315.29 143.04,313.98 143.99,312.58 144.93,311.09 145.88,309.52 146.82,307.87 147.77,306.14 148.71,304.33 149.66,302.20 150.61,299.98 151.55,297.67 152.50,295.30 153.44,292.86 154.39,290.38 155.33,287.85 156.28,285.31 157.22,282.77 158.17,280.24 159.11,277.73 160.06,275.51 161.00,273.35 161.95,271.23 162.89,269.17 163.84,267.18 164.79,265.23 165.73,263.35 166.68,261.52 167.62,259.75 168.57,258.02 169.51,256.35 170.46,254.73 171.40,253.16 172.35,251.63 173.29,250.16 174.24,248.73 175.18,247.35 176.13,246.03 177.08,244.75 178.02,243.53 178.97,242.35 179.91,241.24 180.86,240.17 181.80,239.17 182.75,238.22 183.69,237.33 184.64,236.50 185.58,235.73 186.53,235.02 187.47,234.38 188.42,233.80 189.37,233.30 190.31,232.85 191.26,232.48 192.20,232.18 193.15,231.95 194.09,231.79 195.04,231.70 195.98,231.69 196.93,231.76 197.87,231.90 198.82,232.11 199.76,232.41 200.71,232.78 201.66,233.23 202.60,233.75 203.55,234.36 204.49,235.04 205.44,235.80 206.38,236.64 207.33,237.55 208.27,238.55 209.22,239.61 210.16,240.75 211.11,241.96 212.05,243.25 213.00,244.60 213.95,246.03 214.89,247.53 215.84,249.09 216.78,250.71 217.73,252.41 218.67,254.17 219.62,255.99 220.56,257.87 221.51,259.82 222.45,261.82 223.40,264.08 224.34,266.47 225.29,268.93 226.24,271.45 227.18,274.02 228.13,276.64 229.07,279.29 230.02,281.96 230.96,284.63 231.91,287.28 232.85,289.90 233.80,292.31 234.74,294.56 235.69,296.74 236.63,298.85 237.58,300.88 238.53,302.82 239.47,304.67 240.42,306.43 241.36,308.11 242.31,309.69 243.25,311.19 244.20,312.60 245.14,313.93 246.09,315.17 247.03,316.32 247.98,317.40 248.92,318.40 249.87,319.32 250.82,320.16 251.76,320.93 252.71,321.63 253.65,322.27 254.60,322.84 255.54,323.36 256.49,323.81 257.43,324.21 258.38,324.56 259.32,324.87 260.27,325.13 261.21,325.35 262.16,325.53 263.11,325.67 264.05,325.78 265.00,325.86 265.94,325.91 266.89,325.92 267.83,325.91 268.78,325.86 269.72,325.79 270.67,325.68 271.61,325.54 272.56,325.37 273.50,325.15 274.45,324.90 275.39,324.61 276.34,324.27 277.29,323.89 278.23,323.45 279.18,322.96 280.12,322.42 281.07,321.81 282.01,321.15 282.96,320.41 283.90,319.61 284.85,318.74 285.79,317.80 286.74,316.78 287.68,315.69 288.63,314.52 289.58,313.27 290.52,311.94 291.47,310.54 292.41,309.06 293.36,307.49 294.30,305.85 295.25,304.14 296.19,302.34 297.14,300.27 298.08,298.05 299.03,295.75 299.97,293.38 300.92,290.95 301.87,288.45 302.81,285.92 303.76,283.37 304.70,280.81 305.65,278.27 306.59,275.76 307.54,273.45 308.48,271.31 309.43,269.23 310.37,267.22 311.32,265.28 312.26,263.42 313.21,261.64 314.16,259.92 315.10,258.28 316.05,256.70 316.99,255.19 317.94,253.74 318.88,252.35 319.83,251.01 320.77,249.73 321.72,248.49 322.66,247.31 323.61,246.17 324.55,245.07 325.50,244.03 326.45,243.05 327.39,242.10 328.34,241.19 329.28,240.33 330.23,239.50 331.17,238.71 332.12,237.96 333.06,237.25 334.01,236.58 334.95,235.95 335.90,235.36 336.84,234.82 337.79,234.32 338.74,233.86 339.68,233.46 340.63,233.11 341.57,232.80 342.52,232.56 343.46,232.37 344.41,232.25 345.35,232.18 346.30,232.19 347.24,232.26 348.19,232.41 349.13,232.63 350.08,232.93 351.03,233.31 351.97,233.77 352.92,234.32 353.86,234.95 354.81,235.67 355.75,236.48 356.70,237.38 357.64,238.37 358.59,239.46 359.53,240.63 360.48,241.90 361.42,243.26 362.37,244.72 363.32,246.26 364.26,247.89 365.21,249.61 366.15,251.42 367.10,253.32 368.04,255.30 368.99,257.36 369.93,259.69 370.88,262.18 371.82,264.75 372.77,267.40 373.71,270.11 374.66,272.89 375.61,275.71 376.55,278.56 377.50,281.41 378.44,284.26 379.39,287.08 380.33,289.72 381.28,292.17 382.22,294.56 383.17,296.88 384.11,299.12 385.06,301.27 386.00,303.33 386.95,305.31 387.89,307.20 388.84,309.01 389.79,310.72 390.73,312.35 391.68,313.89 392.62,315.35 393.57,316.72 394.51,318.00 395.46,319.20 396.40,320.31 397.35,321.34 398.29,322.29 399.24,323.16 400.18,323.95 401.13,324.66 402.08,325.29 403.02,325.85 403.97,326.34 404.91,326.76 405.86,327.11 406.80,327.40 407.75,327.63 408.69,327.79 409.64,327.91 410.58,327.97 411.53,327.98 412.47,327.93 413.42,327.85 414.37,327.71 415.31,327.54 416.26,327.31 417.20,327.05 418.15,326.74 419.09,326.39 420.04,326.00 420.98,325.56 421.93,325.07 422.87,324.54 423.82,323.95 424.76,323.32 425.71,322.63 426.66,321.88 427.60,321.08 428.55,320.21 429.49,319.28 430.44,318.28 431.38,317.22 432.33,316.08 433.27,314.87 434.22,313.59 435.16,312.23 436.11,310.79 437.05,309.28 438.00,307.69 438.95,306.02 439.89,304.27 440.84,302.45 441.78,300.55 442.73,298.47 443.67,296.14 444.62,293.74 445.56,291.27 446.51,288.73 447.45,286.13 448.40,283.49 449.34,280.84 450.29,278.18 451.24,275.55 452.18,272.96 453.13,270.45 454.07,268.25 455.02,266.14 455.96,264.11 456.91,262.16 457.85,260.32 458.80,258.56 459.74,256.89 460.69,255.30 461.63,253.80 462.58,252.36 463.53,251.00 464.47,249.70 465.42,248.46 466.36,247.27 467.31,246.13 468.25,245.04 469.20,243.99 470.14,242.97 471.09,242.00 472.03,241.05 472.98,240.13 473.92,239.24 474.87,238.37 475.82,237.53 476.76,236.71 477.71,235.92 478.65,235.14 479.60,234.40 480.54,233.68 481.49,232.99 482.43,232.32 483.38,231.69 484.32,231.09 485.27,230.54 486.21,230.02 487.16,229.55 488.11,229.13 489.05,228.77 490.00,228.46 490.94,228.22 491.89,228.04 492.83,227.94 493.78,227.92 494.72,227.97 495.67,228.12 496.61,228.36 497.56,228.69 498.50,229.12 499.45,229.65 500.39,230.29 501.34,231.03 502.29,231.89 503.23,232.85 504.18,233.93 505.12,235.12 506.07,236.42 507.01,237.84 507.96,239.36 508.90,241.00 509.85,242.74 510.79,244.59 511.74,246.55 512.68,248.60 513.63,250.76 514.58,253.03 515.52,255.65 516.47,258.36 517.41,261.16 518.36,264.03 519.30,266.99 520.25,270.00 521.19,273.06 522.14,276.14 523.08,279.23 524.03,282.30 524.97,285.34 525.92,288.12 526.87,290.77 527.81,293.35 528.76,295.86 529.70,298.28 530.65,300.60 531.59,302.84 532.54,304.98 533.48,307.03 534.43,308.98 535.37,310.83 536.32,312.59 537.26,314.26 538.21,315.82 539.16,317.29 540.10,318.67 541.05,319.94 541.99,321.12 542.94,322.20 543.88,323.18 544.83,324.07 545.77,324.86 546.72,325.56 547.66,326.17 548.61,326.70 549.55,327.14 550.50,327.49 551.45,327.77 552.39,327.98 553.34,328.12 554.28,328.18 555.23,328.19 556.17,328.14 557.12,328.03 558.06,327.86 559.01,327.65 559.95,327.39 560.90,327.09 561.84,326.74 562.79,326.35 563.74,325.91 564.68,325.44 565.63,324.92 566.57,324.36 567.52,323.76 568.46,323.11 569.41,322.41 570.35,321.67 571.30,320.87 572.24,320.01 573.19,319.09 574.13,318.12 575.08,317.07 576.03,315.96 576.97,314.79 577.92,313.53 578.86,312.21 579.81,310.81 580.75,309.33 581.70,307.77 582.64,306.14 583.59,304.42 584.53,302.63 585.48,300.76 586.42,298.81 587.37,296.77 588.32,294.39 589.26,291.93 590.21,289.40 591.15,286.80 592.10,284.14 593.04,281.43 593.99,278.71 594.93,275.98 595.88,273.27 596.82,270.59 597.77,267.97 598.71,265.63 599.66,263.45 600.61,261.35 601.55,259.35 602.50,257.45 603.44,255.64 604.39,253.92 605.33,252.28 606.28,250.72 607.22,249.24 608.17,247.82 609.11,246.46 610.06,245.15 611.00,243.89 611.95,242.67 612.89,241.49 613.84,240.34 614.79,239.22 615.73,238.12 616.68,237.05 617.62,235.99 618.57,234.95 619.51,233.93 620.46,232.92 621.40,231.93 622.35,230.95 623.29,229.99 624.24,229.06 625.18,228.14 626.13,227.25 627.08,226.38 628.02,225.55 628.97,224.76 629.91,224.01 630.86,223.30 631.80,222.65 632.75,222.05 633.69,221.52 634.64,221.06 635.58,220.68 636.53,220.38 637.47,220.17 638.42,220.05 639.37,220.04 640.31,220.13 641.26,220.33 642.20,220.65 643.15,221.08 644.09,221.64 645.04,222.32 645.98,223.13 646.93,224.07 647.87,225.15 648.82,226.35 649.76,227.68 650.71,229.14 651.66,230.73 652.60,232.44 653.55,234.28 654.49,236.23 655.44,238.30 656.38,240.48 657.33,242.77 658.27,245.16 659.22,247.64 660.16,250.41 661.11,253.37 662.05,256.42 663.00,259.55 663.95,262.76 664.89,266.03 665.84,269.34 666.78,272.68 667.73,276.02 668.67,279.35 669.62,282.64 670.56,285.80 671.51,288.67 672.45,291.47 673.40,294.18 674.34,296.79 675.29,299.29 676.24,301.69 677.18,303.97 678.13,306.14 679.07,308.20 680.02,310.15 680.96,311.98 681.91,313.70 682.85,315.30 683.80,316.79 684.74,318.16 685.69,319.43 686.63,320.57 687.58,321.61 688.53,322.54 689.47,323.36 690.42,324.07 691.36,324.69 692.31,325.21 693.25,325.63 694.20,325.97 695.14,326.23 696.09,326.41 697.03,326.52 697.98,326.56 698.92,326.55 699.87,326.48 700.82,326.35 701.76,326.18 702.71,325.98 703.65,325.73 704.60,325.44 705.54,325.13 706.49,324.78 707.43,324.40 708.38,323.99 709.32,323.55 710.27,323.08 711.21,322.57 712.16,322.03 713.11,321.44 714.05,320.82 715.00,320.14 715.94,319.41 716.89,318.63 717.83,317.79 718.78,316.88 719.72,315.91 720.67,314.87 721.61,313.75 722.56,312.55 723.50,311.28 724.45,309.93 725.39,308.49 726.34,306.97 727.29,305.36 728.23,303.67 729.18,301.89 730.12,300.04 731.07,298.09 732.01,296.07 732.96,293.74 733.90,291.26 734.85,288.70 735.79,286.06 736.74,283.35 737.68,280.59 738.63,277.79 739.58,274.96 740.52,272.15 741.47,269.35 742.41,266.59 743.36,264.04 744.30,261.71 745.25,259.45 746.19,257.27 747.14,255.17 748.08,253.16 749.03,251.22 749.97,249.36 750.92,247.57 751.87,245.84 752.81,244.16 753.76,242.54 754.70,240.96 755.65,239.43 756.59,237.93 757.54,236.47 758.48,235.04 759.43,233.64"/>
<line x1="828" y1="126" x2="856" y2="126" stroke="#258a45" stroke-width="3"/>
<text x="864" y="130" font-family="Arial" font-size="13">lateral</text>
</svg>