<svg xmlns="http://www.w3.org/2000/svg" width="920" height="520" viewBox="0 0 920 520">
<rect width="100%" height="100%" fill="white"/>
<text x="460" y="28" text-anchor="middle" font-family="Arial" font-size="20">Coupled Skeleton Kinematics Health</text>
<rect x="78" y="54" width="720" height="380" fill="#fafafa" stroke="#222"/>
<line x1="78" y1="434" x2="798" y2="434" stroke="#222"/>
<line x1="78" y1="54" x2="78" y2="434" stroke="#222"/>
<text x="438" y="492" text-anchor="middle" font-family="Arial" font-size="14">time (s)</text>
<text transform="translate(22,244) rotate(-90)" text-anchor="middle" font-family="Arial" font-size="14">error</text>
<text x="78" y="456" text-anchor="middle" font-family="Arial" font-size="11">-2.04</text>
<text x="798" y="456" text-anchor="middle" font-family="Arial" font-size="11">36.04</text>
<text x="68" y="434" text-anchor="end" font-family="Arial" font-size="11">-0.00</text>
<text x="68" y="59" text-anchor="end" font-family="Arial" font-size="11">0.00</text>
<polyline fill="none" stroke="#2f6fbb" stroke-width="2.2" points="116.57,413.64 117.52,413.64 118.46,244.00 119.41,413.64 120.35,244.00 121.30,244.00 122.24,413.64 123.19,413.64 124.13,413.64 125.08,413.64 126.03,413.64 126.97,413.64 127.92,413.64 128.86,244.00 129.81,413.64 130.75,413.64 131.70,413.64 132.64,413.64 133.59,413.64 134.53,413.64 135.48,413.64 136.42,244.00 137.37,244.00 138.32,413.64 139.26,413.64 140.21,413.64 141.15,244.00 142.10,413.64 143.04,244.00 143.99,413.64 144.93,413.64 145.88,244.00 146.82,413.64 147.77,413.64 148.71,413.64 149.66,413.64 150.61,413.64 151.55,413.64 152.50,413.64 153.44,413.64 154.39,244.00 155.33,413.64 156.28,244.00 157.22,74.36 158.17,413.64 159.11,244.00 160.06,413.64 161.00,244.00 161.95,413.64 162.89,244.00 163.84,244.00 164.79,244.00 165.73,74.36 166.68,244.00 167.62,413.64 168.57,413.64 169.51,244.00 170.46,244.00 171.40,413.64 172.35,413.64 173.29,413.64 174.24,74.36 175.18,413.64 176.13,413.64 177.08,74.36 178.02,413.64 178.97,413.64 179.91,413.64 180.86,413.64 181.80,413.64 182.75,244.00 183.69,413.64 184.64,413.64 185.58,413.64 186.53,413.64 187.47,413.64 188.42,244.00 189.37,413.64 190.31,413.64 191.26,244.00 192.20,244.00 193.15,413.64 194.09,413.64 195.04,74.36 195.98,413.64 196.93,244.00 197.87,244.00 198.82,413.64 199.76,413.64 200.71,413.64 201.66,413.64 202.60,413.64 203.55,413.64 204.49,74.36 205.44,413.64 206.38,413.64 207.33,413.64 208.27,244.00 209.22,413.64 210.16,413.64 211.11,244.00 212.05,244.00 213.00,413.64 213.95,413.64 214.89,244.00 215.84,244.00 216.78,244.00 217.73,74.36 218.67,244.00 219.62,413.64 220.56,413.64 221.51,413.64 222.45,413.64 223.40,413.64 224.34,244.00 225.29,413.64 226.24,244.00 227.18,413.64 228.13,413.64 229.07,244.00 230.02,244.00 230.96,244.00 231.91,244.00 232.85,244.00 233.80,244.00 234.74,413.64 235.69,244.00 236.63,413.64 237.58,74.36 238.53,413.64 239.47,244.00 240.42,413.64 241.36,244.00 242.31,244.00 243.25,413.64 244.20,413.64 245.14,413.64 246.09,413.64 247.03,244.00 247.98,413.64 248.92,413.64 249.87,244.00 250.82,413.64 251.76,413.64 252.71,413.64 253.65,74.36 254.60,413.64 255.54,413.64 256.49,244.00 257.43,413.64 258.38,74.36 259.32,413.64 260.27,413.64 261.21,74.36 262.16,244.00 263.11,244.00 264.05,244.00 265.00,244.00 265.94,244.00 266.89,244.00 267.83,413.64 268.78,413.64 269.72,244.00 270.67,413.64 271.61,244.00 272.56,74.36 273.50,413.64 274.45,413.64 275.39,244.00 276.34,413.64 277.29,413.64 278.23,413.64 279.18,413.64 280.12,413.64 281.07,413.64 282.01,413.64 282.96,413.64 283.90,413.64 284.85,413.64 285.79,413.64 286.74,413.64 287.68,413.64 288.63,244.00 289.58,244.00 290.52,413.64 291.47,413.64 292.41,74.36 293.36,244.00 294.30,413.64 295.25,74.36 296.19,413.64 297.14,413.64 298.08,413.64 299.03,413.64 299.97,74.36 300.92,413.64 301.87,413.64 302.81,413.64 303.76,244.00 304.70,413.64 305.65,244.00 306.59,413.64 307.54,74.36 308.48,413.64 309.43,413.64 310.37,413.64 311.32,413.64 312.26,413.64 313.21,413.64 314.16,413.64 315.10,244.00 316.05,413.64 316.99,244.00 317.94,244.00 318.88,413.64 319.83,244.00 320.77,413.64 321.72,244.00 322.66,413.64 323.61,244.00 324.55,244.00 325.50,413.64 326.45,413.64 327.39,413.64 328.34,413.64 329.28,244.00 330.23,244.00 331.17,413.64 332.12,244.00 333.06,413.64 334.01,413.64 334.95,413.64 335.90,413.64 336.84,244.00 337.79,413.64 338.74,413.64 339.68,413.64 340.63,244.00 341.57,413.64 342.52,244.00 343.46,413.64 344.41,413.64 345.35,413.64 346.30,413.64 347.24,413.64 348.19,244.00 349.13,244.00 350.08,244.00 351.03,244.00 351.97,413.64 352.92,74.36 353.86,413.64 354.81,413.64 355.75,413.64 356.70,413.64 357.64,244.00 358.59,413.64 359.53,413.64 360.48,413.64 361.42,413.64 362.37,244.00 363.32,413.64 364.26,244.00 365.21,413.64 366.15,413.64 367.10,74.36 368.04,244.00 368.99,413.64 369.93,74.36 370.88,74.36 371.82,413.64 372.77,244.00 373.71,413.64 374.66,413.64 375.61,244.00 376.55,74.36 377.50,413.64 378.44,413.64 379.39,413.64 380.33,244.00 381.28,413.64 382.22,413.64 383.17,413.64 384.11,413.64 385.06,244.00 386.00,413.64 386.95,413.64 387.89,413.64 388.84,413.64 389.79,413.64 390.73,244.00 391.68,413.64 392.62,244.00 393.57,413.64 394.51,413.64 395.46,413.64 396.40,413.64 397.35,413.64 398.29,413.64 399.24,413.64 400.18,244.00 401.13,244.00 402.08,244.00 403.02,413.64 403.97,413.64 404.91,413.64 405.86,413.64 406.80,244.00 407.75,244.00 408.69,413.64 409.64,244.00 410.58,413.64 411.53,244.00 412.47,413.64 413.42,413.64 414.37,244.00 415.31,244.00 416.26,413.64 417.20,413.64 418.15,244.00 419.09,244.00 420.04,413.64 420.98,413.64 421.93,413.64 422.87,413.64 423.82,413.64 424.76,413.64 425.71,74.36 426.66,413.64 427.60,244.00 428.55,413.64 429.49,244.00 430.44,244.00 431.38,74.36 432.33,413.64 433.27,413.64 434.22,244.00 435.16,413.64 436.11,413.64 437.05,413.64 438.00,244.00 438.95,244.00 439.89,244.00 440.84,413.64 441.78,244.00 442.73,244.00 443.67,244.00 444.62,244.00 445.56,413.64 446.51,74.36 447.45,244.00 448.40,244.00 449.34,413.64 450.29,413.64 451.24,413.64 452.18,413.64 453.13,244.00 454.07,244.00 455.02,244.00 455.96,244.00 456.91,413.64 457.85,413.64 458.80,244.00 459.74,244.00 460.69,74.36 461.63,413.64 462.58,244.00 463.53,244.00 464.47,244.00 465.42,413.64 466.36,413.64 467.31,413.64 468.25,244.00 469.20,413.64 470.14,413.64 471.09,413.64 472.03,244.00 472.98,413.64 473.92,413.64 474.87,413.64 475.82,413.64 476.76,413.64 477.71,244.00 478.65,413.64 479.60,413.64 480.54,413.64 481.49,413.64 482.43,413.64 483.38,413.64 484.32,413.64 485.27,244.00 486.21,244.00 487.16,244.00 488.11,413.64 489.05,413.64 490.00,413.64 490.94,413.64 491.89,244.00 492.83,413.64 493.78,244.00 494.72,244.00 495.67,244.00 496.61,413.64 497.56,413.64 498.50,244.00 499.45,244.00 500.39,244.00 501.34,413.64 502.29,413.64 503.23,413.64 504.18,413.64 505.12,244.00 506.07,244.00 507.01,413.64 507.96,413.64 508.90,244.00 509.85,244.00 510.79,413.64 511.74,74.36 512.68,413.64 513.63,413.64 514.58,413.64 515.52,74.36 516.47,413.64 517.41,244.00 518.36,413.64 519.30,413.64 520.25,413.64 521.19,413.64 522.14,413.64 523.08,413.64 524.03,74.36 524.97,413.64 525.92,244.00 526.87,244.00 527.81,244.00 528.76,244.00 529.70,413.64 530.65,74.36 531.59,413.64 532.54,413.64 533.48,413.64 534.43,413.64 535.37,413.64 536.32,413.64 537.26,244.00 538.21,244.00 539.16,74.36 540.10,413.64 541.05,413.64 541.99,413.64 542.94,244.00 543.88,413.64 544.83,413.64 545.77,74.36 546.72,413.64 547.66,244.00 548.61,244.00 549.55,244.00 550.50,413.64 551.45,74.36 552.39,413.64 553.34,413.64 554.28,413.64 555.23,413.64 556.17,413.64 557.12,413.64 558.06,413.64 559.01,244.00 559.95,413.64 560.90,244.00 561.84,413.64 562.79,413.64 563.74,413.64 564.68,413.64 565.63,244.00 566.57,244.00 567.52,413.64 568.46,413.64 569.41,413.64 570.35,74.36 571.30,244.00 572.24,413.64 573.19,244.00 574.13,413.64 575.08,413.64 576.03,244.00 576.97,413.64 577.92,244.00 578.86,244.00 579.81,74.36 580.75,244.00 581.70,413.64 582.64,413.64 583.59,413.64 584.53,413.64 585.48,413.64 586.42,413.64 587.37,413.64 588.32,413.64 589.26,413.64 590.21,244.00 591.15,413.64 592.10,413.64 593.04,413.64 593.99,244.00 594.93,413.64 595.88,74.36 596.82,413.64 597.77,74.36 598.71,413.64 599.66,413.64 600.61,244.00 601.55,413.64 602.50,413.64 603.44,413.64 604.39,413.64 605.33,244.00 606.28,244.00 607.22,413.64 608.17,74.36 609.11,413.64 610.06,413.64 611.00,413.64 611.95,244.00 612.89,413.64 613.84,413.64 614.79,413.64 615.73,244.00 616.68,244.00 617.62,244.00 618.57,244.00 619.51,413.64 620.46,244.00 621.40,244.00 622.35,74.36 623.29,413.64 624.24,413.64 625.18,413.64 626.13,413.64 627.08,244.00 628.02,413.64 628.97,244.00 629.91,244.00 630.86,413.64 631.80,244.00 632.75,244.00 633.69,413.64 634.64,244.00 635.58,413.64 636.53,413.64 637.47,413.64 638.42,244.00 639.37,413.64 640.31,413.64 641.26,413.64 642.20,413.64 643.15,413.64 644.09,244.00 645.04,244.00 645.98,413.64 646.93,244.00 647.87,413.64 648.82,413.64 649.76,244.00 650.71,413.64 651.66,413.64 652.60,244.00 653.55,413.64 654.49,413.64 655.44,413.64 656.38,244.00 657.33,244.00 658.27,244.00 659.22,413.64 660.16,74.36 661.11,244.00 662.05,244.00 663.00,413.64 663.95,413.64 664.89,413.64 665.84,74.36 666.78,413.64 667.73,413.64 668.67,413.64 669.62,244.00 670.56,74.36 671.51,413.64 672.45,413.64 673.40,244.00 674.34,413.64 675.29,413.64 676.24,244.00 677.18,413.64 678.13,413.64 679.07,244.00 680.02,413.64 680.96,244.00 681.91,413.64 682.85,413.64 683.80,413.64 684.74,413.64 685.69,413.64 686.63,413.64 687.58,244.00 688.53,413.64 689.47,74.36 690.42,413.64 691.36,244.00 692.31,244.00 693.25,413.64 694.20,74.36 695.14,244.00 696.09,413.64 697.03,413.64 697.98,244.00 698.92,413.64 699.87,413.64 700.82,413.64 701.76,74.36 702.71,244.00 703.65,413.64 704.60,413.64 705.54,244.00 706.49,74.36 707.43,413.64 708.38,413.64 709.32,244.00 710.27,244.00 711.21,413.64 712.16,413.64 713.11,413.64 714.05,413.64 715.00,413.64 715.94,244.00 716.89,74.36 717.83,413.64 718.78,413.64 719.72,413.64 720.67,244.00 721.61,413.64 722.56,244.00 723.50,413.64 724.45,74.36 725.39,244.00 726.34,244.00 727.29,244.00 728.23,413.64 729.18,413.64 730.12,413.64 731.07,413.64 732.01,244.00 732.96,413.64 733.90,413.64 734.85,413.64 735.79,413.64 736.74,413.64 737.68,413.64 738.63,413.64 739.58,413.64 740.52,413.64 741.47,244.00 742.41,244.00 743.36,244.00 744.30,74.36 745.25,413.64 746.19,74.36 747.14,244.00 748.08,244.00 749.03,244.00 749.97,244.00 750.92,413.64 751.87,244.00 752.81,244.00 753.76,413.64 754.70,244.00 755.65,244.00 756.59,74.36 757.54,244.00 758.48,244.00 759.43,244.00"/>
<line x1="828" y1="78" x2="856" y2="78" stroke="#2f6fbb" stroke-width="3"/>
<text x="864" y="82" font-family="Arial" font-size="13">quaternion norm error</text>
<polyline fill="none" stroke="#c23b3b" stroke-width="2.2" points="116.57,413.64 117.52,413.64 118.46,411.51 119.41,244.00 120.35,74.36 121.30,74.36 122.24,244.00 123.19,244.00 124.13,244.00 125.08,74.36 126.03,410.86 126.97,244.00 127.92,244.00 128.86,244.00 129.81,244.00 130.75,244.00 131.70,244.00 132.64,244.00 133.59,402.07 134.53,244.00 135.48,244.00 136.42,244.00 137.37,74.36 138.32,244.00 139.26,388.35 140.21,74.36 141.15,401.87 142.10,74.36 143.04,244.00 143.99,244.00 144.93,74.36 145.88,244.00 146.82,389.86 147.77,398.58 148.71,244.00 149.66,244.00 150.61,244.00 151.55,376.28 152.50,74.36 153.44,381.28 154.39,407.41 155.33,365.27 156.28,401.69 157.22,244.00 158.17,244.00 159.11,244.00 160.06,74.36 161.00,392.19 161.95,353.55 162.89,74.36 163.84,74.36 164.79,329.48 165.73,244.00 166.68,409.56 167.62,74.36 168.57,317.35 169.51,74.36 170.46,74.36 171.40,74.36 172.35,244.00 173.29,244.00 174.24,74.36 175.18,359.26 176.13,74.36 177.08,74.36 178.02,244.00 178.97,74.36 179.91,367.42 180.86,74.36 181.80,74.36 182.75,396.25 183.69,244.00 184.64,343.32 185.58,406.35 186.53,74.36 187.47,244.00 188.42,244.00 189.37,374.55 190.31,244.00 191.26,74.36 192.20,244.00 193.15,385.98 194.09,244.00 195.04,244.00 195.98,330.81 196.93,244.00 197.87,357.32 198.82,280.86 199.76,374.55 200.71,325.26 201.66,308.03 202.60,330.31 203.55,267.65 204.49,244.00 205.44,244.00 206.38,244.00 207.33,74.36 208.27,244.00 209.22,244.00 210.16,244.00 211.11,74.36 212.05,403.07 213.00,244.00 213.95,74.36 214.89,74.36 215.84,74.36 216.78,244.00 217.73,293.51 218.67,386.89 219.62,244.00 220.56,74.36 221.51,244.00 222.45,244.00 223.40,244.00 224.34,244.00 225.29,244.00 226.24,244.00 227.18,74.36 228.13,244.00 229.07,244.00 230.02,244.00 230.96,244.00 231.91,74.36 232.85,390.28 233.80,410.68 234.74,244.00 235.69,244.00 236.63,336.84 237.58,244.00 238.53,244.00 239.47,398.77 240.42,244.00 241.36,244.00 242.31,400.60 243.25,369.99 244.20,244.00 245.14,74.36 246.09,74.36 247.03,397.90 247.98,244.00 248.92,244.00 249.87,412.32 250.82,403.70 251.76,400.43 252.71,410.83 253.65,403.12 254.60,403.21 255.54,244.00 256.49,244.00 257.43,244.00 258.38,74.36 259.32,404.28 260.27,244.00 261.21,74.36 262.16,244.00 263.11,244.00 264.05,74.36 265.00,244.00 265.94,74.36 266.89,244.00 267.83,409.54 268.78,412.48 269.72,74.36 270.67,406.85 271.61,244.00 272.56,405.36 273.50,409.00 274.45,244.00 275.39,244.00 276.34,244.00 277.29,244.00 278.23,244.00 279.18,244.00 280.12,407.60 281.07,409.25 282.01,74.36 282.96,74.36 283.90,244.00 284.85,404.12 285.79,74.36 286.74,244.00 287.68,244.00 288.63,400.64 289.58,408.26 290.52,397.49 291.47,406.35 292.41,74.36 293.36,244.00 294.30,372.18 295.25,244.00 296.19,388.59 297.14,365.56 298.08,386.76 299.03,368.91 299.97,74.36 300.92,244.00 301.87,395.01 302.81,382.25 303.76,74.36 304.70,244.00 305.65,244.00 306.59,244.00 307.54,244.00 308.48,74.36 309.43,392.05 310.37,244.00 311.32,346.03 312.26,339.85 313.21,392.44 314.16,345.49 315.10,244.00 316.05,244.00 316.99,244.00 317.94,74.36 318.88,74.36 319.83,244.00 320.77,74.36 321.72,398.90 322.66,405.69 323.61,406.11 324.55,404.86 325.50,399.06 326.45,391.61 327.39,364.61 328.34,368.08 329.28,309.27 330.23,74.36 331.17,244.00 332.12,74.36 333.06,340.58 334.01,376.70 334.95,300.66 335.90,332.80 336.84,244.00 337.79,244.00 338.74,74.36 339.68,74.36 340.63,244.00 341.57,326.50 342.52,244.00 343.46,371.56 344.41,244.00 345.35,244.00 346.30,338.10 347.24,244.00 348.19,244.00 349.13,388.30 350.08,282.60 351.03,244.00 351.97,74.36 352.92,74.36 353.86,244.00 354.81,408.34 355.75,244.00 356.70,74.36 357.64,244.00 358.59,74.36 359.53,74.36 360.48,244.00 361.42,399.40 362.37,311.51 363.32,244.00 364.26,280.45 365.21,74.36 366.15,244.00 367.10,340.17 368.04,244.00 368.99,244.00 369.93,388.91 370.88,382.04 371.82,258.88 372.77,244.00 373.71,74.36 374.66,244.00 375.61,244.00 376.55,244.00 377.50,74.36 378.44,393.10 379.39,244.00 380.33,404.37 381.28,244.00 382.22,372.72 383.17,244.00 384.11,371.73 385.06,391.77 386.00,74.36 386.95,244.00 387.89,244.00 388.84,244.00 389.79,244.00 390.73,401.63 391.68,244.00 392.62,74.36 393.57,244.00 394.51,74.36 395.46,244.00 396.40,396.58 397.35,244.00 398.29,244.00 399.24,402.87 400.18,404.45 401.13,402.54 402.08,244.00 403.02,401.38 403.97,244.00 404.91,244.00 405.86,244.00 406.80,244.00 407.75,244.00 408.69,403.45 409.64,244.00 410.58,244.00 411.53,410.00 412.47,244.00 413.42,244.00 414.37,74.36 415.31,412.15 416.26,74.36 417.20,244.00 418.15,404.45 419.09,405.44 420.04,399.40 420.98,244.00 421.93,244.00 422.87,74.36 423.82,244.00 424.76,403.70 425.71,244.00 426.66,407.68 427.60,74.36 428.55,74.36 429.49,244.00 430.44,244.00 431.38,393.60 432.33,406.85 433.27,74.36 434.22,244.00 435.16,244.00 436.11,400.06 437.05,244.00 438.00,244.00 438.95,244.00 439.89,74.36 440.84,244.00 441.78,74.36 442.73,244.00 443.67,396.58 444.62,74.36 445.56,74.36 446.51,403.04 447.45,244.00 448.40,244.00 449.34,375.36 450.29,244.00 451.24,74.36 452.18,344.15 453.13,244.00 454.07,244.00 455.02,244.00 455.96,244.00 456.91,244.00 457.85,244.00 458.80,74.36 459.74,74.36 460.69,244.00 461.63,390.62 462.58,74.36 463.53,74.36 464.47,244.00 465.42,74.36 466.36,244.00 467.31,287.40 468.25,244.00 469.20,244.00 470.14,397.74 471.09,74.36 472.03,74.36 472.98,330.48 473.92,244.00 474.87,244.00 475.82,395.09 476.76,301.32 477.71,410.99 478.65,383.82 479.60,244.00 480.54,244.00 481.49,356.65 482.43,400.39 483.38,244.00 484.32,74.36 485.27,244.00 486.21,74.36 487.16,378.19 488.11,244.00 489.05,74.36 490.00,244.00 490.94,360.96 491.89,74.36 492.83,244.00 493.78,328.49 494.72,381.83 495.67,244.00 496.61,244.00 497.56,301.32 498.50,369.58 499.45,349.36 500.39,74.36 501.34,74.36 502.29,74.36 503.23,366.59 504.18,325.84 505.12,380.18 506.07,74.36 507.01,244.00 507.96,74.36 508.90,74.36 509.85,244.00 510.79,244.00 511.74,405.69 512.68,74.36 513.63,244.00 514.58,281.23 515.52,244.00 516.47,74.36 517.41,244.00 518.36,74.36 519.30,293.06 520.25,244.00 521.19,244.00 522.14,404.37 523.08,371.48 524.03,408.34 524.97,244.00 525.92,345.06 526.87,403.79 527.81,244.00 528.76,244.00 529.70,244.00 530.65,74.36 531.59,244.00 532.54,74.36 533.48,370.74 534.43,74.36 535.37,400.39 536.32,389.29 537.26,74.36 538.21,244.00 539.16,74.36 540.10,408.76 541.05,244.00 541.99,244.00 542.94,400.89 543.88,400.72 544.83,412.48 545.77,400.06 546.72,244.00 547.66,244.00 548.61,244.00 549.55,244.00 550.50,403.04 551.45,402.29 552.39,244.00 553.34,380.92 554.28,403.54 555.23,244.00 556.17,74.36 557.12,411.65 558.06,244.00 559.01,244.00 559.95,244.00 560.90,244.00 561.84,407.02 562.79,244.00 563.74,411.65 564.68,244.00 565.63,74.36 566.57,405.44 567.52,244.00 568.46,244.00 569.41,392.27 570.35,244.00 571.30,244.00 572.24,244.00 573.19,74.36 574.13,408.84 575.08,244.00 576.03,409.67 576.97,392.11 577.92,381.83 578.86,74.36 579.81,403.04 580.75,405.44 581.70,244.00 582.64,390.78 583.59,244.00 584.53,399.56 585.48,244.00 586.42,244.00 587.37,383.09 588.32,244.00 589.26,244.00 590.21,244.00 591.15,74.36 592.10,74.36 593.04,383.33 593.99,74.36 594.93,386.14 595.88,383.99 596.82,367.17 597.77,340.09 598.71,244.00 599.66,244.00 600.61,244.00 601.55,365.43 602.50,365.93 603.44,244.00 604.39,244.00 605.33,355.83 606.28,74.36 607.22,244.00 608.17,244.00 609.11,74.36 610.06,403.04 611.00,244.00 611.95,244.00 612.89,74.36 613.84,344.73 614.79,74.36 615.73,244.00 616.68,297.68 617.62,371.89 618.57,387.80 619.51,395.09 620.46,244.00 621.40,393.76 622.35,307.62 623.29,74.36 624.24,74.36 625.18,332.80 626.13,302.31 627.08,74.36 628.02,244.00 628.97,296.35 629.91,244.00 630.86,74.36 631.80,397.74 632.75,244.00 633.69,378.52 634.64,244.00 635.58,244.00 636.53,74.36 637.47,74.36 638.42,74.36 639.37,325.51 640.31,244.00 641.26,244.00 642.20,74.36 643.15,74.36 644.09,74.36 645.04,244.00 645.98,244.00 646.93,244.00 647.87,312.25 648.82,309.60 649.76,392.11 650.71,244.00 651.66,244.00 652.60,400.39 653.55,244.00 654.49,244.00 655.44,347.04 656.38,74.36 657.33,74.36 658.27,244.00 659.22,403.04 660.16,244.00 661.11,244.00 662.05,244.00 663.00,244.00 663.95,74.36 664.89,293.04 665.84,244.00 666.78,342.16 667.73,389.54 668.67,244.00 669.62,74.36 670.56,244.00 671.51,401.71 672.45,74.36 673.40,378.85 674.34,244.00 675.29,244.00 676.24,396.25 677.18,384.82 678.13,244.00 679.07,407.93 680.02,388.96 680.96,404.70 681.91,244.00 682.85,391.36 683.80,74.36 684.74,244.00 685.69,244.00 686.63,74.36 687.58,244.00 688.53,74.36 689.47,244.00 690.42,244.00 691.36,244.00 692.31,244.00 693.25,74.36 694.20,406.44 695.14,395.25 696.09,244.00 697.03,74.36 697.98,244.00 698.92,244.00 699.87,244.00 700.82,244.00 701.76,74.36 702.71,410.33 703.65,244.00 704.60,244.00 705.54,244.00 706.49,244.00 707.43,396.99 708.38,405.36 709.32,244.00 710.27,244.00 711.21,74.36 712.16,74.36 713.11,244.00 714.05,244.00 715.00,244.00 715.94,410.33 716.89,244.00 717.83,244.00 718.78,403.87 719.72,396.41 720.67,394.76 721.61,74.36 722.56,244.00 723.50,367.34 724.45,244.00 725.39,405.26 726.34,74.36 727.29,401.88 728.23,74.36 729.18,244.00 730.12,393.18 731.07,244.00 732.01,388.63 732.96,385.81 733.90,244.00 734.85,343.90 735.79,244.00 736.74,74.36 737.68,74.36 738.63,74.36 739.58,410.33 740.52,244.00 741.47,399.40 742.41,383.16 743.36,386.14 744.30,74.36 745.25,391.77 746.19,244.00 747.14,74.36 748.08,244.00 749.03,244.00 749.97,244.00 750.92,244.00 751.87,244.00 752.81,74.36 753.76,74.36 754.70,364.61 755.65,244.00 756.59,360.63 757.54,295.69 758.48,375.21 759.43,378.52"/>
<line x1="828" y1="102" x2="856" y2="102" stroke="#c23b3b" stroke-width="3"/>
<text x="864" y="106" font-family="Arial" font-size="13">DCM orthogonality error</text>
</svg>