<svg xmlns="http://www.w3.org/2000/svg" width="920" height="520" viewBox="0 0 920 520">
<rect width="100%" height="100%" fill="white"/>
<text x="460" y="28" text-anchor="middle" font-family="Arial" font-size="20">Guidance Rates: Commanded vs Achieved</text>
<rect x="78" y="54" width="720" height="380" fill="#fafafa" stroke="#222"/>
<line x1="78" y1="434" x2="798" y2="434" stroke="#222"/>
<line x1="78" y1="54" x2="78" y2="434" stroke="#222"/>
<text x="438" y="492" text-anchor="middle" font-family="Arial" font-size="14">time (s)</text>
<text transform="translate(22,244) rotate(-90)" text-anchor="middle" font-family="Arial" font-size="14">rate (rad/s)</text>
<text x="78" y="456" text-anchor="middle" font-family="Arial" font-size="11">-2.04</text>
<text x="798" y="456" text-anchor="middle" font-family="Arial" font-size="11">36.04</text>
<text x="68" y="434" text-anchor="end" font-family="Arial" font-size="11">-0.00</text>
<text x="68" y="59" text-anchor="end" font-family="Arial" font-size="11">0.02</text>
<polyline fill="none" stroke="#222222" stroke-width="2.2" points="116.57,378.01 117.52,377.87 118.46,377.74 119.41,377.61 120.35,377.49 121.30,377.37 122.24,377.27 123.19,377.19 124.13,377.11 125.08,377.05 126.03,377.00 126.97,376.97 127.92,376.95 128.86,376.95 129.81,376.95 130.75,376.97 131.70,377.00 132.64,377.04 133.59,377.09 134.53,377.14 135.48,377.20 136.42,377.26 137.37,377.33 138.32,377.39 139.26,377.46 140.21,377.52 141.15,377.57 142.10,377.63 143.04,377.67 143.99,377.71 144.93,377.73 145.88,377.75 146.82,377.76 147.77,377.76 148.71,377.74 149.66,377.72 150.61,377.68 151.55,377.64 152.50,377.58 153.44,377.52 154.39,377.45 155.33,377.37 156.28,377.28 157.22,377.19 158.17,377.09 159.11,376.99 160.06,376.89 161.00,376.78 161.95,376.68 162.89,376.57 163.84,376.47 164.79,376.37 165.73,376.27 166.68,376.18 167.62,376.09 168.57,376.01 169.51,375.93 170.46,375.85 171.40,375.79 172.35,375.73 173.29,375.68 174.24,375.63 175.18,375.59 176.13,375.55 177.08,375.52 178.02,375.50 178.97,375.47 179.91,375.46 180.86,375.45 181.80,375.44 182.75,375.43 183.69,375.42 184.64,375.42 185.58,375.41 186.53,375.41 187.47,375.41 188.42,375.40 189.37,375.39 190.31,375.38 191.26,375.37 192.20,375.35 193.15,375.33 194.09,375.31 195.04,375.28 195.98,375.25 196.93,375.21 197.87,375.17 198.82,375.12 199.76,375.07 200.71,375.01 201.66,374.95 202.60,374.88 203.55,374.81 204.49,374.74 205.44,374.66 206.38,374.58 207.33,374.49 208.27,374.40 209.22,374.31 210.16,374.22 211.11,374.12 212.05,374.02 213.00,373.93 213.95,373.83 214.89,373.73 215.84,373.64 216.78,373.54 217.73,373.45 218.67,373.36 219.62,373.28 220.56,373.19 221.51,373.11 222.45,373.04 223.40,372.97 224.34,372.91 225.29,372.85 226.24,372.79 227.18,372.74 228.13,372.70 229.07,372.67 230.02,372.64 230.96,372.61 231.91,372.59 232.85,372.58 233.80,372.58 234.74,372.57 235.69,372.58 236.63,372.59 237.58,372.60 238.53,372.61 239.47,372.63 240.42,372.65 241.36,372.67 242.31,372.69 243.25,372.71 244.20,372.73 245.14,372.74 246.09,372.76 247.03,372.77 247.98,372.77 248.92,372.77 249.87,372.76 250.82,372.75 251.76,372.73 252.71,372.71 253.65,372.68 254.60,372.64 255.54,372.59 256.49,372.54 257.43,372.49 258.38,372.42 259.32,372.35 260.27,372.28 261.21,372.20 262.16,372.12 263.11,372.04 264.05,371.95 265.00,371.86 265.94,371.78 266.89,371.69 267.83,371.60 268.78,371.52 269.72,371.44 270.67,371.36 271.61,371.29 272.56,371.22 273.50,371.16 274.45,371.10 275.39,371.05 276.34,371.01 277.29,370.96 278.23,370.93 279.18,370.90 280.12,370.88 281.07,370.86 282.01,370.84 282.96,370.83 283.90,370.83 284.85,370.82 285.79,370.82 286.74,370.82 287.68,370.82 288.63,370.82 289.58,370.83 290.52,370.83 291.47,370.83 292.41,370.82 293.36,370.82 294.30,370.81 295.25,370.80 296.19,370.78 297.14,370.76 298.08,370.73 299.03,370.71 299.97,370.67 300.92,370.63 301.87,370.59 302.81,370.55 303.76,370.50 304.70,370.44 305.65,370.38 306.59,370.32 307.54,370.26 308.48,370.19 309.43,370.12 310.37,370.05 311.32,369.98 312.26,369.91 313.21,369.83 314.16,369.76 315.10,369.69 316.05,369.61 316.99,369.54 317.94,369.47 318.88,369.40 319.83,369.33 320.77,369.26 321.72,369.20 322.66,369.14 323.61,369.08 324.55,369.02 325.50,368.96 326.45,368.91 327.39,368.87 328.34,368.82 329.28,368.78 330.23,368.74 331.17,368.70 332.12,368.66 333.06,368.63 334.01,368.60 334.95,368.56 335.90,368.54 336.84,368.51 337.79,368.48 338.74,368.45 339.68,368.43 340.63,368.40 341.57,368.37 342.52,368.34 343.46,368.31 344.41,368.28 345.35,368.25 346.30,368.21 347.24,368.17 348.19,368.13 349.13,368.09 350.08,368.04 351.03,367.99 351.97,367.94 352.92,367.88 353.86,367.82 354.81,367.76 355.75,367.69 356.70,367.62 357.64,367.54 358.59,367.46 359.53,367.38 360.48,367.29 361.42,367.20 362.37,367.11 363.32,367.02 364.26,366.92 365.21,366.82 366.15,366.72 367.10,366.62 368.04,366.52 368.99,366.42 369.93,366.31 370.88,366.21 371.82,366.12 372.77,366.02 373.71,365.93 374.66,365.84 375.61,365.75 376.55,365.67 377.50,365.59 378.44,365.52 379.39,365.45 380.33,365.39 381.28,365.33 382.22,365.29 383.17,365.24 384.11,365.21 385.06,365.18 386.00,365.16 386.95,365.14 387.89,365.13 388.84,365.12 389.79,365.11 390.73,365.11 391.68,365.11 392.62,365.12 393.57,365.12 394.51,365.12 395.46,365.13 396.40,365.13 397.35,365.12 398.29,365.12 399.24,365.11 400.18,365.09 401.13,365.07 402.08,365.05 403.02,365.01 403.97,364.97 404.91,364.93 405.86,364.88 406.80,364.82 407.75,364.75 408.69,364.68 409.64,364.60 410.58,364.52 411.53,364.44 412.47,364.34 413.42,364.25 414.37,364.15 415.31,364.06 416.26,363.96 417.20,363.86 418.15,363.76 419.09,363.66 420.04,363.57 420.98,363.47 421.93,363.38 422.87,363.30 423.82,363.22 424.76,363.14 425.71,363.07 426.66,363.00 427.60,362.94 428.55,362.88 429.49,362.83 430.44,362.78 431.38,362.74 432.33,362.70 433.27,362.67 434.22,362.64 435.16,362.61 436.11,362.58 437.05,362.56 438.00,362.53 438.95,362.51 439.89,362.48 440.84,362.46 441.78,362.43 442.73,362.40 443.67,362.37 444.62,362.33 445.56,362.29 446.51,362.25 447.45,362.20 448.40,362.15 449.34,362.09 450.29,362.03 451.24,361.96 452.18,361.89 453.13,361.81 454.07,361.73 455.02,361.65 455.96,361.56 456.91,361.46 457.85,361.36 458.80,361.26 459.74,361.16 460.69,361.05 461.63,360.94 462.58,360.83 463.53,360.72 464.47,360.61 465.42,360.50 466.36,360.39 467.31,360.28 468.25,360.18 469.20,360.07 470.14,359.97 471.09,359.87 472.03,359.77 472.98,359.68 473.92,359.59 474.87,359.50 475.82,359.42 476.76,359.34 477.71,359.26 478.65,359.19 479.60,359.13 480.54,359.06 481.49,359.00 482.43,358.94 483.38,358.89 484.32,358.83 485.27,358.78 486.21,358.73 487.16,358.68 488.11,358.63 489.05,358.58 490.00,358.53 490.94,358.47 491.89,358.42 492.83,358.36 493.78,358.30 494.72,358.23 495.67,358.17 496.61,358.09 497.56,358.01 498.50,357.93 499.45,357.84 500.39,357.74 501.34,357.64 502.29,357.53 503.23,357.42 504.18,357.30 505.12,357.17 506.07,357.04 507.01,356.90 507.96,356.75 508.90,356.60 509.85,356.45 510.79,356.29 511.74,356.12 512.68,355.96 513.63,355.79 514.58,355.62 515.52,355.45 516.47,355.27 517.41,355.10 518.36,354.93 519.30,354.77 520.25,354.60 521.19,354.44 522.14,354.29 523.08,354.14 524.03,354.00 524.97,353.86 525.92,353.73 526.87,353.61 527.81,353.50 528.76,353.40 529.70,353.31 530.65,353.22 531.59,353.15 532.54,353.08 533.48,353.02 534.43,352.96 535.37,352.92 536.32,352.87 537.26,352.83 538.21,352.79 539.16,352.75 540.10,352.72 541.05,352.68 541.99,352.64 542.94,352.59 543.88,352.54 544.83,352.49 545.77,352.43 546.72,352.36 547.66,352.28 548.61,352.19 549.55,352.09 550.50,351.99 551.45,351.87 552.39,351.75 553.34,351.61 554.28,351.47 555.23,351.32 556.17,351.16 557.12,350.99 558.06,350.82 559.01,350.64 559.95,350.46 560.90,350.28 561.84,350.09 562.79,349.91 563.74,349.72 564.68,349.53 565.63,349.35 566.57,349.17 567.52,348.99 568.46,348.82 569.41,348.65 570.35,348.49 571.30,348.34 572.24,348.19 573.19,348.05 574.13,347.91 575.08,347.79 576.03,347.66 576.97,347.54 577.92,347.43 578.86,347.32 579.81,347.22 580.75,347.12 581.70,347.02 582.64,346.92 583.59,346.82 584.53,346.72 585.48,346.62 586.42,346.52 587.37,346.41 588.32,346.30 589.26,346.19 590.21,346.07 591.15,345.94 592.10,345.81 593.04,345.68 593.99,345.53 594.93,345.38 595.88,345.22 596.82,345.06 597.77,344.89 598.71,344.71 599.66,344.52 600.61,344.33 601.55,344.14 602.50,343.94 603.44,343.74 604.39,343.53 605.33,343.32 606.28,343.10 607.22,342.89 608.17,342.67 609.11,342.46 610.06,342.24 611.00,342.03 611.95,341.82 612.89,341.61 613.84,341.40 614.79,341.20 615.73,341.00 616.68,340.81 617.62,340.62 618.57,340.43 619.51,340.25 620.46,340.08 621.40,339.91 622.35,339.74 623.29,339.58 624.24,339.42 625.18,339.27 626.13,339.12 627.08,338.97 628.02,338.83 628.97,338.69 629.91,338.55 630.86,338.41 631.80,338.27 632.75,338.13 633.69,337.99 634.64,337.84 635.58,337.70 636.53,337.55 637.47,337.39 638.42,337.24 639.37,337.07 640.31,336.90 641.26,336.73 642.20,336.55 643.15,336.36 644.09,336.16 645.04,335.96 645.98,335.75 646.93,335.53 647.87,335.31 648.82,335.08 649.76,334.84 650.71,334.59 651.66,334.34 652.60,334.09 653.55,333.83 654.49,333.56 655.44,333.29 656.38,333.02 657.33,332.75 658.27,332.48 659.22,332.21 660.16,331.94 661.11,331.67 662.05,331.41 663.00,331.15 663.95,330.90 664.89,330.66 665.84,330.42 666.78,330.19 667.73,329.97 668.67,329.77 669.62,329.57 670.56,329.39 671.51,329.22 672.45,329.06 673.40,328.91 674.34,328.77 675.29,328.65 676.24,328.54 677.18,328.44 678.13,328.35 679.07,328.26 680.02,328.18 680.96,328.11 681.91,328.05 682.85,327.98 683.80,327.92 684.74,327.85 685.69,327.79 686.63,327.72 687.58,327.65 688.53,327.57 689.47,327.48 690.42,327.39 691.36,327.29 692.31,327.18 693.25,327.06 694.20,326.93 695.14,326.79 696.09,326.64 697.03,326.49 697.98,326.32 698.92,326.15 699.87,325.97 700.82,325.79 701.76,325.60 702.71,325.41 703.65,325.22 704.60,325.03 705.54,324.84 706.49,324.65 707.43,324.47 708.38,324.29 709.32,324.12 710.27,323.96 711.21,323.81 712.16,323.67 713.11,323.54 714.05,323.41 715.00,323.30 715.94,323.20 716.89,323.11 717.83,323.04 718.78,322.97 719.72,322.91 720.67,322.86 721.61,322.82 722.56,322.79 723.50,322.76 724.45,322.74 725.39,322.73 726.34,322.71 727.29,322.70 728.23,322.69 729.18,322.68 730.12,322.66 731.07,322.65 732.01,322.63 732.96,322.60 733.90,322.58 734.85,322.55 735.79,322.51 736.74,322.47 737.68,322.42 738.63,322.37 739.58,322.31 740.52,322.25 741.47,322.18 742.41,322.11 743.36,322.04 744.30,321.96 745.25,321.88 746.19,321.80 747.14,321.72 748.08,321.64 749.03,321.56 749.97,321.48 750.92,321.41 751.87,321.34 752.81,321.27 753.76,321.21 754.70,321.15 755.65,321.10 756.59,321.05 757.54,321.01 758.48,320.98 759.43,320.95"/>
<line x1="828" y1="78" x2="856" y2="78" stroke="#222222" stroke-width="3"/>
<text x="864" y="82" font-family="Arial" font-size="13">gamma cmd</text>
<polyline fill="none" stroke="#2f6fbb" stroke-width="2.2" points="116.57,413.64 117.52,412.93 118.46,411.48 119.41,409.31 120.35,406.59 121.30,403.48 122.24,400.09 123.19,396.49 124.13,392.77 125.08,389.00 126.03,385.24 126.97,381.55 127.92,378.00 128.86,374.63 129.81,371.51 130.75,368.68 131.70,366.17 132.64,364.02 133.59,362.27 134.53,360.93 135.48,360.01 136.42,359.52 137.37,359.47 138.32,359.83 139.26,360.60 140.21,361.76 141.15,363.27 142.10,365.11 143.04,367.23 143.99,369.59 144.93,372.15 145.88,374.86 146.82,377.66 147.77,380.52 148.71,383.38 149.66,386.19 150.61,388.90 151.55,391.49 152.50,393.90 153.44,396.11 154.39,398.09 155.33,399.82 156.28,401.29 157.22,402.47 158.17,403.37 159.11,403.99 160.06,404.32 161.00,404.38 161.95,404.17 162.89,403.71 163.84,403.02 164.79,402.12 165.73,401.03 166.68,399.77 167.62,398.36 168.57,396.85 169.51,395.25 170.46,393.59 171.40,391.89 172.35,390.20 173.29,388.52 174.24,386.89 175.18,385.33 176.13,383.86 177.08,382.49 178.02,381.24 178.97,380.13 179.91,379.17 180.86,378.36 181.80,377.72 182.75,377.24 183.69,376.92 184.64,376.77 185.58,376.79 186.53,376.97 187.47,377.30 188.42,377.78 189.37,378.39 190.31,379.13 191.26,379.98 192.20,380.94 193.15,381.98 194.09,383.11 195.04,384.29 195.98,385.52 196.93,386.79 197.87,388.07 198.82,389.36 199.76,390.63 200.71,391.89 201.66,393.10 202.60,394.27 203.55,395.37 204.49,396.40 205.44,397.34 206.38,398.18 207.33,398.92 208.27,399.55 209.22,400.05 210.16,400.42 211.11,400.66 212.05,400.76 213.00,400.72 213.95,400.54 214.89,400.22 215.84,399.75 216.78,399.14 217.73,398.40 218.67,397.52 219.62,396.53 220.56,395.42 221.51,394.20 222.45,392.89 223.40,391.50 224.34,390.04 225.29,388.51 226.24,386.95 227.18,385.34 228.13,383.72 229.07,382.09 230.02,380.46 230.96,378.87 231.91,377.31 232.85,375.82 233.80,374.42 234.74,373.11 235.69,371.94 236.63,370.91 237.58,370.04 238.53,369.36 239.47,368.89 240.42,368.62 241.36,368.56 242.31,368.73 243.25,369.12 244.20,369.73 245.14,370.54 246.09,371.55 247.03,372.73 247.98,374.08 248.92,375.57 249.87,377.17 250.82,378.86 251.76,380.61 252.71,382.39 253.65,384.17 254.60,385.93 255.54,387.63 256.49,389.25 257.43,390.75 258.38,392.13 259.32,393.34 260.27,394.39 261.21,395.24 262.16,395.89 263.11,396.33 264.05,396.55 265.00,396.55 265.94,396.34 266.89,395.91 267.83,395.29 268.78,394.47 269.72,393.49 270.67,392.35 271.61,391.08 272.56,389.69 273.50,388.22 274.45,386.69 275.39,385.13 276.34,383.55 277.29,382.00 278.23,380.49 279.18,379.04 280.12,377.69 281.07,376.44 282.01,375.33 282.96,374.36 283.90,373.55 284.85,372.90 285.79,372.43 286.74,372.15 287.68,372.04 288.63,372.10 289.58,372.34 290.52,372.74 291.47,373.30 292.41,373.99 293.36,374.80 294.30,375.72 295.25,376.72 296.19,377.79 297.14,378.91 298.08,380.05 299.03,381.20 299.97,382.35 300.92,383.46 301.87,384.55 302.81,385.58 303.76,386.54 304.70,387.44 305.65,388.25 306.59,388.98 307.54,389.62 308.48,390.16 309.43,390.61 310.37,390.95 311.32,391.19 312.26,391.32 313.21,391.34 314.16,391.26 315.10,391.08 316.05,390.81 316.99,390.44 317.94,389.99 318.88,389.46 319.83,388.87 320.77,388.22 321.72,387.52 322.66,386.79 323.61,386.03 324.55,385.24 325.50,384.46 326.45,383.67 327.39,382.90 328.34,382.15 329.28,381.43 330.23,380.75 331.17,380.12 332.12,379.54 333.06,379.02 334.01,378.57 334.95,378.19 335.90,377.88 336.84,377.66 337.79,377.51 338.74,377.45 339.68,377.47 340.63,377.58 341.57,377.78 342.52,378.06 343.46,378.42 344.41,378.87 345.35,379.39 346.30,379.99 347.24,380.65 348.19,381.38 349.13,382.16 350.08,382.99 351.03,383.87 351.97,384.77 352.92,385.71 353.86,386.65 354.81,387.60 355.75,388.54 356.70,389.47 357.64,390.37 358.59,391.23 359.53,392.04 360.48,392.78 361.42,393.45 362.37,394.04 363.32,394.54 364.26,394.93 365.21,395.21 366.15,395.36 367.10,395.40 368.04,395.30 368.99,395.06 369.93,394.68 370.88,394.17 371.82,393.51 372.77,392.70 373.71,391.75 374.66,390.66 375.61,389.43 376.55,388.07 377.50,386.59 378.44,385.01 379.39,383.35 380.33,381.62 381.28,379.85 382.22,378.07 383.17,376.30 384.11,374.58 385.06,372.94 386.00,371.40 386.95,369.99 387.89,368.74 388.84,367.67 389.79,366.80 390.73,366.14 391.68,365.70 392.62,365.50 393.57,365.52 394.51,365.78 395.46,366.27 396.40,366.97 397.35,367.88 398.29,368.97 399.24,370.23 400.18,371.63 401.13,373.15 402.08,374.76 403.02,376.42 403.97,378.12 404.91,379.82 405.86,381.49 406.80,383.11 407.75,384.63 408.69,386.05 409.64,387.33 410.58,388.45 411.53,389.40 412.47,390.16 413.42,390.72 414.37,391.07 415.31,391.21 416.26,391.15 417.20,390.87 418.15,390.40 419.09,389.74 420.04,388.90 420.98,387.91 421.93,386.78 422.87,385.53 423.82,384.20 424.76,382.79 425.71,381.34 426.66,379.88 427.60,378.42 428.55,377.00 429.49,375.64 430.44,374.36 431.38,373.18 432.33,372.12 433.27,371.20 434.22,370.42 435.16,369.81 436.11,369.36 437.05,369.08 438.00,368.98 438.95,369.05 439.89,369.28 440.84,369.66 441.78,370.20 442.73,370.86 443.67,371.65 444.62,372.54 445.56,373.53 446.51,374.59 447.45,375.70 448.40,376.86 449.34,378.05 450.29,379.25 451.24,380.44 452.18,381.61 453.13,382.74 454.07,383.83 455.02,384.85 455.96,385.79 456.91,386.63 457.85,387.37 458.80,387.99 459.74,388.49 460.69,388.85 461.63,389.07 462.58,389.14 463.53,389.08 464.47,388.87 465.42,388.53 466.36,388.05 467.31,387.45 468.25,386.73 469.20,385.91 470.14,385.00 471.09,384.01 472.03,382.96 472.98,381.85 473.92,380.71 474.87,379.55 475.82,378.39 476.76,377.24 477.71,376.11 478.65,375.04 479.60,374.01 480.54,373.07 481.49,372.20 482.43,371.43 483.38,370.77 484.32,370.23 485.27,369.82 486.21,369.53 487.16,369.38 488.11,369.38 489.05,369.52 490.00,369.81 490.94,370.24 491.89,370.81 492.83,371.52 493.78,372.36 494.72,373.32 495.67,374.41 496.61,375.59 497.56,376.87 498.50,378.23 499.45,379.65 500.39,381.12 501.34,382.62 502.29,384.14 503.23,385.65 504.18,387.13 505.12,388.57 506.07,389.94 507.01,391.23 507.96,392.42 508.90,393.48 509.85,394.39 510.79,395.15 511.74,395.74 512.68,396.13 513.63,396.33 514.58,396.31 515.52,396.08 516.47,395.62 517.41,394.93 518.36,394.01 519.30,392.85 520.25,391.47 521.19,389.86 522.14,388.04 523.08,386.04 524.03,383.86 524.97,381.54 525.92,379.11 526.87,376.61 527.81,374.06 528.76,371.52 529.70,369.03 530.65,366.64 531.59,364.37 532.54,362.28 533.48,360.40 534.43,358.75 535.37,357.38 536.32,356.31 537.26,355.54 538.21,355.10 539.16,354.99 540.10,355.20 541.05,355.74 541.99,356.60 542.94,357.74 543.88,359.16 544.83,360.82 545.77,362.69 546.72,364.73 547.66,366.91 548.61,369.18 549.55,371.51 550.50,373.84 551.45,376.15 552.39,378.37 553.34,380.49 554.28,382.45 555.23,384.23 556.17,385.79 557.12,387.11 558.06,388.16 559.01,388.94 559.95,389.43 560.90,389.63 561.84,389.53 562.79,389.15 563.74,388.49 564.68,387.57 565.63,386.40 566.57,385.03 567.52,383.46 568.46,381.74 569.41,379.90 570.35,377.97 571.30,375.99 572.24,374.00 573.19,372.03 574.13,370.12 575.08,368.30 576.03,366.61 576.97,365.06 577.92,363.69 578.86,362.53 579.81,361.57 580.75,360.84 581.70,360.35 582.64,360.10 583.59,360.09 584.53,360.31 585.48,360.75 586.42,361.41 587.37,362.26 588.32,363.27 589.26,364.44 590.21,365.74 591.15,367.15 592.10,368.63 593.04,370.17 593.99,371.74 594.93,373.32 595.88,374.88 596.82,376.39 597.77,377.84 598.71,379.21 599.66,380.47 600.61,381.61 601.55,382.60 602.50,383.44 603.44,384.11 604.39,384.60 605.33,384.90 606.28,385.00 607.22,384.92 608.17,384.64 609.11,384.18 610.06,383.54 611.00,382.74 611.95,381.78 612.89,380.69 613.84,379.48 614.79,378.17 615.73,376.77 616.68,375.32 617.62,373.83 618.57,372.32 619.51,370.82 620.46,369.34 621.40,367.91 622.35,366.55 623.29,365.28 624.24,364.10 625.18,363.05 626.13,362.14 627.08,361.37 628.02,360.76 628.97,360.32 629.91,360.06 630.86,359.98 631.80,360.08 632.75,360.38 633.69,360.85 634.64,361.51 635.58,362.35 636.53,363.36 637.47,364.52 638.42,365.84 639.37,367.28 640.31,368.85 641.26,370.52 642.20,372.27 643.15,374.09 644.09,375.95 645.04,377.82 645.98,379.69 646.93,381.53 647.87,383.32 648.82,385.02 649.76,386.62 650.71,388.10 651.66,389.42 652.60,390.57 653.55,391.52 654.49,392.25 655.44,392.76 656.38,393.02 657.33,393.02 658.27,392.75 659.22,392.20 660.16,391.39 661.11,390.29 662.05,388.93 663.00,387.29 663.95,385.40 664.89,383.26 665.84,380.89 666.78,378.32 667.73,375.58 668.67,372.69 669.62,369.70 670.56,366.64 671.51,363.57 672.45,360.53 673.40,357.58 674.34,354.76 675.29,352.13 676.24,349.73 677.18,347.62 678.13,345.82 679.07,344.37 680.02,343.31 680.96,342.63 681.91,342.37 682.85,342.52 683.80,343.08 684.74,344.03 685.69,345.37 686.63,347.05 687.58,349.05 688.53,351.33 689.47,353.85 690.42,356.55 691.36,359.38 692.31,362.30 693.25,365.23 694.20,368.14 695.14,370.96 696.09,373.65 697.03,376.15 697.98,378.42 698.92,380.43 699.87,382.12 700.82,383.49 701.76,384.50 702.71,385.14 703.65,385.41 704.60,385.30 705.54,384.83 706.49,384.00 707.43,382.84 708.38,381.37 709.32,379.63 710.27,377.66 711.21,375.49 712.16,373.17 713.11,370.74 714.05,368.26 715.00,365.77 715.94,363.32 716.89,360.96 717.83,358.72 718.78,356.65 719.72,354.79 720.67,353.16 721.61,351.79 722.56,350.70 723.50,349.91 724.45,349.43 725.39,349.26 726.34,349.38 727.29,349.81 728.23,350.51 729.18,351.47 730.12,352.66 731.07,354.05 732.01,355.62 732.96,357.32 733.90,359.13 734.85,361.00 735.79,362.90 736.74,364.80 737.68,366.66 738.63,368.46 739.58,370.17 740.52,371.76 741.47,373.22 742.41,374.51 743.36,375.63 744.30,376.56 745.25,377.30 746.19,377.83 747.14,378.15 748.08,378.26 749.03,378.17 749.97,377.87 750.92,377.37 751.87,376.69 752.81,375.84 753.76,374.85 754.70,373.72 755.65,372.48 756.59,371.15 757.54,369.75 758.48,368.31 759.43,366.85"/>
<line x1="828" y1="102" x2="856" y2="102" stroke="#2f6fbb" stroke-width="3"/>
<text x="864" y="106" font-family="Arial" font-size="13">gamma achieved</text>
<polyline fill="none" stroke="#555555" stroke-width="2.2" points="116.57,167.92 117.52,167.59 118.46,167.26 119.41,166.92 120.35,166.59 121.30,166.26 122.24,165.93 123.19,165.60 124.13,165.28 125.08,164.95 126.03,164.63 126.97,164.31 127.92,163.99 128.86,163.67 129.81,163.35 130.75,163.04 131.70,162.72 132.64,162.41 133.59,162.10 134.53,161.79 135.48,161.48 136.42,161.17 137.37,160.87 138.32,160.56 139.26,160.26 140.21,159.95 141.15,159.65 142.10,159.34 143.04,159.04 143.99,158.73 144.93,158.43 145.88,158.13 146.82,157.82 147.77,157.51 148.71,157.21 149.66,156.90 150.61,156.59 151.55,156.28 152.50,155.97 153.44,155.66 154.39,155.35 155.33,155.04 156.28,154.73 157.22,154.41 158.17,154.10 159.11,153.79 160.06,153.47 161.00,153.16 161.95,152.85 162.89,152.54 163.84,152.22 164.79,151.91 165.73,151.60 166.68,151.29 167.62,150.97 168.57,150.66 169.51,150.35 170.46,150.04 171.40,149.73 172.35,149.42 173.29,149.11 174.24,148.81 175.18,148.50 176.13,148.19 177.08,147.88 178.02,147.57 178.97,147.27 179.91,146.96 180.86,146.65 181.80,146.34 182.75,146.03 183.69,145.72 184.64,145.41 185.58,145.10 186.53,144.79 187.47,144.47 188.42,144.16 189.37,143.84 190.31,143.53 191.26,143.21 192.20,142.89 193.15,142.57 194.09,142.24 195.04,141.92 195.98,141.59 196.93,141.26 197.87,140.93 198.82,140.59 199.76,140.26 200.71,139.92 201.66,139.58 202.60,139.23 203.55,138.89 204.49,138.54 205.44,138.19 206.38,137.84 207.33,137.49 208.27,137.13 209.22,136.77 210.16,136.41 211.11,136.05 212.05,135.69 213.00,135.33 213.95,134.96 214.89,134.59 215.84,134.22 216.78,133.85 217.73,133.48 218.67,133.10 219.62,132.73 220.56,132.35 221.51,131.97 222.45,131.59 223.40,131.21 224.34,130.82 225.29,130.44 226.24,130.05 227.18,129.66 228.13,129.26 229.07,128.87 230.02,128.47 230.96,128.07 231.91,127.66 232.85,127.25 233.80,126.83 234.74,126.41 235.69,125.99 236.63,125.56 237.58,125.13 238.53,124.69 239.47,124.25 240.42,123.80 241.36,123.35 242.31,122.89 243.25,122.43 244.20,121.96 245.14,121.49 246.09,121.01 247.03,120.53 247.98,120.04 248.92,119.55 249.87,119.05 250.82,118.55 251.76,118.05 252.71,117.54 253.65,117.02 254.60,116.51 255.54,115.99 256.49,115.46 257.43,114.94 258.38,114.41 259.32,113.87 260.27,113.34 261.21,112.80 262.16,112.26 263.11,111.72 264.05,111.18 265.00,110.63 265.94,110.08 266.89,109.54 267.83,108.99 268.78,108.44 269.72,107.88 270.67,107.33 271.61,106.78 272.56,106.22 273.50,105.67 274.45,105.12 275.39,104.56 276.34,104.00 277.29,103.45 278.23,102.89 279.18,102.33 280.12,101.78 281.07,101.22 282.01,100.66 282.96,100.10 283.90,99.54 284.85,98.98 285.79,98.43 286.74,97.86 287.68,97.30 288.63,96.74 289.58,96.18 290.52,95.62 291.47,95.05 292.41,94.49 293.36,93.92 294.30,93.35 295.25,92.79 296.19,92.22 297.14,91.64 298.08,91.07 299.03,90.50 299.97,89.92 300.92,89.35 301.87,88.77 302.81,88.19 303.76,87.61 304.70,87.03 305.65,86.45 306.59,85.86 307.54,85.28 308.48,84.70 309.43,84.11 310.37,83.53 311.32,82.94 312.26,82.35 313.21,81.76 314.16,81.17 315.10,80.58 316.05,79.99 316.99,79.40 317.94,78.80 318.88,78.21 319.83,77.61 320.77,77.01 321.72,76.41 322.66,75.81 323.61,75.21 324.55,74.60 325.50,74.36 326.45,74.36 327.39,74.36 328.34,74.36 329.28,74.36 330.23,74.36 331.17,74.36 332.12,74.36 333.06,74.36 334.01,74.36 334.95,74.36 335.90,74.36 336.84,74.36 337.79,74.36 338.74,74.36 339.68,74.36 340.63,74.36 341.57,74.36 342.52,74.36 343.46,74.36 344.41,74.36 345.35,74.36 346.30,74.36 347.24,74.36 348.19,74.36 349.13,74.36 350.08,74.36 351.03,74.36 351.97,74.36 352.92,74.36 353.86,74.36 354.81,74.36 355.75,74.36 356.70,74.36 357.64,74.36 358.59,74.36 359.53,74.36 360.48,74.36 361.42,74.36 362.37,74.36 363.32,74.36 364.26,74.36 365.21,74.36 366.15,74.36 367.10,74.36 368.04,74.36 368.99,74.36 369.93,74.36 370.88,74.36 371.82,74.36 372.77,74.36 373.71,74.36 374.66,74.36 375.61,74.36 376.55,74.36 377.50,74.36 378.44,74.36 379.39,74.36 380.33,74.36 381.28,74.36 382.22,74.36 383.17,74.36 384.11,74.36 385.06,74.36 386.00,74.36 386.95,74.36 387.89,74.36 388.84,74.36 389.79,74.36 390.73,74.36 391.68,74.36 392.62,74.36 393.57,74.36 394.51,74.36 395.46,74.36 396.40,74.36 397.35,74.36 398.29,74.36 399.24,74.36 400.18,74.36 401.13,74.36 402.08,74.36 403.02,74.36 403.97,74.36 404.91,74.36 405.86,74.36 406.80,74.36 407.75,74.36 408.69,74.36 409.64,74.36 410.58,74.36 411.53,74.36 412.47,74.36 413.42,74.36 414.37,74.36 415.31,74.36 416.26,74.36 417.20,74.36 418.15,74.36 419.09,74.36 420.04,74.36 420.98,74.36 421.93,74.36 422.87,74.36 423.82,74.36 424.76,74.36 425.71,74.36 426.66,74.36 427.60,74.36 428.55,74.36 429.49,74.36 430.44,74.36 431.38,74.36 432.33,74.36 433.27,74.36 434.22,74.36 435.16,74.36 436.11,74.36 437.05,74.36 438.00,74.36 438.95,74.36 439.89,74.36 440.84,74.36 441.78,74.36 442.73,74.36 443.67,74.36 444.62,74.36 445.56,74.36 446.51,74.36 447.45,74.36 448.40,74.36 449.34,74.36 450.29,74.36 451.24,74.36 452.18,74.36 453.13,74.36 454.07,74.36 455.02,74.36 455.96,74.36 456.91,74.36 457.85,74.36 458.80,74.36 459.74,74.36 460.69,74.36 461.63,74.36 462.58,74.36 463.53,74.36 464.47,74.36 465.42,74.36 466.36,74.36 467.31,74.36 468.25,74.36 469.20,74.36 470.14,74.36 471.09,74.36 472.03,74.36 472.98,74.36 473.92,74.36 474.87,74.36 475.82,74.36 476.76,74.36 477.71,74.36 478.65,74.36 479.60,74.36 480.54,74.36 481.49,74.36 482.43,74.36 483.38,74.36 484.32,74.36 485.27,74.36 486.21,74.36 487.16,74.36 488.11,74.36 489.05,74.36 490.00,74.36 490.94,74.36 491.89,74.36 492.83,74.36 493.78,74.36 494.72,74.36 495.67,74.36 496.61,74.36 497.56,74.36 498.50,74.36 499.45,74.36 500.39,74.36 501.34,74.36 502.29,74.36 503.23,74.36 504.18,74.36 505.12,74.36 506.07,74.36 507.01,74.36 507.96,74.36 508.90,74.36 509.85,74.36 510.79,74.36 511.74,74.36 512.68,74.36 513.63,74.36 514.58,74.36 515.52,74.36 516.47,74.36 517.41,74.36 518.36,74.36 519.30,74.36 520.25,74.36 521.19,74.36 522.14,74.36 523.08,74.36 524.03,74.36 524.97,74.36 525.92,74.36 526.87,74.36 527.81,74.36 528.76,74.36 529.70,74.36 530.65,74.36 531.59,74.36 532.54,74.36 533.48,74.36 534.43,74.36 535.37,74.36 536.32,74.36 537.26,74.36 538.21,74.36 539.16,74.36 540.10,74.36 541.05,74.36 541.99,74.36 542.94,74.36 543.88,74.36 544.83,74.36 545.77,74.36 546.72,74.36 547.66,74.36 548.61,74.36 549.55,74.36 550.50,74.36 551.45,74.36 552.39,74.36 553.34,74.36 554.28,74.36 555.23,74.36 556.17,74.36 557.12,74.36 558.06,74.36 559.01,74.36 559.95,74.36 560.90,74.36 561.84,74.36 562.79,74.36 563.74,74.36 564.68,74.36 565.63,74.36 566.57,74.36 567.52,74.36 568.46,74.36 569.41,74.36 570.35,74.36 571.30,74.36 572.24,74.36 573.19,74.36 574.13,74.36 575.08,74.36 576.03,74.36 576.97,74.36 577.92,74.36 578.86,74.36 579.81,74.36 580.75,74.36 581.70,74.36 582.64,74.36 583.59,74.36 584.53,74.36 585.48,74.36 586.42,74.36 587.37,74.36 588.32,74.36 589.26,74.36 590.21,74.36 591.15,74.36 592.10,74.36 593.04,74.36 593.99,74.36 594.93,74.36 595.88,74.36 596.82,74.36 597.77,74.36 598.71,74.36 599.66,74.36 600.61,74.36 601.55,74.36 602.50,74.36 603.44,74.36 604.39,74.36 605.33,74.36 606.28,74.36 607.22,74.36 608.17,74.36 609.11,74.36 610.06,74.36 611.00,74.36 611.95,74.36 612.89,74.36 613.84,74.36 614.79,74.36 615.73,74.36 616.68,74.36 617.62,74.36 618.57,74.36 619.51,74.36 620.46,74.36 621.40,74.36 622.35,74.36 623.29,74.36 624.24,74.36 625.18,74.36 626.13,74.36 627.08,74.36 628.02,74.36 628.97,74.36 629.91,74.36 630.86,74.36 631.80,74.36 632.75,74.36 633.69,74.36 634.64,74.36 635.58,74.36 636.53,74.36 637.47,74.36 638.42,74.36 639.37,74.36 640.31,74.36 641.26,74.36 642.20,74.36 643.15,74.36 644.09,74.36 645.04,74.36 645.98,74.36 646.93,74.36 647.87,74.36 648.82,74.36 649.76,74.36 650.71,74.36 651.66,74.36 652.60,74.36 653.55,74.36 654.49,74.36 655.44,74.36 656.38,74.36 657.33,74.36 658.27,74.36 659.22,74.36 660.16,74.36 661.11,74.36 662.05,74.36 663.00,74.36 663.95,74.36 664.89,74.36 665.84,74.36 666.78,74.36 667.73,74.36 668.67,74.36 669.62,74.36 670.56,74.36 671.51,74.36 672.45,74.36 673.40,74.36 674.34,74.36 675.29,74.36 676.24,74.36 677.18,74.36 678.13,74.36 679.07,74.36 680.02,74.36 680.96,74.36 681.91,74.36 682.85,74.36 683.80,74.36 684.74,74.36 685.69,74.36 686.63,74.36 687.58,74.36 688.53,74.36 689.47,74.36 690.42,74.36 691.36,74.36 692.31,74.36 693.25,74.36 694.20,74.36 695.14,74.36 696.09,74.36 697.03,74.36 697.98,74.36 698.92,74.36 699.87,74.36 700.82,74.36 701.76,74.36 702.71,74.36 703.65,74.36 704.60,74.36 705.54,74.36 706.49,74.36 707.43,74.36 708.38,74.36 709.32,74.36 710.27,74.36 711.21,74.36 712.16,74.36 713.11,74.36 714.05,74.36 715.00,74.36 715.94,74.36 716.89,74.36 717.83,74.36 718.78,74.36 719.72,74.36 720.67,74.36 721.61,74.36 722.56,74.36 723.50,74.36 724.45,74.36 725.39,74.36 726.34,74.36 727.29,74.36 728.23,74.36 729.18,74.36 730.12,74.36 731.07,74.36 732.01,74.36 732.96,74.36 733.90,74.36 734.85,74.36 735.79,74.36 736.74,74.36 737.68,74.36 738.63,74.36 739.58,74.36 740.52,74.36 741.47,74.36 742.41,74.36 743.36,74.36 744.30,74.36 745.25,74.36 746.19,74.36 747.14,74.36 748.08,74.36 749.03,74.36 749.97,74.36 750.92,74.36 751.87,74.36 752.81,74.36 753.76,74.36 754.70,74.36 755.65,74.36 756.59,74.36 757.54,74.36 758.48,74.36 759.43,74.36"/>
<line x1="828" y1="126" x2="856" y2="126" stroke="#555555" stroke-width="3"/>
<text x="864" y="130" font-family="Arial" font-size="13">heading cmd</text>
<polyline fill="none" stroke="#8a4fbf" stroke-width="2.2" points="116.57,375.55 117.52,375.39 118.46,374.93 119.41,374.27 120.35,373.48 121.30,372.61 122.24,371.68 123.19,370.72 124.13,369.75 125.08,368.76 126.03,367.76 126.97,366.77 127.92,365.79 128.86,364.82 129.81,363.87 130.75,362.94 131.70,362.04 132.64,361.17 133.59,360.33 134.53,359.53 135.48,358.77 136.42,358.05 137.37,357.38 138.32,356.76 139.26,356.19 140.21,355.67 141.15,355.19 142.10,354.77 143.04,354.41 143.99,354.09 144.93,353.82 145.88,353.59 146.82,353.41 147.77,353.28 148.71,353.18 149.66,353.06 150.61,352.95 151.55,352.84 152.50,352.72 153.44,352.56 154.39,352.37 155.33,352.14 156.28,351.86 157.22,351.54 158.17,351.17 159.11,350.74 160.06,350.31 161.00,349.85 161.95,349.35 162.89,348.84 163.84,348.30 164.79,347.76 165.73,347.20 166.68,346.63 167.62,346.06 168.57,345.48 169.51,344.90 170.46,344.32 171.40,343.74 172.35,343.17 173.29,342.62 174.24,342.08 175.18,341.55 176.13,341.05 177.08,340.58 178.02,340.14 178.97,339.73 179.91,339.35 180.86,339.02 181.80,338.73 182.75,338.47 183.69,338.27 184.64,338.10 185.58,337.99 186.53,337.91 187.47,337.88 188.42,337.89 189.37,337.94 190.31,338.03 191.26,338.16 192.20,338.31 193.15,338.50 194.09,338.71 195.04,338.95 195.98,339.20 196.93,339.46 197.87,339.74 198.82,340.02 199.76,340.31 200.71,340.59 201.66,340.87 202.60,341.15 203.55,341.41 204.49,341.65 205.44,341.89 206.38,342.10 207.33,342.29 208.27,342.47 209.22,342.62 210.16,342.75 211.11,342.86 212.05,342.95 213.00,343.02 213.95,343.07 214.89,343.11 215.84,343.13 216.78,343.15 217.73,343.16 218.67,343.17 219.62,343.18 220.56,343.19 221.51,343.22 222.45,343.26 223.40,343.37 224.34,343.53 225.29,343.74 226.24,344.01 227.18,344.37 228.13,344.81 229.07,345.34 230.02,345.96 230.96,346.67 231.91,347.48 232.85,348.37 233.80,349.31 234.74,350.30 235.69,351.35 236.63,352.44 237.58,353.56 238.53,354.70 239.47,355.85 240.42,357.01 241.36,358.16 242.31,359.31 243.25,360.45 244.20,361.56 245.14,362.65 246.09,363.70 247.03,364.72 247.98,365.69 248.92,366.61 249.87,367.48 250.82,368.28 251.76,369.02 252.71,369.70 253.65,370.30 254.60,370.83 255.54,371.29 256.49,371.67 257.43,371.98 258.38,372.21 259.32,372.36 260.27,372.44 261.21,372.45 262.16,372.39 263.11,372.26 264.05,372.07 265.00,371.81 265.94,371.49 266.89,371.12 267.83,370.70 268.78,370.23 269.72,369.71 270.67,369.16 271.61,368.57 272.56,367.95 273.50,367.29 274.45,366.62 275.39,365.92 276.34,365.21 277.29,364.49 278.23,363.76 279.18,363.02 280.12,362.28 281.07,361.54 282.01,360.80 282.96,360.07 283.90,359.35 284.85,358.65 285.79,357.96 286.74,357.28 287.68,356.63 288.63,356.00 289.58,355.39 290.52,354.80 291.47,354.24 292.41,353.70 293.36,353.19 294.30,352.70 295.25,352.24 296.19,351.80 297.14,351.33 298.08,350.87 299.03,350.40 299.97,349.91 300.92,349.39 301.87,348.85 302.81,348.27 303.76,347.66 304.70,347.01 305.65,346.33 306.59,345.61 307.54,344.90 308.48,344.20 309.43,343.48 310.37,342.77 311.32,342.06 312.26,341.38 313.21,340.71 314.16,340.06 315.10,339.43 316.05,338.82 316.99,338.24 317.94,337.68 318.88,337.14 319.83,336.62 320.77,336.13 321.72,335.67 322.66,335.23 323.61,334.82 324.55,334.45 325.50,334.10 326.45,333.79 327.39,333.51 328.34,333.27 329.28,333.07 330.23,332.91 331.17,332.79 332.12,332.70 333.06,332.66 334.01,332.65 334.95,332.69 335.90,332.76 336.84,332.87 337.79,333.02 338.74,333.20 339.68,333.42 340.63,333.67 341.57,333.95 342.52,334.26 343.46,334.59 344.41,334.95 345.35,335.32 346.30,335.71 347.24,336.12 348.19,336.54 349.13,336.96 350.08,337.39 351.03,337.81 351.97,338.24 352.92,338.66 353.86,339.07 354.81,339.47 355.75,339.85 356.70,340.22 357.64,340.58 358.59,340.91 359.53,341.22 360.48,341.50 361.42,341.76 362.37,342.00 363.32,342.22 364.26,342.41 365.21,342.58 366.15,342.72 367.10,342.85 368.04,342.96 368.99,343.06 369.93,343.20 370.88,343.35 371.82,343.52 372.77,343.73 373.71,343.99 374.66,344.30 375.61,344.67 376.55,345.11 377.50,345.61 378.44,346.18 379.39,346.82 380.33,347.50 381.28,348.21 382.22,348.97 383.17,349.76 384.11,350.58 385.06,351.43 386.00,352.29 386.95,353.17 387.89,354.05 388.84,354.95 389.79,355.85 390.73,356.75 391.68,357.65 392.62,358.54 393.57,359.41 394.51,360.27 395.46,361.11 396.40,361.92 397.35,362.71 398.29,363.45 399.24,364.16 400.18,364.82 401.13,365.44 402.08,366.00 403.02,366.52 403.97,366.98 404.91,367.38 405.86,367.73 406.80,368.02 407.75,368.24 408.69,368.41 409.64,368.52 410.58,368.58 411.53,368.57 412.47,368.51 413.42,368.40 414.37,368.23 415.31,368.02 416.26,367.76 417.20,367.45 418.15,367.10 419.09,366.72 420.04,366.29 420.98,365.84 421.93,365.35 422.87,364.84 423.82,364.30 424.76,363.73 425.71,363.15 426.66,362.56 427.60,361.95 428.55,361.32 429.49,360.69 430.44,360.06 431.38,359.41 432.33,358.77 433.27,358.13 434.22,357.49 435.16,356.86 436.11,356.24 437.05,355.62 438.00,355.01 438.95,354.42 439.89,353.84 440.84,353.27 441.78,352.71 442.73,352.15 443.67,351.55 444.62,350.95 445.56,350.33 446.51,349.68 447.45,349.00 448.40,348.29 449.34,347.54 450.29,346.76 451.24,345.95 452.18,345.11 453.13,344.25 454.07,343.42 455.02,342.59 455.96,341.76 456.91,340.95 457.85,340.16 458.80,339.41 459.74,338.68 460.69,337.98 461.63,337.31 462.58,336.67 463.53,336.06 464.47,335.48 465.42,334.93 466.36,334.41 467.31,333.92 468.25,333.47 469.20,333.04 470.14,332.66 471.09,332.30 472.03,331.98 472.98,331.70 473.92,331.46 474.87,331.26 475.82,331.09 476.76,330.97 477.71,330.89 478.65,330.86 479.60,330.87 480.54,330.92 481.49,331.02 482.43,331.16 483.38,331.35 484.32,331.58 485.27,331.85 486.21,332.17 487.16,332.52 488.11,332.91 489.05,333.33 490.00,333.79 490.94,334.27 491.89,334.77 492.83,335.30 493.78,335.84 494.72,336.40 495.67,336.96 496.61,337.53 497.56,338.09 498.50,338.64 499.45,339.19 500.39,339.72 501.34,340.23 502.29,340.71 503.23,341.17 504.18,341.59 505.12,341.98 506.07,342.33 507.01,342.64 507.96,342.91 508.90,343.14 509.85,343.32 510.79,343.47 511.74,343.57 512.68,343.63 513.63,343.66 514.58,343.67 515.52,343.70 516.47,343.73 517.41,343.76 518.36,343.83 519.30,343.94 520.25,344.09 521.19,344.30 522.14,344.57 523.08,344.91 524.03,345.32 524.97,345.81 525.92,346.32 526.87,346.88 527.81,347.50 528.76,348.17 529.70,348.88 530.65,349.62 531.59,350.40 532.54,351.21 533.48,352.05 534.43,352.92 535.37,353.82 536.32,354.73 537.26,355.66 538.21,356.59 539.16,357.53 540.10,358.47 541.05,359.40 541.99,360.32 542.94,361.22 543.88,362.09 544.83,362.93 545.77,363.73 546.72,364.49 547.66,365.20 548.61,365.86 549.55,366.46 550.50,367.01 551.45,367.49 552.39,367.91 553.34,368.26 554.28,368.55 555.23,368.77 556.17,368.92 557.12,369.01 558.06,369.04 559.01,369.00 559.95,368.90 560.90,368.74 561.84,368.52 562.79,368.24 563.74,367.92 564.68,367.54 565.63,367.12 566.57,366.66 567.52,366.15 568.46,365.61 569.41,365.03 570.35,364.43 571.30,363.79 572.24,363.14 573.19,362.46 574.13,361.76 575.08,361.05 576.03,360.33 576.97,359.60 577.92,358.86 578.86,358.13 579.81,357.39 580.75,356.66 581.70,355.94 582.64,355.22 583.59,354.52 584.53,353.83 585.48,353.15 586.42,352.49 587.37,351.84 588.32,351.15 589.26,350.46 590.21,349.76 591.15,349.04 592.10,348.29 593.04,347.51 593.99,346.70 594.93,345.85 595.88,344.98 596.82,344.08 597.77,343.16 598.71,342.27 599.66,341.38 600.61,340.50 601.55,339.63 602.50,338.79 603.44,337.99 604.39,337.21 605.33,336.47 606.28,335.76 607.22,335.08 608.17,334.43 609.11,333.82 610.06,333.24 611.00,332.70 611.95,332.19 612.89,331.71 613.84,331.28 614.79,330.88 615.73,330.51 616.68,330.20 617.62,329.92 618.57,329.69 619.51,329.50 620.46,329.36 621.40,329.27 622.35,329.23 623.29,329.24 624.24,329.30 625.18,329.41 626.13,329.58 627.08,329.80 628.02,330.06 628.97,330.37 629.91,330.73 630.86,331.14 631.80,331.58 632.75,332.07 633.69,332.58 634.64,333.13 635.58,333.70 636.53,334.29 637.47,334.89 638.42,335.50 639.37,336.12 640.31,336.73 641.26,337.33 642.20,337.92 643.15,338.49 644.09,339.03 645.04,339.54 645.98,340.01 646.93,340.44 647.87,340.83 648.82,341.17 649.76,341.45 650.71,341.69 651.66,341.87 652.60,341.99 653.55,342.06 654.49,342.07 655.44,342.04 656.38,341.96 657.33,341.83 658.27,341.67 659.22,341.48 660.16,341.31 661.11,341.15 662.05,341.01 663.00,340.90 663.95,340.85 664.89,340.87 665.84,340.96 666.78,341.14 667.73,341.41 668.67,341.79 669.62,342.26 670.56,342.83 671.51,343.45 672.45,344.16 673.40,344.95 674.34,345.82 675.29,346.74 676.24,347.73 677.18,348.77 678.13,349.86 679.07,350.99 680.02,352.16 680.96,353.35 681.91,354.57 682.85,355.80 683.80,357.03 684.74,358.26 685.69,359.47 686.63,360.66 687.58,361.82 688.53,362.94 689.47,364.01 690.42,365.02 691.36,365.97 692.31,366.85 693.25,367.65 694.20,368.38 695.14,369.02 696.09,369.58 697.03,370.04 697.98,370.42 698.92,370.71 699.87,370.91 700.82,371.02 701.76,371.04 702.71,370.98 703.65,370.84 704.60,370.62 705.54,370.33 706.49,369.96 707.43,369.53 708.38,369.04 709.32,368.49 710.27,367.89 711.21,367.23 712.16,366.54 713.11,365.81 714.05,365.04 715.00,364.24 715.94,363.42 716.89,362.58 717.83,361.73 718.78,360.86 719.72,359.99 720.67,359.12 721.61,358.26 722.56,357.40 723.50,356.55 724.45,355.72 725.39,354.90 726.34,354.11 727.29,353.34 728.23,352.59 729.18,351.88 730.12,351.19 731.07,350.53 732.01,349.91 732.96,349.26 733.90,348.61 734.85,347.97 735.79,347.31 736.74,346.64 737.68,345.93 738.63,345.20 739.58,344.43 740.52,343.64 741.47,342.82 742.41,341.96 743.36,341.12 744.30,340.29 745.25,339.46 746.19,338.63 747.14,337.83 748.08,337.05 749.03,336.30 749.97,335.58 750.92,334.89 751.87,334.22 752.81,333.59 753.76,332.99 754.70,332.42 755.65,331.88 756.59,331.39 757.54,330.93 758.48,330.50 759.43,330.12"/>
<line x1="828" y1="150" x2="856" y2="150" stroke="#8a4fbf" stroke-width="3"/>
<text x="864" y="154" font-family="Arial" font-size="13">heading achieved</text>
</svg>