<svg xmlns="http://www.w3.org/2000/svg" width="920" height="520" viewBox="0 0 920 520">
<rect width="100%" height="100%" fill="white"/>
<text x="460" y="28" text-anchor="middle" font-family="Arial" font-size="20">3-D Guidance Load Factor</text>
<rect x="78" y="54" width="720" height="380" fill="#fafafa" stroke="#222"/>
<line x1="78" y1="434" x2="798" y2="434" stroke="#222"/>
<line x1="78" y1="54" x2="78" y2="434" stroke="#222"/>
<text x="438" y="492" text-anchor="middle" font-family="Arial" font-size="14">time (s)</text>
<text transform="translate(22,244) rotate(-90)" text-anchor="middle" font-family="Arial" font-size="14">load factor</text>
<text x="78" y="456" text-anchor="middle" font-family="Arial" font-size="11">-2.04</text>
<text x="798" y="456" text-anchor="middle" font-family="Arial" font-size="11">36.04</text>
<text x="68" y="434" text-anchor="end" font-family="Arial" font-size="11">2.27</text>
<text x="68" y="59" text-anchor="end" font-family="Arial" font-size="11">4.10</text>
<line x1="78" y1="74.36" x2="798" y2="74.36" stroke="#c23b3b" stroke-dasharray="8 6"/>
<text x="806" y="78.36" font-family="Arial" font-size="12" fill="#c23b3b">load limit</text>
<polyline fill="none" stroke="#c47f1f" stroke-width="2.2" points="116.57,331.60 117.52,332.18 118.46,332.75 119.41,333.33 120.35,333.90 121.30,334.47 122.24,335.04 123.19,335.61 124.13,336.17 125.08,336.74 126.03,337.30 126.97,337.85 127.92,338.41 128.86,338.97 129.81,339.52 130.75,340.07 131.70,340.62 132.64,341.17 133.59,341.71 134.53,342.25 135.48,342.79 136.42,343.33 137.37,343.87 138.32,344.40 139.26,344.94 140.21,345.47 141.15,346.00 142.10,346.52 143.04,347.05 143.99,347.57 144.93,348.09 145.88,348.61 146.82,349.13 147.77,349.64 148.71,350.15 149.66,350.66 150.61,351.17 151.55,351.68 152.50,352.18 153.44,352.69 154.39,353.19 155.33,353.69 156.28,354.18 157.22,354.68 158.17,355.17 159.11,355.66 160.06,356.15 161.00,356.64 161.95,357.12 162.89,357.61 163.84,358.09 164.79,358.57 165.73,359.04 166.68,359.52 167.62,359.99 168.57,360.46 169.51,360.93 170.46,361.40 171.40,361.87 172.35,362.33 173.29,362.79 174.24,363.25 175.18,363.71 176.13,364.16 177.08,364.62 178.02,365.07 178.97,365.52 179.91,365.97 180.86,366.41 181.80,366.86 182.75,367.30 183.69,367.74 184.64,368.18 185.58,368.61 186.53,369.05 187.47,369.48 188.42,369.91 189.37,370.34 190.31,370.76 191.26,371.19 192.20,371.61 193.15,372.03 194.09,372.45 195.04,372.86 195.98,373.28 196.93,373.69 197.87,374.10 198.82,374.51 199.76,374.92 200.71,375.32 201.66,375.72 202.60,376.12 203.55,376.52 204.49,376.92 205.44,377.31 206.38,377.71 207.33,378.10 208.27,378.49 209.22,378.87 210.16,379.26 211.11,379.64 212.05,380.02 213.00,380.40 213.95,380.78 214.89,381.15 215.84,381.53 216.78,381.90 217.73,382.27 218.67,382.64 219.62,383.00 220.56,383.36 221.51,383.72 222.45,384.08 223.40,384.44 224.34,384.80 225.29,385.15 226.24,385.50 227.18,385.85 228.13,386.20 229.07,386.54 230.02,386.89 230.96,387.23 231.91,387.57 232.85,387.90 233.80,388.24 234.74,388.57 235.69,388.91 236.63,389.23 237.58,389.56 238.53,389.89 239.47,390.21 240.42,390.53 241.36,390.85 242.31,391.17 243.25,391.48 244.20,391.80 245.14,392.11 246.09,392.42 247.03,392.72 247.98,393.03 248.92,393.33 249.87,393.63 250.82,393.93 251.76,394.23 252.71,394.52 253.65,394.82 254.60,395.11 255.54,395.40 256.49,395.68 257.43,395.97 258.38,396.25 259.32,396.53 260.27,396.81 261.21,397.09 262.16,397.36 263.11,397.63 264.05,397.90 265.00,398.17 265.94,398.44 266.89,398.70 267.83,398.96 268.78,399.22 269.72,399.48 270.67,399.74 271.61,399.99 272.56,400.24 273.50,400.49 274.45,400.74 275.39,400.98 276.34,401.22 277.29,401.46 278.23,401.70 279.18,401.94 280.12,402.17 281.07,402.41 282.01,402.64 282.96,402.86 283.90,403.09 284.85,403.31 285.79,403.53 286.74,403.75 287.68,403.97 288.63,404.18 289.58,404.40 290.52,404.61 291.47,404.81 292.41,405.02 293.36,405.22 294.30,405.42 295.25,405.62 296.19,405.82 297.14,406.02 298.08,406.21 299.03,406.40 299.97,406.59 300.92,406.77 301.87,406.95 302.81,407.14 303.76,407.31 304.70,407.49 305.65,407.66 306.59,407.84 307.54,408.01 308.48,408.17 309.43,408.34 310.37,408.50 311.32,408.66 312.26,408.82 313.21,408.97 314.16,409.13 315.10,409.28 316.05,409.43 316.99,409.57 317.94,409.72 318.88,409.86 319.83,410.00 320.77,410.13 321.72,410.27 322.66,410.40 323.61,410.53 324.55,410.65 325.50,410.78 326.45,410.90 327.39,411.02 328.34,411.13 329.28,411.25 330.23,411.36 331.17,411.47 332.12,411.58 333.06,411.68 334.01,411.78 334.95,411.88 335.90,411.98 336.84,412.07 337.79,412.16 338.74,412.25 339.68,412.34 340.63,412.42 341.57,412.50 342.52,412.58 343.46,412.65 344.41,412.73 345.35,412.80 346.30,412.86 347.24,412.93 348.19,412.99 349.13,413.05 350.08,413.11 351.03,413.16 351.97,413.21 352.92,413.26 353.86,413.31 354.81,413.35 355.75,413.39 356.70,413.43 357.64,413.46 358.59,413.49 359.53,413.52 360.48,413.54 361.42,413.57 362.37,413.59 363.32,413.60 364.26,413.62 365.21,413.63 366.15,413.64 367.10,413.64 368.04,413.64 368.99,413.64 369.93,413.64 370.88,413.63 371.82,413.62 372.77,413.61 373.71,413.59 374.66,413.57 375.61,413.55 376.55,413.52 377.50,413.49 378.44,413.46 379.39,413.42 380.33,413.39 381.28,413.34 382.22,413.30 383.17,413.25 384.11,413.20 385.06,413.14 386.00,413.08 386.95,413.02 387.89,412.96 388.84,412.89 389.79,412.82 390.73,412.74 391.68,412.66 392.62,412.58 393.57,412.49 394.51,412.40 395.46,412.31 396.40,412.21 397.35,412.11 398.29,412.01 399.24,411.90 400.18,411.79 401.13,411.67 402.08,411.55 403.02,411.43 403.97,411.30 404.91,411.17 405.86,411.04 406.80,410.90 407.75,410.76 408.69,410.61 409.64,410.46 410.58,410.31 411.53,410.15 412.47,409.99 413.42,409.82 414.37,409.65 415.31,409.48 416.26,409.30 417.20,409.12 418.15,408.93 419.09,408.74 420.04,408.54 420.98,408.34 421.93,408.14 422.87,407.93 423.82,407.72 424.76,407.50 425.71,407.28 426.66,407.05 427.60,406.82 428.55,406.58 429.49,406.34 430.44,406.10 431.38,405.85 432.33,405.59 433.27,405.33 434.22,405.07 435.16,404.80 436.11,404.53 437.05,404.25 438.00,403.96 438.95,403.67 439.89,403.38 440.84,403.08 441.78,402.78 442.73,402.47 443.67,402.15 444.62,401.83 445.56,401.50 446.51,401.17 447.45,400.84 448.40,400.49 449.34,400.15 450.29,399.79 451.24,399.43 452.18,399.07 453.13,398.70 454.07,398.32 455.02,397.94 455.96,397.55 456.91,397.15 457.85,396.75 458.80,396.35 459.74,395.93 460.69,395.51 461.63,395.09 462.58,394.66 463.53,394.22 464.47,393.77 465.42,393.32 466.36,392.86 467.31,392.40 468.25,391.92 469.20,391.45 470.14,390.96 471.09,390.47 472.03,389.97 472.98,389.46 473.92,388.95 474.87,388.42 475.82,387.89 476.76,387.36 477.71,386.81 478.65,386.26 479.60,385.70 480.54,385.14 481.49,384.56 482.43,383.98 483.38,383.39 484.32,382.79 485.27,382.18 486.21,381.56 487.16,380.94 488.11,380.31 489.05,379.66 490.00,379.01 490.94,378.35 491.89,377.69 492.83,377.01 493.78,376.32 494.72,375.63 495.67,374.92 496.61,374.21 497.56,373.48 498.50,372.75 499.45,372.00 500.39,371.25 501.34,370.49 502.29,369.71 503.23,368.93 504.18,368.13 505.12,367.33 506.07,366.51 507.01,365.68 507.96,364.85 508.90,364.00 509.85,363.13 510.79,362.26 511.74,361.38 512.68,360.48 513.63,359.57 514.58,358.65 515.52,357.72 516.47,356.78 517.41,355.82 518.36,354.85 519.30,353.87 520.25,352.87 521.19,351.86 522.14,350.84 523.08,349.80 524.03,348.75 524.97,347.69 525.92,346.61 526.87,345.52 527.81,344.41 528.76,343.29 529.70,342.15 530.65,341.00 531.59,339.83 532.54,338.64 533.48,337.44 534.43,336.22 535.37,334.99 536.32,333.74 537.26,332.47 538.21,331.19 539.16,329.89 540.10,328.57 541.05,327.23 541.99,325.87 542.94,324.50 543.88,323.11 544.83,321.69 545.77,320.26 546.72,318.81 547.66,317.34 548.61,315.84 549.55,314.33 550.50,312.79 551.45,311.24 552.39,309.66 553.34,308.06 554.28,306.43 555.23,304.79 556.17,303.12 557.12,301.42 558.06,299.70 559.01,297.96 559.95,296.19 560.90,294.40 561.84,292.58 562.79,290.74 563.74,288.86 564.68,286.96 565.63,285.04 566.57,283.08 567.52,281.10 568.46,279.08 569.41,277.04 570.35,274.96 571.30,272.86 572.24,270.72 573.19,268.55 574.13,266.35 575.08,264.11 576.03,261.84 576.97,259.54 577.92,257.20 578.86,254.82 579.81,252.41 580.75,249.96 581.70,247.47 582.64,244.94 583.59,242.37 584.53,239.76 585.48,237.11 586.42,234.42 587.37,231.68 588.32,228.90 589.26,226.08 590.21,223.21 591.15,220.29 592.10,217.32 593.04,214.31 593.99,211.24 594.93,208.13 595.88,204.96 596.82,201.74 597.77,198.46 598.71,195.13 599.66,191.74 600.61,188.29 601.55,184.79 602.50,181.22 603.44,177.59 604.39,173.89 605.33,170.13 606.28,166.31 607.22,162.41 608.17,158.44 609.11,154.41 610.06,150.30 611.00,146.11 611.95,141.85 612.89,137.50 613.84,133.08 614.79,128.57 615.73,123.98 616.68,119.30 617.62,114.53 618.57,109.67 619.51,108.32 620.46,108.33 621.40,108.33 622.35,108.33 623.29,108.33 624.24,108.33 625.18,108.33 626.13,108.33 627.08,108.33 628.02,108.32 628.97,108.32 629.91,108.32 630.86,108.32 631.80,108.31 632.75,108.31 633.69,108.30 634.64,108.30 635.58,108.29 636.53,108.29 637.47,108.28 638.42,108.28 639.37,108.27 640.31,108.26 641.26,108.25 642.20,108.24 643.15,108.23 644.09,108.22 645.04,108.21 645.98,108.19 646.93,108.18 647.87,108.16 648.82,108.15 649.76,108.13 650.71,108.11 651.66,108.09 652.60,108.07 653.55,108.05 654.49,108.03 655.44,108.00 656.38,107.98 657.33,107.95 658.27,107.92 659.22,107.89 660.16,107.86 661.11,107.82 662.05,107.79 663.00,107.75 663.95,107.71 664.89,107.67 665.84,107.62 666.78,107.57 667.73,107.52 668.67,107.47 669.62,107.42 670.56,107.36 671.51,107.30 672.45,107.23 673.40,107.16 674.34,107.09 675.29,107.01 676.24,106.93 677.18,106.85 678.13,106.76 679.07,106.66 680.02,106.56 680.96,106.46 681.91,106.35 682.85,106.23 683.80,106.11 684.74,105.98 685.69,105.85 686.63,105.70 687.58,105.55 688.53,105.40 689.47,105.23 690.42,105.06 691.36,104.88 692.31,104.69 693.25,104.49 694.20,104.28 695.14,104.06 696.09,103.83 697.03,103.59 697.98,103.34 698.92,103.08 699.87,102.82 700.82,102.54 701.76,102.25 702.71,101.95 703.65,101.64 704.60,101.33 705.54,101.00 706.49,100.67 707.43,100.33 708.38,99.98 709.32,99.63 710.27,99.27 711.21,98.91 712.16,98.54 713.11,98.18 714.05,97.81 715.00,97.44 715.94,97.08 716.89,96.72 717.83,96.36 718.78,96.00 719.72,95.66 720.67,95.32 721.61,94.98 722.56,94.66 723.50,94.35 724.45,94.04 725.39,93.75 726.34,93.47 727.29,93.20 728.23,92.94 729.18,92.70 730.12,92.47 731.07,92.25 732.01,92.04 732.96,91.85 733.90,91.66 734.85,91.49 735.79,91.34 736.74,91.19 737.68,91.06 738.63,90.93 739.58,90.82 740.52,90.72 741.47,90.63 742.41,90.54 743.36,90.47 744.30,90.41 745.25,90.35 746.19,90.31 747.14,90.27 748.08,90.24 749.03,90.22 749.97,90.20 750.92,90.19 751.87,90.19 752.81,90.19 753.76,90.20 754.70,90.21 755.65,90.23 756.59,90.26 757.54,90.28 758.48,90.32 759.43,90.36"/>
<line x1="828" y1="78" x2="856" y2="78" stroke="#c47f1f" stroke-width="3"/>
<text x="864" y="82" font-family="Arial" font-size="13">load factor</text>
</svg>