<svg xmlns="http://www.w3.org/2000/svg" width="920" height="520" viewBox="0 0 920 520">
<rect width="100%" height="100%" fill="white"/>
<text x="460" y="28" text-anchor="middle" font-family="Arial" font-size="20">3-D Guidance Altitude Profile</text>
<rect x="78" y="54" width="720" height="380" fill="#fafafa" stroke="#222"/>
<line x1="78" y1="434" x2="798" y2="434" stroke="#222"/>
<line x1="78" y1="54" x2="78" y2="434" stroke="#222"/>
<text x="438" y="492" text-anchor="middle" font-family="Arial" font-size="14">time (s)</text>
<text transform="translate(22,244) rotate(-90)" text-anchor="middle" font-family="Arial" font-size="14">altitude (m)</text>
<text x="78" y="456" text-anchor="middle" font-family="Arial" font-size="11">-2.04</text>
<text x="798" y="456" text-anchor="middle" font-family="Arial" font-size="11">36.04</text>
<text x="68" y="434" text-anchor="end" font-family="Arial" font-size="11">28878.35</text>
<text x="68" y="59" text-anchor="end" font-family="Arial" font-size="11">30063.49</text>
<line x1="78" y1="394.99" x2="798" y2="394.99" stroke="#c23b3b" stroke-dasharray="8 6"/>
<text x="806" y="398.99" font-family="Arial" font-size="12" fill="#c23b3b">target altitude</text>
<polyline fill="none" stroke="#258a45" stroke-width="2.2" points="116.57,74.36 117.52,74.85 118.46,75.34 119.41,75.83 120.35,76.32 121.30,76.81 122.24,77.30 123.19,77.79 124.13,78.28 125.08,78.77 126.03,79.26 126.97,79.75 127.92,80.24 128.86,80.73 129.81,81.22 130.75,81.71 131.70,82.20 132.64,82.70 133.59,83.19 134.53,83.68 135.48,84.17 136.42,84.66 137.37,85.15 138.32,85.65 139.26,86.14 140.21,86.63 141.15,87.12 142.10,87.62 143.04,88.11 143.99,88.60 144.93,89.09 145.88,89.59 146.82,90.08 147.77,90.57 148.71,91.07 149.66,91.56 150.61,92.05 151.55,92.55 152.50,93.04 153.44,93.53 154.39,94.03 155.33,94.52 156.28,95.01 157.22,95.51 158.17,96.00 159.11,96.50 160.06,96.99 161.00,97.48 161.95,97.98 162.89,98.47 163.84,98.97 164.79,99.46 165.73,99.96 166.68,100.45 167.62,100.95 168.57,101.44 169.51,101.94 170.46,102.43 171.40,102.93 172.35,103.42 173.29,103.92 174.24,104.41 175.18,104.91 176.13,105.41 177.08,105.90 178.02,106.40 178.97,106.89 179.91,107.39 180.86,107.89 181.80,108.38 182.75,108.88 183.69,109.37 184.64,109.87 185.58,110.37 186.53,110.86 187.47,111.36 188.42,111.86 189.37,112.35 190.31,112.85 191.26,113.35 192.20,113.85 193.15,114.34 194.09,114.84 195.04,115.34 195.98,115.84 196.93,116.33 197.87,116.83 198.82,117.33 199.76,117.83 200.71,118.32 201.66,118.82 202.60,119.32 203.55,119.82 204.49,120.32 205.44,120.82 206.38,121.31 207.33,121.81 208.27,122.31 209.22,122.81 210.16,123.31 211.11,123.81 212.05,124.31 213.00,124.81 213.95,125.30 214.89,125.80 215.84,126.30 216.78,126.80 217.73,127.30 218.67,127.80 219.62,128.30 220.56,128.80 221.51,129.30 222.45,129.80 223.40,130.30 224.34,130.80 225.29,131.30 226.24,131.80 227.18,132.30 228.13,132.80 229.07,133.30 230.02,133.80 230.96,134.30 231.91,134.80 232.85,135.30 233.80,135.80 234.74,136.30 235.69,136.80 236.63,137.30 237.58,137.80 238.53,138.31 239.47,138.81 240.42,139.31 241.36,139.81 242.31,140.31 243.25,140.81 244.20,141.31 245.14,141.81 246.09,142.32 247.03,142.82 247.98,143.32 248.92,143.82 249.87,144.32 250.82,144.82 251.76,145.33 252.71,145.83 253.65,146.33 254.60,146.83 255.54,147.33 256.49,147.84 257.43,148.34 258.38,148.84 259.32,149.34 260.27,149.85 261.21,150.35 262.16,150.85 263.11,151.35 264.05,151.86 265.00,152.36 265.94,152.86 266.89,153.37 267.83,153.87 268.78,154.37 269.72,154.87 270.67,155.38 271.61,155.88 272.56,156.38 273.50,156.89 274.45,157.39 275.39,157.89 276.34,158.40 277.29,158.90 278.23,159.41 279.18,159.91 280.12,160.41 281.07,160.92 282.01,161.42 282.96,161.92 283.90,162.43 284.85,162.93 285.79,163.44 286.74,163.94 287.68,164.45 288.63,164.95 289.58,165.45 290.52,165.96 291.47,166.46 292.41,166.97 293.36,167.47 294.30,167.98 295.25,168.48 296.19,168.99 297.14,169.49 298.08,170.00 299.03,170.50 299.97,171.01 300.92,171.51 301.87,172.02 302.81,172.52 303.76,173.03 304.70,173.53 305.65,174.04 306.59,174.54 307.54,175.05 308.48,175.55 309.43,176.06 310.37,176.57 311.32,177.07 312.26,177.58 313.21,178.08 314.16,178.59 315.10,179.09 316.05,179.60 316.99,180.11 317.94,180.61 318.88,181.12 319.83,181.62 320.77,182.13 321.72,182.64 322.66,183.14 323.61,183.65 324.55,184.16 325.50,184.66 326.45,185.17 327.39,185.68 328.34,186.18 329.28,186.69 330.23,187.19 331.17,187.70 332.12,188.21 333.06,188.72 334.01,189.22 334.95,189.73 335.90,190.24 336.84,190.74 337.79,191.25 338.74,191.76 339.68,192.26 340.63,192.77 341.57,193.28 342.52,193.79 343.46,194.29 344.41,194.80 345.35,195.31 346.30,195.82 347.24,196.32 348.19,196.83 349.13,197.34 350.08,197.85 351.03,198.35 351.97,198.86 352.92,199.37 353.86,199.88 354.81,200.39 355.75,200.89 356.70,201.40 357.64,201.91 358.59,202.42 359.53,202.93 360.48,203.43 361.42,203.94 362.37,204.45 363.32,204.96 364.26,205.47 365.21,205.98 366.15,206.48 367.10,206.99 368.04,207.50 368.99,208.01 369.93,208.52 370.88,209.03 371.82,209.54 372.77,210.04 373.71,210.55 374.66,211.06 375.61,211.57 376.55,212.08 377.50,212.59 378.44,213.10 379.39,213.61 380.33,214.12 381.28,214.62 382.22,215.13 383.17,215.64 384.11,216.15 385.06,216.66 386.00,217.17 386.95,217.68 387.89,218.19 388.84,218.70 389.79,219.21 390.73,219.72 391.68,220.23 392.62,220.74 393.57,221.25 394.51,221.76 395.46,222.27 396.40,222.77 397.35,223.28 398.29,223.79 399.24,224.30 400.18,224.81 401.13,225.32 402.08,225.83 403.02,226.34 403.97,226.85 404.91,227.36 405.86,227.87 406.80,228.38 407.75,228.89 408.69,229.40 409.64,229.91 410.58,230.42 411.53,230.93 412.47,231.44 413.42,231.96 414.37,232.47 415.31,232.98 416.26,233.49 417.20,234.00 418.15,234.51 419.09,235.02 420.04,235.53 420.98,236.04 421.93,236.55 422.87,237.06 423.82,237.57 424.76,238.08 425.71,238.59 426.66,239.10 427.60,239.61 428.55,240.12 429.49,240.64 430.44,241.15 431.38,241.66 432.33,242.17 433.27,242.68 434.22,243.19 435.16,243.70 436.11,244.21 437.05,244.72 438.00,245.23 438.95,245.75 439.89,246.26 440.84,246.77 441.78,247.28 442.73,247.79 443.67,248.30 444.62,248.81 445.56,249.32 446.51,249.84 447.45,250.35 448.40,250.86 449.34,251.37 450.29,251.88 451.24,252.39 452.18,252.90 453.13,253.42 454.07,253.93 455.02,254.44 455.96,254.95 456.91,255.46 457.85,255.97 458.80,256.49 459.74,257.00 460.69,257.51 461.63,258.02 462.58,258.53 463.53,259.04 464.47,259.56 465.42,260.07 466.36,260.58 467.31,261.09 468.25,261.60 469.20,262.12 470.14,262.63 471.09,263.14 472.03,263.65 472.98,264.16 473.92,264.68 474.87,265.19 475.82,265.70 476.76,266.21 477.71,266.72 478.65,267.24 479.60,267.75 480.54,268.26 481.49,268.77 482.43,269.29 483.38,269.80 484.32,270.31 485.27,270.82 486.21,271.33 487.16,271.85 488.11,272.36 489.05,272.87 490.00,273.38 490.94,273.90 491.89,274.41 492.83,274.92 493.78,275.43 494.72,275.95 495.67,276.46 496.61,276.97 497.56,277.48 498.50,278.00 499.45,278.51 500.39,279.02 501.34,279.53 502.29,280.05 503.23,280.56 504.18,281.07 505.12,281.58 506.07,282.10 507.01,282.61 507.96,283.12 508.90,283.63 509.85,284.15 510.79,284.66 511.74,285.17 512.68,285.69 513.63,286.20 514.58,286.71 515.52,287.22 516.47,287.74 517.41,288.25 518.36,288.76 519.30,289.28 520.25,289.79 521.19,290.30 522.14,290.81 523.08,291.33 524.03,291.84 524.97,292.35 525.92,292.87 526.87,293.38 527.81,293.89 528.76,294.40 529.70,294.92 530.65,295.43 531.59,295.94 532.54,296.46 533.48,296.97 534.43,297.48 535.37,297.99 536.32,298.51 537.26,299.02 538.21,299.53 539.16,300.05 540.10,300.56 541.05,301.07 541.99,301.59 542.94,302.10 543.88,302.61 544.83,303.12 545.77,303.64 546.72,304.15 547.66,304.66 548.61,305.18 549.55,305.69 550.50,306.20 551.45,306.72 552.39,307.23 553.34,307.74 554.28,308.25 555.23,308.77 556.17,309.28 557.12,309.79 558.06,310.31 559.01,310.82 559.95,311.33 560.90,311.84 561.84,312.36 562.79,312.87 563.74,313.38 564.68,313.90 565.63,314.41 566.57,314.92 567.52,315.44 568.46,315.95 569.41,316.46 570.35,316.97 571.30,317.49 572.24,318.00 573.19,318.51 574.13,319.03 575.08,319.54 576.03,320.05 576.97,320.56 577.92,321.08 578.86,321.59 579.81,322.10 580.75,322.61 581.70,323.13 582.64,323.64 583.59,324.15 584.53,324.67 585.48,325.18 586.42,325.69 587.37,326.20 588.32,326.72 589.26,327.23 590.21,327.74 591.15,328.25 592.10,328.77 593.04,329.28 593.99,329.79 594.93,330.30 595.88,330.82 596.82,331.33 597.77,331.84 598.71,332.35 599.66,332.86 600.61,333.38 601.55,333.89 602.50,334.40 603.44,334.91 604.39,335.42 605.33,335.94 606.28,336.45 607.22,336.96 608.17,337.47 609.11,337.98 610.06,338.50 611.00,339.01 611.95,339.52 612.89,340.03 613.84,340.54 614.79,341.05 615.73,341.57 616.68,342.08 617.62,342.59 618.57,343.10 619.51,343.61 620.46,344.12 621.40,344.63 622.35,345.14 623.29,345.66 624.24,346.17 625.18,346.68 626.13,347.19 627.08,347.70 628.02,348.21 628.97,348.72 629.91,349.23 630.86,349.74 631.80,350.25 632.75,350.76 633.69,351.27 634.64,351.78 635.58,352.29 636.53,352.80 637.47,353.31 638.42,353.82 639.37,354.33 640.31,354.84 641.26,355.35 642.20,355.86 643.15,356.37 644.09,356.88 645.04,357.39 645.98,357.90 646.93,358.40 647.87,358.91 648.82,359.42 649.76,359.93 650.71,360.44 651.66,360.95 652.60,361.45 653.55,361.96 654.49,362.47 655.44,362.98 656.38,363.48 657.33,363.99 658.27,364.50 659.22,365.00 660.16,365.51 661.11,366.02 662.05,366.52 663.00,367.03 663.95,367.53 664.89,368.04 665.84,368.54 666.78,369.05 667.73,369.55 668.67,370.06 669.62,370.56 670.56,371.07 671.51,371.57 672.45,372.07 673.40,372.58 674.34,373.08 675.29,373.58 676.24,374.08 677.18,374.58 678.13,375.09 679.07,375.59 680.02,376.09 680.96,376.59 681.91,377.09 682.85,377.59 683.80,378.08 684.74,378.58 685.69,379.08 686.63,379.58 687.58,380.07 688.53,380.57 689.47,381.06 690.42,381.56 691.36,382.05 692.31,382.55 693.25,383.04 694.20,383.53 695.14,384.02 696.09,384.51 697.03,385.00 697.98,385.49 698.92,385.98 699.87,386.47 700.82,386.96 701.76,387.44 702.71,387.92 703.65,388.41 704.60,388.89 705.54,389.37 706.49,389.85 707.43,390.33 708.38,390.81 709.32,391.28 710.27,391.76 711.21,392.23 712.16,392.70 713.11,393.17 714.05,393.64 715.00,394.11 715.94,394.57 716.89,395.04 717.83,395.50 718.78,395.96 719.72,396.42 720.67,396.88 721.61,397.33 722.56,397.78 723.50,398.23 724.45,398.68 725.39,399.13 726.34,399.58 727.29,400.02 728.23,400.46 729.18,400.90 730.12,401.33 731.07,401.77 732.01,402.20 732.96,402.63 733.90,403.05 734.85,403.48 735.79,403.90 736.74,404.32 737.68,404.74 738.63,405.15 739.58,405.56 740.52,405.97 741.47,406.38 742.41,406.79 743.36,407.19 744.30,407.59 745.25,407.99 746.19,408.38 747.14,408.77 748.08,409.16 749.03,409.55 749.97,409.94 750.92,410.32 751.87,410.70 752.81,411.07 753.76,411.45 754.70,411.82 755.65,412.19 756.59,412.56 757.54,412.92 758.48,413.28 759.43,413.64"/>
<line x1="828" y1="78" x2="856" y2="78" stroke="#258a45" stroke-width="3"/>
<text x="864" y="82" font-family="Arial" font-size="13">vehicle</text>
</svg>