<svg xmlns="http://www.w3.org/2000/svg" width="920" height="520" viewBox="0 0 920 520">
<rect width="100%" height="100%" fill="white"/>
<text x="460" y="28" text-anchor="middle" font-family="Arial" font-size="20">3-D Guidance Dynamic Pressure</text>
<rect x="78" y="54" width="720" height="380" fill="#fafafa" stroke="#222"/>
<line x1="78" y1="434" x2="798" y2="434" stroke="#222"/>
<line x1="78" y1="54" x2="78" y2="434" stroke="#222"/>
<text x="438" y="492" text-anchor="middle" font-family="Arial" font-size="14">time (s)</text>
<text transform="translate(22,244) rotate(-90)" text-anchor="middle" font-family="Arial" font-size="14">qbar (Pa)</text>
<text x="78" y="456" text-anchor="middle" font-family="Arial" font-size="11">-2.04</text>
<text x="798" y="456" text-anchor="middle" font-family="Arial" font-size="11">36.04</text>
<text x="68" y="434" text-anchor="end" font-family="Arial" font-size="11">26626.75</text>
<text x="68" y="59" text-anchor="end" font-family="Arial" font-size="11">72455.09</text>
<line x1="78" y1="74.36" x2="798" y2="74.36" stroke="#c23b3b" stroke-dasharray="8 6"/>
<text x="806" y="78.36" font-family="Arial" font-size="12" fill="#c23b3b">q limit</text>
<polyline fill="none" stroke="#8a4fbf" stroke-width="2.2" points="116.57,413.64 117.52,413.60 118.46,413.56 119.41,413.52 120.35,413.47 121.30,413.43 122.24,413.39 123.19,413.35 124.13,413.30 125.08,413.26 126.03,413.22 126.97,413.18 127.92,413.13 128.86,413.09 129.81,413.05 130.75,413.01 131.70,412.96 132.64,412.92 133.59,412.88 134.53,412.84 135.48,412.79 136.42,412.75 137.37,412.71 138.32,412.66 139.26,412.62 140.21,412.58 141.15,412.54 142.10,412.49 143.04,412.45 143.99,412.41 144.93,412.37 145.88,412.32 146.82,412.28 147.77,412.24 148.71,412.19 149.66,412.15 150.61,412.11 151.55,412.06 152.50,412.02 153.44,411.98 154.39,411.94 155.33,411.89 156.28,411.85 157.22,411.81 158.17,411.76 159.11,411.72 160.06,411.68 161.00,411.63 161.95,411.59 162.89,411.55 163.84,411.50 164.79,411.46 165.73,411.42 166.68,411.37 167.62,411.33 168.57,411.29 169.51,411.24 170.46,411.20 171.40,411.16 172.35,411.11 173.29,411.07 174.24,411.03 175.18,410.98 176.13,410.94 177.08,410.90 178.02,410.85 178.97,410.81 179.91,410.76 180.86,410.72 181.80,410.68 182.75,410.63 183.69,410.59 184.64,410.55 185.58,410.50 186.53,410.46 187.47,410.41 188.42,410.37 189.37,410.33 190.31,410.28 191.26,410.24 192.20,410.20 193.15,410.15 194.09,410.11 195.04,410.06 195.98,410.02 196.93,409.98 197.87,409.93 198.82,409.89 199.76,409.84 200.71,409.80 201.66,409.76 202.60,409.71 203.55,409.67 204.49,409.62 205.44,409.58 206.38,409.54 207.33,409.49 208.27,409.45 209.22,409.40 210.16,409.36 211.11,409.31 212.05,409.27 213.00,409.23 213.95,409.18 214.89,409.14 215.84,409.09 216.78,409.05 217.73,409.00 218.67,408.96 219.62,408.92 220.56,408.87 221.51,408.83 222.45,408.78 223.40,408.74 224.34,408.69 225.29,408.65 226.24,408.60 227.18,408.56 228.13,408.52 229.07,408.47 230.02,408.43 230.96,408.38 231.91,408.34 232.85,408.29 233.80,408.25 234.74,408.20 235.69,408.16 236.63,408.11 237.58,408.07 238.53,408.02 239.47,407.98 240.42,407.93 241.36,407.89 242.31,407.84 243.25,407.80 244.20,407.76 245.14,407.71 246.09,407.67 247.03,407.62 247.98,407.58 248.92,407.53 249.87,407.49 250.82,407.44 251.76,407.40 252.71,407.35 253.65,407.31 254.60,407.26 255.54,407.22 256.49,407.17 257.43,407.13 258.38,407.08 259.32,407.04 260.27,406.99 261.21,406.94 262.16,406.90 263.11,406.85 264.05,406.81 265.00,406.76 265.94,406.72 266.89,406.67 267.83,406.63 268.78,406.58 269.72,406.54 270.67,406.49 271.61,406.45 272.56,406.40 273.50,406.36 274.45,406.31 275.39,406.27 276.34,406.22 277.29,406.17 278.23,406.13 279.18,406.08 280.12,406.04 281.07,405.99 282.01,405.95 282.96,405.90 283.90,405.86 284.85,405.81 285.79,405.76 286.74,405.72 287.68,405.67 288.63,405.63 289.58,405.58 290.52,405.54 291.47,405.49 292.41,405.45 293.36,405.40 294.30,405.35 295.25,405.31 296.19,405.26 297.14,405.22 298.08,405.17 299.03,405.12 299.97,405.08 300.92,405.03 301.87,404.99 302.81,404.94 303.76,404.90 304.70,404.85 305.65,404.80 306.59,404.76 307.54,404.71 308.48,404.67 309.43,404.62 310.37,404.57 311.32,404.53 312.26,404.48 313.21,404.44 314.16,404.39 315.10,404.34 316.05,404.30 316.99,404.25 317.94,404.21 318.88,404.16 319.83,404.11 320.77,404.07 321.72,404.02 322.66,403.97 323.61,403.93 324.55,403.88 325.50,403.84 326.45,403.79 327.39,403.74 328.34,403.70 329.28,403.65 330.23,403.60 331.17,403.56 332.12,403.51 333.06,403.46 334.01,403.42 334.95,403.37 335.90,403.33 336.84,403.28 337.79,403.23 338.74,403.19 339.68,403.14 340.63,403.09 341.57,403.05 342.52,403.00 343.46,402.95 344.41,402.91 345.35,402.86 346.30,402.81 347.24,402.77 348.19,402.72 349.13,402.67 350.08,402.63 351.03,402.58 351.97,402.53 352.92,402.49 353.86,402.44 354.81,402.39 355.75,402.35 356.70,402.30 357.64,402.25 358.59,402.21 359.53,402.16 360.48,402.11 361.42,402.07 362.37,402.02 363.32,401.97 364.26,401.93 365.21,401.88 366.15,401.83 367.10,401.79 368.04,401.74 368.99,401.69 369.93,401.64 370.88,401.60 371.82,401.55 372.77,401.50 373.71,401.46 374.66,401.41 375.61,401.36 376.55,401.32 377.50,401.27 378.44,401.22 379.39,401.17 380.33,401.13 381.28,401.08 382.22,401.03 383.17,400.99 384.11,400.94 385.06,400.89 386.00,400.84 386.95,400.80 387.89,400.75 388.84,400.70 389.79,400.65 390.73,400.61 391.68,400.56 392.62,400.51 393.57,400.47 394.51,400.42 395.46,400.37 396.40,400.32 397.35,400.28 398.29,400.23 399.24,400.18 400.18,400.13 401.13,400.09 402.08,400.04 403.02,399.99 403.97,399.94 404.91,399.90 405.86,399.85 406.80,399.80 407.75,399.75 408.69,399.71 409.64,399.66 410.58,399.61 411.53,399.56 412.47,399.52 413.42,399.47 414.37,399.42 415.31,399.37 416.26,399.33 417.20,399.28 418.15,399.23 419.09,399.18 420.04,399.14 420.98,399.09 421.93,399.04 422.87,398.99 423.82,398.94 424.76,398.90 425.71,398.85 426.66,398.80 427.60,398.75 428.55,398.71 429.49,398.66 430.44,398.61 431.38,398.56 432.33,398.51 433.27,398.47 434.22,398.42 435.16,398.37 436.11,398.32 437.05,398.27 438.00,398.23 438.95,398.18 439.89,398.13 440.84,398.08 441.78,398.03 442.73,397.99 443.67,397.94 444.62,397.89 445.56,397.84 446.51,397.79 447.45,397.75 448.40,397.70 449.34,397.65 450.29,397.60 451.24,397.55 452.18,397.51 453.13,397.46 454.07,397.41 455.02,397.36 455.96,397.31 456.91,397.26 457.85,397.22 458.80,397.17 459.74,397.12 460.69,397.07 461.63,397.02 462.58,396.97 463.53,396.93 464.47,396.88 465.42,396.83 466.36,396.78 467.31,396.73 468.25,396.68 469.20,396.64 470.14,396.59 471.09,396.54 472.03,396.49 472.98,396.44 473.92,396.39 474.87,396.35 475.82,396.30 476.76,396.25 477.71,396.20 478.65,396.15 479.60,396.10 480.54,396.05 481.49,396.01 482.43,395.96 483.38,395.91 484.32,395.86 485.27,395.81 486.21,395.76 487.16,395.71 488.11,395.67 489.05,395.62 490.00,395.57 490.94,395.52 491.89,395.47 492.83,395.42 493.78,395.37 494.72,395.33 495.67,395.28 496.61,395.23 497.56,395.18 498.50,395.13 499.45,395.08 500.39,395.03 501.34,394.98 502.29,394.94 503.23,394.89 504.18,394.84 505.12,394.79 506.07,394.74 507.01,394.69 507.96,394.64 508.90,394.59 509.85,394.54 510.79,394.50 511.74,394.45 512.68,394.40 513.63,394.35 514.58,394.30 515.52,394.25 516.47,394.20 517.41,394.15 518.36,394.10 519.30,394.06 520.25,394.01 521.19,393.96 522.14,393.91 523.08,393.86 524.03,393.81 524.97,393.76 525.92,393.71 526.87,393.66 527.81,393.61 528.76,393.56 529.70,393.52 530.65,393.47 531.59,393.42 532.54,393.37 533.48,393.32 534.43,393.27 535.37,393.22 536.32,393.17 537.26,393.12 538.21,393.07 539.16,393.02 540.10,392.97 541.05,392.92 541.99,392.88 542.94,392.83 543.88,392.78 544.83,392.73 545.77,392.68 546.72,392.63 547.66,392.58 548.61,392.53 549.55,392.48 550.50,392.43 551.45,392.38 552.39,392.33 553.34,392.28 554.28,392.23 555.23,392.18 556.17,392.14 557.12,392.09 558.06,392.04 559.01,391.99 559.95,391.94 560.90,391.89 561.84,391.84 562.79,391.79 563.74,391.74 564.68,391.69 565.63,391.64 566.57,391.59 567.52,391.54 568.46,391.49 569.41,391.44 570.35,391.39 571.30,391.34 572.24,391.29 573.19,391.24 574.13,391.20 575.08,391.15 576.03,391.10 576.97,391.05 577.92,391.00 578.86,390.95 579.81,390.90 580.75,390.85 581.70,390.80 582.64,390.75 583.59,390.70 584.53,390.65 585.48,390.60 586.42,390.55 587.37,390.50 588.32,390.45 589.26,390.40 590.21,390.35 591.15,390.30 592.10,390.25 593.04,390.20 593.99,390.15 594.93,390.10 595.88,390.05 596.82,390.00 597.77,389.95 598.71,389.90 599.66,389.85 600.61,389.80 601.55,389.75 602.50,389.70 603.44,389.65 604.39,389.60 605.33,389.55 606.28,389.51 607.22,389.46 608.17,389.41 609.11,389.36 610.06,389.31 611.00,389.26 611.95,389.21 612.89,389.16 613.84,389.11 614.79,389.06 615.73,389.01 616.68,388.96 617.62,388.91 618.57,388.86 619.51,388.81 620.46,388.76 621.40,388.71 622.35,388.66 623.29,388.61 624.24,388.56 625.18,388.51 626.13,388.46 627.08,388.41 628.02,388.36 628.97,388.31 629.91,388.26 630.86,388.21 631.80,388.16 632.75,388.11 633.69,388.06 634.64,388.01 635.58,387.96 636.53,387.91 637.47,387.86 638.42,387.81 639.37,387.76 640.31,387.71 641.26,387.66 642.20,387.61 643.15,387.56 644.09,387.51 645.04,387.46 645.98,387.41 646.93,387.36 647.87,387.31 648.82,387.26 649.76,387.21 650.71,387.16 651.66,387.11 652.60,387.06 653.55,387.01 654.49,386.96 655.44,386.91 656.38,386.86 657.33,386.81 658.27,386.76 659.22,386.71 660.16,386.66 661.11,386.61 662.05,386.56 663.00,386.52 663.95,386.47 664.89,386.42 665.84,386.37 666.78,386.32 667.73,386.27 668.67,386.22 669.62,386.17 670.56,386.12 671.51,386.07 672.45,386.02 673.40,385.97 674.34,385.92 675.29,385.87 676.24,385.82 677.18,385.77 678.13,385.72 679.07,385.67 680.02,385.63 680.96,385.58 681.91,385.53 682.85,385.48 683.80,385.43 684.74,385.38 685.69,385.33 686.63,385.28 687.58,385.23 688.53,385.18 689.47,385.14 690.42,385.09 691.36,385.04 692.31,384.99 693.25,384.94 694.20,384.89 695.14,384.85 696.09,384.80 697.03,384.75 697.98,384.70 698.92,384.65 699.87,384.61 700.82,384.56 701.76,384.51 702.71,384.46 703.65,384.42 704.60,384.37 705.54,384.32 706.49,384.27 707.43,384.23 708.38,384.18 709.32,384.14 710.27,384.09 711.21,384.04 712.16,384.00 713.11,383.95 714.05,383.91 715.00,383.86 715.94,383.81 716.89,383.77 717.83,383.72 718.78,383.68 719.72,383.64 720.67,383.59 721.61,383.55 722.56,383.50 723.50,383.46 724.45,383.42 725.39,383.37 726.34,383.33 727.29,383.29 728.23,383.25 729.18,383.20 730.12,383.16 731.07,383.12 732.01,383.08 732.96,383.04 733.90,383.00 734.85,382.96 735.79,382.92 736.74,382.88 737.68,382.84 738.63,382.80 739.58,382.76 740.52,382.72 741.47,382.68 742.41,382.65 743.36,382.61 744.30,382.57 745.25,382.53 746.19,382.50 747.14,382.46 748.08,382.42 749.03,382.39 749.97,382.35 750.92,382.32 751.87,382.28 752.81,382.25 753.76,382.21 754.70,382.18 755.65,382.15 756.59,382.11 757.54,382.08 758.48,382.05 759.43,382.01"/>
<line x1="828" y1="78" x2="856" y2="78" stroke="#8a4fbf" stroke-width="3"/>
<text x="864" y="82" font-family="Arial" font-size="13">qbar</text>
</svg>