<svg xmlns="http://www.w3.org/2000/svg" width="920" height="520" viewBox="0 0 920 520">
<rect width="100%" height="100%" fill="white"/>
<text x="460" y="28" text-anchor="middle" font-family="Arial" font-size="20">3-D Guidance Ground Track</text>
<rect x="78" y="54" width="720" height="380" fill="#fafafa" stroke="#222"/>
<line x1="78" y1="434" x2="798" y2="434" stroke="#222"/>
<line x1="78" y1="54" x2="78" y2="434" stroke="#222"/>
<text x="438" y="492" text-anchor="middle" font-family="Arial" font-size="14">east (m)</text>
<text transform="translate(22,244) rotate(-90)" text-anchor="middle" font-family="Arial" font-size="14">north (m)</text>
<text x="78" y="456" text-anchor="middle" font-family="Arial" font-size="11">-3419.91</text>
<text x="798" y="456" text-anchor="middle" font-family="Arial" font-size="11">60418.33</text>
<text x="68" y="434" text-anchor="end" font-family="Arial" font-size="11">-840.00</text>
<text x="68" y="59" text-anchor="end" font-family="Arial" font-size="11">14840.00</text>
<polyline fill="none" stroke="#2f6fbb" stroke-width="2.2" points="116.57,413.64 117.56,413.64 118.54,413.64 119.53,413.64 120.52,413.63 121.50,413.62 122.49,413.62 123.48,413.61 124.46,413.59 125.45,413.58 126.44,413.57 127.42,413.55 128.41,413.53 129.40,413.51 130.38,413.49 131.37,413.47 132.36,413.45 133.34,413.42 134.33,413.40 135.32,413.37 136.30,413.34 137.29,413.31 138.27,413.27 139.26,413.24 140.25,413.21 141.23,413.17 142.22,413.13 143.20,413.09 144.19,413.05 145.18,413.00 146.16,412.96 147.15,412.91 148.13,412.87 149.12,412.82 150.11,412.77 151.09,412.72 152.08,412.66 153.06,412.61 154.05,412.55 155.03,412.49 156.02,412.43 157.01,412.37 157.99,412.31 158.98,412.25 159.96,412.18 160.95,412.12 161.93,412.05 162.92,411.98 163.90,411.91 164.89,411.84 165.87,411.76 166.86,411.69 167.84,411.61 168.83,411.53 169.81,411.45 170.80,411.37 171.78,411.29 172.77,411.20 173.75,411.12 174.74,411.03 175.72,410.94 176.71,410.85 177.69,410.76 178.68,410.67 179.66,410.58 180.65,410.48 181.63,410.38 182.62,410.29 183.60,410.19 184.59,410.08 185.57,409.98 186.55,409.88 187.54,409.77 188.52,409.67 189.51,409.56 190.49,409.45 191.47,409.34 192.46,409.22 193.44,409.11 194.43,409.00 195.41,408.88 196.39,408.76 197.38,408.64 198.36,408.52 199.34,408.40 200.33,408.27 201.31,408.15 202.29,408.02 203.28,407.90 204.26,407.77 205.24,407.64 206.23,407.50 207.21,407.37 208.19,407.23 209.18,407.10 210.16,406.96 211.14,406.82 212.13,406.68 213.11,406.54 214.09,406.40 215.07,406.25 216.06,406.11 217.04,405.96 218.02,405.81 219.00,405.66 219.99,405.51 220.97,405.36 221.95,405.20 222.93,405.05 223.91,404.89 224.90,404.73 225.88,404.57 226.86,404.41 227.84,404.25 228.82,404.08 229.81,403.92 230.79,403.75 231.77,403.59 232.75,403.42 233.73,403.25 234.71,403.07 235.69,402.90 236.68,402.73 237.66,402.55 238.64,402.37 239.62,402.19 240.60,402.01 241.58,401.83 242.56,401.65 243.54,401.47 244.52,401.28 245.50,401.09 246.48,400.91 247.46,400.72 248.44,400.53 249.42,400.33 250.40,400.14 251.38,399.95 252.36,399.75 253.34,399.55 254.32,399.35 255.30,399.15 256.28,398.95 257.26,398.75 258.24,398.54 259.22,398.34 260.20,398.13 261.18,397.92 262.16,397.71 263.14,397.50 264.12,397.29 265.10,397.08 266.08,396.86 267.06,396.65 268.03,396.43 269.01,396.21 269.99,395.99 270.97,395.77 271.95,395.55 272.93,395.32 273.91,395.10 274.88,394.87 275.86,394.64 276.84,394.42 277.82,394.19 278.80,393.95 279.77,393.72 280.75,393.49 281.73,393.25 282.71,393.01 283.68,392.78 284.66,392.54 285.64,392.29 286.62,392.05 287.59,391.81 288.57,391.56 289.55,391.32 290.52,391.07 291.50,390.82 292.48,390.57 293.45,390.32 294.43,390.07 295.41,389.81 296.38,389.56 297.36,389.30 298.33,389.04 299.31,388.79 300.29,388.53 301.26,388.26 302.24,388.00 303.21,387.74 304.19,387.47 305.16,387.20 306.14,386.94 307.12,386.67 308.09,386.40 309.07,386.12 310.04,385.85 311.02,385.58 311.99,385.30 312.96,385.02 313.94,384.75 314.91,384.47 315.89,384.18 316.86,383.90 317.84,383.62 318.81,383.33 319.78,383.05 320.76,382.76 321.73,382.47 322.71,382.18 323.68,381.89 324.65,381.60 325.63,381.31 326.60,381.01 327.57,380.71 328.55,380.42 329.52,380.12 330.49,379.82 331.47,379.52 332.44,379.21 333.41,378.91 334.38,378.61 335.36,378.30 336.33,377.99 337.30,377.68 338.27,377.37 339.24,377.06 340.22,376.75 341.19,376.43 342.16,376.12 343.13,375.80 344.10,375.49 345.07,375.17 346.04,374.85 347.02,374.52 347.99,374.20 348.96,373.88 349.93,373.55 350.90,373.23 351.87,372.90 352.84,372.57 353.81,372.24 354.78,371.91 355.75,371.57 356.72,371.24 357.69,370.90 358.66,370.57 359.63,370.23 360.60,369.89 361.57,369.55 362.54,369.21 363.51,368.87 364.48,368.52 365.45,368.18 366.41,367.83 367.38,367.48 368.35,367.13 369.32,366.78 370.29,366.43 371.26,366.08 372.23,365.72 373.19,365.37 374.16,365.01 375.13,364.65 376.10,364.29 377.07,363.93 378.03,363.57 379.00,363.21 379.97,362.85 380.93,362.48 381.90,362.11 382.87,361.74 383.84,361.38 384.80,361.01 385.77,360.63 386.73,360.26 387.70,359.89 388.67,359.51 389.63,359.13 390.60,358.76 391.56,358.38 392.53,358.00 393.50,357.61 394.46,357.23 395.43,356.85 396.39,356.46 397.36,356.08 398.32,355.69 399.29,355.30 400.25,354.91 401.22,354.52 402.18,354.12 403.14,353.73 404.11,353.33 405.07,352.94 406.04,352.54 407.00,352.14 407.96,351.74 408.93,351.34 409.89,350.93 410.85,350.53 411.82,350.12 412.78,349.72 413.74,349.31 414.71,348.90 415.67,348.49 416.63,348.08 417.59,347.67 418.56,347.25 419.52,346.84 420.48,346.42 421.44,346.00 422.40,345.58 423.36,345.16 424.33,344.74 425.29,344.32 426.25,343.89 427.21,343.47 428.17,343.04 429.13,342.61 430.09,342.18 431.05,341.75 432.01,341.32 432.97,340.89 433.93,340.45 434.89,340.02 435.85,339.58 436.81,339.14 437.77,338.70 438.73,338.26 439.69,337.82 440.65,337.38 441.61,336.93 442.57,336.49 443.52,336.04 444.48,335.59 445.44,335.14 446.40,334.69 447.36,334.24 448.31,333.79 449.27,333.33 450.23,332.88 451.19,332.42 452.14,331.96 453.10,331.50 454.06,331.04 455.02,330.58 455.97,330.11 456.93,329.65 457.88,329.18 458.84,328.72 459.80,328.25 460.75,327.78 461.71,327.31 462.66,326.83 463.62,326.36 464.57,325.89 465.53,325.41 466.49,324.93 467.44,324.45 468.39,323.97 469.35,323.49 470.30,323.01 471.26,322.53 472.21,322.04 473.17,321.55 474.12,321.07 475.07,320.58 476.03,320.09 476.98,319.59 477.93,319.10 478.88,318.61 479.84,318.11 480.79,317.61 481.74,317.12 482.69,316.62 483.65,316.12 484.60,315.61 485.55,315.11 486.50,314.61 487.45,314.10 488.40,313.59 489.36,313.08 490.31,312.57 491.26,312.06 492.21,311.55 493.16,311.04 494.11,310.52 495.06,310.00 496.01,309.49 496.96,308.97 497.91,308.45 498.86,307.93 499.81,307.40 500.75,306.88 501.70,306.35 502.65,305.83 503.60,305.30 504.55,304.77 505.50,304.24 506.44,303.70 507.39,303.17 508.34,302.63 509.29,302.10 510.23,301.56 511.18,301.02 512.13,300.48 513.08,299.94 514.02,299.40 514.97,298.85 515.91,298.30 516.86,297.76 517.81,297.21 518.75,296.66 519.70,296.11 520.64,295.55 521.59,295.00 522.53,294.44 523.48,293.89 524.42,293.33 525.36,292.77 526.31,292.21 527.25,291.65 528.20,291.08 529.14,290.52 530.08,289.95 531.02,289.38 531.97,288.81 532.91,288.24 533.85,287.67 534.79,287.10 535.74,286.52 536.68,285.94 537.62,285.37 538.56,284.79 539.50,284.21 540.44,283.62 541.38,283.04 542.32,282.46 543.26,281.87 544.21,281.28 545.14,280.69 546.08,280.10 547.02,279.51 547.96,278.92 548.90,278.32 549.84,277.72 550.78,277.13 551.72,276.53 552.66,275.93 553.59,275.32 554.53,274.72 555.47,274.11 556.41,273.51 557.34,272.90 558.28,272.29 559.22,271.68 560.15,271.06 561.09,270.45 562.03,269.83 562.96,269.22 563.90,268.60 564.83,267.98 565.77,267.36 566.70,266.73 567.64,266.11 568.57,265.48 569.50,264.85 570.44,264.22 571.37,263.59 572.30,262.96 573.24,262.33 574.17,261.69 575.10,261.05 576.03,260.41 576.97,259.77 577.90,259.13 578.83,258.49 579.76,257.84 580.69,257.19 581.62,256.55 582.55,255.90 583.48,255.24 584.41,254.59 585.34,253.94 586.27,253.28 587.20,252.62 588.13,251.96 589.06,251.30 589.99,250.64 590.92,249.97 591.84,249.30 592.77,248.64 593.70,247.97 594.62,247.30 595.55,246.62 596.48,245.95 597.40,245.27 598.33,244.59 599.25,243.91 600.18,243.23 601.10,242.55 602.03,241.86 602.95,241.17 603.88,240.48 604.80,239.79 605.72,239.10 606.65,238.41 607.57,237.71 608.49,237.01 609.42,236.31 610.34,235.61 611.26,234.91 612.18,234.20 613.10,233.50 614.02,232.79 614.94,232.08 615.86,231.36 616.78,230.65 617.70,229.93 618.62,229.21 619.54,228.49 620.45,227.77 621.37,227.05 622.29,226.32 623.21,225.59 624.12,224.86 625.04,224.13 625.96,223.40 626.87,222.66 627.79,221.92 628.70,221.18 629.62,220.44 630.53,219.70 631.44,218.95 632.36,218.20 633.27,217.45 634.18,216.70 635.10,215.95 636.01,215.19 636.92,214.43 637.83,213.67 638.74,212.91 639.65,212.14 640.56,211.38 641.47,210.61 642.38,209.84 643.29,209.06 644.20,208.29 645.10,207.51 646.01,206.73 646.92,205.95 647.83,205.17 648.73,204.39 649.64,203.60 650.54,202.81 651.45,202.02 652.35,201.23 653.26,200.43 654.16,199.63 655.07,198.84 655.97,198.03 656.87,197.23 657.77,196.43 658.68,195.62 659.58,194.81 660.48,194.00 661.38,193.19 662.28,192.37 663.18,191.55 664.08,190.73 664.98,189.91 665.88,189.09 666.78,188.26 667.67,187.44 668.57,186.61 669.47,185.78 670.36,184.94 671.26,184.11 672.16,183.27 673.05,182.43 673.95,181.59 674.84,180.75 675.73,179.90 676.63,179.05 677.52,178.21 678.41,177.35 679.31,176.50 680.20,175.65 681.09,174.79 681.98,173.93 682.87,173.07 683.76,172.21 684.65,171.34 685.54,170.47 686.43,169.60 687.32,168.73 688.21,167.86 689.09,166.98 689.98,166.11 690.87,165.23 691.75,164.35 692.64,163.46 693.52,162.58 694.41,161.69 695.29,160.80 696.18,159.91 697.06,159.02 697.94,158.12 698.83,157.23 699.71,156.33 700.59,155.43 701.47,154.53 702.35,153.62 703.23,152.71 704.11,151.81 704.99,150.89 705.87,149.98 706.75,149.07 707.63,148.15 708.50,147.23 709.38,146.31 710.26,145.39 711.13,144.47 712.01,143.54 712.88,142.61 713.76,141.68 714.63,140.75 715.51,139.81 716.38,138.88 717.25,137.94 718.13,137.00 719.00,136.06 719.87,135.12 720.74,134.17 721.61,133.22 722.48,132.27 723.35,131.32 724.22,130.37 725.09,129.41 725.96,128.45 726.82,127.49 727.69,126.53 728.56,125.57 729.42,124.60 730.29,123.64 731.16,122.67 732.02,121.70 732.88,120.72 733.75,119.75 734.61,118.77 735.47,117.79 736.34,116.81 737.20,115.83 738.06,114.85 738.92,113.86 739.78,112.87 740.64,111.88 741.50,110.89 742.36,109.90 743.22,108.90 744.07,107.90 744.93,106.90 745.79,105.90 746.64,104.90 747.50,103.89 748.36,102.88 749.21,101.88 750.07,100.86 750.92,99.85 751.77,98.84 752.62,97.82 753.48,96.80 754.33,95.78 755.18,94.76 756.03,93.73 756.88,92.71 757.73,91.68 758.58,90.65 759.43,89.61"/>
<line x1="828" y1="78" x2="856" y2="78" stroke="#2f6fbb" stroke-width="3"/>
<text x="864" y="82" font-family="Arial" font-size="13">vehicle</text>
<polyline fill="none" stroke="#c23b3b" stroke-width="2.2" points="697.98,74.36 708.13,74.36"/>
<line x1="828" y1="102" x2="856" y2="102" stroke="#c23b3b" stroke-width="3"/>
<text x="864" y="106" font-family="Arial" font-size="13">target</text>
</svg>