<svg xmlns="http://www.w3.org/2000/svg" width="920" height="520" viewBox="0 0 920 520">
<rect width="100%" height="100%" fill="white"/>
<text x="460" y="28" text-anchor="middle" font-family="Arial" font-size="20">Interface Allocation Residual</text>
<rect x="78" y="54" width="720" height="380" fill="#fafafa" stroke="#222"/>
<line x1="78" y1="434" x2="798" y2="434" stroke="#222"/>
<line x1="78" y1="54" x2="78" y2="434" stroke="#222"/>
<text x="438" y="492" text-anchor="middle" font-family="Arial" font-size="14">time (s)</text>
<text transform="translate(22,244) rotate(-90)" text-anchor="middle" font-family="Arial" font-size="14">residual norm (N m)</text>
<text x="78" y="456" text-anchor="middle" font-family="Arial" font-size="11">-2.04</text>
<text x="798" y="456" text-anchor="middle" font-family="Arial" font-size="11">36.04</text>
<text x="68" y="434" text-anchor="end" font-family="Arial" font-size="11">-83.38</text>
<text x="68" y="59" text-anchor="end" font-family="Arial" font-size="11">1478.43</text>
<polyline fill="none" stroke="#c23b3b" stroke-width="2.2" points="116.57,74.36 117.52,413.40 118.46,413.39 119.41,413.39 120.35,413.39 121.30,413.39 122.24,413.39 123.19,413.39 124.13,413.39 125.08,413.39 126.03,413.39 126.97,413.39 127.92,413.39 128.86,413.39 129.81,413.39 130.75,413.40 131.70,413.40 132.64,413.40 133.59,413.40 134.53,413.41 135.48,413.41 136.42,413.41 137.37,413.41 138.32,413.41 139.26,413.41 140.21,413.42 141.15,413.42 142.10,413.42 143.04,413.41 143.99,413.41 144.93,413.41 145.88,413.41 146.82,413.40 147.77,413.40 148.71,413.40 149.66,413.44 150.61,413.49 151.55,413.54 152.50,413.59 153.44,413.63 154.39,413.64 155.33,413.62 156.28,413.59 157.22,413.54 158.17,413.49 159.11,413.45 160.06,413.41 161.00,413.41 161.95,413.41 162.89,413.41 163.84,413.41 164.79,413.41 165.73,413.41 166.68,413.41 167.62,413.40 168.57,413.40 169.51,413.40 170.46,413.40 171.40,413.40 172.35,413.40 173.29,413.40 174.24,413.40 175.18,413.40 176.13,413.40 177.08,413.40 178.02,413.40 178.97,413.40 179.91,413.40 180.86,413.40 181.80,413.41 182.75,413.41 183.69,413.41 184.64,413.41 185.58,413.41 186.53,413.41 187.47,413.41 188.42,413.41 189.37,413.41 190.31,413.41 191.26,413.41 192.20,413.41 193.15,413.40 194.09,413.40 195.04,413.40 195.98,413.39 196.93,413.39 197.87,413.39 198.82,413.38 199.76,413.37 200.71,413.37 201.66,413.36 202.60,413.36 203.55,413.35 204.49,413.34 205.44,413.34 206.38,413.33 207.33,413.32 208.27,413.32 209.22,413.31 210.16,413.30 211.11,413.29 212.05,413.29 213.00,413.28 213.95,413.27 214.89,413.27 215.84,413.28 216.78,413.32 217.73,413.35 218.67,413.38 219.62,413.41 220.56,413.44 221.51,413.46 222.45,413.47 223.40,413.48 224.34,413.47 225.29,413.46 226.24,413.44 227.18,413.41 228.13,413.38 229.07,413.38 230.02,413.38 230.96,413.38 231.91,413.38 232.85,413.38 233.80,413.38 234.74,413.38 235.69,413.38 236.63,413.38 237.58,413.38 238.53,413.38 239.47,413.38 240.42,413.37 241.36,413.37 242.31,413.37 243.25,413.37 244.20,413.37 245.14,413.36 246.09,413.36 247.03,413.36 247.98,413.36 248.92,413.35 249.87,413.35 250.82,413.34 251.76,413.34 252.71,413.34 253.65,413.33 254.60,413.33 255.54,413.32 256.49,413.31 257.43,413.31 258.38,413.30 259.32,413.30 260.27,413.29 261.21,413.29 262.16,413.28 263.11,413.27 264.05,413.27 265.00,413.26 265.94,413.26 266.89,413.25 267.83,413.25 268.78,413.24 269.72,413.24 270.67,413.24 271.61,413.23 272.56,413.23 273.50,413.23 274.45,413.23 275.39,413.25 276.34,413.28 277.29,413.31 278.23,413.34 279.18,413.37 280.12,413.40 281.07,413.43 282.01,413.44 282.96,413.46 283.90,413.46 284.85,413.46 285.79,413.45 286.74,413.43 287.68,413.41 288.63,413.39 289.58,413.36 290.52,413.36 291.47,413.36 292.41,413.36 293.36,413.36 294.30,413.36 295.25,413.35 296.19,413.35 297.14,413.35 298.08,413.34 299.03,413.34 299.97,413.34 300.92,413.33 301.87,413.33 302.81,413.32 303.76,413.31 304.70,413.31 305.65,413.30 306.59,413.29 307.54,413.28 308.48,413.27 309.43,413.27 310.37,413.26 311.32,413.25 312.26,413.24 313.21,413.23 314.16,413.22 315.10,413.22 316.05,413.21 316.99,413.20 317.94,413.19 318.88,413.19 319.83,413.18 320.77,413.18 321.72,413.17 322.66,413.17 323.61,413.16 324.55,413.16 325.50,413.16 326.45,413.16 327.39,413.15 328.34,413.18 329.28,413.20 330.23,413.23 331.17,413.26 332.12,413.28 333.06,413.31 334.01,413.33 334.95,413.35 335.90,413.36 336.84,413.38 337.79,413.38 338.74,413.39 339.68,413.38 340.63,413.38 341.57,413.37 342.52,413.35 343.46,413.33 344.41,413.31 345.35,413.29 346.30,413.29 347.24,413.29 348.19,413.29 349.13,413.28 350.08,413.28 351.03,413.27 351.97,413.27 352.92,413.26 353.86,413.25 354.81,413.25 355.75,413.24 356.70,413.23 357.64,413.22 358.59,413.21 359.53,413.20 360.48,413.20 361.42,413.19 362.37,413.18 363.32,413.17 364.26,413.16 365.21,413.15 366.15,413.15 367.10,413.14 368.04,413.13 368.99,413.13 369.93,413.12 370.88,413.12 371.82,413.11 372.77,413.11 373.71,413.11 374.66,413.11 375.61,413.13 376.55,413.15 377.50,413.17 378.44,413.19 379.39,413.22 380.33,413.24 381.28,413.26 382.22,413.28 383.17,413.30 384.11,413.32 385.06,413.34 386.00,413.35 386.95,413.36 387.89,413.36 388.84,413.37 389.79,413.36 390.73,413.36 391.68,413.35 392.62,413.34 393.57,413.32 394.51,413.31 395.46,413.29 396.40,413.27 397.35,413.26 398.29,413.26 399.24,413.25 400.18,413.24 401.13,413.23 402.08,413.22 403.02,413.21 403.97,413.20 404.91,413.19 405.86,413.18 406.80,413.16 407.75,413.15 408.69,413.14 409.64,413.12 410.58,413.11 411.53,413.10 412.47,413.09 413.42,413.08 414.37,413.06 415.31,413.05 416.26,413.05 417.20,413.05 418.15,413.05 419.09,413.06 420.04,413.07 420.98,413.08 421.93,413.09 422.87,413.10 423.82,413.12 424.76,413.13 425.71,413.14 426.66,413.16 427.60,413.17 428.55,413.18 429.49,413.20 430.44,413.21 431.38,413.22 432.33,413.23 433.27,413.24 434.22,413.25 435.16,413.25 436.11,413.25 437.05,413.25 438.00,413.25 438.95,413.25 439.89,413.25 440.84,413.24 441.78,413.23 442.73,413.23 443.67,413.22 444.62,413.21 445.56,413.20 446.51,413.19 447.45,413.18 448.40,413.17 449.34,413.16 450.29,413.15 451.24,413.14 452.18,413.13 453.13,413.11 454.07,413.11 455.02,413.10 455.96,413.09 456.91,413.09 457.85,413.08 458.80,413.08 459.74,413.07 460.69,413.07 461.63,413.07 462.58,413.07 463.53,413.07 464.47,413.07 465.42,413.07 466.36,413.07 467.31,413.08 468.25,413.08 469.20,413.09 470.14,413.09 471.09,413.10 472.03,413.10 472.98,413.11 473.92,413.12 474.87,413.12 475.82,413.13 476.76,413.14 477.71,413.14 478.65,413.15 479.60,413.16 480.54,413.17 481.49,413.17 482.43,413.18 483.38,413.18 484.32,413.19 485.27,413.19 486.21,413.19 487.16,413.19 488.11,413.20 489.05,413.19 490.00,413.19 490.94,413.19 491.89,413.19 492.83,413.18 493.78,413.18 494.72,413.17 495.67,413.16 496.61,413.15 497.56,413.14 498.50,413.13 499.45,413.12 500.39,413.11 501.34,413.10 502.29,413.08 503.23,413.07 504.18,413.06 505.12,413.05 506.07,413.04 507.01,413.03 507.96,413.02 508.90,413.01 509.85,413.00 510.79,412.99 511.74,412.98 512.68,412.98 513.63,412.97 514.58,412.97 515.52,412.96 516.47,412.96 517.41,412.96 518.36,412.96 519.30,412.96 520.25,412.96 521.19,412.97 522.14,412.97 523.08,412.98 524.03,412.99 524.97,413.00 525.92,413.00 526.87,413.01 527.81,413.03 528.76,413.04 529.70,413.05 530.65,413.06 531.59,413.07 532.54,413.08 533.48,413.09 534.43,413.11 535.37,413.12 536.32,413.12 537.26,413.13 538.21,413.14 539.16,413.14 540.10,413.14 541.05,413.14 541.99,413.14 542.94,413.14 543.88,413.13 544.83,413.12 545.77,413.11 546.72,413.10 547.66,413.09 548.61,413.07 549.55,413.06 550.50,413.04 551.45,413.03 552.39,413.02 553.34,413.02 554.28,413.02 555.23,413.02 556.17,413.01 557.12,413.00 558.06,412.99 559.01,412.98 559.95,412.97 560.90,412.95 561.84,412.94 562.79,412.92 563.74,412.91 564.68,412.89 565.63,412.87 566.57,412.86 567.52,412.84 568.46,412.83 569.41,412.84 570.35,412.84 571.30,412.87 572.24,412.89 573.19,412.91 574.13,412.93 575.08,412.95 576.03,412.97 576.97,412.99 577.92,413.01 578.86,413.03 579.81,413.04 580.75,413.05 581.70,413.05 582.64,413.05 583.59,413.05 584.53,413.05 585.48,413.06 586.42,413.07 587.37,413.07 588.32,413.07 589.26,413.07 590.21,413.06 591.15,413.06 592.10,413.04 593.04,413.03 593.99,413.01 594.93,412.99 595.88,413.00 596.82,413.02 597.77,413.03 598.71,413.04 599.66,413.05 600.61,413.05 601.55,413.05 602.50,413.05 603.44,413.04 604.39,413.03 605.33,413.01 606.28,412.99 607.22,412.97 608.17,412.95 609.11,412.93 610.06,412.90 611.00,412.88 611.95,412.85 612.89,412.83 613.84,412.80 614.79,412.79 615.73,412.79 616.68,412.79 617.62,412.79 618.57,412.79 619.51,412.79 620.46,412.79 621.40,412.79 622.35,412.79 623.29,412.79 624.24,412.79 625.18,412.79 626.13,412.79 627.08,412.81 628.02,412.84 628.97,412.87 629.91,412.91 630.86,412.94 631.80,412.97 632.75,413.00 633.69,413.02 634.64,413.04 635.58,413.06 636.53,413.07 637.47,413.07 638.42,413.06 639.37,413.05 640.31,413.06 641.26,413.07 642.20,413.07 643.15,413.07 644.09,413.06 645.04,413.04 645.98,413.02 646.93,413.00 647.87,413.01 648.82,413.03 649.76,413.04 650.71,413.05 651.66,413.06 652.60,413.06 653.55,413.06 654.49,413.05 655.44,413.04 656.38,413.03 657.33,413.01 658.27,412.98 659.22,412.96 660.16,412.93 661.11,412.90 662.05,412.87 663.00,412.84 663.95,412.81 664.89,412.79 665.84,412.79 666.78,412.79 667.73,412.79 668.67,412.79 669.62,412.79 670.56,412.78 671.51,412.78 672.45,412.78 673.40,412.78 674.34,412.78 675.29,412.78 676.24,412.77 677.18,412.77 678.13,412.77 679.07,412.77 680.02,412.77 680.96,412.76 681.91,412.76 682.85,412.76 683.80,412.76 684.74,412.75 685.69,412.75 686.63,412.79 687.58,412.83 688.53,412.87 689.47,412.92 690.42,412.95 691.36,412.99 692.31,413.02 693.25,413.04 694.20,413.05 695.14,413.06 696.09,413.06 697.03,413.04 697.98,413.02 698.92,413.03 699.87,413.04 700.82,413.03 701.76,413.02 702.71,413.00 703.65,412.99 704.60,413.01 705.54,413.04 706.49,413.05 707.43,413.06 708.38,413.07 709.32,413.06 710.27,413.06 711.21,413.04 712.16,413.02 713.11,413.00 714.05,412.97 715.00,412.94 715.94,412.91 716.89,412.87 717.83,412.83 718.78,412.80 719.72,412.77 720.67,412.77 721.61,412.76 722.56,412.76 723.50,412.76 724.45,412.75 725.39,412.75 726.34,412.75 727.29,412.75 728.23,412.74 729.18,412.74 730.12,412.74 731.07,412.74 732.01,412.74 732.96,412.73 733.90,412.73 734.85,412.73 735.79,412.73 736.74,412.73 737.68,412.73 738.63,412.73 739.58,412.73 740.52,412.73 741.47,412.73 742.41,412.73 743.36,412.73 744.30,412.73 745.25,412.73 746.19,412.73 747.14,412.74 748.08,412.74 749.03,412.74 749.97,412.79 750.92,412.85 751.87,412.90 752.81,412.95 753.76,412.99 754.70,413.03 755.65,413.05 756.59,413.07 757.54,413.07 758.48,413.06 759.43,413.03"/>
<line x1="828" y1="78" x2="856" y2="78" stroke="#c23b3b" stroke-width="3"/>
<text x="864" y="82" font-family="Arial" font-size="13">residual</text>
</svg>