<svg xmlns="http://www.w3.org/2000/svg" width="920" height="520" viewBox="0 0 920 520">
<rect width="100%" height="100%" fill="white"/>
<text x="460" y="28" text-anchor="middle" font-family="Arial" font-size="20">Guidance Interface Errors</text>
<rect x="78" y="54" width="720" height="380" fill="#fafafa" stroke="#222"/>
<line x1="78" y1="434" x2="798" y2="434" stroke="#222"/>
<line x1="78" y1="54" x2="78" y2="434" stroke="#222"/>
<text x="438" y="492" text-anchor="middle" font-family="Arial" font-size="14">time (s)</text>
<text transform="translate(22,244) rotate(-90)" text-anchor="middle" font-family="Arial" font-size="14">error (rad)</text>
<text x="78" y="456" text-anchor="middle" font-family="Arial" font-size="11">-2.04</text>
<text x="798" y="456" text-anchor="middle" font-family="Arial" font-size="11">36.04</text>
<text x="68" y="434" text-anchor="end" font-family="Arial" font-size="11">-0.15</text>
<text x="68" y="59" text-anchor="end" font-family="Arial" font-size="11">2.65</text>
<polyline fill="none" stroke="#2f6fbb" stroke-width="2.2" points="116.57,413.64 117.52,413.64 118.46,413.64 119.41,413.64 120.35,413.64 121.30,413.64 122.24,413.64 123.19,413.64 124.13,413.64 125.08,413.64 126.03,413.64 126.97,413.64 127.92,413.64 128.86,413.64 129.81,413.64 130.75,413.64 131.70,413.64 132.64,413.64 133.59,413.63 134.53,413.63 135.48,413.63 136.42,413.63 137.37,413.63 138.32,413.63 139.26,413.63 140.21,413.63 141.15,413.63 142.10,413.63 143.04,413.63 143.99,413.63 144.93,413.63 145.88,413.63 146.82,413.63 147.77,413.63 148.71,413.63 149.66,413.63 150.61,413.63 151.55,413.63 152.50,413.63 153.44,413.63 154.39,413.63 155.33,413.63 156.28,413.62 157.22,413.62 158.17,413.62 159.11,413.62 160.06,413.62 161.00,413.62 161.95,413.62 162.89,413.62 163.84,413.62 164.79,413.62 165.73,413.62 166.68,413.62 167.62,413.62 168.57,413.62 169.51,413.62 170.46,413.62 171.40,413.62 172.35,413.62 173.29,413.62 174.24,413.62 175.18,413.62 176.13,413.62 177.08,413.62 178.02,413.62 178.97,413.62 179.91,413.61 180.86,413.61 181.80,413.61 182.75,413.61 183.69,413.61 184.64,413.61 185.58,413.61 186.53,413.61 187.47,413.61 188.42,413.61 189.37,413.61 190.31,413.61 191.26,413.61 192.20,413.61 193.15,413.61 194.09,413.61 195.04,413.61 195.98,413.61 196.93,413.61 197.87,413.61 198.82,413.61 199.76,413.61 200.71,413.61 201.66,413.61 202.60,413.61 203.55,413.61 204.49,413.61 205.44,413.61 206.38,413.60 207.33,413.60 208.27,413.60 209.22,413.60 210.16,413.60 211.11,413.60 212.05,413.60 213.00,413.60 213.95,413.60 214.89,413.60 215.84,413.60 216.78,413.60 217.73,413.60 218.67,413.60 219.62,413.60 220.56,413.60 221.51,413.60 222.45,413.60 223.40,413.60 224.34,413.60 225.29,413.60 226.24,413.60 227.18,413.60 228.13,413.60 229.07,413.60 230.02,413.60 230.96,413.60 231.91,413.60 232.85,413.60 233.80,413.60 234.74,413.59 235.69,413.59 236.63,413.59 237.58,413.59 238.53,413.59 239.47,413.59 240.42,413.59 241.36,413.59 242.31,413.59 243.25,413.59 244.20,413.59 245.14,413.59 246.09,413.59 247.03,413.59 247.98,413.59 248.92,413.59 249.87,413.59 250.82,413.59 251.76,413.59 252.71,413.59 253.65,413.59 254.60,413.59 255.54,413.59 256.49,413.59 257.43,413.59 258.38,413.59 259.32,413.59 260.27,413.59 261.21,413.59 262.16,413.59 263.11,413.59 264.05,413.59 265.00,413.59 265.94,413.58 266.89,413.58 267.83,413.58 268.78,413.58 269.72,413.58 270.67,413.58 271.61,413.58 272.56,413.58 273.50,413.58 274.45,413.58 275.39,413.58 276.34,413.58 277.29,413.58 278.23,413.58 279.18,413.58 280.12,413.58 281.07,413.58 282.01,413.58 282.96,413.58 283.90,413.58 284.85,413.58 285.79,413.58 286.74,413.58 287.68,413.58 288.63,413.58 289.58,413.58 290.52,413.58 291.47,413.58 292.41,413.58 293.36,413.58 294.30,413.58 295.25,413.58 296.19,413.58 297.14,413.58 298.08,413.58 299.03,413.58 299.97,413.57 300.92,413.57 301.87,413.57 302.81,413.57 303.76,413.57 304.70,413.57 305.65,413.57 306.59,413.57 307.54,413.57 308.48,413.57 309.43,413.57 310.37,413.57 311.32,413.57 312.26,413.57 313.21,413.57 314.16,413.57 315.10,413.57 316.05,413.57 316.99,413.57 317.94,413.57 318.88,413.57 319.83,413.57 320.77,413.57 321.72,413.57 322.66,413.57 323.61,413.57 324.55,413.57 325.50,413.57 326.45,413.57 327.39,413.57 328.34,413.57 329.28,413.57 330.23,413.57 331.17,413.57 332.12,413.57 333.06,413.57 334.01,413.57 334.95,413.57 335.90,413.57 336.84,413.56 337.79,413.56 338.74,413.56 339.68,413.56 340.63,413.56 341.57,413.56 342.52,413.56 343.46,413.56 344.41,413.56 345.35,413.56 346.30,413.56 347.24,413.56 348.19,413.56 349.13,413.56 350.08,413.56 351.03,413.56 351.97,413.56 352.92,413.56 353.86,413.56 354.81,413.56 355.75,413.56 356.70,413.56 357.64,413.56 358.59,413.56 359.53,413.56 360.48,413.56 361.42,413.56 362.37,413.56 363.32,413.56 364.26,413.56 365.21,413.56 366.15,413.56 367.10,413.56 368.04,413.56 368.99,413.56 369.93,413.56 370.88,413.56 371.82,413.56 372.77,413.56 373.71,413.56 374.66,413.56 375.61,413.56 376.55,413.55 377.50,413.55 378.44,413.55 379.39,413.55 380.33,413.55 381.28,413.55 382.22,413.55 383.17,413.55 384.11,413.55 385.06,413.55 386.00,413.55 386.95,413.55 387.89,413.55 388.84,413.55 389.79,413.55 390.73,413.55 391.68,413.55 392.62,413.55 393.57,413.55 394.51,413.55 395.46,413.55 396.40,413.55 397.35,413.55 398.29,413.55 399.24,413.55 400.18,413.55 401.13,413.55 402.08,413.55 403.02,413.55 403.97,413.55 404.91,413.55 405.86,413.55 406.80,413.55 407.75,413.55 408.69,413.55 409.64,413.55 410.58,413.55 411.53,413.55 412.47,413.55 413.42,413.55 414.37,413.55 415.31,413.55 416.26,413.55 417.20,413.55 418.15,413.54 419.09,413.54 420.04,413.54 420.98,413.54 421.93,413.54 422.87,413.54 423.82,413.54 424.76,413.54 425.71,413.54 426.66,413.54 427.60,413.54 428.55,413.54 429.49,413.54 430.44,413.54 431.38,413.54 432.33,413.54 433.27,413.54 434.22,413.54 435.16,413.54 436.11,413.54 437.05,413.54 438.00,413.54 438.95,413.54 439.89,413.54 440.84,413.54 441.78,413.54 442.73,413.54 443.67,413.54 444.62,413.54 445.56,413.54 446.51,413.54 447.45,413.54 448.40,413.54 449.34,413.54 450.29,413.54 451.24,413.54 452.18,413.54 453.13,413.54 454.07,413.54 455.02,413.54 455.96,413.54 456.91,413.54 457.85,413.53 458.80,413.53 459.74,413.53 460.69,413.53 461.63,413.53 462.58,413.53 463.53,413.53 464.47,413.53 465.42,413.53 466.36,413.53 467.31,413.53 468.25,413.53 469.20,413.53 470.14,413.53 471.09,413.53 472.03,413.53 472.98,413.53 473.92,413.53 474.87,413.53 475.82,413.53 476.76,413.53 477.71,413.53 478.65,413.53 479.60,413.53 480.54,413.53 481.49,413.53 482.43,413.53 483.38,413.53 484.32,413.53 485.27,413.53 486.21,413.53 487.16,413.53 488.11,413.53 489.05,413.53 490.00,413.53 490.94,413.53 491.89,413.53 492.83,413.52 493.78,413.52 494.72,413.52 495.67,413.52 496.61,413.52 497.56,413.52 498.50,413.52 499.45,413.52 500.39,413.52 501.34,413.52 502.29,413.52 503.23,413.52 504.18,413.52 505.12,413.52 506.07,413.52 507.01,413.52 507.96,413.52 508.90,413.52 509.85,413.52 510.79,413.52 511.74,413.52 512.68,413.52 513.63,413.52 514.58,413.52 515.52,413.52 516.47,413.52 517.41,413.52 518.36,413.52 519.30,413.52 520.25,413.52 521.19,413.52 522.14,413.51 523.08,413.51 524.03,413.51 524.97,413.51 525.92,413.51 526.87,413.51 527.81,413.51 528.76,413.51 529.70,413.51 530.65,413.51 531.59,413.51 532.54,413.51 533.48,413.51 534.43,413.51 535.37,413.51 536.32,413.51 537.26,413.51 538.21,413.51 539.16,413.51 540.10,413.51 541.05,413.51 541.99,413.51 542.94,413.51 543.88,413.50 544.83,413.50 545.77,413.50 546.72,413.50 547.66,413.50 548.61,413.50 549.55,413.50 550.50,413.50 551.45,413.50 552.39,413.50 553.34,413.50 554.28,413.50 555.23,413.50 556.17,413.50 557.12,413.50 558.06,413.50 559.01,413.50 559.95,413.50 560.90,413.50 561.84,413.49 562.79,413.49 563.74,413.49 564.68,413.49 565.63,413.49 566.57,413.49 567.52,413.49 568.46,413.49 569.41,413.49 570.35,413.49 571.30,413.49 572.24,413.49 573.19,413.49 574.13,413.49 575.08,413.48 576.03,413.48 576.97,413.48 577.92,413.48 578.86,413.48 579.81,413.48 580.75,413.48 581.70,413.48 582.64,413.48 583.59,413.48 584.53,413.48 585.48,413.48 586.42,413.47 587.37,413.47 588.32,413.47 589.26,413.47 590.21,413.47 591.15,413.47 592.10,413.47 593.04,413.47 593.99,413.47 594.93,413.46 595.88,413.46 596.82,413.46 597.77,413.46 598.71,413.46 599.66,413.46 600.61,413.46 601.55,413.46 602.50,413.45 603.44,413.45 604.39,413.45 605.33,413.45 606.28,413.45 607.22,413.45 608.17,413.45 609.11,413.44 610.06,413.44 611.00,413.44 611.95,413.44 612.89,413.44 613.84,413.44 614.79,413.43 615.73,413.43 616.68,413.43 617.62,413.43 618.57,413.43 619.51,413.42 620.46,413.42 621.40,413.42 622.35,413.42 623.29,413.42 624.24,413.41 625.18,413.41 626.13,413.41 627.08,413.41 628.02,413.40 628.97,413.40 629.91,413.40 630.86,413.39 631.80,413.39 632.75,413.39 633.69,413.39 634.64,413.38 635.58,413.38 636.53,413.38 637.47,413.37 638.42,413.37 639.37,413.36 640.31,413.36 641.26,413.36 642.20,413.35 643.15,413.35 644.09,413.34 645.04,413.34 645.98,413.33 646.93,413.33 647.87,413.32 648.82,413.32 649.76,413.31 650.71,413.31 651.66,413.30 652.60,413.30 653.55,413.29 654.49,413.28 655.44,413.28 656.38,413.27 657.33,413.26 658.27,413.25 659.22,413.25 660.16,413.24 661.11,413.23 662.05,413.22 663.00,413.21 663.95,413.20 664.89,413.19 665.84,413.18 666.78,413.17 667.73,413.16 668.67,413.15 669.62,413.13 670.56,413.12 671.51,413.11 672.45,413.09 673.40,413.08 674.34,413.06 675.29,413.05 676.24,413.03 677.18,413.01 678.13,412.99 679.07,412.97 680.02,412.95 680.96,412.93 681.91,412.91 682.85,412.89 683.80,412.86 684.74,412.84 685.69,412.81 686.63,412.78 687.58,412.76 688.53,412.73 689.47,412.69 690.42,412.66 691.36,412.63 692.31,412.59 693.25,412.56 694.20,412.52 695.14,412.48 696.09,412.43 697.03,412.39 697.98,412.35 698.92,412.30 699.87,412.25 700.82,412.20 701.76,412.15 702.71,412.10 703.65,412.05 704.60,411.99 705.54,411.94 706.49,411.88 707.43,411.82 708.38,411.76 709.32,411.70 710.27,411.64 711.21,411.58 712.16,411.52 713.11,411.46 714.05,411.40 715.00,411.34 715.94,411.28 716.89,411.22 717.83,411.16 718.78,411.11 719.72,411.05 720.67,411.00 721.61,410.94 722.56,410.89 723.50,410.84 724.45,410.79 725.39,410.75 726.34,410.70 727.29,410.66 728.23,410.62 729.18,410.58 730.12,410.54 731.07,410.51 732.01,410.48 732.96,410.45 733.90,410.42 734.85,410.39 735.79,410.37 736.74,410.34 737.68,410.32 738.63,410.30 739.58,410.28 740.52,410.26 741.47,410.25 742.41,410.24 743.36,410.22 744.30,410.21 745.25,410.20 746.19,410.19 747.14,410.19 748.08,410.18 749.03,410.18 749.97,410.17 750.92,410.17 751.87,410.17 752.81,410.16 753.76,410.16 754.70,410.16 755.65,410.16 756.59,410.17 757.54,410.17 758.48,410.17 759.43,410.18"/>
<line x1="828" y1="78" x2="856" y2="78" stroke="#2f6fbb" stroke-width="3"/>
<text x="864" y="82" font-family="Arial" font-size="13">gamma error</text>
<polyline fill="none" stroke="#8a4fbf" stroke-width="2.2" points="116.57,377.83 117.52,377.87 118.46,377.91 119.41,377.95 120.35,377.99 121.30,378.03 122.24,378.07 123.19,378.11 124.13,378.15 125.08,378.19 126.03,378.23 126.97,378.27 127.92,378.31 128.86,378.35 129.81,378.38 130.75,378.42 131.70,378.46 132.64,378.50 133.59,378.54 134.53,378.58 135.48,378.62 136.42,378.65 137.37,378.69 138.32,378.73 139.26,378.77 140.21,378.80 141.15,378.84 142.10,378.88 143.04,378.92 143.99,378.95 144.93,378.99 145.88,379.03 146.82,379.06 147.77,379.10 148.71,379.14 149.66,379.17 150.61,379.21 151.55,379.24 152.50,379.28 153.44,379.32 154.39,379.35 155.33,379.39 156.28,379.42 157.22,379.46 158.17,379.49 159.11,379.53 160.06,379.56 161.00,379.60 161.95,379.63 162.89,379.66 163.84,379.70 164.79,379.73 165.73,379.77 166.68,379.80 167.62,379.83 168.57,379.87 169.51,379.90 170.46,379.93 171.40,379.97 172.35,380.00 173.29,380.03 174.24,380.07 175.18,380.10 176.13,380.13 177.08,380.16 178.02,380.19 178.97,380.23 179.91,380.26 180.86,380.29 181.80,380.32 182.75,380.35 183.69,380.38 184.64,380.42 185.58,380.45 186.53,380.48 187.47,380.51 188.42,380.54 189.37,380.57 190.31,380.60 191.26,380.63 192.20,380.66 193.15,380.69 194.09,380.72 195.04,380.75 195.98,380.78 196.93,380.81 197.87,380.84 198.82,380.87 199.76,380.90 200.71,380.92 201.66,380.95 202.60,380.98 203.55,381.01 204.49,381.04 205.44,381.07 206.38,381.09 207.33,381.12 208.27,381.15 209.22,381.18 210.16,381.21 211.11,381.23 212.05,381.26 213.00,381.29 213.95,381.31 214.89,381.34 215.84,381.37 216.78,381.39 217.73,381.42 218.67,381.45 219.62,381.47 220.56,381.50 221.51,381.52 222.45,381.55 223.40,381.58 224.34,381.60 225.29,381.63 226.24,381.65 227.18,381.68 228.13,381.70 229.07,381.73 230.02,381.75 230.96,381.77 231.91,381.80 232.85,381.82 233.80,381.85 234.74,381.87 235.69,381.89 236.63,381.92 237.58,381.94 238.53,381.96 239.47,381.99 240.42,382.01 241.36,382.03 242.31,382.06 243.25,382.08 244.20,382.10 245.14,382.12 246.09,382.15 247.03,382.17 247.98,382.19 248.92,382.21 249.87,382.23 250.82,382.25 251.76,382.27 252.71,382.30 253.65,382.32 254.60,382.34 255.54,382.36 256.49,382.38 257.43,382.40 258.38,382.42 259.32,382.44 260.27,382.46 261.21,382.48 262.16,382.50 263.11,382.52 264.05,382.54 265.00,382.56 265.94,382.58 266.89,382.59 267.83,382.61 268.78,382.63 269.72,382.65 270.67,382.67 271.61,382.69 272.56,382.71 273.50,382.72 274.45,382.74 275.39,382.76 276.34,382.78 277.29,382.79 278.23,382.81 279.18,382.83 280.12,382.84 281.07,382.86 282.01,382.88 282.96,382.89 283.90,382.91 284.85,382.92 285.79,382.94 286.74,382.96 287.68,382.97 288.63,382.99 289.58,383.00 290.52,383.02 291.47,383.03 292.41,383.05 293.36,383.06 294.30,383.08 295.25,383.09 296.19,383.10 297.14,383.12 298.08,383.13 299.03,383.14 299.97,383.16 300.92,383.17 301.87,383.18 302.81,383.20 303.76,383.21 304.70,383.22 305.65,383.24 306.59,383.25 307.54,383.26 308.48,383.27 309.43,383.28 310.37,383.29 311.32,383.31 312.26,383.32 313.21,383.33 314.16,383.34 315.10,383.35 316.05,383.36 316.99,383.37 317.94,383.38 318.88,383.39 319.83,383.40 320.77,383.41 321.72,383.42 322.66,383.43 323.61,383.44 324.55,383.45 325.50,383.46 326.45,383.46 327.39,383.47 328.34,383.48 329.28,383.49 330.23,383.50 331.17,383.50 332.12,383.51 333.06,383.52 334.01,383.53 334.95,383.53 335.90,383.54 336.84,383.55 337.79,383.55 338.74,383.56 339.68,383.56 340.63,383.57 341.57,383.58 342.52,383.58 343.46,383.59 344.41,383.59 345.35,383.60 346.30,383.60 347.24,383.61 348.19,383.61 349.13,383.61 350.08,383.62 351.03,383.62 351.97,383.62 352.92,383.63 353.86,383.63 354.81,383.63 355.75,383.64 356.70,383.64 357.64,383.64 358.59,383.64 359.53,383.64 360.48,383.65 361.42,383.65 362.37,383.65 363.32,383.65 364.26,383.65 365.21,383.65 366.15,383.65 367.10,383.65 368.04,383.65 368.99,383.65 369.93,383.65 370.88,383.65 371.82,383.65 372.77,383.65 373.71,383.64 374.66,383.64 375.61,383.64 376.55,383.64 377.50,383.63 378.44,383.63 379.39,383.63 380.33,383.63 381.28,383.62 382.22,383.62 383.17,383.61 384.11,383.61 385.06,383.61 386.00,383.60 386.95,383.60 387.89,383.59 388.84,383.59 389.79,383.58 390.73,383.57 391.68,383.57 392.62,383.56 393.57,383.55 394.51,383.55 395.46,383.54 396.40,383.53 397.35,383.53 398.29,383.52 399.24,383.51 400.18,383.50 401.13,383.49 402.08,383.48 403.02,383.47 403.97,383.46 404.91,383.45 405.86,383.44 406.80,383.43 407.75,383.42 408.69,383.41 409.64,383.40 410.58,383.39 411.53,383.38 412.47,383.36 413.42,383.35 414.37,383.34 415.31,383.32 416.26,383.31 417.20,383.30 418.15,383.28 419.09,383.27 420.04,383.25 420.98,383.24 421.93,383.22 422.87,383.21 423.82,383.19 424.76,383.18 425.71,383.16 426.66,383.14 427.60,383.12 428.55,383.11 429.49,383.09 430.44,383.07 431.38,383.05 432.33,383.03 433.27,383.01 434.22,382.99 435.16,382.97 436.11,382.95 437.05,382.93 438.00,382.91 438.95,382.89 439.89,382.87 440.84,382.84 441.78,382.82 442.73,382.80 443.67,382.77 444.62,382.75 445.56,382.73 446.51,382.70 447.45,382.68 448.40,382.65 449.34,382.63 450.29,382.60 451.24,382.57 452.18,382.55 453.13,382.52 454.07,382.49 455.02,382.46 455.96,382.43 456.91,382.40 457.85,382.37 458.80,382.34 459.74,382.31 460.69,382.28 461.63,382.25 462.58,382.22 463.53,382.19 464.47,382.15 465.42,382.12 466.36,382.09 467.31,382.05 468.25,382.02 469.20,381.98 470.14,381.94 471.09,381.91 472.03,381.87 472.98,381.83 473.92,381.80 474.87,381.76 475.82,381.72 476.76,381.68 477.71,381.64 478.65,381.60 479.60,381.56 480.54,381.51 481.49,381.47 482.43,381.43 483.38,381.39 484.32,381.34 485.27,381.30 486.21,381.25 487.16,381.21 488.11,381.16 489.05,381.11 490.00,381.06 490.94,381.02 491.89,380.97 492.83,380.92 493.78,380.87 494.72,380.82 495.67,380.76 496.61,380.71 497.56,380.66 498.50,380.61 499.45,380.55 500.39,380.50 501.34,380.44 502.29,380.38 503.23,380.33 504.18,380.27 505.12,380.21 506.07,380.15 507.01,380.09 507.96,380.03 508.90,379.97 509.85,379.90 510.79,379.84 511.74,379.78 512.68,379.71 513.63,379.64 514.58,379.58 515.52,379.51 516.47,379.44 517.41,379.37 518.36,379.30 519.30,379.23 520.25,379.16 521.19,379.08 522.14,379.01 523.08,378.93 524.03,378.86 524.97,378.78 525.92,378.70 526.87,378.62 527.81,378.54 528.76,378.46 529.70,378.38 530.65,378.30 531.59,378.21 532.54,378.13 533.48,378.04 534.43,377.95 535.37,377.86 536.32,377.77 537.26,377.68 538.21,377.59 539.16,377.49 540.10,377.40 541.05,377.30 541.99,377.20 542.94,377.10 543.88,377.00 544.83,376.90 545.77,376.80 546.72,376.70 547.66,376.59 548.61,376.48 549.55,376.37 550.50,376.26 551.45,376.15 552.39,376.04 553.34,375.92 554.28,375.81 555.23,375.69 556.17,375.57 557.12,375.45 558.06,375.32 559.01,375.20 559.95,375.07 560.90,374.95 561.84,374.82 562.79,374.68 563.74,374.55 564.68,374.41 565.63,374.28 566.57,374.14 567.52,374.00 568.46,373.85 569.41,373.71 570.35,373.56 571.30,373.41 572.24,373.26 573.19,373.10 574.13,372.95 575.08,372.79 576.03,372.63 576.97,372.46 577.92,372.30 578.86,372.13 579.81,371.96 580.75,371.78 581.70,371.61 582.64,371.43 583.59,371.25 584.53,371.06 585.48,370.87 586.42,370.68 587.37,370.49 588.32,370.29 589.26,370.10 590.21,369.89 591.15,369.69 592.10,369.48 593.04,369.27 593.99,369.05 594.93,368.83 595.88,368.61 596.82,368.38 597.77,368.15 598.71,367.92 599.66,367.68 600.61,367.44 601.55,367.19 602.50,366.94 603.44,366.69 604.39,366.43 605.33,366.16 606.28,365.90 607.22,365.62 608.17,365.35 609.11,365.06 610.06,364.78 611.00,364.48 611.95,364.19 612.89,363.88 613.84,363.57 614.79,363.26 615.73,362.94 616.68,362.61 617.62,362.28 618.57,361.94 619.51,361.60 620.46,361.25 621.40,360.89 622.35,360.52 623.29,360.14 624.24,359.76 625.18,359.37 626.13,358.97 627.08,358.56 628.02,358.14 628.97,357.71 629.91,357.27 630.86,356.82 631.80,356.36 632.75,355.89 633.69,355.41 634.64,354.91 635.58,354.41 636.53,353.89 637.47,353.36 638.42,352.82 639.37,352.27 640.31,351.70 641.26,351.12 642.20,350.52 643.15,349.91 644.09,349.28 645.04,348.64 645.98,347.98 646.93,347.31 647.87,346.61 648.82,345.90 649.76,345.17 650.71,344.43 651.66,343.66 652.60,342.87 653.55,342.06 654.49,341.23 655.44,340.38 656.38,339.50 657.33,338.60 658.27,337.67 659.22,336.72 660.16,335.75 661.11,334.74 662.05,333.71 663.00,332.64 663.95,331.55 664.89,330.43 665.84,329.27 666.78,328.08 667.73,326.85 668.67,325.59 669.62,324.29 670.56,322.95 671.51,321.57 672.45,320.15 673.40,318.69 674.34,317.18 675.29,315.63 676.24,314.03 677.18,312.38 678.13,310.68 679.07,308.93 680.02,307.12 680.96,305.26 681.91,303.34 682.85,301.36 683.80,299.32 684.74,297.22 685.69,295.05 686.63,292.82 687.58,290.53 688.53,288.16 689.47,285.72 690.42,283.22 691.36,280.64 692.31,277.98 693.25,275.26 694.20,272.45 695.14,269.58 696.09,266.62 697.03,263.60 697.98,260.50 698.92,257.32 699.87,254.07 700.82,250.75 701.76,247.37 702.71,243.92 703.65,240.40 704.60,236.83 705.54,233.20 706.49,229.51 707.43,225.79 708.38,222.02 709.32,218.21 710.27,214.37 711.21,210.52 712.16,206.64 713.11,202.75 714.05,198.86 715.00,194.97 715.94,191.10 716.89,187.23 717.83,183.39 718.78,179.58 719.72,175.81 720.67,172.07 721.61,168.38 722.56,164.75 723.50,161.16 724.45,157.64 725.39,154.17 726.34,150.78 727.29,147.45 728.23,144.19 729.18,141.00 730.12,137.89 731.07,134.85 732.01,131.89 732.96,129.00 733.90,126.19 734.85,123.45 735.79,120.78 736.74,118.19 737.68,115.67 738.63,113.23 739.58,110.85 740.52,108.54 741.47,106.30 742.41,104.13 743.36,102.01 744.30,99.97 745.25,97.98 746.19,96.05 747.14,94.18 748.08,92.36 749.03,90.60 749.97,88.90 750.92,87.24 751.87,85.63 752.81,84.07 753.76,82.56 754.70,81.09 755.65,79.66 756.59,78.28 757.54,76.93 758.48,75.63 759.43,74.36"/>
<line x1="828" y1="102" x2="856" y2="102" stroke="#8a4fbf" stroke-width="3"/>
<text x="864" y="106" font-family="Arial" font-size="13">heading error</text>
</svg>