<svg xmlns="http://www.w3.org/2000/svg" width="920" height="520" viewBox="0 0 920 520">
<rect width="100%" height="100%" fill="white"/>
<text x="460" y="28" text-anchor="middle" font-family="Arial" font-size="20">Guidance-to-Attitude References</text>
<rect x="78" y="54" width="720" height="380" fill="#fafafa" stroke="#222"/>
<line x1="78" y1="434" x2="798" y2="434" stroke="#222"/>
<line x1="78" y1="54" x2="78" y2="434" stroke="#222"/>
<text x="438" y="492" text-anchor="middle" font-family="Arial" font-size="14">time (s)</text>
<text transform="translate(22,244) rotate(-90)" text-anchor="middle" font-family="Arial" font-size="14">angle (rad)</text>
<text x="78" y="456" text-anchor="middle" font-family="Arial" font-size="11">-2.04</text>
<text x="798" y="456" text-anchor="middle" font-family="Arial" font-size="11">36.04</text>
<text x="68" y="434" text-anchor="end" font-family="Arial" font-size="11">-0.11</text>
<text x="68" y="59" text-anchor="end" font-family="Arial" font-size="11">0.58</text>
<polyline fill="none" stroke="#222222" stroke-width="2.2" points="116.57,230.88 117.52,230.88 118.46,230.88 119.41,230.88 120.35,230.88 121.30,230.88 122.24,230.88 123.19,230.88 124.13,230.88 125.08,230.88 126.03,230.88 126.97,230.88 127.92,230.88 128.86,230.88 129.81,230.88 130.75,230.88 131.70,230.88 132.64,230.88 133.59,230.88 134.53,230.88 135.48,230.88 136.42,230.88 137.37,230.88 138.32,230.88 139.26,230.88 140.21,230.88 141.15,230.88 142.10,230.88 143.04,230.88 143.99,230.88 144.93,230.88 145.88,230.88 146.82,230.88 147.77,230.88 148.71,230.88 149.66,230.88 150.61,230.88 151.55,230.88 152.50,230.88 153.44,230.88 154.39,230.88 155.33,230.88 156.28,230.88 157.22,230.88 158.17,230.88 159.11,230.88 160.06,230.88 161.00,230.88 161.95,230.88 162.89,230.88 163.84,230.88 164.79,230.88 165.73,230.88 166.68,230.88 167.62,230.88 168.57,230.88 169.51,230.88 170.46,230.88 171.40,230.88 172.35,230.88 173.29,230.88 174.24,230.88 175.18,230.88 176.13,230.88 177.08,230.88 178.02,230.88 178.97,230.88 179.91,230.88 180.86,230.88 181.80,230.88 182.75,230.88 183.69,230.88 184.64,230.88 185.58,230.88 186.53,230.88 187.47,230.88 188.42,230.88 189.37,230.88 190.31,230.88 191.26,230.88 192.20,230.88 193.15,230.88 194.09,230.88 195.04,230.88 195.98,230.88 196.93,230.88 197.87,230.88 198.82,230.88 199.76,230.88 200.71,230.88 201.66,230.88 202.60,230.88 203.55,230.88 204.49,230.88 205.44,230.88 206.38,230.88 207.33,230.88 208.27,230.88 209.22,230.88 210.16,230.88 211.11,230.88 212.05,230.88 213.00,230.88 213.95,230.88 214.89,230.88 215.84,230.88 216.78,230.88 217.73,230.88 218.67,230.88 219.62,230.88 220.56,230.88 221.51,230.88 222.45,230.88 223.40,230.88 224.34,230.88 225.29,230.88 226.24,230.88 227.18,230.88 228.13,230.88 229.07,230.88 230.02,230.88 230.96,230.88 231.91,230.88 232.85,230.88 233.80,230.88 234.74,230.88 235.69,230.88 236.63,230.88 237.58,230.88 238.53,230.88 239.47,230.88 240.42,230.88 241.36,230.88 242.31,230.88 243.25,230.88 244.20,230.88 245.14,230.88 246.09,230.88 247.03,230.88 247.98,230.88 248.92,230.88 249.87,230.88 250.82,230.88 251.76,230.88 252.71,230.88 253.65,230.88 254.60,230.88 255.54,230.88 256.49,230.88 257.43,230.88 258.38,230.88 259.32,230.88 260.27,230.88 261.21,230.88 262.16,230.88 263.11,230.88 264.05,230.88 265.00,230.88 265.94,230.88 266.89,230.88 267.83,230.88 268.78,230.88 269.72,230.88 270.67,230.88 271.61,230.88 272.56,230.88 273.50,230.88 274.45,230.88 275.39,230.88 276.34,230.88 277.29,230.88 278.23,230.88 279.18,230.88 280.12,230.88 281.07,230.88 282.01,230.88 282.96,230.88 283.90,230.88 284.85,230.88 285.79,230.88 286.74,230.88 287.68,230.88 288.63,230.88 289.58,230.88 290.52,230.88 291.47,230.88 292.41,230.88 293.36,230.88 294.30,230.88 295.25,230.88 296.19,230.88 297.14,230.88 298.08,230.88 299.03,230.88 299.97,230.88 300.92,230.88 301.87,230.88 302.81,230.88 303.76,230.88 304.70,230.88 305.65,230.88 306.59,230.88 307.54,230.88 308.48,230.88 309.43,230.88 310.37,230.88 311.32,230.88 312.26,230.88 313.21,230.88 314.16,230.88 315.10,230.88 316.05,230.88 316.99,230.88 317.94,230.88 318.88,230.88 319.83,230.88 320.77,230.88 321.72,230.88 322.66,230.88 323.61,230.88 324.55,230.88 325.50,230.88 326.45,230.88 327.39,230.88 328.34,230.88 329.28,230.88 330.23,230.88 331.17,230.88 332.12,230.88 333.06,230.88 334.01,230.88 334.95,230.88 335.90,230.88 336.84,230.88 337.79,230.88 338.74,230.88 339.68,230.88 340.63,230.88 341.57,230.88 342.52,230.88 343.46,230.88 344.41,230.88 345.35,230.88 346.30,230.88 347.24,230.88 348.19,230.88 349.13,230.88 350.08,230.88 351.03,230.88 351.97,230.88 352.92,230.88 353.86,230.88 354.81,230.88 355.75,230.88 356.70,230.88 357.64,230.88 358.59,230.88 359.53,230.88 360.48,230.88 361.42,230.88 362.37,230.88 363.32,230.88 364.26,230.88 365.21,230.88 366.15,230.88 367.10,230.88 368.04,230.88 368.99,230.88 369.93,230.88 370.88,230.88 371.82,230.88 372.77,230.88 373.71,230.88 374.66,230.88 375.61,230.88 376.55,230.88 377.50,230.88 378.44,230.88 379.39,230.88 380.33,230.88 381.28,230.88 382.22,230.88 383.17,230.88 384.11,230.88 385.06,230.88 386.00,230.88 386.95,230.88 387.89,230.88 388.84,230.88 389.79,230.88 390.73,230.88 391.68,230.88 392.62,230.88 393.57,230.88 394.51,230.88 395.46,230.88 396.40,230.88 397.35,230.88 398.29,230.88 399.24,230.88 400.18,230.88 401.13,230.88 402.08,230.88 403.02,230.88 403.97,230.88 404.91,230.88 405.86,230.88 406.80,230.88 407.75,230.88 408.69,230.88 409.64,230.88 410.58,230.88 411.53,230.88 412.47,230.88 413.42,230.88 414.37,230.88 415.31,230.88 416.26,230.88 417.20,230.88 418.15,230.88 419.09,230.88 420.04,230.88 420.98,230.88 421.93,230.88 422.87,230.88 423.82,230.88 424.76,230.88 425.71,230.88 426.66,230.88 427.60,230.88 428.55,230.88 429.49,230.88 430.44,230.88 431.38,230.88 432.33,230.88 433.27,230.88 434.22,230.88 435.16,230.88 436.11,230.88 437.05,230.88 438.00,230.88 438.95,230.88 439.89,230.88 440.84,230.88 441.78,230.88 442.73,230.88 443.67,230.88 444.62,230.88 445.56,230.88 446.51,230.88 447.45,230.88 448.40,230.88 449.34,230.88 450.29,230.88 451.24,230.88 452.18,230.88 453.13,230.88 454.07,230.88 455.02,230.88 455.96,230.88 456.91,230.88 457.85,230.88 458.80,230.88 459.74,230.88 460.69,230.88 461.63,230.88 462.58,230.88 463.53,230.88 464.47,230.88 465.42,230.88 466.36,230.88 467.31,230.88 468.25,230.88 469.20,230.88 470.14,230.88 471.09,230.88 472.03,230.88 472.98,230.88 473.92,230.88 474.87,230.88 475.82,230.88 476.76,230.88 477.71,230.88 478.65,230.88 479.60,230.88 480.54,230.88 481.49,230.88 482.43,230.88 483.38,230.88 484.32,230.88 485.27,230.88 486.21,230.88 487.16,230.88 488.11,230.88 489.05,230.88 490.00,230.88 490.94,230.88 491.89,230.88 492.83,230.88 493.78,230.88 494.72,230.88 495.67,230.88 496.61,230.88 497.56,230.88 498.50,230.88 499.45,230.88 500.39,230.88 501.34,230.88 502.29,230.88 503.23,230.88 504.18,230.88 505.12,230.88 506.07,230.88 507.01,230.88 507.96,230.88 508.90,230.88 509.85,230.88 510.79,230.88 511.74,230.88 512.68,230.88 513.63,230.88 514.58,230.88 515.52,230.88 516.47,230.88 517.41,230.88 518.36,230.88 519.30,230.88 520.25,230.88 521.19,230.88 522.14,230.88 523.08,230.88 524.03,230.88 524.97,230.88 525.92,230.88 526.87,230.88 527.81,230.88 528.76,230.88 529.70,230.88 530.65,230.88 531.59,230.88 532.54,230.88 533.48,230.88 534.43,230.88 535.37,230.88 536.32,230.88 537.26,230.88 538.21,230.88 539.16,230.88 540.10,230.88 541.05,230.88 541.99,230.88 542.94,230.88 543.88,230.88 544.83,230.88 545.77,230.88 546.72,230.88 547.66,230.88 548.61,230.88 549.55,230.88 550.50,230.88 551.45,230.88 552.39,230.88 553.34,230.88 554.28,230.88 555.23,230.88 556.17,230.88 557.12,230.88 558.06,230.88 559.01,230.88 559.95,230.88 560.90,230.88 561.84,230.88 562.79,230.88 563.74,230.88 564.68,230.88 565.63,230.88 566.57,230.88 567.52,230.88 568.46,230.88 569.41,230.88 570.35,230.88 571.30,230.88 572.24,230.88 573.19,230.88 574.13,230.88 575.08,230.88 576.03,230.88 576.97,230.88 577.92,230.88 578.86,230.88 579.81,230.88 580.75,230.88 581.70,230.88 582.64,230.88 583.59,230.88 584.53,230.88 585.48,230.88 586.42,230.88 587.37,230.88 588.32,230.88 589.26,230.88 590.21,230.88 591.15,230.88 592.10,230.88 593.04,230.88 593.99,230.88 594.93,230.88 595.88,230.88 596.82,230.88 597.77,230.88 598.71,230.88 599.66,230.88 600.61,230.88 601.55,230.88 602.50,230.88 603.44,230.88 604.39,230.88 605.33,230.88 606.28,230.88 607.22,230.88 608.17,230.88 609.11,230.88 610.06,230.88 611.00,230.88 611.95,230.88 612.89,230.88 613.84,230.88 614.79,230.88 615.73,230.88 616.68,230.88 617.62,230.88 618.57,230.88 619.51,230.88 620.46,230.88 621.40,230.88 622.35,230.88 623.29,230.88 624.24,230.88 625.18,230.88 626.13,230.88 627.08,230.88 628.02,230.88 628.97,230.88 629.91,230.88 630.86,230.88 631.80,230.88 632.75,230.88 633.69,230.88 634.64,230.88 635.58,230.88 636.53,230.88 637.47,230.88 638.42,230.88 639.37,230.88 640.31,230.88 641.26,230.88 642.20,230.88 643.15,230.88 644.09,230.88 645.04,230.88 645.98,230.88 646.93,230.88 647.87,230.88 648.82,230.88 649.76,230.88 650.71,230.88 651.66,230.88 652.60,230.88 653.55,230.88 654.49,230.88 655.44,230.88 656.38,230.88 657.33,230.88 658.27,230.88 659.22,230.88 660.16,230.88 661.11,230.88 662.05,230.88 663.00,230.88 663.95,230.88 664.89,230.88 665.84,230.88 666.78,230.88 667.73,230.88 668.67,230.88 669.62,230.88 670.56,230.88 671.51,230.88 672.45,230.88 673.40,230.88 674.34,230.88 675.29,230.88 676.24,230.88 677.18,230.88 678.13,230.88 679.07,230.88 680.02,230.88 680.96,230.88 681.91,230.88 682.85,230.88 683.80,230.88 684.74,230.88 685.69,230.88 686.63,230.88 687.58,230.88 688.53,230.88 689.47,230.88 690.42,230.88 691.36,230.88 692.31,230.88 693.25,230.88 694.20,230.88 695.14,230.88 696.09,230.88 697.03,230.88 697.98,230.88 698.92,230.88 699.87,230.88 700.82,230.88 701.76,230.88 702.71,230.88 703.65,230.88 704.60,230.88 705.54,230.88 706.49,230.88 707.43,230.88 708.38,230.88 709.32,230.88 710.27,230.88 711.21,230.88 712.16,230.88 713.11,230.88 714.05,230.88 715.00,230.88 715.94,230.88 716.89,230.88 717.83,230.88 718.78,230.88 719.72,230.88 720.67,230.88 721.61,230.88 722.56,230.88 723.50,230.88 724.45,230.88 725.39,230.88 726.34,230.88 727.29,230.88 728.23,230.88 729.18,230.88 730.12,230.88 731.07,230.88 732.01,230.88 732.96,230.88 733.90,230.88 734.85,230.88 735.79,230.88 736.74,230.88 737.68,230.88 738.63,230.88 739.58,230.88 740.52,230.88 741.47,230.88 742.41,230.88 743.36,230.88 744.30,230.88 745.25,230.88 746.19,230.88 747.14,230.88 748.08,230.88 749.03,230.88 749.97,230.88 750.92,230.88 751.87,230.88 752.81,230.88 753.76,230.88 754.70,230.88 755.65,230.88 756.59,230.88 757.54,230.88 758.48,230.88 759.43,230.88"/>
<line x1="828" y1="78" x2="856" y2="78" stroke="#222222" stroke-width="3"/>
<text x="864" y="82" font-family="Arial" font-size="13">roll ref</text>
<polyline fill="none" stroke="#2f6fbb" stroke-width="2.2" points="116.57,375.51 117.52,375.51 118.46,375.47 119.41,375.36 120.35,375.14 121.30,374.79 122.24,374.29 123.19,373.61 124.13,372.75 125.08,371.72 126.03,370.51 126.97,369.11 127.92,367.54 128.86,365.78 129.81,363.85 130.75,361.73 131.70,359.43 132.64,356.95 133.59,354.29 134.53,351.45 135.48,348.44 136.42,345.24 137.37,341.87 138.32,338.32 139.26,334.59 140.21,330.68 141.15,326.60 142.10,322.34 143.04,317.90 143.99,313.29 144.93,308.51 145.88,303.55 146.82,298.41 147.77,293.10 148.71,287.62 149.66,281.97 150.61,276.14 151.55,270.16 152.50,264.04 153.44,257.81 154.39,251.51 155.33,245.15 156.28,238.78 157.22,232.42 158.17,226.11 159.11,219.87 160.06,213.75 161.00,207.76 161.95,201.94 162.89,196.29 163.84,190.83 164.79,185.56 165.73,180.48 166.68,175.59 167.62,170.90 168.57,166.40 169.51,162.10 170.46,157.98 171.40,154.06 172.35,150.33 173.29,146.79 174.24,143.44 175.18,140.29 176.13,137.32 177.08,134.54 178.02,131.96 178.97,129.56 179.91,127.35 180.86,125.33 181.80,123.50 182.75,121.86 183.69,120.40 184.64,119.13 185.58,118.05 186.53,117.15 187.47,116.44 188.42,115.92 189.37,115.58 190.31,115.43 191.26,115.46 192.20,115.67 193.15,116.07 194.09,116.66 195.04,117.42 195.98,118.37 196.93,119.51 197.87,120.82 198.82,122.32 199.76,123.99 200.71,125.85 201.66,127.89 202.60,130.11 203.55,132.51 204.49,135.09 205.44,137.85 206.38,140.79 207.33,143.91 208.27,147.20 209.22,150.67 210.16,154.32 211.11,158.14 212.05,162.15 213.00,166.32 213.95,170.67 214.89,175.20 215.84,179.90 216.78,184.78 217.73,189.82 218.67,195.01 219.62,200.33 220.56,205.75 221.51,211.25 222.45,216.80 223.40,222.38 224.34,227.94 225.29,233.47 226.24,238.95 227.18,244.33 228.13,249.59 229.07,254.72 230.02,259.68 230.96,264.46 231.91,269.06 232.85,273.47 233.80,277.69 234.74,281.72 235.69,285.56 236.63,289.20 237.58,292.66 238.53,295.92 239.47,299.00 240.42,301.89 241.36,304.58 242.31,307.09 243.25,309.41 244.20,311.54 245.14,313.48 246.09,315.24 247.03,316.81 247.98,318.19 248.92,319.38 249.87,320.39 250.82,321.22 251.76,321.85 252.71,322.31 253.65,322.57 254.60,322.66 255.54,322.55 256.49,322.27 257.43,321.80 258.38,321.15 259.32,320.31 260.27,319.30 261.21,318.10 262.16,316.71 263.11,315.15 264.05,313.41 265.00,311.48 265.94,309.38 266.89,307.09 267.83,304.62 268.78,301.98 269.72,299.16 270.67,296.16 271.61,292.98 272.56,289.62 273.50,286.08 274.45,282.37 275.39,278.48 276.34,274.42 277.29,270.19 278.23,265.81 279.18,261.30 280.12,256.67 281.07,251.96 282.01,247.18 282.96,242.37 283.90,237.54 284.85,232.71 285.79,227.93 286.74,223.20 287.68,218.55 288.63,214.00 289.58,209.59 290.52,205.32 291.47,201.21 292.41,197.29 293.36,193.55 294.30,190.00 295.25,186.64 296.19,183.47 297.14,180.49 298.08,177.69 299.03,175.09 299.97,172.68 300.92,170.46 301.87,168.42 302.81,166.58 303.76,164.92 304.70,163.45 305.65,162.16 306.59,161.06 307.54,160.15 308.48,159.42 309.43,158.88 310.37,158.52 311.32,158.35 312.26,158.35 313.21,158.55 314.16,158.92 315.10,159.48 316.05,160.22 316.99,161.13 317.94,162.24 318.88,163.52 319.83,164.98 320.77,166.62 321.72,168.44 322.66,170.45 323.61,172.63 324.55,174.99 325.50,177.53 326.45,180.24 327.39,183.14 328.34,186.21 329.28,189.47 330.23,192.89 331.17,196.46 332.12,200.18 333.06,204.02 334.01,207.96 334.95,211.98 335.90,216.06 336.84,220.18 337.79,224.32 338.74,228.46 339.68,232.58 340.63,236.65 341.57,240.66 342.52,244.59 343.46,248.41 344.41,252.11 345.35,255.67 346.30,259.07 347.24,262.30 348.19,265.36 349.13,268.22 350.08,270.90 351.03,273.40 351.97,275.70 352.92,277.82 353.86,279.75 354.81,281.49 355.75,283.04 356.70,284.40 357.64,285.58 358.59,286.56 359.53,287.37 360.48,287.98 361.42,288.41 362.37,288.65 363.32,288.71 364.26,288.59 365.21,288.28 366.15,287.78 367.10,287.11 368.04,286.25 368.99,285.20 369.93,283.98 370.88,282.58 371.82,280.99 372.77,279.23 373.71,277.29 374.66,275.16 375.61,272.86 376.55,270.39 377.50,267.74 378.44,264.94 379.39,261.99 380.33,258.92 381.28,255.73 382.22,252.45 383.17,249.08 384.11,245.66 385.06,242.20 386.00,238.71 386.95,235.22 387.89,231.73 388.84,228.28 389.79,224.87 390.73,221.52 391.68,218.25 392.62,215.08 393.57,212.01 394.51,209.07 395.46,206.27 396.40,203.62 397.35,201.13 398.29,198.81 399.24,196.67 400.18,194.72 401.13,192.95 402.08,191.36 403.02,189.96 403.97,188.75 404.91,187.72 405.86,186.87 406.80,186.21 407.75,185.73 408.69,185.43 409.64,185.32 410.58,185.39 411.53,185.64 412.47,186.07 413.42,186.68 414.37,187.48 415.31,188.45 416.26,189.61 417.20,190.95 418.15,192.46 419.09,194.15 420.04,196.01 420.98,198.03 421.93,200.20 422.87,202.50 423.82,204.93 424.76,207.46 425.71,210.10 426.66,212.82 427.60,215.61 428.55,218.45 429.49,221.34 430.44,224.24 431.38,227.16 432.33,230.08 433.27,232.98 434.22,235.84 435.16,238.65 436.11,241.41 437.05,244.08 438.00,246.67 438.95,249.16 439.89,251.53 440.84,253.78 441.78,255.90 442.73,257.87 443.67,259.68 444.62,261.34 445.56,262.82 446.51,264.13 447.45,265.26 448.40,266.20 449.34,266.96 450.29,267.54 451.24,267.92 452.18,268.12 453.13,268.13 454.07,267.96 455.02,267.60 455.96,267.06 456.91,266.34 457.85,265.44 458.80,264.38 459.74,263.15 460.69,261.77 461.63,260.24 462.58,258.58 463.53,256.79 464.47,254.89 465.42,252.88 466.36,250.78 467.31,248.60 468.25,246.34 469.20,244.04 470.14,241.68 471.09,239.30 472.03,236.90 472.98,234.49 473.92,232.09 474.87,229.71 475.82,227.35 476.76,225.05 477.71,222.79 478.65,220.61 479.60,218.50 480.54,216.47 481.49,214.54 482.43,212.72 483.38,211.01 484.32,209.42 485.27,207.95 486.21,206.62 487.16,205.43 488.11,204.38 489.05,203.48 490.00,202.73 490.94,202.13 491.89,201.68 492.83,201.38 493.78,201.24 494.72,201.25 495.67,201.41 496.61,201.71 497.56,202.16 498.50,202.75 499.45,203.47 500.39,204.33 501.34,205.30 502.29,206.40 503.23,207.61 504.18,208.92 505.12,210.32 506.07,211.82 507.01,213.40 507.96,215.04 508.90,216.75 509.85,218.52 510.79,220.33 511.74,222.17 512.68,224.05 513.63,225.94 514.58,227.84 515.52,229.73 516.47,231.62 517.41,233.49 518.36,235.34 519.30,237.15 520.25,238.91 521.19,240.62 522.14,242.27 523.08,243.86 524.03,245.37 524.97,246.79 525.92,248.13 526.87,249.38 527.81,250.53 528.76,251.57 529.70,252.51 530.65,253.33 531.59,254.03 532.54,254.62 533.48,255.08 534.43,255.42 535.37,255.64 536.32,255.73 537.26,255.69 538.21,255.53 539.16,255.25 540.10,254.84 541.05,254.32 541.99,253.68 542.94,252.93 543.88,252.06 544.83,251.10 545.77,250.04 546.72,248.89 547.66,247.65 548.61,246.33 549.55,244.94 550.50,243.49 551.45,241.98 552.39,240.43 553.34,238.84 554.28,237.21 555.23,235.57 556.17,233.92 557.12,232.26 558.06,230.61 559.01,228.97 559.95,227.36 560.90,225.77 561.84,224.24 562.79,222.75 563.74,221.31 564.68,219.94 565.63,218.65 566.57,217.43 567.52,216.30 568.46,215.26 569.41,214.31 570.35,213.47 571.30,212.73 572.24,212.10 573.19,211.58 574.13,211.18 575.08,210.88 576.03,210.70 576.97,210.64 577.92,210.69 578.86,210.85 579.81,211.12 580.75,211.49 581.70,211.97 582.64,212.55 583.59,213.22 584.53,213.98 585.48,214.83 586.42,215.75 587.37,216.74 588.32,217.80 589.26,218.91 590.21,220.08 591.15,221.29 592.10,222.53 593.04,223.80 593.99,225.09 594.93,226.39 595.88,227.70 596.82,229.01 597.77,230.31 598.71,231.59 599.66,232.85 600.61,234.09 601.55,235.29 602.50,236.45 603.44,237.57 604.39,238.64 605.33,239.66 606.28,240.62 607.22,241.52 608.17,242.36 609.11,243.13 610.06,243.84 611.00,244.47 611.95,245.03 612.89,245.51 613.84,245.93 614.79,246.26 615.73,246.52 616.68,246.70 617.62,246.81 618.57,246.85 619.51,246.81 620.46,246.70 621.40,246.51 622.35,246.27 623.29,245.95 624.24,245.57 625.18,245.13 626.13,244.63 627.08,244.08 628.02,243.48 628.97,242.83 629.91,242.13 630.86,241.40 631.80,240.63 632.75,239.82 633.69,238.98 634.64,238.12 635.58,237.23 636.53,236.33 637.47,235.41 638.42,234.48 639.37,233.54 640.31,232.59 641.26,231.65 642.20,230.71 643.15,229.77 644.09,228.84 645.04,227.93 645.98,227.04 646.93,226.16 647.87,225.31 648.82,224.48 649.76,223.69 650.71,222.93 651.66,222.21 652.60,221.53 653.55,220.89 654.49,220.31 655.44,219.77 656.38,219.29 657.33,218.86 658.27,218.49 659.22,218.18 660.16,217.93 661.11,217.75 662.05,217.63 663.00,217.58 663.95,217.60 664.89,217.68 665.84,217.83 666.78,218.06 667.73,218.34 668.67,218.70 669.62,219.12 670.56,219.60 671.51,220.14 672.45,220.74 673.40,221.40 674.34,222.12 675.29,222.88 676.24,223.69 677.18,224.54 678.13,225.43 679.07,226.35 680.02,227.30 680.96,228.28 681.91,229.28 682.85,230.29 683.80,231.32 684.74,232.34 685.69,233.37 686.63,234.40 687.58,235.41 688.53,236.41 689.47,237.38 690.42,238.33 691.36,239.25 692.31,240.12 693.25,240.95 694.20,241.74 695.14,242.46 696.09,243.13 697.03,243.73 697.98,244.26 698.92,244.73 699.87,245.11 700.82,245.42 701.76,245.64 702.71,245.79 703.65,245.84 704.60,245.82 705.54,245.71 706.49,245.51 707.43,245.23 708.38,244.87 709.32,244.44 710.27,243.93 711.21,243.35 712.16,242.70 713.11,241.99 714.05,241.22 715.00,240.40 715.94,239.53 716.89,238.62 717.83,237.67 718.78,236.69 719.72,235.70 720.67,234.68 721.61,233.65 722.56,232.62 723.50,231.60 724.45,230.58 725.39,229.57 726.34,228.58 727.29,227.63 728.23,226.70 729.18,225.81 730.12,224.96 731.07,224.15 732.01,223.40 732.96,222.70 733.90,222.06 734.85,221.48 735.79,220.97 736.74,220.52 737.68,220.15 738.63,219.84 739.58,219.60 740.52,219.44 741.47,219.35 742.41,219.33 743.36,219.39 744.30,219.51 745.25,219.71 746.19,219.97 747.14,220.30 748.08,220.69 749.03,221.15 749.97,221.66 750.92,222.22 751.87,222.84 752.81,223.49 753.76,224.19 754.70,224.92 755.65,225.68 756.59,226.46 757.54,227.26 758.48,228.07 759.43,228.88"/>
<line x1="828" y1="102" x2="856" y2="102" stroke="#2f6fbb" stroke-width="3"/>
<text x="864" y="106" font-family="Arial" font-size="13">roll</text>
<polyline fill="none" stroke="#555555" stroke-width="2.2" points="116.57,365.94 117.52,365.94 118.46,365.94 119.41,365.94 120.35,365.94 121.30,365.95 122.24,365.95 123.19,365.95 124.13,365.95 125.08,365.95 126.03,365.96 126.97,365.96 127.92,365.96 128.86,365.96 129.81,365.96 130.75,365.97 131.70,365.97 132.64,365.97 133.59,365.97 134.53,365.97 135.48,365.98 136.42,365.98 137.37,365.98 138.32,365.98 139.26,365.98 140.21,365.99 141.15,365.99 142.10,365.99 143.04,365.99 143.99,365.99 144.93,366.00 145.88,366.00 146.82,366.00 147.77,366.00 148.71,366.00 149.66,366.01 150.61,366.01 151.55,366.01 152.50,366.01 153.44,366.01 154.39,366.02 155.33,366.02 156.28,366.02 157.22,366.02 158.17,366.02 159.11,366.02 160.06,366.03 161.00,366.03 161.95,366.03 162.89,366.03 163.84,366.03 164.79,366.04 165.73,366.04 166.68,366.04 167.62,366.04 168.57,366.04 169.51,366.04 170.46,366.05 171.40,366.05 172.35,366.05 173.29,366.05 174.24,366.05 175.18,366.05 176.13,366.06 177.08,366.06 178.02,366.06 178.97,366.06 179.91,366.06 180.86,366.07 181.80,366.07 182.75,366.07 183.69,366.07 184.64,366.07 185.58,366.07 186.53,366.08 187.47,366.08 188.42,366.08 189.37,366.08 190.31,366.08 191.26,366.08 192.20,366.09 193.15,366.09 194.09,366.09 195.04,366.09 195.98,366.09 196.93,366.09 197.87,366.10 198.82,366.10 199.76,366.10 200.71,366.10 201.66,366.10 202.60,366.10 203.55,366.11 204.49,366.11 205.44,366.11 206.38,366.11 207.33,366.11 208.27,366.11 209.22,366.11 210.16,366.12 211.11,366.12 212.05,366.12 213.00,366.12 213.95,366.12 214.89,366.12 215.84,366.13 216.78,366.13 217.73,366.13 218.67,366.13 219.62,366.13 220.56,366.13 221.51,366.13 222.45,366.14 223.40,366.14 224.34,366.14 225.29,366.14 226.24,366.14 227.18,366.14 228.13,366.14 229.07,366.15 230.02,366.15 230.96,366.15 231.91,366.15 232.85,366.15 233.80,366.15 234.74,366.16 235.69,366.16 236.63,366.16 237.58,366.16 238.53,366.16 239.47,366.16 240.42,366.16 241.36,366.17 242.31,366.17 243.25,366.17 244.20,366.17 245.14,366.17 246.09,366.17 247.03,366.17 247.98,366.17 248.92,366.18 249.87,366.18 250.82,366.18 251.76,366.18 252.71,366.18 253.65,366.18 254.60,366.18 255.54,366.19 256.49,366.19 257.43,366.19 258.38,366.19 259.32,366.19 260.27,366.19 261.21,366.19 262.16,366.20 263.11,366.20 264.05,366.20 265.00,366.20 265.94,366.20 266.89,366.20 267.83,366.20 268.78,366.20 269.72,366.21 270.67,366.21 271.61,366.21 272.56,366.21 273.50,366.21 274.45,366.21 275.39,366.21 276.34,366.21 277.29,366.22 278.23,366.22 279.18,366.22 280.12,366.22 281.07,366.22 282.01,366.22 282.96,366.22 283.90,366.22 284.85,366.23 285.79,366.23 286.74,366.23 287.68,366.23 288.63,366.23 289.58,366.23 290.52,366.23 291.47,366.23 292.41,366.24 293.36,366.24 294.30,366.24 295.25,366.24 296.19,366.24 297.14,366.24 298.08,366.24 299.03,366.24 299.97,366.24 300.92,366.25 301.87,366.25 302.81,366.25 303.76,366.25 304.70,366.25 305.65,366.25 306.59,366.25 307.54,366.25 308.48,366.25 309.43,366.26 310.37,366.26 311.32,366.26 312.26,366.26 313.21,366.26 314.16,366.26 315.10,366.26 316.05,366.26 316.99,366.26 317.94,366.27 318.88,366.27 319.83,366.27 320.77,366.27 321.72,366.27 322.66,366.27 323.61,366.27 324.55,366.27 325.50,366.27 326.45,366.28 327.39,366.28 328.34,366.28 329.28,366.28 330.23,366.28 331.17,366.28 332.12,366.28 333.06,366.28 334.01,366.28 334.95,366.28 335.90,366.29 336.84,366.29 337.79,366.29 338.74,366.29 339.68,366.29 340.63,366.29 341.57,366.29 342.52,366.29 343.46,366.29 344.41,366.29 345.35,366.30 346.30,366.30 347.24,366.30 348.19,366.30 349.13,366.30 350.08,366.30 351.03,366.30 351.97,366.30 352.92,366.30 353.86,366.30 354.81,366.31 355.75,366.31 356.70,366.31 357.64,366.31 358.59,366.31 359.53,366.31 360.48,366.31 361.42,366.31 362.37,366.31 363.32,366.31 364.26,366.31 365.21,366.32 366.15,366.32 367.10,366.32 368.04,366.32 368.99,366.32 369.93,366.32 370.88,366.32 371.82,366.32 372.77,366.32 373.71,366.32 374.66,366.32 375.61,366.33 376.55,366.33 377.50,366.33 378.44,366.33 379.39,366.33 380.33,366.33 381.28,366.33 382.22,366.33 383.17,366.33 384.11,366.33 385.06,366.33 386.00,366.33 386.95,366.34 387.89,366.34 388.84,366.34 389.79,366.34 390.73,366.34 391.68,366.34 392.62,366.34 393.57,366.34 394.51,366.34 395.46,366.34 396.40,366.34 397.35,366.34 398.29,366.35 399.24,366.35 400.18,366.35 401.13,366.35 402.08,366.35 403.02,366.35 403.97,366.35 404.91,366.35 405.86,366.35 406.80,366.35 407.75,366.35 408.69,366.35 409.64,366.35 410.58,366.36 411.53,366.36 412.47,366.36 413.42,366.36 414.37,366.36 415.31,366.36 416.26,366.36 417.20,366.36 418.15,366.36 419.09,366.36 420.04,366.36 420.98,366.36 421.93,366.36 422.87,366.36 423.82,366.37 424.76,366.37 425.71,366.37 426.66,366.37 427.60,366.37 428.55,366.37 429.49,366.37 430.44,366.37 431.38,366.37 432.33,366.37 433.27,366.37 434.22,366.37 435.16,366.37 436.11,366.37 437.05,366.37 438.00,366.38 438.95,366.38 439.89,366.38 440.84,366.38 441.78,366.38 442.73,366.38 443.67,366.38 444.62,366.38 445.56,366.38 446.51,366.38 447.45,366.38 448.40,366.38 449.34,366.38 450.29,366.38 451.24,366.38 452.18,366.38 453.13,366.39 454.07,366.39 455.02,366.39 455.96,366.39 456.91,366.39 457.85,366.39 458.80,366.39 459.74,366.39 460.69,366.39 461.63,366.39 462.58,366.39 463.53,366.39 464.47,366.39 465.42,366.39 466.36,366.39 467.31,366.39 468.25,366.39 469.20,366.39 470.14,366.39 471.09,366.40 472.03,366.40 472.98,366.40 473.92,366.40 474.87,366.40 475.82,366.40 476.76,366.40 477.71,366.40 478.65,366.40 479.60,366.40 480.54,366.40 481.49,366.40 482.43,366.40 483.38,366.40 484.32,366.40 485.27,366.40 486.21,366.40 487.16,366.40 488.11,366.40 489.05,366.40 490.00,366.40 490.94,366.40 491.89,366.41 492.83,366.41 493.78,366.41 494.72,366.41 495.67,366.41 496.61,366.41 497.56,366.41 498.50,366.41 499.45,366.41 500.39,366.41 501.34,366.41 502.29,366.41 503.23,366.41 504.18,366.41 505.12,366.41 506.07,366.41 507.01,366.41 507.96,366.41 508.90,366.41 509.85,366.41 510.79,366.41 511.74,366.41 512.68,366.41 513.63,366.41 514.58,366.41 515.52,366.41 516.47,366.41 517.41,366.41 518.36,366.41 519.30,366.41 520.25,366.41 521.19,366.41 522.14,366.41 523.08,366.41 524.03,366.41 524.97,366.41 525.92,366.42 526.87,366.42 527.81,366.42 528.76,366.42 529.70,366.42 530.65,366.42 531.59,366.42 532.54,366.42 533.48,366.42 534.43,366.42 535.37,366.42 536.32,366.42 537.26,366.42 538.21,366.42 539.16,366.42 540.10,366.42 541.05,366.42 541.99,366.42 542.94,366.42 543.88,366.42 544.83,366.42 545.77,366.42 546.72,366.42 547.66,366.42 548.61,366.42 549.55,366.42 550.50,366.42 551.45,366.42 552.39,366.42 553.34,366.42 554.28,366.42 555.23,366.42 556.17,366.42 557.12,366.42 558.06,366.42 559.01,366.42 559.95,366.42 560.90,366.41 561.84,366.41 562.79,366.41 563.74,366.41 564.68,366.41 565.63,366.41 566.57,366.41 567.52,366.41 568.46,366.41 569.41,366.41 570.35,366.41 571.30,366.41 572.24,366.41 573.19,366.41 574.13,366.41 575.08,366.41 576.03,366.41 576.97,366.41 577.92,366.41 578.86,366.41 579.81,366.41 580.75,366.41 581.70,366.41 582.64,366.41 583.59,366.41 584.53,366.40 585.48,366.40 586.42,366.40 587.37,366.40 588.32,366.40 589.26,366.40 590.21,366.40 591.15,366.40 592.10,366.40 593.04,366.40 593.99,366.40 594.93,366.40 595.88,366.40 596.82,366.39 597.77,366.39 598.71,366.39 599.66,366.39 600.61,366.39 601.55,366.39 602.50,366.39 603.44,366.39 604.39,366.39 605.33,366.39 606.28,366.38 607.22,366.38 608.17,366.38 609.11,366.38 610.06,366.38 611.00,366.38 611.95,366.38 612.89,366.37 613.84,366.37 614.79,366.37 615.73,366.37 616.68,366.37 617.62,366.37 618.57,366.36 619.51,366.36 620.46,366.36 621.40,366.36 622.35,366.36 623.29,366.35 624.24,366.35 625.18,366.35 626.13,366.35 627.08,366.34 628.02,366.34 628.97,366.34 629.91,366.34 630.86,366.33 631.80,366.33 632.75,366.33 633.69,366.33 634.64,366.32 635.58,366.32 636.53,366.32 637.47,366.31 638.42,366.31 639.37,366.31 640.31,366.30 641.26,366.30 642.20,366.29 643.15,366.29 644.09,366.29 645.04,366.28 645.98,366.28 646.93,366.27 647.87,366.27 648.82,366.26 649.76,366.26 650.71,366.25 651.66,366.25 652.60,366.24 653.55,366.24 654.49,366.23 655.44,366.23 656.38,366.22 657.33,366.21 658.27,366.21 659.22,366.20 660.16,366.19 661.11,366.18 662.05,366.18 663.00,366.17 663.95,366.16 664.89,366.15 665.84,366.14 666.78,366.13 667.73,366.12 668.67,366.11 669.62,366.10 670.56,366.09 671.51,366.08 672.45,366.07 673.40,366.05 674.34,366.04 675.29,366.03 676.24,366.01 677.18,366.00 678.13,365.98 679.07,365.97 680.02,365.95 680.96,365.93 681.91,365.92 682.85,365.90 683.80,365.88 684.74,365.86 685.69,365.84 686.63,365.81 687.58,365.79 688.53,365.77 689.47,365.74 690.42,365.72 691.36,365.69 692.31,365.66 693.25,365.63 694.20,365.60 695.14,365.57 696.09,365.53 697.03,365.50 697.98,365.46 698.92,365.43 699.87,365.39 700.82,365.35 701.76,365.31 702.71,365.26 703.65,365.22 704.60,365.17 705.54,365.13 706.49,365.08 707.43,365.03 708.38,364.98 709.32,364.93 710.27,364.87 711.21,364.82 712.16,364.77 713.11,364.71 714.05,364.65 715.00,364.59 715.94,364.54 716.89,364.48 717.83,364.42 718.78,364.36 719.72,364.30 720.67,364.24 721.61,364.18 722.56,364.12 723.50,364.05 724.45,363.99 725.39,363.93 726.34,363.87 727.29,363.81 728.23,363.75 729.18,363.69 730.12,363.63 731.07,363.57 732.01,363.51 732.96,363.45 733.90,363.39 734.85,363.33 735.79,363.27 736.74,363.22 737.68,363.16 738.63,363.10 739.58,363.05 740.52,362.99 741.47,362.93 742.41,362.88 743.36,362.82 744.30,362.77 745.25,362.71 746.19,362.66 747.14,362.61 748.08,362.55 749.03,362.50 749.97,362.45 750.92,362.40 751.87,362.34 752.81,362.29 753.76,362.24 754.70,362.19 755.65,362.14 756.59,362.09 757.54,362.04 758.48,361.99 759.43,361.94"/>
<line x1="828" y1="126" x2="856" y2="126" stroke="#555555" stroke-width="3"/>
<text x="864" y="130" font-family="Arial" font-size="13">pitch ref</text>
<polyline fill="none" stroke="#258a45" stroke-width="2.2" points="116.57,365.87 117.52,365.87 118.46,365.87 119.41,365.87 120.35,365.87 121.30,365.87 122.24,365.87 123.19,365.88 124.13,365.88 125.08,365.88 126.03,365.89 126.97,365.89 127.92,365.90 128.86,365.90 129.81,365.91 130.75,365.93 131.70,365.94 132.64,365.96 133.59,365.98 134.53,366.00 135.48,366.02 136.42,366.05 137.37,366.09 138.32,366.12 139.26,366.16 140.21,366.21 141.15,366.26 142.10,366.32 143.04,366.38 143.99,366.44 144.93,366.51 145.88,366.59 146.82,366.67 147.77,366.75 148.71,366.84 149.66,366.93 150.61,367.03 151.55,367.12 152.50,367.22 153.44,367.33 154.39,367.43 155.33,367.53 156.28,367.63 157.22,367.73 158.17,367.83 159.11,367.92 160.06,368.01 161.00,368.10 161.95,368.17 162.89,368.24 163.84,368.30 164.79,368.35 165.73,368.38 166.68,368.40 167.62,368.41 168.57,368.41 169.51,368.39 170.46,368.36 171.40,368.30 172.35,368.24 173.29,368.15 174.24,368.05 175.18,367.93 176.13,367.79 177.08,367.64 178.02,367.47 178.97,367.29 179.91,367.08 180.86,366.87 181.80,366.64 182.75,366.39 183.69,366.13 184.64,365.87 185.58,365.59 186.53,365.30 187.47,365.01 188.42,364.71 189.37,364.40 190.31,364.09 191.26,363.79 192.20,363.48 193.15,363.17 194.09,362.87 195.04,362.58 195.98,362.29 196.93,362.02 197.87,361.76 198.82,361.51 199.76,361.28 200.71,361.06 201.66,360.86 202.60,360.69 203.55,360.54 204.49,360.41 205.44,360.31 206.38,360.23 207.33,360.18 208.27,360.16 209.22,360.18 210.16,360.22 211.11,360.29 212.05,360.39 213.00,360.53 213.95,360.70 214.89,360.90 215.84,361.13 216.78,361.39 217.73,361.68 218.67,362.00 219.62,362.34 220.56,362.71 221.51,363.11 222.45,363.52 223.40,363.96 224.34,364.41 225.29,364.88 226.24,365.37 227.18,365.86 228.13,366.36 229.07,366.87 230.02,367.37 230.96,367.88 231.91,368.38 232.85,368.88 233.80,369.37 234.74,369.85 235.69,370.31 236.63,370.75 237.58,371.18 238.53,371.59 239.47,371.97 240.42,372.32 241.36,372.65 242.31,372.95 243.25,373.22 244.20,373.46 245.14,373.67 246.09,373.84 247.03,373.98 247.98,374.08 248.92,374.14 249.87,374.18 250.82,374.17 251.76,374.13 252.71,374.05 253.65,373.94 254.60,373.80 255.54,373.62 256.49,373.41 257.43,373.17 258.38,372.90 259.32,372.60 260.27,372.28 261.21,371.93 262.16,371.55 263.11,371.16 264.05,370.74 265.00,370.30 265.94,369.85 266.89,369.39 267.83,368.91 268.78,368.42 269.72,367.92 270.67,367.42 271.61,366.91 272.56,366.40 273.50,365.89 274.45,365.39 275.39,364.88 276.34,364.38 277.29,363.89 278.23,363.41 279.18,362.93 280.12,362.47 281.07,362.03 282.01,361.59 282.96,361.18 283.90,360.78 284.85,360.40 285.79,360.04 286.74,359.71 287.68,359.39 288.63,359.10 289.58,358.84 290.52,358.60 291.47,358.38 292.41,358.19 293.36,358.03 294.30,357.90 295.25,357.80 296.19,357.73 297.14,357.69 298.08,357.69 299.03,357.71 299.97,357.77 300.92,357.86 301.87,357.98 302.81,358.14 303.76,358.33 304.70,358.55 305.65,358.81 306.59,359.10 307.54,359.42 308.48,359.78 309.43,360.17 310.37,360.59 311.32,361.04 312.26,361.52 313.21,362.02 314.16,362.56 315.10,363.12 316.05,363.71 316.99,364.31 317.94,364.94 318.88,365.59 319.83,366.25 320.77,366.92 321.72,367.61 322.66,368.31 323.61,369.01 324.55,369.71 325.50,370.42 326.45,371.12 327.39,371.81 328.34,372.50 329.28,373.17 330.23,373.82 331.17,374.45 332.12,375.06 333.06,375.65 334.01,376.20 334.95,376.72 335.90,377.20 336.84,377.64 337.79,378.04 338.74,378.40 339.68,378.71 340.63,378.96 341.57,379.17 342.52,379.32 343.46,379.41 344.41,379.45 345.35,379.44 346.30,379.36 347.24,379.23 348.19,379.05 349.13,378.80 350.08,378.50 351.03,378.15 351.97,377.74 352.92,377.28 353.86,376.78 354.81,376.22 355.75,375.62 356.70,374.98 357.64,374.31 358.59,373.59 359.53,372.84 360.48,372.07 361.42,371.27 362.37,370.44 363.32,369.60 364.26,368.74 365.21,367.88 366.15,367.00 367.10,366.12 368.04,365.25 368.99,364.37 369.93,363.51 370.88,362.65 371.82,361.81 372.77,360.99 373.71,360.19 374.66,359.42 375.61,358.67 376.55,357.95 377.50,357.27 378.44,356.62 379.39,356.01 380.33,355.44 381.28,354.91 382.22,354.43 383.17,353.99 384.11,353.60 385.06,353.26 386.00,352.96 386.95,352.72 387.89,352.53 388.84,352.39 389.79,352.30 390.73,352.27 391.68,352.29 392.62,352.37 393.57,352.49 394.51,352.67 395.46,352.91 396.40,353.20 397.35,353.53 398.29,353.93 399.24,354.37 400.18,354.86 401.13,355.40 402.08,355.99 403.02,356.62 403.97,357.30 404.91,358.02 405.86,358.78 406.80,359.58 407.75,360.42 408.69,361.29 409.64,362.20 410.58,363.13 411.53,364.09 412.47,365.07 413.42,366.07 414.37,367.09 415.31,368.11 416.26,369.15 417.20,370.19 418.15,371.23 419.09,372.27 420.04,373.30 420.98,374.32 421.93,375.32 422.87,376.29 423.82,377.25 424.76,378.16 425.71,379.05 426.66,379.89 427.60,380.69 428.55,381.44 429.49,382.14 430.44,382.78 431.38,383.36 432.33,383.87 433.27,384.32 434.22,384.70 435.16,385.01 436.11,385.24 437.05,385.39 438.00,385.47 438.95,385.46 439.89,385.38 440.84,385.21 441.78,384.97 442.73,384.65 443.67,384.25 444.62,383.77 445.56,383.22 446.51,382.59 447.45,381.89 448.40,381.13 449.34,380.30 450.29,379.42 451.24,378.47 452.18,377.47 453.13,376.43 454.07,375.34 455.02,374.21 455.96,373.04 456.91,371.85 457.85,370.63 458.80,369.39 459.74,368.13 460.69,366.87 461.63,365.60 462.58,364.33 463.53,363.06 464.47,361.81 465.42,360.57 466.36,359.35 467.31,358.15 468.25,356.99 469.20,355.85 470.14,354.76 471.09,353.70 472.03,352.69 472.98,351.73 473.92,350.82 474.87,349.96 475.82,349.17 476.76,348.43 477.71,347.76 478.65,347.16 479.60,346.63 480.54,346.17 481.49,345.78 482.43,345.47 483.38,345.23 484.32,345.08 485.27,345.01 486.21,345.01 487.16,345.10 488.11,345.27 489.05,345.53 490.00,345.87 490.94,346.29 491.89,346.79 492.83,347.37 493.78,348.04 494.72,348.78 495.67,349.60 496.61,350.50 497.56,351.46 498.50,352.50 499.45,353.61 500.39,354.78 501.34,356.01 502.29,357.30 503.23,358.63 504.18,360.02 505.12,361.44 506.07,362.91 507.01,364.40 507.96,365.92 508.90,367.46 509.85,369.02 510.79,370.57 511.74,372.13 512.68,373.69 513.63,375.23 514.58,376.75 515.52,378.24 516.47,379.70 517.41,381.12 518.36,382.49 519.30,383.81 520.25,385.07 521.19,386.26 522.14,387.39 523.08,388.43 524.03,389.39 524.97,390.27 525.92,391.06 526.87,391.74 527.81,392.34 528.76,392.82 529.70,393.21 530.65,393.48 531.59,393.65 532.54,393.71 533.48,393.66 534.43,393.50 535.37,393.22 536.32,392.84 537.26,392.35 538.21,391.75 539.16,391.05 540.10,390.25 541.05,389.35 541.99,388.35 542.94,387.26 543.88,386.09 544.83,384.83 545.77,383.49 546.72,382.09 547.66,380.61 548.61,379.07 549.55,377.48 550.50,375.84 551.45,374.15 552.39,372.43 553.34,370.67 554.28,368.89 555.23,367.09 556.17,365.29 557.12,363.48 558.06,361.67 559.01,359.87 559.95,358.10 560.90,356.34 561.84,354.62 562.79,352.94 563.74,351.30 564.68,349.71 565.63,348.18 566.57,346.71 567.52,345.31 568.46,343.98 569.41,342.72 570.35,341.54 571.30,340.45 572.24,339.45 573.19,338.54 574.13,337.73 575.08,337.01 576.03,336.39 576.97,335.87 577.92,335.46 578.86,335.15 579.81,334.94 580.75,334.85 581.70,334.87 582.64,335.00 583.59,335.25 584.53,335.62 585.48,336.11 586.42,336.72 587.37,337.46 588.32,338.32 589.26,339.30 590.21,340.41 591.15,341.63 592.10,342.96 593.04,344.40 593.99,345.95 594.93,347.59 595.88,349.33 596.82,351.16 597.77,353.06 598.71,355.04 599.66,357.08 600.61,359.17 601.55,361.30 602.50,363.47 603.44,365.66 604.39,367.87 605.33,370.08 606.28,372.28 607.22,374.47 608.17,376.63 609.11,378.76 610.06,380.85 611.00,382.88 611.95,384.85 612.89,386.75 613.84,388.57 614.79,390.31 615.73,391.96 616.68,393.51 617.62,394.96 618.57,396.32 619.51,397.57 620.46,398.72 621.40,399.78 622.35,400.73 623.29,401.58 624.24,402.33 625.18,402.99 626.13,403.54 627.08,404.00 628.02,404.36 628.97,404.62 629.91,404.78 630.86,404.85 631.80,404.81 632.75,404.67 633.69,404.42 634.64,404.07 635.58,403.61 636.53,403.04 637.47,402.36 638.42,401.56 639.37,400.64 640.31,399.61 641.26,398.45 642.20,397.17 643.15,395.77 644.09,394.26 645.04,392.63 645.98,390.89 646.93,389.05 647.87,387.12 648.82,385.09 649.76,382.98 650.71,380.80 651.66,378.55 652.60,376.25 653.55,373.89 654.49,371.51 655.44,369.09 656.38,366.66 657.33,364.23 658.27,361.80 659.22,359.38 660.16,356.99 661.11,354.64 662.05,352.32 663.00,350.06 663.95,347.86 664.89,345.73 665.84,343.68 666.78,341.72 667.73,339.84 668.67,338.06 669.62,336.37 670.56,334.78 671.51,333.27 672.45,331.87 673.40,330.55 674.34,329.33 675.29,328.21 676.24,327.18 677.18,326.25 678.13,325.41 679.07,324.66 680.02,324.01 680.96,323.46 681.91,323.00 682.85,322.65 683.80,322.38 684.74,322.22 685.69,322.15 686.63,322.18 687.58,322.30 688.53,322.53 689.47,322.86 690.42,323.29 691.36,323.82 692.31,324.47 693.25,325.23 694.20,326.10 695.14,327.09 696.09,328.20 697.03,329.43 697.98,330.79 698.92,332.27 699.87,333.89 700.82,335.63 701.76,337.49 702.71,339.48 703.65,341.57 704.60,343.78 705.54,346.07 706.49,348.46 707.43,350.92 708.38,353.44 709.32,356.02 710.27,358.64 711.21,361.28 712.16,363.95 713.11,366.61 714.05,369.28 715.00,371.92 715.94,374.53 716.89,377.11 717.83,379.63 718.78,382.09 719.72,384.48 720.67,386.78 721.61,389.00 722.56,391.12 723.50,393.15 724.45,395.08 725.39,396.91 726.34,398.64 727.29,400.28 728.23,401.82 729.18,403.26 730.12,404.61 731.07,405.86 732.01,407.02 732.96,408.09 733.90,409.06 734.85,409.93 735.79,410.72 736.74,411.41 737.68,412.00 738.63,412.51 739.58,412.92 740.52,413.24 741.47,413.47 742.41,413.60 743.36,413.64 744.30,413.59 745.25,413.45 746.19,413.21 747.14,412.88 748.08,412.46 749.03,411.94 749.97,411.33 750.92,410.63 751.87,409.83 752.81,408.93 753.76,407.93 754.70,406.82 755.65,405.61 756.59,404.28 757.54,402.84 758.48,401.28 759.43,399.60"/>
<line x1="828" y1="150" x2="856" y2="150" stroke="#258a45" stroke-width="3"/>
<text x="864" y="154" font-family="Arial" font-size="13">pitch</text>
<polyline fill="none" stroke="#888888" stroke-width="2.2" points="116.57,365.92 117.52,365.54 118.46,365.15 119.41,364.76 120.35,364.37 121.30,363.99 122.24,363.60 123.19,363.21 124.13,362.83 125.08,362.44 126.03,362.06 126.97,361.67 127.92,361.29 128.86,360.90 129.81,360.52 130.75,360.14 131.70,359.76 132.64,359.37 133.59,358.99 134.53,358.61 135.48,358.23 136.42,357.85 137.37,357.47 138.32,357.09 139.26,356.71 140.21,356.33 141.15,355.95 142.10,355.58 143.04,355.20 143.99,354.82 144.93,354.44 145.88,354.07 146.82,353.69 147.77,353.31 148.71,352.94 149.66,352.56 150.61,352.19 151.55,351.81 152.50,351.44 153.44,351.07 154.39,350.69 155.33,350.32 156.28,349.95 157.22,349.58 158.17,349.20 159.11,348.83 160.06,348.46 161.00,348.09 161.95,347.72 162.89,347.35 163.84,346.98 164.79,346.61 165.73,346.24 166.68,345.87 167.62,345.50 168.57,345.14 169.51,344.77 170.46,344.40 171.40,344.03 172.35,343.67 173.29,343.30 174.24,342.93 175.18,342.57 176.13,342.20 177.08,341.84 178.02,341.47 178.97,341.11 179.91,340.75 180.86,340.38 181.80,340.02 182.75,339.66 183.69,339.29 184.64,338.93 185.58,338.57 186.53,338.21 187.47,337.84 188.42,337.48 189.37,337.12 190.31,336.76 191.26,336.40 192.20,336.04 193.15,335.68 194.09,335.32 195.04,334.96 195.98,334.60 196.93,334.25 197.87,333.89 198.82,333.53 199.76,333.17 200.71,332.81 201.66,332.46 202.60,332.10 203.55,331.74 204.49,331.39 205.44,331.03 206.38,330.68 207.33,330.32 208.27,329.96 209.22,329.61 210.16,329.26 211.11,328.90 212.05,328.55 213.00,328.19 213.95,327.84 214.89,327.49 215.84,327.13 216.78,326.78 217.73,326.43 218.67,326.08 219.62,325.72 220.56,325.37 221.51,325.02 222.45,324.67 223.40,324.32 224.34,323.97 225.29,323.62 226.24,323.27 227.18,322.92 228.13,322.57 229.07,322.22 230.02,321.87 230.96,321.52 231.91,321.17 232.85,320.82 233.80,320.47 234.74,320.13 235.69,319.78 236.63,319.43 237.58,319.08 238.53,318.74 239.47,318.39 240.42,318.04 241.36,317.70 242.31,317.35 243.25,317.00 244.20,316.66 245.14,316.31 246.09,315.97 247.03,315.62 247.98,315.28 248.92,314.93 249.87,314.59 250.82,314.24 251.76,313.90 252.71,313.55 253.65,313.21 254.60,312.87 255.54,312.52 256.49,312.18 257.43,311.84 258.38,311.49 259.32,311.15 260.27,310.81 261.21,310.47 262.16,310.12 263.11,309.78 264.05,309.44 265.00,309.10 265.94,308.76 266.89,308.42 267.83,308.07 268.78,307.73 269.72,307.39 270.67,307.05 271.61,306.71 272.56,306.37 273.50,306.03 274.45,305.69 275.39,305.35 276.34,305.01 277.29,304.67 278.23,304.33 279.18,303.99 280.12,303.66 281.07,303.32 282.01,302.98 282.96,302.64 283.90,302.30 284.85,301.96 285.79,301.62 286.74,301.29 287.68,300.95 288.63,300.61 289.58,300.27 290.52,299.94 291.47,299.60 292.41,299.26 293.36,298.92 294.30,298.59 295.25,298.25 296.19,297.91 297.14,297.58 298.08,297.24 299.03,296.90 299.97,296.57 300.92,296.23 301.87,295.89 302.81,295.56 303.76,295.22 304.70,294.89 305.65,294.55 306.59,294.21 307.54,293.88 308.48,293.54 309.43,293.21 310.37,292.87 311.32,292.54 312.26,292.20 313.21,291.87 314.16,291.53 315.10,291.20 316.05,290.86 316.99,290.53 317.94,290.19 318.88,289.86 319.83,289.52 320.77,289.19 321.72,288.86 322.66,288.52 323.61,288.19 324.55,287.85 325.50,287.52 326.45,287.18 327.39,286.85 328.34,286.52 329.28,286.18 330.23,285.85 331.17,285.51 332.12,285.18 333.06,284.85 334.01,284.51 334.95,284.18 335.90,283.84 336.84,283.51 337.79,283.18 338.74,282.84 339.68,282.51 340.63,282.18 341.57,281.84 342.52,281.51 343.46,281.17 344.41,280.84 345.35,280.51 346.30,280.17 347.24,279.84 348.19,279.51 349.13,279.17 350.08,278.84 351.03,278.51 351.97,278.17 352.92,277.84 353.86,277.50 354.81,277.17 355.75,276.84 356.70,276.50 357.64,276.17 358.59,275.83 359.53,275.50 360.48,275.17 361.42,274.83 362.37,274.50 363.32,274.16 364.26,273.83 365.21,273.50 366.15,273.16 367.10,272.83 368.04,272.49 368.99,272.16 369.93,271.82 370.88,271.49 371.82,271.16 372.77,270.82 373.71,270.49 374.66,270.15 375.61,269.82 376.55,269.48 377.50,269.15 378.44,268.81 379.39,268.48 380.33,268.14 381.28,267.80 382.22,267.47 383.17,267.13 384.11,266.80 385.06,266.46 386.00,266.13 386.95,265.79 387.89,265.45 388.84,265.12 389.79,264.78 390.73,264.44 391.68,264.11 392.62,263.77 393.57,263.43 394.51,263.10 395.46,262.76 396.40,262.42 397.35,262.08 398.29,261.74 399.24,261.41 400.18,261.07 401.13,260.73 402.08,260.39 403.02,260.05 403.97,259.71 404.91,259.37 405.86,259.04 406.80,258.70 407.75,258.36 408.69,258.02 409.64,257.68 410.58,257.34 411.53,257.00 412.47,256.66 413.42,256.31 414.37,255.97 415.31,255.63 416.26,255.29 417.20,254.95 418.15,254.61 419.09,254.26 420.04,253.92 420.98,253.58 421.93,253.24 422.87,252.89 423.82,252.55 424.76,252.20 425.71,251.86 426.66,251.52 427.60,251.17 428.55,250.83 429.49,250.48 430.44,250.14 431.38,249.79 432.33,249.44 433.27,249.10 434.22,248.75 435.16,248.40 436.11,248.06 437.05,247.71 438.00,247.36 438.95,247.01 439.89,246.66 440.84,246.31 441.78,245.96 442.73,245.62 443.67,245.26 444.62,244.91 445.56,244.56 446.51,244.21 447.45,243.86 448.40,243.51 449.34,243.16 450.29,242.80 451.24,242.45 452.18,242.10 453.13,241.74 454.07,241.39 455.02,241.03 455.96,240.68 456.91,240.32 457.85,239.97 458.80,239.61 459.74,239.25 460.69,238.89 461.63,238.54 462.58,238.18 463.53,237.82 464.47,237.46 465.42,237.10 466.36,236.74 467.31,236.38 468.25,236.02 469.20,235.65 470.14,235.29 471.09,234.93 472.03,234.56 472.98,234.20 473.92,233.83 474.87,233.47 475.82,233.10 476.76,232.74 477.71,232.37 478.65,232.00 479.60,231.63 480.54,231.26 481.49,230.89 482.43,230.52 483.38,230.15 484.32,229.78 485.27,229.41 486.21,229.04 487.16,228.66 488.11,228.29 489.05,227.91 490.00,227.54 490.94,227.16 491.89,226.79 492.83,226.41 493.78,226.03 494.72,225.65 495.67,225.27 496.61,224.89 497.56,224.51 498.50,224.13 499.45,223.74 500.39,223.36 501.34,222.97 502.29,222.59 503.23,222.20 504.18,221.82 505.12,221.43 506.07,221.04 507.01,220.65 507.96,220.26 508.90,219.87 509.85,219.47 510.79,219.08 511.74,218.69 512.68,218.29 513.63,217.89 514.58,217.50 515.52,217.10 516.47,216.70 517.41,216.30 518.36,215.90 519.30,215.50 520.25,215.09 521.19,214.69 522.14,214.28 523.08,213.88 524.03,213.47 524.97,213.06 525.92,212.65 526.87,212.24 527.81,211.83 528.76,211.41 529.70,211.00 530.65,210.58 531.59,210.17 532.54,209.75 533.48,209.33 534.43,208.91 535.37,208.49 536.32,208.06 537.26,207.64 538.21,207.21 539.16,206.78 540.10,206.36 541.05,205.93 541.99,205.49 542.94,205.06 543.88,204.63 544.83,204.19 545.77,203.75 546.72,203.31 547.66,202.87 548.61,202.43 549.55,201.99 550.50,201.54 551.45,201.09 552.39,200.64 553.34,200.19 554.28,199.74 555.23,199.29 556.17,198.83 557.12,198.38 558.06,197.92 559.01,197.45 559.95,196.99 560.90,196.53 561.84,196.06 562.79,195.59 563.74,195.12 564.68,194.65 565.63,194.17 566.57,193.70 567.52,193.22 568.46,192.74 569.41,192.25 570.35,191.77 571.30,191.28 572.24,190.79 573.19,190.30 574.13,189.80 575.08,189.31 576.03,188.81 576.97,188.31 577.92,187.80 578.86,187.29 579.81,186.79 580.75,186.27 581.70,185.76 582.64,185.24 583.59,184.72 584.53,184.20 585.48,183.67 586.42,183.14 587.37,182.61 588.32,182.08 589.26,181.54 590.21,181.00 591.15,180.46 592.10,179.91 593.04,179.36 593.99,178.81 594.93,178.25 595.88,177.69 596.82,177.12 597.77,176.56 598.71,175.99 599.66,175.41 600.61,174.83 601.55,174.25 602.50,173.67 603.44,173.08 604.39,172.48 605.33,171.88 606.28,171.28 607.22,170.68 608.17,170.06 609.11,169.45 610.06,168.83 611.00,168.21 611.95,167.58 612.89,166.94 613.84,166.30 614.79,165.66 615.73,165.01 616.68,164.36 617.62,163.70 618.57,163.03 619.51,162.43 620.46,161.85 621.40,161.27 622.35,160.70 623.29,160.12 624.24,159.54 625.18,158.96 626.13,158.38 627.08,157.80 628.02,157.22 628.97,156.65 629.91,156.07 630.86,155.49 631.80,154.91 632.75,154.33 633.69,153.75 634.64,153.17 635.58,152.60 636.53,152.02 637.47,151.44 638.42,150.86 639.37,150.28 640.31,149.70 641.26,149.12 642.20,148.55 643.15,147.97 644.09,147.39 645.04,146.81 645.98,146.23 646.93,145.65 647.87,145.08 648.82,144.50 649.76,143.92 650.71,143.34 651.66,142.76 652.60,142.18 653.55,141.60 654.49,141.03 655.44,140.45 656.38,139.87 657.33,139.29 658.27,138.71 659.22,138.13 660.16,137.55 661.11,136.98 662.05,136.40 663.00,135.82 663.95,135.24 664.89,134.66 665.84,134.08 666.78,133.50 667.73,132.93 668.67,132.35 669.62,131.77 670.56,131.19 671.51,130.61 672.45,130.03 673.40,129.46 674.34,128.88 675.29,128.30 676.24,127.72 677.18,127.14 678.13,126.56 679.07,125.98 680.02,125.41 680.96,124.83 681.91,124.25 682.85,123.67 683.80,123.09 684.74,122.51 685.69,121.93 686.63,121.36 687.58,120.78 688.53,120.20 689.47,119.62 690.42,119.04 691.36,118.46 692.31,117.89 693.25,117.31 694.20,116.73 695.14,116.15 696.09,115.57 697.03,114.99 697.98,114.41 698.92,113.84 699.87,113.26 700.82,112.68 701.76,112.10 702.71,111.52 703.65,110.94 704.60,110.36 705.54,109.79 706.49,109.21 707.43,108.63 708.38,108.05 709.32,107.47 710.27,106.89 711.21,106.31 712.16,105.74 713.11,105.16 714.05,104.58 715.00,104.00 715.94,103.42 716.89,102.84 717.83,102.27 718.78,101.69 719.72,101.11 720.67,100.53 721.61,99.95 722.56,99.37 723.50,98.79 724.45,98.22 725.39,97.64 726.34,97.06 727.29,96.48 728.23,95.90 729.18,95.32 730.12,94.74 731.07,94.17 732.01,93.59 732.96,93.01 733.90,92.43 734.85,91.85 735.79,91.27 736.74,90.69 737.68,90.12 738.63,89.54 739.58,88.96 740.52,88.38 741.47,87.80 742.41,87.22 743.36,86.65 744.30,86.07 745.25,85.49 746.19,84.91 747.14,84.33 748.08,83.75 749.03,83.17 749.97,82.60 750.92,82.02 751.87,81.44 752.81,80.86 753.76,80.28 754.70,79.70 755.65,79.12 756.59,78.55 757.54,77.97 758.48,77.39 759.43,76.81"/>
<line x1="828" y1="174" x2="856" y2="174" stroke="#888888" stroke-width="3"/>
<text x="864" y="178" font-family="Arial" font-size="13">yaw ref</text>
<polyline fill="none" stroke="#8a4fbf" stroke-width="2.2" points="116.57,375.51 117.52,375.51 118.46,375.49 119.41,375.45 120.35,375.38 121.30,375.27 122.24,375.12 123.19,374.94 124.13,374.72 125.08,374.46 126.03,374.16 126.97,373.82 127.92,373.44 128.86,373.02 129.81,372.56 130.75,372.06 131.70,371.53 132.64,370.95 133.59,370.35 134.53,369.70 135.48,369.03 136.42,368.32 137.37,367.58 138.32,366.81 139.26,366.02 140.21,365.20 141.15,364.35 142.10,363.48 143.04,362.60 143.99,361.69 144.93,360.77 145.88,359.84 146.82,358.89 147.77,357.94 148.71,356.98 149.66,356.01 150.61,355.04 151.55,354.07 152.50,353.10 153.44,352.13 154.39,351.17 155.33,350.22 156.28,349.28 157.22,348.35 158.17,347.43 159.11,346.52 160.06,345.63 161.00,344.76 161.95,343.91 162.89,343.08 163.84,342.27 164.79,341.48 165.73,340.71 166.68,339.97 167.62,339.26 168.57,338.57 169.51,337.90 170.46,337.27 171.40,336.66 172.35,336.08 173.29,335.53 174.24,335.00 175.18,334.51 176.13,334.05 177.08,333.61 178.02,333.21 178.97,332.83 179.91,332.49 180.86,332.18 181.80,331.89 182.75,331.64 183.69,331.41 184.64,331.21 185.58,331.05 186.53,330.91 187.47,330.80 188.42,330.72 189.37,330.66 190.31,330.63 191.26,330.63 192.20,330.65 193.15,330.70 194.09,330.78 195.04,330.87 195.98,330.99 196.93,331.13 197.87,331.28 198.82,331.46 199.76,331.65 200.71,331.86 201.66,332.08 202.60,332.31 203.55,332.56 204.49,332.81 205.44,333.07 206.38,333.33 207.33,333.60 208.27,333.86 209.22,334.13 210.16,334.38 211.11,334.64 212.05,334.88 213.00,335.11 213.95,335.33 214.89,335.53 215.84,335.71 216.78,335.86 217.73,336.00 218.67,336.11 219.62,336.18 220.56,336.23 221.51,336.24 222.45,336.22 223.40,336.16 224.34,336.07 225.29,335.93 226.24,335.75 227.18,335.53 228.13,335.26 229.07,334.95 230.02,334.60 230.96,334.20 231.91,333.76 232.85,333.27 233.80,332.74 234.74,332.17 235.69,331.56 236.63,330.90 237.58,330.21 238.53,329.48 239.47,328.71 240.42,327.91 241.36,327.08 242.31,326.21 243.25,325.32 244.20,324.40 245.14,323.46 246.09,322.50 247.03,321.52 247.98,320.52 248.92,319.51 249.87,318.49 250.82,317.47 251.76,316.43 252.71,315.40 253.65,314.36 254.60,313.33 255.54,312.30 256.49,311.28 257.43,310.27 258.38,309.28 259.32,308.29 260.27,307.33 261.21,306.38 262.16,305.46 263.11,304.55 264.05,303.68 265.00,302.83 265.94,302.00 266.89,301.21 267.83,300.45 268.78,299.72 269.72,299.03 270.67,298.37 271.61,297.74 272.56,297.16 273.50,296.61 274.45,296.10 275.39,295.63 276.34,295.20 277.29,294.81 278.23,294.45 279.18,294.14 280.12,293.87 281.07,293.64 282.01,293.45 282.96,293.30 283.90,293.19 284.85,293.12 285.79,293.09 286.74,293.09 287.68,293.14 288.63,293.22 289.58,293.33 290.52,293.48 291.47,293.67 292.41,293.88 293.36,294.13 294.30,294.40 295.25,294.70 296.19,295.03 297.14,295.38 298.08,295.75 299.03,296.14 299.97,296.54 300.92,296.96 301.87,297.39 302.81,297.83 303.76,298.28 304.70,298.72 305.65,299.17 306.59,299.62 307.54,300.05 308.48,300.48 309.43,300.90 310.37,301.30 311.32,301.69 312.26,302.05 313.21,302.38 314.16,302.69 315.10,302.97 316.05,303.22 316.99,303.43 317.94,303.59 318.88,303.72 319.83,303.80 320.77,303.84 321.72,303.83 322.66,303.76 323.61,303.64 324.55,303.47 325.50,303.24 326.45,302.95 327.39,302.61 328.34,302.20 329.28,301.74 330.23,301.22 331.17,300.63 332.12,299.99 333.06,299.29 334.01,298.53 334.95,297.72 335.90,296.85 336.84,295.93 337.79,294.95 338.74,293.94 339.68,292.87 340.63,291.77 341.57,290.62 342.52,289.45 343.46,288.24 344.41,287.00 345.35,285.74 346.30,284.46 347.24,283.17 348.19,281.86 349.13,280.55 350.08,279.23 351.03,277.92 351.97,276.61 352.92,275.31 353.86,274.03 354.81,272.76 355.75,271.52 356.70,270.29 357.64,269.10 358.59,267.94 359.53,266.81 360.48,265.72 361.42,264.68 362.37,263.67 363.32,262.71 364.26,261.80 365.21,260.95 366.15,260.14 367.10,259.39 368.04,258.69 368.99,258.05 369.93,257.47 370.88,256.95 371.82,256.49 372.77,256.08 373.71,255.74 374.66,255.46 375.61,255.24 376.55,255.09 377.50,254.99 378.44,254.95 379.39,254.97 380.33,255.05 381.28,255.19 382.22,255.38 383.17,255.62 384.11,255.92 385.06,256.27 386.00,256.67 386.95,257.12 387.89,257.61 388.84,258.15 389.79,258.72 390.73,259.33 391.68,259.98 392.62,260.65 393.57,261.36 394.51,262.09 395.46,262.84 396.40,263.60 397.35,264.38 398.29,265.17 399.24,265.96 400.18,266.75 401.13,267.54 402.08,268.31 403.02,269.08 403.97,269.83 404.91,270.55 405.86,271.25 406.80,271.92 407.75,272.55 408.69,273.14 409.64,273.69 410.58,274.18 411.53,274.63 412.47,275.01 413.42,275.34 414.37,275.60 415.31,275.79 416.26,275.91 417.20,275.96 418.15,275.93 419.09,275.82 420.04,275.63 420.98,275.36 421.93,275.00 422.87,274.56 423.82,274.04 424.76,273.42 425.71,272.73 426.66,271.95 427.60,271.09 428.55,270.14 429.49,269.12 430.44,268.02 431.38,266.84 432.33,265.60 433.27,264.29 434.22,262.91 435.16,261.48 436.11,259.99 437.05,258.45 438.00,256.87 438.95,255.24 439.89,253.59 440.84,251.90 441.78,250.19 442.73,248.46 443.67,246.73 444.62,244.98 445.56,243.24 446.51,241.50 447.45,239.77 448.40,238.06 449.34,236.37 450.29,234.71 451.24,233.08 452.18,231.49 453.13,229.94 454.07,228.44 455.02,226.99 455.96,225.59 456.91,224.25 457.85,222.98 458.80,221.78 459.74,220.64 460.69,219.58 461.63,218.59 462.58,217.68 463.53,216.86 464.47,216.12 465.42,215.46 466.36,214.89 467.31,214.41 468.25,214.01 469.20,213.71 470.14,213.50 471.09,213.37 472.03,213.34 472.98,213.40 473.92,213.55 474.87,213.79 475.82,214.11 476.76,214.52 477.71,215.01 478.65,215.59 479.60,216.24 480.54,216.97 481.49,217.78 482.43,218.65 483.38,219.59 484.32,220.59 485.27,221.64 486.21,222.75 487.16,223.90 488.11,225.10 489.05,226.33 490.00,227.59 490.94,228.87 491.89,230.17 492.83,231.47 493.78,232.79 494.72,234.09 495.67,235.39 496.61,236.67 497.56,237.93 498.50,239.15 499.45,240.33 500.39,241.47 501.34,242.56 502.29,243.58 503.23,244.54 504.18,245.43 505.12,246.24 506.07,246.96 507.01,247.60 507.96,248.13 508.90,248.57 509.85,248.91 510.79,249.13 511.74,249.25 512.68,249.24 513.63,249.13 514.58,248.89 515.52,248.53 516.47,248.05 517.41,247.45 518.36,246.72 519.30,245.87 520.25,244.91 521.19,243.82 522.14,242.62 523.08,241.31 524.03,239.88 524.97,238.35 525.92,236.72 526.87,234.99 527.81,233.17 528.76,231.26 529.70,229.27 530.65,227.21 531.59,225.07 532.54,222.88 533.48,220.63 534.43,218.33 535.37,215.99 536.32,213.62 537.26,211.22 538.21,208.81 539.16,206.38 540.10,203.95 541.05,201.53 541.99,199.12 542.94,196.73 543.88,194.36 544.83,192.04 545.77,189.75 546.72,187.51 547.66,185.33 548.61,183.21 549.55,181.17 550.50,179.20 551.45,177.31 552.39,175.51 553.34,173.80 554.28,172.20 555.23,170.69 556.17,169.29 557.12,168.00 558.06,166.82 559.01,165.75 559.95,164.79 560.90,163.95 561.84,163.22 562.79,162.62 563.74,162.14 564.68,161.78 565.63,161.55 566.57,161.44 567.52,161.47 568.46,161.63 569.41,161.92 570.35,162.35 571.30,162.91 572.24,163.60 573.19,164.42 574.13,165.36 575.08,166.42 576.03,167.59 576.97,168.87 577.92,170.26 578.86,171.73 579.81,173.29 580.75,174.93 581.70,176.64 582.64,178.41 583.59,180.23 584.53,182.10 585.48,184.01 586.42,185.94 587.37,187.89 588.32,189.85 589.26,191.81 590.21,193.75 591.15,195.67 592.10,197.56 593.04,199.40 593.99,201.19 594.93,202.91 595.88,204.56 596.82,206.12 597.77,207.60 598.71,208.97 599.66,210.25 600.61,211.43 601.55,212.50 602.50,213.46 603.44,214.31 604.39,215.05 605.33,215.67 606.28,216.18 607.22,216.57 608.17,216.84 609.11,216.99 610.06,217.01 611.00,216.91 611.95,216.68 612.89,216.32 613.84,215.83 614.79,215.21 615.73,214.46 616.68,213.57 617.62,212.55 618.57,211.40 619.51,210.12 620.46,208.70 621.40,207.15 622.35,205.46 623.29,203.65 624.24,201.70 625.18,199.62 626.13,197.40 627.08,195.06 628.02,192.58 628.97,189.97 629.91,187.24 630.86,184.39 631.80,181.43 632.75,178.37 633.69,175.22 634.64,171.98 635.58,168.67 636.53,165.29 637.47,161.85 638.42,158.38 639.37,154.86 640.31,151.32 641.26,147.77 642.20,144.21 643.15,140.66 644.09,137.13 645.04,133.63 645.98,130.17 646.93,126.76 647.87,123.42 648.82,120.15 649.76,116.97 650.71,113.88 651.66,110.87 652.60,107.97 653.55,105.17 654.49,102.46 655.44,99.87 656.38,97.38 657.33,95.01 658.27,92.75 659.22,90.60 660.16,88.58 661.11,86.68 662.05,84.91 663.00,83.27 663.95,81.77 664.89,80.39 665.84,79.16 666.78,78.06 667.73,77.11 668.67,76.30 669.62,75.62 670.56,75.10 671.51,74.71 672.45,74.46 673.40,74.36 674.34,74.39 675.29,74.57 676.24,74.89 677.18,75.35 678.13,75.95 679.07,76.68 680.02,77.56 680.96,78.57 681.91,79.73 682.85,81.02 683.80,82.44 684.74,84.01 685.69,85.71 686.63,87.54 687.58,89.51 688.53,91.61 689.47,93.83 690.42,96.16 691.36,98.59 692.31,101.12 693.25,103.72 694.20,106.40 695.14,109.13 696.09,111.90 697.03,114.70 697.98,117.52 698.92,120.35 699.87,123.18 700.82,125.98 701.76,128.75 702.71,131.48 703.65,134.14 704.60,136.74 705.54,139.26 706.49,141.68 707.43,144.01 708.38,146.25 709.32,148.39 710.27,150.42 711.21,152.35 712.16,154.18 713.11,155.89 714.05,157.49 715.00,158.98 715.94,160.35 716.89,161.60 717.83,162.72 718.78,163.73 719.72,164.60 720.67,165.35 721.61,165.96 722.56,166.44 723.50,166.78 724.45,166.99 725.39,167.06 726.34,167.00 727.29,166.80 728.23,166.46 729.18,165.99 730.12,165.38 731.07,164.64 732.01,163.76 732.96,162.74 733.90,161.58 734.85,160.29 735.79,158.86 736.74,157.29 737.68,155.58 738.63,153.74 739.58,151.76 740.52,149.64 741.47,147.39 742.41,145.00 743.36,142.47 744.30,139.81 745.25,137.01 746.19,134.08 747.14,131.01 748.08,127.80 749.03,124.46 749.97,120.99 750.92,117.39 751.87,113.66 752.81,109.81 753.76,105.85 754.70,101.79 755.65,97.66 756.59,93.45 757.54,89.18 758.48,84.87 759.43,80.53"/>
<line x1="828" y1="198" x2="856" y2="198" stroke="#8a4fbf" stroke-width="3"/>
<text x="864" y="202" font-family="Arial" font-size="13">yaw</text>
</svg>