<svg xmlns="http://www.w3.org/2000/svg" width="920" height="520" viewBox="0 0 920 520">
<rect width="100%" height="100%" fill="white"/>
<text x="460" y="28" text-anchor="middle" font-family="Arial" font-size="20">Teaching Six-DOF Rigid Body Position and Speed</text>
<rect x="78" y="54" width="720" height="380" fill="#fafafa" stroke="#222"/>
<line x1="78" y1="434" x2="798" y2="434" stroke="#222"/>
<line x1="78" y1="54" x2="78" y2="434" stroke="#222"/>
<text x="438" y="492" text-anchor="middle" font-family="Arial" font-size="14">time (s)</text>
<text transform="translate(22,244) rotate(-90)" text-anchor="middle" font-family="Arial" font-size="14">value</text>
<text x="78" y="456" text-anchor="middle" font-family="Arial" font-size="11">-0.72</text>
<text x="798" y="456" text-anchor="middle" font-family="Arial" font-size="11">12.72</text>
<text x="68" y="434" text-anchor="end" font-family="Arial" font-size="11">-102.80</text>
<text x="68" y="59" text-anchor="end" font-family="Arial" font-size="11">1815.25</text>
<polyline fill="none" stroke="#2f6fbb" stroke-width="2.2" points="116.57,413.63 119.25,413.62 121.93,413.60 124.61,413.58 127.29,413.57 129.96,413.55 132.64,413.53 135.32,413.52 138.00,413.50 140.68,413.48 143.36,413.47 146.04,413.45 148.71,413.43 151.39,413.42 154.07,413.40 156.75,413.38 159.43,413.36 162.11,413.35 164.79,413.33 167.46,413.31 170.14,413.30 172.82,413.28 175.50,413.26 178.18,413.25 180.86,413.23 183.54,413.21 186.21,413.20 188.89,413.18 191.57,413.16 194.25,413.15 196.93,413.13 199.61,413.11 202.29,413.10 204.96,413.08 207.64,413.06 210.32,413.04 213.00,413.03 215.68,413.01 218.36,412.99 221.04,412.98 223.71,412.96 226.39,412.94 229.07,412.93 231.75,412.91 234.43,412.89 237.11,412.88 239.79,412.86 242.46,412.84 245.14,412.83 247.82,412.81 250.50,412.79 253.18,412.78 255.86,412.76 258.54,412.74 261.21,412.73 263.89,412.71 266.57,412.69 269.25,412.67 271.93,412.66 274.61,412.64 277.29,412.62 279.96,412.61 282.64,412.59 285.32,412.57 288.00,412.56 290.68,412.54 293.36,412.52 296.04,412.51 298.71,412.49 301.39,412.47 304.07,412.46 306.75,412.44 309.43,412.42 312.11,412.41 314.79,412.39 317.46,412.37 320.14,412.36 322.82,412.34 325.50,412.32 328.18,412.30 330.86,412.29 333.54,412.27 336.21,412.25 338.89,412.24 341.57,412.22 344.25,412.20 346.93,412.19 349.61,412.17 352.29,412.15 354.96,412.14 357.64,412.12 360.32,412.10 363.00,412.09 365.68,412.07 368.36,412.05 371.04,412.04 373.71,412.02 376.39,412.00 379.07,411.99 381.75,411.97 384.43,411.95 387.11,411.93 389.79,411.92 392.46,411.90 395.14,411.88 397.82,411.87 400.50,411.85 403.18,411.83 405.86,411.82 408.54,411.80 411.21,411.78 413.89,411.77 416.57,411.75 419.25,411.73 421.93,411.72 424.61,411.70 427.29,411.68 429.96,411.67 432.64,411.65 435.32,411.63 438.00,411.62 440.68,411.60 443.36,411.58 446.04,411.56 448.71,411.55 451.39,411.53 454.07,411.51 456.75,411.50 459.43,411.48 462.11,411.46 464.79,411.45 467.46,411.43 470.14,411.41 472.82,411.40 475.50,411.38 478.18,411.36 480.86,411.35 483.54,411.33 486.21,411.31 488.89,411.30 491.57,411.28 494.25,411.26 496.93,411.25 499.61,411.23 502.29,411.21 504.96,411.19 507.64,411.18 510.32,411.16 513.00,411.14 515.68,411.13 518.36,411.11 521.04,411.09 523.71,411.08 526.39,411.06 529.07,411.04 531.75,411.03 534.43,411.01 537.11,410.99 539.79,410.98 542.46,410.96 545.14,410.94 547.82,410.93 550.50,410.91 553.18,410.89 555.86,410.87 558.54,410.86 561.21,410.84 563.89,410.82 566.57,410.81 569.25,410.79 571.93,410.77 574.61,410.76 577.29,410.74 579.96,410.72 582.64,410.71 585.32,410.69 588.00,410.67 590.68,410.66 593.36,410.64 596.04,410.62 598.71,410.61 601.39,410.59 604.07,410.57 606.75,410.55 609.43,410.54 612.11,410.52 614.79,410.50 617.46,410.49 620.14,410.47 622.82,410.45 625.50,410.44 628.18,410.42 630.86,410.40 633.54,410.39 636.21,410.37 638.89,410.35 641.57,410.34 644.25,410.32 646.93,410.30 649.61,410.28 652.29,410.27 654.96,410.25 657.64,410.23 660.32,410.22 663.00,410.20 665.68,410.18 668.36,410.17 671.04,410.15 673.71,410.13 676.39,410.12 679.07,410.10 681.75,410.08 684.43,410.07 687.11,410.05 689.79,410.03 692.46,410.01 695.14,410.00 697.82,409.98 700.50,409.96 703.18,409.95 705.86,409.93 708.54,409.91 711.21,409.90 713.89,409.88 716.57,409.86 719.25,409.85 721.93,409.83 724.61,409.81 727.29,409.79 729.96,409.78 732.64,409.76 735.32,409.74 738.00,409.73 740.68,409.71 743.36,409.69 746.04,409.68 748.71,409.66 751.39,409.64 754.07,409.62 756.75,409.61 759.43,409.59"/>
<line x1="828" y1="78" x2="856" y2="78" stroke="#2f6fbb" stroke-width="3"/>
<text x="864" y="82" font-family="Arial" font-size="13">east / 1000</text>
<polyline fill="none" stroke="#258a45" stroke-width="2.2" points="116.57,413.63 119.25,413.63 121.93,413.63 124.61,413.63 127.29,413.63 129.96,413.63 132.64,413.63 135.32,413.63 138.00,413.63 140.68,413.63 143.36,413.63 146.04,413.63 148.71,413.63 151.39,413.63 154.07,413.63 156.75,413.63 159.43,413.63 162.11,413.63 164.79,413.63 167.46,413.63 170.14,413.63 172.82,413.63 175.50,413.63 178.18,413.63 180.86,413.63 183.54,413.63 186.21,413.63 188.89,413.63 191.57,413.63 194.25,413.63 196.93,413.63 199.61,413.63 202.29,413.63 204.96,413.63 207.64,413.63 210.32,413.63 213.00,413.63 215.68,413.63 218.36,413.63 221.04,413.63 223.71,413.63 226.39,413.63 229.07,413.63 231.75,413.63 234.43,413.63 237.11,413.63 239.79,413.63 242.46,413.63 245.14,413.63 247.82,413.63 250.50,413.63 253.18,413.63 255.86,413.63 258.54,413.63 261.21,413.63 263.89,413.63 266.57,413.63 269.25,413.63 271.93,413.63 274.61,413.63 277.29,413.63 279.96,413.63 282.64,413.63 285.32,413.63 288.00,413.63 290.68,413.63 293.36,413.63 296.04,413.63 298.71,413.63 301.39,413.63 304.07,413.63 306.75,413.63 309.43,413.63 312.11,413.63 314.79,413.63 317.46,413.63 320.14,413.63 322.82,413.63 325.50,413.63 328.18,413.63 330.86,413.63 333.54,413.63 336.21,413.63 338.89,413.63 341.57,413.63 344.25,413.63 346.93,413.63 349.61,413.63 352.29,413.63 354.96,413.63 357.64,413.63 360.32,413.63 363.00,413.63 365.68,413.63 368.36,413.63 371.04,413.63 373.71,413.63 376.39,413.63 379.07,413.63 381.75,413.63 384.43,413.63 387.11,413.63 389.79,413.63 392.46,413.63 395.14,413.63 397.82,413.63 400.50,413.63 403.18,413.63 405.86,413.63 408.54,413.63 411.21,413.63 413.89,413.63 416.57,413.63 419.25,413.63 421.93,413.63 424.61,413.63 427.29,413.63 429.96,413.63 432.64,413.63 435.32,413.63 438.00,413.63 440.68,413.63 443.36,413.63 446.04,413.63 448.71,413.63 451.39,413.63 454.07,413.63 456.75,413.63 459.43,413.63 462.11,413.63 464.79,413.63 467.46,413.63 470.14,413.63 472.82,413.63 475.50,413.63 478.18,413.63 480.86,413.63 483.54,413.63 486.21,413.63 488.89,413.63 491.57,413.63 494.25,413.63 496.93,413.63 499.61,413.63 502.29,413.64 504.96,413.64 507.64,413.64 510.32,413.64 513.00,413.64 515.68,413.64 518.36,413.64 521.04,413.64 523.71,413.64 526.39,413.64 529.07,413.64 531.75,413.64 534.43,413.64 537.11,413.64 539.79,413.64 542.46,413.64 545.14,413.64 547.82,413.64 550.50,413.64 553.18,413.64 555.86,413.64 558.54,413.64 561.21,413.64 563.89,413.64 566.57,413.64 569.25,413.64 571.93,413.64 574.61,413.64 577.29,413.64 579.96,413.64 582.64,413.64 585.32,413.64 588.00,413.64 590.68,413.64 593.36,413.64 596.04,413.64 598.71,413.64 601.39,413.64 604.07,413.64 606.75,413.64 609.43,413.64 612.11,413.64 614.79,413.64 617.46,413.64 620.14,413.64 622.82,413.64 625.50,413.64 628.18,413.64 630.86,413.64 633.54,413.64 636.21,413.64 638.89,413.64 641.57,413.64 644.25,413.64 646.93,413.64 649.61,413.64 652.29,413.64 654.96,413.64 657.64,413.64 660.32,413.64 663.00,413.64 665.68,413.64 668.36,413.64 671.04,413.64 673.71,413.64 676.39,413.64 679.07,413.64 681.75,413.64 684.43,413.64 687.11,413.64 689.79,413.64 692.46,413.64 695.14,413.64 697.82,413.64 700.50,413.64 703.18,413.64 705.86,413.64 708.54,413.64 711.21,413.64 713.89,413.64 716.57,413.64 719.25,413.64 721.93,413.64 724.61,413.64 727.29,413.64 729.96,413.64 732.64,413.64 735.32,413.64 738.00,413.64 740.68,413.64 743.36,413.64 746.04,413.64 748.71,413.64 751.39,413.64 754.07,413.64 756.75,413.64 759.43,413.64"/>
<line x1="828" y1="102" x2="856" y2="102" stroke="#258a45" stroke-width="3"/>
<text x="864" y="106" font-family="Arial" font-size="13">north / 1000</text>
<polyline fill="none" stroke="#8a4fbf" stroke-width="2.2" points="116.57,407.69 119.25,407.69 121.93,407.69 124.61,407.69 127.29,407.69 129.96,407.69 132.64,407.69 135.32,407.69 138.00,407.69 140.68,407.69 143.36,407.69 146.04,407.69 148.71,407.69 151.39,407.69 154.07,407.69 156.75,407.69 159.43,407.69 162.11,407.69 164.79,407.69 167.46,407.69 170.14,407.69 172.82,407.69 175.50,407.69 178.18,407.69 180.86,407.69 183.54,407.69 186.21,407.69 188.89,407.69 191.57,407.69 194.25,407.69 196.93,407.69 199.61,407.69 202.29,407.69 204.96,407.69 207.64,407.69 210.32,407.69 213.00,407.69 215.68,407.69 218.36,407.69 221.04,407.69 223.71,407.69 226.39,407.69 229.07,407.69 231.75,407.69 234.43,407.69 237.11,407.69 239.79,407.69 242.46,407.69 245.14,407.69 247.82,407.69 250.50,407.69 253.18,407.69 255.86,407.69 258.54,407.69 261.21,407.69 263.89,407.69 266.57,407.69 269.25,407.69 271.93,407.69 274.61,407.69 277.29,407.69 279.96,407.69 282.64,407.69 285.32,407.69 288.00,407.69 290.68,407.69 293.36,407.69 296.04,407.69 298.71,407.69 301.39,407.69 304.07,407.69 306.75,407.69 309.43,407.69 312.11,407.69 314.79,407.69 317.46,407.69 320.14,407.69 322.82,407.69 325.50,407.69 328.18,407.69 330.86,407.69 333.54,407.69 336.21,407.69 338.89,407.69 341.57,407.69 344.25,407.69 346.93,407.69 349.61,407.69 352.29,407.69 354.96,407.69 357.64,407.69 360.32,407.69 363.00,407.69 365.68,407.69 368.36,407.69 371.04,407.69 373.71,407.69 376.39,407.69 379.07,407.69 381.75,407.69 384.43,407.69 387.11,407.69 389.79,407.69 392.46,407.69 395.14,407.69 397.82,407.69 400.50,407.69 403.18,407.69 405.86,407.69 408.54,407.69 411.21,407.69 413.89,407.69 416.57,407.69 419.25,407.69 421.93,407.69 424.61,407.69 427.29,407.69 429.96,407.69 432.64,407.69 435.32,407.69 438.00,407.69 440.68,407.69 443.36,407.69 446.04,407.69 448.71,407.69 451.39,407.69 454.07,407.69 456.75,407.69 459.43,407.69 462.11,407.69 464.79,407.69 467.46,407.69 470.14,407.69 472.82,407.69 475.50,407.69 478.18,407.69 480.86,407.69 483.54,407.69 486.21,407.69 488.89,407.69 491.57,407.69 494.25,407.69 496.93,407.69 499.61,407.69 502.29,407.69 504.96,407.69 507.64,407.69 510.32,407.69 513.00,407.69 515.68,407.69 518.36,407.69 521.04,407.69 523.71,407.69 526.39,407.69 529.07,407.69 531.75,407.69 534.43,407.69 537.11,407.69 539.79,407.69 542.46,407.69 545.14,407.69 547.82,407.69 550.50,407.69 553.18,407.69 555.86,407.69 558.54,407.69 561.21,407.69 563.89,407.69 566.57,407.69 569.25,407.69 571.93,407.69 574.61,407.69 577.29,407.69 579.96,407.69 582.64,407.69 585.32,407.69 588.00,407.69 590.68,407.69 593.36,407.69 596.04,407.69 598.71,407.69 601.39,407.69 604.07,407.69 606.75,407.69 609.43,407.69 612.11,407.68 614.79,407.68 617.46,407.68 620.14,407.68 622.82,407.68 625.50,407.68 628.18,407.68 630.86,407.68 633.54,407.68 636.21,407.68 638.89,407.68 641.57,407.68 644.25,407.68 646.93,407.68 649.61,407.68 652.29,407.68 654.96,407.68 657.64,407.68 660.32,407.68 663.00,407.68 665.68,407.68 668.36,407.68 671.04,407.68 673.71,407.68 676.39,407.68 679.07,407.68 681.75,407.68 684.43,407.68 687.11,407.68 689.79,407.68 692.46,407.68 695.14,407.68 697.82,407.68 700.50,407.68 703.18,407.68 705.86,407.68 708.54,407.68 711.21,407.68 713.89,407.68 716.57,407.68 719.25,407.68 721.93,407.68 724.61,407.68 727.29,407.68 729.96,407.68 732.64,407.68 735.32,407.68 738.00,407.68 740.68,407.68 743.36,407.68 746.04,407.68 748.71,407.68 751.39,407.68 754.07,407.68 756.75,407.68 759.43,407.68"/>
<line x1="828" y1="126" x2="856" y2="126" stroke="#8a4fbf" stroke-width="3"/>
<text x="864" y="130" font-family="Arial" font-size="13">altitude / 1000</text>
<polyline fill="none" stroke="#222222" stroke-width="2.2" points="116.57,76.83 119.25,76.84 121.93,76.85 124.61,76.86 127.29,76.86 129.96,76.87 132.64,76.88 135.32,76.89 138.00,76.89 140.68,76.90 143.36,76.91 146.04,76.92 148.71,76.92 151.39,76.93 154.07,76.94 156.75,76.95 159.43,76.95 162.11,76.96 164.79,76.97 167.46,76.97 170.14,76.98 172.82,76.99 175.50,76.99 178.18,77.00 180.86,77.01 183.54,77.01 186.21,77.02 188.89,77.03 191.57,77.03 194.25,77.04 196.93,77.05 199.61,77.05 202.29,77.06 204.96,77.07 207.64,77.07 210.32,77.08 213.00,77.09 215.68,77.09 218.36,77.10 221.04,77.10 223.71,77.11 226.39,77.11 229.07,77.12 231.75,77.13 234.43,77.13 237.11,77.14 239.79,77.14 242.46,77.15 245.14,77.15 247.82,77.16 250.50,77.16 253.18,77.17 255.86,77.17 258.54,77.18 261.21,77.18 263.89,77.19 266.57,77.19 269.25,77.20 271.93,77.20 274.61,77.21 277.29,77.21 279.96,77.22 282.64,77.22 285.32,77.23 288.00,77.23 290.68,77.23 293.36,77.24 296.04,77.24 298.71,77.25 301.39,77.25 304.07,77.25 306.75,77.26 309.43,77.26 312.11,77.26 314.79,77.27 317.46,77.27 320.14,77.27 322.82,77.28 325.50,77.28 328.18,77.28 330.86,77.28 333.54,77.29 336.21,77.29 338.89,77.29 341.57,77.29 344.25,77.29 346.93,77.30 349.61,77.30 352.29,77.30 354.96,77.30 357.64,77.30 360.32,77.30 363.00,77.30 365.68,77.30 368.36,77.30 371.04,77.30 373.71,77.30 376.39,77.30 379.07,77.30 381.75,77.30 384.43,77.30 387.11,77.30 389.79,77.30 392.46,77.30 395.14,77.30 397.82,77.30 400.50,77.30 403.18,77.29 405.86,77.29 408.54,77.29 411.21,77.29 413.89,77.29 416.57,77.28 419.25,77.28 421.93,77.28 424.61,77.27 427.29,77.27 429.96,77.27 432.64,77.26 435.32,77.26 438.00,77.25 440.68,77.25 443.36,77.24 446.04,77.24 448.71,77.23 451.39,77.23 454.07,77.22 456.75,77.21 459.43,77.21 462.11,77.20 464.79,77.19 467.46,77.19 470.14,77.18 472.82,77.17 475.50,77.16 478.18,77.15 480.86,77.15 483.54,77.14 486.21,77.13 488.89,77.12 491.57,77.11 494.25,77.10 496.93,77.09 499.61,77.08 502.29,77.07 504.96,77.05 507.64,77.04 510.32,77.03 513.00,77.02 515.68,77.01 518.36,76.99 521.04,76.98 523.71,76.97 526.39,76.95 529.07,76.94 531.75,76.92 534.43,76.91 537.11,76.89 539.79,76.88 542.46,76.86 545.14,76.85 547.82,76.83 550.50,76.81 553.18,76.80 555.86,76.78 558.54,76.76 561.21,76.74 563.89,76.72 566.57,76.70 569.25,76.68 571.93,76.67 574.61,76.65 577.29,76.62 579.96,76.60 582.64,76.58 585.32,76.56 588.00,76.54 590.68,76.52 593.36,76.49 596.04,76.47 598.71,76.45 601.39,76.42 604.07,76.40 606.75,76.38 609.43,76.35 612.11,76.33 614.79,76.30 617.46,76.28 620.14,76.25 622.82,76.22 625.50,76.20 628.18,76.17 630.86,76.14 633.54,76.11 636.21,76.08 638.89,76.05 641.57,76.02 644.25,76.00 646.93,75.97 649.61,75.93 652.29,75.90 654.96,75.87 657.64,75.84 660.32,75.81 663.00,75.78 665.68,75.74 668.36,75.71 671.04,75.68 673.71,75.64 676.39,75.61 679.07,75.57 681.75,75.54 684.43,75.50 687.11,75.47 689.79,75.43 692.46,75.39 695.14,75.36 697.82,75.32 700.50,75.28 703.18,75.24 705.86,75.21 708.54,75.17 711.21,75.13 713.89,75.09 716.57,75.05 719.25,75.01 721.93,74.97 724.61,74.93 727.29,74.88 729.96,74.84 732.64,74.80 735.32,74.76 738.00,74.71 740.68,74.67 743.36,74.63 746.04,74.58 748.71,74.54 751.39,74.49 754.07,74.45 756.75,74.40 759.43,74.36"/>
<line x1="828" y1="150" x2="856" y2="150" stroke="#222222" stroke-width="3"/>
<text x="864" y="154" font-family="Arial" font-size="13">speed</text>
</svg>