<svg xmlns="http://www.w3.org/2000/svg" width="920" height="520" viewBox="0 0 920 520">
<rect width="100%" height="100%" fill="white"/>
<text x="460" y="28" text-anchor="middle" font-family="Arial" font-size="20">Teaching Six-DOF Kinematics Health</text>
<rect x="78" y="54" width="720" height="380" fill="#fafafa" stroke="#222"/>
<line x1="78" y1="434" x2="798" y2="434" stroke="#222"/>
<line x1="78" y1="54" x2="78" y2="434" stroke="#222"/>
<text x="438" y="492" text-anchor="middle" font-family="Arial" font-size="14">time (s)</text>
<text transform="translate(22,244) rotate(-90)" text-anchor="middle" font-family="Arial" font-size="14">error</text>
<text x="78" y="456" text-anchor="middle" font-family="Arial" font-size="11">-0.72</text>
<text x="798" y="456" text-anchor="middle" font-family="Arial" font-size="11">12.72</text>
<text x="68" y="434" text-anchor="end" font-family="Arial" font-size="11">-0.00</text>
<text x="68" y="59" text-anchor="end" font-family="Arial" font-size="11">0.00</text>
<polyline fill="none" stroke="#2f6fbb" stroke-width="2.2" points="116.57,413.64 119.25,413.64 121.93,413.64 124.61,413.64 127.29,413.64 129.96,413.64 132.64,413.64 135.32,413.64 138.00,413.64 140.68,244.00 143.36,74.36 146.04,244.00 148.71,413.64 151.39,244.00 154.07,413.64 156.75,413.64 159.43,413.64 162.11,413.64 164.79,244.00 167.46,413.64 170.14,413.64 172.82,244.00 175.50,244.00 178.18,413.64 180.86,413.64 183.54,413.64 186.21,244.00 188.89,413.64 191.57,413.64 194.25,244.00 196.93,244.00 199.61,413.64 202.29,244.00 204.96,413.64 207.64,413.64 210.32,413.64 213.00,413.64 215.68,244.00 218.36,413.64 221.04,413.64 223.71,413.64 226.39,413.64 229.07,413.64 231.75,244.00 234.43,413.64 237.11,244.00 239.79,413.64 242.46,244.00 245.14,413.64 247.82,413.64 250.50,244.00 253.18,244.00 255.86,244.00 258.54,244.00 261.21,413.64 263.89,413.64 266.57,413.64 269.25,413.64 271.93,413.64 274.61,413.64 277.29,413.64 279.96,413.64 282.64,413.64 285.32,413.64 288.00,244.00 290.68,413.64 293.36,244.00 296.04,413.64 298.71,413.64 301.39,413.64 304.07,413.64 306.75,413.64 309.43,413.64 312.11,413.64 314.79,413.64 317.46,244.00 320.14,413.64 322.82,244.00 325.50,413.64 328.18,413.64 330.86,413.64 333.54,413.64 336.21,413.64 338.89,74.36 341.57,413.64 344.25,74.36 346.93,413.64 349.61,244.00 352.29,413.64 354.96,244.00 357.64,244.00 360.32,413.64 363.00,413.64 365.68,244.00 368.36,413.64 371.04,413.64 373.71,413.64 376.39,413.64 379.07,74.36 381.75,244.00 384.43,413.64 387.11,413.64 389.79,413.64 392.46,413.64 395.14,244.00 397.82,413.64 400.50,413.64 403.18,413.64 405.86,413.64 408.54,413.64 411.21,244.00 413.89,413.64 416.57,413.64 419.25,413.64 421.93,413.64 424.61,74.36 427.29,74.36 429.96,244.00 432.64,413.64 435.32,244.00 438.00,244.00 440.68,413.64 443.36,413.64 446.04,413.64 448.71,244.00 451.39,244.00 454.07,74.36 456.75,244.00 459.43,413.64 462.11,413.64 464.79,244.00 467.46,244.00 470.14,244.00 472.82,413.64 475.50,413.64 478.18,244.00 480.86,413.64 483.54,413.64 486.21,244.00 488.89,413.64 491.57,413.64 494.25,413.64 496.93,413.64 499.61,244.00 502.29,413.64 504.96,244.00 507.64,244.00 510.32,244.00 513.00,413.64 515.68,244.00 518.36,413.64 521.04,413.64 523.71,244.00 526.39,244.00 529.07,413.64 531.75,413.64 534.43,413.64 537.11,244.00 539.79,413.64 542.46,413.64 545.14,413.64 547.82,244.00 550.50,413.64 553.18,244.00 555.86,413.64 558.54,244.00 561.21,244.00 563.89,413.64 566.57,244.00 569.25,413.64 571.93,413.64 574.61,413.64 577.29,244.00 579.96,74.36 582.64,413.64 585.32,413.64 588.00,413.64 590.68,413.64 593.36,413.64 596.04,413.64 598.71,244.00 601.39,244.00 604.07,244.00 606.75,413.64 609.43,244.00 612.11,244.00 614.79,413.64 617.46,244.00 620.14,413.64 622.82,244.00 625.50,74.36 628.18,244.00 630.86,413.64 633.54,413.64 636.21,413.64 638.89,244.00 641.57,244.00 644.25,244.00 646.93,413.64 649.61,413.64 652.29,413.64 654.96,244.00 657.64,413.64 660.32,413.64 663.00,244.00 665.68,413.64 668.36,413.64 671.04,413.64 673.71,413.64 676.39,244.00 679.07,413.64 681.75,74.36 684.43,413.64 687.11,244.00 689.79,244.00 692.46,413.64 695.14,413.64 697.82,413.64 700.50,413.64 703.18,244.00 705.86,74.36 708.54,244.00 711.21,244.00 713.89,244.00 716.57,244.00 719.25,244.00 721.93,244.00 724.61,244.00 727.29,413.64 729.96,413.64 732.64,244.00 735.32,413.64 738.00,244.00 740.68,413.64 743.36,244.00 746.04,413.64 748.71,413.64 751.39,413.64 754.07,413.64 756.75,413.64 759.43,244.00"/>
<line x1="828" y1="78" x2="856" y2="78" stroke="#2f6fbb" stroke-width="3"/>
<text x="864" y="82" font-family="Arial" font-size="13">quaternion norm error</text>
<polyline fill="none" stroke="#c23b3b" stroke-width="2.2" points="116.57,413.64 119.25,413.64 121.93,413.64 124.61,413.63 127.29,74.36 129.96,74.36 132.64,244.00 135.32,244.00 138.00,244.00 140.68,413.52 143.36,413.56 146.04,413.51 148.71,244.00 151.39,244.00 154.07,413.39 156.75,74.36 159.43,412.87 162.11,244.00 164.79,74.36 167.46,244.00 170.14,413.13 172.82,244.00 175.50,74.36 178.18,74.36 180.86,244.00 183.54,244.00 186.21,244.00 188.89,413.30 191.57,74.36 194.25,410.00 196.93,74.36 199.61,411.49 202.29,412.09 204.96,244.00 207.64,74.36 210.32,244.00 213.00,244.00 215.68,74.36 218.36,74.36 221.04,413.20 223.71,74.36 226.39,74.36 229.07,410.74 231.75,244.00 234.43,410.14 237.11,244.00 239.79,244.00 242.46,244.00 245.14,74.36 247.82,411.88 250.50,74.36 253.18,74.36 255.86,244.00 258.54,74.36 261.21,244.00 263.89,74.36 266.57,244.00 269.25,244.00 271.93,244.00 274.61,244.00 277.29,244.00 279.96,244.00 282.64,244.00 285.32,244.00 288.00,244.00 290.68,74.36 293.36,407.84 296.04,403.21 298.71,74.36 301.39,244.00 304.07,244.00 306.75,244.00 309.43,401.38 312.11,244.00 314.79,244.00 317.46,410.33 320.14,400.39 322.82,244.00 325.50,244.00 328.18,244.00 330.86,74.36 333.54,244.00 336.21,399.06 338.89,244.00 341.57,244.00 344.25,74.36 346.93,244.00 349.61,244.00 352.29,244.00 354.96,397.08 357.64,74.36 360.32,74.36 363.00,74.36 365.68,244.00 368.36,405.69 371.04,244.00 373.71,74.36 376.39,74.36 379.07,244.00 381.75,244.00 384.43,244.00 387.11,244.00 389.79,380.51 392.46,244.00 395.14,391.11 397.82,381.83 400.50,244.00 403.18,244.00 405.86,392.44 408.54,400.39 411.21,244.00 413.89,244.00 416.57,244.00 419.25,244.00 421.93,389.79 424.61,244.00 427.29,384.49 429.96,244.00 432.64,384.49 435.32,244.00 438.00,244.00 440.68,400.39 443.36,244.00 446.04,74.36 448.71,339.42 451.39,244.00 454.07,244.00 456.75,363.28 459.43,244.00 462.11,336.77 464.79,395.09 467.46,381.83 470.14,244.00 472.82,74.36 475.50,74.36 478.18,389.79 480.86,74.36 483.54,379.18 486.21,244.00 488.89,244.00 491.57,244.00 494.25,371.23 496.93,244.00 499.61,244.00 502.29,334.12 504.96,381.83 507.64,74.36 510.32,244.00 513.00,334.12 515.68,371.23 518.36,244.00 521.04,381.83 523.71,244.00 526.39,244.00 529.07,397.74 531.75,74.36 534.43,74.36 537.11,244.00 539.79,244.00 542.46,381.83 545.14,244.00 547.82,244.00 550.50,360.63 553.18,244.00 555.86,74.36 558.54,74.36 561.21,387.14 563.89,74.36 566.57,74.36 569.25,244.00 571.93,244.00 574.61,244.00 577.29,244.00 579.96,244.00 582.64,244.00 585.32,244.00 588.00,355.33 590.68,74.36 593.36,355.33 596.04,244.00 598.71,244.00 601.39,74.36 604.07,244.00 606.75,371.23 609.43,371.23 612.11,323.52 614.79,74.36 617.46,244.00 620.14,74.36 622.82,74.36 625.50,74.36 628.18,244.00 630.86,74.36 633.54,74.36 636.21,244.00 638.89,74.36 641.57,244.00 644.25,355.33 646.93,371.23 649.61,74.36 652.29,74.36 654.96,381.83 657.64,376.53 660.32,291.71 663.00,350.03 665.68,371.23 668.36,365.93 671.04,318.22 673.71,74.36 676.39,74.36 679.07,74.36 681.75,371.23 684.43,360.63 687.11,376.53 689.79,392.44 692.46,74.36 695.14,244.00 697.82,244.00 700.50,244.00 703.18,74.36 705.86,74.36 708.54,244.00 711.21,244.00 713.89,371.23 716.57,392.44 719.25,74.36 721.93,291.71 724.61,74.36 727.29,360.63 729.96,244.00 732.64,244.00 735.32,74.36 738.00,244.00 740.68,244.00 743.36,344.73 746.04,74.36 748.71,275.81 751.39,74.36 754.07,244.00 756.75,244.00 759.43,275.81"/>
<line x1="828" y1="102" x2="856" y2="102" stroke="#c23b3b" stroke-width="3"/>
<text x="864" y="106" font-family="Arial" font-size="13">DCM orthogonality error</text>
</svg>