<svg xmlns="http://www.w3.org/2000/svg" width="920" height="520" viewBox="0 0 920 520">
<rect width="100%" height="100%" fill="white"/>
<text x="460" y="28" text-anchor="middle" font-family="Arial" font-size="20">Teaching Six-DOF Rigid Body Rates</text>
<rect x="78" y="54" width="720" height="380" fill="#fafafa" stroke="#222"/>
<line x1="78" y1="434" x2="798" y2="434" stroke="#222"/>
<line x1="78" y1="54" x2="78" y2="434" stroke="#222"/>
<text x="438" y="492" text-anchor="middle" font-family="Arial" font-size="14">time (s)</text>
<text transform="translate(22,244) rotate(-90)" text-anchor="middle" font-family="Arial" font-size="14">rate (rad/s)</text>
<text x="78" y="456" text-anchor="middle" font-family="Arial" font-size="11">-0.72</text>
<text x="798" y="456" text-anchor="middle" font-family="Arial" font-size="11">12.72</text>
<text x="68" y="434" text-anchor="end" font-family="Arial" font-size="11">-0.03</text>
<text x="68" y="59" text-anchor="end" font-family="Arial" font-size="11">0.10</text>
<polyline fill="none" stroke="#2f6fbb" stroke-width="2.2" points="116.57,340.50 119.25,340.50 121.93,340.45 124.61,340.36 127.29,340.21 129.96,340.02 132.64,339.79 135.32,339.50 138.00,339.17 140.68,338.80 143.36,338.37 146.04,337.90 148.71,337.39 151.39,336.83 154.07,336.22 156.75,335.57 159.43,334.88 162.11,334.14 164.79,333.37 167.46,332.54 170.14,331.68 172.82,330.78 175.50,329.84 178.18,328.85 180.86,327.83 183.54,326.77 186.21,325.68 188.89,324.54 191.57,323.38 194.25,322.17 196.93,320.94 199.61,319.67 202.29,318.37 204.96,317.04 207.64,315.68 210.32,314.29 213.00,312.87 215.68,311.43 218.36,309.96 221.04,308.47 223.71,306.95 226.39,305.42 229.07,303.86 231.75,302.28 234.43,300.68 237.11,299.07 239.79,297.44 242.46,295.80 245.14,294.14 247.82,292.47 250.50,290.79 253.18,289.10 255.86,287.41 258.54,285.70 261.21,283.99 263.89,282.28 266.57,280.56 269.25,278.84 271.93,277.12 274.61,275.40 277.29,273.68 279.96,271.97 282.64,270.26 285.32,268.56 288.00,266.87 290.68,265.18 293.36,263.50 296.04,261.84 298.71,260.19 301.39,258.55 304.07,256.93 306.75,255.32 309.43,253.73 312.11,252.16 314.79,250.61 317.46,249.08 320.14,247.57 322.82,246.09 325.50,244.63 328.18,243.20 330.86,241.79 333.54,240.41 336.21,239.06 338.89,237.74 341.57,236.46 344.25,235.20 346.93,233.98 349.61,232.79 352.29,231.63 354.96,230.51 357.64,229.43 360.32,228.39 363.00,227.38 365.68,226.41 368.36,225.48 371.04,224.59 373.71,223.75 376.39,222.94 379.07,222.18 381.75,221.46 384.43,220.78 387.11,220.15 389.79,219.56 392.46,219.02 395.14,218.52 397.82,218.07 400.50,217.66 403.18,217.30 405.86,216.99 408.54,216.72 411.21,216.50 413.89,216.33 416.57,216.21 419.25,216.13 421.93,216.10 424.61,216.12 427.29,216.18 429.96,216.30 432.64,216.46 435.32,216.66 438.00,216.92 440.68,217.22 443.36,217.57 446.04,217.96 448.71,218.40 451.39,218.89 454.07,219.42 456.75,220.00 459.43,220.62 462.11,221.29 464.79,222.00 467.46,222.75 470.14,223.54 472.82,224.38 475.50,225.26 478.18,226.17 480.86,227.13 483.54,228.13 486.21,229.17 488.89,230.24 491.57,231.35 494.25,232.49 496.93,233.67 499.61,234.89 502.29,236.14 504.96,237.41 507.64,238.73 510.32,240.07 513.00,241.44 515.68,242.84 518.36,244.26 521.04,245.71 523.71,247.19 526.39,248.69 529.07,250.21 531.75,251.76 534.43,253.32 537.11,254.90 539.79,256.50 542.46,258.12 545.14,259.75 547.82,261.40 550.50,263.06 553.18,264.73 555.86,266.42 558.54,268.11 561.21,269.80 563.89,271.51 566.57,273.22 569.25,274.93 571.93,276.65 574.61,278.37 577.29,280.08 579.96,281.80 582.64,283.51 585.32,285.22 588.00,286.92 590.68,288.62 593.36,290.31 596.04,291.99 598.71,293.66 601.39,295.31 604.07,296.95 606.75,298.58 609.43,300.20 612.11,301.79 614.79,303.37 617.46,304.93 620.14,306.47 622.82,307.98 625.50,309.48 628.18,310.95 630.86,312.39 633.54,313.81 636.21,315.20 638.89,316.56 641.57,317.89 644.25,319.19 646.93,320.46 649.61,321.70 652.29,322.90 654.96,324.07 657.64,325.21 660.32,326.30 663.00,327.36 665.68,328.39 668.36,329.37 671.04,330.31 673.71,331.22 676.39,332.08 679.07,332.90 681.75,333.68 684.43,334.42 687.11,335.11 689.79,335.76 692.46,336.36 695.14,336.92 697.82,337.43 700.50,337.90 703.18,338.32 705.86,338.70 708.54,339.03 711.21,339.31 713.89,339.54 716.57,339.72 719.25,339.86 721.93,339.95 724.61,339.99 727.29,339.99 729.96,339.93 732.64,339.83 735.32,339.68 738.00,339.48 740.68,339.23 743.36,338.94 746.04,338.60 748.71,338.21 751.39,337.77 754.07,337.29 756.75,336.76 759.43,336.19"/>
<line x1="828" y1="78" x2="856" y2="78" stroke="#2f6fbb" stroke-width="3"/>
<text x="864" y="82" font-family="Arial" font-size="13">p</text>
<polyline fill="none" stroke="#258a45" stroke-width="2.2" points="116.57,340.50 119.25,340.50 121.93,340.48 124.61,340.43 127.29,340.36 129.96,340.26 132.64,340.14 135.32,340.00 138.00,339.83 140.68,339.64 143.36,339.43 146.04,339.19 148.71,338.93 151.39,338.64 154.07,338.33 156.75,338.00 159.43,337.64 162.11,337.26 164.79,336.86 167.46,336.44 170.14,335.99 172.82,335.51 175.50,335.02 178.18,334.50 180.86,333.95 183.54,333.39 186.21,332.80 188.89,332.19 191.57,331.55 194.25,330.90 196.93,330.22 199.61,329.52 202.29,328.79 204.96,328.05 207.64,327.28 210.32,326.49 213.00,325.67 215.68,324.84 218.36,323.98 221.04,323.10 223.71,322.20 226.39,321.28 229.07,320.34 231.75,319.38 234.43,318.39 237.11,317.39 239.79,316.36 242.46,315.32 245.14,314.25 247.82,313.16 250.50,312.06 253.18,310.93 255.86,309.79 258.54,308.62 261.21,307.44 263.89,306.23 266.57,305.01 269.25,303.77 271.93,302.51 274.61,301.23 277.29,299.94 279.96,298.63 282.64,297.30 285.32,295.95 288.00,294.59 290.68,293.20 293.36,291.81 296.04,290.39 298.71,288.96 301.39,287.52 304.07,286.06 306.75,284.58 309.43,283.09 312.11,281.58 314.79,280.07 317.46,278.53 320.14,276.98 322.82,275.42 325.50,273.85 328.18,272.26 330.86,270.66 333.54,269.05 336.21,267.43 338.89,265.79 341.57,264.15 344.25,262.49 346.93,260.82 349.61,259.14 352.29,257.46 354.96,255.76 357.64,254.05 360.32,252.34 363.00,250.61 365.68,248.88 368.36,247.14 371.04,245.39 373.71,243.64 376.39,241.88 379.07,240.11 381.75,238.34 384.43,236.56 387.11,234.77 389.79,232.98 392.46,231.19 395.14,229.39 397.82,227.59 400.50,225.78 403.18,223.97 405.86,222.16 408.54,220.35 411.21,218.53 413.89,216.71 416.57,214.90 419.25,213.08 421.93,211.26 424.61,209.44 427.29,207.62 429.96,205.80 432.64,203.98 435.32,202.16 438.00,200.34 440.68,198.53 443.36,196.72 446.04,194.91 448.71,193.10 451.39,191.30 454.07,189.50 456.75,187.71 459.43,185.92 462.11,184.13 464.79,182.35 467.46,180.58 470.14,178.81 472.82,177.05 475.50,175.29 478.18,173.54 480.86,171.80 483.54,170.07 486.21,168.34 488.89,166.62 491.57,164.91 494.25,163.21 496.93,161.51 499.61,159.83 502.29,158.15 504.96,156.49 507.64,154.84 510.32,153.19 513.00,151.56 515.68,149.94 518.36,148.32 521.04,146.72 523.71,145.14 526.39,143.56 529.07,142.00 531.75,140.45 534.43,138.91 537.11,137.38 539.79,135.87 542.46,134.37 545.14,132.89 547.82,131.42 550.50,129.96 553.18,128.52 555.86,127.09 558.54,125.68 561.21,124.29 563.89,122.90 566.57,121.54 569.25,120.19 571.93,118.85 574.61,117.54 577.29,116.24 579.96,114.95 582.64,113.68 585.32,112.43 588.00,111.20 590.68,109.98 593.36,108.78 596.04,107.60 598.71,106.44 601.39,105.30 604.07,104.17 606.75,103.06 609.43,101.97 612.11,100.90 614.79,99.85 617.46,98.82 620.14,97.81 622.82,96.81 625.50,95.84 628.18,94.88 630.86,93.95 633.54,93.04 636.21,92.14 638.89,91.27 641.57,90.42 644.25,89.58 646.93,88.77 649.61,87.98 652.29,87.21 654.96,86.46 657.64,85.74 660.32,85.03 663.00,84.35 665.68,83.68 668.36,83.04 671.04,82.42 673.71,81.83 676.39,81.25 679.07,80.70 681.75,80.17 684.43,79.66 687.11,79.18 689.79,78.72 692.46,78.28 695.14,77.86 697.82,77.47 700.50,77.10 703.18,76.75 705.86,76.43 708.54,76.13 711.21,75.85 713.89,75.59 716.57,75.36 719.25,75.16 721.93,74.97 724.61,74.81 727.29,74.68 729.96,74.57 732.64,74.48 735.32,74.41 738.00,74.37 740.68,74.36 743.36,74.36 746.04,74.40 748.71,74.45 751.39,74.53 754.07,74.64 756.75,74.76 759.43,74.92"/>
<line x1="828" y1="102" x2="856" y2="102" stroke="#258a45" stroke-width="3"/>
<text x="864" y="106" font-family="Arial" font-size="13">q</text>
<polyline fill="none" stroke="#8a4fbf" stroke-width="2.2" points="116.57,340.50 119.25,339.24 121.93,337.97 124.61,336.71 127.29,335.45 129.96,334.19 132.64,332.93 135.32,331.68 138.00,330.42 140.68,329.18 143.36,327.93 146.04,326.69 148.71,325.45 151.39,324.22 154.07,323.00 156.75,321.78 159.43,320.57 162.11,319.36 164.79,318.16 167.46,316.97 170.14,315.79 172.82,314.62 175.50,313.46 178.18,312.30 180.86,311.16 183.54,310.02 186.21,308.90 188.89,307.79 191.57,306.69 194.25,305.60 196.93,304.52 199.61,303.46 202.29,302.41 204.96,301.38 207.64,300.36 210.32,299.35 213.00,298.36 215.68,297.38 218.36,296.42 221.04,295.47 223.71,294.54 226.39,293.63 229.07,292.73 231.75,291.85 234.43,290.99 237.11,290.15 239.79,289.32 242.46,288.52 245.14,287.73 247.82,286.96 250.50,286.21 253.18,285.49 255.86,284.78 258.54,284.09 261.21,283.42 263.89,282.78 266.57,282.15 269.25,281.55 271.93,280.96 274.61,280.40 277.29,279.87 279.96,279.35 282.64,278.86 285.32,278.39 288.00,277.94 290.68,277.52 293.36,277.12 296.04,276.74 298.71,276.39 301.39,276.06 304.07,275.75 306.75,275.47 309.43,275.21 312.11,274.98 314.79,274.77 317.46,274.59 320.14,274.43 322.82,274.30 325.50,274.19 328.18,274.11 330.86,274.05 333.54,274.01 336.21,274.00 338.89,274.02 341.57,274.06 344.25,274.13 346.93,274.22 349.61,274.34 352.29,274.48 354.96,274.65 357.64,274.84 360.32,275.06 363.00,275.30 365.68,275.57 368.36,275.86 371.04,276.18 373.71,276.52 376.39,276.89 379.07,277.28 381.75,277.69 384.43,278.13 387.11,278.60 389.79,279.09 392.46,279.60 395.14,280.13 397.82,280.69 400.50,281.27 403.18,281.87 405.86,282.50 408.54,283.15 411.21,283.82 413.89,284.52 416.57,285.23 419.25,285.97 421.93,286.73 424.61,287.51 427.29,288.31 429.96,289.13 432.64,289.97 435.32,290.83 438.00,291.71 440.68,292.61 443.36,293.53 446.04,294.46 448.71,295.42 451.39,296.39 454.07,297.38 456.75,298.39 459.43,299.41 462.11,300.45 464.79,301.51 467.46,302.58 470.14,303.67 472.82,304.77 475.50,305.89 478.18,307.02 480.86,308.16 483.54,309.32 486.21,310.49 488.89,311.67 491.57,312.86 494.25,314.06 496.93,315.28 499.61,316.51 502.29,317.74 504.96,318.99 507.64,320.24 510.32,321.50 513.00,322.77 515.68,324.05 518.36,325.34 521.04,326.63 523.71,327.93 526.39,329.23 529.07,330.54 531.75,331.85 534.43,333.17 537.11,334.49 539.79,335.82 542.46,337.14 545.14,338.47 547.82,339.80 550.50,341.13 553.18,342.47 555.86,343.80 558.54,345.13 561.21,346.47 563.89,347.80 566.57,349.13 569.25,350.45 571.93,351.78 574.61,353.10 577.29,354.42 579.96,355.73 582.64,357.04 585.32,358.34 588.00,359.64 590.68,360.93 593.36,362.22 596.04,363.49 598.71,364.76 601.39,366.03 604.07,367.28 606.75,368.53 609.43,369.77 612.11,370.99 614.79,372.21 617.46,373.42 620.14,374.61 622.82,375.80 625.50,376.97 628.18,378.13 630.86,379.28 633.54,380.42 636.21,381.54 638.89,382.65 641.57,383.74 644.25,384.82 646.93,385.89 649.61,386.94 652.29,387.97 654.96,388.99 657.64,389.99 660.32,390.98 663.00,391.95 665.68,392.90 668.36,393.84 671.04,394.75 673.71,395.65 676.39,396.54 679.07,397.40 681.75,398.24 684.43,399.07 687.11,399.87 689.79,400.66 692.46,401.43 695.14,402.17 697.82,402.90 700.50,403.60 703.18,404.29 705.86,404.95 708.54,405.60 711.21,406.22 713.89,406.82 716.57,407.40 719.25,407.96 721.93,408.49 724.61,409.01 727.29,409.50 729.96,409.97 732.64,410.42 735.32,410.84 738.00,411.24 740.68,411.62 743.36,411.98 746.04,412.31 748.71,412.63 751.39,412.91 754.07,413.18 756.75,413.42 759.43,413.64"/>
<line x1="828" y1="126" x2="856" y2="126" stroke="#8a4fbf" stroke-width="3"/>
<text x="864" y="130" font-family="Arial" font-size="13">r</text>
</svg>